<svg height="56" viewBox="0 0 45 56" width="45" xmlns="http://www.w3.org/2000/svg" xmlns:xlink="http://www.w3.org/1999/xlink"><mask id="a" fill="#fff"><path d="m0 0h45v36h-45z" fill="#fff" fill-rule="evenodd"/></mask><path d="m44.998 11.788-.003-5.083-.482.5c-.013.015-1.474 1.48-5.668 1.48h-2.778v-8.685h-5.453c-1.284 0-2.328 1.024-2.328 2.283v6.403h-9.261c-3.127 0-4.6 1.254-5.726 2.608l-4.553 5.522s2.151-2.005 5.31-2.005h24.79c2.713 0 4.573-.525 5.53-1.556.683-.736.624-1.46.622-1.467zm-8.93 15.791v-11.674h-7.782v13.11c0 4.135 2.898 6.985 7.103 6.985h5.983c1.284 0 2.33-1.026 2.33-2.29v-4.074h-5.552c-1.149 0-2.083-.922-2.083-2.057zm-21.759-6.118 4.585-5.556h-5.367c-1.986 0-3.936.446-5.351 1.671l-.406.49v-18.066h-5.452c-1.277 0-2.318 1.024-2.318 2.288v33.712h5.452c1.279 0 2.318-1.026 2.318-2.29v-8.969l4.416 5.336 3.756 4.55c.757.934 1.752 1.37 2.777 1.37h7.605l-4.919-5.94z" fill="#b5c1c9" fill-rule="evenodd" mask="url(#a)" transform="translate(0 11.152)"/></svg>