<svg xmlns="http://www.w3.org/2000/svg" xmlns:xlink="http://www.w3.org/1999/xlink" width="94" height="24" viewBox="0 0 94 24">
  <defs>
    <polygon id="logo-toss-a" points="0 .051 26.853 .051 26.853 21.955 0 21.955"/>
  </defs>
  <g fill="none" fill-rule="evenodd">
    <path fill="#B5C1C9" d="M32.021978 5.79019004L35.0601898 5.79019004 35.0601898 2.35118272 39.1920579 0 39.1920579 5.79019004 43.5062021 5.79019004 43.5062021 9.37587788 39.1920579 9.37587788 39.1920579 15.9008125C39.1920579 17.5761644 39.9210234 18.1639601 40.9845779 18.1639601 41.5617854 18.1639601 42.0174756 17.9876214 42.5035451 17.5761644L44.4175824 20.7503953C43.354028 21.5145297 42.0174756 21.9555106 40.498231 21.9555106 37.0652265 21.9555106 35.0601898 20.3681939 35.0601898 16.0476272L35.0601898 9.37587788 32.021978 9.37587788 32.021978 5.79019004zM58.4407227 13.7425477C58.4407227 11.1880203 56.4653833 9.15045241 54.0109004 9.15045241 51.5266247 9.15045241 49.581078 11.1880203 49.581078 13.7425477 49.581078 16.2970751 51.5266247 18.334643 54.0109004 18.334643 56.4653833 18.334643 58.4407227 16.2970751 58.4407227 13.7425477M45.4505495 13.7729571C45.4505495 9.02881486 49.1321372 5.22750253 53.980971 5.22750253 58.7998754 5.22750253 62.5414585 9.02881486 62.5414585 13.7729571 62.5414585 18.4866899 58.8597341 22.3184116 53.980971 22.3184116 49.1321372 22.3184116 45.4505495 18.4866899 45.4505495 13.7729571M63.010989 17.9808676L67.268828 16.4387158C68.0371071 17.8622406 69.4137533 18.6037952 71.2384162 18.6037952 73.0313598 18.6037952 73.9917086 17.8030625 73.9917086 16.8539105 73.9917086 15.6972966 72.1347418 15.4302503 69.9259394 15.015191 67.012735 14.451577 63.7792681 13.6210522 63.7792681 10.2400454 63.7792681 7.54114423 66.5964376 5.19812427 70.8542766 5.22778104 74.5038947 5.22778104 76.6808316 6.50315741 78.2814131 8.63858L74.2478017 10.1510751C73.5435458 9.0834315 72.4548581 8.46050399 70.8542766 8.46050399 69.1255025 8.46050399 68.2932001 9.11308826 68.2932001 10.0027913 68.2932001 11.0112567 69.7017118 11.2780322 72.2307767 11.7823327 75.1121157 12.3161544 78.5054945 13.2355142 78.5054945 16.6759699 78.5054945 19.1672737 76.1044762 21.9848019 71.0782119 21.9552806 66.9805772 21.9552806 64.3874891 20.531485 63.010989 17.9808676M78.5054945 17.9808676L82.7633335 16.4387158C83.5316126 17.8622406 84.9082588 18.6037952 86.7329217 18.6037952 88.5257191 18.6037952 89.4862141 17.8030625 89.4862141 16.8539105 89.4862141 15.6972966 87.6292473 15.4302503 85.4204449 15.015191 82.5072405 14.451577 79.2737736 13.6210522 79.2737736 10.2400454 79.2737736 7.54114423 82.0909431 5.19812427 86.3487821 5.22778104 89.9984002 5.22778104 92.1753371 6.50315741 93.7759186 8.63858L89.7423072 10.1510751C89.0379052 9.0834315 87.9493636 8.46050399 86.3487821 8.46050399 84.620008 8.46050399 83.7877056 9.11308826 83.7877056 10.0027913 83.7877056 11.0112567 85.1962173 11.2780322 87.7252822 11.7823327 90.6066211 12.3161544 94 13.2355142 94 16.6759699 94 19.1672737 91.5989816 21.9848019 86.5727174 21.9552806 82.4750827 21.9552806 79.8819946 20.531485 78.5054945 17.9808676"/>
    <g transform="translate(0 2.091)">
      <mask id="logo-toss-b" fill="#fff">
        <use xlink:href="#logo-toss-a"/>
      </mask>
      <path fill="#B5C1C9" d="M26.8528319,10.9916649 C26.8528319,5.33731769 22.4433023,0.668290936 16.787188,0.112040042 C15.8759733,0.0224776234 15.2910385,0.0489848862 14.8000349,0.0805794015 C9.46400264,0.424236693 5.94792059,3.9499704 3.61162462,8.05283951 C1.72294769,11.3721379 0.55762315,14.992789 -4.13186813e-05,18.0519681 C1.61634549,16.9784239 3.41425905,16.1492018 5.34673377,15.6226712 C7.14354549,19.3654164 11.0510532,21.9584425 15.5812334,21.9554997 C21.8224202,21.951481 26.8528319,17.0582135 26.8528319,10.9916649" mask="url(#logo-toss-b)"/>
    </g>
  </g>
</svg>
