<svg xmlns="http://www.w3.org/2000/svg" xmlns:xlink="http://www.w3.org/1999/xlink" width="110" height="24" viewBox="0 0 110 24">
  <defs>
    <polygon id="logo-molpay-a" points=".244 .189 16.213 .189 16.213 17.28 .244 17.28"/>
    <polygon id="logo-molpay-c" points="0 .07 61.314 .07 61.314 17.11 0 17.11"/>
  </defs>
  <g fill="none" fill-rule="evenodd">
    <path fill="#B5C1C9" d="M65.6800361 1.99721242L65.6800361 7.9888497 71.6252374 7.9888497C74.6263692 7.9888497 76.1248601 6.95403918 76.1248601 4.88617563 76.1248601 2.95961433 74.6644107 1.99721242 71.7438578 1.99721242L65.6800361 1.99721242zM65.6800361 9.98465613L65.6800361 17.28 62.7 17.28 62.7 0 72.6433674 0C74.6446983 0 76.2420972.451675108 77.4244975 1.36170379 78.6096644 2.26189052 79.2 3.43237933 79.2 4.86192226 79.2 6.23944346 78.70131 7.39587234 77.7111924 8.32558491 76.5384754 9.43104656 74.8480476 9.98465613 72.6433674 9.98465613L65.6800361 9.98465613zM90.8167148 12.6863829L90.8167148 10.6717527C90.3496735 10.9378359 88.745439 11.1943306 85.9848643 11.4480856 83.4829643 11.6785541 82.2398985 12.3442759 82.2398985 13.4380595 82.2398985 14.8612794 83.293745 15.5711772 85.4179572 15.5711772 86.8205829 15.5711772 88.068154 15.2900262 89.1685545 14.7232723 90.2633234 14.1633674 90.8167148 13.4805232 90.8167148 12.6863829M82.7722656 8.39788823L80.0706341 8.39788823C80.1960295 5.67815458 82.5894287 4.32 87.2733578 4.32 88.6714783 4.32 89.932565 4.50047087 91.0464811 4.86175505 92.8654645 5.43980975 93.7676352 6.40654459 93.7676352 7.75648038L93.7676352 14.84039C93.7676352 15.3273532 94.0882568 15.5711772 94.7201142 15.5711772 94.9258527 15.5711772 95.253983 15.524604 95.7 15.4307729L95.7 16.9337836C94.8609024 17.0882283 94.3259073 17.1656219 94.1081549 17.1656219 92.9199026 17.1656219 92.0913172 16.9697408 91.6133882 16.5779786 91.2507179 16.2981974 91.0464811 15.8691082 90.9995518 15.2900262 89.2519011 16.619415 87.14158 17.28 84.6768482 17.28 83.0643541 17.28 81.7443241 16.9519334 80.7298983 16.2981974 79.7030831 15.640352 79.2 14.7910773 79.2 13.7400999 79.2 11.4950012 80.9686751 10.2138977 84.5199163 9.89781688L89.353644 9.47317955C90.3797083 9.38345779 90.8921773 8.8982069 90.8921773 8.02256361 90.8921773 6.69317479 89.524467 6.03395957 86.7770325 6.03395957 85.3105827 6.03395957 84.2432206 6.3041522 83.5884616 6.8489893 83.1848688 7.21301308 82.9096749 7.72771463 82.7722656 8.39788823"/>
    <g transform="translate(93.5 5.4)">
      <mask id="logo-molpay-b" fill="#fff">
        <use xlink:href="#logo-molpay-a"/>
      </mask>
      <path fill="#B5C1C9" d="M8.306025,10.0697336 L12.97665,0.188623059 L16.2129,0.188623059 C14.8584,2.83144659 12.76065,6.79500424 9.9174,12.0820066 C8.91465,13.8804819 8.192775,15.0531501 7.76265,15.6125478 C7.199025,16.3386466 6.5829,16.8106278 5.918775,17.0288301 C5.390025,17.1951925 4.44465,17.2798984 3.09165,17.2798984 C2.88315,17.2798984 2.477025,17.217216 1.8609,17.0996442 L1.8609,15.241536 C2.40765,15.3807925 3.0024,15.4543172 3.6339,15.4543172 C4.369275,15.4543172 4.89765,15.2960866 5.2209,14.9850466 C5.500275,14.7221195 6.00465,13.9404536 6.741525,12.6444536 L0.243525,0.188623059 L3.576525,0.188623059 L8.225775,10.0697336" mask="url(#logo-molpay-b)"/>
    </g>
    <mask id="logo-molpay-d" fill="#fff">
      <use xlink:href="#logo-molpay-c"/>
    </mask>
    <path fill="#B5C1C9" d="M37.786665,11.1719002 L35.762615,13.490185 L29.858815,13.490185 L29.858815,5.85691776 L31.833165,3.66235776 L37.786665,3.66235776 L37.786665,11.1719002 Z M49.248115,12.6721498 L49.248115,2.27995776 C49.248115,2.27995776 49.255115,0.07019136 47.012665,0.07019136 L30.402715,0.07019136 C29.733165,0.07019136 29.170715,0.31936896 28.712915,0.82463616 L25.950365,3.97374336 C25.589515,4.40954496 25.405065,4.83808896 25.405065,5.42837376 L25.405065,13.490185 L26.102615,14.8877914 L25.405065,14.8877914 L24.707165,13.498825 L24.005415,13.498825 C22.798965,13.498825 22.798965,12.3075418 22.798965,12.3075418 L22.798965,5.42837376 C22.798965,4.83808896 22.623965,4.58614656 22.244915,3.97374336 L20.108165,0.82463616 C19.640215,0.21361536 19.076365,0.07019136 18.411365,0.07019136 L2.241015,0.07019136 L1.964515,0.08989056 C0.764015,0.19840896 0.296065,0.99294336 0.116865,1.59981696 C0.052115,1.78609536 0.019915,1.97548416 0.006965,2.17040256 L-3.5e-05,2.27995776 L-3.5e-05,14.9057626 C-3.5e-05,16.1291866 1.004815,17.110345 2.241015,17.110345 C3.474065,17.110345 4.475065,16.1291866 4.477865,14.9057626 L4.477865,4.46518656 L9.143015,4.46518656 L9.143015,14.9057626 C9.150015,16.1291866 10.149265,17.110345 11.385115,17.110345 C12.619915,17.110345 13.619165,16.1291866 13.623365,14.9057626 L13.623365,4.48903296 L16.769165,4.48903296 L18.295865,6.72541056 L18.295865,14.9057626 C18.325265,15.499849 18.536665,16.0037338 18.912915,16.429513 C19.296515,16.859785 19.846015,17.0754394 20.557915,17.087881 L37.151065,17.087881 C37.815015,17.087881 38.375715,16.8400858 38.843665,16.3337818 L41.602015,13.1926234 C41.965665,12.7485274 42.147315,12.2629594 42.147315,11.7300442 L42.147315,3.66235776 L42.151515,3.66235776 L41.494915,2.35253376 L42.199465,2.35253376 L42.850815,3.66235776 L43.548365,3.66235776 C43.548365,3.66235776 44.752015,3.66235776 44.752015,4.85640576 L44.752015,14.9057626 C44.752015,14.9057626 44.759015,17.110345 46.994465,17.110345 L56.265615,17.110345 C56.932365,17.110345 57.570415,16.8400858 58.034515,16.3337818 L61.314365,12.6721498 L49.248115,12.6721498 Z" mask="url(#logo-molpay-d)"/>
  </g>
</svg>
