<svg height="81" viewBox="0 0 113 81" width="113" xmlns="http://www.w3.org/2000/svg" xmlns:xlink="http://www.w3.org/1999/xlink"><mask id="a" fill="#fff"><path d="m0 .333h10v15.305h-10z" fill="#fff" fill-rule="evenodd"/></mask><mask id="b" fill="#fff"><path d="m0 .333h11v15.305h-11z" fill="#fff" fill-rule="evenodd"/></mask><g fill="#b5c1c9" fill-rule="evenodd"><path d="m53.26 10.625v11.25c.38-.021.773-.056 1.16-.106 2.81-.36 5.854-2.023 5.965-5.607.104-3.345-2.018-5.35-5.82-5.502-.452-.019-.86-.03-1.306-.035m1.276-2.592c5.608.232 9.108 3.548 8.95 8.49-.143 4.446-3.6 7.737-8.807 8.39-.537.066-1.077.11-1.604.134v6.813c.29.01.58.015.86.015 5.066 0 9.36-1.572 12.421-4.549 2.84-2.745 4.404-6.362 4.404-10.186 0-8.072-7.01-14.64-15.63-14.64l-.249.002c-8.119.122-12.226 5.077-12.602 9.63-.247 3.002.747 5.658 2.802 7.48 1.299 1.152 2.92 1.912 4.823 2.265v-13.759c1.705-.117 3.098-.147 4.632-.085m-4.644 26.723v-9.606c-2.73-.386-5.164-1.459-7.04-3.101-2.78-2.434-4.128-5.914-3.804-9.8.272-3.222 1.875-6.223 4.52-8.454 3.072-2.589 6.75-3.795 11.577-3.795 10.396 0 18.856 7.828 18.856 17.45 0 4.554-1.883 8.862-5.303 12.133-3.69 3.544-8.804 5.417-14.792 5.417-1.778 0-3.684-.221-4.014-.244m45.402 13.917c-1.494-.865-1.786-1.279-1.754-2.053.03-.749.76-1.571 2.121-1.768 1.365-.197 2.498.256 3.378.96v-1.386c-1.048-.365-2.872-.623-4.679-.227-1.807.393-2.636 1.379-2.967 2.061-.334.683-.424 1.978.404 2.826.83.85 2.686 1.9 3.736 2.508 1.051.607 2.065 1.294 2.016 2.582-.04 1-1.164 2.131-3.363 1.881-1.271-.142-2.566-.834-3.185-1.671v1.674c1.73.971 4.929 1.458 7.158.117 1.992-1.198 2.14-2.984 1.513-4.228-.627-1.245-2.887-2.412-4.378-3.276m-77.579 2.417 2.171-5.908 2.163 5.909h-4.334zm.636-7.09v.146c.84.132.677.856.498 1.262l-4.848 11.592h1.214l1.971-4.837h5.224l1.628 4.03c.18.47.56.807 1.303.807h1.66l-5.396-13h-3.255zm30.364 7.09 2.173-5.908 2.16 5.909h-4.333zm.639-7.09v.146c.836.132.677.856.498 1.262l-4.851 11.592h1.219l1.967-4.837h5.224l1.625 4.03c.183.47.564.807 1.305.807h1.66l-5.396-13zm32.647.146c.4.172.541.623.541 1.195v11.659h1.459v-13h-2z"/><path d="m3.55 14.66v-6.594h5.609v-.977h-5.61v-5.849h5.851v-.907h-9.4v.172c.71.202.962.733.962 1.407v13.726l9.038-.003v-.975z" mask="url(#a)" transform="translate(103 43)"/><path d="m67.295 55.818h-2.2v-11.227h1.92c3.485 0 5.509 2.101 5.509 5.6 0 3.501-2.558 5.627-5.229 5.627m.674-11.818h-5.969v.146c.623.164.858.583.88 1.116l.002.026v11.712h4.498c6.269 0 7.62-4.222 7.62-6.705 0-3.762-3.206-6.295-7.031-6.295m-34.913.59h1.534c1.583 0 2.743 1.026 2.743 2.546 0 1.728-1.057 2.773-2.828 2.773h-1.45v-5.318zm6.73 2.773c0-1.593-1.158-3.363-4-3.363h-5.786v.144c.643.169.874.61.88 1.17v11.686h2.368v-6.124h1.208l3.247 5.309c.326.47.803.81 1.518.815h1.779l-4.07-6.367c1.57-.462 2.855-1.583 2.855-3.27z"/><path d="m4.839 7.623h-1.401v-6.26h1.502c1.912 0 3.31 1.207 3.31 2.996 0 2.034-1.273 3.264-3.411 3.264m1.527-6.956h-6.366v.172c.754.201 1.022.732 1.022 1.407v13.724h2.742v-7.173h1.992c2.56 0 5.244-1.51 5.244-4.177 0-1.875-1.34-3.953-4.634-3.953" mask="url(#b)" transform="translate(0 43)"/></g></svg>