<svg height="56" viewBox="0 0 126 56" width="126" xmlns="http://www.w3.org/2000/svg" xmlns:xlink="http://www.w3.org/1999/xlink"><mask id="a" fill="#fff"><path d="m.02.075h16.008v19.652h-16.008z" fill="#fff" fill-rule="evenodd"/></mask><mask id="b" fill="#fff"><path d="m0 .089h11.337v12.616h-11.337z" fill="#fff" fill-rule="evenodd"/></mask><g fill="#b5c1c9" fill-rule="evenodd"><path d="m44.101 14.324c-5.093-2.007-10.236-1.793-11.541.557-1.317 2.37.6 7.98 4.221 12.638 3.62 4.654 8.737 4.502 11.56-.582 2.778-5.07.84-10.612-4.24-12.613m-25.899 1.623c4.52 3.087 9.58 4.02 11.373 2.018 1.81-2.018 1.185-7.91-1.31-13.254-2.496-5.34-7.517-6.327-11.397-1.998-3.832 4.325-3.172 10.157 1.334 13.234" transform="translate(0 7)"/><path d="m15.942 9.887c-.722-5.427-3.412-9.817-6.101-9.812-2.711.001-6.681 4.405-8.988 9.835-2.306 5.427.317 9.824 6.132 9.817 5.78-.039 9.68-4.43 8.957-9.84" mask="url(#a)" transform="translate(18.455 29.305)"/><path d="m13.77 18.087c-.922 0-1.541.568-1.541 1.414v.85h2.189s.073 7.224-.01 7.98c-.083.757-.275 1.99-1.629 2.635-1.167.557-1.191 1.084-1.266 1.553-.096.608.017.685.46.577 1.74-.426 3.59-1.124 4.527-2.844.509-.934.712-1.945.712-3.48v-6.42c.927-.011 1.596-.603 1.596-1.415v-.85z" transform="translate(0 7)"/><path d="m11.337 10.187s-1.757 2.518-5.167 2.518c-3.518 0-6.17-2.693-6.17-6.265 0-3.62 2.652-6.35 6.17-6.35 3.349 0 5.122 2.517 5.122 2.517s-.938 1.003-1.838 1.003c-.439 0-.767-.203-1.147-.437-.508-.314-1.084-.67-2.137-.67-2 0-3.627 1.766-3.627 3.936 0 2.125 1.627 3.853 3.627 3.853 1.188 0 1.746-.34 2.238-.64.35-.214.68-.415 1.159-.415 1.013 0 1.77.95 1.77.95" mask="url(#b)" transform="translate(0 24.639)"/><path d="m102.59 18.088c-.5 0-.928.442-.928.928v8.65h1.42c.5 0 .928-.442.928-.928v-8.65zm22.482 1.904c.504 0 .928-.423.928-.928v-.974h-5.138c-.5 0-.928.442-.928.928v8.65h5.138c.504 0 .928-.44.928-.945v-.965h-2.846c-.75 0-.875.367-.875.367v-2.335h2.57c.504 0 .929-.424.929-.929v-.98h-2.624c-.75 0-.875.367-.875.367v-2.256zm-16.004 5.766c-.75 0-.876.367-.876.367v-8.035h-1.436c-.5 0-.928.441-.928.928v8.65h5.138c.504 0 .928-.44.928-.945v-.965zm7.084 0c-.75 0-.876.367-.876.367v-8.035h-1.436c-.501 0-.928.441-.928.928v8.65h5.138c.503 0 .928-.44.928-.945v-.965zm-29.475-.055h-.698c-.75 0-.876.368-.876.368v-6.071h1.574c1.707 0 2.765 1.145 2.765 2.866 0 1.722-1.201 2.836-2.765 2.836zm-2.957-7.622c-.5 0-.928.442-.928.929v8.651h3.986c2.527 0 4.887-1.847 4.887-4.794 0-2.975-2.354-4.786-4.65-4.786zm-17.841 7.729c-1.546 0-2.798-1.321-2.798-2.95 0-1.628 1.252-2.948 2.798-2.948 1.545 0 2.798 1.32 2.798 2.948 0 1.629-1.253 2.95-2.798 2.95m0-7.947c-2.729 0-4.94 2.238-4.94 4.997 0 2.76 2.212 4.998 4.94 4.998s4.94-2.238 4.94-4.998-2.212-4.997-4.94-4.997m10.642 7.947c-1.545 0-2.798-1.321-2.798-2.95 0-1.628 1.253-2.948 2.798-2.948 1.546 0 2.798 1.32 2.798 2.948 0 1.629-1.252 2.95-2.798 2.95m0-7.947c-2.728 0-4.94 2.238-4.94 4.997 0 2.76 2.212 4.998 4.94 4.998 2.729 0 4.94-2.238 4.94-4.998s-2.211-4.997-4.94-4.997m21.574 1.029-2.048 5.572-2.355-6.374h-.678c-1.191 0-1.25.955-1.164 1.187l3.144 8.39h1.2c.862 0 1.099-.532 1.217-.794.119-.263 3.288-8.783 3.288-8.783h-1.311c-.794 0-1.159.438-1.293.802m-38.952 1.276c.625 0 1.152-.525 1.152-1.152v-.935h-6.377c-.621 0-1.152.548-1.152 1.152v10.735h1.365c.621 0 1.152-.548 1.152-1.152v-3.81h3.594c.625 0 1.152-.473 1.152-1.1v-.996h-3.66c-.93 0-1.086.456-1.086.456v-3.198z" transform="translate(0 7)"/></g></svg>