<svg height="81" viewBox="0 0 125 81" width="125" xmlns="http://www.w3.org/2000/svg" xmlns:xlink="http://www.w3.org/1999/xlink"><mask id="a" fill="#fff"><path d="m.5.808h17.788v20.567h-17.788z" fill="#fff" fill-rule="evenodd"/></mask><g fill="#b5c1c9" fill-rule="evenodd"><path d="m37 17.453c-8.74 2.407-16.693 6.104-23 11 7.233-3.536 14.977-6.248 23-8.081v-2.92zm30.29-2.945c-2.606-.073-5.217-.073-7.821-.004l-1.469 2.916c3.656-.112 7.327-.104 11 .032l-1.71-2.945zm-10.29.945c-5.101.308-10.145.98-15 2.014v2.986c4.446-.799 8.964-1.344 13.517-1.633zm55 13c-5.987-4.843-13.175-8.487-21-11v3.07c7.193 1.887 14.24 4.513 21 7.93m-26-12.323c-4.843-1.334-9.887-2.222-15-2.677l1.614 3.814c4.485.43 8.958 1.16 13.386 2.186z" transform="translate(1 15)"/><path d="m29 1.453h3.737l6.498 10.082.204.316.204-.316 6.499-10.082h2.858l-8.157 11.605-.042.06v.07 9.265h-3.364v-9.033-.072l-.042-.059zm-13.593 10.655h-11.814-.241v.231 10.114h-3.352v-21h3.352v8.724.232h.241 11.814.241v-.232-8.724h3.352v21h-3.352v-10.114-.231zm47.489-6.373-.227-.491-.202.503-9.107 22.706h-2.36l11.911-27 1.331.062 12.758 26.938h-3.602zm26.808-2.507v19.225h-3.329v-19.225-.232h-.239-7.136v-1.543h18v1.543h-7.057-.239z" transform="translate(1 15)"/><path d="m11.079 2.547v18.828h-3.292v-18.828-.227h-.234-7.053v-1.512h17.789v1.512h-6.975-.235z" mask="url(#a)" transform="translate(106 15.453)"/></g></svg>