<svg xmlns="http://www.w3.org/2000/svg" width="49" height="39" viewBox="0 0 49 39">
  <path fill="#B5C1C9" fill-rule="evenodd" d="M24.5004375,3.27533409 C24.3053299,3.43055493 24.1145969,3.5901359 23.9273636,3.75494904 C20.7365235,6.55851642 18.7172038,10.6875651 18.7172038,15.2944847 C18.7172038,19.9022763 20.7365235,24.030453 23.9273636,26.8348924 C24.1145969,26.9988335 24.3053299,27.1592865 24.5004375,27.3136353 C24.695545,27.1592865 24.886278,26.9988335 25.0735113,26.8348924 C28.2643514,24.030453 30.2836711,19.9022763 30.2836711,15.2944847 C30.2836711,10.6875651 28.2643514,6.55851642 25.0735113,3.75494904 C24.886278,3.5901359 24.695545,3.43055493 24.5004375,3.27533409 L24.5004375,3.27533409 Z M33.857727,-3.55271368e-15 C30.7578788,-3.55271368e-15 27.8758861,0.941789354 25.4759754,2.55503964 C25.5993393,2.65793884 25.7227033,2.75734994 25.8416927,2.8619932 C29.4087492,5.99693092 31.4543166,10.5288562 31.4543166,15.2944847 C31.4543166,20.0609853 29.4087492,24.5920385 25.8416927,27.7269762 C25.7235783,27.8307475 25.5993393,27.9310306 25.4759754,28.0339298 C27.8758861,29.6480521 30.7578788,30.5898414 33.857727,30.5898414 C42.2202303,30.5898414 49,23.741812 49,15.2944847 C49,6.84802945 42.2202303,-3.55271368e-15 33.857727,-3.55271368e-15 L33.857727,-3.55271368e-15 Z M23.1591822,27.7269762 C23.2772967,27.8307475 23.4015356,27.9310306 23.5248996,28.0330578 C21.1249888,29.6480521 18.2429962,30.5898414 15.142273,30.5898414 C6.77976966,30.5898414 0,23.741812 0,15.2944847 C0,6.84802945 6.77976966,-3.55271368e-15 15.142273,-3.55271368e-15 C18.2429962,-3.55271368e-15 21.1249888,0.941789354 23.5248996,2.55503964 C23.4015356,2.65793884 23.2781716,2.75734994 23.1591822,2.86112118 C19.5912508,5.99693092 17.5456834,10.5288562 17.5456834,15.2944847 C17.5456834,20.0609853 19.5912508,24.5929105 23.1591822,27.7269762 L23.1591822,27.7269762 Z M48.5257923,24.7716761 L48.5257923,24.1786976 L48.3718061,24.1786976 L48.1959468,24.5868063 L48.0192126,24.1786976 L47.8652263,24.1786976 L47.8652263,24.7716761 L47.9737166,24.7716761 L47.9737166,24.3251982 L48.1399518,24.7106342 L48.2510669,24.7106342 L48.417302,24.3234541 L48.417302,24.7716761 L48.5257923,24.7716761 Z M47.5537541,24.7716761 L47.5537541,24.2798528 L47.7497366,24.2798528 L47.7497366,24.1795696 L47.2492813,24.1795696 L47.2492813,24.2798528 L47.4470137,24.2798528 L47.4470137,24.7716761 L47.5537541,24.7716761 Z M48.0270869,37.9767837 L48.0270869,38.0770668 L48.1180787,38.0770668 C48.1390769,38.0770668 48.1557004,38.0727067 48.1679493,38.0648584 C48.1801982,38.0561382 48.1863226,38.0439298 48.1863226,38.0273613 C48.1863226,38.0099207 48.1801982,37.9977123 48.1679493,37.9898641 C48.1557004,37.9811438 48.1390769,37.9767837 48.1180787,37.9767837 L48.0270869,37.9767837 Z M48.1189537,37.9070215 C48.1670744,37.9070215 48.2038211,37.9174858 48.2291938,37.9384145 C48.2545666,37.9602152 48.2676904,37.9898641 48.2676904,38.0273613 C48.2676904,38.0570102 48.2571913,38.083171 48.2370681,38.1032276 C48.21607,38.1232843 48.1871976,38.1354926 48.1495759,38.1398528 L48.2711901,38.2819932 L48.1766985,38.2819932 L48.0629587,38.1415968 L48.0270869,38.1415968 L48.0270869,38.2819932 L47.947469,38.2819932 L47.947469,37.9070215 L48.1189537,37.9070215 Z M48.0962057,38.4110532 C48.1390769,38.4110532 48.1784484,38.402333 48.2151951,38.3848924 C48.2528167,38.3691959 48.2860637,38.3465232 48.3140612,38.3186183 C48.3420587,38.2898414 48.3639318,38.2567044 48.3805553,38.2183352 C48.3963039,38.179966 48.4033033,38.1389807 48.4033033,38.0953794 C48.4033033,38.051778 48.3963039,38.0107928 48.3805553,37.9732956 C48.3639318,37.9349264 48.3420587,37.9017894 48.3140612,37.8738845 C48.2860637,37.8451076 48.2528167,37.8224349 48.2151951,37.8067384 C48.1784484,37.7910419 48.1390769,37.7823216 48.0962057,37.7823216 C48.0515847,37.7823216 48.0104634,37.7910419 47.9728417,37.8067384 C47.9343451,37.8224349 47.9010981,37.8451076 47.8731006,37.8738845 C47.845978,37.9017894 47.8223551,37.9349264 47.8074815,37.9732956 C47.790858,38.0107928 47.7829837,38.051778 47.7829837,38.0953794 C47.7829837,38.1389807 47.790858,38.179966 47.8074815,38.2183352 C47.8223551,38.2567044 47.845978,38.2898414 47.8731006,38.3186183 C47.9010981,38.3465232 47.9343451,38.3691959 47.9728417,38.3848924 C48.0104634,38.402333 48.0515847,38.4110532 48.0962057,38.4110532 L48.0962057,38.4110532 Z M48.0962057,37.6916308 C48.1513258,37.6916308 48.204696,37.7029672 48.2536916,37.7238958 C48.3026873,37.7448245 48.3464334,37.7736014 48.3831801,37.8102265 C48.4199268,37.8468516 48.4487992,37.889581 48.4697973,37.9384145 C48.4916704,37.98812 48.5021694,38.0404417 48.5021694,38.0953794 C48.5021694,38.1511891 48.4916704,38.2035108 48.4697973,38.2514723 C48.4487992,38.3011778 48.4199268,38.3439071 48.3831801,38.3796602 C48.3464334,38.4171574 48.3026873,38.4459343 48.2536916,38.467735 C48.204696,38.4886636 48.1513258,38.5 48.0962057,38.5 C48.0375859,38.5 47.9842157,38.4886636 47.9343451,38.467735 C47.8844746,38.4459343 47.8416034,38.4171574 47.8048567,38.3796602 C47.76811,38.3439071 47.7392376,38.3011778 47.7182394,38.2514723 C47.6972413,38.2035108 47.6858673,38.1511891 47.6858673,38.0953794 C47.6858673,38.0404417 47.6972413,37.98812 47.7182394,37.9384145 C47.7392376,37.889581 47.76811,37.8468516 47.8048567,37.8102265 C47.8416034,37.7736014 47.8844746,37.7448245 47.9343451,37.7238958 C47.9842157,37.7029672 48.0375859,37.6916308 48.0962057,37.6916308 L48.0962057,37.6916308 Z M10.5891795,36.2492978 C10.5891795,35.5359796 11.0511383,34.9499773 11.8079457,34.9499773 C12.5306312,34.9499773 13.0188376,35.5106908 13.0188376,36.2492978 C13.0188376,36.9887769 12.5306312,37.5494904 11.8079457,37.5494904 C11.0511383,37.5494904 10.5891795,36.9634881 10.5891795,36.2492978 L10.5891795,36.2492978 Z M13.843014,36.2492978 L13.843014,34.2200906 L12.9680921,34.2200906 L12.9680921,34.712786 C12.6907419,34.3474066 12.2699045,34.1180634 11.6985805,34.1180634 C10.5708062,34.1180634 9.68801,35.0092752 9.68801,36.2492978 C9.68801,37.4901925 10.5708062,38.3822763 11.6985805,38.3822763 C12.2699045,38.3822763 12.6907419,38.1538052 12.9680921,37.7875538 L12.9680921,38.2811212 L13.843014,38.2811212 L13.843014,36.2492978 Z M43.3821266,36.2492978 C43.3821266,35.5359796 43.8449603,34.9499773 44.6026426,34.9499773 C45.3253281,34.9499773 45.8126596,35.5106908 45.8126596,36.2492978 C45.8126596,36.9887769 45.3253281,37.5494904 44.6026426,37.5494904 C43.8449603,37.5494904 43.3821266,36.9634881 43.3821266,36.2492978 L43.3821266,36.2492978 Z M46.6377109,36.2492978 L46.6377109,32.5876557 L45.762789,32.5876557 L45.762789,34.712786 C45.4845639,34.3474066 45.0646014,34.1180634 44.4932774,34.1180634 C43.3655031,34.1180634 42.4827069,35.0092752 42.4827069,36.2492978 C42.4827069,37.4901925 43.3655031,38.3822763 44.4932774,38.3822763 C45.0646014,38.3822763 45.4845639,38.1538052 45.762789,37.7875538 L45.762789,38.2811212 L46.6377109,38.2811212 L46.6377109,36.2492978 Z M24.6937952,34.907248 C25.25637,34.907248 25.6185876,35.2647792 25.7113293,35.8935108 L23.6246407,35.8935108 C23.7173824,35.3066365 24.0708508,34.907248 24.6937952,34.907248 L24.6937952,34.907248 Z M24.7095438,34.1180634 C23.5327739,34.1180634 22.7085974,34.9839864 22.7085974,36.2492978 C22.7085974,37.5416421 23.5668958,38.3822763 24.7690385,38.3822763 C25.3744844,38.3822763 25.9300598,38.2296716 26.4173913,37.8128426 L25.9886796,37.1588222 C25.6518347,37.4308947 25.2231229,37.5834994 24.8197839,37.5834994 C24.2563343,37.5834994 23.7427551,37.3210193 23.6167664,36.5893884 L26.6019998,36.5893884 C26.610749,36.479513 26.6194983,36.3687656 26.6194983,36.2492978 C26.610749,34.9839864 25.8373181,34.1180634 24.7095438,34.1180634 L24.7095438,34.1180634 Z M35.2654763,36.2492978 C35.2654763,35.5359796 35.72831,34.9499773 36.4851174,34.9499773 C37.2086778,34.9499773 37.6968842,35.5106908 37.6968842,36.2492978 C37.6968842,36.9887769 37.2086778,37.5494904 36.4851174,37.5494904 C35.72831,37.5494904 35.2654763,36.9634881 35.2654763,36.2492978 L35.2654763,36.2492978 Z M38.5201857,36.2492978 L38.5201857,34.2200906 L37.6461387,34.2200906 L37.6461387,34.712786 C37.3687885,34.3474066 36.9479511,34.1180634 36.3757522,34.1180634 C35.2488528,34.1180634 34.3651817,35.0092752 34.3651817,36.2492978 C34.3651817,37.4901925 35.2488528,38.3822763 36.3757522,38.3822763 C36.9479511,38.3822763 37.3687885,38.1538052 37.6461387,37.7875538 L37.6461387,38.2811212 L38.5201857,38.2811212 L38.5201857,36.2492978 Z M30.3282921,36.2492978 C30.3282921,37.4823443 31.1778413,38.3822763 32.4727256,38.3822763 C33.0790465,38.3822763 33.4832604,38.2471121 33.9207214,37.8983012 L33.499009,37.184111 C33.1709133,37.4221744 32.827069,37.5494904 32.4482278,37.5494904 C31.7500402,37.5416421 31.237336,37.0315062 31.237336,36.2492978 C31.237336,35.4679615 31.7500402,34.9586976 32.4482278,34.9499773 C32.827069,34.9499773 33.1709133,35.0781653 33.499009,35.3153567 L33.9207214,34.6020385 C33.4832604,34.2532276 33.0790465,34.1180634 32.4727256,34.1180634 C31.1778413,34.1180634 30.3282921,35.0179955 30.3282921,36.2492978 L30.3282921,36.2492978 Z M41.5990358,34.1180634 C41.0950808,34.1180634 40.7669851,34.3552548 40.5395054,34.712786 L40.5395054,34.2200906 L39.6733327,34.2200906 L39.6733327,38.2811212 L40.5482546,38.2811212 L40.5482546,36.0033862 C40.5482546,35.3327973 40.8334792,34.9586976 41.4056781,34.9586976 C41.5824123,34.9586976 41.7670208,34.9839864 41.9525042,35.0607248 L42.2219802,34.2279388 C42.0277475,34.1520725 41.77577,34.1180634 41.5990358,34.1180634 L41.5990358,34.1180634 Z M18.166878,34.5418686 C17.7460405,34.2619479 17.1650924,34.1180634 16.5263994,34.1180634 C15.5088653,34.1180634 14.8526739,34.6107588 14.8526739,35.4173839 C14.8526739,36.0801246 15.3400054,36.4882333 16.2403,36.6155493 L16.6523882,36.6748471 C17.1318454,36.7428652 17.3593251,36.8701812 17.3593251,37.0995243 C17.3593251,37.4143262 17.0399786,37.5930917 16.4424069,37.5930917 C15.836961,37.5930917 15.3995,37.3968856 15.1055263,37.1675425 L14.6925632,37.8555719 C15.1720204,38.212231 15.7774663,38.3822763 16.4336577,38.3822763 C17.594679,38.3822763 18.267494,37.8302831 18.267494,37.056795 C18.267494,36.3434768 17.7381662,35.9693771 16.8632444,35.8420612 L16.4511561,35.7827633 C16.072315,35.7321857 15.769592,35.6554473 15.769592,35.3833749 C15.769592,35.0860136 16.0556915,34.907248 16.5351486,34.907248 C17.0478529,34.907248 17.5439336,35.1034541 17.7880368,35.2560589 L18.166878,34.5418686 Z M29.444621,34.1180634 C28.940666,34.1180634 28.6125703,34.3552548 28.3850906,34.712786 L28.3850906,34.2200906 L27.518918,34.2200906 L27.518918,38.2811212 L28.3938398,38.2811212 L28.3938398,36.0033862 C28.3938398,35.3327973 28.6799393,34.9586976 29.2521382,34.9586976 C29.4288724,34.9586976 29.6143559,34.9839864 29.7989644,35.0607248 L30.0675654,34.2279388 C29.8750826,34.1520725 29.6222302,34.1180634 29.444621,34.1180634 L29.444621,34.1180634 Z M21.9850371,34.2200906 L20.5545398,34.2200906 L20.5545398,32.9870442 L19.6717436,32.9870442 L19.6717436,34.2200906 L18.8563164,34.2200906 L18.8563164,35.0267157 L19.6717436,35.0267157 L19.6717436,36.8789015 C19.6717436,37.8215629 20.0339613,38.3822763 21.0681189,38.3822763 C21.4469601,38.3822763 21.884421,38.2636806 22.1617713,38.0683465 L21.9097938,37.312299 C21.6481921,37.4657758 21.3629676,37.5416421 21.1354879,37.5416421 C20.698027,37.5416421 20.5545398,37.2695696 20.5545398,36.8614609 L20.5545398,35.0267157 L21.9850371,35.0267157 L21.9850371,34.2200906 Z M8.91457906,38.2811212 L8.91457906,35.7321857 C8.91457906,34.7720838 8.30913311,34.1259117 7.33359521,34.1180634 C6.82001607,34.1084711 6.29068833,34.2697961 5.92059638,34.8401019 C5.64237122,34.3892639 5.20491028,34.1180634 4.59071511,34.1180634 C4.16200339,34.1180634 3.74116597,34.2453794 3.41307026,34.7206342 L3.41307026,34.2200906 L2.5390233,34.2200906 L2.5390233,38.2811212 L3.42181948,38.2811212 L3.42181948,36.028675 C3.42181948,35.323205 3.80940987,34.9499773 4.4061066,34.9499773 C4.98617981,34.9499773 5.28102848,35.3327973 5.28102848,36.0208267 L5.28102848,38.2811212 L6.16382466,38.2811212 L6.16382466,36.028675 C6.16382466,35.323205 6.56803857,34.9499773 7.14811178,34.9499773 C7.74568342,34.9499773 8.03178288,35.3327973 8.03178288,36.0208267 L8.03178288,38.2811212 L8.91457906,38.2811212 Z"/>
</svg>
