<svg height="30" viewBox="0 0 77 30" width="77" xmlns="http://www.w3.org/2000/svg" xmlns:xlink="http://www.w3.org/1999/xlink"><mask id="a" fill="#fff"><path d="m0 .17h4.695v4.071h-4.695z" fill="#fff" fill-rule="evenodd"/></mask><mask id="b" fill="#fff"><path d="m0 .171h26.293v19.884h-26.293z" fill="#fff" fill-rule="evenodd"/></mask><mask id="c" fill="#fff"><path d="m0 .171h18.78v19.884h-18.78z" fill="#fff" fill-rule="evenodd"/></mask><g fill="#b5c1c9" fill-rule="evenodd" transform="translate(0 5)"><path d="m29.58 19.538c-1.297 0-2.348-.942-2.348-2.105v-15.329c0-1.162 1.05-2.104 2.347-2.104s2.348.942 2.348 2.104v15.33c0 1.162-1.051 2.104-2.348 2.104"/><path d="m2.347.17c-1.296 0-2.347.912-2.347 2.036s1.05 2.034 2.347 2.034 2.348-.911 2.348-2.035-1.051-2.035-2.348-2.035" mask="url(#a)" transform="translate(72.305 15.816)"/><path d="m19.271 20.055c-1.914 0-3.552-1.276-3.906-3.039l-2.219-10.322-2.22 10.322c-.353 1.763-1.99 3.039-3.905 3.039s-3.553-1.277-3.906-3.04l-3.07-14.277c-.249-1.16.55-2.29 1.785-2.524 1.235-.234 2.44.517 2.688 1.676l2.503 11.643 2.219-10.321c.353-1.763 1.991-3.04 3.906-3.04s3.553 1.277 3.906 3.04l2.22 10.321 2.501-11.643c.25-1.16 1.453-1.91 2.688-1.676s2.034 1.364 1.785 2.523l-3.07 14.279c-.353 1.762-1.99 3.039-3.906 3.039" mask="url(#b)"/><path d="m43.048 19.538c-2.85 0-5.857-.918-7.625-2.532-.878-.801-.909-2.13-.069-2.968s2.233-.867 3.11-.065c1.261 1.15 4.714 1.855 6.797 1.006.965-.394 1.046-.901 1.046-1.346 0-.87-.5-1.225-3.814-1.9-1.533-.312-3.119-.635-4.46-1.364-1.866-1.014-2.853-2.626-2.853-4.662 0-2.07 1.07-3.756 3.014-4.751 3.168-1.621 8.127-1.008 10.597.556 1.013.641 1.288 1.944.616 2.91s-2.037 1.23-3.05.588c-1.322-.837-4.51-1.16-6.083-.355-.578.296-.694.622-.694 1.052 0 .883.503 1.242 3.832 1.92 1.529.312 3.11.634 4.447 1.36 1.863 1.01 2.848 2.617 2.848 4.646 0 2.346-1.355 4.244-3.717 5.207-1.164.474-2.534.698-3.942.698"/><path d="m6.664 10.698 2.423-6.433 2.424 6.433zm11.99 6.5-5.111-14.025-.08-.225-.02-.053c-.631-1.629-2.26-2.724-4.053-2.724s-3.421 1.095-4.053 2.724l-.02.053-5.19 14.25c-.406 1.115.195 2.339 1.343 2.733 1.148.395 2.408-.189 2.814-1.304l1.263-3.467h7.686l1.264 3.467c.32.879 1.17 1.428 2.078 1.428.244 0 .493-.04.736-.124 1.148-.394 1.749-1.618 1.343-2.733z" mask="url(#c)" transform="translate(51.646)"/></g></svg>