<svg height="56" viewBox="0 0 108 56" width="108" xmlns="http://www.w3.org/2000/svg" xmlns:xlink="http://www.w3.org/1999/xlink"><mask id="a" fill="#fff"><path d="m0 41h108v-41h-108z" fill="#fff" fill-rule="evenodd"/></mask><g fill="#b5c1c9" fill-rule="evenodd" transform="translate(0 7)"><path d="m31.506 19.331c-3.544-2.391-8.083-1.416-10.465 2.181-1.991 3.004-4.995 3.377-6.159 3.377-3.79 0-6.386-2.648-7.155-5.387h-.002c-.007-.027-.012-.05-.02-.076-.007-.031-.016-.061-.025-.093-.302-1.143-.376-1.69-.376-2.904 0-6.552 6.77-13.845 16.524-13.845 9.988 0 15.7 7.546 17.172 11.74l-.074-.223c-2.835-8.201-10.671-14.101-19.896-14.101-11.613 0-21.03 9.345-21.03 20.874 0 10.305 7.488 19.126 17.874 19.126 8.283 0 13.85-4.611 16.405-10.964 1.4-3.475.408-7.559-2.773-9.705"/><path d="m41.068 15.172c-1.235-4.1-7.035-12.172-17.426-12.172-9.824 0-16.642 7.308-16.642 13.873 0 1.217.075 1.764.379 2.91-.127-.502-.195-1.004-.195-1.493 0-6.836 6.932-11.573 14.055-11.573 9.648 0 17.464 7.722 17.464 17.245 0 7.466-4.35 13.928-10.673 17.033l.003.005c8.147-2.915 13.967-10.621 13.967-19.673 0-2.142-.29-4.031-.932-6.155m25.901-3.172h2.031v8.053h-2.031v-3.248h-2.38v-1.842h2.38zm-9.44 15.21h9.706v-2.683h-9.705v2.684zm-1.764-8.946h5.294v-1.79h-5.294zm-.883 3.578h2.196v1.624h9.727v-1.624h2.195v7.158h-14.118zm8.824-1.789h-9.706v-8.053h2.2v2.08h5.285v-2.08h2.22v8.053z"/><path d="m75.647 18.334h8.824v-3.556h-8.824zm-.882 1.777h12.353v-7.11h-12.353zm-1.765 4.527v-1.86h15v1.86h-6.493v4.362h-2.03v-4.362zm22.556-5.415h8.888v-2.667h-8.888zm.333-4.115h9.09v-2.108h2.132v8h-13.333v-8h2.111zm-3.889 7.67h16v1.86h-6.927v4.362h-2.166v-4.363h-6.907z" mask="url(#a)"/></g></svg>