<svg height="36" viewBox="0 0 126 36" width="126" xmlns="http://www.w3.org/2000/svg" xmlns:xlink="http://www.w3.org/1999/xlink"><mask id="a" fill="#fff"><path d="m0 .196h35.323v5.853h-35.323z" fill="#fff" fill-rule="evenodd"/></mask><mask id="b" fill="#fff"><path d="m.235.418h26.464v12.235h-26.464z" fill="#fff" fill-rule="evenodd"/></mask><g fill="#b5c1c9" fill-rule="evenodd"><path d="m.23 17.205c7.962-5.795 26.148-5.035 32.318-.284-8.291-3.61-24.215-3.517-32.319.284" transform="translate(0 3)"/><path d="m16.67 1.03c-3.757 0-7.57.463-10.828 1.45 6.543-1.41 14.9-1.447 21.457-.08-3.059-.893-6.815-1.37-10.629-1.37zm18.653 5.02-2.93-1.277c-8.218-3.578-24.068-3.44-31.998.28l-.395-.68c8.063-5.868 26.425-5.175 32.786-.277l2.537 1.953z" mask="url(#a)" transform="translate(0 15.51)"/><path d="m5.3 8.127c1.295-3.716 5.435-7.6 11.24-7.6 7.476-.055 12.233 5.293 12.48 10.247-1.36-6.023-6.797-9.006-12.417-8.95-4.51 0-7.968 3.04-9.328 6.697.556.169 1.174.226 1.915.226-1.483 1.35-2.717 1.688-3.583 2.533-.679-1.295-1.792-2.59-1.915-4.053.742.563.804.507 1.607.901" transform="translate(0 3)"/><path d="m4.538 8.353c.23.52.55 1.035.862 1.54.118.19.238.384.353.58.311-.228.646-.426.992-.632.33-.195.682-.404 1.055-.662-.24-.038-.462-.09-.675-.154l-.535-.161.196-.528c1.589-4.277 5.442-7.04 9.817-7.04 1.877-.018 3.61.265 5.18.813-1.67-.7-3.504-1.06-5.238-1.054-5.652 0-9.535 3.756-10.753 7.247l-.194.558-.527-.258c-.212-.104-.37-.175-.502-.236l-.03-.013zm.932 3.793-.325-.62c-.184-.351-.402-.702-.632-1.074-.611-.987-1.243-2.007-1.343-3.182l-.1-1.175.935.709c.495.375.64.44.99.6l.017.007c1.533-3.666 5.661-7.411 11.529-7.411 3.546-.034 6.86 1.173 9.298 3.378 2.22 2.008 3.569 4.693 3.702 7.367l-1.031.144c-1.425-6.312-7.192-8.54-11.762-8.54h-.14c-3.745 0-7.064 2.254-8.615 5.792.338.053.726.077 1.197.077h1.359l-1.009.918c-.846.771-1.6 1.219-2.265 1.613-.512.304-.954.566-1.305.908l-.5.488zm23.252 9.109c-1.359 3.716-5.498 7.543-11.242 7.6-7.475 0-12.294-5.292-12.54-10.302 1.359 6.023 6.856 9.006 12.416 8.951 4.51 0 7.968-2.984 9.328-6.7-.557-.111-1.175-.224-1.916-.224 1.483-1.296 2.78-1.689 3.583-2.533.68 1.35 1.792 2.588 1.915 4.11-.74-.564-.803-.508-1.544-.902" transform="translate(0 3)"/><path d="m7.19 10.122c1.9.96 4.046 1.477 6.107 1.477 5.583-.056 9.489-3.8 10.752-7.255l.207-.564.527.28c.194.104.341.175.465.235-.217-.5-.52-.991-.83-1.498-.132-.214-.266-.43-.395-.652-.321.243-.68.457-1.072.693-.304.182-.63.377-.968.605.215.036.421.076.62.116l.6.121-.21.579c-1.567 4.279-5.421 7.044-9.82 7.044-1.994.027-4.071-.362-5.983-1.181m6.112 2.531c-7.848 0-12.806-5.492-13.067-10.802l1.032-.143c.893 3.954 4.5 8.541 11.73 8.541h.171c3.757 0 7.072-2.245 8.609-5.77-.365-.059-.757-.1-1.19-.1h-1.403l1.06-.926c.797-.698 1.528-1.135 2.173-1.522.555-.332 1.034-.62 1.374-.978l.51-.535.333.662c.195.386.427.763.672 1.161.59.96 1.202 1.954 1.299 3.144l.094 1.172-.93-.708c-.48-.365-.634-.44-.941-.588l-.016-.007c-1.577 3.622-5.717 7.342-11.51 7.4" mask="url(#b)" transform="translate(4.183 19.728)"/><path d="m58.649 24.981c-1.32.478-3.924 1.263-7.004 1.263-3.45 0-6.292-.888-8.525-3.037-1.963-1.91-3.18-4.981-3.18-8.563.033-6.858 4.702-11.873 12.349-11.873 2.638 0 4.702.58 5.683 1.057l-.71 2.423c-1.218-.546-2.74-.99-5.041-.99-5.549 0-9.169 3.48-9.169 9.246 0 5.834 3.485 9.28 8.797 9.28 1.928 0 3.248-.273 3.924-.614v-6.858h-4.635v-2.388h7.51v11.054zm20.436.273c-1.082.546-3.248 1.092-6.022 1.092-6.428 0-11.266-4.094-11.266-11.634 0-7.199 4.838-12.078 11.909-12.078 2.841 0 4.634.615 5.413 1.024l-.71 2.422c-1.117-.545-2.707-.956-4.602-.956-5.345 0-8.898 3.446-8.898 9.485 0 5.63 3.214 9.246 8.763 9.246 1.793 0 3.62-.375 4.804-.955zm22.905-9.348c-.168-3.207-.372-7.063-.338-9.928h-.101c-.779 2.695-1.726 5.56-2.876 8.734l-4.026 11.156h-2.233l-3.688-10.951c-1.083-3.242-1.997-6.21-2.64-8.94h-.067c-.068 2.866-.236 6.722-.44 10.168l-.609 9.86h-2.808l1.59-22.995h3.756l3.89 11.122c.948 2.832 1.726 5.356 2.302 7.744h.101c.575-2.32 1.387-4.844 2.402-7.744l4.06-11.122h3.756l1.42 22.995h-2.875l-.575-10.1zm23.921 9.348c-1.082.546-3.248 1.092-6.022 1.092-6.428 0-11.266-4.094-11.266-11.634 0-7.199 4.838-12.078 11.909-12.078 2.841 0 4.635.615 5.413 1.024l-.71 2.422c-1.117-.545-2.707-.956-4.602-.956-5.345 0-8.898 3.446-8.898 9.485 0 5.63 3.214 9.246 8.763 9.246 1.793 0 3.62-.375 4.805-.955z" transform="translate(0 3)"/></g></svg>