<svg xmlns="http://www.w3.org/2000/svg" width="120" height="30" viewBox="0 0 120 30">
  <g fill="#B5C1C9" fill-rule="evenodd">
    <path d="M44.9482912 6.42162162L38.2372346 6.42162162C37.7779384 6.42162162 37.387358 6.74730596 37.3158936 7.18968939L34.6016208 23.9860412C34.5477477 24.3173592 34.8105168 24.6162162 35.1551951 24.6162162L38.3589989 24.6162162C38.8182951 24.6162162 39.2088755 24.2905319 39.2803399 23.8470753L40.0123003 19.3170047C40.0829401 18.8735481 40.4746199 18.5478638 40.9328167 18.5478638L43.0575081 18.5478638C47.4781308 18.5478638 50.0294098 16.4598891 50.6956778 12.3225712 50.9958283 10.5122599 50.7085964 9.08987243 49.8400291 8.09377196 48.8862543 7.00001985 47.1944721 6.42162162 44.9482912 6.42162162M45.7225804 12.5562377C45.3553634 14.9063158 43.5157049 14.9063158 41.7365163 14.9063158L40.7239207 14.9063158 41.4341669 10.5170888C41.4764958 10.2517661 41.7120534 10.0561945 41.9869165 10.0561945L42.4508854 10.0561945C43.6627566 10.0561945 44.8059121 10.0561945 45.3965928 10.7306347 45.7489673 11.1327771 45.8569884 11.730491 45.7225804 12.5562377M64.329055 12.0708847L61.2423691 12.0708847C60.9794253 12.0708847 60.7523855 12.2683188 60.7117295 12.5358977L60.5749776 13.4217787 60.3592897 13.1005757C59.6911062 12.1055507 58.2008272 11.772973 56.7137163 11.772973 53.3025747 11.772973 50.3893367 14.4233036 49.8220011 18.1412413 49.5271133 19.9953353 49.946609 21.7687222 50.9719843 23.0055974 51.9126156 24.1425366 53.2582227 24.6162162 54.8596456 24.6162162 57.6081477 24.6162162 59.1319546 22.8032882 59.1319546 22.8032882L58.9944107 23.683211C58.9426667 24.0198512 59.1953145 24.3212837 59.5242583 24.3212837L62.3044404 24.3212837C62.7466401 24.3212837 63.1199358 23.9924975 63.1896318 23.5450883L64.8578466 12.7070615C64.9106465 12.3736712 64.6587907 12.0708847 64.329055 12.0708847M60.02665 18.2338648C59.7285942 20.0427303 58.3291312 21.2571266 56.5439644 21.2571266 55.647685 21.2571266 54.9311895 20.9624649 54.4713019 20.4034743 54.0153742 19.8485461 53.8416623 19.0585385 53.9868622 18.1786157 54.264854 16.3851874 55.688341 15.1309792 57.4460518 15.1309792 58.3225312 15.1309792 59.0350667 15.4299742 59.5044583 15.993569 59.974642 16.5628511 60.1612899 17.3577336 60.02665 18.2338648M81.6164223 12.8432432L78.4698036 12.8432432C78.1695772 12.8432432 77.8872948 12.9896935 77.717229 13.2347414L73.3772037 19.5108067 71.5375472 13.4795264C71.4221167 13.1022262 71.067255 12.8432432 70.6655248 12.8432432L67.5735414 12.8432432C67.1977897 12.8432432 66.9366651 13.203716 67.0563807 13.5510425L70.522241 23.5364806 67.2636735 28.0525131C67.0073696 28.4085162 67.2655482 28.8972973 67.7082549 28.8972973L70.851392 28.8972973C71.1494758 28.8972973 71.4288122 28.754528 71.5980745 28.5144757L82.0639498 13.6832947C82.3143616 13.3286063 82.0572543 12.8432432 81.6164223 12.8432432M92.5162997 6.42162162L85.8041336 6.42162162C85.3459175 6.42162162 84.9553205 6.74730596 84.8835782 7.18968939L82.1691902 23.9860412C82.1153148 24.3173592 82.378095 24.6162162 82.7205889 24.6162162L86.165319 24.6162162C86.4852732 24.6162162 86.7590485 24.3884518 86.8088008 24.0777908L87.5792746 19.3170047C87.6499175 18.8735481 88.0416139 18.5478638 88.4998301 18.5478638L90.6232374 18.5478638C95.0451472 18.5478638 97.5957098 16.4598891 98.2628308 12.3225712 98.5643684 10.5122599 98.2746504 9.08987243 97.4063211 8.09377196 96.4533304 7.00001985 94.762576 6.42162162 92.5162997 6.42162162M93.2906218 12.5562377C92.9244887 14.9063158 91.0847521 14.9063158 89.3043885 14.9063158L88.2928494 14.9063158 89.0042252 10.5170888C89.046556 10.2517661 89.2801995 10.0561945 89.555624 10.0561945L90.0198874 10.0561945C91.2307106 10.0561945 92.3750141 10.0561945 92.9659947 10.7306347 93.3181093 11.1327771 93.4253104 11.730491 93.2906218 12.5562377M111.893368 12.0708847L108.808133 12.0708847C108.543593 12.0708847 108.318128 12.2683188 108.27879 12.5358977L108.142032 13.4217787 107.925279 13.1005757C107.256802 12.1055507 105.767779 11.772973 104.280339 11.772973 100.869314 11.772973 97.9567415 14.4233036 97.3893813 18.1412413 97.0952728 19.9953353 97.5129386 21.7687222 98.5383584 23.0055974 99.4808786 24.1425366 100.82496 24.6162162 102.426452 24.6162162 105.17481 24.6162162 106.698947 22.8032882 106.698947 22.8032882L106.561397 23.683211C106.509387 24.0198512 106.762045 24.3212837 107.092851 24.3212837L109.872626 24.3212837C110.312733 24.3212837 110.687893 23.9924975 110.756536 23.5450883L112.425879 12.7070615C112.476833 12.3736712 112.224174 12.0708847 111.893368 12.0708847M107.590513 18.2338648C107.294556 20.0427303 105.89292 21.2571266 104.10794 21.2571266 103.21347 21.2571266 102.495095 20.9624649 102.035188 20.4034743 101.57924 19.8485461 101.407369 19.0585385 101.550727 18.1786157 101.830843 16.3851874 103.25228 15.1309792 105.010067 15.1309792 105.88632 15.1309792 106.598886 15.4299742 107.068562 15.993569 107.540615 16.5628511 107.72727 17.3577336 107.590513 18.2338648M116.082602 6.88329353L113.520108 23.9858101C113.469733 24.3173769 113.714449 24.6162162 114.032811 24.6162162L116.60937 24.6162162C117.037432 24.6162162 117.400799 24.2905511 117.466518 23.8471207L119.993467 7.05283255C120.043587 6.72126574 119.79887 6.42162162 119.480253 6.42162162L116.595561 6.42162162C116.340872 6.42269465 116.121726 6.61798643 116.082602 6.88329353M24.8157331 9.3974558C24.4726811 9.00395042 24.0467868 8.67723633 23.5492021 8.41114408 23.2526161 8.25207885 22.9310712 8.1160821 22.585364 8.00047145 22.4998665 7.97176997 22.4117139 7.9438732 22.3224991 7.91678114 22.1435385 7.86420646 21.9587365 7.81646007 21.7688896 7.77327372 21.5785117 7.73116033 21.3833544 7.69387523 21.1820902 7.66115017 20.4789929 7.54634424 19.7081879 7.49189189 18.8826859 7.49189189L11.9133136 7.49189189C11.7417876 7.49189189 11.5787582 7.53105466 11.4327221 7.60186954 11.1114428 7.75798415 10.8724747 8.06538508 10.8148568 8.44172323L9.33219242 17.9279659 9.28944368 18.2047876 7.95387745 26.7623898 7.57577678 29.1880675C7.51231747 29.5979354 7.82483466 29.9675676 8.23453222 29.9675676L12.8614859 29.9675676C13.409254 29.9675676 13.8747107 29.5652103 13.9610048 29.0193457L14.0064087 28.7819549 14.8775803 23.1969681 14.933605 22.8903719C15.018837 22.3426295 15.4850903 21.9405405 16.0331239 21.9405405L16.7250693 21.9405405C21.2078456 21.9405405 24.7169596 20.1020362 25.7426638 14.781264 26.1712133 12.5586426 25.949504 10.7027027 24.8157331 9.3974558"/>
    <path d="M9.41435218,7.37079289 C9.47414731,6.9945569 9.72100793,6.6872394 10.0528983,6.53223983 C10.2045805,6.46117601 10.3721714,6.42202387 10.5493625,6.42202387 L17.7486411,6.42202387 C18.6016817,6.42202387 19.39767,6.4767296 20.1242631,6.59150437 C20.3319003,6.62395238 20.5337775,6.66122736 20.7304431,6.70359749 C20.9262859,6.74650395 21.1174657,6.79450554 21.3023369,6.84706595 C21.3944982,6.87388249 21.4855623,6.90177169 21.5744321,6.92939272 C21.9321058,7.04524015 22.2639961,7.18200448 22.5703776,7.34022204 C22.9307941,5.09326455 22.5676347,3.56338121 21.3248286,2.178039 C19.9550265,0.652982634 17.4823059,0 14.3183756,0 L5.13324041,0 C4.48673987,0 3.93541782,0.459635415 3.83557641,1.08472885 L0.00978534416,24.7940322 C-0.0656442904,25.2633216 0.304646643,25.6864865 0.788219173,25.6864865 L6.45915624,25.6864865 L7.88299346,16.8547288 L9.41435218,7.37079289 Z"/>
  </g>
</svg>
