<svg height="42" viewBox="0 0 126 42" width="126" xmlns="http://www.w3.org/2000/svg" xmlns:xlink="http://www.w3.org/1999/xlink"><mask id="a" fill="#fff"><path d="m0 .072h13.817v16.463h-13.817z" fill="#fff" fill-rule="evenodd"/></mask><mask id="b" fill="#fff"><path d="m.125.072h11.222v17.033h-11.222z" fill="#fff" fill-rule="evenodd"/></mask><g fill="#b5c1c9" fill-rule="evenodd"><path d="m12.34 3.147 1.477-3.075h-12.757l.754 1.572c.3.68.431 1.12.254 2.184-.006.028-1.895 10.66-2.041 11.468-.152.84.361 1.239 1.029 1.239h10.736l-.7-3.085h-6.882l.667-3.757h6.349l.549-3.1h-6.345l.61-3.446z" mask="url(#a)" transform="translate(0 17.182)"/><path d="m111.052 13.192 1.418-3.01h-11.667l.725 1.539c.286.666.414 1.097.243 2.138-.004.028-1.82 10.44-1.96 11.23-.146.824.347 1.214.989 1.214h9.727l-.672-3.021h-6.027l.64-3.679h5.515l.528-3.037h-5.513l.586-3.374zm-76.531 1.061c.268-.867 1.194-1.06 2.551-1.06h2.447l1.072-3.01h-4.185c-1.517 0-4.984-.149-5.729 3.31-1.03 4.81 5.072 6.203 4.765 8.39-.184 1.287-1.383 1.4-3.037 1.4h-3.653l.685 3.02h4.139c2.142 0 5.134-.402 5.838-3.129 1.27-4.909-5.576-6.507-4.893-8.92m43.049.994c-.228 1.32-1.366 2.302-2.78 2.302h-1.192l.757-4.358h1.376c1.328 0 2.041.882 1.84 2.056m3.594-.31c.201-2.641-1.424-4.756-5.502-4.756h-5.963l.717 1.539c.287.666.413 1.096.243 2.137l-2.163 12.445h3.58l1.05-6.043s.264-.036.998.004c.987.055 1.147.76 3.133 6.039h3.917c-2.106-5.332-2.484-6.292-3.141-6.958 1.6-.651 2.965-2.226 3.13-4.408m-39.728-4.755 1.13 3.01h3.871l-2.382 13.111h3.906l2.381-13.111h4.342l1.128-3.01z" transform="translate(0 7)"/><path d="m112.47 10.182 1.131 3.01h3.268l-2.385 13.111h3.913l2.385-13.111h4.087l1.131-3.01zm-19.749-3.131c-.134-.01-.365-.031-.54-.049-4.583-.482-5.754-.832-6.078-6.698 0 0-.022-.304-.27-.304h-.001c-.25 0-.272.304-.272.304-.323 5.866-1.494 6.216-6.078 6.698-.173.018-.405.038-.54.05-.142.01-.298.068-.298.175 0 .116.146.174.297.193 5.059.629 6.19 1.062 6.63 8.376.005.16.08.325.261.325.179 0 .255-.165.261-.325.439-7.314 1.57-7.747 6.628-8.376.151-.02.3-.077.3-.193 0-.107-.158-.165-.3-.176" transform="translate(0 7)"/><path d="m6.062.072.708 1.572c.282.68.407 1.12.24 2.184l-1.045 6.282c-1.014 6.116-3.983 6.12-5.82 6.12-.34.59 3.518 1.499 6.021.247 1.944-.972 2.908-2.716 3.395-5.695.133-.813 1.785-10.71 1.785-10.71h-5.284z" mask="url(#b)" transform="translate(87.1 17.182)"/><path d="m59.078 19.478 2.458-4.723.919 4.723zm5.007-8.085c-.172-.698-.724-1.211-1.536-1.211h-4.79l.784 1.61c.328.69.287 1.155-.148 1.954l-6.811 12.557h3.937l2-3.84h5.513l.748 3.84h3.869s-3.397-14.21-3.566-14.91zm-44.752 8.085 2.459-4.723.918 4.723zm5.008-8.085c-.172-.698-.724-1.211-1.537-1.211h-4.789l.783 1.61c.328.69.287 1.155-.148 1.954l-6.811 12.557h3.937l2.001-3.84h5.513l.748 3.84h3.868s-3.396-14.21-3.565-14.91z" transform="translate(0 7)"/></g></svg>