<?xml version="1.0" encoding="UTF-8"?>
<svg width="62px" height="24px" viewBox="0 0 62 24" version="1.1" xmlns="http://www.w3.org/2000/svg" xmlns:xlink="http://www.w3.org/1999/xlink">
    <title>main_img_028</title>
    <defs>
        <polygon id="path-1" points="-0.00014789983 0.136393671 3.78033991 0.136393671 3.78033991 3.39272278 -0.00014789983 3.39272278"></polygon>
        <polygon id="path-3" points="-0.000138039841 0.137173063 21.1705937 0.137173063 21.1705937 16.0440085 -0.000138039841 16.0440085"></polygon>
        <polygon id="path-5" points="-0.000133586943 0.137173063 15.1218176 0.137173063 15.1218176 16.0440085 -0.000133586943 16.0440085"></polygon>
    </defs>
    <g id="WEB" stroke="none" stroke-width="1" fill="none" fill-rule="evenodd">
        <g id="2.0_Main" transform="translate(-1307.000000, -7148.000000)">
            <rect fill="#FFFFFF" x="0" y="0" width="1802" height="8280"></rect>
            <g id="Group-21" transform="translate(970.000000, 7148.000000)">
                <g id="Group-9" transform="translate(337.000000, 0.000000)">
                    <g id="main_img_028" transform="translate(0.000000, 4.000000)">
                        <g id="Group-14">
                            <path d="M23.8170732,15.6303797 C22.7730769,15.6303797 21.9268293,14.8766466 21.9268293,13.9467833 L21.9268293,1.68359643 C21.9268293,0.753733171 22.7730769,0 23.8170732,0 C24.8610694,0 25.7073171,0.753733171 25.7073171,1.68359643 L25.7073171,13.9467833 C25.7073171,14.8766466 24.8610694,15.6303797 23.8170732,15.6303797" id="Fill-1" fill="#B5C1C9"></path>
                            <g id="Group-5" transform="translate(58.219512, 12.653165)">
                                <mask id="mask-2" fill="white">
                                    <use xlink:href="#path-1"></use>
                                </mask>
                                <g id="Clip-4"></g>
                                <path d="M1.890096,0.136393671 C0.846099755,0.136393671 -0.00014789983,0.865310419 -0.00014789983,1.76455823 C-0.00014789983,2.66380604 0.846099755,3.39272278 1.890096,3.39272278 C2.93409225,3.39272278 3.78033991,2.66380604 3.78033991,1.76455823 C3.78033991,0.865310419 2.93409225,0.136393671 1.890096,0.136393671" id="Fill-3" fill="#B5C1C9" mask="url(#mask-2)"></path>
                            </g>
                            <g id="Group-8">
                                <mask id="mask-4" fill="white">
                                    <use xlink:href="#path-3"></use>
                                </mask>
                                <g id="Clip-7"></g>
                                <path d="M15.5172392,16.0440085 C13.9758505,16.0440085 12.6565982,15.0228761 12.3720037,13.6128226 L10.5853041,5.35493515 L8.79818065,13.6128226 C8.51358615,15.0228761 7.1946164,16.0440085 5.65294509,16.0440085 C4.11141509,16.0440085 2.79202142,15.0226126 2.50785084,13.612559 L0.036513585,2.18979385 C-0.164143909,1.26236633 0.479231844,0.358529756 1.47389952,0.171383659 C2.46828458,-0.0158942305 3.43737549,0.584554795 3.63803298,1.51198232 L5.6530864,10.8265862 L7.43992725,2.56922597 C7.72423914,1.1589088 9.0434915,0.137776437 10.5853041,0.137776437 C12.1269754,0.137776437 13.4462278,1.1589088 13.7303984,2.56922597 L15.5172392,10.8265862 L17.5324339,1.51198232 C17.7332327,0.584554795 18.7018997,-0.0154988514 19.6965674,0.171383659 C20.6909525,0.358529756 21.3346108,1.26236633 21.1339533,2.18979385 L18.6626161,13.612559 C18.3781629,15.0226126 17.0589105,16.0440085 15.5172392,16.0440085" id="Fill-6" fill="#B5C1C9" mask="url(#mask-4)"></path>
                            </g>
                            <path d="M34.661983,15.6303797 C32.3667609,15.6303797 29.9461764,14.8963509 28.5223592,13.6048072 C27.8155605,12.9636328 27.7907606,11.9005342 28.4670362,11.2302214 C29.1434482,10.560297 30.2646241,10.5367273 30.9716953,11.1781607 C31.986722,12.0986754 34.7669059,12.6624064 36.4440369,11.9830283 C37.2212838,11.6683335 37.2864177,11.2623384 37.2864177,10.9064613 C37.2864177,10.2106362 36.8833503,9.92663382 34.2149025,9.38634301 C32.9804916,9.13640024 31.7041116,8.8781692 30.6243597,8.29514207 C29.1215098,7.48405834 28.3270936,6.19432772 28.3270936,4.56542605 C28.3270936,2.91010555 29.1888239,1.56041457 30.7536738,0.764741816 C33.3043899,-0.532370534 37.2977276,-0.0419387781 39.2864931,1.20958815 C40.1016213,1.72255361 40.3235945,2.76493154 39.7824922,3.53768207 C39.2413899,4.3101736 38.1422887,4.52087666 37.326888,4.0079112 C36.2622614,3.33811637 33.6956024,3.08014434 32.4282157,3.72429738 C31.9632847,3.96090124 31.8699442,4.22133384 31.8699442,4.56542605 C31.8699442,5.27187052 32.2746468,5.55911046 34.9549495,6.10199134 C36.1862263,6.3514161 37.4594723,6.60912912 38.5359539,7.18904816 C40.0360786,7.99767131 40.8292683,9.2831283 40.8292683,10.9064613 C40.8292683,12.7833632 39.7383428,14.3014094 37.8359683,15.0716994 C36.8988844,15.4512757 35.7956952,15.6303797 34.661983,15.6303797" id="Fill-9" fill="#B5C1C9"></path>
                            <g id="Group-13" transform="translate(41.585366, 0.000000)">
                                <mask id="mask-6" fill="white">
                                    <use xlink:href="#path-5"></use>
                                </mask>
                                <g id="Clip-12"></g>
                                <path d="M5.36585366,8.55834532 L7.31707317,3.4120162 L9.26829268,8.55834532 L5.36585366,8.55834532 Z M15.0197776,13.7585766 L10.9047366,2.53838477 L10.8400081,2.35824075 C10.8349554,2.34414023 10.8297662,2.33017149 10.8243039,2.31633453 C10.3160348,1.01289306 9.00453101,0.137079494 7.56097561,0.137079494 C6.11742021,0.137079494 4.80591646,1.01289306 4.29764731,2.31633453 C4.29218498,2.33017149 4.28699578,2.34414023 4.28194313,2.35824075 L0.102173589,13.7585766 C-0.224882999,14.6504673 0.259215375,15.6294651 1.18344042,15.9450795 C2.10780203,16.2605622 3.1221554,15.7936637 3.44921199,14.9016411 L4.4667062,12.1277922 L10.655245,12.1277922 L11.6727392,14.9016411 C11.9304243,15.6048221 12.6151265,16.0439149 13.3461219,16.0439149 C13.5427655,16.0439149 13.7428231,16.012024 13.9385108,15.9450795 C14.8627358,15.6294651 15.3468342,14.6504673 15.0197776,13.7585766 L15.0197776,13.7585766 Z" id="Fill-11" fill="#B5C1C9" mask="url(#mask-6)"></path>
                            </g>
                        </g>
                    </g>
                </g>
            </g>
        </g>
    </g>
</svg>