<?xml version="1.0" encoding="UTF-8"?>
<svg width="64px" height="23px" viewBox="0 0 64 23" version="1.1" xmlns="http://www.w3.org/2000/svg" xmlns:xlink="http://www.w3.org/1999/xlink">
    <title>Group 18</title>
    <defs>
        <polygon id="path-1" points="-8.24753123e-05 0.101647059 10.3656798 0.101647059 10.3656798 14.4748171 -8.24753123e-05 14.4748171"></polygon>
        <polygon id="path-3" points="-8.54744146e-05 0.101647059 12.4388293 0.101647059 12.4388293 14.4748171 -8.54744146e-05 14.4748171"></polygon>
        <polygon id="path-5" points="-8.77537323e-05 0.101647059 14.5119795 0.101647059 14.5119795 14.4748171 -8.77537323e-05 14.4748171"></polygon>
    </defs>
    <g id="WEB" stroke="none" stroke-width="1" fill="none" fill-rule="evenodd">
        <g id="2.0_Main" transform="translate(-1131.000000, -7318.000000)">
            <g id="Group-18" transform="translate(1131.000000, 7318.000000)">
                <g id="main_img_018" transform="translate(0.000000, 5.000000)">
                    <g id="payco">
                        <g id="Group-3">
                            <mask id="mask-2" fill="white">
                                <use xlink:href="#path-1"></use>
                            </mask>
                            <g id="Clip-2"></g>
                            <path d="M4.91009794,7.5756955 C6.28676091,7.5756955 7.09236369,6.58660705 7.09236369,5.29742364 L7.09236369,5.25455294 C7.09236369,3.77245135 6.23322402,2.97628108 4.85656104,2.97628108 L2.72783219,2.97628108 L2.72783219,7.56957112 L4.91009794,7.5756955 Z M1.54523584e-13,1.6545659 C-0.00582807024,0.803336313 0.629559073,0.107973765 1.41912496,0.101647059 L1.44046458,0.101647059 L5.35094969,0.101647059 C8.47720381,0.101647059 10.3657623,2.09743535 10.3657623,4.99046563 L10.3657623,5.03072649 C10.3684275,8.29185606 8.0023973,9.98856368 5.06819974,9.98856368 L2.88088884,9.98856368 L2.88088884,12.9218548 C2.88675723,13.7730844 2.25163683,14.468447 1.46207094,14.4748171 L1.44046458,14.4748171 C0.650898692,14.4811004 0.00590871999,13.7960906 1.54523584e-13,12.944861 L1.54523584e-13,12.9218548 L1.54523584e-13,1.6545659 Z" id="Fill-1" fill="#B5C1C9" mask="url(#mask-2)"></path>
                        </g>
                        <path d="M18.3128468,8.54171723 L16.2987628,3.98613471 L14.281717,8.54171723 L18.3128468,8.54171723 Z M9.86501072,12.1502409 L14.7275821,1.21147938 C15.0127469,0.473360619 15.7290673,-0.00975622432 16.5226435,0.000149510591 L16.7015816,0.000149510591 C17.4894772,-0.00862414033 18.1984129,0.475907807 18.4739207,1.21147938 L23.3364921,12.1502409 C23.4330619,12.3412801 23.4873113,12.5507156 23.4955482,12.7643965 C23.5080454,13.5644969 22.8672767,14.2236528 22.0643275,14.2358227 C22.0558067,14.2361954 22.0470018,14.2361954 22.0384809,14.2361954 C21.3198883,14.2361954 20.8427201,13.8203478 20.564372,13.1835506 L19.6270772,10.9983455 L13.4920573,10.9983455 L12.5149985,13.2823249 C12.2863554,13.863367 11.7211383,14.2428982 11.094855,14.2361954 C10.3103677,14.2361954 9.67471149,13.6027047 9.67471149,12.8210007 C9.67471149,12.8164724 9.67471149,12.811661 9.67471149,12.8071327 C9.6906171,12.5770366 9.75537564,12.353167 9.86501072,12.1502409 L9.86501072,12.1502409 Z" id="Fill-4" fill="#B5C1C9"></path>
                        <path d="M27.5276544,8.71891926 L23.1703092,2.59578339 C22.9358098,2.28095239 22.8074262,1.89530574 22.8046771,1.49799869 C22.8164983,0.670394168 23.474911,0.00916375006 24.2749031,0.021677358 C24.2798515,0.021677358 24.284525,0.021677358 24.2891985,0.0219617582 C24.9654805,0.0219617582 25.388844,0.400213997 25.7544761,0.960482352 L29.0259214,5.84932144 L32.3688437,0.920666327 C32.7344758,0.351865967 33.1801071,0.00205374556 33.7956337,0.00205374556 C34.5538392,-0.0397530809 35.2012555,0.5617533 35.2419424,1.346129 C35.2441417,1.39675223 35.2441417,1.44737546 35.2419424,1.49799869 C35.2235233,1.88961774 35.0890917,2.26616358 34.8567916,2.57587537 L30.4994463,8.66203922 L30.4994463,12.7005218 C30.4994463,13.5486031 29.8349856,14.2362827 29.0149249,14.2362827 C28.1951392,14.2362827 27.5304035,13.5486031 27.5304035,12.7005218 L27.5276544,8.71891926 Z" id="Fill-6" fill="#B5C1C9"></path>
                        <g id="Group-10" transform="translate(35.243592, 0.000000)">
                            <mask id="mask-4" fill="white">
                                <use xlink:href="#path-3"></use>
                            </mask>
                            <g id="Clip-9"></g>
                            <path d="M0.00137065168,7.32454345 L0.00137065168,7.28495044 C0.00137065168,3.32564937 2.94643824,0.101647059 7.17059458,0.101647059 C9.23382159,0.101647059 10.6282495,0.667261499 11.776042,1.51568316 C12.1472549,1.80527775 12.3642157,2.25239597 12.3636558,2.72609806 C12.362256,3.54906707 11.7004557,4.21536088 10.8858029,4.21366404 C10.8810438,4.21366404 10.8765646,4.21366404 10.8715255,4.21366404 C10.5473441,4.21027035 10.2318412,4.10676291 9.96756894,3.91671646 C9.17139288,3.27700652 8.18485122,2.9274568 7.16807504,2.92406311 C4.84981414,2.92406311 3.18131577,4.86977679 3.18131577,7.24818551 L3.18131577,7.28777852 C3.18131577,9.66901531 4.81090117,11.6514939 7.16807504,11.6514939 C8.25567842,11.6712904 9.31248737,11.2844101 10.1352586,10.5655142 C10.7270716,10.0618345 11.6105919,10.1376269 12.1091818,10.7351985 C12.6074917,11.3327702 12.5324653,12.2253098 11.9409322,12.7289894 C10.7035559,13.8206253 9.2508985,14.47391 7.0504963,14.47391 C3.21798914,14.5355619 0.06183972,11.4470243 0.000810752902,7.57567627 C-0.000588994049,7.49196533 -0.000309044658,7.40825439 0.00137065168,7.32454345" id="Fill-8" fill="#B5C1C9" mask="url(#mask-4)"></path>
                        </g>
                        <g id="Group-13" transform="translate(48.373557, 0.000000)">
                            <mask id="mask-6" fill="white">
                                <use xlink:href="#path-5"></use>
                            </mask>
                            <g id="Clip-12"></g>
                            <path d="M11.6096538,7.31897187 L11.6096538,7.27984853 C11.6096538,4.9324481 9.92390068,2.97628108 7.52705628,2.97628108 C5.13021188,2.97628108 3.48289614,4.89891381 3.48289614,7.24910876 L3.48289614,7.2882321 C3.48289614,9.64122158 5.17688582,11.6001831 7.5657682,11.6001831 C9.95437602,11.6001831 11.6096538,9.68313944 11.6096538,7.31897187 M-4.7261047e-16,7.32926596 L-4.7261047e-16,7.28964706 C-4.7261047e-16,3.3277573 3.059857,0.101647059 7.27967797,0.101647059 C11.4992208,0.101647059 14.5120672,3.29662816 14.5120672,7.24719824 L14.5120672,7.28681714 C14.5120672,11.2487069 11.4522102,14.4748171 7.23238927,14.4748171 C3.0125683,14.4748171 -4.7261047e-16,11.279836 -4.7261047e-16,7.32926596" id="Fill-11" fill="#B5C1C9" mask="url(#mask-6)"></path>
                        </g>
                    </g>
                </g>
            </g>
        </g>
    </g>
</svg>