<svg height="42" viewBox="0 0 79 42" width="79" xmlns="http://www.w3.org/2000/svg" xmlns:xlink="http://www.w3.org/1999/xlink"><mask id="a" fill="#fff"><path d="m0 .752h11.63v27.843h-11.63z" fill="#fff" fill-rule="evenodd"/></mask><mask id="b" fill="#fff"><path d="m.808.979h16.128v28.389h-16.128z" fill="#fff" fill-rule="evenodd"/></mask><g fill="#b5c1c9" fill-rule="evenodd" transform="translate(0 5)"><path d="m10.146 14.303c.819 0 1.484-.659 1.484-1.47v-3.813c0-.812-.665-1.469-1.484-1.469h-.834v-5.328c0-.812-.664-1.47-1.483-1.47h-4.354c-.819 0-1.483.658-1.483 1.47v5.328h-.509c-.819 0-1.483.657-1.483 1.47v3.813c0 .81.664 1.47 1.483 1.47h.509v7.394c0 6.43 5.375 6.704 5.375 6.704s1.76.237 2.686.185c1.083-.06 1.482-.659 1.482-1.469v-3.95c0-.81-.663-1.47-1.482-1.47 0 0-.74 0-.74-.781v-6.614z" mask="url(#a)"/><path d="m29.116 10.155c.294 1.194.257 1.908.309 2.844.035.668.152 1.481.152 1.481s.073-.558.117-1.23c.054-.815.083-1.816.178-2.361.13-.774.357-1.515.6-1.942.304-.532.721-.855 1.236-.855h3.56c.714 0 1.276.465 1.646 1.328.292.697.444 1.874.483 2.997.02.59.187 2.049.187 2.049s.11-.912.138-1.652c.061-1.779.248-4.722 1.848-4.722h3.379c1.295 0 1.895.366 2.035 2.338.087 1.22-.177 4.123-.74 7.13-.348 1.854-.836 3.779-1.295 5.458-1.203 4.4-1.527 5.158-1.99 5.57-.462.412-.649.412-1.389.412h-3.422c-.925 0-1.372-.692-1.62-1.327-.67-1.721-1.063-6.254-1.063-6.254s-.51 4.876-.788 5.93c-.278 1.057-.784 1.651-1.527 1.651h-3.883c-.881 0-1.436-.573-1.668-1.306-.23-.735-1.988-5.778-2.728-9.767-.742-3.989-.972-5.891-.834-7.588.14-1.696.81-2.339 1.827-2.339h3.517c.839 0 1.43.914 1.734 2.155m25.975 11.525s-.45.384-.901.631c-.26.143-1.255.408-1.204-.676.044-.968.841-1.691 2.105-1.97zm6.858 2.03c0-1.059.044-5.674.044-7.519 0-2.123-.203-8.305-6.298-9.09-2.869-.368-5.087.305-6.505 1.409-1.593 1.242-2.304 3.121-2.458 3.99-.296 1.64.358 2.193 1.422 2.193h3.386c.928 0 1.042-.287 1.468-.902.496-.713 1.242-.762 1.67-.46.188.132.27.392.27.714 0 .279-.028.693-.028.693s-2.13.236-4.193 1.131c-1.489.644-2.797 1.693-3.658 3.114-1.175 1.937-1.35 4.283-.676 6.364.523 1.62 1.617 2.793 2.821 3.254 2.055.783 4.119.269 5.149-.314.622-.352.91-.671 1.153-.977.065-.086.133-.14.231-.14.217 0 .173.23.423.67.249.438.67.737 1.24.737h2.891c1.025 0 1.599-.502 1.664-1.583.09-1.5-.016-2.223-.016-3.285z"/><path d="m15.025 12.13c-.262 1.038-1.02 4.426-2.115 7.442-1.364 3.756-2.488 6.511-3.367 7.55-1.234 1.46-2.168 1.93-3.335 2.115-1.167.19-2.193.12-3.01.12-1.094 0-1.677-.7-1.677-1.654v-3.791c0-1.115.63-1.604 1.468-1.604.655 0 1.751.068 2.077-.51.325-.583.093-2.071-.256-3.933-.351-1.86-2.333-8.349-2.94-10.651-.607-2.304-1.062-3.614-1.062-4.52 0-.907.607-1.713 1.625-1.713h3.333c.537 0 .908-.068 1.47.511.558.583.782 2.106 1.119 3.722.234 1.122 1.117 5.955 1.117 5.955s.405-7.323.516-8.127c.216-1.58.664-2.015 1.66-2.015h3.907c.777 0 1.49.379 1.368 1.583-.157 1.519-.825 5.271-1.898 9.52" mask="url(#b)" transform="translate(62 7)"/><path d="m15.94 9.035c.223.552.57 1.475-.82 3.124-.918 1.092-1.725 1.463-1.696 2.009.03.546 1.594.983 2.247.782 1.708-.521 4.193-3.006 5.361-5.181.766-1.427 1.036-3.15.954-4.53-.094-1.58-.584-3.31-1.99-4.37-1.869-1.409-3.872-.74-4.45-.489-1.254.55-2.042 1.77-2.286 2.47-.358 1.021-.315 2.17-.06 2.817.943 2.41 2.474 2.705 2.74 3.368"/></g></svg>