<svg xmlns="http://www.w3.org/2000/svg" width="80" height="26" viewBox="0 0 80 26">
  <path fill="#B5C1C9" fill-rule="evenodd" d="M12.5052777 0C5.59822896 0 0 4.41939385 0 9.90496648 0 13.4404816 2.34267735 16.5340573 5.86219261 18.2962906 5.66971912 18.9591996 4.63036227 22.5665299 4.59186757 22.8482662 4.59186757 22.8482662 4.59186757 23.0637117 4.70185242 23.1410511 4.79643939 23.181378 4.90367462 23.181378 4.99881152 23.1410511 5.39475699 23.0858086 9.55768363 20.1469117 10.2835837 19.6331572 11.0122333 19.7364605 11.747482 19.7872836 12.4832807 19.787836 19.3903294 19.787836 24.9885584 15.3684421 24.9885584 9.88286951 24.9885584 4.39729689 19.4068271 0 12.5052777 0M43.2519891 9.48567551C43.2519891 11.3800296 42.8787813 12.8584127 42.1543193 13.8814763 41.2761835 15.1012829 39.8821429 15.5397388 37.7142452 15.2530561 37.428851 15.2153939 37.1462011 15.1546846 36.8690394 15.0731768L36.8690394 5.23040543C37.2905446 4.97182891 37.7400404 4.76440557 38.2081965 4.61207027 38.8009382 4.40801967 39.4216705 4.30177845 40.0467934 4.29728147 41.0034126 4.20172058 41.9331388 4.65591586 42.4622157 5.47773949 42.98306 6.35465116 43.2519891 7.68688235 43.2519891 9.4631906L43.2519891 9.48567551zM40.6834418 1.05383254C39.7109064 1.04146584 38.7455059 1.22303152 37.8404772 1.58784926 37.3108515 1.8076393 36.8004351 2.07239917 36.3147162 2.3804425L36.0622522 1.46980346 33.3180778 1.46980346 33.3180778 24.224537 36.8635511 24.224537 36.8635511 18.1929587C37.17968 18.2755908 37.5001996 18.3357379 37.8240121 18.372838 38.3854702 18.4363579 38.9496725 18.4683989 39.5144235 18.4683989 40.5714795 18.4830141 41.6175588 18.2547922 42.577471 17.8000348 43.4808532 17.3587684 44.2750173 16.7128892 44.8984937 15.9107399 45.548863 15.060248 46.0400702 14.0945209 46.3479666 13.0607769 46.6948302 11.8932477 46.8655179 10.6785002 46.8528947 9.45756937 46.8528947 6.92801648 46.3583944 4.89313171 45.3924451 3.40350611 44.4270445 1.91388052 42.7909678 1.05383254 40.6834418 1.05383254L40.6834418 1.05383254zM54.2295249 15.9128085C53.7092841 15.956534 53.1939718 15.7849114 52.8051602 15.4372937 52.460706 15.026274 52.2914908 14.4961023 52.3342054 13.961558 52.2745146 13.2920113 52.5516113 12.6366753 53.0740426 12.212538 53.6216646 11.8135428 54.530717 11.6113123 55.8121524 11.6113123L58.0026402 11.6113123 58.0026402 14.4807984C57.8027582 14.6535141 57.588638 14.8092862 57.3619225 14.9448352 57.0349922 15.1432397 56.6927285 15.3132226 56.3378694 15.4536908 55.9824628 15.5963452 55.6161037 15.7094849 55.2426255 15.7925634 54.9096714 15.869083 54.5701458 15.9089825 54.2295249 15.9128085M55.4830316 2.10648148C54.5575505 2.11030746 53.6364504 2.23875112 52.7449218 2.48907962 51.8314884 2.74159439 50.954198 3.1088886 50.1333127 3.58221715L49.7225963 3.81177603 50.8616499 6.48996299 51.3758669 6.24947273C52.0083703 5.95924472 52.6666119 5.72913927 53.3423774 5.56079609 54.0197857 5.38370781 54.7174561 5.29188425 55.4178646 5.2875117 56.1303207 5.22137688 56.8400388 5.4416441 57.3893036 5.89966872 57.80002 6.30412961 58.0075688 7.04746313 58.0075688 8.08594379L58.0075688 8.78555181 55.5049364 8.78555181C53.4135682 8.78555181 51.7926072 9.22280682 50.6809347 10.0918512 49.4964284 11.0592779 48.8507821 12.5355601 48.9449731 14.0599404 48.8666632 15.3788108 49.3294037 16.6736322 50.2258608 17.6454315 51.1880326 18.5483631 52.4776823 19.0205985 53.7969036 18.9517309 54.7212894 18.9282284 55.6352705 18.7434882 56.4966798 18.4051621 57.1675167 18.1592062 57.8076867 17.8345443 58.4018566 17.4377354L58.621453 18.7003092 61.4302059 18.7003092 61.4302059 8.22258598C61.4302059 6.15109035 60.9263938 4.59336937 59.9357456 3.59861421 58.9440023 2.60385906 57.4435182 2.10648148 55.4830316 2.10648148M75.6265564 1.05324074L71.3296654 13.5694412 67.0839546 1.05324074 63.5125858 2.19107714 69.4286848 17.9273546C69.0175556 18.7824387 68.5102525 19.5857512 67.9157742 20.3225002 67.2453693 21.1571032 66.4917261 21.9200226 65.6660931 22.598173L65.1773499 23.002105 67.5164558 25.2777778 67.8932774 25.0160754C69.1767205 24.1171846 70.288063 22.9895888 71.1721877 21.6884728 72.154736 20.2098544 72.948311 18.6111943 73.5343529 16.9317478L79.1304348 2.10573941 75.6265564 1.05324074z"/>
</svg>
