<svg height="56" viewBox="0 0 129 56" width="129" xmlns="http://www.w3.org/2000/svg" xmlns:xlink="http://www.w3.org/1999/xlink"><mask id="a" fill="#fff"><path d="m0 0h16.48v25.364h-16.48z" fill="#fff" fill-rule="evenodd"/></mask><mask id="b" fill="#fff"><path d="m0 25.488h128.926v-25.488h-128.926z" fill="#fff" fill-rule="evenodd"/></mask><g fill="#b5c1c9" fill-rule="evenodd" transform="translate(0 15)"><path d="m4.576 0v4.723h.844l-3.708 15.277h-1.712v5h7.628v-5h-1.556l.537-2.361h4.174l.59 2.361h-1.527v5h9.154v-5h-1.491l-3.814-15.277h.867v-4.723zm4.024 8.889 1.11 4.444h-2.123l1.01-4.444zm80.393 4.201.795-3.363.876 3.363h-1.67zm7.83 5.237-3.011-11.754h.683v-3.573h-7.883v3.573h.666l-2.926 11.754h-1.352v3.673h6.024v-3.673h-1.229l.422-1.98h3.297l.462 1.98h-1.203v3.673h7.227v-3.673zm-68.237-8.391c-.294 0-.571-.075-.83-.18v-4.68c.259-.104.536-.178.83-.178 1.3 0 2.354 1.128 2.354 2.519 0 1.39-1.054 2.519-2.354 2.519m0 10.355c-.294 0-.571-.088-.83-.21v-5.458c.259-.123.536-.21.83-.21 1.3 0 2.354 1.317 2.354 2.94 0 1.622-1.054 2.938-2.354 2.938m4.847-7.766c1.108-.84 3.185-1.33 3.185-5.668 0-6.437-6.509-6.857-6.509-6.857h-10.109v5.038h1.385v15.392h-1.385v4.618h10.11s6.508-.42 6.508-6.857c0-4.338-2.077-4.828-3.185-5.667"/><path d="m11.91 15.829s.415 4.478-2.216 4.198-2.493-5.037-2.77-7.836.554-6.857 3.047-6.717c1.94.109 2.077 3.218 1.939 4.618l.277-.403v.263h3.6v-9.236h-3.6v1.239c-.867-.918-1.964-1.955-4.193-1.955-3.046 0-7.994 2.815-7.994 12.47 0 3.919 1.939 12.455 8.31 12.875 6.37.42 8.17-6.158 8.17-8.816z" mask="url(#a)" transform="translate(37.713)"/><path d="m56 15.198h6.647v-4.198h-6.647zm24.172-8.28h1.385v-3.918h-6.925l-1.8 7.557-2.215-7.557h-7.617v3.918h1.385v11.757h-1.108v3.724h5.816v-3.724h-1.384v-9.607l3.6 13.331h.969l3.047-11.983.276-.199v8.458h-1.384v3.724h7.201v-3.724h-1.385v-11.657zm24.921 4.898v-4.898c.416 0 2.631-.28 2.493 2.519-.139 2.8-2.493 2.38-2.493 2.38zm7.201 6.86-2.493-5.6c3.092-1.535 2.954-3.523 2.908-5.318-.079-3.106-2.353-4.758-7.339-4.758h-6.37v3.498h1.385v12.177h-1.385v3.725h7.062v-3.724h-.969v-4.34l4.293 8.064h4.155v-3.724zm12.815-11.898 1.108 3.813h2.493l-.139-7.591h-13.432l-.139 7.591h2.354l.831-3.813h.969v11.897h-1.107v3.723h7.478v-3.723h-1.108v-11.897z" mask="url(#b)"/></g></svg>