<svg xmlns="http://www.w3.org/2000/svg" xmlns:xlink="http://www.w3.org/1999/xlink" width="122" height="32" viewBox="0 0 122 32">
  <defs>
    <polygon id="logo-alipay-a" points="0 .894 31.406 .894 31.406 32.403 0 32.403"/>
  </defs>
  <g fill="none" fill-rule="evenodd" transform="translate(0 -1)">
    <g transform="translate(0 .318)">
      <mask id="logo-alipay-b" fill="#fff">
        <use xlink:href="#logo-alipay-a"/>
      </mask>
      <path fill="#B5C1C9" d="M26.3890379,0.894247129 L5.01690268,0.894247129 C2.24330874,0.894247129 0,3.14455531 0,5.92727683 L0,27.329144 C0,30.1524668 2.24330874,32.403158 5.01690268,32.403158 L26.348188,32.403158 C29.1626319,32.403158 31.4059406,30.1524668 31.4059406,27.3697453 L31.4059406,27.0426367 C31.4059406,27.0426367 23.2894083,23.6459162 19.1696764,21.641131 C16.3964642,24.9964841 12.8478674,27.083238 9.17710271,27.083238 C2.93661178,27.083238 0.815852753,21.6001466 3.75246454,17.9988875 C4.40529945,17.2217172 5.50633798,16.4441639 7.17851162,16.0347036 C9.82955584,15.3801033 14.0714557,16.4441639 18.027788,17.7537475 C18.721091,16.4441639 19.333076,14.970643 19.7816614,13.4159194 L7.54577898,13.4159194 L7.54577898,12.1883045 L13.8675879,12.1883045 L13.8675879,9.93761328 L6.28134083,9.93761328 L6.28134083,8.70999835 L13.9084378,8.70999835 L13.9084378,5.51819953 C13.9084378,5.51819953 13.9084378,4.98616922 14.438723,4.98616922 L17.5383527,4.98616922 L17.5383527,8.70999835 L25.0841316,8.70999835 L25.0841316,9.93761328 L17.5383527,9.93761328 L17.5383527,12.1883045 L23.6971438,12.1883045 C23.1260087,14.60255 22.2288379,16.8532412 21.0869495,18.8174251 C22.9629908,19.5130097 24.6351645,20.1270087 25.8996026,20.5770704 C30.3862201,22.0911926 31.4059406,22.1731613 31.4059406,22.1731613 L31.4059406,5.92727683 C31.4059406,3.14455531 29.1626319,0.894247129 26.3890379,0.894247129" mask="url(#logo-alipay-b)"/>
    </g>
    <path fill="#B5C1C9" d="M4.8041792 19.3447656C2.31647209 21.4943614 3.80909636 25.449505 8.82603704 25.449505 11.7282326 25.449505 14.6308163 23.6004985 16.9108911 20.6344426 13.6768718 19.0437739 10.8992557 17.9263221 7.9551455 18.2273138 7.12616853 18.2699677 5.63354427 18.6140157 4.8041792 19.3447656M99.0499881 12.1185695L103.145525 12.1185695 107.200846 20.2628603 110.533802 12.6146724C110.614232 12.4490468 110.694286 12.3252145 110.85477 12.2424017 111.015629 12.1595889 111.176113 12.1185695 111.336597 12.1185695L113.545038 12.1185695 107.120792 26.8364167C105.55504 30.846646 101.820686 30.2677303 101.138159 30.2677303L101.138159 28.0348805C101.659826 28.0348805 103.386438 28.0766739 104.149395 27.166894 104.309879 26.9602489 104.510578 26.5883653 104.591008 26.3399269 104.711277 26.0922624 104.791707 25.8856174 104.912352 25.6789724L105.353965 24.6035669 99.0499881 12.1185695zM94.7600798 12.5335141C92.8438282 12.0077296 90.3864256 11.8865986 87.0541362 12.7356515 87.1788972 13.0592986 87.304438 13.6255862 87.429199 13.9488547 92.7186773 13.0592986 93.718715 13.7467173 93.718715 15.9709862L93.718715 16.6584049C92.7607841 16.5773985 91.5942684 16.4562675 90.6780545 16.4157643 87.0541362 16.3752611 85.7628594 19.1253145 85.7628594 20.9048053 85.7628594 23.9781272 88.7618029 26.8493116 93.718715 24.7060491L93.718715 25.1913304 97.8420673 25.1913304 97.8420673 15.8498552C97.8420673 14.0298611 96.2178345 12.937789 94.7600798 12.5335141L94.7600798 12.5335141zM89.3866218 21.2175567C89.3866218 19.5780155 90.6604329 18.3273607 92.2418007 18.1973281 93.2524617 18.1113128 93.867164 18.3273607 94.218305 18.5430047L94.218305 23.4180147C93.6915935 23.9353181 93.0328958 24.2373814 92.2418007 24.2373814 90.6604329 24.1945756 89.3866218 22.8566939 89.3866218 21.2175567L89.3866218 21.2175567zM71.2678099 13.1662826C71.2678099 12.9648138 71.350467 12.763345 71.4760122 12.6426147 71.6421062 12.4811378 71.80898 12.4007767 72.0171823 12.4007767L75.2661521 12.4007767 75.2661521 13.4084978C75.7242752 13.0455522 76.2658352 12.7233531 76.8491136 12.4811378 77.4320021 12.2392999 78.1400459 12.1185695 78.9319165 12.1185695 79.7647258 12.1185695 80.5562065 12.2796691 81.2229218 12.6022455 81.9305757 12.9248219 82.5138541 13.3681286 83.0136956 13.8921738 83.513927 14.4562109 83.8886132 15.1013637 84.1381441 15.8268776 84.3884547 16.5523916 84.5549386 17.3178975 84.5549386 18.164519 84.5549386 19.2126094 84.3884547 20.179584 84.0968155 21.0665748 83.7634579 21.9531883 83.3470533 22.7194488 82.7220564 23.3642243 82.138778 24.0089998 81.4311241 24.5326677 80.5979249 24.8956133 79.7647258 25.2585589 78.8067612 25.4600277 77.7657496 25.4600277 77.2237998 25.4600277 76.7656767 25.4600277 76.3906006 25.4196585 76.0159144 25.3796666 75.6408383 25.2989281 75.2661521 25.1374513L75.2661521 30.2967873 71.2678099 30.2967873 71.2678099 13.1662826zM74.8915723 21.9655966C74.8915723 22.2902458 74.9326154 22.5742663 75.0542245 22.8582869 75.1758336 23.1423075 75.3384859 23.3856994 75.5414211 23.5884627 75.7443564 23.7912261 76.0282377 23.9533608 76.3124991 24.0752467 76.5967604 24.1967528 76.9623479 24.2373814 77.2872723 24.2373814 77.6118167 24.2373814 77.9367412 24.1158753 78.2210025 23.9127322 78.5052639 23.66972 78.7891452 23.3856994 78.9920805 22.979793 79.1950157 22.5742663 79.398331 22.0874824 79.5203202 21.519821 79.6419293 20.9517799 79.7232554 20.3431101 79.7232554 19.6941915 79.7232554 18.8421298 79.6825924 18.111954 79.5606032 17.4630353 79.4389941 16.8141167 79.2763419 16.2867042 79.0734066 15.8405489 78.8704713 15.3940139 78.626873 15.0697444 78.3426117 14.8669811 78.0583503 14.663838 77.7338059 14.5423319 77.4088815 14.5423319 77.1656632 14.5423319 76.9216849 14.5829605 76.6780866 14.663838 76.4344882 14.7450952 76.231553 14.8669811 76.0282377 15.0291158 75.8253025 15.1912505 75.6223672 15.3533853 75.419432 15.5565283 75.2164967 15.7592916 75.0542245 15.962055 74.8915723 16.2054469L74.8915723 21.9655966zM64.0202851 12.8684137C64.0202851 12.6601886 64.0921559 12.4932966 64.2355615 12.3267946 64.3789671 12.1602925 64.5586439 12.1185695 64.7379849 12.1185695L67.6440475 12.1185695 67.6440475 25.4492626 64.0558847 25.4492626 64.0558847 12.8684137 64.0202851 12.8684137zM60.3605874 25.4492626L56.7727604 25.4492626 56.7727604 8.03198236C56.7727604 7.82067675 56.8442953 7.65131571 56.9880367 7.48235036 57.1314423 7.31338501 57.3107833 7.27104475 57.4901243 7.27104475L60.3965228 7.27104475 60.3965228 25.4492626 60.3605874 25.4492626zM50.0887695 25.4492626L54.3569188 25.4492626 46.3844305 7.27104475 45.2168609 7.27104475C45.0156077 7.27104475 44.8546806 7.31338501 44.6933766 7.4400101 44.5324495 7.56703088 44.4114715 7.69365597 44.3311963 7.86301702L36.2381069 25.4492626 39.0967305 25.4492626 40.5465822 22.489797 48.7602727 22.489797 50.0887695 25.4492626zM44.7742062 13.3304507L48.3173149 20.6017378 41.0697901 20.6017378 44.7742062 13.3304507zM67.6435644 7.87722772C67.6435644 8.8870867 66.5803589 9.6950495 65.2277228 9.6950495 63.8750866 9.6950495 62.8118812 8.8870867 62.8118812 7.87722772 62.8118812 6.86736874 63.8750866 6.05940594 65.2277228 6.05940594 66.5803589 6.05940594 67.6435644 6.86736874 67.6435644 7.87722772M121.597969 8.48292594L120.792562 9.97764243 119.987533 8.48292594 119.584642 8.48292594 119.584642 10.9066883 119.987533 10.9066883 119.987533 9.29097277 120.631632 10.4623949 120.95387 10.4623949 121.597969 9.29097277 121.597969 10.9066883 122.000483 10.9066883 122.000483 8.48292594 121.597969 8.48292594zM117.1688 8.48292594L117.1688 8.80584218 118.105602 8.80584218 118.105602 10.9066883 118.64784 10.9066883 118.64784 8.80584218 119.584642 8.80584218 119.584642 8.48292594 117.1688 8.48292594z"/>
  </g>
</svg>
