<svg height="24" viewBox="0 0 128 24" width="128" xmlns="http://www.w3.org/2000/svg" xmlns:xlink="http://www.w3.org/1999/xlink"><mask id="a" fill="#fff"><path d="m0 .14h118.746v22.66h-118.746z" fill="#fff" fill-rule="evenodd"/></mask><mask id="b" fill="#fff"><path d="m.185.056h4.787v4.713h-4.787z" fill="#fff" fill-rule="evenodd"/></mask><g fill="#b5c1c9" fill-rule="evenodd"><path d="m48.624 4.707h4.822l.774-3.864h-4.823l-.774 3.864zm-.5 2.484h4.823l-3.063 15.256c-.224.077-.914.348-1.868.348-1.286 0-2.465-.496-2.465-2.254 0-.33.038-.708.123-1.136.959-4.76 2.45-12.214 2.45-12.214zm47.88-.348c-3.21 0-4.486 1.86-5.084 2.992h-.056l.185-2.64h-4.766c-.032.58-.238 2.41-.542 3.987 0 0-1.102 5.538-1.31 6.598-.159.81-.449 2.007-.449 2.702 0 1.48.76 2.314 2.453 2.314.949 0 1.633-.258 1.883-.35l1.593-7.944c.442-2.194 2.045-3.63 3.954-3.63 1.538 0 2.274 1.11 2.274 2.018 0 .79-.2 1.666-.356 2.44l-.686 3.402c-.08.409-.256 1.193-.256 1.808 0 1.504.858 2.256 2.486 2.256.89 0 1.454-.22 1.852-.35l1.43-7.122c.31-1.61.425-2.457.425-3.48 0-2.95-1.744-5.001-5.03-5.001zm-21.418 3.687c-2.696 0-4.189 2.726-4.189 5.156 0 2.049.936 3.42 3.063 3.42 2.403 0 4.286-2.023 4.286-5.477 0-1.58-.852-3.099-3.16-3.099zm-1.421 12.265c-5.163 0-7.634-3.063-7.634-6.967 0-5.356 3.718-8.986 9.464-8.986 4.986 0 7.632 2.985 7.632 6.82 0 5.747-3.97 9.133-9.462 9.133zm-18.058-3.673c-.109.548-.179.933-.179 1.406 0 1.748 1.182 2.267 2.434 2.267 1 0 1.62-.271 1.848-.35l2.319-11.563h3.749l.74-3.692-3.75.001.183-.909c.339-1.705 1.15-2.455 2.554-2.455.937 0 1.694.166 1.958.233l.706-3.51c-.3-.075-1.687-.41-3.737-.41-3.268 0-5.408 1.962-6.04 5.124l-.388 1.926h-2.44l-.741 3.692h2.442zm-11.1-12.28c-2.42 0-3.75 1.662-4.27 2.989h-.057l.186-2.64h-4.766c-.043.915-.236 2.462-.722 4.896-.492 2.465-.972 4.923-1.467 7.316-.084.41-.122.81-.122 1.15 0 1.254.626 2.24 2.476 2.24.917 0 1.554-.235 1.86-.348l1.417-7.071c.512-2.707 1.439-4.495 4.132-4.495 1.224 0 2.389.258 2.632.33l.816-4.07c-.176-.06-.883-.296-2.115-.296zm69.939 6.531c.258-1.398-.564-2.842-2.424-2.842-2.27 0-3.267 1.534-3.712 2.842zm2.151 5.677c0 2.122-2.077 3.749-5.754 3.749-5.083 0-7.568-3.132-7.568-6.967 0-3.805 2.553-8.986 8.788-8.986 4.11 0 7.183 2.02 7.183 6.645 0 1.137-.256 2.373-.366 2.868h-10.925c-.019 1.11.927 3.034 4.724 3.034 1.693 0 3.61-.592 3.918-.743zm-89.275-5.676c.258-1.399-.564-2.843-2.423-2.843-2.27 0-3.267 1.534-3.711 2.842h6.134zm2.152 5.676c0 2.122-2.077 3.749-5.754 3.749-5.083 0-7.568-3.132-7.568-6.967 0-3.805 2.554-8.986 8.788-8.986 4.11 0 7.183 2.02 7.183 6.645 0 1.137-.256 2.373-.366 2.868h-10.925c-.019 1.11.927 3.034 4.725 3.034 1.692 0 3.609-.592 3.917-.743v.4zm-28.974-17.05h4.852v15.17c0 2.28 1.146 3.445 2.989 3.445.188 0 .298-.024.335-.033-.807 1.21-1.854 2.201-4.258 2.201-2.544-.001-3.918-1.748-3.918-4.369v-16.413z" mask="url(#a)" transform="translate(1 .06)"/><path d="m6.202 15.662v1.592c0 1.537.84 2.089 1.757 2.089.936 0 1.438-.629 1.899-1.344.77-1.197 10.192-15.938 10.192-15.938h-5.042l-8.806 13.6z" transform="translate(1)"/><path d="m2.152 2.205h.535c.495 0 .74-.236.74-.524 0-.175-.088-.43-.548-.43h-.535zm-.014-1.18h.788c.473 0 .761.251.761.62 0 .613-.577.741-.848.772l.529 1.286h-.286l-.505-1.271h-.47l-.255 1.271h-.252zm.212 3.467c1.3 0 2.2-.929 2.328-2.08.127-1.15-.709-2.079-1.871-2.079-1.288 0-2.2.929-2.327 2.079-.126 1.151.708 2.08 1.87 2.08zm.488-4.436c1.311 0 2.262 1.058 2.12 2.357-.144 1.299-1.205 2.356-2.64 2.356-1.31 0-2.26-1.057-2.119-2.356.143-1.299 1.241-2.357 2.641-2.357z" mask="url(#b)" transform="translate(121.952 6.86)"/></g></svg>