<svg height="65" viewBox="0 0 214 65" width="214" xmlns="http://www.w3.org/2000/svg" xmlns:xlink="http://www.w3.org/1999/xlink"><mask id="a" fill="#fff"><path d="m0 .254h97.926v63.746h-97.926z" fill="#fff" fill-rule="evenodd"/></mask><mask id="b" fill="#fff"><path d="m0 65h214v-64h-214z" fill="#fff" fill-rule="evenodd"/></mask><g fill="#b5c1c9" fill-rule="evenodd"><path d="m78.005 5.368c3.49 0 6.32 2.812 6.32 6.279 0 3.468-2.83 6.28-6.32 6.28-3.491 0-6.32-2.812-6.32-6.28 0-3.467 2.829-6.28 6.32-6.28zm-9.286 33.197v5.882c-21.836 5.564-26.152-5.304-26.152-12.42 0-7.114 7.786-15.558 26.027-11.107l.125 6.359c-13.05-3.339-14.956 3.161-14.956 5.656 0 2.496 2.56 9.764 14.956 5.63zm3.803 7.192v-25.642h10.53v24.817l14.874-4.777-17.601-39.9-80.325 4.473 15.737 39.388v-24.345h11.069c1.256.049 2.94.188 4.547.344 7.114.686 10.165 4.483 10.165 9.525 0 5.041-6.674 8.492-13.174 8.492-.746 0-1.435-.016-2.076-.046v7.671h-9.875l7.289 18.243 56.798-18.243h-7.96z" mask="url(#a)"/><path d="m32 29.608c0-1.92-1.108-3.216-3.689-3.477-.583-.06-1.194-.113-1.65-.131h-.661v7c.377.002 1.007-.006 1.22-.006 2.358 0 4.78-1.465 4.78-3.386m75.323.724c.574.345 1.412.633 2.295.633 1.308 0 2.073-.677 2.073-1.655 0-.906-.529-1.425-1.867-1.928-1.618-.561-2.618-1.381-2.618-2.749 0-1.51 1.28-2.633 3.206-2.633 1.015 0 1.75.231 2.191.475l-.353 1.022c-.323-.173-.985-.46-1.882-.46-1.353 0-1.868.79-1.868 1.453 0 .906.603 1.352 1.97 1.87 1.677.633 2.53 1.424 2.53 2.85 0 1.495-1.132 2.79-3.47 2.79-.957 0-2-.273-2.53-.618z"/><path d="m118.606 26.856c.017-.776-.377-1.982-2-1.982-1.458 0-2.098 1.136-2.212 1.982zm-4.229.873c.033 1.65 1.278 2.329 2.722 2.329 1.032 0 1.655-.152 2.196-.347l.246.874c-.508.193-1.377.415-2.64.415-2.442 0-3.901-1.358-3.901-3.382s1.41-3.618 3.721-3.618c2.59 0 3.279 1.927 3.279 3.161 0 .25-.033.443-.049.568zm11.591 2.883c-.36.166-1.162.388-2.183.388-2.293 0-3.785-1.375-3.785-3.43 0-2.07 1.602-3.57 4.084-3.57.817 0 1.539.18 1.916.347l-.314.945c-.33-.166-.848-.32-1.602-.32-1.743 0-2.686 1.139-2.686 2.543 0 1.555 1.131 2.513 2.639 2.513.785 0 1.303-.18 1.696-.333zm6.974-.634c0 .707.014 1.329.058 1.867h-1.136l-.073-1.118h-.029c-.335.551-1.077 1.273-2.33 1.273-1.107 0-2.432-.593-2.432-2.999v-4.001h1.282v3.79c0 1.3.407 2.178 1.573 2.178.859 0 1.456-.58 1.69-1.132.072-.184.115-.41.115-.636v-4.2h1.282zm2.108-3.687c0-.806-.013-1.499-.05-2.135h.95l.038 1.344h.049c.272-.92.926-1.5 1.654-1.5.124 0 .21.014.309.043v1.174c-.111-.029-.222-.043-.37-.043-.766 0-1.309.665-1.457 1.598-.025.17-.05.368-.05.58v3.648h-1.074v-4.709z"/><path d="m139.1 31h.808v-6.453h-.807v6.453zm.9-8.266c.009.4-.193.72-.514.72-.284 0-.486-.32-.486-.72 0-.413.21-.734.504-.734.303 0 .496.32.496.734zm5.244.266v1.757h1.756v.847h-1.756v3.298c0 .759.237 1.189.92 1.189.32 0 .557-.039.71-.076l.056.834c-.236.088-.613.151-1.087.151-.571 0-1.03-.164-1.324-.467-.348-.329-.473-.872-.473-1.592v-3.337h-1.046v-.847h1.046v-1.466z" mask="url(#b)"/><path d="m147.477 25 1.63 4.056c.17.454.355.993.477 1.405h.032c.138-.412.292-.936.476-1.433l1.478-4.028h1.43l-2.03 4.894c-.97 2.354-1.632 3.56-2.554 4.297-.662.539-1.324.752-1.662.809l-.338-1.05c.338-.099.784-.298 1.184-.609.37-.27.831-.752 1.139-1.39.06-.129.107-.227.107-.299 0-.07-.03-.17-.092-.326l-2.754-6.326zm-40.154 20.332c.574.345 1.412.633 2.295.633 1.308 0 2.073-.677 2.073-1.655 0-.907-.529-1.425-1.867-1.928-1.618-.561-2.618-1.381-2.618-2.75 0-1.51 1.28-2.632 3.206-2.632 1.015 0 1.75.23 2.191.475l-.353 1.022c-.323-.173-.985-.46-1.882-.46-1.353 0-1.868.79-1.868 1.453 0 .905.603 1.351 1.97 1.87 1.677.633 2.53 1.424 2.53 2.85 0 1.496-1.132 2.79-3.47 2.79-.957 0-2-.273-2.53-.619l.323-1.05zm7.921-7.332v1.757h1.756v.847h-1.756v3.298c0 .759.237 1.189.92 1.189.32 0 .557-.039.71-.076l.056.833c-.236.09-.613.152-1.087.152-.571 0-1.031-.164-1.324-.467-.348-.33-.473-.872-.473-1.593v-3.336h-1.046v-.847h1.046v-1.466zm7.311 4.431c-1.492-.028-3.187.207-3.187 1.508 0 .788.59 1.161 1.29 1.161.98 0 1.601-.552 1.819-1.12.046-.123.078-.263.078-.387v-1.163zm.201 3.417-.108-.843h-.047c-.42.525-1.228.995-2.3.995-1.524 0-2.301-.954-2.301-1.923 0-1.619 1.617-2.504 4.523-2.49v-.138c0-.554-.17-1.55-1.71-1.55-.699 0-1.43.194-1.958.499l-.311-.803c.622-.36 1.524-.595 2.472-.595 2.3 0 2.86 1.398 2.86 2.739v2.504c0 .582.03 1.148.124 1.605zm3.302-4.84c0-.707-.014-1.287-.058-1.852h1.125l.072 1.131h.03c.345-.65 1.153-1.287 2.307-1.287.966 0 2.466.566 2.466 2.914v4.086h-1.269v-3.945c0-1.103-.418-2.022-1.615-2.022-.837 0-1.486.58-1.703 1.273-.057.155-.086.367-.086.579v4.115h-1.27v-4.992z" mask="url(#b)"/><path d="m137.591 41.867c0-.152-.015-.36-.061-.513-.2-.777-.935-1.415-1.945-1.415-1.395 0-2.222 1.11-2.222 2.593 0 1.36.736 2.483 2.191 2.483.904 0 1.73-.54 1.976-1.456.046-.166.061-.333.061-.527zm1.348-5.867v8.114c0 .596.015 1.275.061 1.733h-1.21l-.061-1.165h-.03c-.414.75-1.318 1.318-2.528 1.318-1.792 0-3.17-1.373-3.17-3.412-.016-2.233 1.515-3.606 3.323-3.606 1.134 0 1.9.486 2.237 1.027h.03v-4.009zm6.615 6.431c-1.492-.028-3.186.207-3.186 1.508 0 .788.59 1.161 1.29 1.161.98 0 1.601-.552 1.819-1.12.046-.123.077-.263.077-.387v-1.163zm.202 3.417-.108-.843h-.047c-.42.525-1.228.995-2.3.995-1.524 0-2.301-.954-2.301-1.923 0-1.619 1.617-2.504 4.523-2.49v-.138c0-.554-.17-1.55-1.71-1.55-.699 0-1.43.194-1.958.499l-.311-.803c.622-.36 1.523-.595 2.471-.595 2.301 0 2.861 1.398 2.861 2.739v2.504c0 .582.03 1.148.124 1.605zm2.294-4.557c0-.806-.013-1.499-.05-2.135h.95l.038 1.344h.05c.27-.92.925-1.5 1.653-1.5.124 0 .21.014.309.043v1.174c-.111-.03-.222-.044-.37-.044-.765 0-1.309.665-1.457 1.6-.025.169-.05.367-.05.578v3.649h-1.073zm8.541.576c0-.152-.015-.36-.062-.513-.199-.777-.934-1.415-1.944-1.415-1.395 0-2.222 1.11-2.222 2.593 0 1.36.735 2.483 2.191 2.483.903 0 1.73-.54 1.975-1.456.047-.166.062-.333.062-.527zm1.348-5.867v8.114c0 .596.015 1.275.061 1.733h-1.21l-.061-1.165h-.03c-.414.75-1.318 1.318-2.529 1.318-1.791 0-3.17-1.373-3.17-3.412-.015-2.233 1.516-3.606 3.324-3.606 1.133 0 1.9.486 2.236 1.027h.031v-4.009zm1.408 8.614c.41.235 1.136.486 1.83.486 1.01 0 1.482-.444 1.482-.999 0-.582-.394-.901-1.42-1.233-1.371-.43-2.018-1.096-2.018-1.9 0-1.081.993-1.968 2.634-1.968.773 0 1.451.194 1.877.416l-.347.887c-.3-.166-.852-.388-1.562-.388-.82 0-1.277.415-1.277.915 0 .554.457.804 1.45 1.137 1.326.443 2.004 1.025 2.004 2.023 0 1.179-1.041 2.01-2.855 2.01-.835 0-1.609-.18-2.145-.457zm17.639 1.926c-.437.23-1.312.46-2.433.46-2.598 0-4.553-1.726-4.553-4.906 0-3.036 1.955-5.094 4.813-5.094 1.148 0 1.873.259 2.187.431l-.287 1.022c-.45-.23-1.094-.402-1.86-.402-2.16 0-3.595 1.453-3.595 4 0 2.373 1.298 3.9 3.54 3.9.726 0 1.464-.159 1.942-.404l.246.992zm1.331-4.026c0 1.466.903 2.574 2.176 2.574 1.243 0 2.175-1.094 2.175-2.602 0-1.134-.607-2.573-2.146-2.573-1.54 0-2.205 1.328-2.205 2.601m5.683-.07c0 2.477-1.835 3.556-3.566 3.556-1.939 0-3.434-1.328-3.434-3.445 0-2.24 1.569-3.555 3.552-3.555 2.057 0 3.448 1.398 3.448 3.444m7.942 1.534c0 .707.015 1.33.058 1.866h-1.136l-.072-1.117h-.03c-.335.552-1.077 1.273-2.33 1.273-1.107 0-2.432-.594-2.432-2.998v-4.002h1.282v3.79c0 1.3.408 2.178 1.573 2.178.859 0 1.456-.58 1.69-1.132.072-.184.116-.41.116-.636v-4.2h1.281zm1.116-2.97c0-.707-.015-1.287-.058-1.852h1.125l.073 1.131h.028c.346-.65 1.154-1.287 2.308-1.287.966 0 2.466.566 2.466 2.914v4.086h-1.269v-3.945c0-1.103-.419-2.022-1.615-2.022-.837 0-1.486.58-1.703 1.273-.057.155-.086.367-.086.579v4.115h-1.27v-4.992zm12.91 4.604c-.36.166-1.162.388-2.183.388-2.293 0-3.785-1.375-3.785-3.43 0-2.07 1.602-3.57 4.084-3.57.817 0 1.539.18 1.916.347l-.314.945c-.33-.167-.848-.32-1.602-.32-1.743 0-2.686 1.139-2.686 2.542 0 1.556 1.13 2.514 2.639 2.514.785 0 1.303-.18 1.696-.334zm1.132.388h.808v-6.453h-.807v6.453zm.9-8.266c.009.4-.193.72-.514.72-.284 0-.486-.32-.486-.72 0-.413.21-.734.504-.734.303 0 .496.32.496.734zm2 8.266h1v-10h-1zm-2.768-23.451h-1.232v-.549h3v.549h-1.238v4.451h-.53zm6.027 2.255c-.036-.697-.08-1.536-.073-2.159h-.022c-.166.587-.37 1.21-.617 1.9l-.865 2.424h-.48l-.792-2.38c-.232-.705-.429-1.35-.567-1.944h-.014c-.015.623-.05 1.462-.095 2.21l-.13 2.145h-.604l.342-5h.806l.836 2.419c.204.615.37 1.164.494 1.684h.022c.124-.505.298-1.055.516-1.684l.872-2.419h.807l.305 5h-.617z" mask="url(#b)"/></g></svg>