<svg height="56" viewBox="0 0 103 56" width="103" xmlns="http://www.w3.org/2000/svg" xmlns:xlink="http://www.w3.org/1999/xlink"><mask id="a" fill="#fff"><path d="m.098.05h9.847v7.884h-9.847z" fill="#fff" fill-rule="evenodd"/></mask><mask id="b" fill="#fff"><path d="m.039.063h5.958v3.884h-5.958z" fill="#fff" fill-rule="evenodd"/></mask><g fill="#b5c1c9" fill-rule="evenodd"><path d="m80.173 50.714h-1.833v-2.294c0-.262.223-.475.498-.475h1.397c.928 0 1.447.659 1.447 1.366 0 .709-.556 1.403-1.51 1.403zm3.653 2.002c-.389-.76-.736-1.275-1.6-1.397 1.099-.19 1.867-.991 1.867-2.03 0-1.263-.934-2.301-3.214-2.289h-3.92c-.554 0-.959.426-.959.952v7.048h2.34v-3.354h1.12c.943 0 1.486.482 1.856 1.116l1.13 2.238h2.554z"/><path d="m4.496 6.998h-1.84v-6.01h1.84c1.734 0 2.719 1.15 2.719 3.004 0 1.855-.985 3.006-2.719 3.006m.145-6.948h-4.544v7.884h4.544c3.613 0 5.304-1.58 5.304-3.942s-1.691-3.942-5.305-3.942" mask="url(#a)" transform="translate(93 47)"/><path d="m68.998 54.926c-1.497 0-2.64-1.759-2.64-3.926s1.143-3.925 2.64-3.925c1.5 0 2.641 1.758 2.641 3.925s-1.141 3.926-2.64 3.926m0-8.926c-3.129 0-4.999 2.237-4.999 5 0 2.762 1.87 5 4.998 5 3.129 0 5.002-2.238 5.002-5 0-2.763-1.873-5-5.002-5m19.448 1h-2.446v7.048c0 .525.467.952 1.044.952h5.956v-.946h-4.03c-.29 0-.524-.211-.524-.477zm-25.851 0-1.823 6.322-1.964-6.322h-1.722l-1.877 6.319-1.954-6.319h-2.255l2.32 7.372c.134.428.388.628.793.628h1.305c.405 0 .662-.2.794-.628l1.3-4.312 1.371 4.312c.135.426.389.627.79.628h1.309c.403 0 .662-.2.792-.628l2.226-7.372zm-21.489-33.478c-.455-.36-.876-.522-1.228-.522-.4 0-.71.21-.878.573v3.427c.397-1.55 1.455-.772 2.176-.541 1.461.467 2.788-.244 2.824-2.427-.606.67-1.487.6-2.894-.51m23.014-2.82c-.632-.453-1.324-.702-1.912-.702-.527 0-.969.2-1.208.633v3.367c.484-1.44 2.035-.608 3.022-.336 2.085.575 3.901-.04 3.978-2.16-.774.788-2.376.274-3.88-.802"/><path d="m2.705.736c-.557-.38-1.167-.673-1.7-.673-.375 0-.713.147-.965.517v3.367c.536-1.533 1.921-.742 2.755-.449 1.688.595 3.317-.39 3.196-2.4-.643.704-1.785.657-3.285-.362" mask="url(#b)" transform="translate(50)"/><path d="m71.95 19.258c-5.121-5.723-22.241-3.851-37 5.178-6.464 3.953-11.799 9.22-13.91 12.351-.128.19.079.301.222.124 2.271-2.797 7.336-7.597 12.99-10.979 14.568-8.711 30.878-11.052 36.575-6.092 1.86 1.619 1.631 4.192-.68 6.261-.165.173.002.175.238.014 2.584-1.745 3.53-4.66 1.565-6.856"/><path d="m58.434 33c.51 0 .745-.41.41-.783-.714-.794-1.23-1.396-1.975-3.408-3.815-10.313-5.94-19.798-6.598-23.576-.027-.162-.161-.233-.27-.233-.11 0-.244.07-.272.233-.659 3.778-2.781 13.263-6.598 23.576-.743 2.012-1.26 2.614-1.974 3.408-.336.372-.103.783.41.783z"/><path d="m45.59 38c.37 0 .539-.295.297-.56-.516-.566-.89-.997-1.427-2.436-2.755-7.366-4.29-14.14-4.765-16.838-.019-.115-.116-.166-.195-.166-.08 0-.177.051-.197.166-.474 2.697-2.007 9.472-4.764 16.838-.537 1.439-.91 1.87-1.426 2.437-.242.264-.074.559.296.559zm21.878 4c.481 0 .7-.396.384-.755-.672-.765-1.16-1.345-1.863-3.285-3.605-9.947-5.611-19.094-6.231-22.738-.028-.152-.158-.222-.258-.222-.103 0-.228.07-.257.222-.62 3.644-2.626 12.791-6.23 22.738-.704 1.94-1.193 2.52-1.864 3.285-.318.359-.098.755.383.755zm-.287-12.015 1.608-.453c.029-.008.058-.008.088.002.03.011.052.03.069.054l.923 1.353c.015.022.039.04.068.05.03.012.06.011.09.003.039-.012.074-.041.09-.083l.008-.041.052-1.618c0-.014.003-.029.01-.043.005-.014.01-.026.02-.038.019-.023.047-.04.074-.047l1.615-.428c.044-.01.08-.04.095-.083.006-.014.009-.028.009-.04.002-.06-.032-.114-.092-.134l-1.58-.548c-.027-.011-.05-.028-.067-.052-.016-.024-.025-.052-.025-.08l.078-1.618c.002-.058-.033-.112-.091-.132-.059-.022-.123-.003-.159.043l-1.029 1.282c-.018.021-.042.036-.068.043-.028.008-.061.008-.089-.001l-1.572-.572c-.058-.021-.125-.002-.161.043-.006.01-.016.022-.02.037-.017.042-.008.087.016.122l.946 1.34c.015.023.023.05.022.08 0 .014-.003.028-.008.042-.006.014-.013.026-.022.038l-1.048 1.265c-.011.01-.018.021-.022.035-.017.043-.01.089.016.123.014.024.04.042.066.052.03.01.061.011.09.004m-54.185 24.941c-1.495 0-2.636-1.759-2.636-3.925 0-2.169 1.14-3.926 2.636-3.926 1.501 0 2.64 1.757 2.64 3.926 0 2.166-1.139 3.925-2.64 3.925m0-8.926c-3.125 0-4.996 2.238-4.996 5.001s1.871 4.999 4.996 4.999c3.129 0 5.004-2.236 5.004-4.999s-1.875-5.001-5.004-5.001m5.004 1.961h3.849v7.039h2.902v-7.039h3.249v-.961h-10zm10 0h3.246v7.039h2.9v-7.039h3.854v-.961h-10zm-25.63 5.604v-6.565h-2.37v7.048c0 .526.423.952.943.952h6.057v-.958h-4.158c-.26 0-.472-.213-.472-.477m36.63-5.615v6.097c0 .527.458.953 1.02.953h6.98v-.947h-4.926c-.282 0-.509-.213-.509-.476v-2.357h5.356v-.936h-5.356v-1.864c0-.26.227-.475.509-.475h4.926v-.945h-6.98c-.562 0-1.02.424-1.02.95"/></g></svg>