<svg height="56" viewBox="0 0 96 56" width="96" xmlns="http://www.w3.org/2000/svg"><path d="m87 24.382c0 1.446-1.228 2.618-2.743 2.618h-.514c-1.515 0-2.743-1.172-2.743-2.618v-21.764c0-1.446 1.228-2.618 2.743-2.618h.514c1.515 0 2.743 1.172 2.743 2.618zm-67.627-23.382h-.492c-1.451 0-2.627 1.433-2.627 2.868v7.454h-10.508v-7.454c0-1.435-1.176-2.868-2.626-2.868h-.492c-1.451 0-2.628 1.433-2.628 2.868v20.264c0 1.435 1.176 2.868 2.627 2.868h.492c1.451 0 2.627-1.433 2.627-2.868v-7.345h10.508v7.345c0 1.435 1.176 2.868 2.627 2.868h.492c1.45 0 2.627-1.433 2.627-2.868v-20.264c0-1.435-1.176-2.868-2.627-2.868m76.627 23.382c0 1.446-1.228 2.618-2.743 2.618h-.514c-1.515 0-2.743-1.172-2.743-2.618v-21.764c0-1.446 1.228-2.618 2.743-2.618h.514c1.515 0 2.743 1.172 2.743 2.618zm-43.095-11.661c-.562-3.8-3.857-6.721-7.85-6.721-2.163 0-4.123.86-5.555 2.25-1.433-1.39-3.393-2.25-5.557-2.25-4.018 0-7.33 2.958-7.86 6.795-.018.077-.026.157-.037.237l-.007.069c-.01.093-.028.184-.028.28v.274c-.002.072-.011.142-.011.215s.009.142.01.215v10.047c0 1.441 1.171 2.868 2.616 2.868h.49c1.444 0 2.616-1.427 2.616-2.868v-2.708c.01.004.02.005.03.008v-7.532c0-1.39 1.105-2.516 2.469-2.516s2.47 1.127 2.47 2.516v10.643c.194 1.29 1.268 2.458 2.574 2.458h.49c1.443 0 2.612-1.422 2.616-2.862v-10.239c0-1.39 1.105-2.516 2.468-2.516 1.365 0 2.47 1.127 2.47 2.516v10.643c.195 1.29 1.268 2.458 2.575 2.458h.49c1.444-.001 2.616-1.428 2.616-2.869v-10.751c0-.23-.04-.448-.095-.66m25.087 4.28c0-6.076-4.923-11.001-10.995-11.001-6.074 0-10.997 4.925-10.997 11.001 0 6.074 4.923 10.999 10.997 10.999.711 0 1.4.008 2.03-.373.533-.324 1.005-.825 1.23-1.411.127-.328.212-.728.212-1.08 0-1.594-1.318-2.886-2.945-2.886-.07 0-.138.015-.208.008-.124.01-.25.02-.376.02-2.844 0-5.15-2.35-5.15-5.25s2.306-5.25 5.15-5.25c2.845 0 5.15 2.35 5.15 5.25 0 .537.022 1.073.024 1.61.002.587.001 1.174 0 1.761v2 2.538c0 1.523 1.202 2.786 2.685 2.786h.504c1.483 0 2.686-1.263 2.686-2.786v-4.201-1.818c0-.31.004-.608.01-.926.005-.321-.007-.671-.007-.991" fill="#b5c1c9" fill-rule="evenodd" transform="translate(0 14)"/></svg>