<svg height="36" viewBox="0 0 126 36" width="126" xmlns="http://www.w3.org/2000/svg"><path d="m19.031 18.104v-3.775h5.741v-14.127h4.065v14.127h5.742v3.775zm66.923 0h-10.24v-3.804h9.963c1.468 0 2.036-.67 2.036-2.375v-.638h-8.262c-3.144 0-4.705-1.568-4.705-5.12v-.847c0-3.65 1.622-5.118 4.882-5.118h12.113v11.766c0 4.504-1.491 6.136-5.787 6.136m-5.903-14.074c-.615 0-1.307.307-1.307 1.846 0 1.537.675 1.806 1.307 1.806h7.662v-3.653h-7.662zm39.659 14.074h-10.236v-3.804h9.968c1.46 0 2.028-.67 2.028-2.375v-.638h-8.254c-3.144 0-4.71-1.568-4.71-5.12v-.847c0-3.65 1.621-5.118 4.88-5.118h12.112v11.766c0 4.504-1.491 6.136-5.787 6.136m-5.903-14.074c-.616 0-1.306.307-1.306 1.846 0 1.537.676 1.806 1.306 1.806h7.662v-3.653h-7.662zm-77.938 14.074v-3.775h5.741v-14.127h4.075v14.127h5.742v3.775zm56.685 0v-3.775h5.742v-14.127h4.065v14.127h5.742v3.775zm-19.383-11.631v5.358c0 4.682-1.814 6.265-5.918 6.265h-10.891v-17.893h11.082c4.35 0 5.727 2.166 5.727 6.27m-4.151-.085c0-1.705-.576-2.375-2.037-2.375h-6.548v10.277h6.548c1.46 0 2.037-.668 2.037-2.39zm-55.731-1.919c-.085.161-5.512 10.745-6.181 11.79-.767 1.198-1.698 2.036-3.48 2.036-1.661 0-3.629-.73-3.629-4.718v-13.383h4.005v11.161c0 .799-.046 1.991-.054 2.23-.008.198 0 .383.1.437.106.07.223-.038.307-.184.077-.155 5.11-10.115 6.187-11.797.761-1.209 1.7-2.039 3.482-2.039 1.661 0 3.62.738 3.62 4.72v13.383h-4.004v-11.161c0-.807.046-1.991.061-2.23 0-.192 0-.383-.1-.438-.116-.07-.23.039-.315.193" fill="#b5c1c9" transform="matrix(1 0 0 -1 0 27.801)"/></svg>