<svg xmlns="http://www.w3.org/2000/svg" width="75" height="24" viewBox="0 0 75 24">
    <path fill="#B5C1C9" fill-rule="evenodd" d="M28.66.328l-9.816 23.318h-6.602l-4.83-18.63c-.086-.886-.635-1.662-1.443-2.04C4.07 2.072 2.064 1.412 0 1.008l.151-.68h10.295c1.394-.006 2.584.999 2.808 2.37l2.53 13.487L22.082.328h6.577zM53.6 16.236c.025-6.278-8.474-6.732-8.474-9.253 0-.831.81-1.714 2.53-1.94 2.046-.202 4.11.155 5.97 1.032l1.063-5.04C52.876.355 50.957.005 49.022 0c-5.97 0-10.118 3.176-10.118 7.715 0 3.352 3.01 5.218 5.287 6.327 2.276 1.108 3.162 1.89 3.136 2.9 0 1.563-1.872 2.268-3.616 2.293-2.154.028-4.279-.493-6.173-1.512l-1.088 5.042c2.144.834 4.428 1.252 6.728 1.234 6.35 0 10.524-3.126 10.549-7.966l-.126.203zm15.785 7.562H75L70.092.478h-5.057c-1.114.012-2.112.688-2.53 1.715l-9.081 21.605h6.374l1.238-3.478h7.615l.734 3.478zm-6.755-8.27l3.189-8.746 1.846 8.747H62.63zM37.184.405l-5.06 23.318h-6.07L31.112.404h6.072z"/>
</svg>
