<svg height="41" viewBox="0 0 90 41" width="90" xmlns="http://www.w3.org/2000/svg" xmlns:xlink="http://www.w3.org/1999/xlink"><mask id="a" fill="#fff"><path d="m0 41h89.914v-41h-89.914z" fill="#fff" fill-rule="evenodd"/></mask><g fill="#b5c1c9" fill-rule="evenodd"><path d="m30.161 17.034c-2.886 0-5.233 2.348-5.233 5.233 0 2.886 2.347 5.234 5.233 5.234s5.234-2.348 5.234-5.234c0-2.885-2.348-5.233-5.234-5.233m0 14.719c-5.23 0-9.485-4.255-9.485-9.486 0-5.23 4.255-9.485 9.485-9.485s9.486 4.255 9.486 9.485-4.255 9.486-9.486 9.486m20.502 0c-5.23 0-9.486-4.255-9.486-9.486 0-5.23 4.256-9.485 9.486-9.485h1.42v4.252h-1.42c-2.886 0-5.234 2.348-5.234 5.233 0 2.886 2.348 5.234 5.234 5.234 2.885 0 5.233-2.348 5.233-5.234v-17.622h4.252v17.622c0 5.23-4.255 9.486-9.485 9.486m20.501-14.719c-2.885 0-5.233 2.348-5.233 5.233 0 2.886 2.348 5.234 5.233 5.234 2.886 0 5.234-2.348 5.234-5.234 0-2.885-2.348-5.233-5.234-5.233m0 14.719c-5.23 0-9.485-4.255-9.485-9.486 0-5.23 4.255-9.485 9.485-9.485s9.485 4.255 9.485 9.485-4.255 9.486-9.485 9.486"/><path d="m85.674 20.323h4.24v-4.239h-4.24zm0 8.508h4.24v-4.238h-4.24zm-76.101 12.645h-.44v-4.252h.44c2.933 0 5.32-2.387 5.32-5.32v-9.637c0-2.934-2.387-5.32-5.32-5.32-2.934 0-5.321 2.386-5.321 5.32s2.387 5.321 5.32 5.321h1.421v4.252h-1.42c-5.279 0-9.573-4.294-9.573-9.573 0-5.278 4.294-9.572 9.573-9.572 5.278 0 9.572 4.294 9.572 9.572v9.637c0 5.278-4.294 9.572-9.572 9.572m-7.307-40.246c0-.572-.114-.971-.491-1.195-.06-.035-.125-.053-.187-.008-.136.092-.56.503-.738.7-.168.19-.214.302-.214.606v6.045c0 .504.113.86.487 1.054.065.036.126.049.188.01.138-.082.56-.446.738-.62.17-.168.217-.264.217-.535zm10.748 0c0-.572-.111-.971-.488-1.195-.063-.035-.124-.053-.186-.008-.134.092-.56.503-.74.7-.17.19-.213.302-.213.606v6.045c0 .504.11.86.49 1.054.062.036.12.049.186.01.136-.082.558-.446.738-.62.17-.168.213-.264.213-.535zm-3.562 3.345c.477.245.758.523.761.969.004.078-.01.141-.08.182-.143.09-.689.316-.942.398-.237.08-.355.075-.61-.054l-4.254-2.168c-.536-.271-.864-.572-.892-1.032-.004-.077.007-.147.081-.182.153-.087.747-.289 1.017-.36.261-.072.391-.056.674.087zm15.291-3.345c0-.572-.113-.971-.488-1.195-.06-.035-.123-.053-.186-.008-.138.092-.562.503-.74.7-.17.19-.214.302-.214.606v6.045c0 .504.114.86.487 1.054.064.036.124.049.19.01.135-.082.558-.446.739-.62.17-.168.212-.264.212-.535zm10.747 0c0-.572-.106-.971-.487-1.195-.06-.035-.123-.053-.187-.008-.135.092-.557.503-.736.7-.171.19-.217.302-.217.606v6.045c0 .504.116.86.491 1.054.062.036.126.049.187.01.136-.082.558-.446.74-.62.168-.168.21-.264.21-.535v-6.057zm-3.558 3.345c.474.245.758.523.762.969 0 .078-.015.141-.081.182-.142.09-.688.316-.942.398-.24.08-.357.075-.608-.054l-4.256-2.168c-.538-.271-.86-.572-.891-1.032-.006-.077.008-.147.082-.182.153-.087.745-.289 1.015-.36.26-.072.388-.056.676.087zm-16.12-1.203c-.32 0-.44.043-.641.225-.21.188-.646.638-.743.78-.048.069-.03.134.012.2.234.398.661.52 1.264.52h4.614c.318 0 .44-.05.643-.23.206-.186.642-.639.744-.781.045-.07.024-.133-.015-.198-.234-.4-.661-.516-1.263-.516z" mask="url(#a)"/></g></svg>