<?xml version="1.0" encoding="UTF-8"?>
<svg width="62px" height="23px" viewBox="0 0 62 23" version="1.1" xmlns="http://www.w3.org/2000/svg" xmlns:xlink="http://www.w3.org/1999/xlink">
    <title>Group 11</title>
    <defs>
        <polygon id="path-1" points="0 0.0339045104 17.7114423 0.0339045104 17.7114423 14.6369998 0 14.6369998"></polygon>
    </defs>
    <g id="WEB" stroke="none" stroke-width="1" fill="none" fill-rule="evenodd">
        <g id="2.0_Main" transform="translate(-969.000000, -7318.000000)">
            <g id="Group-11" transform="translate(969.000000, 7318.000000)">
                <g id="main_img_016" transform="translate(0.000000, 4.000000)">
                    <g id="toss">
                        <path d="M21.1208791,3.86012669 L23.124806,3.86012669 L23.124806,1.56745514 L25.8500808,0 L25.8500808,3.86012669 L28.6955801,3.86012669 L28.6955801,6.25058526 L25.8500808,6.25058526 L25.8500808,10.6005417 C25.8500808,11.7174429 26.3308878,12.1093067 27.0323812,12.1093067 C27.4130925,12.1093067 27.7136541,11.9917476 28.0342531,11.7174429 L29.2967033,13.8335968 C28.5952099,14.3430198 27.7136541,14.6370071 26.7115992,14.6370071 C24.447277,14.6370071 23.124806,13.5787959 23.124806,10.6984182 L23.124806,6.25058526 L21.1208791,6.25058526 L21.1208791,3.86012669 Z" id="Fill-1" fill="#B5C1C9"></path>
                        <path d="M38.5460086,9.16169846 C38.5460086,7.45868017 37.2431252,6.10030161 35.6242109,6.10030161 C33.9856461,6.10030161 32.7024131,7.45868017 32.7024131,9.16169846 C32.7024131,10.8647167 33.9856461,12.2230953 35.6242109,12.2230953 C37.2431252,12.2230953 38.5460086,10.8647167 38.5460086,9.16169846 M29.978022,9.18197138 C29.978022,6.01920991 32.4063033,3.48500169 35.6044702,3.48500169 C38.7828965,3.48500169 41.2507493,6.01920991 41.2507493,9.18197138 C41.2507493,12.3244599 38.8223778,14.8789411 35.6044702,14.8789411 C32.4063033,14.8789411 29.978022,12.3244599 29.978022,9.18197138" id="Fill-3" fill="#B5C1C9"></path>
                        <path d="M41.5604396,11.9872451 L44.3688015,10.9591439 C44.8755387,11.9081604 45.7835394,12.4025301 46.9870405,12.4025301 C48.1696203,12.4025301 48.8030419,11.8687083 48.8030419,11.2359404 C48.8030419,10.4648644 47.578234,10.2868336 46.1213643,10.0101273 C44.199889,9.63438469 42.0671768,9.08070144 42.0671768,6.82669692 C42.0671768,5.02742949 43.9253099,3.46541618 46.7336718,3.48518736 C49.1408667,3.48518736 50.5767187,4.33543827 51.6324214,5.75905333 L48.9719543,6.76738339 C48.5074451,6.055621 47.7893745,5.64033599 46.7336718,5.64033599 C45.5934165,5.64033599 45.0444512,6.07539218 45.0444512,6.6685275 C45.0444512,7.34083782 45.9734695,7.51868814 47.6415761,7.85488843 C49.5420337,8.21076963 51.7802198,8.82367613 51.7802198,11.1173133 C51.7802198,12.7781825 50.1965694,14.6565346 46.8813738,14.6368537 C44.1786786,14.6368537 42.4683438,13.6876566 41.5604396,11.9872451" id="Fill-5" fill="#B5C1C9"></path>
                        <path d="M51.7802198,11.9872451 L54.5885817,10.9591439 C55.095319,11.9081604 56.0033197,12.4025301 57.2068207,12.4025301 C58.3893041,12.4025301 59.0228221,11.8687083 59.0228221,11.2359404 C59.0228221,10.4648644 57.7980142,10.2868336 56.3411445,10.0101273 C54.4196693,9.63438469 52.2869571,9.08070144 52.2869571,6.82669692 C52.2869571,5.02742949 54.1450902,3.46541618 56.953452,3.48518736 C59.3606469,3.48518736 60.796499,4.33543827 61.8522016,5.75905333 L59.1917345,6.76738339 C58.7271289,6.055621 58.0091547,5.64033599 56.953452,5.64033599 C55.8131968,5.64033599 55.2642314,6.07539218 55.2642314,6.6685275 C55.2642314,7.34083782 56.1932497,7.51868814 57.8613563,7.85488843 C59.7618139,8.21076963 62,8.82367613 62,11.1173133 C62,12.7781825 60.4163496,14.6565346 57.101154,14.6368537 C54.3984588,14.6368537 52.6881241,13.6876566 51.7802198,11.9872451" id="Fill-7" fill="#B5C1C9"></path>
                        <g id="Group-11" transform="translate(0.000000, 1.394001)">
                            <mask id="mask-2" fill="white">
                                <use xlink:href="#path-1"></use>
                            </mask>
                            <g id="Clip-10"></g>
                            <path d="M17.7114423,7.32777662 C17.7114423,3.5582118 14.8030292,0.44552729 11.0724006,0.0746933611 C10.4713867,0.0149850822 10.0855786,0.0326565908 9.76172513,0.053719601 C6.24221451,0.282824462 3.92309656,2.6333136 2.38213538,5.36855967 C1.13641231,7.58142524 0.367793993,9.99519266 -2.72527473e-05,12.0346454 C1.06610022,11.3189493 2.2519581,10.7661345 3.52656908,10.4151141 C4.71170022,12.9102776 7.28899253,14.6389617 10.2769837,14.6369998 C14.3935112,14.6343207 17.7114423,11.3721423 17.7114423,7.32777662" id="Fill-9" fill="#B5C1C9" mask="url(#mask-2)"></path>
                        </g>
                    </g>
                </g>
            </g>
        </g>
    </g>
</svg>