<svg height="42" viewBox="0 0 180 42" width="180" xmlns="http://www.w3.org/2000/svg" xmlns:xlink="http://www.w3.org/1999/xlink"><mask id="a" fill="#fff"><path d="m.385.272h24.624v25.449h-24.624z" fill="#fff" fill-rule="evenodd"/></mask><mask id="b" fill="#fff"><path d="m.066.433h10.751v15.225h-10.751z" fill="#fff" fill-rule="evenodd"/></mask><mask id="c" fill="#fff"><path d="m0 35h180v-34.079h-180z" fill="#fff" fill-rule="evenodd"/></mask><g fill="#b5c1c9" fill-rule="evenodd"><path d="m.385 10.385c0 .357.052.718.186 1.06.604 1.54 2.129 2.485 4.065 1.682l13.32-5.54s-5.063 13.256-5.25 13.752c-.74 1.9.146 3.621 1.657 4.2.335.124.679.186 1.022.182 1.223-.007 2.311-.753 2.84-2.25.083-.227 6.41-18.184 6.554-18.62.079-.253.228-.855.23-1.272.002-.888-.318-1.728-.932-2.356-.611-.629-1.407-.953-2.257-.951-.41 0-.747.078-1.255.246-.306.098-16.625 6.375-18.017 6.914-1.399.538-2.168 1.688-2.163 2.953" mask="url(#a)" transform="translate(154.545)"/><path d="m9.837 34.079-.899-3.067h-5.14l-.908 3.068h-2.89l4.935-14.737h2.846l4.946 14.737h-2.89zm-3.48-11.5-1.856 6.007h3.734z"/><path d="m10.266 13.356c-.932 1.719-2.77 2.302-4.595 2.302-2.427 0-4.668-1.02-5.377-3.568-.166-.558-.186-1.12-.228-1.701h2.667c.042.398.098.763.25 1.143.463 1.179 1.515 1.678 2.723 1.678.92 0 2.296-.395 2.296-1.558 0-.25-.078-.413-.182-.64-.301-.623-1.422-1.057-2.015-1.303-1.221-.526-2.765-1.087-3.808-1.888-.973-.771-1.464-1.851-1.464-3.097 0-2.815 2.406-4.29 4.925-4.29 1.816 0 3.731.792 4.524 2.573.306.661.387 1.287.425 2.004h-2.665c.02-1.36-1.081-2.153-2.347-2.153-.897 0-2.09.5-2.09 1.582 0 1.038 1.258 1.409 2.034 1.719 1.225.494 2.936 1.058 3.995 1.824 1.056.762 1.483 1.867 1.483 3.169 0 .77-.186 1.541-.55 2.204" mask="url(#b)" transform="translate(12.727 19.342)"/><path d="m25.455 34.079h2.727v-14.737h-2.727zm14.379 0-.905-3.067h-5.14l-.908 3.067h-2.881l4.93-14.737h2.842l4.955 14.737zm-3.484-11.5-1.857 6.007h3.733zm16.235 11.5-6.23-10.376v10.376h-2.719v-14.737h3.06l6.045 10.374v-10.374h2.714v14.737zm13.615 0-.907-3.067h-5.137l-.906 3.067h-2.886l4.929-14.737h2.844l4.953 14.738h-2.89zm-3.483-11.5-1.856 6.007h3.734zm22.577 11.5-.904-3.069h-5.14l-.907 3.069h-2.888l4.93-14.737h2.85l4.947 14.737zm-3.484-11.505-1.857 6.014h3.733zm8.19 11.505h2.727v-14.737h-2.727zm13.147 0-2.934-5.637h-1.99v5.637h-2.768v-14.736h3.89c1.152 0 2.377-.042 3.478.378 1.81.667 2.782 2.21 2.782 4.158 0 1.87-.87 3.293-2.542 4.086l3.3 6.114zm-1.464-12.043c-.61-.297-1.47-.272-2.139-.272h-1.32v4.259h1.812c1.464 0 2.746-.413 2.746-2.193 0-.816-.366-1.46-1.099-1.794zm5.59 12.043v-14.737h2.831v12.317h6.26v2.42zm10.909 0h2.727v-14.737h-2.727zm14.408 0-6.236-10.371v10.371h-2.718v-14.737h3.055l6.048 10.373v-10.373h2.716v14.737zm4.683 0v-14.737h8.872v2.421h-6.162v3.465h5.606v2.419h-5.606v4.012h6.381v2.42zm20.352-1.447c-.955 1.764-2.815 2.368-4.675 2.368-2.452 0-4.725-1.051-5.447-3.672-.172-.574-.192-1.153-.231-1.749h2.706c.043.407.105.79.252 1.175.473 1.214 1.546 1.724 2.762 1.724.93 0 2.336-.402 2.336-1.595 0-.26-.085-.427-.187-.662-.312-.642-1.444-1.092-2.045-1.341-1.233-.537-2.807-1.114-3.86-1.945-.994-.788-1.49-1.895-1.49-3.176 0-2.904 2.438-4.417 4.997-4.417 1.843 0 3.782.807 4.592 2.642.31.681.39 1.326.435 2.068h-2.711c.025-1.408-1.092-2.219-2.372-2.219-.91 0-2.133.514-2.133 1.625 0 1.068 1.288 1.45 2.066 1.772 1.241.511 2.977 1.085 4.05 1.874 1.077.788 1.51 1.925 1.51 3.266 0 .786-.185 1.58-.556 2.262" mask="url(#c)"/></g></svg>