<svg height="56" viewBox="0 0 138 56" width="138" xmlns="http://www.w3.org/2000/svg" xmlns:xlink="http://www.w3.org/1999/xlink"><mask id="a" fill="#fff"><path d="m.541.549h17.771v23.997h-17.771z" fill="#fff" fill-rule="evenodd"/></mask><mask id="b" fill="#fff"><path d="m.706.093h8.804v24.907h-8.804z" fill="#fff" fill-rule="evenodd"/></mask><mask id="c" fill="#fff"><path d="m.28.093h8.643v24.907h-8.643z" fill="#fff" fill-rule="evenodd"/></mask><g fill="#b5c1c9" fill-rule="evenodd"><path d="m12.06 25c-7.769 0-12.06-5.03-12.06-12.465 0-7.471 4.647-12.535 12.201-12.535 3.016 0 5.534.7 7.485 1.78l-.815 5.204c-1.846-1.153-4.008-2.06-6.528-2.06-4.22 0-6.277 3.072-6.277 7.577 0 4.538 2.127 7.714 6.349 7.714 1.348 0 2.305-.245 3.3-.768v-4.295h-4.257l-.71-4.432h10.252v11.73c-2.554 1.642-5.57 2.55-8.94 2.55m20.335 0c-3.241 0-5.957-.709-8.395-1.841l.87-5.17c2.474 1.346 5.227 2.265 7.63 2.265 1.706 0 2.891-.742 2.891-2.194 0-1.381-.698-2.02-4.076-3.33-4.807-1.876-6.897-3.47-6.897-7.506 0-4.71 3.623-7.224 8.22-7.224 3.136 0 5.156.6 7.247 1.628l-.907 5.1c-2.16-1.274-4.423-1.983-6.27-1.983-1.81 0-2.681.78-2.681 1.912 0 1.24.662 1.842 3.656 3.01 5.225 1.95 7.317 3.789 7.317 7.686 0 5.312-3.832 7.647-8.605 7.647m24.999 0c-3.24 0-5.955-.708-8.394-1.84l.87-5.172c2.474 1.348 5.226 2.267 7.629 2.267 1.708 0 2.893-.742 2.893-2.195 0-1.38-.698-2.02-4.076-3.329-4.809-1.877-6.9-3.47-6.9-7.507.001-4.71 3.626-7.224 8.224-7.224 3.135 0 5.155.6 7.246 1.628l-.907 5.1c-2.159-1.275-4.422-1.983-6.27-1.983-1.811 0-2.682.78-2.682 1.912 0 1.238.662 1.842 3.658 3.01 5.225 1.949 7.315 3.789 7.315 7.684 0 5.314-3.831 7.649-8.606 7.649m25.721-1v-9.809h-8.23v9.809h-5.885v-24h5.885v8.975h8.23v-8.975h5.885v24z" transform="translate(0 16)"/><path d="m8.184 5.037h-1.552v7.059h1.442c2.74 0 4.253-1.148 4.253-3.618 0-2.294-1.407-3.441-4.143-3.441m.106 11.545h-1.586v7.964h-6.163v-23.997h8.002c6.054 0 9.769 2.61 9.769 7.826 0 5.426-4.001 8.207-10.022 8.207" mask="url(#a)" transform="translate(119 16)"/><path d="m8.006 1.568c.425-.51.906-.857 1.216-.99.11-.049.215-.076.288-.084v-.4c-.065.004-.19.026-.268.042-2.703.62-8.536 3.201-8.536 12.41 0 9.21 5.833 11.79 8.536 12.41.079.018.203.039.268.044v-.402c-.073-.007-.178-.035-.288-.083-.31-.134-.791-.48-1.216-.99-1.702-2.043-2.19-5.877-2.141-10.978.046-5.101.44-8.938 2.14-10.979" mask="url(#b)" transform="translate(92 16)"/><path d="m1.757 1.568c-.417-.51-.891-.857-1.195-.99-.109-.05-.21-.077-.282-.085v-.4c.063.004.185.027.263.042 2.654.62 8.38 3.201 8.38 12.41 0 9.21-5.726 11.79-8.38 12.41-.078.018-.2.039-.263.044v-.402c.072-.007.173-.035.282-.083.304-.134.778-.48 1.195-.99 1.67-2.043 2.149-5.877 2.102-10.978-.046-5.101-.432-8.938-2.102-10.979" mask="url(#c)" transform="translate(108 16)"/></g></svg>