<svg height="42" viewBox="0 0 108 42" width="108" xmlns="http://www.w3.org/2000/svg" xmlns:xlink="http://www.w3.org/1999/xlink"><mask id="a" fill="#fff"><path d="m0 34h108v-34h-108z" fill="#fff" fill-rule="evenodd"/></mask><g fill="#b5c1c9" fill-rule="evenodd" transform="translate(0 1)"><path d="m40.012 30.3h-1.658v-3.42h1.552c1.474 0 2.534.1 2.578 1.626.04 1.512-1.059 1.794-2.472 1.794zm-1.68-9.182h1.322c1.42 0 2.106.366 2.106 1.408 0 1.14-.938 1.4-2.126 1.4h-1.304v-2.808zm5.199 3.93c.964-.471 1.839-1.411 1.839-2.892 0-.747-.212-1.49-.593-2.067-1.247-1.845-3.818-1.845-5.282-1.845h-4.869v14.926h4.547c1.506 0 3.379.003 4.694-.692.942-.5 1.647-1.246 1.98-2.114l.002-.003c.22-.573.319-1.099.319-1.655 0-1.729-.946-3.032-2.637-3.658zm14.325-5.975v8.645c.002.79.003 1.68-.422 2.321-.57.833-1.8.9-2.187.9-.644 0-1.722-.128-2.246-.971-.392-.614-.39-1.547-.386-2.296v-8.599h-3.974v8.861c0 .895.047 1.845.4 2.724.843 2.125 3.096 3.342 6.184 3.342 3.207 0 5.493-1.272 6.275-3.492l.001-.004c.29-.795.331-1.61.331-2.374v-9.057zm17.04 6.648c-.935-.617-2.274-1.093-3.454-1.51l-1.174-.42c-.894-.317-1.633-.626-1.633-1.208 0-.767.845-1.212 1.797-1.254.776-.032 1.35.205 1.725.558.29.276.452.68.452 1.33h3.62c-.051-.908-.156-1.542-.494-2.21-.989-2.037-3.354-2.763-5.239-2.763-2.75 0-5.714 1.445-5.714 4.625 0 1.378.605 2.542 1.742 3.36.973.693 2.31 1.197 3.492 1.644l.807.31c.51.194 1.498.58 1.802 1.034.11.165.15.31.15.444 0 .91-1.317 1.217-2.017 1.235-.864.018-2.133-.255-2.657-1.388-.084-.182-.214-.552-.214-.83h-3.582c.034.474.078 1.034.233 1.526.735 2.41 2.988 3.796 6.176 3.796 1.755 0 4.1-.427 5.312-2.469l.002-.002c.42-.7.644-1.51.644-2.357 0-1.505-.599-2.665-1.776-3.45m8.557 1.38 1.454-4.42 1.471 4.42zm3.341-8.858h-3.777l-5.52 14.927h3.95l.974-3.006h4.988l.975 3.006h3.952zm16.598 0v9.17l-5.554-9.17h-3.853v14.927h3.783v-9.394l5.748 9.394h3.66v-14.927z"/><path d="m13.191 33.171h1.649v-14.927h-1.649zm6.609-13.49v5.651h2.036c1.247 0 2.64-.188 3.286-1.434.229-.422.33-.91.33-1.395 0-2.576-2.075-2.822-4.074-2.822h-1.577zm6.235 13.49-3.7-6.38h-2.535v6.38h-1.664v-14.927h3.161c1.08 0 2.37.021 3.366.4 1.663.615 2.516 2.085 2.516 3.838 0 2.07-1.183 3.397-3.015 4.032l3.866 6.657h-1.996zm-22.567-5.409 2.304-7.455 2.323 7.455zm3.067-9.518h-1.509l-5.026 14.926h1.702l1.329-3.949h5.5l1.308 3.949h1.703zm100.618-12.601c-.08-.08-.45.21-.687.424-12.72 11.393-24.366 1.623-33.049-.267-3.793-.826-8.153-.85-12.629.613-3.037.992-6.084-.022-7.355-.61-3.289-1.52-5.28-3.91-8.594-5.193-3.146-1.222-6.025-.385-8.4.548-1.177.462-4.074-.763-5.229-.082-.348.206-1.697 1.118-1.292 1.473.08.068.504-.003.733-.02 1.288-.088 3.543.3 4.694.75 4.308 1.689 5.926 6.042 7.05 8.815.003.008-6.53-6.596-16.97-3.716-5.42 1.498-12.717 5.582-19.265 2.095-.22-.117-.964-.65-1.179-.61-.163.032.289.655.533.888 1.86 1.778 7.052 4.613 16.451 1.08 9.234-3.469 18.67-2.714 22.427 4.043 0 0 .245-10.01-6.329-13.127 1.135-.762 2.791-.93 4.1-.775.56.067 2.32.299 4.174 1.444 2.595 1.606 5.182 4.073 8.343 5.086.311.101.893.238 1.299.294-5.606 3.762-7.738 9.07-7.393 8.587 2.724-3.828 7.673-8.082 14.71-9.191.59-.07 1.102-.137 1.51-.188 4.326-.387 8.423.654 16.682 3.413 16.338 5.451 22.598-1.433 25.165-4.639.457-.57.58-1.057.5-1.136" mask="url(#a)"/></g></svg>