<svg height="56" viewBox="0 0 167 56" width="167" xmlns="http://www.w3.org/2000/svg" xmlns:xlink="http://www.w3.org/1999/xlink"><mask id="a" fill="#fff"><path d="m0 .778h43.222v25.801h-43.222z" fill="#fff" fill-rule="evenodd"/></mask><mask id="b" fill="#fff"><path d="m.033.657h9.443v15.54h-9.443z" fill="#fff" fill-rule="evenodd"/></mask><g fill="#b5c1c9" fill-rule="evenodd" transform="translate(0 15)"><path d="m38.93 8.496c0 .317-.203.59-.488.725-.125.056-.262.09-.417.09h-3.724v10.105c0 .45-.405.814-.903.814h-2.386v-10.92h-4.376v10.105c0 .45-.407.814-.904.814h-1.107c-1.172 0-1.16-.122-1.79-.982l-5.129-7.93v8.098c0 .45-.405.814-.908.814h-2.24v-5.66h-5.818v4.846c0 .45-.41.814-.907.814h-2.39v-11.994c0-.194.078-.375.203-.51.167-.19.42-.308.705-.308h2.389v5.26h5.819v-4.442c0-.17.053-.324.148-.45.164-.223.44-.368.756-.368h1.362c.708 0 .908.069 1.285.633l5.382 8.493v-8.308c0-.132.036-.255.092-.363.152-.269.455-.455.81-.455h14.535v1.08zm-17.36-7.718c-11.932 0-21.57 5.721-21.57 12.896 0 7.088 9.638 12.905 21.57 12.905s21.652-5.817 21.652-12.905c0-7.175-9.72-12.896-21.652-12.896z" mask="url(#a)"/><path d="m74.448 19.447v-.014c.009-1.178.461-2.015 1.377-2.548.731-.425 1.99-.75 3.756-.961v5.725c-.537.241-1.204.364-1.995.364-1.067 0-1.853-.218-2.372-.64-.505-.425-.763-1.052-.766-1.906zm7.105-9.198c-.977-.849-2.41-1.235-4.307-1.249l-.005.267v-.267c-1.862 0-3.579.34-5.142 1.02l-.247.104.868 2.024.26-.11c1.219-.526 2.43-.785 3.64-.785 1.006-.003 1.749.195 2.239.572.481.368.719.92.722 1.68v.7c-2.665.247-4.66.704-5.991 1.377-1.714.872-2.593 2.216-2.59 3.974.003 1.46.53 2.607 1.61 3.347 1.072.74 2.641 1.082 4.744 1.097 2.27 0 4.1-.328 5.49-.992l.156-.076v-8.911c-.012-1.65-.47-2.926-1.447-3.772zm15.995-.883c-1.106-.912-2.81-1.366-5.094-1.366-2.52 0-4.612.334-6.282 1.011l-.172.069v13.92h3.856v-12.355c.737-.255 1.557-.38 2.45-.38.97 0 1.68.197 2.14.585.461.386.7.956.7 1.739v10.411h3.854v-10.458c.01-1.332-.485-2.403-1.452-3.176m7.903 10.081v-.006c.006-1.186.458-2.023 1.38-2.556.73-.425 1.98-.75 3.75-.961v5.725c-.54.241-1.206.366-1.994.366-1.063 0-1.852-.22-2.365-.642-.507-.42-.765-1.043-.77-1.894v-.032zm7.1-9.198c-.973-.848-2.41-1.235-4.306-1.249l-.003.267v-.267c-1.863 0-3.576.34-5.138 1.023l-.246.103.872 2.022.252-.11c1.223-.526 2.431-.785 3.634-.785 1.012 0 1.754.195 2.237.572.478.368.722.923.728 1.68l-.003.003c0 .003 0 .012.003.022v.672c-2.664.25-4.657.707-5.99 1.38-1.71.867-2.594 2.216-2.591 3.977.009 1.456.533 2.604 1.614 3.344 1.072.74 2.643 1.082 4.744 1.097 2.263 0 4.092-.328 5.483-.992l.159-.075v-8.915c-.011-1.65-.472-2.923-1.449-3.77zm17.086 5.721c0-1.87.247-3.3.733-4.224.492-.922 1.153-1.358 2.134-1.375.976.017 1.637.453 2.123 1.375.486.924.737 2.354.737 4.224 0 1.83-.254 3.224-.737 4.123-.483.897-1.147 1.325-2.125 1.338-.985-.012-1.642-.438-2.132-1.335-.486-.902-.733-2.296-.733-4.126zm9.363.044c0-2.388-.536-4.298-1.595-5.719-1.145-1.527-2.793-2.295-4.903-2.295v.288-.288c-2.1 0-3.742.762-4.897 2.295-1.072 1.42-1.605 3.33-1.605 5.719 0 2.372.533 4.273 1.599 5.69 1.158 1.534 2.794 2.296 4.885 2.296h.018c2.09.003 3.738-.759 4.9-2.292 1.019-1.363 1.551-3.167 1.592-5.406h.006zm14.997-7.014h-3.636v12.105c-.56.294-1.295.447-2.212.447h-.02c-.842 0-1.47-.2-1.871-.588l-.194.193.194-.193c-.408-.385-.617-.958-.62-1.752v-10.212h-3.638v10.005c.009 1.64.495 2.918 1.518 3.76 1.018.836 2.52 1.22 4.506 1.235 2.346 0 4.287-.37 5.823-1.112l.153-.077z"/><path d="m9.19 1.03c-1.138-.267-2.21-.374-3.183-.374-3.521.004-5.81 1.355-5.837 1.374l-.138.08v14.088h3.638v-12.621c.401-.168 1.193-.399 2.28-.394.721 0 1.576.1 2.535.38l.263.076.728-2.546-.286-.064z" mask="url(#b)" transform="translate(158 7)"/><path d="m68 4h-3.74v7.542c0 .035-.035.085-.107.085h-7.3c-.075 0-.107-.05-.107-.085v-7.542h-3.746v19h3.746v-8.89c0-.036.032-.077.107-.08h7.3c.072.003.108.044.108.085v8.885h3.739zm60 .003-15-.003v2.405l5.639.001v16.594h3.728v-16.594h5.633z"/></g></svg>