<svg xmlns="http://www.w3.org/2000/svg" width="50" height="37" viewBox="0 0 50 37">
  <path fill="#B5C1C9" fill-rule="evenodd" d="M17.3287234,6.16631429 L17.3287234,14.2291429 C18.8914894,12.9045429 21.656383,12.0556571 26.0787234,12.2723714 C27.7329787,12.3696286 29.3755319,12.617 30.9840426,13.0123714 L30.9840426,15.6171714 C29.5351064,14.8496857 27.9382979,14.3866571 26.2968085,14.2598 C22.937234,14.0293429 20.906383,15.6478286 20.906383,18.5 C20.906383,21.3521714 22.937234,23.0013143 26.2968085,22.7391429 C27.9340426,22.5922 29.5255319,22.1312857 30.9840426,21.3838857 L30.9840426,23.9886857 C29.3755319,24.3861714 27.7340426,24.6346 26.0787234,24.7286857 C21.656383,24.9443429 18.9053191,24.0965143 17.3287234,22.7708571 L17.3287234,37 L26.562766,37 C30.0148936,37 32.812766,34.2387429 32.812766,30.8326286 L32.812766,0 L23.5787234,0 C20.1265957,0 17.3287234,2.76125714 17.3287234,6.16631429 L17.3287234,6.16631429 Z M0,6.16631429 L0,21.3838857 C1.66595745,22.2444 3.5106383,22.7190571 5.39042553,22.7708571 C6.26702128,22.8712857 7.14255319,22.5869143 7.78617021,21.9928 C8.43085106,21.3997429 8.77659574,20.5561429 8.73510638,19.6871714 L8.73510638,12.5345429 L14.062766,12.5345429 L14.062766,19.6871714 C14.062766,22.4621714 12.312766,24.7286857 6.37553191,24.7286857 C4.22659574,24.7265714 2.08617021,24.4675714 0,23.9569714 L0,37 L9.17234043,37 C12.6234043,37 15.4223404,34.2387429 15.4223404,30.8326286 L15.4223404,0 L6.25,0 C2.79893617,0 0,2.76125714 0,6.16631429 L0,6.16631429 Z M42.5297872,15.8856857 C42.5819149,15.1266571 42.0308511,14.4564286 41.2659574,14.3528286 L37.6553191,14.3528286 L37.6553191,17.3286857 L40.9223404,17.3286857 C41.0361702,17.3456 41.1521277,17.3456 41.2659574,17.3286857 C41.9978723,17.2346 42.5404255,16.6140571 42.5297872,15.8856857 L42.5297872,15.8856857 Z M40.843617,0 C37.3914894,0 34.593617,2.76125714 34.593617,6.16631429 L34.593617,12.5652 L43.4212766,12.5652 C43.6297872,12.5408857 43.8393617,12.5408857 44.0468085,12.5652 C46.0308511,12.6571714 47.5159574,13.6752 47.5159574,15.4321714 C47.4744681,16.9734857 46.2180851,18.2135143 44.6553191,18.2536857 C46.6882979,18.3921714 48.2351064,19.5021714 48.2351064,21.2443429 C48.2351064,22.9865143 46.5159574,24.3269714 44.25,24.3269714 L34.5617021,24.3269714 L34.5617021,37 L43.75,37 C47.2021277,37 50,34.2387429 50,30.8326286 L50,0 L40.843617,0 Z M37.6553191,22.4621714 L41.7031915,22.4621714 C42.4489362,22.3205143 42.9829787,21.6703714 42.9691489,20.9208571 C42.9425532,20.1850857 42.4265957,19.5571429 41.7031915,19.3795429 C41.5574468,19.3615714 41.4117021,19.3615714 41.2659574,19.3795429 L37.6553191,19.3795429 L37.6553191,22.4621714 Z"/>
</svg>
