<svg xmlns="http://www.w3.org/2000/svg" xmlns:xlink="http://www.w3.org/1999/xlink" width="106" height="34" viewBox="0 0 106 34">
  <defs>
    <polygon id="logo-wechat-a" points="0 .025 36.819 .025 36.819 33.054 0 33.054"/>
    <polygon id="logo-wechat-c" points="0 33.054 106 33.054 106 0 0 0"/>
  </defs>
  <g fill="none" fill-rule="evenodd">
    <mask id="logo-wechat-b" fill="#fff">
      <use xlink:href="#logo-wechat-a"/>
    </mask>
    <path fill="#B5C1C9" d="M13.3905827,20.9175274 C13.2243315,21.002881 13.0375048,21.0522522 12.8383326,21.0522522 C12.3782614,21.0522522 11.9778595,20.7949363 11.7675765,20.4137739 L11.6873315,20.2346988 L8.33597197,12.7574738 C8.29975885,12.6758858 8.27712565,12.5838378 8.27712565,12.4943003 C8.27712565,12.1495387 8.55201614,11.870466 8.89069111,11.870466 C9.02854787,11.870466 9.1557053,11.9169084 9.25817197,11.9943123 L13.2128092,14.857423 C13.5021026,15.0494686 13.8469503,15.1624365 14.2185463,15.1624365 C14.4399401,15.1624365 14.6510461,15.1201782 14.8477492,15.0473766 L33.4468895,6.63084377 C30.1128135,2.63596134 24.6224108,0.0251458352 18.4089803,0.0251458352 C8.24173556,0.0251458352 -4.11512718e-05,7.0086589 -4.11512718e-05,15.6235133 C-4.11512718e-05,20.3233996 2.47973448,24.5538411 6.36071092,27.4131862 C6.67222605,27.6395406 6.87592485,28.0106613 6.87592485,28.429898 C6.87592485,28.5683884 6.84670744,28.6951636 6.81131735,28.8273779 C6.50103676,30.0026633 6.00516394,31.8854629 5.98211922,31.9737453 C5.94343703,32.1214405 5.88294466,32.2754117 5.88294466,32.4298012 C5.88294466,32.7745628 6.15742364,33.0536355 6.49692163,33.0536355 C6.62984024,33.0536355 6.73889111,33.0034275 6.85082257,32.9377387 L10.8811781,30.5716872 C11.184463,30.3938672 11.5054429,30.2838281 11.8589323,30.2838281 C12.0469937,30.2838281 12.2288823,30.313116 12.4000716,30.3662528 C14.2802732,30.9160303 16.3086194,31.2214623 18.4089803,31.2214623 C28.5758135,31.2214623 36.8188247,24.2379492 36.8188247,15.6235133 C36.8188247,13.013953 36.0579377,10.5566902 34.7213444,8.39523624 L13.5247358,20.8388683 L13.3905827,20.9175274 Z" mask="url(#logo-wechat-b)"/>
    <path fill="#A2AEB5" stroke="#A2AEB5" stroke-width=".3" d="M52.5881901 26.548968L52.4047342 27.2265393C52.2509958 27.7920745 52.1154842 28.2908823 51.9981992 28.7843354 51.8488194 28.0573364 51.6419857 27.243839 51.4565487 26.5267255L50.2246604 21.6976398 50.2028675 21.6119651 49.3953447 21.6119651 48.0172464 26.5584416C47.7703933 27.3950053 47.5520689 28.1500134 47.3983305 28.8111088 47.2802531 28.2888228 47.1384017 27.7059879 46.9894181 27.0943202L45.6533204 21.6976398 45.6307352 21.6119651 44.6987952 21.6119651 46.9375115 30.424923 46.9593043 30.5110096 47.7537515 30.5110096 49.1936621 25.4619706C49.4448739 24.6011049 49.633877 23.9247693 49.7709736 23.3336965 49.8934096 23.9577211 50.0637898 24.6435303 50.2769631 25.4557921L51.5215309 30.4253349 51.5429275 30.5110096 52.3496579 30.5110096 54.872077 21.7602482 54.9156627 21.6119651 53.9789679 21.6119651 52.5881901 26.548968zM55.837842 26.6613443C56.058841 25.4040397 56.8737992 24.9539418 57.5707369 24.9539418 58.013892 24.9539418 58.3691104 25.0891275 58.6286782 25.3563731 59.0112805 25.749818 59.0980602 26.3206452 59.113102 26.6613443L55.837842 26.6613443zM57.6424748 24.1545492C56.0117871 24.1545492 54.9156627 25.4778839 54.9156627 27.4474528 54.9156627 29.2794918 56.0499702 30.5110096 57.7377396 30.5110096 58.7983808 30.5110096 59.400825 30.2351683 59.6110248 30.1171739L59.7402302 30.0441112 59.3580137 29.3736529 59.2677628 29.4158495C58.9696262 29.5557237 58.5631113 29.6991143 57.8094775 29.6991143 56.5733484 29.6991143 55.8405418 28.8754977 55.7904024 27.4372943L59.9697144 27.4372943 59.9974839 27.3126578C60.0240964 27.1868492 60.0240964 27.0950324 60.0240964 26.9289807 60.0240964 26.7031503 59.9928557 25.9135255 59.5901977 25.2286109 59.1724979 24.5155652 58.5168288 24.1545492 57.6424748 24.1545492L57.6424748 24.1545492zM67.1954316 29.3356942L67.1946523 29.3356942C66.7395719 29.551242 66.1009787 29.6800108 65.4861526 29.6800108 63.4406283 29.6800108 62.2191582 28.3527323 62.2191582 26.1292709 62.2191582 23.82103 63.4764737 22.4425639 65.5823896 22.4425639 66.164877 22.4425639 66.7185322 22.5553366 67.1424427 22.760087L67.2336147 22.8040763 67.6446676 22.0710539 67.5219362 22.0018707C67.3590735 21.9102928 66.7387926 21.6119651 65.5703113 21.6119651 63.0167178 21.6119651 61.3012048 23.4219267 61.3012048 26.1168739 61.3012048 29.3600883 63.452317 30.5110096 65.2940681 30.5110096 66.3316359 30.5110096 67.1404946 30.2854642 67.5523268 30.0747152L67.686747 30.0051321 67.2858242 29.2929046 67.1954316 29.3356942zM71.8017834 24.0390878C71.3295443 24.0390878 70.8765053 24.1680477 70.4965898 24.4109628 70.2776277 24.5354618 70.0741891 24.7074083 69.9005718 24.9130142L69.9005718 21.6119651 68.9638554 21.6119651 68.9638554 30.5110096 69.9005718 30.5110096 69.9005718 26.6815493C69.9005718 26.4516113 69.9107846 26.3031858 69.9667506 26.1352946 70.2290149 25.4045218 70.9165394 24.8939541 71.6379704 24.8939541 72.9411214 24.8939541 73.1355728 26.0837917 73.1355728 26.7938823L73.1355728 30.5110096 74.0722892 30.5110096 74.0722892 26.7318355C74.0722892 24.1688588 72.1808819 24.0390878 71.8017834 24.0390878M82.4937007 22.8832572L81.5188791 22.8832572 81.5188791 24.2556672 80.4578313 24.2556672 80.4578313 24.9960568 81.5188791 24.9960568 81.5188791 28.5326824C81.5188791 29.2370808 81.6607485 29.7298828 81.9487351 30.0344233 82.2099618 30.3456875 82.6287741 30.5110096 83.1592979 30.5110096 83.5275639 30.5110096 83.8465579 30.4572206 84.1065103 30.3512246L84.2636711 30.287548 83.8542035 29.6278419 83.7696765 29.6448487C83.6222851 29.6741163 83.4434617 29.6891455 83.2387279 29.6891455 82.7162744 29.6891455 82.4937007 29.3762993 82.4937007 28.6426334L82.4937007 24.9960568 84.2891566 24.9960568 84.2891566 24.2556672 82.4937007 24.2556672 82.4937007 22.8832572zM89.066916 22.5215416C89.2521597 22.4908679 89.5999556 22.4487428 90.1082411 22.4487428 91.4899358 22.4487428 92.2824816 23.0961616 92.2824816 24.2257706 92.2824816 25.4429017 91.4478538 26.1410344 89.9939594 26.1410344 89.7117619 26.1410344 89.3561271 26.1312188 89.066916 26.057193L89.066916 22.5215416zM90.1334078 21.6119651C89.5058898 21.6119651 88.8750713 21.6679957 88.2586927 21.7780119L88.1204819 21.8025508 88.1204819 30.5110096 89.066916 30.5110096 89.066916 26.9205545C89.3218839 26.9675875 89.6040813 26.977812 89.9432133 26.977812 91.0781916 26.977812 92.0167869 26.6219975 92.5873703 25.9774415 93.0185053 25.5083389 93.2289157 24.9144967 93.2289157 24.1619693 93.2289157 23.4274372 92.9821992 22.811101 92.5155833 22.3779888 91.9982213 21.8769856 91.1743203 21.6119651 90.1334078 21.6119651L90.1334078 21.6119651zM104.887998 24.1545492L103.213442 28.076162C103.079243 28.3837941 102.960406 28.6906303 102.860547 28.9516997 102.754814 28.6659561 102.637785 28.3734469 102.523919 28.1111835L100.767127 24.25643 100.72149 24.1545492 99.6144578 24.1545492 102.19678 29.8395745C102.266365 29.9939875 102.26772 30.0357745 102.26772 30.0357745 102.26772 30.0763676 102.231572 30.1591457 102.198135 30.2323725 101.865122 30.928425 101.429539 31.3956437 101.124088 31.6642746 100.704772 32.0200613 100.250662 32.2031282 100.017056 32.2799368L99.8290865 32.3404285 100.610335 33.0535937C100.786556 32.9946939 101.061733 32.8164026 101.58136 32.4303701 102.47286 31.7458588 103.036317 30.7051629 103.889861 28.7722145L105.928608 24.3077683 106 24.1545492 104.887998 24.1545492zM76.7499624 27.8516622C77.1888207 27.4741511 78.0128893 27.2830556 79.1993018 27.2830556L79.3219887 27.2834456 79.3241873 28.36762C79.3241873 28.4432782 79.3140734 28.5559856 79.2657022 28.664793 79.0704586 29.1717811 78.5071546 29.7126984 77.5085101 29.7126984 76.9900592 29.7126984 76.3845403 29.4389248 76.3845403 28.6686929 76.3845403 28.3356408 76.5072272 28.0610872 76.7499624 27.8516622M80.3325061 28.8484787L80.3325061 26.5873119C80.3325061 24.9953694 79.4917274 24.1545492 77.9016356 24.1545492 77.1993744 24.1545492 76.4469831 24.3487647 75.8915943 24.672847L75.7878162 24.7282257 76.2253552 25.3997899 76.3352897 25.3346614C76.7429266 25.0885772 77.275449 24.9520805 77.833916 24.9520805L77.8572221 24.9520805C78.3053149 24.9520805 78.654027 25.0589379 78.8936841 25.269533 79.1825918 25.523417 79.3233079 25.9223776 79.3241873 26.4870843 77.7661964 26.4921542 76.6417869 26.7877672 75.9804213 27.3688535 75.5613512 27.7370049 75.3493976 28.2061638 75.3493976 28.7642407 75.3493976 29.6054509 76.0037274 30.5110096 77.4407904 30.5110096 78.4429528 30.5110096 79.0840905 30.0808497 79.4200502 29.7665171L79.4895287 30.3784127 80.4578313 30.3784127 80.4244113 30.195117C80.3434995 29.7501375 80.3325061 29.2848784 80.3325061 28.8484787M97.2024839 28.3673616C97.2024839 28.4437951 97.1923708 28.5572754 97.1444435 28.6649063 96.9492167 29.1714733 96.3855214 29.7131373 95.3878423 29.7131373 94.8689964 29.7131373 94.2635296 29.4389906 94.2635296 28.668416 94.2635296 28.3353843 94.3866456 28.0612375 94.6293599 27.8518253 95.0681805 27.4739474 95.8921781 27.2828636 97.0776091 27.2828636L97.2016045 27.2836436 97.2024839 28.3673616zM98.2107158 28.8481907L98.2107158 26.5875527C98.2107158 24.9957078 97.370889 24.1545492 95.780934 24.1545492 95.1183062 24.1545492 94.396319 24.3327641 93.8493323 24.6310888L93.7477616 24.687244 94.180866 25.3521376 94.2890322 25.2920827C94.6860812 25.0733112 95.1921758 24.9520315 95.7132202 24.9520315L95.736964 24.9520315C96.1841389 24.9520315 96.5328209 25.0592724 96.7724574 25.2698545 97.0613402 25.523723 97.2016045 25.9222691 97.2024839 26.4873312 95.6459462 26.4920108 94.5216334 26.7883856 93.8598851 27.3686563 93.440851 27.7371751 93.2289157 28.2063052 93.2289157 28.7643479 93.2289157 29.6051165 93.8831892 30.5110096 95.3192491 30.5110096 96.3217649 30.5110096 96.9637268 30.081656 97.2992179 29.7661728L97.3678111 30.3784208 98.3373494 30.3784208 98.3039322 30.1951364C98.222148 29.7482343 98.2107158 29.2841737 98.2107158 28.8481907L98.2107158 28.8481907z"/>
    <polygon fill="#A2AEB5" stroke="#A2AEB5" stroke-width=".3" points="52.361 3.8 51.617 3.8 51.617 6.78 50.209 6.78 50.209 2.543 49.464 2.543 49.464 6.78 47.998 6.78 47.998 3.8 47.253 3.8 47.253 7.628 52.361 7.628"/>
    <mask id="logo-wechat-d" fill="#fff">
      <use xlink:href="#logo-wechat-c"/>
    </mask>
    <polygon fill="#A2AEB5" stroke="#A2AEB5" stroke-width=".3" points="47.253 10.17 52.361 10.17 52.361 8.899 47.253 8.899" mask="url(#logo-wechat-d)"/>
    <polygon fill="#A2AEB5" stroke="#A2AEB5" stroke-width=".3" points="65.133 7.628 74.072 7.628 74.072 6.356 65.133 6.356" mask="url(#logo-wechat-d)"/>
    <polygon fill="#A2AEB5" stroke="#A2AEB5" stroke-width=".3" points="65.133 10.17 74.072 10.17 74.072 8.899 65.133 8.899" mask="url(#logo-wechat-d)"/>
    <path fill="#A2AEB5" stroke="#A2AEB5" stroke-width=".3" d="M67.1901009 15.6837331L73.2922168 15.6837331 73.2922168 12.2837844 67.1901009 12.2837844 67.1901009 15.6837331zM66.4096386 16.5267968L74.0722892 16.5267968 74.0722892 11.4416286 66.4096386 11.4416286 66.4096386 16.5267968zM60.0240964 9.43799584L60.4590889 10.1991151C60.9185324 9.50820979 61.4036101 8.69533279 61.8595043 7.84393842L61.8595043 16.5267968 62.648643 16.5267968 62.648643 6.18729028C63.1112415 5.17299954 63.5205997 4.07966793 63.8554217 2.97229354L63.1254389 2.54258413C62.4053153 5.12605649 61.3487924 7.47360996 60.0240964 9.43799584M91.9518072 9.43799584L92.3871941 10.1991151C92.8462432 9.50820979 93.331321 8.69533279 93.7876095 7.84393842L93.7876095 16.5267968 94.5763538 16.5267968 94.5763538 6.18729028C95.0393467 5.17299954 95.448705 4.07966793 95.7831325 2.97229354L95.0531497 2.54258413C94.3330262 5.12605649 93.277292 7.47360996 91.9518072 9.43799584M70.8889048 4.08138181L70.9077809 4.0715013 70.8991635 4.05393595C70.8384319 3.92768501 70.6796269 3.63053787 70.5109734 3.31582539 70.3542202 3.02270364 70.1925427 2.71970139 70.1149867 2.56417487L70.104728 2.54258413 69.3480446 2.93194934 69.3587137 2.95024658C69.6299543 3.40511591 69.8622118 3.82119509 70.0710794 4.22446621 70.1002142 4.27899197 70.1190902 4.32217345 70.1252455 4.35254687L65.1325301 4.35254687 65.1325301 5.08516826 75.3493976 5.08516826 75.3493976 4.35254687 70.3603754 4.35254687 70.8889048 4.08138181zM53.6385542 13.8732804L53.2728386 13.2408121 53.2303584 13.1691683 52.166037 14.0797378 52.166037 11.4416286 48.3887774 11.4416286 48.3891635 12.5767589C48.4922745 14.0450714 48.126945 15.0935359 47.3032159 15.6928786L47.253012 15.7294708 47.714115 16.5267968 47.7774491 16.4747973C48.8332744 15.6081386 49.3306786 14.3882683 49.2557591 12.8494675L49.2557591 12.2505101 51.3550519 12.2505101 51.3550519 13.7962441C51.3280191 14.3501353 51.3029171 14.5057487 51.1175491 14.76305L51.0905163 14.7996423 51.5736317 15.6343309 51.6369658 15.5831018C52.0185149 15.2784231 52.6773438 14.7152875 53.5945293 13.9102578L53.6385542 13.8732804zM44.0277822 7.57805441C45.3108327 6.2992189 46.4187395 4.74615704 47.2307291 3.08659951L47.253012 3.04133885 46.3875434 2.54258413 46.3621409 2.5949445C45.5706516 4.20258539 44.5648006 5.6007848 43.4528828 6.63956131L43.4216867 6.66929136 43.9778684 7.62775239 44.0277822 7.57805441zM47.253012 6.81811411L46.3882629 6.35646032 46.3555496 6.43380129C45.6195013 8.13849177 44.64456 9.63986323 43.4569826 10.8968532L43.4216867 10.9359223 43.882255 11.6750468 43.9369206 11.765145 44.0083732 11.6866081C44.44785 11.2117984 44.8782877 10.7130687 45.2893556 10.2023792L45.2893556 16.5267968 46.1932746 16.5267968 46.1932746 8.84771637C46.5535509 8.25211123 46.9022054 7.58873308 47.2280467 6.8759205L47.253012 6.81811411z" mask="url(#logo-wechat-d)"/>
    <path fill="#A2AEB5" stroke="#A2AEB5" stroke-width=".3" d="M56.9236172 6.11080653C56.7570953 8.44024076 56.3363852 10.3232468 55.6733813 11.7105774 55.1614807 10.4657835 54.7786565 8.79538139 54.5354817 6.74221213 54.6130157 6.53201052 54.7099332 6.31980699 54.8231505 6.11080653L56.9236172 6.11080653zM55.9147941 2.59863789L55.9227237 2.5433849 54.9645619 2.54258413 54.9557513 2.58142138C54.4231455 4.85079801 53.6231355 6.78705514 52.5781886 8.33774245L52.5614483 8.36216588 53.1438344 9.2786449 53.5658661 8.51150912C53.6667484 8.35135551 53.7552958 8.20601611 53.8310676 8.07829361 54.0887801 10.0013381 54.5257899 11.5584315 55.1310838 12.7075337 54.533279 13.6396277 53.6178491 14.6081566 52.4107856 15.5862948L52.3614458 15.625132 52.8552845 16.4026778 52.906827 16.4803523 52.977753 16.4182928C54.2345969 15.3480663 55.1183083 14.4055623 55.6055391 13.6144035 56.1526825 14.477231 57.04961 15.5086203 58.0800193 16.4591319L58.1531479 16.5267968 58.6729782 15.7096131 58.7033751 15.6603658 58.6584406 15.6211282C57.5359596 14.6465935 56.6425564 13.6352234 56.1407881 12.7699936 57.0584206 11.2329193 57.6328771 8.99277071 57.8487389 6.11080653L58.746988 6.11080653 58.746988 5.27000008 55.139454 5.27000008C55.4213958 4.49605777 55.7932066 3.46106507 55.9147941 2.59863789L55.9147941 2.59863789zM103.723565 6.03100867L103.723565 2.54258413 102.77117 2.54258413 102.77117 6.03100867 95.7831325 6.03100867 95.7831325 6.94197001 102.77117 6.94197001 102.77117 14.4579097C102.77117 15.2370481 102.287777 15.6158355 101.293477 15.6158355 101.120776 15.6158355 100.95908 15.6150218 100.803734 15.6138012L100.75167 15.6133943 100.75167 16.5267968 100.803311 16.5267968C101.002256 16.5267968 101.168607 16.5255763 101.304906 16.5247625 101.398875 16.5243557 101.47803 16.5239488 101.543216 16.5239488 102.344497 16.5239488 102.830007 16.371376 103.219431 15.9974709 103.574568 15.655301 103.744306 15.1361466 103.723565 14.4562822L103.723565 6.94197001 106 6.94197001 106 6.03100867 103.723565 6.03100867z" mask="url(#logo-wechat-d)"/>
    <path fill="#A2AEB5" stroke="#A2AEB5" stroke-width=".3" d="M99.1704811 8.94333903L99.1472718 8.89904445 98.3373494 9.3465332 98.3585578 9.38552757C98.8423504 10.2797479 99.3905687 11.3833263 99.9876064 12.6655974L100.010015 12.7129206 100.891566 12.2260589 100.871558 12.1874432C100.456993 11.3882479 99.9007718 10.3270712 99.1704811 8.94333903M87.2122773 8.74637546C87.0191807 9.2207527 86.5738933 10.1048554 85.6491937 11.1103289 85.17644 11.6247665 84.5076766 12.3002384 83.5155596 12.9808666 81.2354385 11.3264958 80.22834 9.51624689 79.8775201 8.74637546L87.2122773 8.74637546zM84.123148 2.54258413L83.1780568 2.54258413 83.1780568 4.53330267 76.626506 4.53330267 76.626506 5.41462895 83.1780568 5.41462895 83.1780568 7.93247739 78.9186957 7.93247739 78.9191118 8.60358633 78.9224411 8.62024506C78.9324288 8.64602643 78.9453297 8.67815399 78.9611436 8.71583445 79.2187445 9.33220756 80.2499801 11.4855471 82.7485833 13.4691261 81.2038107 14.3722674 79.3061373 15.0723308 76.9515242 15.60898L76.8853553 15.6236556 77.4246941 16.5141045 77.461732 16.5057751C79.7447662 15.9774553 81.7718642 15.1413456 83.4885095 14.0188643 85.0686555 15.1159608 87.2076995 16.00284 89.5169516 16.5184675L89.5548218 16.5267968 90.0134262 15.7172618 89.9497543 15.7025862C87.7324728 15.1901319 85.7132818 14.4032051 84.2542373 13.4841983 86.8156802 11.5728071 87.8602328 9.51545362 88.1919095 8.71583445 88.2688984 8.5294153 88.3105141 8.4032849 88.3184211 8.36758762L88.3259119 8.33308024 87.5980543 7.93247739 84.123148 7.93247739 84.123148 5.41462895 90.6746988 5.41462895 90.6746988 4.53330267 84.123148 4.53330267 84.123148 2.54258413z" mask="url(#logo-wechat-d)"/>
  </g>
</svg>
