<svg xmlns="http://www.w3.org/2000/svg" xmlns:xlink="http://www.w3.org/1999/xlink" width="90" height="31" viewBox="0 0 90 31">
  <defs>
    <polygon id="logo-ae-a" points="0 .17 89.816 .17 89.816 30.861 0 30.861"/>
  </defs>
  <g fill="none" fill-rule="evenodd">
    <polyline fill="#B5C1C9" points="64.53 3.737 62.763 7.289 66.316 7.289 64.53 3.737"/>
    <polyline fill="#B5C1C9" points="7.69 3.737 5.921 7.289 9.474 7.289 7.69 3.737"/>
    <path fill="#B5C1C9" d="M45.6656063 3.92973618C45.372566 3.75871669 44.9214382 3.73684211 44.4934452 3.73684211L41.4473684 3.73684211 41.4473684 6.10526316 44.4529593 6.10526316C44.9291498 6.10526316 45.3301523 6.09730876 45.6752458 5.8865173 45.9933488 5.71350921 46.1842105 5.33766406 46.1842105 4.87233196 46.1842105 4.41495426 45.9856372 4.08484688 45.6656063 3.92973618M56.3260591 21.690653C56.0256739 21.507862 55.5827985 21.5 55.1476252 21.5L52.1052632 21.5 52.1052632 23.8684211 55.1071887 23.8684211C55.5885751 23.8684211 55.9987163 23.8526971 56.3318357 23.6541821 56.6514763 23.4537017 56.8421053 23.0940162 56.8421053 22.6399869 56.8363286 22.1859576 56.6456996 21.8596855 56.3260591 21.690653"/>
    <mask id="logo-ae-b" fill="#fff">
      <use xlink:href="#logo-ae-a"/>
    </mask>
    <path fill="#B5C1C9" d="M44.195625,21.2950619 L41.060625,21.2950619 L41.060625,23.8661223 L44.165625,23.8661223 C45.09,23.8661223 45.665625,23.4072059 45.665625,22.5363932 C45.66375,21.6486533 45.065625,21.2950619 44.195625,21.2950619" mask="url(#logo-ae-b)"/>
    <path fill="#B5C1C9" d="M84.3825 29.2942185L79.69875 29.2942185 79.69875 27.1255573 84.36375 27.1255573C84.8175 27.1255573 85.141875 27.0691331 85.3425 26.8754102 85.5075 26.7211842 85.62375 26.4898452 85.62375 26.2152477 85.62375 25.9218421 85.5 25.6905031 85.33125 25.5494427 85.145625 25.3952167 84.898125 25.3256269 84.474375 25.3256269 82.22625 25.2522755 79.41 25.3952167 79.41 22.2034907 79.41 20.734582 80.325 19.1979644 82.84875 19.1979644L87.6675 19.1979644 87.6675 21.3458437 83.2575 21.3458437C82.815 21.3458437 82.53 21.3646517 82.291875 21.5301625 82.0275 21.6956734 81.93 21.9382972 81.93 22.2580341 81.93 22.6398375 82.155 22.8937461 82.453125 23.010356 82.711875 23.0987539 82.98 23.1250851 83.390625 23.1250851L84.6825 23.1627012C85.9875 23.1984365 86.8875 23.4241331 87.429375 23.975209 87.898125 24.4623375 88.15125 25.0792415 88.15125 26.115565 88.15125 28.2916563 86.799375 29.3054102 84.3825 29.2942185zM74.555625 29.2942185L69.871875 29.2942185 69.871875 27.1255573 74.535 27.1255573C74.98875 27.1255573 75.313125 27.0691331 75.515625 26.8754102 75.680625 26.7211842 75.796875 26.4898452 75.796875 26.2152477 75.796875 25.9218421 75.673125 25.6905031 75.504375 25.5494427 75.316875 25.3952167 75.069375 25.3256269 74.6475 25.3256269 72.40125 25.2522755 69.583125 25.3952167 69.583125 22.2034907 69.583125 20.734582 70.498125 19.1979644 73.021875 19.1979644L77.840625 19.1979644 77.840625 21.3458437 73.42875 21.3458437C72.988125 21.3458437 72.705 21.3646517 72.465 21.5301625 72.200625 21.6956734 72.10125 21.9382972 72.10125 22.2580341 72.10125 22.6398375 72.324375 22.8937461 72.62625 23.010356 72.883125 23.0987539 73.153125 23.1250851 73.56375 23.1250851L74.855625 23.1627012C76.15875 23.1984365 77.056875 23.4241331 77.59875 23.975209 78.07125 24.4623375 78.320625 25.0792415 78.320625 26.115565 78.320625 28.2916563 76.9725 29.3054102 74.555625 29.2942185zM68.4225 21.2969427L62.79 21.2969427 62.79 23.1344892 68.28375 23.1344892 68.28375 25.1958514 62.79 25.1958514 62.79 27.2007895 68.4225 27.2120743 68.4225 29.3054102 60.3975 29.3054102 60.3975 19.21113 68.4225 19.21113 68.4225 21.2969427zM57.358125 24.6146827C57.890625 24.8102864 58.3275 25.1657585 58.53 25.4629257 58.873125 25.9556966 58.918125 26.414613 58.929375 27.3042337L58.929375 29.3054102 56.51625 29.3054102 56.51625 28.0415093C56.51625 27.4358901 56.574375 26.5349845 56.124375 26.0647833 55.779375 25.7055495 55.245 25.6209133 54.36375 25.6209133L51.795 25.6209133 51.795 29.3054102 49.378125 29.3054102 49.378125 19.21113 54.93375 19.21113C56.14875 19.21113 57.03375 19.2619118 57.826875 19.6850929 58.584375 20.1440093 59.0625 20.7759598 59.0625 21.9251316 59.0625 23.5388622 57.988125 24.360774 57.358125 24.6146827zM44.05875 25.9143189L41.05875 25.9143189 41.05875 29.3016486 36.384375 29.3016486 33.421875 25.961339 30.343125 29.3016486 20.81625 29.3016486 20.81625 19.2054876 30.4875 19.2054876 33.45 22.5157043 36.51 19.2054876 44.19375 19.2054876C46.100625 19.2054876 48.2475 19.741517 48.2475 22.5363932 48.2475 25.3369118 46.1625 25.9199613 44.05875 25.9143189zM88.61625 22.8109907C88.599375 22.7940635 88.580625 22.7752554 88.56375 22.7620898 89.019375 22.4649226 89.323125 21.949582 89.323125 21.3627709L89.323125 19.2130108C89.323125 18.2895356 88.57875 17.5447368 87.66 17.5447368L82.84125 17.5447368C81.339375 17.5447368 80.206875 17.9886068 79.381875 18.6581734 79.15125 18.0111765 78.55875 17.5447368 77.833125 17.5447368L73.014375 17.5447368C71.68875 17.5447368 70.644375 17.8738777 69.849375 18.4155495 69.560625 17.8983282 69.04125 17.5447368 68.41875 17.5447368L60.39375 17.5447368C59.746875 17.5447368 59.20125 17.9227786 58.925625 18.4625697 58.81125 18.381695 58.726875 18.2876548 58.606875 18.2161842 57.4425 17.591757 56.205 17.5447368 54.93 17.5447368L49.374375 17.5447368C48.7275 17.5447368 48.18 17.9265402 47.90625 18.4700929 47.060625 17.919017 45.8775 17.5447368 44.195625 17.5447368L36.511875 17.5447368C36.04875 17.5447368 35.608125 17.7328173 35.29125 18.0751238L33.470625 20.0443266 31.723125 18.0976935C31.41 17.7384598 30.961875 17.542856 30.4875 17.542856L20.81625 17.542856C19.8975 17.542856 19.155 18.2895356 19.155 19.21113L19.155 29.3054102C19.155 30.2288854 19.899375 30.9736842 20.81625 30.9736842L30.343125 30.9736842C30.80625 30.9736842 31.246875 30.7799613 31.561875 30.4376548L33.3975 28.4458824 35.139375 30.4113235C35.454375 30.7686765 35.908125 30.9699226 36.3825 30.9699226L41.056875 30.9699226C41.9775 30.9699226 42.72 30.223243 42.72 29.3054102L42.72 27.5825929 44.056875 27.5825929C45.6825 27.5825929 46.858125 27.2478096 47.713125 26.7381115L47.713125 29.3054102C47.713125 30.2251238 48.4575 30.9699226 49.37625 30.9699226L51.793125 30.9699226C52.71375 30.9699226 53.45625 30.223243 53.45625 29.3054102L53.45625 27.2816641 54.361875 27.2816641C54.583125 27.2816641 54.73875 27.2891873 54.85125 27.2967105 54.85875 27.4772678 54.85875 27.6935604 54.855 27.8365015L54.855 29.3054102C54.855 30.2251238 55.603125 30.9699226 56.518125 30.9699226L58.93125 30.9699226C59.20125 30.9699226 59.445 30.8965712 59.66625 30.7818421 59.89125 30.8928096 60.133125 30.9699226 60.399375 30.9699226L68.42625 30.9699226C68.686875 30.9699226 68.92875 30.8965712 69.148125 30.7893653 69.3675 30.8965712 69.60375 30.9699226 69.87 30.9699226L74.55375 30.9699226C76.044375 30.9699226 77.259375 30.6031656 78.16875 29.9561687 78.418125 30.5505031 79.006875 30.9699226 79.695 30.9699226L84.37875 30.9699226C87.785625 30.9699226 89.81625 29.1549458 89.81625 26.1174458 89.81625 24.7106037 89.4375 23.6629954 88.61625 22.8109907L88.61625 22.8109907zM59.6025 5.66557276L58.558125 8.10873839C58.3275 8.10873839 58.171875 8.08240712 58.085625 8.05983746 58.005 7.90937307 57.894375 7.57647059 57.894375 6.88433437 57.894375 6.18467492 58.063125 5.82167957 58.085625 5.78970588 58.155 5.7219969 58.213125 5.66369195 58.7775 5.66369195L59.6025 5.66557276zM81.0675 11.9286533L77.660625 11.9286533 73.09875 4.3527709 73.09875 11.9286533 68.205 11.9286533 67.2675 9.67732972 62.26875 9.67732972 61.365 11.9286533 58.54875 11.9286533C57.380625 11.9286533 55.905 11.6691022 55.06875 10.8133359 54.2175 9.95568885 53.77875 8.79335139 53.77875 6.95956656 53.77875 5.46244582 54.043125 4.09321981 55.066875 3.00987616 55.84125 2.20489164 57.058125 1.83437307 58.719375 1.83437307L61.0425 1.83437307 61.0425 3.99729876 58.764375 3.99729876C57.88875 3.99729876 57.391875 4.1270743 56.915625 4.59539474 56.505 5.02045666 56.225625 5.82356037 56.225625 6.88245356 56.225625 7.9620356 56.439375 8.74068885 56.889375 9.250387 57.2625 9.65099845 57.9375 9.77136997 58.565625 9.77136997L59.64375 9.77136997 63.04125 1.83437307 66.645 1.83437307 70.71375 11.381339 70.71375 1.83437307 74.379375 1.83437307 78.605625 8.86482198 78.605625 1.83437307 81.0675 1.83437307 81.0675 11.9286533zM50.14875 11.9286533L52.605 11.9286533 52.605 1.83437307 50.14875 1.83437307 50.14875 11.9286533zM47.056875 7.24544892C47.58375 7.44857585 48.03375 7.80216718 48.2475 8.09557276 48.58875 8.59774768 48.646875 9.04537926 48.646875 9.94628483L48.646875 11.9267724 46.220625 11.9267724 46.209375 10.6534675C46.209375 10.0478483 46.2675 9.1751548 45.830625 8.68802632 45.48 8.33443498 44.94375 8.25732198 44.0775 8.25732198L41.499375 8.25732198 41.499375 11.9286533 39.09 11.9286533 39.09 1.83625387 44.62125 1.83625387C45.85125 1.83625387 46.756875 1.86822755 47.533125 2.31962074 48.294375 2.77101393 48.75 3.42929567 48.75 4.55589783 48.75 6.16398607 47.679375 6.99718266 47.056875 7.24544892zM37.425 3.937113L31.79625 3.937113 31.79625 5.75585139 37.291875 5.75585139 37.291875 7.82473684 31.79625 7.82473684 31.79625 9.84095975 37.425 9.84095975 37.425 11.9286533 29.3925 11.9286533 29.3925 1.83437307 37.425 1.83437307 37.425 3.937113zM27.6 11.9286533L25.134375 11.9286533 25.125 4.02363003 21.6375 11.9286533 19.524375 11.9286533 16.03125 4.01610681 16.03125 11.9286533 11.135625 11.9286533 10.21125 9.67732972 5.205 9.67732972 4.27125 11.9286533 1.6575 11.9286533 5.964375 1.83437307 9.534375 1.83437307 13.6275 11.3926238 13.6275 1.83437307 17.55375 1.83437307 20.701875 8.6823839 23.59125 1.83437307 27.6 1.83437307 27.6 11.9286533zM81.0675.169860681L78.605625.169860681C77.685.169860681 76.9425.916540248 76.9425 1.83625387L76.9425 2.87821981 75.800625.976726006C75.496875.478312693 74.95875.171741486 74.379375.171741486L70.71375.171741486C69.795.171741486 69.0525.918421053 69.0525 1.83813467L69.0525 3.2543808 68.169375 1.18173375C67.90875.570472136 67.30875.171741486 66.645.171741486L63.04125.171741486C62.675625.171741486 62.326875.292113003 62.049375.502763158 61.77375.293993808 61.426875.171741486 61.05375.171741486L58.730625.171741486C56.754375.171741486 55.291875.651346749 54.215625 1.58798762 54.091875.792407121 53.43375.171741486 52.605.171741486L50.14875.171741486C49.4925.171741486 48.943125.561068111 48.669375 1.11026316 48.56625 1.03503096 48.4875.944752322 48.37125.877043344 47.2425.22252322 46.055625.171741486 44.625.171741486L39.09375.171741486C38.7825.171741486 38.510625.280828173 38.259375.429411765 38.01375.280828173 37.738125.171741486 37.426875.171741486L29.394375.171741486C29.055.171741486 28.760625.297755418 28.498125.470789474 28.23375.297755418 27.939375.171741486 27.601875.171741486L23.593125.171741486C22.929375.171741486 22.3275.572352941 22.066875 1.18925697L20.638125 4.56718266 19.065 1.14035604C18.79125.549783282 18.200625.171741486 17.555625.171741486L13.629375.171741486C12.710625.171741486 11.968125.918421053 11.968125 1.83813467L11.968125 3.28823529 11.06625 1.17797214C10.80375.566710526 10.20375.169860681 9.538125.169860681L5.968125.169860681C5.3025.169860681 4.7025.568591331 4.44 1.17985294L.135 11.2741331C-.08625 11.7913545-.031875 12.3781656.27375 12.8483669.58125 13.3148065 1.1025 13.5969272 1.66125 13.5969272L4.275 13.5969272C4.9425 13.5969272 5.548125 13.1906734 5.805 12.5700077L6.313125 11.3437229 9.099375 11.3437229 9.6 12.5624845C9.855 13.1869118 10.4625 13.5950464 11.1375 13.5950464L16.029375 13.5950464C16.948125 13.5950464 17.690625 12.8483669 17.690625 11.9286533L17.690625 11.8891563 18.005625 12.605743C18.271875 13.2076006 18.868125 13.5969272 19.524375 13.5969272L21.6375 13.6006889C22.2975 13.6006889 22.89 13.2113622 23.15625 12.6076238L23.475 11.892918 23.475 11.9342957C23.475 12.8540093 24.2175 13.598808 25.13625 13.598808L27.601875 13.598808C27.939375 13.598808 28.23375 13.4709133 28.498125 13.2997601 28.760625 13.4709133 29.055 13.598808 29.394375 13.598808L37.426875 13.598808C37.738125 13.598808 38.01375 13.4897214 38.259375 13.3411378 38.50875 13.4897214 38.7825 13.598808 39.09375 13.598808L41.50125 13.598808C42.42 13.598808 43.1625 12.8521285 43.1625 11.9324149L43.1625 9.92747678 44.08125 9.92747678C44.289375 9.92747678 44.4375 9.9331192 44.548125 9.94064241 44.559375 10.1117957 44.555625 10.3149226 44.555625 10.4503406L44.551875 10.6722755 44.56125 11.9455805C44.56875 12.8596517 45.313125 13.598808 46.224375 13.598808L48.650625 13.598808C48.9225 13.598808 49.168125 13.5141718 49.395 13.3975619 49.625625 13.5160526 49.873125 13.598808 50.146875 13.598808L52.603125 13.598808C53.409375 13.598808 54.046875 13.0157585 54.2025 12.2559133 55.565625 13.4050851 57.485625 13.598808 58.554375 13.598808L61.3725 13.598808C62.04375 13.598808 62.65125 13.185031 62.904375 12.5549613L63.39375 11.3456037 66.165 11.3456037 66.673125 12.5718885C66.93 13.1906734 67.53375 13.5969272 68.206875 13.5969272L73.100625 13.5969272C74.019375 13.5969272 74.761875 12.8502477 74.761875 11.9305341L74.761875 10.3374923 76.2375 12.7919427C76.539375 13.290356 77.0775 13.5969272 77.6625 13.5969272L81.0675 13.5969272C81.98625 13.5969272 82.72875 12.8502477 82.72875 11.9305341L82.72875 1.83625387C82.72875.916540248 81.9825.169860681 81.0675.169860681L81.0675.169860681z" mask="url(#logo-ae-b)"/>
    <polyline fill="#B5C1C9" points="35.526 24.39 39.079 28.605 39.079 20.316 35.526 24.39"/>
    <polyline fill="#B5C1C9" points="29.455 21.5 23.684 21.5 23.684 23.339 28.738 23.339 28.738 25.406 23.684 25.406 23.684 27.421 29.343 27.421 31.974 24.446 29.455 21.5"/>
  </g>
</svg>
