<svg xmlns="http://www.w3.org/2000/svg" xmlns:xlink="http://www.w3.org/1999/xlink" width="83" height="20" viewBox="0 0 83 20">
  <defs>
    <polygon id="logo-payco-a" points="0 .136 13.656 .136 13.656 19.3 0 19.3"/>
    <polygon id="logo-payco-c" points="0 .136 16.388 .136 16.388 19.3 0 19.3"/>
    <polygon id="logo-payco-e" points="0 .136 19.119 .136 19.119 19.3 0 19.3"/>
  </defs>
  <g fill="none" fill-rule="evenodd">
    <mask id="logo-payco-b" fill="#fff">
      <use xlink:href="#logo-payco-a"/>
    </mask>
    <path fill="#B5C1C9" d="M6.46885919,10.1009273 C8.28255802,10.1009273 9.34390771,8.78214273 9.34390771,7.06323152 L9.34390771,7.00607058 C9.34390771,5.02993513 8.21202529,3.96837477 6.39832645,3.96837477 L3.59381066,3.96837477 L3.59381066,10.0927615 L6.46885919,10.1009273 Z M2.0291608e-13,2.20608787 C-0.00767825127,1.07111508 0.829419097,0.14396502 1.86964082,0.135529412 L1.89775492,0.135529412 L7.04966387,0.135529412 C11.1683796,0.135529412 13.6564805,2.79658046 13.6564805,6.65395418 L13.6564805,6.70763532 C13.6599918,11.0558081 10.5428409,13.3180849 6.67715204,13.3180849 L3.79545672,13.3180849 L3.79545672,17.2291398 C3.8031881,18.3641126 2.96644218,19.2912626 1.92622045,19.2997562 L1.89775492,19.2997562 C0.857533198,19.3081338 0.00778450411,18.3947875 2.0291608e-13,17.2598147 L2.0291608e-13,17.2291398 L2.0291608e-13,2.20608787 Z" mask="url(#logo-payco-b)"/>
    <path fill="#B5C1C9" d="M24.1264489 11.3889563L21.4729732 5.31484628 18.8155954 11.3889563 24.1264489 11.3889563zM12.9967602 16.2003212L19.403005 1.61530584C19.7786983.631147491 20.722422-.0130082991 21.7679272.000199347454L22.003671.000199347454C23.0416922-.0114988538 23.9756868.634543743 24.3386574 1.61530584L30.7449023 16.2003212C30.8721291 16.4550401 30.9436006 16.7342875 30.9544523 17.0191953 30.970917 18.0859958 30.1267296 18.9648704 29.068876 18.9810969 29.0576501 18.9815938 29.04605 18.9815938 29.0348241 18.9815938 28.0881068 18.9815938 27.4594566 18.4271305 27.092744 17.5780675L25.8578954 14.6644606 17.77525 14.6644606 16.4880139 17.7097666C16.1867857 18.4844894 15.4421346 18.9905309 14.6170312 18.9815938 13.5835003 18.9815938 12.7460485 18.1369396 12.7460485 17.0946676 12.7460485 17.0886298 12.7460485 17.0822147 12.7460485 17.0761769 12.7670035 16.7693821 12.8523203 16.4708893 12.9967602 16.2003212L12.9967602 16.2003212zM36.2665923 11.6252257L30.5259629 3.46104451C30.2170193 3.04126985 30.047879 2.52707432 30.0442571 1.99733159 30.0598311.893858891 30.9272637.0122183334 31.9812215.028903144 31.9877409.028903144 31.993898.028903144 32.0000551.0292823442 32.8910298.0292823442 33.4487944.533618663 33.9305002 1.28064314L38.2404996 7.79909526 42.644667 1.2275551C43.1263729.469154622 43.7134745.00273832741 44.5244063.00273832741 45.523312-.0530041078 46.3762573.749004399 46.4298606 1.79483866 46.4327581 1.8623363 46.4327581 1.92983395 46.4298606 1.99733159 46.4055942 2.51949032 46.2284859 3.02155144 45.9224397 3.4345005L40.1818103 11.5493856 40.1818103 16.934029C40.1818103 18.0648042 39.3064095 18.9817103 38.2260122 18.9817103 37.1459771 18.9817103 36.2702142 18.0648042 36.2702142 16.934029L36.2665923 11.6252257z"/>
    <g transform="translate(46.432)">
      <mask id="logo-payco-d" fill="#fff">
        <use xlink:href="#logo-payco-c"/>
      </mask>
      <path fill="#B5C1C9" d="M0.0018057792,9.76605794 L0.0018057792,9.71326726 C0.0018057792,4.43419915 3.88181545,0.135529412 9.44697382,0.135529412 C12.1651935,0.135529412 14.002297,0.889681998 15.514468,2.02091088 C16.0035263,2.407037 16.2893635,3.00319462 16.2886259,3.63479741 C16.2867817,4.73208943 15.414886,5.62048117 14.3416134,5.61821871 C14.3353434,5.61821871 14.3294423,5.61821871 14.3228035,5.61821871 C13.8957073,5.6136938 13.4800447,5.47568388 13.1318765,5.22228861 C12.0829462,4.36934203 10.7832167,3.90327573 9.44365442,3.89875082 C6.38943768,3.89875082 4.19125729,6.49303571 4.19125729,9.66424734 L4.19125729,9.71703802 C4.19125729,12.8920204 6.33817139,15.5353252 9.44365442,15.5353252 C10.8765287,15.5617206 12.2688326,15.0458802 13.352801,14.0873523 C14.1324912,13.4157794 15.2964941,13.5168358 15.9533665,14.313598 C16.60987,15.1103602 16.5110257,16.300413 15.7317043,16.9719859 C14.1015101,18.4275004 12.1876917,19.2985466 9.28874909,19.2985466 C4.239573,19.3807493 0.0814713771,15.2626991 0.00106813478,10.1009017 C-0.000775976286,9.98928711 -0.000407154074,9.87767252 0.0018057792,9.76605794" mask="url(#logo-payco-d)"/>
    </g>
    <g transform="translate(63.73)">
      <mask id="logo-payco-f" fill="#fff">
        <use xlink:href="#logo-payco-e"/>
      </mask>
      <path fill="#B5C1C9" d="M15.2952582,9.75862916 L15.2952582,9.7064647 C15.2952582,6.57659747 13.0743453,3.96837477 9.91659796,3.96837477 C6.75885057,3.96837477 4.58857745,6.53188508 4.58857745,9.66547835 L4.58857745,9.7176428 C4.58857745,12.8549621 6.82034164,15.4669108 9.96759937,15.4669108 C13.1144954,15.4669108 15.2952582,12.9108526 15.2952582,9.75862916 M-6.2264554e-16,9.77235461 L-6.2264554e-16,9.71952941 C-6.2264554e-16,4.43700973 4.03124017,0.135529412 9.59068685,0.135529412 C15.149767,0.135529412 19.1190727,4.39550422 19.1190727,9.66293099 L19.1190727,9.71575619 C19.1190727,14.9982759 15.0878325,19.2997562 9.52838586,19.2997562 C3.96893919,19.2997562 -6.2264554e-16,15.0397814 -6.2264554e-16,9.77235461" mask="url(#logo-payco-f)"/>
    </g>
  </g>
</svg>
