<svg xmlns="http://www.w3.org/2000/svg" xmlns:xlink="http://www.w3.org/1999/xlink" width="126" height="81" viewBox="0 0 126 81">
  <defs>
    <polygon id="business-type_airline_img_004-a" points="0 .205 126 .205 126 15.452 0 15.452"/>
  </defs>
  <g fill="none" fill-rule="evenodd" transform="translate(-1032 -743)">
    <rect width="1803" height="6217" fill="#FFF"/>
    <g transform="translate(1032 743)">
      <path fill="#B5C1C9" d="M56.75887,13.4913333 C56.75887,11.19525 59.08987,10.5392262 61.27877,10.4535357 C65.38637,10.2821548 67.91617,13.2349643 67.91617,13.2349643 L67.97357,13.2349643 L67.97357,11.6089524 C67.97357,11.6089524 64.70457,10.1114762 61.27877,10.1114762 C59.31737,10.1255238 55.62137,10.924131 55.62137,14.3327857 C55.62137,21.3207738 67.29107,16.1154286 67.29107,20.8220833 C67.29107,23.3745357 63.76587,23.7313452 62.74247,23.7453929 C58.06647,23.7453929 56.11907,20.7075952 56.11907,20.7075952 L55.96297,20.7075952 L56.09037,22.833 C56.09037,22.833 60.05587,24.0874524 62.52967,24.0874524 C67.63197,24.0874524 68.78347,20.7075952 68.78347,19.7671071 C68.78347,12.6358333 56.75887,17.7414405 56.75887,13.4913333 L56.75887,13.4913333 Z M52.76397,8.0422619 L49.37877,6.85875 C48.66827,6.61080952 47.86957,6.85945238 47.45027,7.48597619 L47.44327,7.4965119 L51.86937,9.04315476 C52.15077,8.69477381 52.44897,8.3597381 52.76397,8.0422619 L52.76397,8.0422619 Z M48.51777,17.21325 L46.63757,16.5558214 L44.55017,15.82675 C44.51587,16.2537976 45.60367,17.21325 45.60367,17.21325 C45.60367,17.21325 44.51027,18.1741071 44.54317,18.6018571 L46.63757,17.8699762 L48.51777,17.21325 Z M56.04907,5.63871429 L52.03667,4.23605952 C51.23657,3.9565119 50.33637,4.13561905 49.73157,4.7312381 L49.72107,4.74107143 L54.65747,6.46611905 C55.10197,6.1619881 55.56677,5.88665476 56.04907,5.63871429 L56.04907,5.63871429 Z M50.64367,10.8531905 L47.49857,9.75396429 C46.84407,9.5249881 46.11257,9.8347381 45.84447,10.4767143 L45.83957,10.4879524 L50.08367,11.971381 C50.25307,11.5885833 50.43997,11.2149167 50.64367,10.8531905 L50.64367,10.8531905 Z M49.38787,13.9654405 L46.28897,12.882369 C45.66877,12.6660357 44.98767,13.0375952 44.85467,13.682381 L44.85187,13.6950238 L49.13377,15.1910952 C49.20027,14.7759881 49.28427,14.3665 49.38787,13.9654405 L49.38787,13.9654405 Z M61.97597,4.20375 C62.88667,4.20375 63.77637,4.29857143 64.63387,4.47767857 L71.03047,2.242 C71.02557,2.23919048 71.02137,2.23638095 71.01647,2.23357143 C70.14287,1.70327381 69.07187,1.61266667 68.10727,1.94910714 L61.88217,4.12508333 L55.72707,1.97439286 C54.77157,1.64005952 53.71667,1.75384524 52.85357,2.28414286 L59.20397,4.50366667 C60.09787,4.30910714 61.02467,4.20375 61.97597,4.20375 L61.97597,4.20375 Z M73.84237,11.9144881 L78.08857,10.4303571 C78.08717,10.4268452 78.08507,10.4233333 78.08367,10.419119 C77.81277,9.77714286 77.08057,9.46879762 76.42467,9.69777381 L73.27677,10.7984048 C73.48257,11.160131 73.67087,11.5323929 73.84237,11.9144881 L73.84237,11.9144881 Z M72.04197,8.99188095 L76.47367,7.44313095 C76.47087,7.43961905 76.46877,7.43610714 76.46597,7.43259524 C76.04387,6.80607143 75.24307,6.55953571 74.53117,6.80747619 L71.13827,7.99379762 C71.45677,8.31057143 71.75847,8.6435 72.04197,8.99188095 L72.04197,8.99188095 Z M69.23147,6.42257143 L74.18117,4.69260714 C74.17767,4.68979762 74.17417,4.68628571 74.17137,4.68277381 C73.56237,4.08855952 72.66007,3.91015476 71.85717,4.19040476 L67.82657,5.59938095 C68.31237,5.84591667 68.78277,6.11914286 69.23147,6.42257143 L69.23147,6.42257143 Z M66.45177,0.290785714 C66.24877,0.236702381 66.04507,0.186833333 65.83857,0.13977381 C64.72907,-0.11097619 63.56917,-0.0161547619 62.49467,0.359619048 L61.88217,0.573142857 L61.35227,0.388416667 C60.19237,-0.0168571429 58.93937,-0.0702380952 57.74727,0.226869048 C57.62967,0.256369048 57.51137,0.28727381 57.39447,0.319583333 L61.88217,1.88729762 L66.45177,0.290785714 Z M74.80627,15.1292857 L79.08607,13.6332143 C79.08537,13.6297024 79.08467,13.6254881 79.08397,13.6212738 C78.94887,12.9757857 78.26707,12.605631 77.64617,12.8226667 L74.54727,13.9057381 C74.65227,14.3067976 74.73907,14.714881 74.80627,15.1292857 L74.80627,15.1292857 Z M51.82107,25.4002024 L47.40127,26.9440357 C47.40407,26.9475476 47.40617,26.9517619 47.40897,26.9552738 C47.82407,27.5817976 48.62137,27.8318452 49.33047,27.5839048 L52.70867,26.4039048 C52.39577,26.0850238 52.10037,25.7492857 51.82107,25.4002024 L51.82107,25.4002024 Z M73.31387,23.6414405 L76.45827,24.7406667 C77.11277,24.9689405 77.84427,24.6591905 78.11167,24.0172143 L78.11657,24.0059762 L73.87247,22.5225476 C73.70377,22.9053452 73.51687,23.2790119 73.31387,23.6414405 L73.31387,23.6414405 Z M67.91687,28.8587262 L71.92577,30.2599762 C72.72587,30.5395238 73.62537,30.3604167 74.22947,29.7640952 L74.23997,29.7542619 L69.30637,28.0299167 C68.86257,28.33475 68.39707,28.6100833 67.91687,28.8587262 L67.91687,28.8587262 Z M71.19637,26.4530714 L74.58017,27.635881 C75.29067,27.8838214 76.08937,27.6351786 76.50797,27.0086548 L76.51497,26.9974167 L72.09027,25.4507738 C71.80887,25.7998571 71.51207,26.1348929 71.19637,26.4530714 L71.19637,26.4530714 Z M78.11587,17.21325 C78.11587,17.21325 79.43257,16.189881 79.39617,15.7628333 L77.12607,16.5558214 L75.24657,17.21325 L77.12607,17.8699762 L79.40317,18.6657738 C79.43677,18.2380238 78.11587,17.21325 78.11587,17.21325 L78.11587,17.21325 Z M74.56687,20.5277857 L77.66577,21.6101548 C78.28527,21.8271905 78.96707,21.4563333 79.09937,20.8108452 L79.10147,20.7982024 L74.81957,19.3014286 C74.75447,19.7172381 74.67047,20.1260238 74.56687,20.5277857 L74.56687,20.5277857 Z M49.12117,19.2403214 L44.83717,20.7370952 C44.83857,20.7413095 44.83927,20.7455238 44.83997,20.7490357 C44.97017,21.3945238 45.65057,21.7667857 46.27077,21.5504524 L49.36967,20.467381 C49.26817,20.0649167 49.18417,19.656131 49.12117,19.2403214 L49.12117,19.2403214 Z M54.58397,27.986369 L49.66297,29.7057976 C49.66577,29.7093095 49.66927,29.712119 49.67277,29.715631 C50.27337,30.3126548 51.17147,30.4924643 51.96877,30.2143214 L55.95807,28.8193929 C55.48207,28.5693452 55.02357,28.2912024 54.58397,27.986369 L54.58397,27.986369 Z M50.05357,22.4656548 L45.81227,23.948381 C45.81367,23.9525952 45.81507,23.9561071 45.81647,23.959619 C46.08177,24.6015952 46.81187,24.91275 47.46567,24.6844762 L50.60657,23.5866548 C50.40497,23.2235238 50.22087,22.8498571 50.05357,22.4656548 L50.05357,22.4656548 Z M61.97597,30.3014167 C60.97637,30.3014167 60.00477,30.184119 59.06957,29.9691905 L52.77377,32.1704524 L52.78777,32.178881 C53.63477,32.7056667 54.67357,32.8208571 55.61437,32.4921429 L61.88217,30.3014167 L68.20597,32.5118095 C69.16567,32.8468452 70.23107,32.7534286 71.09697,32.2217262 L71.11027,32.2125952 L64.76897,29.9965833 C63.86877,30.1939524 62.93497,30.3014167 61.97597,30.3014167 L61.97597,30.3014167 Z M57.26847,34.151869 L57.29087,34.1581905 C58.63697,34.5332619 60.06497,34.4883095 61.38447,34.0268452 L61.88217,33.8526548 L62.34697,34.0156071 C63.70077,34.4890119 65.17007,34.5627619 66.55467,34.1862857 L66.57777,34.1799643 L61.88217,32.5392024 L57.26847,34.151869 Z"/>
      <g transform="translate(0 42.95)">
        <mask id="business-type_airline_img_004-b" fill="#fff">
          <use xlink:href="#business-type_airline_img_004-a"/>
        </mask>
        <path fill="#B5C1C9" d="M67.75545,9.43964881 L70.52675,3.47222024 L73.32045,9.43964881 L67.75545,9.43964881 Z M70.55055,0.205446429 L63.46095,15.1148869 L65.07655,15.1148869 L67.14365,10.7355417 L73.92595,10.7355417 L75.89365,14.9385893 L75.97765,15.1148869 L77.66255,15.1148869 L70.55055,0.205446429 Z M56.16135,8.99644643 L60.01135,15.1148869 L58.24945,15.1148869 L54.65565,9.31673214 L54.59615,9.25702976 L52.02225,9.25702976 L52.44995,7.96535119 L54.40435,7.96535119 C56.31045,7.96535119 57.74895,6.62872024 57.74895,4.85591071 C57.74895,3.14210119 56.36155,1.85042262 54.51985,1.85042262 L50.76085,1.85042262 L50.76085,15.1148869 L49.21315,15.1148869 L49.21315,0.558744048 L54.58915,0.558744048 C57.22815,0.558744048 59.29595,2.44533929 59.29595,4.85591071 C59.29595,6.69966071 58.11995,8.30600595 56.30205,8.94798214 L56.16135,8.99644643 Z M36.11755,13.822506 L43.58935,13.822506 L43.58935,15.1148869 L34.57055,15.1148869 L34.57055,0.558744048 L43.42765,0.558744048 L43.42765,1.85042262 L36.11755,1.85042262 L36.11965,7.9688631 L42.61355,7.9688631 L42.61355,9.26124405 L36.11755,9.26124405 L36.11755,13.822506 Z M26.56745,0.558744048 L28.11445,0.558744048 L28.11445,15.1148869 L26.56745,15.1148869 L26.56745,9.26124405 L17.35755,9.26124405 L17.35755,15.1148869 L15.81055,15.1148869 L15.81055,0.558744048 L17.35755,0.558744048 L17.36945,7.9688631 L26.56255,7.9688631 L26.56745,0.558744048 Z M10.34845,11.4765536 C10.34845,13.8674583 8.41155,15.4126964 5.41135,15.4126964 C2.85985,15.4126964 0.89285,14.187744 0.00035,12.0475893 L1.31635,11.4877917 C2.04785,13.1629702 3.54235,14.1196131 5.43585,14.1196131 C7.51135,14.1196131 8.80145,13.1152083 8.80145,11.4983274 C8.80145,9.70233929 7.48755,9.06808929 5.16355,8.1016131 C2.71635,7.0838631 0.98385,6.18973214 0.98385,3.94281548 C0.98385,1.82232738 2.84585,0.283410714 5.41135,0.283410714 C7.27335,0.283410714 8.69225,1.04268452 9.63165,2.5408631 L8.35485,3.20672024 C7.68425,2.09414881 6.73855,1.57579167 5.38825,1.57579167 C3.78595,1.57579167 2.53015,2.59705357 2.53015,3.89997024 C2.53015,5.5056131 4.09885,6.1398631 5.91535,6.87385119 C8.91905,8.0791369 10.34845,9.0751131 10.34845,11.4765536 L10.34845,11.4765536 Z M79.46925,0.558744048 L89.80615,0.558744048 L89.80615,1.85042262 L85.41155,1.85042262 L85.41155,15.1148869 L83.86455,15.1148869 L83.86455,1.85042262 L79.46925,1.85042262 L79.46925,0.558744048 Z M100.70725,14.1196131 C97.11345,14.1196131 94.40305,11.423875 94.40305,7.84735119 C94.40305,4.27293452 97.11345,1.57579167 100.70725,1.57579167 C104.28985,1.57579167 106.99185,4.27293452 106.99185,7.84735119 C106.99185,11.423875 104.28985,14.1196131 100.70725,14.1196131 L100.70725,14.1196131 Z M100.70725,0.283410714 C96.30145,0.283410714 92.97855,3.53543452 92.97855,7.84735119 C92.97855,12.1599702 96.30145,15.4126964 100.70725,15.4126964 C105.11445,15.4126964 108.43735,12.1599702 108.43735,7.84735119 C108.43735,3.53543452 105.11445,0.283410714 100.70725,0.283410714 L100.70725,0.283410714 Z M125.99965,0.558744048 L125.99965,15.4527321 L114.68905,3.73842262 L114.68905,15.1148869 L113.14205,15.1148869 L113.14205,0.22160119 L124.45265,11.9373155 L124.45265,0.558744048 L125.99965,0.558744048 Z" mask="url(#business-type_airline_img_004-b)"/>
      </g>
    </g>
    <rect width="1799" height="181" x="14" fill="#D8D8D8" opacity="0" transform="translate(0 574)"/>
  </g>
</svg>
