<svg height="56" viewBox="0 0 91 56" width="91" xmlns="http://www.w3.org/2000/svg" xmlns:xlink="http://www.w3.org/1999/xlink"><mask id="a" fill="#fff"><path d="m0 .026h22.803v21.688h-22.803z" fill="#fff" fill-rule="evenodd"/></mask><mask id="b" fill="#fff"><path d="m.235.248h25.704v27.752h-25.704z" fill="#fff" fill-rule="evenodd"/></mask><g fill="#b5c1c9" fill-rule="evenodd"><path d="m11.567 3.112c3.831 0 6.444 2.37 6.444 5.923h-13.22c0-3.772 3.41-5.923 6.776-5.923m.165-3.086c-6.4 0-11.732 2.74-11.732 11.01 0 6.553 3.586 10.678 11.897 10.678 9.783 0 10.41-6.506 10.41-6.506h-4.74s-1.016 3.503-5.959 3.503c-4.026 0-6.92-2.746-6.92-6.594h18.115v-2.415c0-3.807-2.394-9.676-11.071-9.676" mask="url(#a)" transform="translate(0 17)"/><path d="m34.968 11.32c4.393 0 7.186 3.282 7.186 7.685 0 4.721-3.226 7.81-7.154 7.81-4.689 0-7.218-3.684-7.218-7.768 0-3.806 2.27-7.726 7.186-7.726zm-11.865-11.32v25.75c0 1.462-.103 3.514-.103 3.514h4.572s.164-1.474.164-2.821c0 0 2.26 3.557 8.402 3.557 6.468 0 10.862-4.52 10.862-10.995 0-6.024-4.036-10.87-10.852-10.87-6.382 0-8.366 3.47-8.366 3.47v-11.605z" transform="translate(0 9)"/><path d="m63.167 19.445v1.346c0 1.756-1.074 6.122-7.391 6.122-3.46 0-4.943-1.744-4.943-3.766 0-3.679 4.995-3.702 12.334-3.702m-5.334-11.445c-9.71 0-10.333 5.37-10.333 6.227h4.833s.254-3.134 5.167-3.134c3.193 0 5.667 1.475 5.667 4.312v1.01h-5.667c-7.523 0-11.5 2.222-11.5 6.732 0 4.438 3.675 6.853 8.64 6.853 6.768 0 8.949-3.776 8.949-3.776 0 1.501.114 2.982.114 2.982h4.297s-.167-1.835-.167-3.008v-10.146c0-6.652-5.313-8.052-10-8.052" transform="translate(0 9)"/><path d="m.235.248h5.386l7.729 15.588 7.711-15.588h4.878l-14.045 27.752h-5.118l4.053-7.736z" mask="url(#b)" transform="translate(65 18)"/></g></svg>