<svg height="56" viewBox="0 0 182 56" width="182" xmlns="http://www.w3.org/2000/svg" xmlns:xlink="http://www.w3.org/1999/xlink"><mask id="a" fill="#fff"><path d="m.165.264h70.672v18.721h-70.672z" fill="#fff" fill-rule="evenodd"/></mask><mask id="b" fill="#fff"><path d="m0 36h182v-36h-182z" fill="#fff" fill-rule="evenodd"/></mask><g fill="#b5c1c9" fill-rule="evenodd" transform="translate(0 4)"><path d="m45.718 11.276c.786-.05 1.513-.199 2.166-.441 1.229-.45 2.154-1.233 2.721-2.123.573-.89.818-1.878.819-2.84-.004-1.274-.42-2.632-1.461-3.741-.52-.555-1.204-1.033-2.027-1.36-.821-.329-1.77-.503-2.807-.503h-.014l-9.548-.004c-.027 0-.054.01-.074.026-.02.017-.032.039-.032.064v18.525c0 .023.013.046.032.063.02.016.047.025.074.025h3.314c.028 0 .055-.009.075-.025.02-.017.03-.04.03-.063v-15.78h6.136c.636.001 1.245.123 1.621.287.475.208.813.447 1.1.899.287.448.43 1.018.43 1.578v.013c0 .75-.268 1.468-.73 1.92-.235.233-.517.418-.9.562-.392.144-.88.283-1.521.285l-4.308-.001c-.177-.001-.321.045-.418.124-.098.08-.142.186-.142.291 0 .103.042.2.118.293l7.301 9.584c.021.021.05.033.083.033h4.018c.04 0 .076-.02.095-.05.017-.031.012-.067-.015-.094zm-29.592-5.027h-.104.104c-.003-1.36-.417-2.808-1.46-3.993-.522-.591-1.204-1.103-2.028-1.452-.822-.35-1.771-.536-2.805-.536h-.016l-9.547-.004c-.028 0-.056.01-.074.028-.02.017-.031.042-.031.067v18.53c0 .027.01.05.031.067.018.019.046.029.074.029h3.314c.028 0 .054-.01.074-.029.02-.017.03-.04.03-.067v-15.766h6.137c.635.001 1.111.133 1.493.294.562.243.94.604 1.227 1.098.279.483.43 1.126.43 1.724v.015c0 .8-.268 1.566-.729 2.048-.236.248-.518.448-.901.6-.392.154-.88.303-1.52.304h-4.528c-.182 0-.335.05-.443.136-.109.085-.168.203-.168.327 0 .099.04.198.114.285l1.792 2.045c.02.023.05.037.082.037h3.152c1.015 0 1.945-.168 2.76-.49 1.229-.48 2.155-1.316 2.723-2.266.572-.95.816-2.002.817-3.031zm13.958 12.676c.016.036.053.06.097.06h3.64c.034 0 .066-.016.085-.042.02-.026.023-.06.01-.089l-5.826-15.246c-1.42-3.141-2.428-3.344-4.291-3.344h-1.515c-.04 0-.079.023-.094.058l-7.268 18.532c-.013.03-.01.063.01.089.019.026.05.042.085.042h3.642c.042 0 .08-.024.094-.06l5.472-14.8s.375-.035.523.317zm40.725-.1-9.17-9.835 9.063-8.565c.03-.028.037-.068.02-.104-.016-.034-.056-.057-.095-.057h-4.332c-.03 0-.056.01-.076.03l-8.138 8.144.001-8.079c0-.025-.012-.05-.031-.067-.02-.018-.047-.028-.075-.028h-3.314c-.028 0-.055.01-.074.028-.02.017-.032.042-.032.067v18.53c0 .027.011.05.032.067.019.019.046.029.074.029h3.314c.029 0 .054-.01.075-.029.019-.017.031-.04.031-.067v-9.346l8.244 9.412c.02.019.047.03.076.03h4.33c.042 0 .08-.022.097-.058.015-.034.008-.076-.02-.102z" mask="url(#a)" transform="translate(111 17)"/><path d="m74 17h-14v1.999h5.826v17.001h2.239v-17.001h5.935z"/><path d="m36 36h2v-19h-2zm41-5.406v.01c.008 1.694.452 2.988 1.377 3.91.928.923 2.407 1.486 4.527 1.486h.001c.002-.002.005 0 .007 0h7.088v-1.854h-7.095c-1.076-.003-1.977-.329-2.624-.96-.65-.63-.998-1.566-.997-2.592v-3.807h10.716v-2h-10.716v-5.787h10.716v-2l-13 .001zm20.363-4.596h4.056c.671 0 1.236-.102 1.63-.271.419-.179.753-.454 1.022-.763.548-.631.83-1.55.833-2.502v-.014c0-.709-.15-1.427-.481-2.032-.32-.592-.694-.864-1.183-1.105-.447-.223-1.127-.314-1.786-.302h-6.19v16.991h-2.264v-19l8.606.005c.91 0 1.731.178 2.43.5.701.323 1.275.791 1.71 1.324.872 1.077 1.215 2.382 1.219 3.63-.001.935-.205 1.88-.68 2.738-.467.848-1.12 1.584-2.154 2.052-.61.276-1.228.435-1.997.483l-1.688.036 6.554 8.232h-2.755l-7.186-9.37c-.168-.225-.096-.632.304-.632m-39.363 10v-13.59c-.004-1.703-.467-3-1.421-3.923-.959-.923-2.481-1.485-4.674-1.485h-8.905v19h2.317v-17.175h6.59c1.123.003 2.063.335 2.737.971.675.635 1.042 1.58 1.039 2.613v13.59h2.317zm-44.615-29.998c-1.125-.638-2.263-1.495-2.917-2.696-.24-.437-.562-1.172-.442-1.678.152-.647.883-1.037 1.432-.7.591.36 1.019 1.072 1.247 1.723.47-3.44 4.201-3.506 3.089-.335-.614 1.75-1.949 1.932-2.409 3.686m-10.595 12c-1.456-1.18-3.261-2.866-2.676-4.67.181-.558.683-.75 1.133-.504.377.206.649.598.824 1.005.099.226.298.696.354.922.06-.344.086-.553.278-.964.292-.627 1.083-2.174 2.482-1.7.37.124 1.727 1.306-.171 3.377-.574.624-1.968 1.357-2.224 2.534m8.875 4c2.352-1.213 2.784-5.383 1.932-6.48-.983-1.327-2.391.034-2.126 2.404-2.237-3.81-7.962-2.098-4.25 1.038 1.37 1.156 3.802 1.301 4.444 3.038m6.267-13c-1.46-1.489-.966-5.008-.138-5.73.965-.884 1.715.528 1.066 2.42 2.348-2.662 6.142-.056 2.86 1.742-1.21.665-2.99.274-3.788 1.568m-1.383 7c-2.034-1.165-2.897-4.193-2.421-5.264.536-1.286 1.875-.334 2.006 1.738.823-3.936 5.53-2.733 3.247.518-.843 1.2-2.372 1.68-2.832 3.008m8.551 0c-1.814-2.098-3.917-5.334-2.776-7.314.992-1.607 3.083-.25 2.652 2.598 2.254-4.565 8.503-2.654 4.96 1.271-1.884 2.087-4.3 1.962-4.837 3.445m-14.382-3c1.968-1.717 1.356-5.82.264-6.676-1.276-1.045-2.298.587-1.458 2.804-3.09-3.139-8.19-.162-3.84 1.984 1.605.793 3.984.367 5.034 1.888m9.005 8c-.984-2.46-1.162-5.906.748-6 .844 0 2.154 1.049 1.136 3.57 1.27-1.299 3.34-1.136 3.394.34 0 1.456-1.669 2.152-2.9 2.051-1.453-.118-1.673-.418-2.378.039m-3.23-1.632c-2.702 4.64-3.422 10.63-3.492 16.532 1.036.149 1.806.12 2.562 0-.255-2.3-.282-3.841-.291-5.799-.003-.567.045-1.176.073-1.743.094-1.7.416-3.454.915-5.069.215-.694.37-1.118.497-1.481.331-.938.751-1.794 1.244-2.645-.542-.137-1.178-.347-1.48.16l-.028.046z" mask="url(#b)"/></g></svg>