<svg xmlns="http://www.w3.org/2000/svg" xmlns:xlink="http://www.w3.org/1999/xlink" width="132" height="29" viewBox="0 0 132 29">
  <defs>
    <polygon id="logo-yandex-a" points="0 .038 66.178 .038 66.178 24.517 0 24.517"/>
    <polygon id="logo-yandex-c" points=".716 .217 58.128 .217 58.128 26.239 .716 26.239"/>
  </defs>
  <g fill="none" fill-rule="evenodd">
    <mask id="logo-yandex-b" fill="#fff">
      <use xlink:href="#logo-yandex-a"/>
    </mask>
    <path fill="#A2AEB5" d="M65.8422471,8.80132798 L62.9584369,16.0583693 L66.1783968,24.3005482 L63.6952603,24.3005482 L61.3037064,17.9034151 L58.9714731,24.3005482 L56.6111405,24.3005482 L59.8300596,16.2743899 L56.9171095,8.80132798 L59.4012867,8.80132798 L61.3963297,14.429344 L63.5120952,8.80132798 L65.8422471,8.80132798 Z M51.1827919,10.554539 C50.4470092,10.554539 49.925613,10.969883 49.6196439,11.7995275 C49.3115935,12.629172 49.1180212,13.7426697 49.0368458,15.1358463 L52.9925883,15.1358463 C52.9925883,14.4794358 52.961367,13.8699862 52.899965,13.3064541 C52.8520923,12.8117982 52.7542655,12.3223601 52.6085659,11.845445 C52.4753549,11.4353188 52.2911491,11.1180711 52.0569891,10.8916147 C51.8217884,10.6672454 51.5074937,10.5451468 51.1827919,10.554539 L51.1827919,10.554539 Z M55.3841422,23.254883 C54.8887638,23.6472683 54.3351055,23.957211 53.7439817,24.1763624 C53.1403693,24.4028188 52.4503779,24.5155252 51.6740075,24.5155252 C50.0796382,24.5155252 48.8214186,23.8956399 47.90143,22.6548257 C46.9814415,21.415055 46.5214472,19.595055 46.5214472,17.1969128 C46.5214472,15.9467064 46.608867,14.7977271 46.781625,13.7520619 C46.9554237,12.7063968 47.2322529,11.7995275 47.610031,11.0304106 C47.9888498,10.2612936 48.4738211,9.66227982 49.064945,9.23232569 C49.6602317,8.80132798 50.364793,8.58530734 51.1827919,8.58530734 C51.8165849,8.58530734 52.399383,8.71366743 52.9311864,8.97143119 C53.461949,9.2271078 53.9125768,9.64245183 54.2799478,10.2153761 C54.6483595,10.7903876 54.9355958,11.5334151 55.1395751,12.4465459 C55.3435545,13.358633 55.4455442,14.4700436 55.4455442,15.7807775 L55.4455442,17.105078 L49.0077058,17.105078 C49.0077058,18.8676812 49.2460287,20.2003303 49.7268372,21.1019817 C50.2076456,22.0046766 50.9278177,22.4544587 51.8883939,22.4544587 C52.5638154,22.4544587 53.1466135,22.337578 53.6367884,22.1006858 C54.056195,21.9076239 54.4568687,21.6759495 54.8325654,21.4098372 L55.3851829,23.254883 L55.3841422,23.254883 Z M41.736258,11.2954794 C41.5135459,11.063805 41.2481646,10.8749174 40.9557248,10.7402959 C40.6788956,10.6161101 40.3365017,10.554539 39.9275023,10.554539 C39.4373274,10.554539 39.0127173,10.7246422 38.6547127,11.0648486 C38.2977489,11.405055 38.0001055,11.8569243 37.7659455,12.4246307 C37.5151342,13.0497339 37.3402947,13.7040573 37.2445493,14.3709037 C37.1300711,15.1337592 37.072832,15.9039197 37.0759541,16.6751239 C37.0759541,18.5097339 37.26016,19.9467408 37.6285717,20.9861445 C37.9959427,22.0276353 38.6193286,22.5462936 39.4987294,22.5462936 C40.0908939,22.5462936 40.562336,22.424195 40.9088928,22.1758234 C41.257531,21.929539 41.5333194,21.6509037 41.736258,21.3420046 L41.736258,11.2954794 Z M39.2229409,24.5155252 C37.6889329,24.5155252 36.5243773,23.890422 35.7271927,22.639172 C34.9289673,21.3889656 34.530375,19.5543555 34.530375,17.1353417 C34.530375,14.2644587 35.016387,12.1219931 35.9873704,10.707945 C36.9583538,9.29389679 38.2217769,8.58530734 39.7745178,8.58530734 C40.1418888,8.58530734 40.5050969,8.64270413 40.8641422,8.75541055 C41.2211061,8.86811697 41.5125052,9.00586927 41.736258,9.17075459 L41.736258,2.31236009 L44.1298933,2.31236009 L44.1298933,24.3015917 L42.3523589,24.3015917 L42.1671124,23.0712133 L42.0141279,23.0712133 C41.6842225,23.4855138 41.2835487,23.8392867 40.8329209,24.1168784 C40.3927001,24.3829908 39.8556932,24.5165688 39.2229409,24.5165688 L39.2229409,24.5155252 Z M25.8820665,24.3015917 L23.4905126,24.3015917 L23.4905126,8.77106422 L25.8820665,8.77106422 L25.8820665,10.1245849 L26.035051,10.1245849 C26.168262,9.94613303 26.3170837,9.78124771 26.4804753,9.63097248 C26.6750883,9.44730275 26.9040447,9.27824312 27.169426,9.12483716 C27.4358481,8.97038761 27.7272471,8.8430711 28.044664,8.73975688 C28.3610401,8.63748624 28.7034341,8.58530734 29.0718458,8.58530734 C31.1366164,8.58530734 32.1690017,9.75411468 32.1690017,12.0917294 L32.1690017,24.3005482 L29.7472672,24.3005482 L29.7472672,12.30775 C29.7472672,11.7139541 29.6244633,11.3027844 29.3788555,11.0773716 C29.1342884,10.8509151 28.7762838,10.7392523 28.3069232,10.7392523 C27.8063412,10.735078 27.3182477,10.903094 26.9258997,11.2151239 C26.5314702,11.518805 26.1797099,11.8757087 25.8831072,12.2764427 L25.8831072,24.3015917 L25.8820665,24.3015917 Z M18.1537466,16.2138624 L17.8789989,16.2138624 C17.1432162,16.2138624 16.5385631,16.2900436 16.0702431,16.4455367 C15.598801,16.6010298 15.2303893,16.8285298 14.965008,17.1280367 C14.698586,17.4296307 14.5154209,17.7854908 14.4134312,18.2008349 C14.3093601,18.6140917 14.259406,19.0701353 14.259406,19.5658349 C14.259406,20.4768784 14.4071869,21.2021651 14.7037896,21.7396078 C15.0003922,22.278094 15.4541422,22.5462936 16.0692024,22.5462936 C16.4771611,22.5462936 16.8715906,22.4294128 17.248328,22.1904335 C17.6125768,21.9660642 17.9227087,21.6634266 18.1537466,21.3033922 L18.1537466,16.2138624 Z M20.5151198,20.7941261 C20.5151198,21.5319358 20.5473819,22.2092179 20.6077431,22.8238853 C20.6691451,23.4385528 20.730547,23.9311216 20.791949,24.3005482 L18.7677661,24.3005482 C18.6678578,23.8956399 18.5970894,23.4834266 18.5533796,23.0701697 L18.4003951,23.0701697 C18.0673675,23.4865573 17.6614903,23.8413739 17.2035774,24.1158349 C16.7529495,24.3819472 16.1920063,24.5155252 15.5165849,24.5155252 C14.4134312,24.5155252 13.5184197,24.1158349 12.8346726,23.3164541 C12.148844,22.5170734 11.8064501,21.3472225 11.8064501,19.8100321 C11.8064501,18.9908234 11.9188469,18.242578 12.1436405,17.5652959 C12.3694748,16.8890573 12.7212351,16.3203073 13.2020436,15.8590459 C13.6818114,15.3977844 14.3010344,15.0398372 15.0565906,14.783117 C15.8131875,14.5263968 16.733176,14.3969931 17.8175969,14.3969931 L18.1537466,14.3969931 L18.1537466,13.4682087 C18.1537466,12.4340229 17.9861921,11.6909954 17.647961,11.2359954 C17.3107706,10.7809954 16.8060258,10.554539 16.1306044,10.554539 C15.5176256,10.554539 14.9546009,10.6964656 14.4436118,10.9782317 C13.9513555,11.2485183 13.4882391,11.5699404 13.0646697,11.9372798 L12.6036347,9.81672936 C12.9512322,9.52870183 13.4570178,9.25319725 14.1209914,8.98604128 C14.8099421,8.71471101 15.5436433,8.57904587 16.2825482,8.58530734 C16.9590103,8.58530734 17.561582,8.66879358 18.0923446,8.83159174 C18.6012523,8.98082339 19.0612466,9.26258945 19.4275768,9.64662615 C19.7845407,10.0264885 20.0561663,10.5284495 20.2393314,11.1535528 C20.4235373,11.7796995 20.5151198,12.5634266 20.5151198,13.5057775 L20.5151198,20.7941261 Z M5.2447672,24.3015917 L5.2447672,16.4277959 L-0.000416284404,2.31236009 L2.63674541,2.31236009 L6.49986468,13.1989656 L10.9478635,0.0373600917 L13.3706388,0.0373600917 L7.66650172,16.5196307 L7.66650172,24.3005482 L5.2447672,24.3005482 L5.2447672,24.3015917 Z" mask="url(#logo-yandex-b)"/>
    <g transform="translate(72.66 2.385)">
      <mask id="logo-yandex-d" fill="#fff">
        <use xlink:href="#logo-yandex-c"/>
      </mask>
      <path fill="#A2AEB5" d="M50.5724697,26.2387339 C50.4095025,26.2387339 50.2610674,26.2336881 50.1292404,26.2235963 C50.0109075,26.2165321 49.8936126,26.2024037 49.7763177,26.1822202 L49.6247685,24.9298349 C49.7472535,24.9702018 49.8853085,24.9994679 50.0378957,25.0196514 C50.1904828,25.0398349 50.3690202,25.0499266 50.5735077,25.0499266 C51.1018537,25.0499266 51.5513111,24.8157982 51.9187659,24.3475413 C52.2851827,23.8802936 52.5820529,23.2293761 52.8062626,22.3937798 L52.9277096,21.9467156 L49.1057646,6.49322936 L50.5423675,6.49322936 L52.988952,16.2761651 C53.1321971,16.8513945 53.253644,17.4165321 53.3574448,17.9725872 C53.4581316,18.5256147 53.5494763,19.0917615 53.6314789,19.6669908 L53.7228236,19.6669908 C53.8255864,19.071578 53.9376912,18.4973578 54.0591381,17.9413028 C54.1826611,17.3872661 54.3144881,16.8322202 54.4577332,16.2761651 L56.8430752,6.49322936 L58.128129,6.49322936 L54.1826611,22.2545138 C54.0591381,22.7691927 53.902399,23.2657064 53.7082915,23.7410275 C53.514184,24.2163486 53.2754422,24.6381835 52.988952,25.0045138 C52.7034999,25.3718532 52.3671853,25.6695596 51.9800084,25.8966239 C51.5917934,26.1246972 51.1236519,26.2387339 50.5735077,26.2387339 L50.5724697,26.2387339 Z M43.6302731,7.38433028 C42.814399,7.38433028 42.1168577,7.87277064 41.5355733,8.84965138 C40.9522128,9.82552294 40.6325064,11.2514862 40.571264,13.1235046 L46.1692404,13.1235046 C46.2917253,11.1324037 46.0934658,9.67818349 45.5723858,8.76084404 C45.0523439,7.84350459 44.405665,7.38433028 43.6313111,7.38433028 L43.6302731,7.38433028 Z M40.5401237,14.2245138 C40.581644,16.2953394 40.8764383,17.8746972 41.4276204,18.9605688 C41.9788026,20.0454312 42.814399,20.588367 43.9354474,20.588367 C44.4461473,20.588367 44.8935287,20.507633 45.2807056,20.3461651 C45.6678826,20.1846972 45.9969311,19.9939633 46.2605851,19.7709358 C46.5667974,19.5489174 46.8314894,19.2774495 47.0556991,18.9535046 L47.5144986,20.0817615 C47.2684907,20.4198349 46.9736965,20.7074495 46.6270018,20.9456147 C46.3218275,21.1646055 45.9429547,21.3573578 45.4955733,21.5248807 C45.0471539,21.6934128 44.5167318,21.7771743 43.9053452,21.7771743 C42.2735969,21.7771743 41.0715837,21.0939633 40.2961919,19.7265321 C39.521838,18.3570826 39.1336231,16.4446972 39.1336231,13.9863486 C39.1336231,12.7571743 39.2457279,11.6622202 39.4709756,10.7014862 C39.6951853,9.73873394 40.0045117,8.92231193 40.4031067,8.24717431 C40.8006637,7.57304587 41.2739953,7.06240367 41.8241394,6.71524771 C42.3607895,6.37313761 42.9887843,6.19249541 43.6313111,6.1954855 C44.3029022,6.1954855 44.9049468,6.36405505 45.4343308,6.70111927 C45.9647528,7.03818349 46.4017541,7.54478899 46.7505248,8.21790826 C47.0961814,8.89304587 47.3421893,9.72965138 47.4833583,10.7297431 C47.6266034,11.7318532 47.6369835,12.8974495 47.5155366,14.2245138 L40.5401237,14.2245138 Z M33.1090254,7.38433028 C32.3325955,7.38433028 31.6599664,7.67194495 31.0890621,8.24717431 C30.5191958,8.82240367 30.0385982,9.58533945 29.6524592,10.5369908 L29.6524592,21.4804771 L28.2137803,21.4804771 L28.2137803,6.49423853 L29.5310123,6.49423853 L29.5901788,8.96166972 L29.6524592,8.96166972 C29.753146,8.68414679 29.9109232,8.38845872 30.1268288,8.06955963 C30.3406585,7.7526789 30.6001604,7.45598165 30.9053347,7.17845872 C31.2229651,6.89286239 31.5841919,6.6567156 31.9765588,6.47910092 C32.3844959,6.29038532 32.8536755,6.19653211 33.3830595,6.19653211 C34.4221054,6.19653211 35.2234474,6.50433028 35.7850097,7.11891743 C36.3444959,7.73350459 36.6257961,8.63469725 36.6257961,9.82451376 L36.6257961,21.4814862 L35.1891932,21.4814862 L35.1891932,10.0011193 C35.1891932,8.25827523 34.4947659,7.38433028 33.1090254,7.38433028 L33.1090254,7.38433028 Z M20.8740267,20.588367 C21.7708655,20.588367 22.5410674,20.0464404 23.1835942,18.9646055 C23.8250831,17.8817615 24.1468655,16.2166239 24.1468655,13.9722202 C24.1468655,12.8106606 24.0596729,11.811578 23.8863256,10.9739633 C23.7129782,10.1373578 23.4773505,9.45212844 23.1835942,8.92130275 C22.887762,8.38946789 22.5410674,8.00093578 22.1424723,7.75469725 C21.7656755,7.51451376 21.3245221,7.38533945 20.8740267,7.38433028 C19.9761499,7.38433028 19.2069861,7.91717431 18.5644592,8.97983486 C17.9219324,10.0435046 17.6001499,11.707633 17.6001499,13.9722202 C17.6001499,15.1337798 17.6873426,16.1328624 17.8596519,16.9694679 C18.0329992,17.8070826 18.268627,18.4913028 18.5644592,19.0231376 C18.8582155,19.5539633 19.2069861,19.9495596 19.6045431,20.2048807 C20.0021001,20.4602018 20.4256073,20.588367 20.8740267,20.588367 L20.8740267,20.588367 Z M20.8740267,21.7772837 C20.2180058,21.7822202 19.5734029,21.6126789 19.0087266,21.2877248 C18.4378223,20.9607523 17.9416545,20.4793761 17.5233374,19.8446055 C17.1070962,19.210844 16.7749337,18.4135963 16.5299638,17.450844 C16.286032,16.4891009 16.1635471,15.3648807 16.1635471,14.0761651 C16.1635471,12.8257982 16.286032,11.7116697 16.5299638,10.7297431 C16.7749337,9.74882569 17.1070962,8.92634862 17.5233374,8.26231193 C17.9416545,7.59827523 18.4367843,7.08763303 19.0087266,6.73038532 C19.5630228,6.37818349 20.2117777,6.19249541 20.8740267,6.1954865 C21.5466558,6.1954865 22.1694606,6.3539633 22.7403649,6.67084404 C23.3102312,6.98873394 23.8053609,7.46910092 24.2226401,8.1139633 C24.6419953,8.75882569 24.9731198,9.56111927 25.2180896,10.5228624 C25.4620215,11.4835963 25.5855444,12.6088257 25.5855444,13.8975413 C25.5855444,15.1468991 25.4620215,16.2559817 25.2170516,17.2278165 C24.9731198,18.1996514 24.6419953,19.0221284 24.2226401,19.6972661 C23.8053609,20.3713945 23.3102312,20.8860734 22.7403649,21.2433211 C22.1694606,21.5995596 21.5466558,21.7772837 20.8740267,21.7772837 L20.8740267,21.7772837 Z M2.7057751,2.59781651 C2.7057751,3.1720367 2.69850904,3.85726606 2.68916697,4.64845872 C2.6798249,5.41240367 2.65491271,6.17533945 2.6133924,6.93827523 L1.96982752,21.4804771 L0.715914024,21.4804771 L1.66465321,0.217174312 L3.34726396,0.217174312 L6.61906474,13.3324037 C6.76127182,13.8491009 6.87441468,14.3536881 6.9564173,14.8491927 C7.03738191,15.3446972 7.09862438,15.8210275 7.14014469,16.2761651 L7.20138716,16.2761651 C7.30207392,15.3446972 7.48580131,14.3627706 7.75049332,13.3324037 L11.1167528,0.217174312 L12.8294658,0.217174312 L13.778205,21.4804771 L12.3083858,21.4804771 L11.665859,6.82020183 C11.6243387,5.98662385 11.6035785,5.23377982 11.6035785,4.55965138 L11.6035785,2.56653211 L11.5122338,2.56653211 C11.409471,3.2426789 11.3035942,3.89056881 11.1914894,4.51524771 C11.0793845,5.13992661 10.9423675,5.76965138 10.7783623,6.40341284 L7.72039109,18.1502018 L6.52668204,18.1502018 L3.49985111,6.40341284 C3.33584587,5.82818349 3.19882883,5.23377982 3.08776199,4.61919266 C2.96735308,3.94910092 2.86978034,3.2739633 2.79711979,2.59781651 L2.7057751,2.59781651 Z" mask="url(#logo-yandex-d)"/>
    </g>
  </g>
</svg>
