<svg xmlns="http://www.w3.org/2000/svg" xmlns:xlink="http://www.w3.org/1999/xlink" width="66" height="41" viewBox="0 0 66 41">
  <defs>
    <polygon id="group-10-a" points=".238 .04 33.232 .04 33.232 40.197 .238 40.197"/>
  </defs>
  <g fill="none" fill-rule="evenodd">
    <path fill="#B5C1C9" d="M12.5062659,0 L28.4459156,0 C30.6709536,0 32.0547609,1.82503834 31.5356769,4.07131675 L24.1148014,36.1320874 C23.5909691,38.3710727 21.3631819,40.1973684 19.1366443,40.1973684 L3.19874406,40.1973684 C0.976705061,40.1973684 -0.410351116,38.3710727 0.10898271,36.1320874 L7.53285725,4.07131675 C8.05194116,1.82503834 10.2784787,0 12.5062659,0"/>
    <path fill="#98ADB9" d="M27.486164,0 L46.4632699,0 C48.766583,0 47.7277376,1.82503834 47.1859338,4.07131675 L39.5044285,36.1320874 C38.9654709,38.3710727 39.1333938,40.1973684 36.8254234,40.1973684 L17.8483174,40.1973684 C15.5406057,40.1973684 14.1120962,38.3710727 14.6544175,36.1320874 L22.335664,4.07131675 C22.8810902,1.82503834 25.1812984,0 27.486164,0"/>
    <g transform="translate(31.645)">
      <mask id="group-10-b" fill="#fff">
        <use xlink:href="#group-10-a"/>
      </mask>
      <path fill="#879FAC" d="M13.2764371,0.040448602 L29.8962181,0.040448602 C32.2193601,0.040448602 33.6622358,1.86365049 33.1168251,4.10766859 L25.3802282,36.136178 C24.8342964,38.3729104 22.5098515,40.1973684 20.1869701,40.1973684 L3.57474609,40.1973684 C1.25030119,40.1973684 -0.191532175,38.3729104 0.352836143,36.136178 L8.09073602,4.10766859 C8.63197728,1.86365049 10.9517316,0.040448602 13.2764371,0.040448602" mask="url(#group-10-b)"/>
    </g>
    <path fill="#FEFEFE" d="M37.8455959,29.5634093 C37.8210397,29.6529055 37.782159,29.7075833 37.7276749,29.7483338 C37.6673076,29.7875367 37.5693385,29.801722 37.4235361,29.801722 L36.9989183,29.801722 L37.0242419,29.0731145 L35.2595203,29.0731145 L35.1876422,32.634651 C35.1850843,32.8915335 35.2096405,33.04035 35.3961142,33.1595063 C35.5825879,33.3083228 36.1571008,33.3271505 36.9306214,33.3271505 L38.0364181,33.3271505 L38.435968,31.9939923 L37.4731601,32.0473805 L37.1529062,32.0662082 C37.1091654,32.0473805 37.067471,32.0298423 37.0209166,31.9831599 C36.9802454,31.9426674 36.9122042,31.9674271 36.9232033,31.7105446 L36.9306214,30.7975285 L37.9402396,30.7554885 C38.485592,30.7554885 38.7183644,30.576754 38.9171162,30.4062728 C39.107171,30.243271 39.1690731,30.0555095 39.2406954,29.801722 L39.4100309,28.9934191 L38.0226052,28.9934191 L37.8455959,29.5634093 Z M35.5871922,24.9557731 L38.5897001,24.9557731 L38.3738101,25.6763852 C38.3738101,25.6763852 36.9585029,25.6621999 36.7318695,25.7042399 C35.7347852,25.878332 35.1523427,26.4155671 35.1523427,26.4155671 L35.5871922,24.9557731 Z M34.990681,26.9620872 L37.9681211,26.9620872 L37.7790895,27.5601901 C37.7524869,27.5743754 37.6887943,27.53053 37.3856786,27.566638 L34.8075326,27.566638 L34.990681,26.9620872 Z M33.6178355,31.8815417 C33.5679557,31.8093257 33.6037669,31.682432 33.6797376,31.4175542 L34.4765354,28.7582014 L37.3112426,28.7582014 C37.7243496,28.7522693 38.0226052,28.747369 38.2167527,28.7334416 C38.4252247,28.711261 38.651858,28.636208 38.898699,28.5018347 C39.1537255,28.3604977 39.2841803,28.2119392 39.3944275,28.0412 C39.5172085,27.8707188 39.7144256,27.4977749 39.8837611,26.9228843 L40.8854497,23.5573625 L37.9438207,23.5743849 C37.9438207,23.5743849 37.037799,23.709274 36.6390164,23.8580904 C36.2366527,24.0239292 35.6616282,24.487401 35.6616282,24.487401 L35.9271422,23.5648421 L34.1099828,23.5648421 L31.5658575,32.0726561 C31.4755622,32.4027862 31.4151949,32.6423884 31.4010476,32.7865625 C31.3965219,32.9418268 31.5952737,33.0952857 31.723938,33.2113471 C31.8763912,33.3271505 32.1014897,33.3083228 32.3173797,33.3271505 C32.5442688,33.3441728 32.8673364,33.3550052 33.3129293,33.3550052 L34.7095636,33.3550052 L35.138274,31.895727 L33.8879538,32.0148833 C33.7544294,32.0148833 33.6577394,31.9426674 33.6178355,31.8815417 L33.6178355,31.8815417 Z M29.3135928,23.5493672 L28.7746352,24.5312464 C28.6592722,24.7458309 28.5554199,24.8789146 28.4620552,24.9402982 C28.3796896,24.991881 28.2167489,25.0135458 27.9806512,25.0135458 L27.699278,25.0135458 L27.3235169,26.2695877 L28.2574201,26.2695877 C28.7063383,26.2695877 29.0508926,26.1037489 29.2156238,26.0209585 C29.3926331,25.9255303 29.4391876,25.9796922 29.5757815,25.8468664 L29.8911753,25.5711562 L32.8067133,25.5711562 L33.1934736,24.2635315 L31.0593857,24.2635315 L31.4320773,23.5493672 L29.3135928,23.5493672 Z M29.0695655,31.856524 L29.5867806,30.1210197 L31.7129389,30.1210197 L32.1014897,28.8304173 L29.9735409,28.8304173 L30.298399,27.7623948 L32.3780028,27.7623948 L32.7632283,26.5128008 L27.5596146,26.5128008 L27.1823187,27.7623948 L28.3645977,27.7623948 L28.0492039,28.8304173 L26.8638554,28.8304173 L26.470956,30.1432003 L27.6527235,30.1432003 L26.9633592,32.4388942 C26.8702502,32.7427171 27.0068441,32.8587784 27.0935582,32.9998575 C27.1823187,33.1373257 27.2723581,33.2283694 27.4741794,33.2802101 C27.6826514,33.3271505 27.8253843,33.3550052 28.0192761,33.3550052 L30.41632,33.3550052 L30.8434957,31.9253871 L29.7809281,32.0726561 C29.5757815,32.0726561 29.0074076,32.0476384 29.0695655,31.856524 L29.0695655,31.856524 Z M47.7898366,27.4508345 L50.0062901,27.4508345 L49.6878268,28.4907444 L47.4422128,28.4907444 L47.1048208,29.6278879 L49.0700847,29.6278879 L47.5818762,31.7402048 C47.4777682,31.8954691 47.3844034,31.9504048 47.2805511,31.9942502 C47.176443,32.0476384 47.0395933,32.1100536 46.881257,32.1100536 L46.3361603,32.1100536 L45.9616781,33.3552632 L47.3874729,33.3552632 C48.1287634,33.3552632 48.5664267,33.0153323 48.8897501,32.5691408 L49.9101116,31.1609296 L50.1290712,32.5908056 C50.1758814,32.8585205 50.3667036,33.0153323 50.4958795,33.0762 C50.6386125,33.148416 50.7862055,33.2724727 50.9944217,33.2907846 C51.2179855,33.3003274 51.3793914,33.3083228 51.4868248,33.3083228 L52.1874441,33.3083228 L52.6082249,31.9142968 L52.3319676,31.9142968 C52.1731196,31.9142968 51.8999318,31.8877316 51.8536331,31.8374384 C51.8068229,31.7765707 51.8068229,31.6826899 51.7817551,31.5398055 L51.5594702,30.1068345 L50.6493558,30.1068345 L51.04865,29.6278879 L53.2901712,29.6278879 L53.6349813,28.4907444 L51.5594702,28.4907444 L51.8827936,27.4508345 L53.9519099,27.4508345 L54.3356006,26.1682275 L48.1673883,26.1682275 L47.7898366,27.4508345 Z M44.0867094,31.5668864 L42.5491327,31.5668864 L42.9949814,30.0771743 L44.527698,30.0771743 L44.0867094,31.5668864 Z M44.9456651,28.6865012 C44.9456651,28.6865012 44.4642611,28.747369 44.1473325,28.8195849 C43.8350083,28.9150132 43.249752,29.2154832 43.249752,29.2154832 L43.7777105,27.4508345 L45.3188683,27.4508345 L44.9456651,28.6865012 Z M44.9165046,26.2636557 C44.6075056,26.349799 44.0324811,26.611324 44.0324811,26.611324 L44.543813,24.9152805 L46.0767854,24.9152805 L45.7066517,26.1509472 C45.7066517,26.1509472 45.2331773,26.1790599 44.9165046,26.2636557 L44.9165046,26.2636557 Z M46.4929619,31.5511537 L45.9552833,31.5511537 L47.9451035,24.9152805 L48.6050515,24.9152805 L48.8148025,24.2315501 L48.8350102,24.9916231 C48.810454,25.4618006 49.1770065,25.878332 50.1400703,25.809211 L51.2540524,25.809211 L51.6372315,24.5315043 L51.2179855,24.5315043 C50.9772835,24.5315043 50.8652458,24.4701207 50.8793144,24.3385845 L50.8591067,23.5651 L48.7966411,23.5651 L48.7966411,23.5692266 C48.1295308,23.583154 46.1381759,23.6339631 45.7350448,23.7420291 C45.247246,23.8686649 44.7331004,24.2416088 44.7331004,24.2416088 L44.9349217,23.5571046 L43.0057247,23.5571046 L42.6036168,24.9152805 L40.5871941,31.6527719 L40.1958295,31.6527719 L39.8121388,32.9211936 L43.6549294,32.9211936 L43.5262651,33.3441728 L45.419651,33.3441728 L45.5455016,32.9211936 L46.0767854,32.9211936 L46.4929619,31.5511537 Z M59.8684211,15.2801238 L59.789125,15.1890801 C58.7764372,15.3959272 58.593033,15.4286823 57.6627109,15.5553182 L57.5941582,15.6244392 C57.5910886,15.6357874 57.5882749,15.6528097 57.5834148,15.6685425 L57.5803453,15.6528097 C56.8876556,17.2642573 56.9078633,16.916589 56.3438379,18.1852687 C56.3410242,18.127496 56.3410242,18.091388 56.3376989,18.0300044 L56.1965007,15.2801238 L56.107996,15.1890801 C55.0469632,15.3959272 55.0218954,15.4286823 54.0419493,15.5553182 L53.9659785,15.6244392 C53.9552352,15.6571942 53.9552352,15.6933022 53.9485846,15.7327631 L53.9552352,15.7466905 C54.0775046,16.3778064 54.0480884,16.2369853 54.1708694,17.2330497 C54.2281672,17.7215391 54.3046496,18.2133814 54.3616916,18.6959388 C54.4583816,19.5039838 54.5123541,19.9016874 54.6305309,21.134517 C53.9687923,22.2355525 53.8122464,22.6520839 53.1753198,23.6182303 L53.1794125,23.6277731 L52.7310059,24.343227 C52.6798472,24.4187958 52.6332927,24.4703786 52.5680653,24.4923013 C52.496443,24.5281514 52.4033341,24.5345993 52.2741582,24.5345993 L52.0257824,24.5345993 L51.6561603,25.7733609 L52.9233629,25.7955415 C53.6674671,25.7921887 54.135314,25.4414254 54.3867594,24.9697004 L55.1835571,23.5932126 L55.1710232,23.5932126 L55.2549236,23.4962369 C55.7908117,22.3325283 59.8684211,15.2801238 59.8684211,15.2801238 L59.8684211,15.2801238 Z M48.6426532,18.4029483 C48.8616127,17.4571771 49.1135697,16.6568695 49.7658439,16.6568695 C50.1779278,16.6568695 50.3950967,17.0406457 50.3511002,17.694716 C50.3160564,17.8579757 50.278199,18.0300044 50.233435,18.2244717 C50.1682076,18.5055981 50.0970969,18.7844033 50.0285442,19.0634664 C49.9584567,19.254065 49.8768584,19.434089 49.7875864,19.5540191 C49.6195299,19.7938793 49.2204915,19.9424378 48.9905328,19.9424378 C48.9253054,19.9424378 48.5229417,19.9424378 48.5091289,19.3443349 C48.5060593,19.0464441 48.5666825,18.7397842 48.6426532,18.4029483 L48.6426532,18.4029483 Z M46.4932177,18.3560079 C46.3144178,19.1233025 46.1092712,20.5250659 47.3813339,21.0246456 C47.7867671,21.1987377 48.1502501,21.2505784 48.5196164,21.2314928 C48.9099578,21.2103438 49.2713945,21.0130395 49.6062286,20.7293339 C49.5757891,20.8459111 49.5456054,20.9624883 49.5154218,21.0795813 L49.5732312,21.1546343 C50.4882057,21.1156893 50.7721368,21.1156893 51.7633379,21.1231688 L51.8533773,21.0543057 C51.9979008,20.1964833 52.1342389,19.3631627 52.5105117,17.721797 C52.6939158,16.9356747 52.8768084,16.1570319 53.0648169,15.3737466 L53.0354006,15.2876033 C52.0119695,15.4789756 51.7385259,15.519726 50.7537197,15.6605471 L50.6790279,15.7219307 C50.6690519,15.8016262 50.6588202,15.8782267 50.6493558,15.9548272 C50.4961353,15.7054242 50.274362,15.4923871 49.9318541,15.3598192 C49.4939351,15.186243 48.4658997,15.4098546 47.5818762,16.2215104 C46.9608088,16.8007856 46.6625532,17.5946453 46.4932177,18.3560079 L46.4932177,18.3560079 Z M42.2864325,15.8016262 C42.2864325,15.8016262 42.9622398,12.8381926 42.9589144,12.8492829 L42.9809127,12.6973715 L42.9903771,12.581568 L43.2604954,12.6096807 C43.2604954,12.6096807 44.6538043,12.7303845 44.6862901,12.7334795 C45.2365027,12.948064 45.4628802,13.501032 45.3045438,14.2226758 C45.1605319,14.8821622 44.7359141,15.4366777 44.1910733,15.7046505 C43.7418993,15.9316149 43.1919426,15.9501847 42.6253593,15.9501847 L42.2588067,15.9501847 L42.2864325,15.8016262 Z M41.1092693,21.0762284 C41.1696366,20.7788534 41.5285154,19.0154944 41.5318407,19.0154944 C41.5318407,19.0154944 41.8375143,17.7215391 41.856443,17.6745987 C41.856443,17.6745987 41.9526215,17.5399675 42.0488,17.4865793 L42.190254,17.4865793 C43.5260093,17.4865793 45.0344255,17.4865793 46.2167046,16.6096712 C47.0209204,16.0084733 47.5708771,15.120217 47.8161834,14.0408463 C47.879876,13.7764843 47.9266863,13.4615711 47.9266863,13.1469158 C47.9266863,12.7334795 47.8445765,12.3246855 47.6066882,12.004872 C47.0037822,11.1547869 45.8033418,11.1387963 44.4174508,11.1326063 C44.4131023,11.1326063 43.7342255,11.1387963 43.7342255,11.1387963 C41.9605511,11.1609769 41.2491885,11.1547869 40.9568162,11.1184211 C40.9320042,11.2489256 40.8857055,11.4805325 40.8857055,11.4805325 C40.8857055,11.4805325 40.2500578,14.4498981 40.2500578,14.4547985 C40.2500578,14.4547985 38.7296193,20.768021 38.6579971,21.065396 C40.2068287,21.0465683 40.8419647,21.0465683 41.1092693,21.0762284 L41.1092693,21.0762284 Z M34.0450112,21.0388309 L34.1179124,20.9637779 C34.2217647,20.4092624 34.2386471,20.2790158 34.4686058,19.1563155 C34.5834572,18.6239807 34.8213455,17.4540821 34.9331274,17.0375508 C35.1446689,16.9382538 35.3493039,16.8412781 35.5547064,16.8412781 C36.0251112,16.8412781 35.9678134,17.2580674 35.9491404,17.4239062 C35.9320023,17.7029693 35.7595972,18.6128904 35.5792626,19.3941124 L35.4674807,19.8985924 C35.3820455,20.2715363 35.2889366,20.6331319 35.2068268,21.0027229 L35.2423821,21.0764863 C36.2039111,21.0249035 36.4852843,21.0249035 37.308173,21.0388309 L37.4076768,20.9637779 C37.5522003,20.0974442 37.591081,19.8655794 37.8614551,18.605153 L37.9901194,18.025362 C38.2477038,16.8915714 38.3784144,16.3169386 38.1875922,15.8485665 C37.9763065,15.3239692 37.4808339,15.1970754 37.0349852,15.1970754 C36.7397992,15.1970754 36.197772,15.2687755 35.7161123,15.5086357 C35.543963,15.5996794 35.3713022,15.7043925 35.2019667,15.8093636 L35.3493039,15.2331834 L35.2705194,15.1356918 C34.2435072,15.3458919 34.0089443,15.3740045 33.0614839,15.5086357 L32.9888385,15.5620239 C32.8737313,16.4830354 32.7801107,17.175019 32.3718638,18.9855763 C32.2163412,19.6528002 32.0549352,20.326472 31.8935293,20.9918905 L31.9367585,21.0764863 C32.9108214,21.0249035 33.2014032,21.0249035 34.0450112,21.0388309 L34.0450112,21.0388309 Z M28.1126408,18.3010722 C28.3285308,17.3380208 28.5835572,16.5297178 29.2340409,16.5297178 C29.743838,16.5297178 29.7809281,17.1311736 29.554039,18.09732 C29.5136236,18.3119046 29.3276615,19.1093751 29.0757046,19.4490481 C28.8999742,19.6994827 28.6920138,19.8516521 28.462311,19.8516521 C28.3937582,19.8516521 27.987046,19.8516521 27.9806512,19.2424588 C27.9775817,18.9417309 28.0384606,18.6345552 28.1126408,18.3010722 L28.1126408,18.3010722 Z M28.1857978,21.1626297 C29.122259,21.1626297 30.0822533,20.9023943 30.8048708,20.1301993 C31.3607108,19.5039838 31.6157372,18.57214 31.7037303,18.1883637 C31.9912426,16.916589 31.767423,16.3228707 31.4863056,15.961275 C31.0593857,15.4101125 30.3045381,15.2331834 29.5215532,15.2331834 C29.0508926,15.2331834 27.9294924,15.2801238 27.0533986,16.0943587 C26.4244016,16.6818872 26.133564,17.4788419 25.9583452,18.2430415 C25.7813359,19.0216843 25.577724,20.4234477 26.8561815,20.9449501 C27.2506156,21.1156893 27.8192453,21.1626297 28.1857978,21.1626297 L28.1857978,21.1626297 Z M25.386646,14.7833811 C24.9236592,14.5079288 24.1115138,14.5953617 23.5646266,14.9757851 C23.01953,15.3487289 22.9573721,15.8779688 23.4188241,16.1572898 C23.8736255,16.4250047 24.6890963,16.3453092 25.2311234,15.9615329 C25.7751968,15.5805937 25.843238,15.0559964 25.386646,14.7833811 L25.386646,14.7833811 Z M25.3759027,16.3839963 C24.8663614,16.4827774 24.5415032,16.5485455 24.2186914,16.5911014 C23.8986933,16.6426842 23.5863691,16.6896246 23.0942218,16.7587456 L23.0550853,16.7943377 L23.01953,16.8227083 C22.9681154,17.1925572 22.9323043,17.5118549 22.8642631,17.8876358 C22.8067095,18.2760545 22.717949,18.7176035 22.5736813,19.3518144 C22.4618994,19.8374668 22.40409,20.0066585 22.3406531,20.1773976 C22.2784952,20.3483947 22.2101983,20.5142335 22.0846035,20.9918905 L22.1140198,21.0359938 L22.138576,21.0762284 C22.5987491,21.0543057 22.8995626,21.038573 23.2090732,21.0359938 C23.5180721,21.0246456 23.8380702,21.0359938 24.3335428,21.038573 L24.3770278,21.0029808 L24.4233265,20.9637779 C24.4949487,20.5330612 24.5056921,20.4172578 24.5496886,20.2070578 C24.5929178,19.9818987 24.6676096,19.6698226 24.8510137,18.8367599 C24.9377279,18.4455041 25.0344179,18.05528 25.1242015,17.6560289 C25.2175663,17.2583253 25.3152795,16.8665537 25.4083885,16.47504 L25.3945756,16.4278417 L25.3759027,16.3839963 Z M20.7235246,15.1970754 C20.4285943,15.1970754 19.8893809,15.2692914 19.4051632,15.5083778 C19.2294328,15.5994215 19.0631669,15.7046505 18.8876923,15.8091057 L19.0460287,15.2329255 L18.9593146,15.1362077 C17.9323024,15.3458919 17.7023437,15.3737466 16.7536044,15.5083778 L16.6740525,15.561766 C16.5638054,16.4827774 16.4660921,17.1752769 16.0578452,18.9855763 C15.9023226,19.6525423 15.7409167,20.3262141 15.5789992,20.9918905 L15.6227399,21.0764863 C16.5950122,21.0246456 16.8899425,21.0246456 17.7350853,21.038573 L17.8033823,20.9637779 C17.9108157,20.4092624 17.9246285,20.2792737 18.1625168,19.1563155 C18.2742987,18.6237228 18.5070711,17.4538242 18.6221783,17.0372929 C18.8332082,16.9387697 19.0416802,16.841536 19.240432,16.841536 C19.7141621,16.841536 19.6563527,17.2583253 19.6381914,17.4241641 C19.6177279,17.7029693 19.4453228,18.6128904 19.2683135,19.3943703 L19.1501368,19.8988503 C19.0677711,20.2712784 18.9777317,20.6333898 18.8953661,21.0027229 L18.9311772,21.0764863 C19.8893809,21.0246456 20.1817533,21.0246456 21.0000377,21.038573 L21.096472,20.9637779 C21.2443208,20.0977022 21.28755,19.8658373 21.5499944,18.6048951 L21.681984,18.0256199 C21.9385452,16.8918293 22.0672095,16.3169386 21.8733178,15.8485665 C21.6681712,15.3237113 21.1757681,15.1970754 20.7235246,15.1970754 L20.7235246,15.1970754 Z M16.5592011,11.1764517 C14.8817052,11.193732 14.3862326,11.1764517 14.2278962,11.1387963 C14.1670172,11.4302393 13.0348738,16.6958145 13.0318042,16.7001991 C12.7880327,17.7656424 12.6107676,18.5249417 12.0083732,19.0154944 C11.6663768,19.3004895 11.2670826,19.4379578 10.8040958,19.4379578 C10.0602474,19.4379578 9.62667685,19.0655297 9.5540314,18.3591029 L9.53996274,18.1164057 C9.53996274,18.1164057 9.76685186,16.6893667 9.76685186,16.6816292 C9.76685186,16.6816292 10.9550142,11.8831365 11.1675788,11.2486677 C11.1788338,11.2128176 11.1819033,11.193732 11.184717,11.1764517 C8.87182927,11.1970849 8.46204756,11.1764517 8.43391024,11.1387963 C8.41830681,11.190637 8.361009,11.488012 8.361009,11.488012 L7.14777888,16.8964717 L7.0436708,17.3550431 L6.84210526,18.8553297 C6.84210526,19.3004895 6.92881937,19.6636326 7.10122441,19.9708084 C7.65399486,20.9446922 9.230708,21.0906716 10.1226611,21.0906716 C11.2716869,21.0906716 12.3498579,20.8443636 13.0783587,20.3950772 C14.3427476,19.6417099 14.6737448,18.4640739 14.9686751,17.4177162 L15.1055248,16.880739 C15.1055248,16.880739 16.3294982,11.8970639 16.5374586,11.2486677 C16.5453882,11.2128176 16.5484578,11.193732 16.5592011,11.1764517 L16.5592011,11.1764517 Z"/>
  </g>
</svg>
