<svg height="56" viewBox="0 0 171 56" width="171" xmlns="http://www.w3.org/2000/svg" xmlns:xlink="http://www.w3.org/1999/xlink"><mask id="a" fill="#fff"><path d="m0 .497h15.609v16.106h-15.609z" fill="#fff" fill-rule="evenodd"/></mask><mask id="b" fill="#fff"><path d="m.945.1h33.601v16.9h-33.601z" fill="#fff" fill-rule="evenodd"/></mask><mask id="c" fill="#fff"><path d="m0 17h171v-15.937h-171z" fill="#fff" fill-rule="evenodd"/></mask><g fill="#b5c1c9" fill-rule="evenodd" transform="translate(0 21)"><path d="m7.028.497-7.028 16.106h2.027l2.995-7.05s5.253-.002 5.53 0c.112.266 2.927 7.05 2.927 7.05h2.13l-6.779-16.106zm.828 2.403c.32.78 1.823 4.41 2.033 4.921h-4.172c.228-.52 1.802-4.146 2.139-4.92z" mask="url(#a)"/><path d="m30.501 1.063-5.485 12.647-5.486-12.648h-2.535v15.938h1.893v-12.9l5.65 12.9h.932s4.885-11.318 5.564-12.888v12.888h1.891v-15.938h-2.424zm42.785 0v15.937h10.621v-1.766h-8.829v-5.585h8.023v-1.763h-8.023v-5.062h8.493v-1.761z"/><path d="m23.345 7.36v-5.111h5.18c3.063 0 3.395 1.785 3.395 2.553 0 .77-.332 2.56-3.395 2.56h-5.18zm-14.2 7.856c-3.72 0-6.316-2.74-6.316-6.667 0-3.925 2.597-6.667 6.317-6.667 3.716 0 6.31 2.742 6.31 6.667 0 3.927-2.594 6.667-6.31 6.667zm20.873-6.194c2.484-.431 3.807-1.869 3.807-4.19 0-2.879-1.922-4.335-5.715-4.335h-6.633v6.896h-4.2c-.481-4.35-3.687-7.293-8.131-7.293-4.83 0-8.2 3.473-8.2 8.449 0 4.975 3.37 8.45 8.2 8.45 4.623 0 7.907-3.188 8.178-7.824h4.153v7.427h1.888v-7.427h4.681l4.339 7.427h2.16s-4.216-7.062-4.527-7.58z" mask="url(#b)" transform="translate(36.112)"/><path d="m152.498 16.625h1.043v-15.188h-1.043zm-13.636-15.188v15.188h1.048v-7.423h7.591v-.876h-7.591v-6.01h8.161v-.879zm-5.506 15.188h1.045v-15.188h-1.045zm23.918-7.595c0 4.692 3.328 7.97 8.09 7.97 2.317 0 4.19-.842 5.562-2.505l.074-.088-.862-.634-.07.088c-1.313 1.669-3.351 2.26-4.704 2.26-4.151 0-7.05-2.916-7.05-7.091s2.899-7.089 7.05-7.089c1.71 0 3.267.71 4.268 1.946l.072.09.867-.705-.08-.083c-1.265-1.41-2.989-2.127-5.127-2.127-4.762 0-8.09 3.277-8.09 7.968zm-41.953 0c0 4.692 3.326 7.97 8.091 7.97 2.318 0 4.187-.842 5.561-2.505l.074-.088-.863-.634-.066.088c-1.317 1.669-3.359 2.26-4.706 2.26-4.152 0-7.05-2.916-7.05-7.091s2.898-7.089 7.05-7.089c1.707 0 3.264.71 4.27 1.946l.069.09.864-.705-.075-.083c-1.266-1.41-2.99-2.127-5.128-2.127-4.765 0-8.09 3.277-8.09 7.968zm-9.18-6.3s.117-.276.21-.487c.191.444 2.771 6.574 2.891 6.85h-5.886c.128-.286 2.785-6.363 2.785-6.363zm-.333-1.293-6.846 15.188h1.07s2.873-6.539 2.933-6.667h6.657l2.85 6.666 1.185.001-6.6-15.188h-1.249zm-14.252.879h3.326c1.725 0 3.741.794 3.741 3.025 0 2.202-1.883 2.985-3.646 2.985h-3.657v-6.01h.235zm-1.276-.879v15.188h1.041v-7.423h3.723c2.235 0 4.627-1.012 4.627-3.86 0-3.526-3.478-3.905-4.973-3.905z" mask="url(#c)"/></g></svg>