<svg height="56" viewBox="0 0 80 56" width="80" xmlns="http://www.w3.org/2000/svg"><g fill="#b5c1c9" fill-rule="evenodd" transform="translate(0 20)"><path d="m24.615 11c-5.846 1.532-11.166 3.884-15.384 7 4.838-2.25 10.018-3.976 15.384-5.143zm19.398-1.963c-1.702-.049-3.406-.049-5.106-.003l-.958 1.945c2.386-.075 4.782-.07 7.18.021zm-7.09-.037c-3.488.185-6.937.588-10.256 1.209v1.791c3.04-.48 6.129-.806 9.242-.98zm35.897 8c-3.8-2.642-8.365-4.63-13.333-6v1.675c4.567 1.029 9.042 2.461 13.334 4.325m-16.411-6.661c-3.31-.669-6.76-1.111-10.256-1.339l1.103 1.907c3.067.216 6.126.58 9.153 1.093z"/><path d="m19.487 0h2.3l3.999 6.241.125.196.126-.196 3.999-6.241h1.759l-5.02 7.184-.026.037v.044 5.735h-2.07v-5.592-.044l-.026-.037zm-9.506 6.596h-7.654-.155v.143 6.261h-2.172v-13h2.172v5.401.143h.155 7.654.155v-.143-5.401h2.172v13h-2.172v-6.261-.143zm30.817-3.9-.152-.309-.135.316-6.108 14.297h-1.582l7.987-17 .892.039 8.556 16.961h-2.415zm18.219-1.597v11.901h-2.087v-11.901-.144h-.149-4.473v-.955h11.282v.955h-4.424-.149zm16.411 0v11.901h-2.088v-11.901-.144h-.149-4.473v-.955h11.282v.955h-4.424-.148z"/></g></svg>