<svg height="56" viewBox="0 0 108 56" width="108" xmlns="http://www.w3.org/2000/svg" xmlns:xlink="http://www.w3.org/1999/xlink"><mask id="a" fill="#fff"><path d="m.04.177h4.474v5.656h-4.474z" fill="#fff" fill-rule="evenodd"/></mask><mask id="b" fill="#fff"><path d="m0 28h108v-28h-108z" fill="#fff" fill-rule="evenodd"/></mask><g fill="#b5c1c9" fill-rule="evenodd" transform="translate(0 15)"><path d="m2.413 23h.587v3.291c0 1.31-.591 1.709-1.374 1.709-.215 0-.478-.051-.626-.116l.088-.519c.12.053.296.095.491.095.522 0 .834-.257.834-1.218zm5.346 2.655h-2.069v1.802h2.31v.543h-3v-5h2.88v.539h-2.19v1.582h2.069zm1.656-2.655h.585v3.291c0 1.31-.592 1.709-1.375 1.709-.214 0-.476-.051-.625-.116l.089-.519c.121.053.295.095.49.095.523 0 .836-.257.836-1.218zm2.47 0v2.909c0 1.106.673 1.572 1.58 1.572 1.007 0 1.651-.482 1.651-1.572v-2.909h.884v2.867c0 1.513-1.097 2.133-2.564 2.133-1.392 0-2.436-.576-2.436-2.102v-2.898zm10.168.547h-2.053v-.547h5v.547h-2.064v4.453h-.883zm5.708 2.108h-2.073v1.802h2.312v.543h-3v-5h2.877v.539h-2.189v1.582h2.073zm3.617.27-.586-1.442c-.13-.328-.223-.624-.31-.912h-.018c-.087.297-.186.6-.303.906l-.584 1.448h1.8zm-1.962.503-.62 1.572h-.796l2.03-5h.934l2.036 5h-.823l-.64-1.572zm10.584 1.302c-.353.101-1.051.27-1.873.27-.923 0-1.684-.19-2.28-.65-.525-.406-.847-1.06-.847-1.822.007-1.463 1.257-2.528 3.298-2.528.706 0 1.259.12 1.522.223l-.194.513c-.324-.114-.733-.208-1.348-.208-1.48 0-2.45.741-2.45 1.97 0 1.244.93 1.976 2.35 1.976.518 0 .872-.058 1.05-.13v-1.461h-1.237v-.508h2.009zm3.375-1.805-.583-1.442c-.134-.328-.222-.624-.314-.912h-.016c-.087.297-.185.6-.304.906l-.58 1.448zm-1.958.503-.62 1.572h-.797l2.029-5h.93l2.041 5h-.827l-.639-1.572zm6.178-1.064h.608c.635 0 1.038-.376 1.038-.944 0-.64-.43-.922-1.06-.928-.287 0-.492.03-.586.057zm-.595-2.264c.3-.065.73-.101 1.14-.101.635 0 1.043.123 1.334.403.23.222.359.56.359.942 0 .658-.378 1.092-.865 1.268v.021c.354.135.564.489.676 1.005.15.69.258 1.17.356 1.361h-.615c-.075-.146-.179-.565-.31-1.185-.136-.684-.381-.942-.922-.964h-.558v2.15h-.595zm4.785 4.355c.2.027.489.034.795.034 1.684 0 2.6-.757 2.6-2.089.005-1.16-.807-1.896-2.471-1.896-.409 0-.712.028-.924.063zm-.785-4.355c.478-.06 1.049-.101 1.674-.101 1.128 0 1.935.21 2.464.611.544.403.862.972.862 1.767 0 .804-.306 1.461-.877 1.913-.573.462-1.51.709-2.695.709-.56 0-1.03-.02-1.428-.056zm7.761 2.555h-2.072v1.802h2.311v.543h-3v-5h2.883v.539h-2.194v1.582h2.072zm1.239 2.345v-5h.94l2.13 2.53c.493.587.885 1.115 1.198 1.625l.02-.008c-.082-.666-.098-1.275-.098-2.056v-2.091h.81v5h-.872l-2.112-2.534c-.464-.56-.908-1.13-1.245-1.674l-.03.008c.05.63.068 1.233.068 2.063v2.137z"/><path d="m.28 4.883c.43.193 1.053.356 1.71.356.977 0 1.548-.382 1.548-.932 0-.516-.396-.805-1.395-1.09-1.208-.32-1.953-.782-1.953-1.553 0-.854.955-1.487 2.39-1.487.762 0 1.314.129 1.638.268l-.262.577c-.243-.098-.736-.26-1.402-.26-1.015 0-1.398.446-1.398.819 0 .513.452.765 1.471 1.06 1.254.357 1.887.804 1.887 1.608 0 .844-.846 1.584-2.587 1.584-.716 0-1.493-.163-1.887-.356l.24-.594z" mask="url(#a)" transform="translate(67 22)"/><path d="m72.173 28h.654v-5h-.654zm1.827 0v-5h.942l2.133 2.53c.496.587.878 1.115 1.196 1.625l.021-.008c-.081-.666-.101-1.275-.101-2.056v-2.091h.809v5h-.866l-2.118-2.534c-.462-.56-.906-1.13-1.246-1.674l-.03.008c.053.63.07 1.233.07 2.063v2.137zm10.992.716c-.316.14-.94.284-1.74.284-1.854 0-3.252-1.04-3.252-2.947 0-1.821 1.398-3.053 3.438-3.053.82 0 1.339.154 1.562.259l-.205.61c-.324-.14-.782-.241-1.327-.241-1.54 0-2.567.87-2.567 2.396 0 1.423.925 2.337 2.528 2.337.517 0 1.042-.094 1.383-.242zm2.769-3.061h-2.074v1.802h2.313v.543h-3v-5h2.881v.539h-2.194v1.582h2.074zm5.459-2.026h-.024l-1.038.47-.158-.516 1.31-.583h.69v5h-.78zm3.249-.129c-.507 0-.87.492-.87 1.176 0 .604.337 1.03.857 1.03.405 0 .72-.217.878-.51.035-.06.055-.132.055-.236 0-.826-.282-1.46-.912-1.46zm-1.09 3.96c.129.016.283 0 .49-.022.347-.05.678-.207.931-.468.294-.29.507-.713.59-1.286h-.021c-.245.324-.602.516-1.049.516-.802 0-1.32-.653-1.32-1.481 0-.914.615-1.719 1.526-1.719.912 0 1.474.805 1.474 2.042 0 1.063-.327 1.81-.768 2.27-.343.367-.819.587-1.296.65-.221.035-.413.043-.557.035v-.536zm6.621-4.46v.447l-2.07 4.553h-.664l2.062-4.421v-.018h-2.328v-.561zm3.468.5c-.508 0-.871.492-.871 1.176 0 .604.336 1.03.86 1.03.403 0 .717-.217.878-.51.03-.06.056-.132.056-.236 0-.826-.283-1.46-.917-1.46zm-1.092 3.96c.13.016.282 0 .49-.022.348-.05.679-.207.931-.468.295-.29.509-.713.594-1.286h-.025c-.246.324-.602.516-1.048.516-.804 0-1.318-.653-1.318-1.481 0-.914.611-1.719 1.523-1.719.914 0 1.477.805 1.477 2.042 0 1.063-.331 1.81-.77 2.27-.342.367-.817.587-1.297.65-.221.035-.413.043-.557.035v-.536zm-89.315-19.958v-.043c0-4.123-3.138-7.459-7.512-7.459-4.37 0-7.549 3.377-7.549 7.502v.04c0 4.125 3.135 7.458 7.51 7.458 4.374 0 7.551-3.376 7.551-7.498zm-3.26.04c0 2.487-1.743 4.518-4.252 4.518s-4.29-2.076-4.29-4.558v-.043c0-2.488 1.74-4.516 4.25-4.516 2.509 0 4.291 2.073 4.291 4.559v.04zm17.792 2.92v-.04c0-2.528-1.618-3.584-4.492-4.352-2.451-.64-3.06-.951-3.06-1.904v-.04c0-.709.629-1.265 1.822-1.265 1.196 0 2.43.536 3.685 1.43l1.621-2.405c-1.439-1.181-3.199-1.844-5.263-1.844-2.898 0-4.961 1.741-4.961 4.374v.037c0 2.883 1.842 3.687 4.696 4.435 2.37.623 2.855 1.038 2.855 1.845v.042c0 .849-.77 1.366-2.047 1.366-1.617 0-2.954-.682-4.23-1.761l-1.841 2.26c1.7 1.554 3.864 2.319 6.012 2.319 3.055 0 5.203-1.616 5.203-4.497zm16.461-2.029v-8.183h-3.12v8.308c0 2.301-1.154 3.482-3.055 3.482-1.903 0-3.058-1.223-3.058-3.584v-8.207h-3.121v8.287c0 4.27 2.331 6.446 6.137 6.446 3.805 0 6.216-2.156 6.216-6.549zm14.98 6.319v-2.9h-7.066v-11.603h-3.115v14.503h10.182zm13.34 0v-2.9h-7.065v-11.603h-3.119v14.503h10.183zm17.592-7.25v-.043c0-4.123-3.14-7.459-7.512-7.459-4.374 0-7.549 3.377-7.549 7.502v.04c0 4.124 3.135 7.458 7.51 7.458 4.374 0 7.551-3.376 7.551-7.498zm-3.26.04c0 2.487-1.742 4.518-4.252 4.518-2.509 0-4.29-2.076-4.29-4.558v-.043c0-2.488 1.741-4.516 4.25-4.516 2.511 0 4.292 2.073 4.292 4.559zm19.294 4.868-1.983-2.052c-1.117 1.037-2.105 1.702-3.727 1.702-2.427 0-4.108-2.076-4.108-4.558v-.043c0-2.488 1.718-4.516 4.108-4.516 1.418 0 2.533.623 3.623 1.636l1.985-2.34c-1.316-1.326-2.915-2.239-5.587-2.239-4.354 0-7.39 3.377-7.39 7.502v.04c0 4.165 3.098 7.458 7.272 7.458 2.727 0 4.348-.993 5.807-2.59z" mask="url(#b)"/></g></svg>