<svg height="57" viewBox="0 0 135 57" width="135" xmlns="http://www.w3.org/2000/svg" xmlns:xlink="http://www.w3.org/1999/xlink"><mask id="a" fill="#fff"><path d="m0 47.654h134.963v-47.654h-134.963z" fill="#fff" fill-rule="evenodd"/></mask><g fill="#b5c1c9" fill-rule="evenodd" transform="translate(0 4.152)"><path d="m62.948 24.206c-.903 0-1.633-1.175-1.633-2.624 0-1.448.73-2.623 1.633-2.623s1.633 1.175 1.633 2.623c0 1.45-.73 2.624-1.633 2.624m.018-6.068c-2.157 0-3.904 1.543-3.904 3.446 0 1.904 1.747 3.446 3.904 3.446s3.905-1.542 3.905-3.446c0-1.903-1.748-3.446-3.905-3.446"/><path d="m88.492 21.497h4.764v-4.407h-4.764zm6.01-5.47-.07.005h-8.315v.35h-.015v5.825h.015v.348h9.523v-.57h.007v-4.827c-.01-.626-.518-1.13-1.146-1.13z" mask="url(#a)"/><path d="m95.647 17.115v.043l.001.016-.001-.06zm.759 7.062h-11.102v1.058h4.354v6.018h2.39v-6.018h4.358zm-24.778-3.31h-1.562v-4.881h-2.391v11.708h2.391v-5.329h1.562zm-7.417-5.191h-2.389v1.045h-2.324v1.009h7.052v-1.009h-2.339zm64.985 1.086v-1.113h-2.39v1.113h-2.258v1.058h6.941v-1.058zm-13.495.022v-1.135h-2.39v1.135h-2.138v1.045h6.616v-1.045zm-53.576 14.454c-.633 0-1.147-.514-1.147-1.147v-4.506h2.39v4.648h6.733v1.009h-8.003v-.004zm20.809-14.051c0-.634-.514-1.147-1.147-1.147l-.123-.008h-7.981v1.058h6.86v4.39h-8.032v1.059h4.361v2.408h-3.33v1.046h6.94v5.265h2.389v-6.215h-.005v-.096h-3.603v-2.407h4.7v-1.06h-1.031v-4.205l.002-.09z" mask="url(#a)"/><path d="m119.755 22.12h-1.796c.067-.254.107-.52.107-.793 0-.322-.052-.631-.142-.925h1.831zm-4.132 8.023h4.132v-1.986h-4.132zm-1.103-6.298c-.862 0-1.561-1.129-1.561-2.52 0-1.392.7-2.52 1.561-2.52.863 0 1.562 1.128 1.562 2.52 0 1.391-.7 2.52-1.562 2.52zm5.235-7.852v3.356h-2.226c-.545-.648-1.348-1.114-2.276-1.275-.232-.045-.47-.07-.716-.07-.25 0-.494.026-.73.072-1.712.301-3.002 1.64-3.002 3.247 0 1.829 1.67 3.31 3.732 3.31.102 0 .203-.005.303-.013 1.169-.084 2.187-.643 2.802-1.461h2.113v3.945h-4.132v-2.09h-2.39v4.851l.003.22c0 .634.514 1.147 1.147 1.147l.179-.004v.007h5.826v-.007h1.757v-15.235zm-13.169 4.595h-1.29c.045-.225.071-.457.071-.694 0-.346-.055-.681-.15-.999h1.37v1.693zm-5.28 2.245c-.962 0-1.742-1.296-1.742-2.895 0-1.598.78-2.894 1.742-2.894.963 0 1.744 1.296 1.744 2.894 0 1.599-.78 2.895-1.744 2.895zm5.28-6.85v1.855h-1.892c-.725-1.007-1.965-1.672-3.375-1.672-2.236 0-4.05 1.67-4.05 3.728 0 2.059 1.814 3.727 4.05 3.727 1.547 0 2.891-.8 3.573-1.975h1.694v3.3h-6.743v1.047h6.743v5.252h2.384v-15.261h-2.384zm21.42 7.936c-.843 0-1.528-1.128-1.528-2.52 0-1.39.685-2.519 1.528-2.519.844 0 1.529 1.128 1.529 2.52 0 1.391-.685 2.519-1.53 2.519zm4.567-7.926v10.208h-3.371v-1.704c1.46-.44 2.513-1.658 2.513-3.097 0-1.809-1.661-3.275-3.71-3.275-2.047 0-3.707 1.466-3.707 3.275 0 1.441 1.056 2.662 2.52 3.1v1.7h-2.586v1.125h8.341v3.914h2.39v-15.246zm-105.636 32.661-2.625-2.583 29.175-24.699.31.305zm-3.243-3.19-2.61-2.6 29.161-24.682.309.304zm-3.209-3.224-2.626-2.583 29.143-24.665.309.304zm-3.214-3.206-2.626-2.583 29.177-24.699.309.303zm9.589-38.034 2.608 2.6-29.159 24.682-.309-.304zm3.209 3.224 2.626 2.583-29.143 24.666-.309-.305zm3.226 3.207 2.625 2.583-29.126 24.649-.309-.305zm3.231 3.19 2.615 2.594-29.166 24.688-.309-.304z" mask="url(#a)"/></g></svg>