<svg height="57" viewBox="0 0 150 57" width="150" xmlns="http://www.w3.org/2000/svg" xmlns:xlink="http://www.w3.org/1999/xlink"><mask id="a" fill="#fff"><path d="m.66.133h20.554v24.867h-20.554z" fill="#fff" fill-rule="evenodd"/></mask><mask id="b" fill="#fff"><path d="m.66.133h20.554v24.867h-20.554z" fill="#fff" fill-rule="evenodd"/></mask><g fill="#b5c1c9" fill-rule="evenodd"><path d="m113.883 1.002v19.468c0 1.282.62 1.903 1.904 1.982h6.41v2.175c0 .233-.117.428-.388.428h-10.412c-3.187 0-3.653-1.787-3.653-3.38v-19.352c0-.932.31-1.36 1.399-1.321zm-11.967 0v22.77c0 1.01-.428 1.283-1.283 1.283h-4.896v-22.808c0-.738.312-1.244 1.4-1.244h4.779m-101.916 3.302c0-1.825 0-3.303 2.992-3.303h13.249v2.293c0 .156-.077.311-.311.311h-7.926c-1.088 0-1.593.505-1.593 1.593v6.1h9.325v2.447c0 .195-.155.312-.35.312h-8.975v9.714c-.039.932-.505 1.282-1.515 1.282h-4.896z" transform="translate(0 14)"/><path d="m6.8.133v18.34c0 1.554.232 2.68 1.32 3.303 1.477.854 4.002.854 5.517.039 1.011-.583 1.438-1.516 1.438-3.342v-17.135c0-.777.272-1.205 1.36-1.205h4.78v17.796c0 4.118-2.604 5.828-4.896 6.45-3.07.816-7.732.855-10.608-.04-3.458-1.01-5.05-3.068-5.05-6.41v-16.591c-.001-.778.27-1.205 1.202-1.205z" mask="url(#a)" transform="translate(19 14.87)"/><path d="m6.8.133v18.34c0 1.554.232 2.68 1.32 3.303 1.477.854 4.002.854 5.517.039 1.011-.583 1.438-1.516 1.438-3.342v-17.135c0-.777.272-1.205 1.36-1.205h4.78v17.796c0 4.118-2.604 5.828-4.896 6.45-3.07.816-7.732.855-10.608-.04-3.458-1.01-5.05-3.068-5.05-6.41v-16.591c-.001-.778.27-1.205 1.202-1.205z" mask="url(#b)" transform="translate(19 14.87)"/><path d="m142.402 1.002c-1.244 0-1.904.544-2.176 1.633l-3.964 16.59h-.077l-4.08-18.223h-5.517c-1.088 0-1.399.544-1.399 1.4v22.653h2.331c.35 0 .505-.195.505-.584v-19h.39l5.01 19.584h3.303c1.205 0 1.672-.506 1.983-1.75l4.506-17.834h.35v19.584h4.391c1.05 0 1.553-.428 1.553-1.477v-22.575h-7.109m-72.892 13.055h-6.177v10.996h4.896c.855 0 1.282-.272 1.282-1.282v-9.714m-.35-4.702c.194-.155.35-.311.35-.66v-7.694h-4.78c-1.088 0-1.398.506-1.398 1.283v11.618zm-21.137 13.794c2.681-.39 3.574-1.981 3.574-4.312v-16.553c0-.971.544-1.282 1.205-1.282h4.934v15.62c0 3.846-.776 5.789-3.069 7.42-1.205.855-3.264 1.827-7.732 1.827-2.603 0-3.73-.156-3.886-.195-.233-.04-.31-.155-.31-.35v-2.02c1.05.039 3.496.117 5.284-.155m30.812-22.148c-2.992 0-2.992 1.477-2.992 3.304v6.176c0 .158-.04.196-.117.274l-4.196 3.303h4.313v10.996h4.896c1.01 0 1.476-.35 1.515-1.282v-9.714h8.976c.232 0 .349-.118.349-.313v-2.446h-9.325v-6.1c0-1.088.544-1.592 1.593-1.592h7.926c.234 0 .31-.157.31-.312v-2.292h-13.247" transform="translate(0 14)"/></g></svg>