<svg height="56" viewBox="0 0 93 56" width="93" xmlns="http://www.w3.org/2000/svg" xmlns:xlink="http://www.w3.org/1999/xlink"><mask id="a" fill="#fff"><path d="m0 .271h8v12.435h-8z" fill="#fff" fill-rule="evenodd"/></mask><mask id="b" fill="#fff"><path d="m0 .271h9v12.435h-9z" fill="#fff" fill-rule="evenodd"/></mask><g fill="#b5c1c9" fill-rule="evenodd"><path d="m43.815 8.804v9.321c.315-.017.64-.046.962-.087 2.329-.3 4.85-1.677 4.942-4.646.086-2.773-1.672-4.434-4.822-4.56-.375-.015-.713-.024-1.082-.028m1.057-2.148c4.646.192 7.547 2.94 7.416 7.034-.119 3.684-2.984 6.411-7.298 6.952-.445.055-.892.092-1.329.111v5.647c.241.008.48.012.713.012 4.197 0 7.756-1.303 10.292-3.77 2.353-2.274 3.649-5.27 3.649-8.439 0-6.689-5.809-12.13-12.95-12.13h-.207c-6.727.102-10.13 4.208-10.442 7.98-.205 2.487.619 4.688 2.322 6.199 1.076.953 2.42 1.583 3.996 1.875v-11.4c1.413-.097 2.567-.122 3.838-.07m-3.848 22.142v-7.96c-2.263-.32-4.279-1.208-5.834-2.57-2.302-2.015-3.42-4.899-3.15-8.119.224-2.67 1.553-5.156 3.744-7.005 2.545-2.145 5.593-3.145 9.592-3.145 8.615 0 15.624 6.486 15.624 14.46 0 3.772-1.56 7.342-4.394 10.051-3.056 2.937-7.295 4.489-12.256 4.489-1.473 0-3.053-.183-3.326-.202m37.315 11.156c-1.162-.732-1.39-1.082-1.364-1.737.024-.634.59-1.33 1.65-1.496 1.061-.167 1.942.217 2.627.813v-1.174c-.815-.308-2.234-.527-3.64-.192-1.405.333-2.05 1.167-2.307 1.745-.26.577-.33 1.673.314 2.39.645.72 2.09 1.608 2.906 2.123.818.513 1.606 1.094 1.568 2.184-.031.847-.905 1.804-2.616 1.592-.989-.12-1.996-.706-2.477-1.414v1.417c1.345.822 3.833 1.233 5.567.098 1.55-1.013 1.665-2.525 1.177-3.577-.488-1.053-2.245-2.041-3.405-2.772m-64.196 2.046 1.837-5 1.83 5zm.537-6v.124c.71.112.573.724.421 1.067l-4.101 9.809h1.028l1.667-4.093h4.42l1.378 3.41c.153.397.473.683 1.103.683h1.404l-4.566-11zm25.463 6 1.838-5 1.829 5zm.54-6v.124c.708.112.573.724.422 1.067l-4.105 9.809h1.031l1.665-4.093h4.42l1.376 3.41c.154.397.476.683 1.104.683h1.404l-4.566-11h-2.75zm26.317.124c.4.145.541.526.541 1.011v9.865h1.459v-11h-2z" transform="translate(0 5)"/><path d="m2.84 11.911v-5.358h4.487v-.793h-4.487v-4.752h4.68v-.738h-7.52v.14c.567.164.77.595.77 1.143v11.152l7.23-.002v-.792z" mask="url(#a)" transform="translate(85 40)"/><path d="m55.48 46h-1.86v-9.5h1.625c2.948 0 4.66 1.778 4.66 4.74 0 2.961-2.164 4.76-4.424 4.76m.57-10h-5.051v.124c.527.139.726.493.744.944 0 .007.003.014.003.022v9.91h3.805c5.304 0 6.448-3.573 6.448-5.674 0-3.183-2.713-5.326-5.95-5.326m-28.55.5h1.255c1.295 0 2.245.867 2.245 2.154 0 1.462-.865 2.346-2.314 2.346h-1.186zm5.506 2.346c0-1.348-.947-2.846-3.271-2.846h-4.735v.122c.526.143.715.516.72.99v9.888h1.938v-5.182h.988l2.657 4.492c.267.398.656.686 1.241.69h1.456l-3.33-5.387c1.284-.392 2.336-1.34 2.336-2.767z" transform="translate(0 5)"/><path d="m3.959 6.194h-1.146v-5.087h1.229c1.564 0 2.708.981 2.708 2.434 0 1.653-1.041 2.653-2.791 2.653m1.25-5.652h-5.209v.14c.617.163.836.595.836 1.143v11.151h2.243v-5.828h1.63c2.096 0 4.291-1.228 4.291-3.395 0-1.523-1.096-3.211-3.792-3.211" mask="url(#b)" transform="translate(0 40)"/></g></svg>