<svg xmlns="http://www.w3.org/2000/svg" xmlns:xlink="http://www.w3.org/1999/xlink" width="138" height="30" viewBox="0 0 138 30">
  <defs>
    <polygon id="logo-econtext-a" points="0 .718 25.994 .718 25.994 29.792 0 29.792"/>
    <polygon id="logo-econtext-c" points=".133 .217 12.152 .217 12.152 17.287 .133 17.287"/>
  </defs>
  <g fill="none" fill-rule="evenodd">
    <mask id="logo-econtext-b" fill="#fff">
      <use xlink:href="#logo-econtext-a"/>
    </mask>
    <path fill="#B5C1C9" d="M19.649705,16.1006935 L9.16355984,16.1006935 C9.25229532,17.2429911 9.69255984,18.2107946 10.4852066,19.0015506 C11.4553244,19.8799792 12.6003534,20.232372 13.9220002,20.232372 C15.3315292,20.232372 16.7419115,20.0561756 18.1514405,19.6169613 L18.5925582,19.5284375 L19.120705,21.8138839 L18.7683227,21.9900804 C17.446676,22.5178185 15.7726469,22.7816875 13.9220002,22.7816875 C11.5432066,22.7816875 9.60467758,22.1654256 8.10641306,20.8469315 C6.60814855,19.5284375 5.90423726,17.7707292 5.90423726,15.5729554 C5.90423726,13.4637054 6.52026629,11.7051458 7.84276629,10.4751756 C9.25229532,9.15583036 10.9263244,8.54127083 13.0406179,8.54127083 C14.8912647,8.54127083 16.4774115,9.15583036 17.7990582,10.2989792 C19.0328227,11.5298006 19.649705,13.1113125 19.649705,15.1337411 L19.649705,16.1006935 Z M25.9618695,8.84174107 C25.9576034,8.81705655 25.9490711,8.79322321 25.9430985,8.76853869 C25.7895179,8.09269345 25.2775824,7.41514583 24.7596744,7.04658036 L14.1865002,0.980997024 C13.5696179,0.629455357 12.4237356,0.629455357 11.7198244,0.980997024 L1.23367919,7.04658036 C0.528914677,7.48579464 -8.53225806e-05,8.3650744 -8.53225806e-05,9.15583036 L-8.53225806e-05,21.286997 C-8.53225806e-05,22.077753 0.528914677,23.0447054 1.23367919,23.396247 L11.7198244,29.4618304 C12.4237356,29.9018958 13.5696179,29.9018958 14.1865002,29.4618304 L24.7596744,23.396247 C25.3774098,23.0447054 25.9942921,22.077753 25.9942921,21.286997 L25.9942921,9.15583036 C25.9942921,9.05198512 25.9823469,8.94728869 25.9618695,8.84174107 L25.9618695,8.84174107 Z" mask="url(#logo-econtext-b)"/>
    <path fill="#B5C1C9" d="M12.956178 11.7857143C11.8202746 11.7857143 11.0345305 12.0139912 10.2479407 12.5463918 9.72439323 13.0022091 9.37507968 13.5346097 9.2 14.1428571L16.1 14.1428571C16.0128831 13.5346097 15.6635695 13.0022091 15.1400221 12.6222386 14.5285119 12.089838 13.741922 11.7857143 12.956178 11.7857143M36.5479107 12.5306875C37.4146249 12.5306875 38.5405983 12.7135807 39.6674106 13.0784835L40.2740267 13.2604932 41.4 10.3403868 40.6205445 10.1583771C39.3208928 9.70158591 37.9339822 9.42857143 36.461491 9.42857143 34.2078663 9.42857143 32.3888572 10.0664888 30.915527 11.3449741 29.5294555 12.6216923 28.75 14.3552017 28.75 16.5446189 28.75 18.6439147 29.4430357 20.3774242 30.915527 21.6559095 32.3015985 22.9326277 34.2078663 23.5714286 36.5479107 23.5714286 38.021241 23.5714286 39.4937322 23.2975305 40.7069643 22.8407393L41.3135803 22.5677248 40.6205445 19.6476185 39.9275088 19.9215165C38.7142767 20.2864193 37.5874643 20.4693125 36.5479107 20.4693125 35.2482589 20.4693125 34.295125 20.1044097 33.5156696 19.2827156 32.7353751 18.5529099 32.3888572 17.640211 32.3888572 16.5446189 32.3888572 15.2679007 32.7353751 14.3552017 33.4284108 13.625396 34.2078663 12.8955903 35.1618392 12.5306875 36.5479107 12.5306875M54.1368453 19.374604C53.5292083 20.1044097 52.7484409 20.4693125 51.7062972 20.4693125 50.7523995 20.4693125 49.9707917 20.1044097 49.3631547 19.374604 48.7555177 18.6447983 48.4958222 17.640211 48.4958222 16.5455024 48.4958222 15.2687842 48.7555177 14.3560853 49.3631547 13.6262796 49.8842266 12.8955903 50.6649939 12.5306875 51.7062972 12.5306875 52.7484409 12.5306875 53.5292083 12.8955903 54.1368453 13.6262796 54.7444823 14.3560853 55.0050183 15.359789 55.0050183 16.5455024 55.0050183 17.640211 54.7444823 18.5529099 54.1368453 19.374604M51.7062972 9.42857143C49.7102558 9.42857143 47.9747503 10.0673723 46.7594762 11.4359789 45.457637 12.7135807 44.85 14.4470901 44.85 16.4544976 44.85 18.6447983 45.457637 20.2864193 46.7594762 21.6559095 47.9747503 22.9326277 49.6236906 23.5714286 51.7062972 23.5714286 53.7897442 23.5714286 55.5252497 22.9326277 56.7405238 21.6559095 58.042363 20.2864193 58.65 18.5529099 58.65 16.4544976 58.65 14.4470901 58.042363 12.7135807 56.7405238 11.4359789 55.5252497 10.1583771 53.7897442 9.42857143 51.7062972 9.42857143M69.2146987 9.42857143C67.8912574 9.42857143 66.6495298 9.85556612 65.4919192 10.6228351L65.4919192 9.68460306 62.1 9.68460306 62.1 22.3928571 65.4919192 22.3928571 65.4919192 13.8637001C66.6495298 12.8403994 67.6429119 12.3283362 68.6354929 12.3283362 69.2146987 12.3283362 69.628875 12.4992992 69.8764194 12.7553309 70.1247649 13.0956052 70.2072797 13.6935629 70.2072797 14.4608319L70.2072797 22.3928571 73.6 22.3928571 73.6 13.9487686C73.6 12.4992992 73.1858238 11.3901041 72.4407872 10.6228351 71.6973528 9.85556612 70.6214559 9.42857143 69.2146987 9.42857143M89.1997193 20.4834994L88.949579 19.6888746 88.1999649 19.954604C87.2833216 20.3946381 86.2835672 20.5723607 85.2830059 20.5723607 84.7827252 20.5723607 84.5333918 20.3074857 84.3671695 20.2186245 84.1162223 19.954604 84.033918 19.6017222 84.033918 19.0719723L84.033918 13.1592801 88.5332164 13.1592801 88.5332164 10.1593577 84.033918 10.1593577 84.033918 7.07142857 80.7005964 7.07142857 80.7005964 10.1593577 78.2 10.1593577 78.2 13.1592801 80.7005964 13.1592801 80.7005964 19.5128609C80.7005964 20.7483744 81.033041 21.7190128 81.7003508 22.4247764 82.4499649 23.13054 83.5336374 23.5714286 84.9497544 23.5714286 86.2835672 23.5714286 87.7004912 23.3074081 89.1166082 22.6896513L89.7 22.4247764 89.1997193 20.4834994zM96.9441833 14.3560853C97.1132311 13.9001776 97.3663944 13.6262796 97.7036733 13.2613767 98.21 12.8045855 98.8845578 12.531571 99.8122789 12.531571 100.401904 12.531571 100.908231 12.8045855 101.498673 13.3523815 101.751837 13.6262796 102.004183 13.9911824 102.089116 14.3560853L96.9441833 14.3560853zM99.7273467 9.42857143C97.7877889 9.42857143 96.1846934 10.0673723 95.0046256 11.3449741 93.7396256 12.6225758 93.15 14.3560853 93.15 16.4544976 93.15 18.6447983 93.8237411 20.3783077 95.1728567 21.6559095 96.5227889 22.9335112 98.2932989 23.5714286 100.486837 23.5714286 102.089116 23.5714286 103.523163 23.2984141 104.787347 22.8416229L105.377789 22.5677248 105.209558 21.9298075 104.872279 20.4693125 104.703231 19.7395068 104.028673 19.9215165C102.763673 20.2864193 101.583606 20.4693125 100.486837 20.4693125 99.3900678 20.4693125 98.4623467 20.1044097 97.7877889 19.374604 97.1981633 18.8268079 96.8600678 18.0970022 96.7759522 17.3671965L105.8 17.3671965 105.8 15.9985899C105.8 14.0821873 105.209558 12.4405662 104.028673 11.2539692 102.847789 10.0673723 101.414558 9.42857143 99.7273467 9.42857143L99.7273467 9.42857143z"/>
    <polygon fill="#B5C1C9" points="123.05 9.429 118.949 9.429 118.778 9.69 115.618 13.518 112.542 9.777 112.371 9.429 108.1 9.429 113.482 15.868 108.1 22.393 112.201 22.393 112.371 22.132 115.532 18.303 118.608 22.132 118.863 22.393 122.964 22.393 117.583 15.868"/>
    <g transform="translate(125.35 5.893)">
      <mask id="logo-econtext-d" fill="#fff">
        <use xlink:href="#logo-econtext-c"/>
      </mask>
      <path fill="#B5C1C9" d="M11.9776947,15.4614134 L11.3679647,13.2701545 L10.6713713,13.5450562 C9.62648133,14.0011634 8.58159133,14.1841366 7.535858,14.1841366 C7.01299133,14.1841366 6.75240133,13.9101187 6.57783133,13.8190741 C6.40410467,13.5450562 6.230378,13.1799937 6.230378,12.631958 L6.230378,6.51517232 L10.9328047,6.51517232 L10.9328047,3.41169911 L6.230378,3.41169911 L6.230378,0.21718125 L2.746568,0.21718125 L2.746568,3.41169911 L0.133078,3.41169911 L0.133078,6.51517232 L2.746568,6.51517232 L2.746568,13.0880652 C2.746568,14.3662259 3.09486467,15.3703687 3.791458,16.1013777 C4.57491467,16.8306187 5.706668,17.2867259 7.18756133,17.2867259 C8.58159133,17.2867259 10.0624847,17.013592 11.5416913,16.3745116 L12.1522647,16.1013777 L11.9776947,15.4614134 Z" mask="url(#logo-econtext-d)"/>
    </g>
  </g>
</svg>
