<?xml version="1.0" encoding="UTF-8"?>
<svg width="54px" height="23px" viewBox="0 0 54 23" version="1.1" xmlns="http://www.w3.org/2000/svg" xmlns:xlink="http://www.w3.org/1999/xlink">
    <title>Group 12</title>
    <g id="WEB" stroke="none" stroke-width="1" fill="none" fill-rule="evenodd">
        <g id="2.0_Main" transform="translate(-1054.000000, -7318.000000)" fill="#B5C1C9">
            <g id="Group-12" transform="translate(1054.000000, 7318.000000)">
                <g id="main_img_017" transform="translate(0.000000, 4.000000)">
                    <g id="kakaopay">
                        <path d="M8.03910707,0 C3.59886148,0 0,3.05958036 0,6.85728448 C0,9.30494877 1.50600686,11.446655 3.76855239,12.6666627 C3.64481943,13.1255997 2.97666146,15.6229822 2.95191486,15.8180305 C2.95191486,15.8180305 2.95191486,15.967185 3.02261941,16.0207277 C3.08342532,16.0486463 3.15236226,16.0486463 3.21352169,16.0207277 C3.46805806,15.9824829 6.14422519,13.947862 6.61087521,13.5921858 C7.07929283,13.6637034 7.55195273,13.6988886 8.02496616,13.6992711 C12.4652118,13.6992711 16.0640732,10.6396907 16.0640732,6.84198658 C16.0640732,3.04428246 12.4758174,0 8.03910707,0" id="Fill-1"></path>
                        <path d="M27.8048501,6.56700613 C27.8048501,7.87848201 27.5649309,8.90197803 27.0992053,9.61025284 C26.5346894,10.4547343 25.6385204,10.7582807 24.2448719,10.5598081 C24.0614042,10.5337342 23.8797007,10.4917047 23.7015254,10.4352762 L23.7015254,3.62104991 C23.972493,3.4420354 24.2614545,3.29843463 24.5624121,3.19297173 C24.9434603,3.05170593 25.3425024,2.97815431 25.7443672,2.97504102 C26.3593367,2.90888348 26.9570178,3.22332636 27.2971386,3.79228118 C27.6319671,4.39937388 27.8048501,5.32168778 27.8048501,6.55143965 L27.8048501,6.56700613 Z M26.1536412,0.729576373 C25.5284399,0.721014809 24.9078252,0.84671413 24.326021,1.09928026 C23.9855474,1.25144259 23.6574226,1.43473789 23.3451747,1.64799865 L23.1828764,1.01755624 L21.4187643,1.01755624 L21.4187643,16.7708333 L23.6979971,16.7708333 L23.6979971,12.5951253 C23.9012228,12.6523321 24.1072711,12.6939724 24.3154364,12.7196571 C24.6763737,12.7636324 25.0390752,12.7858146 25.4021294,12.7858146 C26.0816654,12.7959328 26.7541449,12.6379331 27.3712314,12.323101 C27.9519771,12.0176089 28.4625111,11.5704617 28.8633174,11.0151276 C29.2814119,10.4263255 29.597188,9.75774523 29.7951214,9.04207634 C30.0181051,8.2337869 30.1278329,7.39280785 30.119718,6.54754803 C30.119718,4.7963191 29.801825,3.38755272 29.1808575,2.35627346 C28.5602429,1.32499421 27.5084793,0.729576373 26.1536412,0.729576373 L26.1536412,0.729576373 Z" id="Fill-3"></path>
                        <path d="M34.8618375,11.0165597 C34.5273969,11.0468313 34.1961247,10.9280156 33.9461744,10.6873572 C33.7247396,10.4028051 33.6159584,10.0357631 33.6434177,9.66569402 C33.6050451,9.20216166 33.7831787,8.74846754 34.1190274,8.45483398 C34.4710701,8.17860654 35.0554609,8.03860085 35.8792408,8.03860085 L37.2874115,8.03860085 L37.2874115,10.0251681 C37.158916,10.1447405 37.0212673,10.2525827 36.8755216,10.3464244 C36.6653521,10.4837813 36.4453254,10.6014618 36.2172018,10.698709 C35.9887261,10.7974698 35.7532095,10.8757973 35.5131164,10.9333131 C35.2990745,10.9862882 35.080808,11.013911 34.8618375,11.0165597 M35.6676632,1.45833333 C35.072711,1.46098209 34.4805752,1.54990462 33.9074497,1.72320897 C33.3202425,1.89802688 32.7562702,2.15230749 32.2285582,2.47999649 L31.9645262,2.63892187 L32.696775,4.4930513 L33.027343,4.32655805 C33.4339523,4.12563096 33.8571076,3.96632718 34.2915283,3.84978191 C34.7270051,3.72718233 35.1755075,3.66361218 35.6257701,3.66058503 C36.0837776,3.61479938 36.5400249,3.76729207 36.8931237,4.08438604 C37.1571557,4.36439742 37.2905799,4.87901294 37.2905799,5.59796108 L37.2905799,6.0823051 L35.6817449,6.0823051 C34.3372939,6.0823051 33.2952475,6.38502011 32.5806009,6.98666619 C31.8191326,7.65642315 31.4040742,8.6784647 31.4646256,9.7338049 C31.4142835,10.646869 31.7117595,11.5432839 32.2880534,12.216068 C32.9065924,12.8411745 33.7356529,13.1681067 34.5837237,13.1204291 C35.1779718,13.1041581 35.765531,12.976261 36.3192942,12.7420353 C36.7505464,12.5717581 37.1620843,12.3469922 37.5440506,12.0722783 L37.6852198,12.9463679 L39.4908467,12.9463679 L39.4908467,5.69255952 C39.4908467,4.25844717 39.1669674,3.18002495 38.5301222,2.4913483 C37.8925729,1.80267166 36.927976,1.45833333 35.6676632,1.45833333" id="Fill-5"></path>
                        <path d="M48.617072,0.729166667 L45.8547849,9.39422851 L43.1253994,0.729166667 L40.8295195,1.51689956 L44.632726,12.4112455 C44.3684286,13.0032268 44.0423052,13.5593662 43.6601406,14.0694232 C43.229166,14.6472253 42.744681,15.1754002 42.213917,15.644889 L41.8997249,15.9245342 L43.4034359,17.5 L43.6456784,17.3188214 C44.4707489,16.6965124 45.1851834,15.9158691 45.7535492,15.0150966 C46.3851874,13.9914377 46.8953428,12.884673 47.272084,11.7219792 L50.8695652,1.45781959 L48.617072,0.729166667 Z" id="Fill-7"></path>
                    </g>
                </g>
            </g>
        </g>
    </g>
</svg>