<svg height="56" viewBox="0 0 132 56" width="132" xmlns="http://www.w3.org/2000/svg" xmlns:xlink="http://www.w3.org/1999/xlink"><mask id="a" fill="#fff"><path d="m0 .52h11.476v15.118h-11.476z" fill="#fff" fill-rule="evenodd"/></mask><mask id="b" fill="#fff"><path d="m.218.374h26.768v21.151h-26.768z" fill="#fff" fill-rule="evenodd"/></mask><mask id="c" fill="#fff"><path d="m0 41.152h132v-41h-132z" fill="#fff" fill-rule="evenodd"/></mask><g fill="#b5c1c9" fill-rule="evenodd" transform="translate(0 3)"><path d="m38.84 38.559v.001c-.648.851-1.67 1.337-2.84 1.337-1.149 0-2.193-.486-2.82-1.337-.724-.928-1.107-2.47-1.107-4.417 0-1.946.383-3.467 1.108-4.417.625-.85 1.67-1.314 2.819-1.314 1.171 0 2.193.464 2.84 1.314.727.95 1.1 2.471 1.1 4.417 0 1.947-.373 3.489-1.1 4.416m-2.84-12.407c-1.984 0-3.73.664-4.909 1.908-1.35 1.372-2.091 3.536-2.091 6.083s.741 4.709 2.091 6.082c1.18 1.248 2.925 1.927 4.909 1.927 1.983 0 3.75-.679 4.931-1.927 1.327-1.373 2.069-3.535 2.069-6.082s-.742-4.71-2.069-6.083c-1.18-1.244-2.948-1.908-4.931-1.908m36.84 12.407v.001c-.65.85-1.671 1.337-2.843 1.337-1.149 0-2.195-.488-2.826-1.338-.72-.927-1.103-2.47-1.103-4.416s.383-3.467 1.103-4.417c.631-.85 1.676-1.314 2.826-1.314 1.172 0 2.194.464 2.842 1.312.726.952 1.097 2.473 1.097 4.419 0 1.947-.371 3.489-1.097 4.416m2.09-10.5c-1.184-1.243-2.949-1.907-4.932-1.907-1.985 0-3.73.664-4.92 1.908-1.339 1.372-2.077 3.536-2.077 6.083 0 2.545.737 4.709 2.078 6.082 1.189 1.248 2.933 1.927 4.92 1.927 1.982 0 3.747-.679 4.931-1.927 1.333-1.373 2.071-3.537 2.071-6.082 0-2.547-.738-4.71-2.07-6.083m-52.648 13.092c-.173-.157-.382-.513-.382-1.048v-5.444l5.1-8.508h-3.492c.251.252.277.651-.03 1.13l-2.762 4.762c-2.321-4.185-2.32-4.304-2.738-5.066-.329-.574-.607-.826-1.227-.826h-2.751c.218.2.443.503.914 1.283l4.066 7.186v5.483c0 .535-.208.891-.381 1.048zm32.474-2.526c.886-.553 1.093-1.358 1.093-2.2 0-1.644-1.494-2.4-2.932-2.4-.307 0-1.05.01-1.52.085v4.808c.99.267 2.57.2 3.359-.293m-3.36-6.81c.56.063 1.7-.008 2.193-.256.488-.248 1.052-.61 1.052-1.555 0-.899-.814-1.694-2-1.694-.442 0-.812.022-1.245.153zm-3.396 9.336c.18-.157.393-.513.393-1.048v-12.904c0-.536-.213-.893-.393-1.048h5.13c2.463 0 4.61 1.15 4.61 3.381 0 .946-.45 2.284-1.586 2.875 1.382.51 2.846 1.743 2.846 3.837 0 1.55-.795 2.91-1.867 3.692-.99.725-2.134 1.215-4.003 1.215z"/><path d="m.369 14.582c0 .538-.201.899-.37 1.056h3.566c-.168-.157-.37-.518-.37-1.056v-5.907l4.142 6.13c.382.58.68.833 1.28.833h2.859c-.233-.204-.484-.507-1.029-1.293l-4.672-6.867 4.778-6.958h-3.516c.183.247.206.556-.136 1.15l-3.705 5.542v-5.635c0-.54.201-.902.37-1.057h-3.566c.168.155.369.516.369 1.057z" mask="url(#a)" transform="translate(0 25.152)"/><path d="m6.144 8.486c-1.198.074-2.217-.82-2.293-1.997-.074-1.178.822-2.196 2.022-2.271 1.183-.075 2.203.823 2.28 2.001.074 1.177-.824 2.192-2.01 2.267m19.869-3.173c-1.395-1.4-3.705-1.16-5.068.272-1.77 1.844-3.148 2.53-4.789 2.46-2.29-.097-3.42-1.852-4.599-4.067-1.222-2.316-3.1-3.604-5.442-3.604-3.684 0-5.896 2.956-5.896 6.253 0 5.073 3.602 8.107 6.093 9.386 2.07 1.068 4.374 1.513 6.423 1.564-.122 1.215-.482 2.816-.88 3.948h4.214c-.414-1.132-.782-2.864-.894-4.082 6.174-.793 9.105-3.574 10.712-6.22.72-1.16 1.105-2.364 1.1-3.447-.005-.95-.31-1.812-.974-2.463" mask="url(#b)" transform="translate(56 .152)"/><path d="m126.398 34.152h-1.854v5.548h-3.544v1.452h11v-1.452h-5.602z"/><path d="m128.817 38.152h1.19c.446-2.119.76-4.766.947-6.54.103-.958.108-1.46-.823-1.46h-8.131v1.322h6.817z"/><path d="m112.027 32.644h4.948v-1.986h-4.948zm-.898 1.508h7.871v-5h-9v3.803c0 .706.288 1.197 1.129 1.197zm.947 3h-2.076v2.85c0 .678.294 1.15 1.152 1.15h7.848v-1.448h-6.924z" mask="url(#c)"/><path d="m109 36.716h4.7v2.436h2.022v-2.436h4.278v-1.564h-11zm-18.817-2.564h-1.779v4.681h-1.216v-4.681h-1.781v4.681h-2.407v1.319h11v-1.319h-3.817z" mask="url(#c)"/><path d="m91.9 38.152h1.144c.43-2.119.732-4.766.912-6.54.099-.958.104-1.46-.793-1.46h-8.163v1.322h6.9zm10.625-1h-1.984v2.523h-4.541v1.477h11v-1.477h-4.475zm1.465-4.188v1.95h-3.982v-1.95h3.981zm-4.873 3.188h5.766c.83 0 1.117-.47 1.117-1.144v-5.856h-2.01v2.372h-3.982v-2.372h-2.008v5.856c0 .674.285 1.144 1.117 1.144z" mask="url(#c)"/></g></svg>