<?xml version="1.0" encoding="UTF-8"?>
<svg width="84px" height="24px" viewBox="0 0 84 24" version="1.1" xmlns="http://www.w3.org/2000/svg" xmlns:xlink="http://www.w3.org/1999/xlink">
    <title>main_img_027</title>
    <defs>
        <polygon id="path-1" points="0.188447034 0.0121125 11.1191949 0.0121125 11.1191949 14.25 0.188447034 14.25"></polygon>
    </defs>
    <g id="WEB" stroke="none" stroke-width="1" fill="none" fill-rule="evenodd">
        <g id="2.0_Main" transform="translate(-1199.000000, -7148.000000)">
            <rect fill="#FFFFFF" x="0" y="0" width="1802" height="8280"></rect>
            <g id="Group-21" transform="translate(970.000000, 7148.000000)">
                <g id="Group-10" transform="translate(229.000000, 0.000000)">
                    <g id="main_img_027">
                        <g id="Group-20">
                            <path d="M11.2911098,3.55412228 C11.2914798,3.47493011 11.2918498,3.39723213 11.2918498,3.31206319 C11.2918498,2.57057044 11.1899181,1.97364077 11.0261984,1.50054225 C11.6832971,1.58384345 12.1208079,2.33841037 12.4023688,3.20690943 C12.0727095,3.3098219 11.6975416,3.42692919 11.2911098,3.55412228 L11.2911098,3.55412228 Z M9.8405717,10.9434617 C9.8405717,10.9434617 9.07173657,10.5290102 8.12937705,10.5290102 C6.74765674,10.5290102 6.67828399,11.4044199 6.67828399,11.625 C6.67828399,12.8285716 9.78562848,13.2897166 9.78562848,16.1088832 C9.78562848,18.3268244 8.39243854,19.7550851 6.51363931,19.7550851 C4.25893224,19.7550851 3.10623453,18.3384043 3.10623453,18.3384043 L3.70987,16.3247939 C3.70987,16.3247939 4.89494167,17.3520509 5.89501932,17.3520509 C6.54823319,17.3520509 6.81425459,16.8326324 6.81425459,16.4532945 C6.81425459,14.8830855 4.26485205,14.8130453 4.26485205,12.2333229 C4.26485205,10.0620752 5.80825713,7.96086784 8.92429634,7.96086784 C10.1249075,7.96086784 10.7179983,8.30808069 10.7179983,8.30808069 L9.8405717,10.9434617 Z M9.32906325,0.804248807 C9.4572641,0.804248807 9.58638992,0.848140695 9.70996592,0.934243505 C8.75817171,1.38623656 7.73792971,2.52518436 7.30707865,4.79934448 C6.67735902,4.99639104 6.06188392,5.18876826 5.49265734,5.36676387 C5.997691,3.63200704 7.19571225,0.804248807 9.32906325,0.804248807 L9.32906325,0.804248807 Z M10.51284,3.66730732 C10.51284,3.71325372 10.51247,3.7550911 10.5121,3.79748879 C9.78932836,4.02348532 9.00402876,4.26890635 8.21687922,4.51507447 C8.65882992,2.79301827 9.48723313,1.96131368 10.2114847,1.6473466 C10.3940738,2.10961223 10.51284,2.7726599 10.51284,3.66730732 L10.51284,3.66730732 Z M19.1163567,13.9557526 C19.0382892,13.4236335 18.9596667,12.8868451 18.8815993,12.3537921 C18.6670062,10.8887369 18.456668,9.45281848 18.2762988,8.21954981 C18.2269054,7.88298308 18.179917,7.56154504 18.1355184,7.2587844 C18.0173072,6.45136044 17.9183354,5.77561214 17.8485927,5.29821781 C17.7788499,4.82063672 17.7381512,4.5414096 17.7361163,4.52684123 C17.7320464,4.49770449 17.7227967,4.47155613 17.7096622,4.44895648 C17.6704434,4.38115752 17.5979258,4.34342917 17.5350278,4.33801272 C17.4514105,4.33110209 15.6812028,4.19867933 15.6812028,4.19867933 C15.6812028,4.19867933 15.5613267,4.07839688 15.3920571,3.90861932 C15.3245343,3.84082036 15.2490568,3.76517689 15.1700643,3.68617149 C15.1306606,3.64657541 15.0903319,3.60623223 15.0498182,3.56570227 C14.7255237,3.24034198 14.3847647,2.8983588 14.3170569,2.83018629 C14.2943026,2.80721309 14.2672935,2.79096375 14.2388044,2.77714248 C14.2317747,2.77378055 14.2247449,2.77060539 14.2175301,2.76780378 C14.1886711,2.75641057 14.158702,2.74707187 14.127623,2.74202897 L14.127438,2.74202897 C14.0081169,2.72335157 13.880471,2.74669832 13.8162781,2.76556249 C13.8009236,2.77023184 13.5476668,2.84923724 13.1282854,2.98016581 C12.7175986,1.78724032 11.9929771,0.690876994 10.7179983,0.690876994 C10.6828495,0.690876994 10.6467756,0.692371186 10.6101468,0.6944257 C10.2475585,0.210307514 9.79857806,0 9.41064561,0 C6.44056668,0 5.02184756,3.74836723 4.57693696,5.6530884 C3.42294428,6.0143093 2.6030508,6.27074999 2.49834419,6.30418253 C1.85401003,6.50813973 1.83384568,6.52868487 1.74948841,7.14130356 C1.68548048,7.60525016 0,20.7655324 0,20.7655324 L13.1336502,23.25 L20.25,21.6956668 C20.25,21.6956668 19.7011228,17.9487938 19.1163567,13.9557526 L19.1163567,13.9557526 Z" id="Fill-1" fill="#B5C1C9"></path>
                            <path d="M28.9470428,13.6844594 C28.2545074,13.3199046 27.8983102,13.0127822 27.8983102,12.5906201 C27.8983102,12.0532434 28.3929784,11.7077744 29.164769,11.7077744 C30.0638375,11.7077744 30.8666803,12.0723291 30.8666803,12.0723291 L31.5,10.191598 C31.5,10.191598 30.9175914,9.75 29.2044869,9.75 C26.8197891,9.75 25.1673447,11.0744437 25.1673447,12.9360891 C25.1673447,13.9915818 25.9391354,14.7977345 26.9681896,15.3734578 C27.7995571,15.8339664 28.0961775,16.1605248 28.0961775,16.6402942 C28.0961775,17.1393244 27.680584,17.5424007 26.9089738,17.5424007 C25.7591411,17.5424007 24.6726765,16.9665023 24.6726765,16.9665023 L24,18.8474085 C24,18.8474085 25.0030571,19.5 26.6912476,19.5 C29.1450906,19.5 30.9062177,18.3291175 30.9062177,16.2181321 C30.9062177,15.0855961 30.0158149,14.2794435 28.9470428,13.6844594" id="Fill-3" fill="#B5C1C9"></path>
                            <path d="M38.9545416,9.39368764 C37.7155462,9.39368764 36.7406204,9.97990023 35.9889953,10.8690846 L35.948412,10.8489848 L37.0250741,5.25 L34.2218611,5.25 L31.5,19.5 L34.3030277,19.5 L35.2373703,14.6288482 C35.603176,12.7892581 36.5577175,11.6574013 37.4516621,11.6574013 C38.0811666,11.6574013 38.3250371,12.0818937 38.3250371,12.6882061 C38.3250371,13.0721301 38.2844538,13.5371909 38.2031018,13.9212994 L37.146824,19.5 L39.9500371,19.5 L41.0468982,13.739295 C41.1686481,13.1327982 41.25,12.4053341 41.25,11.9201735 C41.25,10.3435401 40.4172083,9.39368764 38.9545416,9.39368764" id="Fill-5" fill="#B5C1C9"></path>
                            <path d="M46.3801898,18.0677671 C45.3905693,18.0677671 44.9692457,17.2441235 44.9692457,16.2148038 C44.9692457,14.588366 45.832642,11.9322329 47.4120771,11.9322329 C48.4439644,11.9322329 48.7807543,12.7970117 48.7807543,13.641129 C48.7807543,15.3913481 47.9175501,18.0677671 46.3801898,18.0677671 M47.8122672,9.75 C44.3164151,9.75 42,12.8381469 42,16.2764128 C42,18.4793072 43.3898106,20.25 46.0009409,20.25 C49.433777,20.25 51.75,17.2441235 51.75,13.7233994 C51.75,11.6854215 50.5288725,9.75 47.8122672,9.75" id="Fill-7" fill="#B5C1C9"></path>
                            <path d="M56.0512484,17.3125156 C55.3386091,17.3125156 54.9178834,16.9032593 54.9178834,16.9032593 L55.3750756,14.2618661 C55.6932959,12.5009995 56.5882678,11.3339374 57.5429287,11.3339374 C58.3778488,11.3339374 58.6365616,12.1326502 58.6365616,12.8898957 C58.6365616,14.712216 57.5824795,17.3125156 56.0512484,17.3125156 M58.6762937,9 C56.824121,9 55.7729417,10.6788659 55.7729417,10.6788659 L55.7330281,10.6788659 L55.8921382,9.16381457 L53.4661166,9.16381457 C53.3467387,10.1874222 53.128121,11.7435672 52.9093218,12.9106293 L51,23.25 L53.7444233,23.25 L54.5000605,19.0733821 L54.5597495,19.0733821 C54.5597495,19.0733821 55.123257,19.4417314 56.1706263,19.4417314 C59.3921987,19.4417314 61.5,16.0430927 61.5,12.6033602 C61.5,10.6994128 60.6848553,9 58.6762937,9" id="Fill-9" fill="#B5C1C9"></path>
                            <path d="M66.1011589,5.25 C65.209407,5.25 64.5,5.95462895 64.5,6.86076414 C64.5,7.6862601 65.0268771,8.25 65.8174701,8.25 L65.8581556,8.25 C66.7295648,8.25 67.4798422,7.66605437 67.5,6.63923586 C67.5,5.83394563 66.9525952,5.25 66.1011589,5.25" id="Fill-11" fill="#B5C1C9"></path>
                            <polygon id="Fill-13" fill="#B5C1C9" points="61.5 19.5 64.1768187 19.5 66 9.75 63.303893 9.75"></polygon>
                            <path d="M73.678483,9.73429625 L71.6319307,9.73429625 L71.7383133,9.27592092 C71.9088755,8.33916974 72.5059406,7.50223929 73.4865276,7.50223929 C74.0102723,7.50223929 74.4243281,7.64151557 74.4243281,7.64151557 L75,5.48909701 C75,5.48909701 74.4883133,5.25 73.4011492,5.25 C72.3565771,5.25 71.312005,5.52909803 70.5233734,6.16693249 C69.5213932,6.96422556 69.0524929,8.11989142 68.8179455,9.27592092 L68.7325672,9.73429625 L67.3684583,9.73429625 L66.9419554,11.8068946 L68.3062588,11.8068946 L66.75,19.5 L69.6919554,19.5 L71.2480198,11.8068946 L73.2733734,11.8068946 L73.678483,9.73429625 Z" id="Fill-15" fill="#B5C1C9"></path>
                            <g id="Group-19" transform="translate(72.750000, 9.750000)">
                                <mask id="mask-2" fill="white">
                                    <use xlink:href="#path-1"></use>
                                </mask>
                                <g id="Clip-18"></g>
                                <path d="M8.1095911,0.0121125 C8.1095911,0.0121125 6.30673093,4.36457404 5.49711229,6.7404875 L5.45535381,6.7404875 C5.39986653,5.9757375 4.74469703,0.0121125 4.74469703,0.0121125 L1.71406144,0.0121125 L3.44904025,9.00331442 C3.49060805,9.20354519 3.46982415,9.32375673 3.3863072,9.46388173 C3.05185805,10.0848529 2.48745127,10.6855452 1.81855297,11.1258337 C1.27512076,11.5063817 0.669146186,11.7466221 0.188447034,11.9068433 L0.982430085,14.2500548 C1.56762076,14.1296606 2.78014195,13.669276 3.80408263,12.7481413 C5.12090466,11.5664875 6.33323517,9.74431442 7.58713347,7.26116058 L11.1192521,0.0121125 L8.1095911,0.0121125 Z" id="Fill-17" fill="#B5C1C9" mask="url(#mask-2)"></path>
                            </g>
                        </g>
                    </g>
                </g>
            </g>
        </g>
    </g>
</svg>