<svg height="36" viewBox="0 0 143 36" width="143" xmlns="http://www.w3.org/2000/svg" xmlns:xlink="http://www.w3.org/1999/xlink"><mask id="a" fill="#fff"><path d="m.46.188h21.297v17.674h-21.297z" fill="#fff" fill-rule="evenodd"/></mask><mask id="b" fill="#fff"><path d="m.026.169h25.698v17.591h-25.698z" fill="#fff" fill-rule="evenodd"/></mask><mask id="c" fill="#fff"><path d="m.17.216h3.372v3.304h-3.372z" fill="#fff" fill-rule="evenodd"/></mask><g fill="#b5c1c9" fill-rule="evenodd"><path d="m3.439 9.341c0-3.154 2.62-5.715 5.833-5.715h9.722c3.216 0 5.83 2.56 5.83 5.715 0 3.145-2.614 5.715-5.83 5.715h-9.722c-3.213 0-5.833-2.57-5.833-5.715zm5.578-8.839c-4.975 0-9.017 3.961-9.017 8.84 0 4.87 4.042 8.834 9.017 8.834h10.2c4.97 0 9.016-3.964 9.016-8.835 0-4.878-4.046-8.839-9.017-8.839h-10.2z" transform="translate(0 8)"/><path d="m9.476.188c-4.97 0-9.016 3.962-9.016 8.84 0 4.87 4.045 8.834 9.016 8.834h10.345l1.936-3.06h-12.154c-3.247 0-5.886-2.593-5.886-5.774 0-3.187 2.639-5.779 5.886-5.779h10.018l2.035-3.06h-12.18z" mask="url(#a)" transform="translate(74.882 8.314)"/><path d="m126.127 15.079c-2.76 0-5.081-1.742-5.718-4.22h14.657l2.109-3.064h-16.685c.738-2.362 2.984-4.087 5.636-4.087h9.91l2.144-3.206h-12.2c-4.971 0-9.021 3.961-9.021 8.84 0 4.87 4.05 8.834 9.02 8.834h10.39l2.008-3.097zm-94.408-14.494h-1.68v17.472h3.476v-14.408h11.297c1.6 0 2.907 1.28 2.907 2.862 0 1.57-1.307 2.846-2.907 2.846l-9.557-.007 9.94 8.644 5.028.03s-3.942-3.336-6.533-5.609h1.345c3.329 0 6.032-2.644 6.032-5.904 0-3.27-2.703-5.926-6.028-5.926h-13.32z" transform="translate(0 8)"/><path d="m25.724 17.743-10.906-16.636c-.231-.535-1.05-.938-2.03-.938-.983 0-1.808.403-2.033.946l-10.729 16.628 4.001-.01s6.8-10.667 8.84-13.738c.955 1.453 2.967 4.57 4.83 7.476h-9.287l2.272 3.257h9.11c1.138 1.777 1.938 3.032 1.938 3.032l3.993-.017z" mask="url(#b)" transform="translate(51.235 8.314)"/><path d="m117.72 14.9h-16.034c.029-2.51 0-14.297 0-14.297l-3.318-.028v16.093c-.045.366.158.799.563 1.102.227.169.474.269.715.304.112.008.213.008.316 0h15.792l1.967-3.175z" transform="translate(0 8)"/><path d="m.5 1.864c0 .738.605 1.328 1.357 1.332.752-.004 1.35-.594 1.358-1.332-.009-.731-.605-1.32-1.358-1.326-.752.006-1.357.595-1.357 1.326m-.331 0c.001-.907.757-1.648 1.688-1.648.929 0 1.685.74 1.685 1.648 0 .916-.756 1.656-1.685 1.656-.931 0-1.687-.74-1.687-1.656" mask="url(#c)" transform="translate(138.925 8.314)"/><path d="m140.156 3.034h.48v-.752h.162l.428.752h.53l-.478-.805c.131-.032.23-.1.299-.186.07-.088.104-.194.104-.314 0-.11-.028-.207-.077-.287-.054-.075-.128-.14-.228-.184-.067-.026-.146-.051-.235-.062-.1-.008-.242-.017-.441-.017h-.544zm.62-1.54c.159 0 .28.014.332.055.063.033.097.094.097.183 0 .1-.034.16-.097.2-.052.036-.173.051-.333.051h-.14v-.49h.14z" transform="translate(0 8)"/></g></svg>