<svg height="42" viewBox="0 0 126 42" width="126" xmlns="http://www.w3.org/2000/svg"><path d="m42.013 2.293v12.214h-8.683-.11l-.224-.114-.169-.173-.093-.209-.019-.135v-3.001h-3.534v5.391l.017.381.281.669.486.498.653.287.358.018h14.588v-15.826zm8.268 15.826h3.591v-15.826h-3.591zm8.078-15.826v15.826h3.555v-12.212h8.678.114l.224.113.167.172.095.21.018.135v11.582h3.537v-13.972l-.021-.381-.279-.67-.488-.497-.655-.288-.392-.018zm-35.951-2.293-.601.038-1.178.229-.56.211-.035.019-.076.018-.096.038-.128.04-.86.344-1.667.803-1.626.898-1.515 1.033-.75.572-.15.115-.147.114.017.134v.114l.037.135.038.096.094.592.093 1.223.018.631v.23.19.038l-.018.058v.077l1.497 1.071.506.401 3.684 2.694.41-.038.73-.172.711-.25.653-.381.318-.228.376-.306.709-.728.562-.841.395-.955.148-.497v-.039-.038h.021l.203-.956.225-1.95.018-.994-.018-1.05-.128-1.013v-.077-.057l-.097-.344-.298-.572-.469-.403-.614-.249-.339-.018zm-9.577 12.29-.037.133-.188 1.452-.036.25.056.058 1.271.84.281.211v.477l-.337-.076-.954-.133.169.439.466.842.636.723.75.594.428.268.225.096.225.096.017.019h.021l.056.016.04.023h.035l.017.016.3.078.581.097.56-.02.542-.115.525-.23.487-.306.428-.4.355-.478.133-.27.204-.476.076-.46.038-.266-.021-.554-.055-.269-.018-.132-.038-.134-.035-.078-.038-.094-.019-.038v-.02-.038l-.04-.038-.203-.498-.6-.858-.374-.364-2.974-1.244-.6-.248-1.419-.573-.656-.286zm87.503 5.829h3.593v-15.826h-3.593zm-19.063-15.826-.353.018-.675.288-.486.497-.279.67-.02.381v13.973h3.555v-4.95h9.316v4.95h3.514v-15.826h-14.572zm1.742 4.244v-.154l.093-.19.17-.173.206-.095.128-.018h8.719v3.63h-9.316zm25.624-4.244v15.826h3.556v-12.212h8.678.114l.224.113.169.172.093.21v.135 3h3.555v-5.39l-.02-.381-.279-.67-.487-.497-.657-.288-.373-.018zm-106.655-2.293-.335.018-.618.249-.49.403-.335.572-.074.344v.057.077l-.113 1.013-.017 1.05.017.994.244 1.95.206.956v.038l.019.039.129.497.414.955.561.841.709.728.393.306.319.228.672.381.729.25.75.172.393.038 3.759-2.694.542-.401 1.513-1.071v-.077-.058-.038-.19l-.017-.23.017-.631.115-1.223.093-.592.019-.096.02-.135.016-.114.038-.134-.149-.114-.169-.115-.746-.572-1.591-1.033-1.627-.898-1.722-.803-.879-.344-.11-.04-.096-.038-.055-.018-.056-.019-.581-.211-1.197-.229-.616-.038zm8.752 10.608-1.381.574-.564.248-2.88 1.243-.372.363-.6.86-.206.497v.038.039l-.036.018v.039l-.038.094-.019.077-.037.135-.038.133-.056.269-.019.553.038.267.075.458.186.478.15.27.318.476.43.401.466.307.507.23.561.115.561.018.562-.096.261-.077.036-.018.057-.021.041-.016h.016l.019-.02.224-.095.225-.098.43-.266.73-.594.597-.725.45-.841.168-.44-.898.134-.356.076v-.476l.299-.212 1.218-.841.036-.057-.036-.249-.189-1.453-.017-.132-.262-1.969z" fill="#b5c1c9" fill-rule="evenodd" transform="translate(0 15)"/></svg>