<svg height="30" viewBox="0 0 105 30" width="105" xmlns="http://www.w3.org/2000/svg" xmlns:xlink="http://www.w3.org/1999/xlink"><mask id="a" fill="#fff"><path d="m.236.015h13.663v17.798h-13.663z" fill="#fff" fill-rule="evenodd"/></mask><g fill="#b5c1c9" fill-rule="evenodd"><path d="m14.114 4.443v-.303c0-.927-.127-1.673-.331-2.264.821.104 1.368 1.047 1.72 2.133l-1.39.434zm-1.814 9.236s-.961-.518-2.14-.518c-1.726 0-1.813 1.095-1.813 1.37 0 1.505 3.884 2.081 3.884 5.605 0 2.773-1.741 4.558-4.09 4.558-2.818 0-4.26-1.771-4.26-1.771l.755-2.517s1.484 1.284 2.734 1.284c.816 0 1.149-.65 1.149-1.123 0-1.963-3.187-2.05-3.187-5.275 0-2.714 1.93-5.34 5.824-5.34 1.501 0 2.242.433 2.242.433l-1.096 3.294zm-.64-12.674c.16 0 .322.055.476.163-1.19.565-2.465 1.988-3.003 4.831l-2.268.71c.631-2.169 2.129-5.704 4.795-5.704zm1.48 3.58v.162l-2.87.897c.553-2.153 1.588-3.192 2.493-3.585.229.578.377 1.407.377 2.525zm10.754 12.86-.293-2.003-.757-5.168-.176-1.2-.358-2.451-.14-.964c-.006-.037-.018-.07-.034-.098-.049-.085-.14-.132-.218-.138-.105-.01-2.317-.175-2.317-.175l-.362-.362-.277-.278-.15-.15-.917-.92c-.028-.029-.062-.05-.097-.067l-.027-.011c-.036-.014-.074-.026-.112-.032-.15-.024-.31.005-.39.029l-.86.268c-.513-1.49-1.419-2.861-3.013-2.861-.043 0-.089.001-.134.004-.453-.605-1.014-.868-1.499-.868-3.712 0-5.486 4.685-6.042 7.066l-2.598.814c-.805.255-.83.28-.936 1.047-.08.58-2.187 17.03-2.187 17.03l16.417 3.105 8.895-1.942-1.417-9.675zm12.29-.339c-.866-.456-1.311-.84-1.311-1.368 0-.671.618-1.103 1.583-1.103 1.124 0 2.127.455 2.127.455l.792-2.35s-.728-.553-2.87-.553c-2.98 0-5.046 1.656-5.046 3.983 0 1.32.965 2.327 2.251 3.047 1.04.575 1.41.984 1.41 1.583 0 .624-.52 1.128-1.484 1.128-1.437 0-2.795-.72-2.795-.72l-.841 2.352s1.254.816 3.364.816c3.067 0 5.269-1.464 5.269-4.102 0-1.416-1.113-2.424-2.45-3.167m12.51-5.365c-1.549 0-2.767.733-3.707 1.844l-.05-.025 1.345-6.998h-3.504l-3.402 17.812h3.504l1.168-6.089c.457-2.3 1.65-3.714 2.768-3.714.786 0 1.091.53 1.091 1.288 0 .48-.05 1.061-.152 1.542l-1.32 6.973h3.504l1.37-7.2c.153-.759.255-1.668.255-2.275 0-1.97-1.041-3.158-2.87-3.158m9.282 10.843c-1.237 0-1.763-1.03-1.763-2.316 0-2.034 1.079-5.354 3.053-5.354 1.29 0 1.71 1.081 1.71 2.136 0 2.188-1.078 5.534-3 5.534m1.79-10.398c-4.37 0-7.265 3.86-7.265 8.159 0 2.753 1.737 4.966 5.001 4.966 4.291 0 7.187-3.757 7.187-8.158 0-2.547-1.527-4.966-4.923-4.966m10.299 9.452c-.89 0-1.417-.51-1.417-.51l.572-3.303c.398-2.2 1.516-3.66 2.71-3.66 1.043 0 1.367.999 1.367 1.945 0 2.278-1.318 5.529-3.232 5.529m3.281-10.391c-2.315 0-3.629 2.099-3.629 2.099h-.05l.2-1.894h-3.033c-.15 1.28-.423 3.224-.696 4.683l-2.387 12.924h3.43l.945-5.22h.075s.704.46 2.013.46c4.027 0 6.662-4.248 6.662-8.548 0-2.38-1.019-4.504-3.53-4.504m9.281-4.687c-1.114 0-2.001.88-2.001 2.013 0 1.032.659 1.736 1.647 1.736h.05c1.09 0 2.028-.73 2.053-2.013 0-1.007-.684-1.736-1.749-1.736m-5.751 17.812h3.346l2.279-12.187h-3.37zm15.223-12.207h-2.558l.133-.573c.213-1.171.96-2.217 2.185-2.217.655 0 1.172.174 1.172.174l.72-2.69s-.64-.3-1.999-.3c-1.305 0-2.611.35-3.597 1.147-1.252.996-1.838 2.44-2.132 3.886l-.106.573h-1.706l-.534 2.59h1.706l-1.945 9.617h3.677l1.945-9.616h2.532l.506-2.591z"/><path d="m10.137.015s-2.254 5.44-3.266 8.41h-.051c-.07-.955-.888-8.41-.888-8.41h-3.789l2.168 11.24c.052.25.026.4-.078.575-.418.776-1.124 1.527-1.96 2.077-.68.476-1.437.776-2.037.977l.992 2.929c.732-.15 2.247-.726 3.527-1.878 1.646-1.477 3.162-3.755 4.729-6.859l4.415-9.06h-3.762z" mask="url(#a)" transform="translate(90.938 12.188)"/></g></svg>