<svg xmlns="http://www.w3.org/2000/svg" xmlns:xlink="http://www.w3.org/1999/xlink" width="554" height="502" viewBox="0 0 554 502">
  <defs>
    <rect id="img1-a" width="637" height="502" x="0" y="0"/>
    <polygon id="img1-c" points="0 0 550 0 550 504 0 504"/>
  </defs>
  <g fill="none" fill-rule="evenodd" transform="translate(-398 -1118)">
    <rect width="1802" height="3944" fill="#FFF"/>
    <g transform="translate(360 1118)">
      <mask id="img1-b" fill="#fff">
        <use xlink:href="#img1-a"/>
      </mask>
      <g mask="url(#img1-b)">
        <g transform="translate(20 -27)">
          <g transform="rotate(-5 560.345 23.51)">
            <mask id="img1-d" fill="#fff">
              <use xlink:href="#img1-c"/>
            </mask>
            <path fill="#F8F8F8" d="M124.947406,341.966722 C161.409822,374.192188 129.428948,463.16771 241.078793,497.883962 C352.729677,532.601253 508.777137,412.360018 537.900924,317.675836 C567.024711,222.990616 540.467002,162.370387 491.332173,139.038215 C442.197345,115.705005 366.611857,132.463285 342.827049,68.1390753 C319.041203,3.8138266 234.346087,-24.6401427 157.006229,25.8590571 C88.013139,70.9071935 139.536322,113.468698 52.7719222,147.232468 C-8.89916774,171.231481 -18.1813226,249.811759 33.7440764,293.148129 C76.620128,328.93008 93.9497271,314.569104 124.947406,341.966722" mask="url(#img1-d)"/>
          </g>
          <g transform="translate(125 67)">
            <path fill="#0A0A0A" d="M42.7476903,192.083831 C42.7476903,192.083831 45.1551749,187.813467 35.1400388,187.054292 C26.120253,186.370274 20.855373,192.255405 20.502532,198.740285 C20.0680292,206.715427 13.6090368,200.90925 10.6699795,206.982657 C7.73092221,213.056064 14.535822,214.068045 11.9680952,217.357554 C9.40036837,220.647822 0.2473043,220.773845 0.632501845,231.276283 C1.01769939,241.777963 7.68855048,240.477494 8.33105999,243.640221 C8.9727991,246.803707 0.00925221658,248.990133 0,257.214285 C-0.0092372656,265.439196 8.55755614,273.122055 17.4170997,270.464939 C26.2766432,267.807824 26.6618408,259.330108 26.6618408,259.330108 L45.5727291,234.692575 C45.5727291,234.692575 51.2220363,232.104544 52.3776289,226.755391 C53.5332215,221.406998 48.2691119,218.370294 50.8368387,214.954003 C53.4045656,211.537712 56.9976883,212.344716 57,205.511374 C57.0023106,199.770487 49.6812461,201.794449 49.1589182,193.441238 C48.998676,190.884334 46.4710097,187.6548 42.7476903,192.083831"/>
            <path fill="#FFF" d="M46.3303404,200.936704 C44.9020709,194.445323 42.8830066,194 42.8830066,194 C39.0644929,197.461512 42.3007181,198.906152 38.8085334,203.275789 C36.2744569,206.448526 31.9285584,206.609632 31.3934406,204.329062 C30.8575496,202.047731 28.2159856,199.29372 27.1449768,202.983214 C26.3523529,205.715187 28.861684,206.964523 30.2211306,207.429604 L24,216.928055 C24,216.928055 35.860746,223.186135 34.7618987,220.185904 C34.0303648,218.19031 35.6929417,215.231116 36.7245126,213.671725 C41.6155818,215.448458 44.5192916,214.503856 45.6227786,212.925467 C46.6048589,211.522624 47.7586099,207.428084 46.3303404,200.936704"/>
            <path stroke="#171717" d="M46.3303404,200.936704 C44.9020709,194.445323 42.8830066,194 42.8830066,194 C39.0644929,197.461512 42.3007181,198.906152 38.8085334,203.275789 C36.2744569,206.448526 31.9285584,206.609632 31.3934406,204.329062 C30.8575496,202.047731 28.2159856,199.29372 27.1449768,202.983214 C26.3523529,205.715187 28.861684,206.964523 30.2211306,207.429604 L24,216.928055 C24,216.928055 35.860746,223.186135 34.7618987,220.185904 C34.0303648,218.19031 35.6929417,215.231116 36.7245126,213.671725 C41.6155818,215.448458 44.5192916,214.503856 45.6227786,212.925467 C46.6048589,211.522624 47.7586099,207.428084 46.3303404,200.936704 Z"/>
            <path fill="#FFF" d="M116,381.788275 C114.737479,382.097627 113.414477,382.059901 112.083916,381.727914 C107.547912,378.709849 106.03591,372.673719 102.255906,368.901138 C101.983746,368.901138 101.416745,368.704964 100.804385,368.599332 C100.660745,368.569151 100.509545,368.554061 100.358344,368.538971 C99.0731431,366.124519 88.8822529,347.050349 79.7044037,333.567145 C73.0969571,323.871612 72.4770365,312.734952 72.5299565,308.260671 C72.5375165,306.977994 72.6131166,306.238568 72.6131166,306.238568 C62.7851068,308.290852 36,306.834636 36,306.834636 C36,306.834636 50.1901342,299.696912 67.9107919,295.320718 C85.6390096,290.944524 89.041013,288.552708 90.2581743,303.575126 C91.4677755,318.605088 105.310149,363.36299 109.921754,372.809532 C111.887356,376.838649 114.132678,379.713356 116,381.788275"/>
            <path stroke="#171717" d="M116,381.788275 C114.737479,382.097627 113.414477,382.059901 112.083916,381.727914 C107.547912,378.709849 106.03591,372.673719 102.255906,368.901138 C101.983746,368.901138 101.416745,368.704964 100.804385,368.599332 C100.660745,368.569151 100.509545,368.554061 100.358344,368.538971 C99.0731431,366.124519 88.8822529,347.050349 79.7044037,333.567145 C73.0969571,323.871612 72.4770365,312.734952 72.5299565,308.260671 C72.5375165,306.977994 72.6131166,306.238568 72.6131166,306.238568 C62.7851068,308.290852 36,306.834636 36,306.834636 C36,306.834636 50.1901342,299.696912 67.9107919,295.320718 C85.6390096,290.944524 89.041013,288.552708 90.2581743,303.575126 C91.4677755,318.605088 105.310149,363.36299 109.921754,372.809532 C111.887356,376.838649 114.132678,379.713356 116,381.788275 Z"/>
            <path fill="#190937" d="M111.990772,382.504679 C107.411939,379.41454 105.885661,373.234263 102.069967,369.371589 C101.728844,369.371589 100.930601,369.065665 100.152199,369 C100.241486,369.169958 100.289564,369.261889 100.289564,369.261889 C100.289564,369.261889 99.9331782,370.692624 99.0937255,374.376069 C98.4771093,377.079168 100.98631,378.091961 104.172414,378.339944 C107.359282,378.588701 106.213048,383.04159 109.399152,385.274988 C112.58602,387.508386 119.204723,388.749077 119.940389,387.508386 C120.362405,386.796109 118.492715,385.425633 115.945357,382.563392 C114.670152,382.884766 113.330081,382.843822 111.990772,382.504679"/>
            <path fill="#FFF" d="M66,310.496 L66,310.504 C66,312.424 64.4930253,314 62.6494675,314 L18.3428829,314 C16.5069747,314 15,312.424 15,310.504 L15,310.496 C15,309.928 15.1300435,309.392 15.3671816,308.92 C15.9179541,307.784 17.0500975,307 18.3428829,307 L62.6494675,307 C63.9499025,307 65.0820459,307.784 65.6328184,308.92 C65.8699565,309.392 66,309.928 66,310.496"/>
            <path stroke="#171717" d="M66,310.496 L66,310.504 C66,312.424 64.4930253,314 62.6494675,314 L18.3428829,314 C16.5069747,314 15,312.424 15,310.504 L15,310.496 C15,309.928 15.1300435,309.392 15.3671816,308.92 C15.9179541,307.784 17.0500975,307 18.3428829,307 L62.6494675,307 C63.9499025,307 65.0820459,307.784 65.6328184,308.92 C65.8699565,309.392 66,309.928 66,310.496 Z"/>
            <path fill="#171717" d="M51.8158688,284.395045 C49.9569035,284.448168 48.5740147,284.341922 47.8863487,283.985238 C43.6016604,281.761652 49.5186109,268.761645 47.1911259,257.294622 C46.7830604,255.268351 46.533687,253.697422 46.4278922,252.445232 C46.0651673,248.248499 47.2818071,247.611021 49.1785563,245.326723 C52.004788,241.91166 50.4480935,237.4569 49.3674755,236.379257 C48.0374841,235.058766 40.2011142,228.706749 37.0499413,223.842181 C34.5365598,219.96267 31.0884059,216.915674 28.4405139,216.172708 C28.4465593,216.172708 28.4526047,216.171191 28.4578945,216.169673 C28.4223776,216.159807 28.3891279,216.154495 28.353611,216.145388 C28.2939126,216.13021 28.2349698,216.118067 28.176027,216.105166 C28.0505846,216.077087 27.9266536,216.053561 27.8049896,216.036865 C27.7377343,216.026999 27.6712348,216.018651 27.6047352,216.013339 C27.4823155,216.001955 27.3629186,215.99892 27.245033,216 C27.1936469,216.001196 27.1407495,215.998161 27.0901192,216.001955 C26.9231146,216.01258 26.760644,216.032311 26.6064859,216.071015 C23.9691734,216.723672 17.4023408,217.421863 15.1353099,228.289352 C12.8682791,239.156842 18.671878,251.36759 22.3822518,261.498944 C26.0926256,271.637887 21.7248129,278.703273 18.6643213,281.746474 C15.3091156,285.085647 10.8581784,293.714373 17.2360918,302.692194 C17.8557469,303.564933 18.5811968,304.44526 19.4199982,305.325588 C19.6346104,305.550223 19.8620692,305.765751 20.0978404,305.975967 C20.1794535,306.048822 20.2663564,306.117882 20.3502365,306.18846 C20.5089287,306.323545 20.6698879,306.455594 20.8368925,306.583849 C20.9419316,306.664292 21.0499934,306.742459 21.1588108,306.820626 C21.3144803,306.932944 21.4731725,307.043744 21.635643,307.150749 C21.75504,307.229675 21.8751926,307.307083 21.9976123,307.383732 C22.1608385,307.485425 22.3285988,307.583324 22.4971147,307.679704 C22.6255798,307.752559 22.7517778,307.826932 22.8832656,307.898268 C23.0631167,307.994649 23.2490133,308.085717 23.4349098,308.177545 C23.6306301,308.274684 23.8293732,308.369547 24.0318946,308.461374 C24.2593533,308.563826 24.4875678,308.66476 24.7225833,308.761141 C24.9069685,308.836272 25.0981548,308.906092 25.287074,308.977428 C25.4329196,309.032069 25.5780096,309.088228 25.7276337,309.140593 C25.9339335,309.213447 26.1440116,309.282507 26.3556012,309.350809 C26.4908674,309.394066 26.6261335,309.437324 26.7629111,309.479822 C26.9911255,309.549641 27.221607,309.615666 27.4558668,309.680173 C27.5714854,309.712805 27.6878596,309.743161 27.8049896,309.773518 C28.0649424,309.841819 28.3264067,309.909361 28.5931606,309.971591 C28.6468137,309.984493 28.7027338,309.995117 28.7563868,310.008019 C38.2348428,312.173928 51.5793419,310.632596 62.7429574,306.942051 C62.8185251,306.221093 62.9092064,305.477368 63.0225579,304.718465 C64.1485165,297.015601 67.0956566,287.55967 72,282.308062 C64.6926039,283.044198 56.6522013,284.258443 51.8158688,284.395045"/>
            <path stroke="#FFF" d="M51.8158688,284.395045 C49.9569035,284.448168 48.5740147,284.341922 47.8863487,283.985238 C43.6016604,281.761652 49.5186109,268.761645 47.1911259,257.294622 C46.7830604,255.268351 46.533687,253.697422 46.4278922,252.445232 C46.0651673,248.248499 47.2818071,247.611021 49.1785563,245.326723 C52.004788,241.91166 50.4480935,237.4569 49.3674755,236.379257 C48.0374841,235.058766 40.2011142,228.706749 37.0499413,223.842181 C34.5365598,219.96267 31.0884059,216.915674 28.4405139,216.172708 C28.4465593,216.172708 28.4526047,216.171191 28.4578945,216.169673 C28.4223776,216.159807 28.3891279,216.154495 28.353611,216.145388 C28.2939126,216.13021 28.2349698,216.118067 28.176027,216.105166 C28.0505846,216.077087 27.9266536,216.053561 27.8049896,216.036865 C27.7377343,216.026999 27.6712348,216.018651 27.6047352,216.013339 C27.4823155,216.001955 27.3629186,215.99892 27.245033,216 C27.1936469,216.001196 27.1407495,215.998161 27.0901192,216.001955 C26.9231146,216.01258 26.760644,216.032311 26.6064859,216.071015 C23.9691734,216.723672 17.4023408,217.421863 15.1353099,228.289352 C12.8682791,239.156842 18.671878,251.36759 22.3822518,261.498944 C26.0926256,271.637887 21.7248129,278.703273 18.6643213,281.746474 C15.3091156,285.085647 10.8581784,293.714373 17.2360918,302.692194 C17.8557469,303.564933 18.5811968,304.44526 19.4199982,305.325588 C19.6346104,305.550223 19.8620692,305.765751 20.0978404,305.975967 C20.1794535,306.048822 20.2663564,306.117882 20.3502365,306.18846 C20.5089287,306.323545 20.6698879,306.455594 20.8368925,306.583849 C20.9419316,306.664292 21.0499934,306.742459 21.1588108,306.820626 C21.3144803,306.932944 21.4731725,307.043744 21.635643,307.150749 C21.75504,307.229675 21.8751926,307.307083 21.9976123,307.383732 C22.1608385,307.485425 22.3285988,307.583324 22.4971147,307.679704 C22.6255798,307.752559 22.7517778,307.826932 22.8832656,307.898268 C23.0631167,307.994649 23.2490133,308.085717 23.4349098,308.177545 C23.6306301,308.274684 23.8293732,308.369547 24.0318946,308.461374 C24.2593533,308.563826 24.4875678,308.66476 24.7225833,308.761141 C24.9069685,308.836272 25.0981548,308.906092 25.287074,308.977428 C25.4329196,309.032069 25.5780096,309.088228 25.7276337,309.140593 C25.9339335,309.213447 26.1440116,309.282507 26.3556012,309.350809 C26.4908674,309.394066 26.6261335,309.437324 26.7629111,309.479822 C26.9911255,309.549641 27.221607,309.615666 27.4558668,309.680173 C27.5714854,309.712805 27.6878596,309.743161 27.8049896,309.773518 C28.0649424,309.841819 28.3264067,309.909361 28.5931606,309.971591 C28.6468137,309.984493 28.7027338,309.995117 28.7563868,310.008019 C38.2348428,312.173928 51.5793419,310.632596 62.7429574,306.942051 C62.8185251,306.221093 62.9092064,305.477368 63.0225579,304.718465 C64.1485165,297.015601 67.0956566,287.55967 72,282.308062 C64.6926039,283.044198 56.6522013,284.258443 51.8158688,284.395045 Z"/>
            <path fill="#FFF" d="M40.5,418 C39.672,418 39,417.317142 39,416.475763 L39,313.524237 C39,312.682858 39.672,312 40.5,312 C41.328,312 42,312.682858 42,313.524237 L42,416.475763 C42,417.317142 41.328,418 40.5,418"/>
            <path stroke="#171717" d="M40.5,418 C39.672,418 39,417.317142 39,416.475763 L39,313.524237 C39,312.682858 39.672,312 40.5,312 C41.328,312 42,312.682858 42,313.524237 L42,416.475763 C42,417.317142 41.328,418 40.5,418 Z"/>
            <path fill="#FFF" d="M8.52610588,415 C8.43999019,415 8.35235033,414.99244 8.26394839,414.978076 C7.43479914,414.835196 6.87923865,414.052752 7.02251077,413.229486 L26.9739147,314.253064 C27.1179489,313.430554 27.8990868,312.882465 28.736619,313.021566 C29.5650061,313.164447 30.1213287,313.946891 29.9772945,314.770157 L10.0266526,413.746579 C9.89786016,414.481395 9.25389773,415 8.52610588,415"/>
            <path stroke="#171717" d="M8.52610588,415 C8.43999019,415 8.35235033,414.99244 8.26394839,414.978076 C7.43479914,414.835196 6.87923865,414.052752 7.02251077,413.229486 L26.9739147,314.253064 C27.1179489,313.430554 27.8990868,312.882465 28.736619,313.021566 C29.5650061,313.164447 30.1213287,313.946891 29.9772945,314.770157 L10.0266526,413.746579 C9.89786016,414.481395 9.25389773,415 8.52610588,415 Z"/>
            <path fill="#FFF" d="M73.4739447,415 C72.7461769,415 72.1022359,414.481395 71.9734476,413.746579 L52.0227048,314.770157 C51.8786753,313.946891 52.4349795,313.164447 53.2633392,313.021566 C54.1016057,312.882465 54.8819556,313.430554 55.025985,314.253064 L74.97749,413.229486 C75.1207573,414.052752 74.5652153,414.835196 73.7360935,414.978076 C73.6476945,414.99244 73.5600575,415 73.4739447,415"/>
            <path stroke="#171717" d="M73.4739447,415 C72.7461769,415 72.1022359,414.481395 71.9734476,413.746579 L52.0227048,314.770157 C51.8786753,313.946891 52.4349795,313.164447 53.2633392,313.021566 C54.1016057,312.882465 54.8819556,313.430554 55.025985,314.253064 L74.97749,413.229486 C75.1207573,414.052752 74.5652153,414.835196 73.7360935,414.978076 C73.6476945,414.99244 73.5600575,415 73.4739447,415 Z"/>
            <path fill="#FFF" d="M67,369.995969 C66.8044003,370.574936 66.2401703,371 65.5781405,371 L15.4218595,371 C14.7598297,371 14.1955997,370.574936 14,369.995969 C14.1955997,369.417003 14.7598297,369 15.4218595,369 L65.5781405,369 C66.2401703,369 66.8044003,369.417003 67,369.995969"/>
            <path stroke="#171717" d="M67,369.995969 C66.8044003,370.574936 66.2401703,371 65.5781405,371 L15.4218595,371 C14.7598297,371 14.1955997,370.574936 14,369.995969 C14.1955997,369.417003 14.7598297,369 15.4218595,369 L65.5781405,369 C66.2401703,369 66.8044003,369.417003 67,369.995969 Z"/>
            <path fill="#FFF" d="M58,323.003636 C57.791411,323.578182 57.2197228,324 56.5321518,324 L25.4678482,324 C24.7802772,324 24.208589,323.578182 24,323.003636 C24.2008634,322.421818 24.7802772,322 25.4678482,322 L56.5321518,322 C57.2197228,322 57.7991366,322.421818 58,323.003636"/>
            <path stroke="#171717" d="M58,323.003636 C57.791411,323.578182 57.2197228,324 56.5321518,324 L25.4678482,324 C24.7802772,324 24.208589,323.578182 24,323.003636 C24.2008634,322.421818 24.7802772,322 25.4678482,322 L56.5321518,322 C57.2197228,322 57.7991366,322.421818 58,323.003636 Z"/>
            <path fill="#FFF" d="M90.2921205,299.958473 C92.2075293,288.827456 89.8921831,285.218957 87.4335644,282.498143 C85.679816,280.557094 78.8640253,280.804095 71.2759418,281.556499 C65.813962,287.334048 62.8588693,295.892452 62,303.932533 C66.8712677,302.342605 71.6107552,300.161394 74.9198155,298.082023 C74.9198155,298.082023 71.0889979,306.616106 70.3228344,312.552497 C69.5804219,318.301926 68.3614557,349.003803 63.6449531,354.42035 C63.906981,354.649111 64.1368301,354.876353 64.3214755,355.058754 C67.0497838,360.471501 66.14188,371.295476 72.9346858,372 C71.4192144,368.0533 69.4501741,362.22103 71.2169472,358.098769 C74.0257027,351.543736 88.3767117,311.089489 90.2921205,299.958473"/>
            <path stroke="#171717" d="M90.2921205,299.958473 C92.2075293,288.827456 89.8921831,285.218957 87.4335644,282.498143 C85.679816,280.557094 78.8640253,280.804095 71.2759418,281.556499 C65.813962,287.334048 62.8588693,295.892452 62,303.932533 C66.8712677,302.342605 71.6107552,300.161394 74.9198155,298.082023 C74.9198155,298.082023 71.0889979,306.616106 70.3228344,312.552497 C69.5804219,318.301926 68.3614557,349.003803 63.6449531,354.42035 C63.906981,354.649111 64.1368301,354.876353 64.3214755,355.058754 C67.0497838,360.471501 66.14188,371.295476 72.9346858,372 C71.4192144,368.0533 69.4501741,362.22103 71.2169472,358.098769 C74.0257027,351.543736 88.3767117,311.089489 90.2921205,299.958473 Z"/>
            <path fill="#190937" d="M64.5114524,355.639317 C64.3182126,355.456655 64.0776652,355.229089 63.8034411,355 C63.6422743,355.177334 63.4770984,355.32803 63.3087152,355.449044 C57.9605438,359.288751 63.3808794,362.534807 64.8482188,363.897161 C66.3155582,365.259515 65.2467257,370.461576 67.117383,372.442698 C68.9880402,374.424581 74.13335,377.633343 74.9351748,376.890518 C75.2326518,376.615002 74.4620981,374.937556 73.5263686,372.604811 C66.4165881,371.899279 67.3667505,361.059812 64.5114524,355.639317"/>
            <polygon fill="#190937" points="62.317 360 61 368 61.941 368 64 362.095"/>
            <polygon fill="#190937" points="100 375 100.356 383 101.241 382.802 102 376.671"/>
            <path fill="#FFF" d="M75.2983081,224.525918 C75.4345982,224.336677 75.4208931,224.15879 75.2077019,223.946839 C75.0234437,223.762897 74.8132981,223.759869 74.6465521,223.803773 C74.8011157,223.606205 74.7942632,223.423019 74.5719352,223.201985 C74.3176285,222.949159 74.017638,223.036967 73.847085,223.121747 C74.0450483,222.903741 74.0534237,222.709201 73.8120608,222.469242 C73.4351692,222.093787 72.9501591,222.469242 72.9501591,222.469242 L70.1596384,224.1164 L72.221502,221.074912 L74.9686231,218.998555 C76.2127462,217.295382 74.3100145,218.287007 74.3100145,218.287007 L71.1966614,220.003048 L68.1632549,223.69477 L68.1198552,223.670547 L68.0893994,223.784849 L68.0688416,223.809829 L68.081024,223.816641 L66.3930064,230.199376 C66.3930064,230.199376 59.6622551,239.911246 55.3527469,244.331926 C51.0356247,248.745036 48.2412969,250.887249 46.3378039,253.604756 C46.2921201,253.657744 46.2540502,253.710731 46.2083664,253.74101 C46.2007524,253.74858 46.1931384,253.756149 46.1855245,253.756149 L46.1779105,253.763719 C44.0764542,255.293547 37.4142286,236.315659 34.9168458,229.313726 C33.5341485,225.430492 31.4562955,222.238368 29.0601785,220.485235 C29.0685538,220.48902 29.0761678,220.491291 29.0845432,220.495076 C29.0540873,220.473124 29.0221086,220.454957 28.9908913,220.433005 C28.8203383,220.311133 28.6475012,220.197588 28.4739026,220.090856 C28.371114,220.027271 28.267564,219.9652 28.1640139,219.906156 C28.0018363,219.815321 27.8396587,219.732054 27.6759583,219.654844 C27.5571804,219.598828 27.437641,219.548112 27.3181016,219.498909 C27.1620152,219.436081 27.0059288,219.377037 26.8483196,219.327078 C26.7173592,219.284688 26.5863989,219.251381 26.4554386,219.218075 C26.3031592,219.180226 26.1508797,219.143135 25.9978389,219.116641 C25.8585032,219.093175 25.7176447,219.081821 25.5775476,219.068195 C25.4290752,219.053813 25.2806027,219.037917 25.1313689,219.035646 C24.982135,219.033375 24.8313784,219.047 24.6813831,219.056841 C24.5390018,219.066681 24.3966206,219.069709 24.2534779,219.090147 C24.0844477,219.115127 23.9146561,219.159788 23.7448645,219.199907 C23.619234,219.229429 23.4951263,219.248353 23.3694957,219.287715 C23.074835,219.377794 22.7794129,219.491339 22.4832294,219.632135 C22.2548102,219.73811 22.034005,219.859225 21.8131998,219.996235 C18.4325962,221.978729 16.1331767,226.497814 20.0696002,235.62682 C20.3307595,236.232393 20.615522,236.886411 20.9200809,237.576007 L20.9292177,237.596445 C21.0776901,237.934052 21.2314924,238.280742 21.389863,238.635759 C21.397477,238.651655 21.4050909,238.669823 21.4127049,238.686476 C21.5672685,239.033166 21.7264005,239.386669 21.8893395,239.747742 C21.8984763,239.76818 21.9076131,239.787861 21.9167498,239.807542 C22.0789275,240.166344 22.244912,240.531958 22.4147036,240.903628 C22.4276474,240.930122 22.4398297,240.957373 22.4520121,240.983867 C22.6187581,241.34721 22.7885497,241.715096 22.9613868,242.08828 C22.9804217,242.129913 23.0002181,242.171546 23.019253,242.211665 C23.1867604,242.573495 23.3573134,242.937595 23.5316733,243.307752 C23.556038,243.359982 23.5811641,243.412213 23.6062903,243.465957 C23.7768432,243.82703 23.9504418,244.191131 24.1255631,244.559016 C24.1537348,244.616545 24.1811451,244.673318 24.2085554,244.730847 C24.382154,245.094191 24.5587982,245.459048 24.7377265,245.826933 C24.7697052,245.892789 24.8016839,245.957889 24.8336626,246.023745 C25.0103067,246.385574 25.1884737,246.747404 25.3681634,247.112261 C25.4039491,247.183416 25.4389733,247.253814 25.4739976,247.325726 C25.6529259,247.686798 25.8341385,248.047114 26.0168738,248.409701 C26.0549437,248.483883 26.0922521,248.558823 26.130322,248.634519 C26.3115345,248.991807 26.4942699,249.349852 26.678528,249.708654 C26.7196434,249.788135 26.7599975,249.868373 26.8018743,249.947855 C26.9846097,250.302115 27.1696292,250.656375 27.3554101,251.009121 C27.3980484,251.090873 27.4406866,251.171868 27.4833248,251.252864 C27.6698672,251.60561 27.8579323,251.956842 28.0467588,252.308074 C28.0901584,252.389069 28.1327967,252.468551 28.1761963,252.549546 C28.367307,252.901535 28.5591791,253.251253 28.7518126,253.600214 C28.7936894,253.676668 28.8355663,253.752365 28.8766817,253.828061 C29.0731222,254.180807 29.2695627,254.529768 29.4667646,254.877216 C29.5063572,254.946856 29.5467113,255.018011 29.5863039,255.088409 C29.7873128,255.440398 29.9890831,255.788602 30.1916147,256.133779 C30.2281618,256.196607 30.2654702,256.260949 30.3020173,256.324534 C30.5182541,256.690148 30.7337295,257.051221 30.9499663,257.406995 C30.9728082,257.444843 30.9956502,257.483449 31.0184921,257.52054 C31.2537638,257.907349 31.4890356,258.288103 31.7250687,258.662044 C31.7303985,258.669614 31.7357282,258.67794 31.7402966,258.686267 C32.7118395,260.222907 33.6864279,261.646003 34.6480726,262.892726 C34.6884266,262.944956 34.7280193,262.992645 34.7691347,263.044876 C34.9640524,263.295431 35.1589701,263.541445 35.3531264,263.776862 C35.4163224,263.852558 35.4787569,263.923713 35.5411915,263.998652 C35.7117445,264.201519 35.8822974,264.402115 36.052089,264.592114 C36.1267059,264.676137 36.2005615,264.753347 36.2751784,264.834343 C36.4312648,265.00466 36.5865899,265.172706 36.7411535,265.330912 C36.8233844,265.415692 36.9040925,265.491389 36.985562,265.572384 C37.1317503,265.716208 37.2779385,265.859274 37.4233654,265.991743 C37.5078805,266.069711 37.5908728,266.140108 37.6746265,266.212777 C37.8147236,266.335406 37.9548206,266.455763 38.0933949,266.56628 C38.1786714,266.634407 38.2624251,266.696478 38.3469402,266.759306 C38.4832303,266.861497 38.618759,266.960659 38.7527649,267.049981 C38.8357572,267.105997 38.9187495,267.155956 39.0017418,267.20743 C39.1342249,267.289182 39.266708,267.36715 39.3984297,267.436791 C39.4791379,267.478424 39.5590846,267.516272 39.6390313,267.55412 C39.711364,267.588184 39.7859809,267.631331 39.8590751,267.66161 C39.8453699,267.652526 39.8324262,267.640415 39.8194824,267.629817 C40.1385078,267.765314 40.4529649,267.872046 40.7567624,267.918978 C47.2286386,268.933312 57.2562399,260.349321 63.5986786,246.345455 L69.9411174,232.341589 C73.1420312,230.515031 73.8219589,226.847532 73.8219589,226.847532 L75.0980607,225.597025 L75.2777504,227.222987 C75.6188563,227.830831 75.9424502,227.222987 75.9424502,227.222987 C75.9424502,227.222987 76.2850789,224.686395 75.2983081,224.525918"/>
            <path stroke="#171717" d="M75.2983081,224.525918 C75.4345982,224.336677 75.4208931,224.15879 75.2077019,223.946839 C75.0234437,223.762897 74.8132981,223.759869 74.6465521,223.803773 C74.8011157,223.606205 74.7942632,223.423019 74.5719352,223.201985 C74.3176285,222.949159 74.017638,223.036967 73.847085,223.121747 C74.0450483,222.903741 74.0534237,222.709201 73.8120608,222.469242 C73.4351692,222.093787 72.9501591,222.469242 72.9501591,222.469242 L70.1596384,224.1164 L72.221502,221.074912 L74.9686231,218.998555 C76.2127462,217.295382 74.3100145,218.287007 74.3100145,218.287007 L71.1966614,220.003048 L68.1632549,223.69477 L68.1198552,223.670547 L68.0893994,223.784849 L68.0688416,223.809829 L68.081024,223.816641 L66.3930064,230.199376 C66.3930064,230.199376 59.6622551,239.911246 55.3527469,244.331926 C51.0356247,248.745036 48.2412969,250.887249 46.3378039,253.604756 C46.2921201,253.657744 46.2540502,253.710731 46.2083664,253.74101 C46.2007524,253.74858 46.1931384,253.756149 46.1855245,253.756149 L46.1779105,253.763719 C44.0764542,255.293547 37.4142286,236.315659 34.9168458,229.313726 C33.5341485,225.430492 31.4562955,222.238368 29.0601785,220.485235 C29.0685538,220.48902 29.0761678,220.491291 29.0845432,220.495076 C29.0540873,220.473124 29.0221086,220.454957 28.9908913,220.433005 C28.8203383,220.311133 28.6475012,220.197588 28.4739026,220.090856 C28.371114,220.027271 28.267564,219.9652 28.1640139,219.906156 C28.0018363,219.815321 27.8396587,219.732054 27.6759583,219.654844 C27.5571804,219.598828 27.437641,219.548112 27.3181016,219.498909 C27.1620152,219.436081 27.0059288,219.377037 26.8483196,219.327078 C26.7173592,219.284688 26.5863989,219.251381 26.4554386,219.218075 C26.3031592,219.180226 26.1508797,219.143135 25.9978389,219.116641 C25.8585032,219.093175 25.7176447,219.081821 25.5775476,219.068195 C25.4290752,219.053813 25.2806027,219.037917 25.1313689,219.035646 C24.982135,219.033375 24.8313784,219.047 24.6813831,219.056841 C24.5390018,219.066681 24.3966206,219.069709 24.2534779,219.090147 C24.0844477,219.115127 23.9146561,219.159788 23.7448645,219.199907 C23.619234,219.229429 23.4951263,219.248353 23.3694957,219.287715 C23.074835,219.377794 22.7794129,219.491339 22.4832294,219.632135 C22.2548102,219.73811 22.034005,219.859225 21.8131998,219.996235 C18.4325962,221.978729 16.1331767,226.497814 20.0696002,235.62682 C20.3307595,236.232393 20.615522,236.886411 20.9200809,237.576007 L20.9292177,237.596445 C21.0776901,237.934052 21.2314924,238.280742 21.389863,238.635759 C21.397477,238.651655 21.4050909,238.669823 21.4127049,238.686476 C21.5672685,239.033166 21.7264005,239.386669 21.8893395,239.747742 C21.8984763,239.76818 21.9076131,239.787861 21.9167498,239.807542 C22.0789275,240.166344 22.244912,240.531958 22.4147036,240.903628 C22.4276474,240.930122 22.4398297,240.957373 22.4520121,240.983867 C22.6187581,241.34721 22.7885497,241.715096 22.9613868,242.08828 C22.9804217,242.129913 23.0002181,242.171546 23.019253,242.211665 C23.1867604,242.573495 23.3573134,242.937595 23.5316733,243.307752 C23.556038,243.359982 23.5811641,243.412213 23.6062903,243.465957 C23.7768432,243.82703 23.9504418,244.191131 24.1255631,244.559016 C24.1537348,244.616545 24.1811451,244.673318 24.2085554,244.730847 C24.382154,245.094191 24.5587982,245.459048 24.7377265,245.826933 C24.7697052,245.892789 24.8016839,245.957889 24.8336626,246.023745 C25.0103067,246.385574 25.1884737,246.747404 25.3681634,247.112261 C25.4039491,247.183416 25.4389733,247.253814 25.4739976,247.325726 C25.6529259,247.686798 25.8341385,248.047114 26.0168738,248.409701 C26.0549437,248.483883 26.0922521,248.558823 26.130322,248.634519 C26.3115345,248.991807 26.4942699,249.349852 26.678528,249.708654 C26.7196434,249.788135 26.7599975,249.868373 26.8018743,249.947855 C26.9846097,250.302115 27.1696292,250.656375 27.3554101,251.009121 C27.3980484,251.090873 27.4406866,251.171868 27.4833248,251.252864 C27.6698672,251.60561 27.8579323,251.956842 28.0467588,252.308074 C28.0901584,252.389069 28.1327967,252.468551 28.1761963,252.549546 C28.367307,252.901535 28.5591791,253.251253 28.7518126,253.600214 C28.7936894,253.676668 28.8355663,253.752365 28.8766817,253.828061 C29.0731222,254.180807 29.2695627,254.529768 29.4667646,254.877216 C29.5063572,254.946856 29.5467113,255.018011 29.5863039,255.088409 C29.7873128,255.440398 29.9890831,255.788602 30.1916147,256.133779 C30.2281618,256.196607 30.2654702,256.260949 30.3020173,256.324534 C30.5182541,256.690148 30.7337295,257.051221 30.9499663,257.406995 C30.9728082,257.444843 30.9956502,257.483449 31.0184921,257.52054 C31.2537638,257.907349 31.4890356,258.288103 31.7250687,258.662044 C31.7303985,258.669614 31.7357282,258.67794 31.7402966,258.686267 C32.7118395,260.222907 33.6864279,261.646003 34.6480726,262.892726 C34.6884266,262.944956 34.7280193,262.992645 34.7691347,263.044876 C34.9640524,263.295431 35.1589701,263.541445 35.3531264,263.776862 C35.4163224,263.852558 35.4787569,263.923713 35.5411915,263.998652 C35.7117445,264.201519 35.8822974,264.402115 36.052089,264.592114 C36.1267059,264.676137 36.2005615,264.753347 36.2751784,264.834343 C36.4312648,265.00466 36.5865899,265.172706 36.7411535,265.330912 C36.8233844,265.415692 36.9040925,265.491389 36.985562,265.572384 C37.1317503,265.716208 37.2779385,265.859274 37.4233654,265.991743 C37.5078805,266.069711 37.5908728,266.140108 37.6746265,266.212777 C37.8147236,266.335406 37.9548206,266.455763 38.0933949,266.56628 C38.1786714,266.634407 38.2624251,266.696478 38.3469402,266.759306 C38.4832303,266.861497 38.618759,266.960659 38.7527649,267.049981 C38.8357572,267.105997 38.9187495,267.155956 39.0017418,267.20743 C39.1342249,267.289182 39.266708,267.36715 39.3984297,267.436791 C39.4791379,267.478424 39.5590846,267.516272 39.6390313,267.55412 C39.711364,267.588184 39.7859809,267.631331 39.8590751,267.66161 C39.8453699,267.652526 39.8324262,267.640415 39.8194824,267.629817 C40.1385078,267.765314 40.4529649,267.872046 40.7567624,267.918978 C47.2286386,268.933312 57.2562399,260.349321 63.5986786,246.345455 L69.9411174,232.341589 C73.1420312,230.515031 73.8219589,226.847532 73.8219589,226.847532 L75.0980607,225.597025 L75.2777504,227.222987 C75.6188563,227.830831 75.9424502,227.222987 75.9424502,227.222987 C75.9424502,227.222987 76.2850789,224.686395 75.2983081,224.525918 Z"/>
            <path fill="#FFF" d="M332.795652,74.7252487 C333.558729,74.8855203 334.292357,74.9731565 335,75 C334.122592,73.3135955 333.209671,71.6461393 332.25864,70 C331.922575,71.2513817 331.991867,72.6614559 332.042969,73.9444181 C332.051631,74.3391757 332.394626,74.6447181 332.795652,74.7252487"/>
            <path stroke="#171717" d="M332.795652,74.7252487 C333.558729,74.8855203 334.292357,74.9731565 335,75 C334.122592,73.3135955 333.209671,71.6461393 332.25864,70 C331.922575,71.2513817 331.991867,72.6614559 332.042969,73.9444181 C332.051631,74.3391757 332.394626,74.6447181 332.795652,74.7252487 Z"/>
            <path fill="#FFF" d="M255.611435,56.4606182 C257.185861,56.7921323 259.856762,54.6207534 260.945639,53.8123512 C264.023064,51.5325188 265.678035,48.2412221 269.755434,48.6558071 C269.479606,49.4772852 269.165784,50.2856873 268.688593,51.0540924 C268.418084,51.4902142 268.7623,52.1863169 269.261526,52.2370824 C273.325248,52.6878185 277.084266,52.5039858 280.640402,50.4749042 C282.758127,53.5477553 278.72252,53.0308702 276.569842,54.5115306 C274.163371,56.1621786 274.892835,60.2657232 275.445252,62.9086059 C270.061657,64.2869662 263.13783,61.6017788 259.593851,67.0944522 C256.916871,71.2226104 262.686474,76.2791619 265.769978,77.917503 C272.278923,81.382633 278.102476,75.7884287 282.423789,71.5495094 C285.393315,68.6404924 288.982125,66.5921814 292.573974,64.5969434 C293.72212,63.9677588 296.909725,67.7051765 297.747088,68.4028176 C298.812409,69.2696769 299.968913,70.0126993 301.139855,70.7057253 C299.940039,71.8564099 298.801011,72.8871034 297.101209,73.4685992 C296.307917,73.7393485 296.416577,74.8869565 297.205309,75.0692508 C302.041047,76.186861 310.121378,79.8842816 310.020317,71.7379571 C309.994482,70.0811558 308.39498,67.8274752 307.802291,66.3445073 C307.075867,64.5684839 304.107101,57.5851509 308.193618,59.1688807 C315.136442,61.8725282 309.351642,74.1600868 316.118178,76.4891464 C318.502613,77.2998561 320.596022,76.9260374 321.439465,74.4100684 C322.387008,71.6679622 321.62411,69.6104211 325.576133,68.8274017 C327.217426,68.4943493 329.17634,69.0719992 331,69.6858002 C322.146133,53.2447006 310.000561,38.8819099 295.455356,27.511207 C293.456929,25.9497832 291.412151,24.4468168 289.32634,23 C286.422163,24.0914583 283.290787,24.9021679 281.007413,26.0774662 C280.478552,26.345908 280.540861,27.3135292 281.099356,27.5096686 C286.75726,29.5602872 287.648574,38.7249983 294.520731,35.3052496 C295.478912,36.5466969 296.861853,38.4811701 295.890755,39.8510694 C295.270711,40.7125446 293.513919,41.1817409 292.545859,41.5470987 C290.801985,42.1832058 288.709336,42.320888 286.877318,42.6108666 C285.060497,42.9162288 283.22088,43.1062149 281.374425,43.2100534 C278.145028,43.376195 277.946705,41.0955934 276.85023,38.7080765 C275.847217,36.5320826 272.627698,36.3451732 270.839752,37.5858513 C265.220601,41.4901798 259.410725,42.396267 252.771845,43.3246604 C252.329607,43.3877326 251.954997,43.7300152 252.004388,44.2130566 C252.290855,47.3582101 252.978526,50.3079934 254.19278,53.2077803 C254.544594,54.0215666 254.40478,56.2060215 255.611435,56.4606182"/>
            <path stroke="#171717" d="M255.611435,56.4606182 C257.185861,56.7921323 259.856762,54.6207534 260.945639,53.8123512 C264.023064,51.5325188 265.678035,48.2412221 269.755434,48.6558071 C269.479606,49.4772852 269.165784,50.2856873 268.688593,51.0540924 C268.418084,51.4902142 268.7623,52.1863169 269.261526,52.2370824 C273.325248,52.6878185 277.084266,52.5039858 280.640402,50.4749042 C282.758127,53.5477553 278.72252,53.0308702 276.569842,54.5115306 C274.163371,56.1621786 274.892835,60.2657232 275.445252,62.9086059 C270.061657,64.2869662 263.13783,61.6017788 259.593851,67.0944522 C256.916871,71.2226104 262.686474,76.2791619 265.769978,77.917503 C272.278923,81.382633 278.102476,75.7884287 282.423789,71.5495094 C285.393315,68.6404924 288.982125,66.5921814 292.573974,64.5969434 C293.72212,63.9677588 296.909725,67.7051765 297.747088,68.4028176 C298.812409,69.2696769 299.968913,70.0126993 301.139855,70.7057253 C299.940039,71.8564099 298.801011,72.8871034 297.101209,73.4685992 C296.307917,73.7393485 296.416577,74.8869565 297.205309,75.0692508 C302.041047,76.186861 310.121378,79.8842816 310.020317,71.7379571 C309.994482,70.0811558 308.39498,67.8274752 307.802291,66.3445073 C307.075867,64.5684839 304.107101,57.5851509 308.193618,59.1688807 C315.136442,61.8725282 309.351642,74.1600868 316.118178,76.4891464 C318.502613,77.2998561 320.596022,76.9260374 321.439465,74.4100684 C322.387008,71.6679622 321.62411,69.6104211 325.576133,68.8274017 C327.217426,68.4943493 329.17634,69.0719992 331,69.6858002 C322.146133,53.2447006 310.000561,38.8819099 295.455356,27.511207 C293.456929,25.9497832 291.412151,24.4468168 289.32634,23 C286.422163,24.0914583 283.290787,24.9021679 281.007413,26.0774662 C280.478552,26.345908 280.540861,27.3135292 281.099356,27.5096686 C286.75726,29.5602872 287.648574,38.7249983 294.520731,35.3052496 C295.478912,36.5466969 296.861853,38.4811701 295.890755,39.8510694 C295.270711,40.7125446 293.513919,41.1817409 292.545859,41.5470987 C290.801985,42.1832058 288.709336,42.320888 286.877318,42.6108666 C285.060497,42.9162288 283.22088,43.1062149 281.374425,43.2100534 C278.145028,43.376195 277.946705,41.0955934 276.85023,38.7080765 C275.847217,36.5320826 272.627698,36.3451732 270.839752,37.5858513 C265.220601,41.4901798 259.410725,42.396267 252.771845,43.3246604 C252.329607,43.3877326 251.954997,43.7300152 252.004388,44.2130566 C252.290855,47.3582101 252.978526,50.3079934 254.19278,53.2077803 C254.544594,54.0215666 254.40478,56.2060215 255.611435,56.4606182 Z"/>
            <path fill="#FFF" d="M340.531788,92.1400388 C339.995039,92.0051693 339.456777,91.8718152 338.91776,91.7467957 C333.975127,90.6041932 328.583438,89.7260259 323.903132,92.0960926 C321.127154,93.4879764 319.289353,96.0724704 316.033324,96.4210096 C312.7085,96.7862181 309.35268,95.0291258 306.57519,93.4879764 C302.589634,91.2505062 301.282536,85.1692546 296.107059,86.0951566 C293.096725,86.6429693 290.203569,87.5870559 287.309656,88.5826658 C283.175172,90.0237997 278.92729,90.3897658 274.576593,90.7845244 C270.542655,91.1671598 263.978433,90.8193783 262.210939,95.3935766 C261.168435,98.061417 261.085277,100.315556 258.223872,101.856706 C255.778259,103.181913 252.799677,103.647894 250.154483,104.476054 C248.104251,105.123125 246.203703,106.033873 244.515588,107.39166 C242.962794,108.634278 242.597653,110.640652 241.242171,112.015866 C240.895174,112.349252 240.944313,112.828114 241.242171,113.178169 C242.514494,114.717045 244.070312,115.82934 245.525584,117.187885 C248.450492,119.937556 245.806055,123.386579 244.10282,125.7718 C242.151621,128.539656 242.365565,131.556035 243.920627,134.456488 C245.706265,137.770641 249.31156,140.0907 252.022523,142.560024 C255.297452,145.526396 257.693926,149.355024 260.902329,152.404742 C267.053782,158.238227 274.974242,155.155929 282.301253,154.227753 C286.583154,153.681456 291.147039,155.288525 295.362414,156.050765 C300.506139,156.996367 299.960317,162.647249 300.920419,166.774407 C302.142847,171.994919 304.936969,176.701713 306.211561,181.904798 C307.268428,186.246384 304.50757,190.737236 304.887074,195.179596 C305.283967,199.719698 308.77284,203.250551 308.758476,207.891427 C308.758476,210.857799 307.07036,213.675662 305.928822,216.325318 C305.599213,217.071647 305.135794,218.050587 305.335374,218.895416 C305.73151,220.751008 308.525632,221.962561 309.815343,223.021817 C310.193336,223.334745 310.566793,223.662826 310.934958,224 C312.260956,222.594478 313.558983,221.160921 314.822991,219.698571 C334.870969,196.498741 347,166.238718 347,133.1381 C347,118.826777 344.726752,105.048113 340.531788,92.1400388"/>
            <path stroke="#171717" d="M340.531788,92.1400388 C339.995039,92.0051693 339.456777,91.8718152 338.91776,91.7467957 C333.975127,90.6041932 328.583438,89.7260259 323.903132,92.0960926 C321.127154,93.4879764 319.289353,96.0724704 316.033324,96.4210096 C312.7085,96.7862181 309.35268,95.0291258 306.57519,93.4879764 C302.589634,91.2505062 301.282536,85.1692546 296.107059,86.0951566 C293.096725,86.6429693 290.203569,87.5870559 287.309656,88.5826658 C283.175172,90.0237997 278.92729,90.3897658 274.576593,90.7845244 C270.542655,91.1671598 263.978433,90.8193783 262.210939,95.3935766 C261.168435,98.061417 261.085277,100.315556 258.223872,101.856706 C255.778259,103.181913 252.799677,103.647894 250.154483,104.476054 C248.104251,105.123125 246.203703,106.033873 244.515588,107.39166 C242.962794,108.634278 242.597653,110.640652 241.242171,112.015866 C240.895174,112.349252 240.944313,112.828114 241.242171,113.178169 C242.514494,114.717045 244.070312,115.82934 245.525584,117.187885 C248.450492,119.937556 245.806055,123.386579 244.10282,125.7718 C242.151621,128.539656 242.365565,131.556035 243.920627,134.456488 C245.706265,137.770641 249.31156,140.0907 252.022523,142.560024 C255.297452,145.526396 257.693926,149.355024 260.902329,152.404742 C267.053782,158.238227 274.974242,155.155929 282.301253,154.227753 C286.583154,153.681456 291.147039,155.288525 295.362414,156.050765 C300.506139,156.996367 299.960317,162.647249 300.920419,166.774407 C302.142847,171.994919 304.936969,176.701713 306.211561,181.904798 C307.268428,186.246384 304.50757,190.737236 304.887074,195.179596 C305.283967,199.719698 308.77284,203.250551 308.758476,207.891427 C308.758476,210.857799 307.07036,213.675662 305.928822,216.325318 C305.599213,217.071647 305.135794,218.050587 305.335374,218.895416 C305.73151,220.751008 308.525632,221.962561 309.815343,223.021817 C310.193336,223.334745 310.566793,223.662826 310.934958,224 C312.260956,222.594478 313.558983,221.160921 314.822991,219.698571 C334.870969,196.498741 347,166.238718 347,133.1381 C347,118.826777 344.726752,105.048113 340.531788,92.1400388 Z"/>
            <path fill="#FFF" d="M216,265 C216.332874,264.995277 216.665748,264.986619 217,264.979536 L217,263 C216.671261,263.668241 216.337009,264.334908 216,265"/>
            <path stroke="#171717" d="M216,265 C216.332874,264.995277 216.665748,264.986619 217,264.979536 L217,263 C216.671261,263.668241 216.337009,264.334908 216,265 Z"/>
            <path fill="#FFF" d="M84.7410857,108 C84.5230857,108.997466 84.3170857,109.995777 84.1210857,111 C84.8790857,109.959459 85.0320857,108.934122 84.7410857,108"/>
            <path stroke="#171717" d="M84.7410857,108 C84.5230857,108.997466 84.3170857,109.995777 84.1210857,111 C84.8790857,109.959459 85.0320857,108.934122 84.7410857,108 Z"/>
            <path fill="#0048FA" d="M175.734292,229.247668 C175.066598,224.373153 175.868594,217.213733 170.668213,214.736583 C166.021827,212.508667 162.864971,209.004944 160.475008,204.491363 C157.779051,199.38889 154.968633,194.667107 151.544699,190.018271 C149.058589,186.629287 145.500353,181.888508 146.571715,177.338454 C147.413391,173.719231 149.99336,171.679762 152.825908,169.530112 C158.085046,165.512722 160.511636,160.026518 154.52681,155.379962 C150.91287,152.58215 146.723568,150.714409 142.727325,148.544243 C137.86804,145.877887 133.970234,141.973716 129.073559,139.405382 C123.79687,136.642524 118.173743,134.660804 112.702469,132.300673 C108.07745,130.300716 103.276159,128.379025 100.695427,123.770462 C98.4000863,119.636812 97.4248718,115.067002 96.1818167,110.552662 C95.5118336,108.174294 94.8418506,96.5195303 90.4068375,98.157033 C85.929855,99.814292 91.2103593,109.219864 92.3763435,111.88622 C92.623581,112.458396 92.4518883,113.086042 91.8017453,113.276767 C89.0020097,114.157447 86.1831972,114.260029 83.2781567,114.266868 C82.4372441,120.286494 82,126.435298 82,132.687442 C82,195.737753 126.175386,248.50789 185.382659,262 C185.535274,261.349558 185.677207,260.73255 185.773355,260.172532 C187.017936,252.899893 182.867551,249.757103 179.883914,243.835499 C177.514555,239.112196 176.442429,234.46488 175.734292,229.247668"/>
            <path stroke="#121212" d="M175.734292,229.247668 C175.066598,224.373153 175.868594,217.213733 170.668213,214.736583 C166.021827,212.508667 162.864971,209.004944 160.475008,204.491363 C157.779051,199.38889 154.968633,194.667107 151.544699,190.018271 C149.058589,186.629287 145.500353,181.888508 146.571715,177.338454 C147.413391,173.719231 149.99336,171.679762 152.825908,169.530112 C158.085046,165.512722 160.511636,160.026518 154.52681,155.379962 C150.91287,152.58215 146.723568,150.714409 142.727325,148.544243 C137.86804,145.877887 133.970234,141.973716 129.073559,139.405382 C123.79687,136.642524 118.173743,134.660804 112.702469,132.300673 C108.07745,130.300716 103.276159,128.379025 100.695427,123.770462 C98.4000863,119.636812 97.4248718,115.067002 96.1818167,110.552662 C95.5118336,108.174294 94.8418506,96.5195303 90.4068375,98.157033 C85.929855,99.814292 91.2103593,109.219864 92.3763435,111.88622 C92.623581,112.458396 92.4518883,113.086042 91.8017453,113.276767 C89.0020097,114.157447 86.1831972,114.260029 83.2781567,114.266868 C82.4372441,120.286494 82,126.435298 82,132.687442 C82,195.737753 126.175386,248.50789 185.382659,262 C185.535274,261.349558 185.677207,260.73255 185.773355,260.172532 C187.017936,252.899893 182.867551,249.757103 179.883914,243.835499 C177.514555,239.112196 176.442429,234.46488 175.734292,229.247668 Z"/>
            <path fill="#0048FA" d="M337.1688,83.6215711 C336.24588,81.3042737 335.253666,79.0234094 334.20434,76.772147 C334.047474,76.4336227 333.885278,76.0988935 333.725366,75.7626463 C333.102471,75.7375986 332.457494,75.653347 331.786626,75.4992653 C331.434058,75.421845 331.13251,75.128103 331.124896,74.7485915 C331.079968,73.515179 331.019049,72.1588048 331.314505,70.9557533 C331.004581,70.3667514 330.689326,69.7807855 330.371026,69.1955788 C328.543462,68.5898784 326.580355,68.019093 324.935548,68.348509 C320.974304,69.1211945 321.739597,71.1515812 320.790025,73.8574984 C319.944777,76.3402629 317.846887,76.7091481 315.457348,75.9091378 C308.676326,73.6108159 314.473509,61.4854225 307.515824,58.8174564 C303.420559,57.2546279 306.394918,64.1457983 307.122897,65.8976235 C307.717617,67.361779 309.320542,69.5857166 309.346433,71.2206523 C309.44771,79.2594656 301.350082,75.6108417 296.503993,74.5079812 C295.713572,74.3280927 295.60468,73.1956303 296.398908,72.9284542 C298.103111,72.3546328 299.244577,71.3367828 300.446199,70.2012843 C299.273513,69.5181636 298.114533,68.7849473 297.046932,67.9295283 C296.207776,67.2410944 293.013347,63.5530013 291.861982,64.1738822 C288.263206,66.142788 284.666713,68.1640664 281.690831,71.0346917 C277.360267,75.2176678 271.523487,80.7380425 265.00137,77.3178846 C261.911265,75.7011655 256.129312,70.7121068 258.812023,66.6384301 C262.363587,61.2174873 269.302236,63.8679959 274.697355,62.5078265 C274.143756,59.8998233 273.412731,55.8504352 275.824353,54.2215717 C277.980877,52.7604523 282.025884,53.2705158 279.903626,50.2382187 C276.339878,52.2405215 272.572813,52.421928 268.500393,51.9771405 C268.000097,51.927045 267.655145,51.2401291 267.926233,50.809763 C268.404446,50.05074 268.718939,49.2537658 268.995358,48.4423701 C264.909231,48.0340157 263.250717,51.2818754 260.166704,53.5308607 C259.075496,54.329353 256.398878,56.4713161 254.821081,56.1449362 C253.611844,55.8936995 253.751957,53.738074 253.399389,52.9342686 C252.182537,50.0735107 251.493393,47.1626572 251.206313,44.0590119 C251.156817,43.5823454 251.532229,43.2445801 251.975413,43.1823403 C258.627743,42.2661994 264.450817,41.3720702 270.081996,37.5192692 C271.87377,36.2942059 275.100181,36.4794076 276.105341,38.6266838 C277.203402,40.9826914 277.402911,43.2331948 280.639221,43.0692458 C282.489628,42.9660187 284.333183,42.77854 286.153893,42.4779668 C287.989832,42.1918152 290.0862,42.055191 291.834569,41.4282379 C292.8047,41.067702 294.565253,40.6046979 295.186625,39.7545921 C296.159802,38.402772 294.7739,36.493829 293.813668,35.2687658 C286.9268,38.6433823 286.033578,29.5996225 280.363563,27.576067 C279.803872,27.3825161 279.740669,26.4269061 280.271423,26.1627661 C282.559685,25.0029788 285.697764,24.2029685 288.608158,23.1259148 C267.93994,9.01188086 243.077464,0.559399999 216.263303,0.0265658073 C215.367035,0.0106263229 214.469245,0 213.569931,0 C213.367376,0 213.164821,0.00759023066 212.963028,0.00834925372 C201.112803,0.0607218453 189.630375,1.66377856 178.706115,4.61713731 C178.237041,5.38906377 177.589017,6.03954653 176.834386,6.37351668 C175.003776,7.17352699 172.083483,8.4866369 173.860788,10.9785096 C175.405079,13.2039653 178.266738,12.1382969 180.137706,11.0741465 C182.677258,9.64566512 186.072718,8.22097882 184.27866,5.21372944 C183.934469,4.66343772 184.27866,4.01599104 184.852058,3.8269943 C187.655845,2.85544477 190.099449,2.55183555 192.980146,3.35108684 C193.590857,3.52186702 193.840624,4.20726485 193.552783,4.738581 C192.942833,5.90064531 192.198101,7.07864911 191.796037,8.31433866 C190.938606,10.9405585 194.337112,9.53181166 195.231856,8.33559131 C196.377891,6.77428086 197.484328,5.82322496 199.298946,4.98602252 C204.372719,2.60876228 208.894415,3.61674491 214.315425,3.88164396 C214.942888,3.91428195 215.595481,3.94616092 216.263303,3.97803989 C216.794058,4.00384667 217.334712,4.02889443 217.883742,4.05470122 C218.17006,3.80650067 218.552326,3.69264721 218.971904,3.92111316 C219.143999,4.01599104 219.297058,4.07367679 219.468392,4.15109715 C221.070556,4.26419158 222.713078,4.45318833 224.277168,4.79626675 C227.14035,4.62624559 230.040846,4.01599104 232.521001,5.38602767 C233.467527,5.9135487 234.154386,6.79022035 234.733115,7.76328792 C234.919678,8.47828764 235.104719,9.19708249 235.213611,9.92953975 C234.566349,10.7295501 234.342473,11.8407598 235.027809,12.9952339 C235.886002,14.4404138 236.937613,15.8658591 238.62354,16.3622602 C238.927372,16.4510659 239.219021,16.4829449 239.501532,16.4882581 C239.419291,17.3216654 239.379694,18.1535547 239.372841,18.9899981 C238.832187,18.8640003 238.214623,19.1660914 238.214623,19.8780551 L238.214623,20.829111 C238.214623,21.1289251 238.37225,21.3589091 238.578612,21.5281712 C238.447637,21.6420247 238.331891,21.7877571 238.258027,21.9797899 C238.219953,22.081499 238.172741,22.180931 238.135428,22.2841582 C237.425724,22.1976296 236.63378,22.9991579 237.15159,23.6868328 C237.326731,23.9183348 237.483597,24.1498369 237.635894,24.382857 C237.552131,24.5354206 237.506442,24.713791 237.498827,24.8716678 C237.476744,25.3582016 237.446285,25.832591 237.433339,26.3069804 C236.428179,27.114581 235.288998,27.7574735 234.068338,28.2197186 C231.093218,27.6223674 229.245094,25.7916038 227.408393,23.5699433 C225.459754,21.2131766 222.720693,21.8742857 220.084433,22.0185001 C219.253653,22.0632825 218.618575,22.3987707 218.162446,22.8769552 C217.002704,21.5289302 216.55952,19.7854543 216.376764,17.9774613 C216.357727,17.7831514 216.317368,17.604022 216.263303,17.439314 C215.343429,14.6362418 209.643716,15.9167137 207.769702,16.0935661 C203.534324,16.4761137 202.885539,18.8154228 199.87006,21.421908 C198.191747,22.8670879 196.130408,23.4948 194.086583,24.3130268 C190.270783,25.8158925 187.253781,24.2553411 183.343557,24.6173951 C179.849104,24.9217633 178.802824,27.7362209 176.740723,29.8098719 C175.079163,31.5024933 175.995991,31.6163468 177.523529,33.1958738 C180.00597,35.7446732 182.637661,37.7803731 182.350581,41.5261519 C182.0833,44.6662303 185.728527,46.8157837 187.790628,44.1713473 C188.574196,43.1823403 188.934378,42.2699945 189.430104,41.0897137 C190.041577,39.586089 190.806107,37.7993487 192.731902,37.8372998 C196.338294,37.8957446 196.435764,34.7746418 197.063227,31.8068616 C198.115599,26.9005365 203.170335,25.205638 207.905247,26.2530898 C213.418396,27.4705628 213.705476,32.643305 213.724513,37.4001025 C214.670277,37.1443118 215.48735,36.5537918 216.263303,35.869912 C217.914202,34.4133468 219.381583,32.5302106 221.510694,32.5302106 C221.988145,32.5302106 222.484633,32.6258475 223.037471,32.8338198 C226.356783,34.1097375 226.34003,35.9154534 225.517626,39.093483 C225.480314,39.2832388 225.461277,39.454778 225.421679,39.6240401 C232.215646,40.3868583 235.87991,43.8487625 238.019683,51.0951557 C238.189494,51.6272309 237.882615,52.0279951 237.483597,52.1995343 C237.025184,53.3206113 237.236876,56.0789012 237.101332,57.126353 L237.101332,57.1438105 C236.967311,60.4728857 238.780406,62.1860008 235.270723,63.9917166 C232.367182,65.4953413 228.895573,65.3427777 225.89913,66.5215405 C225.615097,66.635394 225.174197,66.5033239 224.984587,66.274858 C223.608584,64.7158246 222.903449,63.0414197 222.559258,61.3100881 C221.948548,60.910842 221.471858,60.284648 221.244174,59.3123394 C220.86267,57.6394526 219.277259,55.7380998 219.773747,53.9103723 C220.159059,52.4644333 218.393937,52.2374854 216.263303,52.4446987 C214.584229,52.6086477 212.678233,53.0405318 211.415691,53.3585625 C213.534903,56.8789115 214.926136,61.6918767 208.972848,60.548788 C207.963119,60.3597913 207.446071,62.2421685 206.585594,63.4604005 C205.900257,64.4106974 205.059578,64.9435315 204.124475,65.5909782 C202.216194,66.9033291 200.175415,68.1572352 198.477304,69.7557378 C196.565978,71.5242615 196.396167,73.8650887 195.937753,76.2423489 C194.46961,83.8318205 187.253781,86.7244574 180.919751,89.7294298 C176.148288,91.97462 172.352287,94.5044439 169.869085,99.3553603 C168.266921,102.493921 166.683794,105.898139 163.820612,108.124354 C160.519576,110.709586 157.160667,112.422701 154.700309,108.104619 C152.543785,104.317853 150.158053,102.777795 145.672147,103.807031 C142.179978,104.603246 138.802793,105.782768 135.387534,106.888664 C132.218235,107.895129 128.288212,108.104619 125.444828,109.891359 C121.951898,112.09784 120.709916,116.968491 121.05563,120.904784 C121.60923,127.619861 128.592045,128.38192 133.573678,125.165181 C136.09343,123.54998 138.13421,122.141992 141.208323,122.198918 C141.703288,122.198918 142.179978,122.617899 142.161702,123.149974 C141.912697,129.02709 146.187672,130.816107 148.476695,135.608579 C150.461124,139.719448 149.050093,148.259975 155.252386,149.305909 C162.96318,150.598525 168.343831,140.650769 176.570151,143.047764 C179.355662,143.865232 181.911966,145.196558 184.658641,146.108145 C188.361741,147.327895 192.312324,147.327895 196.16696,147.708166 C200.136579,148.086918 204.145035,148.468707 208.075058,149.135129 C210.736447,149.593579 213.550894,150.146907 216.263303,150.985627 C220.182665,152.19551 223.887288,153.995913 226.605788,156.952308 L226.605788,156.43769 C226.605788,155.543561 227.61704,155.260445 228.227751,155.773545 C239.450512,164.960001 257.978197,161.080634 264.696777,176.202651 C267.884352,183.42855 266.66293,190.885193 262.0826,197.183566 C259.543809,200.663687 256.585441,203.820464 253.952227,207.227718 C250.670228,211.431188 249.183048,216.071855 247.083635,220.884061 C245.518023,224.478795 243.455922,228.455316 239.353042,229.616622 C234.79251,230.888744 227.748777,229.577912 225.404927,234.771147 C222.064293,242.167827 226.130622,250.863954 219.868171,257.329313 C219.468392,257.747535 219.068612,258.129323 218.647511,258.489859 C217.927147,260.052688 217.113881,261.578324 216.263303,263.091057 L216.263303,265 C253.247092,264.267543 286.528543,248.48214 310.187873,223.536088 C309.81703,223.198323 309.440857,222.869666 309.059353,222.556189 C307.76026,221.495075 304.946574,220.281397 304.547556,218.42255 C304.346524,217.57548 304.812553,216.594822 305.145322,215.847943 C306.295164,213.19364 307.994797,210.370074 307.994797,207.398499 C308.010027,202.749482 304.495014,199.213194 304.095996,194.665128 C303.71373,190.214975 306.494673,185.716246 305.430117,181.366284 C304.146254,176.154073 301.331806,171.439022 300.099724,166.210112 C299.1334,162.074954 299.683192,156.41416 294.50205,155.466899 C290.256011,154.703322 285.658166,153.093434 281.345117,153.641449 C273.965569,154.571252 265.987493,157.658958 259.791292,151.815239 C256.559551,148.759413 254.145644,144.924828 250.846893,141.953253 C248.116208,139.479597 244.484688,137.154709 242.685299,133.834742 C241.119687,130.929202 240.904187,127.90829 242.869579,125.13482 C244.585204,122.746174 247.248877,119.290342 244.301931,116.535847 C242.836835,115.174919 241.268938,114.061432 239.988121,112.519097 C239.687334,112.168429 239.638599,111.689485 239.988121,111.355515 C241.352701,109.977888 241.72126,107.967236 243.285349,106.723197 C244.984983,105.363028 246.900117,104.449923 248.965264,103.802476 C251.628937,102.972105 254.629187,102.506065 257.093352,101.178534 C259.975571,99.6346808 260.058573,97.3765871 261.109422,94.7040669 C262.889773,90.1210857 269.501745,90.4694772 273.565028,90.0869296 C277.947372,89.6914786 282.226155,89.3248705 286.390715,87.8804496 C289.305678,86.8838523 292.21988,85.9381095 295.252112,85.3893359 C300.465237,84.4610507 301.781082,90.5537288 305.796391,92.7951239 C308.594086,94.3382178 311.974317,96.0983923 315.323326,95.7333022 C318.603041,95.3841516 320.453449,92.7951239 323.250382,91.4007985 C327.964734,89.0265744 333.395643,89.9055231 338.37423,91.0508889 C338.916407,91.1753687 339.459346,91.3097158 340,91.4448219 C339.135715,88.8003855 338.192235,86.1908642 337.1688,83.6215711"/>
            <path stroke="#121212" d="M337.1688,83.6215711 C336.24588,81.3042737 335.253666,79.0234094 334.20434,76.772147 C334.047474,76.4336227 333.885278,76.0988935 333.725366,75.7626463 C333.102471,75.7375986 332.457494,75.653347 331.786626,75.4992653 C331.434058,75.421845 331.13251,75.128103 331.124896,74.7485915 C331.079968,73.515179 331.019049,72.1588048 331.314505,70.9557533 C331.004581,70.3667514 330.689326,69.7807855 330.371026,69.1955788 C328.543462,68.5898784 326.580355,68.019093 324.935548,68.348509 C320.974304,69.1211945 321.739597,71.1515812 320.790025,73.8574984 C319.944777,76.3402629 317.846887,76.7091481 315.457348,75.9091378 C308.676326,73.6108159 314.473509,61.4854225 307.515824,58.8174564 C303.420559,57.2546279 306.394918,64.1457983 307.122897,65.8976235 C307.717617,67.361779 309.320542,69.5857166 309.346433,71.2206523 C309.44771,79.2594656 301.350082,75.6108417 296.503993,74.5079812 C295.713572,74.3280927 295.60468,73.1956303 296.398908,72.9284542 C298.103111,72.3546328 299.244577,71.3367828 300.446199,70.2012843 C299.273513,69.5181636 298.114533,68.7849473 297.046932,67.9295283 C296.207776,67.2410944 293.013347,63.5530013 291.861982,64.1738822 C288.263206,66.142788 284.666713,68.1640664 281.690831,71.0346917 C277.360267,75.2176678 271.523487,80.7380425 265.00137,77.3178846 C261.911265,75.7011655 256.129312,70.7121068 258.812023,66.6384301 C262.363587,61.2174873 269.302236,63.8679959 274.697355,62.5078265 C274.143756,59.8998233 273.412731,55.8504352 275.824353,54.2215717 C277.980877,52.7604523 282.025884,53.2705158 279.903626,50.2382187 C276.339878,52.2405215 272.572813,52.421928 268.500393,51.9771405 C268.000097,51.927045 267.655145,51.2401291 267.926233,50.809763 C268.404446,50.05074 268.718939,49.2537658 268.995358,48.4423701 C264.909231,48.0340157 263.250717,51.2818754 260.166704,53.5308607 C259.075496,54.329353 256.398878,56.4713161 254.821081,56.1449362 C253.611844,55.8936995 253.751957,53.738074 253.399389,52.9342686 C252.182537,50.0735107 251.493393,47.1626572 251.206313,44.0590119 C251.156817,43.5823454 251.532229,43.2445801 251.975413,43.1823403 C258.627743,42.2661994 264.450817,41.3720702 270.081996,37.5192692 C271.87377,36.2942059 275.100181,36.4794076 276.105341,38.6266838 C277.203402,40.9826914 277.402911,43.2331948 280.639221,43.0692458 C282.489628,42.9660187 284.333183,42.77854 286.153893,42.4779668 C287.989832,42.1918152 290.0862,42.055191 291.834569,41.4282379 C292.8047,41.067702 294.565253,40.6046979 295.186625,39.7545921 C296.159802,38.402772 294.7739,36.493829 293.813668,35.2687658 C286.9268,38.6433823 286.033578,29.5996225 280.363563,27.576067 C279.803872,27.3825161 279.740669,26.4269061 280.271423,26.1627661 C282.559685,25.0029788 285.697764,24.2029685 288.608158,23.1259148 C267.93994,9.01188086 243.077464,0.559399999 216.263303,0.0265658073 C215.367035,0.0106263229 214.469245,0 213.569931,0 C213.367376,0 213.164821,0.00759023066 212.963028,0.00834925372 C201.112803,0.0607218453 189.630375,1.66377856 178.706115,4.61713731 C178.237041,5.38906377 177.589017,6.03954653 176.834386,6.37351668 C175.003776,7.17352699 172.083483,8.4866369 173.860788,10.9785096 C175.405079,13.2039653 178.266738,12.1382969 180.137706,11.0741465 C182.677258,9.64566512 186.072718,8.22097882 184.27866,5.21372944 C183.934469,4.66343772 184.27866,4.01599104 184.852058,3.8269943 C187.655845,2.85544477 190.099449,2.55183555 192.980146,3.35108684 C193.590857,3.52186702 193.840624,4.20726485 193.552783,4.738581 C192.942833,5.90064531 192.198101,7.07864911 191.796037,8.31433866 C190.938606,10.9405585 194.337112,9.53181166 195.231856,8.33559131 C196.377891,6.77428086 197.484328,5.82322496 199.298946,4.98602252 C204.372719,2.60876228 208.894415,3.61674491 214.315425,3.88164396 C214.942888,3.91428195 215.595481,3.94616092 216.263303,3.97803989 C216.794058,4.00384667 217.334712,4.02889443 217.883742,4.05470122 C218.17006,3.80650067 218.552326,3.69264721 218.971904,3.92111316 C219.143999,4.01599104 219.297058,4.07367679 219.468392,4.15109715 C221.070556,4.26419158 222.713078,4.45318833 224.277168,4.79626675 C227.14035,4.62624559 230.040846,4.01599104 232.521001,5.38602767 C233.467527,5.9135487 234.154386,6.79022035 234.733115,7.76328792 C234.919678,8.47828764 235.104719,9.19708249 235.213611,9.92953975 C234.566349,10.7295501 234.342473,11.8407598 235.027809,12.9952339 C235.886002,14.4404138 236.937613,15.8658591 238.62354,16.3622602 C238.927372,16.4510659 239.219021,16.4829449 239.501532,16.4882581 C239.419291,17.3216654 239.379694,18.1535547 239.372841,18.9899981 C238.832187,18.8640003 238.214623,19.1660914 238.214623,19.8780551 L238.214623,20.829111 C238.214623,21.1289251 238.37225,21.3589091 238.578612,21.5281712 C238.447637,21.6420247 238.331891,21.7877571 238.258027,21.9797899 C238.219953,22.081499 238.172741,22.180931 238.135428,22.2841582 C237.425724,22.1976296 236.63378,22.9991579 237.15159,23.6868328 C237.326731,23.9183348 237.483597,24.1498369 237.635894,24.382857 C237.552131,24.5354206 237.506442,24.713791 237.498827,24.8716678 C237.476744,25.3582016 237.446285,25.832591 237.433339,26.3069804 C236.428179,27.114581 235.288998,27.7574735 234.068338,28.2197186 C231.093218,27.6223674 229.245094,25.7916038 227.408393,23.5699433 C225.459754,21.2131766 222.720693,21.8742857 220.084433,22.0185001 C219.253653,22.0632825 218.618575,22.3987707 218.162446,22.8769552 C217.002704,21.5289302 216.55952,19.7854543 216.376764,17.9774613 C216.357727,17.7831514 216.317368,17.604022 216.263303,17.439314 C215.343429,14.6362418 209.643716,15.9167137 207.769702,16.0935661 C203.534324,16.4761137 202.885539,18.8154228 199.87006,21.421908 C198.191747,22.8670879 196.130408,23.4948 194.086583,24.3130268 C190.270783,25.8158925 187.253781,24.2553411 183.343557,24.6173951 C179.849104,24.9217633 178.802824,27.7362209 176.740723,29.8098719 C175.079163,31.5024933 175.995991,31.6163468 177.523529,33.1958738 C180.00597,35.7446732 182.637661,37.7803731 182.350581,41.5261519 C182.0833,44.6662303 185.728527,46.8157837 187.790628,44.1713473 C188.574196,43.1823403 188.934378,42.2699945 189.430104,41.0897137 C190.041577,39.586089 190.806107,37.7993487 192.731902,37.8372998 C196.338294,37.8957446 196.435764,34.7746418 197.063227,31.8068616 C198.115599,26.9005365 203.170335,25.205638 207.905247,26.2530898 C213.418396,27.4705628 213.705476,32.643305 213.724513,37.4001025 C214.670277,37.1443118 215.48735,36.5537918 216.263303,35.869912 C217.914202,34.4133468 219.381583,32.5302106 221.510694,32.5302106 C221.988145,32.5302106 222.484633,32.6258475 223.037471,32.8338198 C226.356783,34.1097375 226.34003,35.9154534 225.517626,39.093483 C225.480314,39.2832388 225.461277,39.454778 225.421679,39.6240401 C232.215646,40.3868583 235.87991,43.8487625 238.019683,51.0951557 C238.189494,51.6272309 237.882615,52.0279951 237.483597,52.1995343 C237.025184,53.3206113 237.236876,56.0789012 237.101332,57.126353 L237.101332,57.1438105 C236.967311,60.4728857 238.780406,62.1860008 235.270723,63.9917166 C232.367182,65.4953413 228.895573,65.3427777 225.89913,66.5215405 C225.615097,66.635394 225.174197,66.5033239 224.984587,66.274858 C223.608584,64.7158246 222.903449,63.0414197 222.559258,61.3100881 C221.948548,60.910842 221.471858,60.284648 221.244174,59.3123394 C220.86267,57.6394526 219.277259,55.7380998 219.773747,53.9103723 C220.159059,52.4644333 218.393937,52.2374854 216.263303,52.4446987 C214.584229,52.6086477 212.678233,53.0405318 211.415691,53.3585625 C213.534903,56.8789115 214.926136,61.6918767 208.972848,60.548788 C207.963119,60.3597913 207.446071,62.2421685 206.585594,63.4604005 C205.900257,64.4106974 205.059578,64.9435315 204.124475,65.5909782 C202.216194,66.9033291 200.175415,68.1572352 198.477304,69.7557378 C196.565978,71.5242615 196.396167,73.8650887 195.937753,76.2423489 C194.46961,83.8318205 187.253781,86.7244574 180.919751,89.7294298 C176.148288,91.97462 172.352287,94.5044439 169.869085,99.3553603 C168.266921,102.493921 166.683794,105.898139 163.820612,108.124354 C160.519576,110.709586 157.160667,112.422701 154.700309,108.104619 C152.543785,104.317853 150.158053,102.777795 145.672147,103.807031 C142.179978,104.603246 138.802793,105.782768 135.387534,106.888664 C132.218235,107.895129 128.288212,108.104619 125.444828,109.891359 C121.951898,112.09784 120.709916,116.968491 121.05563,120.904784 C121.60923,127.619861 128.592045,128.38192 133.573678,125.165181 C136.09343,123.54998 138.13421,122.141992 141.208323,122.198918 C141.703288,122.198918 142.179978,122.617899 142.161702,123.149974 C141.912697,129.02709 146.187672,130.816107 148.476695,135.608579 C150.461124,139.719448 149.050093,148.259975 155.252386,149.305909 C162.96318,150.598525 168.343831,140.650769 176.570151,143.047764 C179.355662,143.865232 181.911966,145.196558 184.658641,146.108145 C188.361741,147.327895 192.312324,147.327895 196.16696,147.708166 C200.136579,148.086918 204.145035,148.468707 208.075058,149.135129 C210.736447,149.593579 213.550894,150.146907 216.263303,150.985627 C220.182665,152.19551 223.887288,153.995913 226.605788,156.952308 L226.605788,156.43769 C226.605788,155.543561 227.61704,155.260445 228.227751,155.773545 C239.450512,164.960001 257.978197,161.080634 264.696777,176.202651 C267.884352,183.42855 266.66293,190.885193 262.0826,197.183566 C259.543809,200.663687 256.585441,203.820464 253.952227,207.227718 C250.670228,211.431188 249.183048,216.071855 247.083635,220.884061 C245.518023,224.478795 243.455922,228.455316 239.353042,229.616622 C234.79251,230.888744 227.748777,229.577912 225.404927,234.771147 C222.064293,242.167827 226.130622,250.863954 219.868171,257.329313 C219.468392,257.747535 219.068612,258.129323 218.647511,258.489859 C217.927147,260.052688 217.113881,261.578324 216.263303,263.091057 L216.263303,265 C253.247092,264.267543 286.528543,248.48214 310.187873,223.536088 C309.81703,223.198323 309.440857,222.869666 309.059353,222.556189 C307.76026,221.495075 304.946574,220.281397 304.547556,218.42255 C304.346524,217.57548 304.812553,216.594822 305.145322,215.847943 C306.295164,213.19364 307.994797,210.370074 307.994797,207.398499 C308.010027,202.749482 304.495014,199.213194 304.095996,194.665128 C303.71373,190.214975 306.494673,185.716246 305.430117,181.366284 C304.146254,176.154073 301.331806,171.439022 300.099724,166.210112 C299.1334,162.074954 299.683192,156.41416 294.50205,155.466899 C290.256011,154.703322 285.658166,153.093434 281.345117,153.641449 C273.965569,154.571252 265.987493,157.658958 259.791292,151.815239 C256.559551,148.759413 254.145644,144.924828 250.846893,141.953253 C248.116208,139.479597 244.484688,137.154709 242.685299,133.834742 C241.119687,130.929202 240.904187,127.90829 242.869579,125.13482 C244.585204,122.746174 247.248877,119.290342 244.301931,116.535847 C242.836835,115.174919 241.268938,114.061432 239.988121,112.519097 C239.687334,112.168429 239.638599,111.689485 239.988121,111.355515 C241.352701,109.977888 241.72126,107.967236 243.285349,106.723197 C244.984983,105.363028 246.900117,104.449923 248.965264,103.802476 C251.628937,102.972105 254.629187,102.506065 257.093352,101.178534 C259.975571,99.6346808 260.058573,97.3765871 261.109422,94.7040669 C262.889773,90.1210857 269.501745,90.4694772 273.565028,90.0869296 C277.947372,89.6914786 282.226155,89.3248705 286.390715,87.8804496 C289.305678,86.8838523 292.21988,85.9381095 295.252112,85.3893359 C300.465237,84.4610507 301.781082,90.5537288 305.796391,92.7951239 C308.594086,94.3382178 311.974317,96.0983923 315.323326,95.7333022 C318.603041,95.3841516 320.453449,92.7951239 323.250382,91.4007985 C327.964734,89.0265744 333.395643,89.9055231 338.37423,91.0508889 C338.916407,91.1753687 339.459346,91.3097158 340,91.4448219 C339.135715,88.8003855 338.192235,86.1908642 337.1688,83.6215711 Z"/>
            <path fill="#FFF" d="M265.224069,175.879175 C258.527267,160.707388 240.056786,164.599523 228.869133,155.382832 C228.261092,154.868043 227.253004,155.152091 227.253004,156.049163 L227.253004,156.566236 C224.542249,153.599349 220.849215,151.793021 216.942115,150.579156 C214.238192,149.738437 211.432549,149.182526 208.779486,148.722567 C204.861758,148.053952 200.866602,147.670907 196.908641,147.290907 C193.066824,146.909385 189.1286,146.909385 185.437085,145.686382 C182.699002,144.771034 180.149936,143.435326 177.373139,142.615167 C169.172555,140.210283 163.808737,150.191542 156.122065,148.89391 C149.939175,147.845295 151.345792,139.276658 149.367571,135.15226 C147.086468,130.343253 142.824867,128.549109 143.072334,122.651889 C143.090553,122.118063 142.615354,121.698465 142.121938,121.698465 C139.057441,121.640589 137.023806,123.053972 134.511935,124.674489 C129.545128,127.901055 122.584917,127.136487 122.03305,120.399309 C121.688417,116.450061 122.925754,111.563379 126.407757,109.350398 C129.242246,107.557016 133.159974,107.347598 136.319358,106.337821 C139.723933,105.228284 143.090553,104.044119 146.571797,103.245283 C151.043669,102.213422 153.421937,103.757787 155.572475,107.557016 C158.025135,111.890072 161.373536,110.171318 164.663486,107.577577 C167.517711,105.343274 169.096645,101.928613 170.693796,98.7789612 C173.16847,93.9120793 176.953355,91.3739291 181.709132,89.1213495 C188.024106,86.106487 195.216602,83.2050913 196.680151,75.5906409 C197.137131,73.204795 197.306411,70.8562636 199.211758,69.0826807 C200.905316,67.4781556 202.939711,66.2201226 204.842021,64.9034524 C205.774199,64.2538748 206.612248,63.7200485 207.294682,62.7666239 C208.152467,61.5436209 208.668657,59.6550483 209.674468,59.8446671 C215.60989,60.9922796 214.222251,56.1627121 212.110428,52.6307768 C213.36826,52.3116995 215.268294,51.8783939 216.942115,51.7139053 C219.066843,51.5067716 220.825683,51.7344664 220.441577,53.1851643 C219.946643,55.0181458 221.527853,56.9257564 221.907404,58.6041491 C222.134376,59.5796577 222.610333,60.2079127 223.218374,60.6092344 C223.562248,62.3455027 224.264418,64.0254185 225.636875,65.589583 C225.825132,65.8195624 226.264653,65.9513056 226.548557,65.8370774 C229.534866,64.654435 232.995614,64.8082623 235.890072,63.2989273 C239.389535,61.4872683 237.581352,59.768515 237.714954,56.4292446 L237.714954,56.4109681 C237.850075,55.3600688 237.639803,52.5927008 238.096024,51.467934 C238.493794,51.2958302 238.799712,50.893747 238.630432,50.3606822 C236.498113,43.0896778 232.845312,39.6163796 226.0726,38.8518124 C226.112073,38.6812316 226.130291,38.5091278 226.167487,38.3187475 C226.987318,35.1310198 227.004778,33.3185994 223.695091,32.0384822 C223.143982,31.8305869 222.649047,31.7346353 222.173849,31.7346353 C220.051399,31.7346353 218.587849,33.6232078 216.942115,35.084567 C216.16859,35.7714591 215.354073,36.3631611 214.411267,36.6205553 C214.39229,31.8473404 214.106867,26.658335 208.610206,25.4360935 C203.890866,24.3851942 198.851185,26.085671 197.802864,31.0089056 C197.176605,33.9856919 197.07868,37.1170671 193.48433,37.0584299 C191.565319,37.0203539 190.802421,38.8137363 190.193621,40.3215483 C189.698686,41.5057137 189.33963,42.4210622 188.558514,43.4140858 C186.503624,46.0664641 182.8698,43.9098361 183.135486,40.7594229 C183.421668,37.0020774 180.798209,34.958916 178.323535,32.4024894 C176.801535,30.8177637 175.886816,30.702774 177.543937,29.0053433 C179.598827,26.9241059 180.642593,24.1003853 184.126115,23.7950153 C188.024106,23.4325312 191.03167,24.9974573 194.834773,23.4904068 C196.872204,22.669487 198.927854,22.0389474 200.600157,20.5890111 C203.606203,17.9747088 204.253717,15.6277005 208.475086,15.2438938 C210.343996,15.0656978 216.02436,13.7817731 216.942115,16.5933094 C216.99677,16.759321 217.036244,16.9382785 217.055221,17.1332279 C217.238165,18.9479329 217.679963,20.6971471 218.835317,22.0488472 C219.290778,21.5690888 219.92311,21.233258 220.751291,21.1875667 C223.379304,21.0436392 226.110555,20.3803543 228.052339,22.744116 C229.884053,24.9730886 231.725636,26.8098777 234.692208,27.4091949 C235.90905,26.94619 237.043908,26.30042 238.046682,25.490923 C238.058828,25.0149722 238.089192,24.5390215 238.111206,24.0501249 C238.118797,23.8917285 238.164343,23.7135325 238.247844,23.5597052 C238.096024,23.3266798 237.939649,23.0936543 237.765814,22.8621518 C237.248866,22.1714521 238.038332,21.3680472 238.746575,21.4540991 C238.783012,21.3505323 238.829317,21.250773 238.86879,21.1487291 C238.940905,20.9568258 239.057048,20.8098522 239.188372,20.6963856 C238.981896,20.5258048 238.824762,20.2950639 238.824762,19.9950245 L238.824762,19.040077 C238.824762,18.3257701 239.441153,18.0226846 239.980116,18.1490972 C239.986189,17.3099008 240.025662,16.4760351 240.107645,15.6391233 C239.826018,15.6337926 239.535282,15.6018088 239.233159,15.5127108 C237.551747,15.0154374 236.503427,13.5845391 235.648677,12.1353643 C234.965485,10.976329 235.188661,9.86146199 235.833139,9.05958018 C235.724588,8.32471222 235.540126,7.60279013 235.354146,6.88543716 C234.777228,5.90992851 234.092517,5.02961001 233.149712,4.50035278 C230.676556,3.12580703 227.785135,3.73807007 224.93091,3.90941234 C223.372472,3.56520476 221.734329,3.37558598 220.137177,3.2613578 C219.966379,3.18444416 219.814559,3.12580703 219.643002,3.03061688 C219.223977,2.80216052 218.842908,2.91562718 218.557485,3.16464461 C218.010172,3.13875289 217.471969,3.11362269 216.942115,3.08849249 C216.276382,3.0565086 215.625831,3.02452471 215.000331,2.9917793 C209.597039,2.72524688 205.08873,1.71394673 200.031589,4.09979263 C198.221889,4.93898899 197.119672,5.89317505 195.977223,7.45962415 C195.085277,8.65978155 191.696644,10.0739264 192.552152,7.43906307 C192.952199,6.19930657 193.694601,5.01666415 194.302643,3.85153672 C194.590342,3.31694885 194.340598,2.63005673 193.731797,2.45947598 C190.860872,1.65759416 188.424153,1.96144112 185.629138,2.93618825 C185.057533,3.12580703 184.714419,3.77538461 185.057533,4.32824899 C186.845979,7.34539597 183.461141,8.77400973 180.929534,10.2071926 C179.065178,11.2756069 176.211712,12.3440211 174.672252,10.1112409 C172.900507,7.61116686 175.811665,6.29449672 177.636547,5.49109186 C178.388818,5.15678405 179.034814,4.50339887 179.503181,3.72893181 C171.041465,6.03177191 162.916032,9.1540088 155.216456,13.0034984 C155.013016,13.1063038 154.811095,13.2075861 154.609174,13.3103915 C149.326579,15.986377 144.243629,19.0020009 139.395242,22.3374637 C119.288135,36.1704962 103.175426,55.4179444 93.1492002,77.9901941 C88.9908368,87.3508127 85.8785166,97.2825721 83.9610237,107.63393 C84.1819226,108.476172 84.0657799,109.400659 83.4911393,110.338853 C83.3142684,111.417167 83.1503023,112.499289 83,113.586741 C85.8891441,113.579887 88.6940277,113.477843 91.4791747,112.594479 C92.1259301,112.403337 92.2967281,111.77432 92.0507789,111.200895 C90.8908703,108.529479 85.6378811,99.1033693 90.0915354,97.4424915 C94.503439,95.8014134 95.169931,107.481625 95.8356639,109.864425 C97.0730009,114.389384 98.0431339,118.969173 100.325755,123.111848 C102.893799,127.729712 107.669313,129.656361 112.270992,131.660685 C117.713757,134.02597 123.306824,136.011255 128.556017,138.780147 C133.427178,141.354088 137.305433,145.267546 142.138638,147.939723 C146.114817,150.114628 150.28229,151.986447 153.877399,154.790368 C159.83104,159.44707 157.416335,164.945253 152.185359,168.971416 C149.367571,171.125759 146.801046,173.168921 145.963755,176.796046 C144.897216,181.356035 148.43767,186.107927 150.910826,189.504312 C154.31616,194.163298 157.112694,198.895391 159.794603,204.008244 C162.172112,208.532442 165.312519,212.043055 169.934694,214.276596 C175.107977,216.759155 174.31016,223.933447 174.974375,228.819367 C175.678822,234.047971 176.745361,238.705435 179.102374,243.43905 C182.070465,249.373585 186.198464,252.523237 184.961127,259.811756 C184.86548,260.372236 184.724287,260.991352 184.572467,261.642453 C193.927646,263.789943 203.658581,264.947455 213.652165,264.992385 C213.853327,264.993146 214.055248,265 214.25717,265 C214.785505,265 215.313081,264.995431 215.840657,264.989339 C216.211858,264.345853 216.580023,263.700083 216.942115,263.054313 C217.790032,261.53584 218.601513,260.005944 219.319624,258.43721 C219.738649,258.076249 220.137177,257.693204 220.536465,257.273606 C226.778565,250.786207 222.725717,242.061459 226.05514,234.640435 C228.391658,229.430107 235.413356,230.746015 239.95962,229.468944 C244.049665,228.304578 246.105314,224.314969 247.666029,220.707643 C249.758874,215.879598 251.241402,211.223658 254.513892,207.006353 C257.13811,203.588646 260.087223,200.42148 262.618071,196.929905 C267.184072,190.610802 268.401672,183.129618 265.224069,175.879175"/>
            <path stroke="#171717" d="M265.224069,175.879175 C258.527267,160.707388 240.056786,164.599523 228.869133,155.382832 C228.261092,154.868043 227.253004,155.152091 227.253004,156.049163 L227.253004,156.566236 C224.542249,153.599349 220.849215,151.793021 216.942115,150.579156 C214.238192,149.738437 211.432549,149.182526 208.779486,148.722567 C204.861758,148.053952 200.866602,147.670907 196.908641,147.290907 C193.066824,146.909385 189.1286,146.909385 185.437085,145.686382 C182.699002,144.771034 180.149936,143.435326 177.373139,142.615167 C169.172555,140.210283 163.808737,150.191542 156.122065,148.89391 C149.939175,147.845295 151.345792,139.276658 149.367571,135.15226 C147.086468,130.343253 142.824867,128.549109 143.072334,122.651889 C143.090553,122.118063 142.615354,121.698465 142.121938,121.698465 C139.057441,121.640589 137.023806,123.053972 134.511935,124.674489 C129.545128,127.901055 122.584917,127.136487 122.03305,120.399309 C121.688417,116.450061 122.925754,111.563379 126.407757,109.350398 C129.242246,107.557016 133.159974,107.347598 136.319358,106.337821 C139.723933,105.228284 143.090553,104.044119 146.571797,103.245283 C151.043669,102.213422 153.421937,103.757787 155.572475,107.557016 C158.025135,111.890072 161.373536,110.171318 164.663486,107.577577 C167.517711,105.343274 169.096645,101.928613 170.693796,98.7789612 C173.16847,93.9120793 176.953355,91.3739291 181.709132,89.1213495 C188.024106,86.106487 195.216602,83.2050913 196.680151,75.5906409 C197.137131,73.204795 197.306411,70.8562636 199.211758,69.0826807 C200.905316,67.4781556 202.939711,66.2201226 204.842021,64.9034524 C205.774199,64.2538748 206.612248,63.7200485 207.294682,62.7666239 C208.152467,61.5436209 208.668657,59.6550483 209.674468,59.8446671 C215.60989,60.9922796 214.222251,56.1627121 212.110428,52.6307768 C213.36826,52.3116995 215.268294,51.8783939 216.942115,51.7139053 C219.066843,51.5067716 220.825683,51.7344664 220.441577,53.1851643 C219.946643,55.0181458 221.527853,56.9257564 221.907404,58.6041491 C222.134376,59.5796577 222.610333,60.2079127 223.218374,60.6092344 C223.562248,62.3455027 224.264418,64.0254185 225.636875,65.589583 C225.825132,65.8195624 226.264653,65.9513056 226.548557,65.8370774 C229.534866,64.654435 232.995614,64.8082623 235.890072,63.2989273 C239.389535,61.4872683 237.581352,59.768515 237.714954,56.4292446 L237.714954,56.4109681 C237.850075,55.3600688 237.639803,52.5927008 238.096024,51.467934 C238.493794,51.2958302 238.799712,50.893747 238.630432,50.3606822 C236.498113,43.0896778 232.845312,39.6163796 226.0726,38.8518124 C226.112073,38.6812316 226.130291,38.5091278 226.167487,38.3187475 C226.987318,35.1310198 227.004778,33.3185994 223.695091,32.0384822 C223.143982,31.8305869 222.649047,31.7346353 222.173849,31.7346353 C220.051399,31.7346353 218.587849,33.6232078 216.942115,35.084567 C216.16859,35.7714591 215.354073,36.3631611 214.411267,36.6205553 C214.39229,31.8473404 214.106867,26.658335 208.610206,25.4360935 C203.890866,24.3851942 198.851185,26.085671 197.802864,31.0089056 C197.176605,33.9856919 197.07868,37.1170671 193.48433,37.0584299 C191.565319,37.0203539 190.802421,38.8137363 190.193621,40.3215483 C189.698686,41.5057137 189.33963,42.4210622 188.558514,43.4140858 C186.503624,46.0664641 182.8698,43.9098361 183.135486,40.7594229 C183.421668,37.0020774 180.798209,34.958916 178.323535,32.4024894 C176.801535,30.8177637 175.886816,30.702774 177.543937,29.0053433 C179.598827,26.9241059 180.642593,24.1003853 184.126115,23.7950153 C188.024106,23.4325312 191.03167,24.9974573 194.834773,23.4904068 C196.872204,22.669487 198.927854,22.0389474 200.600157,20.5890111 C203.606203,17.9747088 204.253717,15.6277005 208.475086,15.2438938 C210.343996,15.0656978 216.02436,13.7817731 216.942115,16.5933094 C216.99677,16.759321 217.036244,16.9382785 217.055221,17.1332279 C217.238165,18.9479329 217.679963,20.6971471 218.835317,22.0488472 C219.290778,21.5690888 219.92311,21.233258 220.751291,21.1875667 C223.379304,21.0436392 226.110555,20.3803543 228.052339,22.744116 C229.884053,24.9730886 231.725636,26.8098777 234.692208,27.4091949 C235.90905,26.94619 237.043908,26.30042 238.046682,25.490923 C238.058828,25.0149722 238.089192,24.5390215 238.111206,24.0501249 C238.118797,23.8917285 238.164343,23.7135325 238.247844,23.5597052 C238.096024,23.3266798 237.939649,23.0936543 237.765814,22.8621518 C237.248866,22.1714521 238.038332,21.3680472 238.746575,21.4540991 C238.783012,21.3505323 238.829317,21.250773 238.86879,21.1487291 C238.940905,20.9568258 239.057048,20.8098522 239.188372,20.6963856 C238.981896,20.5258048 238.824762,20.2950639 238.824762,19.9950245 L238.824762,19.040077 C238.824762,18.3257701 239.441153,18.0226846 239.980116,18.1490972 C239.986189,17.3099008 240.025662,16.4760351 240.107645,15.6391233 C239.826018,15.6337926 239.535282,15.6018088 239.233159,15.5127108 C237.551747,15.0154374 236.503427,13.5845391 235.648677,12.1353643 C234.965485,10.976329 235.188661,9.86146199 235.833139,9.05958018 C235.724588,8.32471222 235.540126,7.60279013 235.354146,6.88543716 C234.777228,5.90992851 234.092517,5.02961001 233.149712,4.50035278 C230.676556,3.12580703 227.785135,3.73807007 224.93091,3.90941234 C223.372472,3.56520476 221.734329,3.37558598 220.137177,3.2613578 C219.966379,3.18444416 219.814559,3.12580703 219.643002,3.03061688 C219.223977,2.80216052 218.842908,2.91562718 218.557485,3.16464461 C218.010172,3.13875289 217.471969,3.11362269 216.942115,3.08849249 C216.276382,3.0565086 215.625831,3.02452471 215.000331,2.9917793 C209.597039,2.72524688 205.08873,1.71394673 200.031589,4.09979263 C198.221889,4.93898899 197.119672,5.89317505 195.977223,7.45962415 C195.085277,8.65978155 191.696644,10.0739264 192.552152,7.43906307 C192.952199,6.19930657 193.694601,5.01666415 194.302643,3.85153672 C194.590342,3.31694885 194.340598,2.63005673 193.731797,2.45947598 C190.860872,1.65759416 188.424153,1.96144112 185.629138,2.93618825 C185.057533,3.12580703 184.714419,3.77538461 185.057533,4.32824899 C186.845979,7.34539597 183.461141,8.77400973 180.929534,10.2071926 C179.065178,11.2756069 176.211712,12.3440211 174.672252,10.1112409 C172.900507,7.61116686 175.811665,6.29449672 177.636547,5.49109186 C178.388818,5.15678405 179.034814,4.50339887 179.503181,3.72893181 C171.041465,6.03177191 162.916032,9.1540088 155.216456,13.0034984 C155.013016,13.1063038 154.811095,13.2075861 154.609174,13.3103915 C149.326579,15.986377 144.243629,19.0020009 139.395242,22.3374637 C119.288135,36.1704962 103.175426,55.4179444 93.1492002,77.9901941 C88.9908368,87.3508127 85.8785166,97.2825721 83.9610237,107.63393 C84.1819226,108.476172 84.0657799,109.400659 83.4911393,110.338853 C83.3142684,111.417167 83.1503023,112.499289 83,113.586741 C85.8891441,113.579887 88.6940277,113.477843 91.4791747,112.594479 C92.1259301,112.403337 92.2967281,111.77432 92.0507789,111.200895 C90.8908703,108.529479 85.6378811,99.1033693 90.0915354,97.4424915 C94.503439,95.8014134 95.169931,107.481625 95.8356639,109.864425 C97.0730009,114.389384 98.0431339,118.969173 100.325755,123.111848 C102.893799,127.729712 107.669313,129.656361 112.270992,131.660685 C117.713757,134.02597 123.306824,136.011255 128.556017,138.780147 C133.427178,141.354088 137.305433,145.267546 142.138638,147.939723 C146.114817,150.114628 150.28229,151.986447 153.877399,154.790368 C159.83104,159.44707 157.416335,164.945253 152.185359,168.971416 C149.367571,171.125759 146.801046,173.168921 145.963755,176.796046 C144.897216,181.356035 148.43767,186.107927 150.910826,189.504312 C154.31616,194.163298 157.112694,198.895391 159.794603,204.008244 C162.172112,208.532442 165.312519,212.043055 169.934694,214.276596 C175.107977,216.759155 174.31016,223.933447 174.974375,228.819367 C175.678822,234.047971 176.745361,238.705435 179.102374,243.43905 C182.070465,249.373585 186.198464,252.523237 184.961127,259.811756 C184.86548,260.372236 184.724287,260.991352 184.572467,261.642453 C193.927646,263.789943 203.658581,264.947455 213.652165,264.992385 C213.853327,264.993146 214.055248,265 214.25717,265 C214.785505,265 215.313081,264.995431 215.840657,264.989339 C216.211858,264.345853 216.580023,263.700083 216.942115,263.054313 C217.790032,261.53584 218.601513,260.005944 219.319624,258.43721 C219.738649,258.076249 220.137177,257.693204 220.536465,257.273606 C226.778565,250.786207 222.725717,242.061459 226.05514,234.640435 C228.391658,229.430107 235.413356,230.746015 239.95962,229.468944 C244.049665,228.304578 246.105314,224.314969 247.666029,220.707643 C249.758874,215.879598 251.241402,211.223658 254.513892,207.006353 C257.13811,203.588646 260.087223,200.42148 262.618071,196.929905 C267.184072,190.610802 268.401672,183.129618 265.224069,175.879175 Z"/>
          </g>
        </g>
      </g>
    </g>
    <rect width="1799" height="100" y="235" fill="#D8D8D8" opacity="0" transform="translate(-12 803)"/>
  </g>
</svg>
