<svg xmlns="http://www.w3.org/2000/svg" xmlns:xlink="http://www.w3.org/1999/xlink" width="589" height="369" viewBox="0 0 589 369">
  <defs>
    <polygon id="img2-a" points=".556 .149 255.912 .149 255.912 196 .556 196"/>
  </defs>
  <g fill="none" fill-rule="evenodd" transform="translate(-869 -1670)">
    <rect width="1802" height="3944" fill="#FFF"/>
    <g transform="translate(869 1670)">
      <path fill="#F8F8F8" d="M426.141138,128.719473 L426.141138,128.719473 L426.138461,128.719473 C424.00491,128.860904 421.892776,129.079849 419.804733,129.391268 C386.374644,130.734858 360.161685,96.4977876 360.161685,96.4977876 L360.160347,96.5086669 C315.551201,39.7610214 248.767317,0 189.444167,0 C126.42545,0 90.7922091,44.86612 96.2800121,107.302265 C96.7150208,119.19467 94.6122554,153.827474 56.8213705,165.133758 C56.8093241,165.137838 56.7986162,165.141918 56.7865698,165.144637 C56.5777656,165.211273 56.3702999,165.275189 56.1601572,165.341824 C55.9727688,165.40166 55.7853804,165.461496 55.6046844,165.521332 C28.727835,174.128197 0.359909315,188.862812 0,228.871336 C-0.85543826,326.088516 105.202377,335 105.202377,335 L528.605111,335 C528.605111,335 615.316413,331.907567 580.940012,245.742368 C555.137969,181.065093 483.254443,124.947085 426.141138,128.719473"/>
      <g transform="translate(127 13)">
        <path fill="#FFF" d="M63.9075173,97.8089774 C64.9064139,87.9184018 57.699553,79.0913793 47.8089774,78.0924827 C37.9193388,77.0935861 29.0923163,84.300447 28.0924827,94.1910226 C27.0935861,104.080661 34.300447,112.907684 44.1910226,113.907517 C54.0815982,114.906414 62.9086207,107.699553 63.9075173,97.8089774"/>
        <path stroke="#171717" stroke-width="2" d="M63.9075173,97.8089774 C64.9064139,87.9184018 57.699553,79.0913793 47.8089774,78.0924827 C37.9193388,77.0935861 29.0923163,84.300447 28.0924827,94.1910226 C27.0935861,104.080661 34.300447,112.907684 44.1910226,113.907517 C54.0815982,114.906414 62.9086207,107.699553 63.9075173,97.8089774 Z"/>
        <path fill="#0048FA" d="M47.3069434,83.0667256 C54.4494934,83.7878083 59.6551282,90.1643861 58.9331106,97.3069388 C58.211093,104.449492 51.8363882,109.655128 44.6938382,108.933111 C37.550353,108.212028 32.3456534,101.836385 33.0667358,94.6938326 C33.7887534,87.5512798 40.1634582,82.345643 47.3069434,83.0667256"/>
        <path stroke="#121212" d="M47.3069434,83.0667256 C54.4494934,83.7878083 59.6551282,90.1643861 58.9331106,97.3069388 C58.211093,104.449492 51.8363882,109.655128 44.6938382,108.933111 C37.550353,108.212028 32.3456534,101.836385 33.0667358,94.6938326 C33.7887534,87.5512798 40.1634582,82.345643 47.3069434,83.0667256 Z"/>
        <path fill="#FFF" d="M46.8142418,101.998262 L47.2344413,97.9541691 C48.1817171,98.344186 48.8028816,99.2086198 48.7051395,100.141462 C48.6092244,101.075193 47.8227206,101.801033 46.8142418,101.998262 M44.2939583,93.7457183 C44.3907869,92.8119877 45.1763772,92.0861477 46.1857695,91.8889182 L45.76557,95.9321227 C44.8173807,95.5421058 44.1971297,94.6785605 44.2939583,93.7457183 M47.4070885,96.2919332 L47.8482979,92.0523877 C48.7955737,92.4415161 49.4158247,93.3059499 49.3189962,94.2396804 C49.2724088,94.6856678 49.6076549,95.0845689 50.0662205,95.1298784 C50.524786,95.1742995 50.9349373,94.8482489 50.9815246,94.4022615 C51.1706144,92.5845519 49.8890059,90.9240928 48.0200316,90.3892633 L48.0720998,89.8944128 C48.1186872,89.4484254 47.7843545,89.0495243 47.3248755,89.0042148 C46.8653965,88.9589053 46.4552453,89.2840674 46.4095714,89.7309433 L46.3575032,90.2257938 C44.4163642,90.3865981 42.8205196,91.7645392 42.6314299,93.5813604 C42.4432536,95.3981816 43.7230351,97.0595291 45.5920093,97.595247 L45.1526268,101.834793 C44.205351,101.445664 43.5841865,100.58123 43.6801016,99.6474998 C43.726689,99.2024008 43.3923563,98.8026113 42.9337908,98.7581903 C42.4743118,98.7128808 42.065074,99.0380429 42.0184867,99.4849187 C41.8293969,101.30174 43.1100919,102.963087 44.9790662,103.497917 L44.9160362,104.105597 C44.8694489,104.551584 45.2037815,104.950485 45.6632606,104.995795 C46.1227396,105.041104 46.5319773,104.715054 46.5785647,104.269066 L46.6425081,103.661386 C48.583647,103.500582 50.1794916,102.122641 50.3685814,100.304931 C50.5576712,98.4881102 49.2760627,96.8276512 47.4070885,96.2919332"/>
        <path stroke="#171717" d="M46.8142418,101.998262 L47.2344413,97.9541691 C48.1817171,98.344186 48.8028816,99.2086198 48.7051395,100.141462 C48.6092244,101.075193 47.8227206,101.801033 46.8142418,101.998262 Z M44.2939583,93.7457183 C44.3907869,92.8119877 45.1763772,92.0861477 46.1857695,91.8889182 L45.76557,95.9321227 C44.8173807,95.5421058 44.1971297,94.6785605 44.2939583,93.7457183 Z M47.4070885,96.2919332 L47.8482979,92.0523877 C48.7955737,92.4415161 49.4158247,93.3059499 49.3189962,94.2396804 C49.2724088,94.6856678 49.6076549,95.0845689 50.0662205,95.1298784 C50.524786,95.1742995 50.9349373,94.8482489 50.9815246,94.4022615 C51.1706144,92.5845519 49.8890059,90.9240928 48.0200316,90.3892633 L48.0720998,89.8944128 C48.1186872,89.4484254 47.7843545,89.0495243 47.3248755,89.0042148 C46.8653965,88.9589053 46.4552453,89.2840674 46.4095714,89.7309433 L46.3575032,90.2257938 C44.4163642,90.3865981 42.8205196,91.7645392 42.6314299,93.5813604 C42.4432536,95.3981816 43.7230351,97.0595291 45.5920093,97.595247 L45.1526268,101.834793 C44.205351,101.445664 43.5841865,100.58123 43.6801016,99.6474998 C43.726689,99.2024008 43.3923563,98.8026113 42.9337908,98.7581903 C42.4743118,98.7128808 42.065074,99.0380429 42.0184867,99.4849187 C41.8293969,101.30174 43.1100919,102.963087 44.9790662,103.497917 L44.9160362,104.105597 C44.8694489,104.551584 45.2037815,104.950485 45.6632606,104.995795 C46.1227396,105.041104 46.5319773,104.715054 46.5785647,104.269066 L46.6425081,103.661386 C48.583647,103.500582 50.1794916,102.122641 50.3685814,100.304931 C50.5576712,98.4881102 49.2760627,96.8276512 47.4070885,96.2919332 Z"/>
        <path fill="#FFF" d="M100.663345,49.5586315 C98.4866901,36.765142 86.3521838,28.1607035 73.5596617,30.3364546 C60.766227,32.5131183 52.16,44.6476765 54.3366545,57.4411661 C56.5133089,70.233743 68.6478151,78.8400068 81.4412499,76.6633431 C94.233772,74.4866793 102.839999,62.3521211 100.663345,49.5586315"/>
        <path stroke="#171717" stroke-width="2" d="M100.663345,49.5586315 C98.4866901,36.765142 86.3521838,28.1607035 73.5596617,30.3364546 C60.766227,32.5131183 52.16,44.6476765 54.3366545,57.4411661 C56.5133089,70.233743 68.6478151,78.8400068 81.4412499,76.6633431 C94.233772,74.4866793 102.839999,62.3521211 100.663345,49.5586315 Z"/>
        <path fill="#0048FA" d="M74.5654094,37.2435771 C84.0919105,35.6688003 93.1290784,41.8949166 94.7492316,51.1492393 C96.3703241,60.4035619 89.962031,69.1825319 80.4345906,70.7563963 C70.9080895,72.331173 61.8709216,66.1059691 60.2507684,56.8507341 C58.6296759,47.5973238 65.037969,38.8183539 74.5654094,37.2435771"/>
        <path stroke="#121212" d="M74.5654094,37.2435771 C84.0919105,35.6688003 93.1290784,41.8949166 94.7492316,51.1492393 C96.3703241,60.4035619 89.962031,69.1825319 80.4345906,70.7563963 C70.9080895,72.331173 61.8709216,66.1059691 60.2507684,56.8507341 C58.6296759,47.5973238 65.037969,38.8183539 74.5654094,37.2435771 Z"/>
        <path fill="#FFF" d="M81.4601165,50.5084674 C82.2115194,50.2937916 82.6534699,49.4883066 82.446006,48.7107835 C82.2394137,47.9332605 81.4601165,47.475947 80.7087136,47.6906228 L78.5486482,48.30759 L80.8089588,44.186357 C81.1951206,43.4818959 80.958019,42.5916229 80.2798386,42.1902334 C79.6016583,41.7924519 78.7386781,42.0386976 78.3542597,42.7404528 L76.0922057,46.8643918 L72.1094216,44.5228026 C71.432113,44.1250211 70.5691328,44.3712668 70.1838427,45.0730219 C69.7994243,45.7738751 70.0373976,46.666854 70.7155779,47.0655375 L74.698362,49.4062247 L72.5391683,50.023192 C71.7868937,50.2369657 71.3449433,51.0433527 71.5524072,51.8208758 C71.7598711,52.5983989 72.5382966,53.0557123 73.2896995,52.8410366 L76.0128813,52.0635135 L76.7642842,54.8822601 L74.0411024,55.6588812 C73.2896995,55.8735569 72.8477491,56.6790419 73.055213,57.456565 C73.2626769,58.2340881 74.0411024,58.6914015 74.793377,58.4767258 L77.5165588,57.7001047 L78.6436632,61.9268716 C78.8502554,62.7043947 79.6286809,63.1617081 80.3809555,62.9470324 C81.1323584,62.7323566 81.5743088,61.9268716 81.3668449,61.1493485 L80.2397406,56.9216796 L82.9629223,56.1441566 C83.7143252,55.9303828 84.1562757,55.1248978 83.9488118,54.3473747 C83.7413479,53.5698517 82.963794,53.1125382 82.2115194,53.326312 L79.487466,54.103835 L78.7369347,51.2859904 L81.4601165,50.5084674 Z"/>
        <path stroke="#171717" d="M81.4601165,50.5084674 C82.2115194,50.2937916 82.6534699,49.4883066 82.446006,48.7107835 C82.2394137,47.9332605 81.4601165,47.475947 80.7087136,47.6906228 L78.5486482,48.30759 L80.8089588,44.186357 C81.1951206,43.4818959 80.958019,42.5916229 80.2798386,42.1902334 C79.6016583,41.7924519 78.7386781,42.0386976 78.3542597,42.7404528 L76.0922057,46.8643918 L72.1094216,44.5228026 C71.432113,44.1250211 70.5691328,44.3712668 70.1838427,45.0730219 C69.7994243,45.7738751 70.0373976,46.666854 70.7155779,47.0655375 L74.698362,49.4062247 L72.5391683,50.023192 C71.7868937,50.2369657 71.3449433,51.0433527 71.5524072,51.8208758 C71.7598711,52.5983989 72.5382966,53.0557123 73.2896995,52.8410366 L76.0128813,52.0635135 L76.7642842,54.8822601 L74.0411024,55.6588812 C73.2896995,55.8735569 72.8477491,56.6790419 73.055213,57.456565 C73.2626769,58.2340881 74.0411024,58.6914015 74.793377,58.4767258 L77.5165588,57.7001047 L78.6436632,61.9268716 C78.8502554,62.7043947 79.6286809,63.1617081 80.3809555,62.9470324 C81.1323584,62.7323566 81.5743088,61.9268716 81.3668449,61.1493485 L80.2397406,56.9216796 L82.9629223,56.1441566 C83.7143252,55.9303828 84.1562757,55.1248978 83.9488118,54.3473747 C83.7413479,53.5698517 82.963794,53.1125382 82.2115194,53.326312 L79.487466,54.103835 L78.7369347,51.2859904 L81.4601165,50.5084674 Z"/>
        <path fill="#FFF" d="M49.6420609,20.8073702 C47.3263859,7.19808261 34.4170476,-1.95752281 20.8069612,0.358172085 C7.19779077,2.67386698 -1.9568198,15.5824004 0.357939144,29.191688 C2.67453011,42.8028077 15.5829524,51.9574971 29.1930388,49.6418022 C42.8022092,47.3261073 51.9568198,34.4166578 49.6420609,20.8073702"/>
        <path stroke="#171717" stroke-width="2" d="M49.6420609,20.8073702 C47.3263859,7.19808261 34.4170476,-1.95752281 20.8069612,0.358172085 C7.19779077,2.67386698 -1.9568198,15.5824004 0.357939144,29.191688 C2.67453011,42.8028077 15.5829524,51.9574971 29.1930388,49.6418022 C42.8022092,47.3261073 51.9568198,34.4166578 49.6420609,20.8073702 Z"/>
        <path fill="#0048FA" d="M22.3968968,7.25782255 C32.4682835,5.59078942 42.0216275,12.1823605 43.7350092,21.9813071 C45.4483909,31.7802536 38.6735542,41.0751709 28.6021675,42.7422041 C18.5307808,44.4092372 8.97837352,37.8167546 7.26499185,28.0187196 C5.55161018,18.219773 12.3264468,8.92485568 22.3968968,7.25782255"/>
        <path stroke="#121212" d="M22.3968968,7.25782255 C32.4682835,5.59078942 42.0216275,12.1823605 43.7350092,21.9813071 C45.4483909,31.7802536 38.6735542,41.0751709 28.6021675,42.7422041 C18.5307808,44.4092372 8.97837352,37.8167546 7.26499185,28.0187196 C5.55161018,18.219773 12.3264468,8.92485568 22.3968968,7.25782255 Z"/>
        <path fill="#FFF" d="M27.1341717,18.6689447 C29.3148521,18.6689447 31.3649422,20.0492784 32.4874828,22.2722 C32.8193254,22.9286453 33.6216512,23.1903242 34.2728142,22.8567061 C34.9266606,22.523088 35.1878413,21.7200665 34.8559987,21.062722 C33.2772862,17.9405602 30.3184302,16 27.1341717,16 C23.528625,16 20.4186062,18.4288476 19.0277293,21.9098062 L16.892666,21.9098062 C16.1592132,21.9098062 15.5644009,22.5087001 15.5644009,23.2451778 C15.5644009,23.9807563 16.1583188,24.578751 16.892666,24.578751 L18.3398936,24.578751 C18.2808596,25.0436581 18.2486593,25.5175577 18.2486593,26.0004496 C18.2486593,26.3421609 18.2647595,26.6802752 18.2942765,27.0138933 L16.3273707,27.0138933 C15.5948123,27.0138933 15,27.6109887 15,28.3492649 C15,29.0857425 15.5939179,29.682838 16.3273707,29.682838 L18.8738831,29.682838 C20.1797868,33.3796142 23.3890901,36 27.1341717,36 C30.3184302,36 33.2772862,34.0594398 34.8559987,30.937278 C35.1869469,30.2790342 34.9257661,29.476912 34.2728142,29.1423947 C33.6216512,28.8096758 32.8202199,29.0713547 32.4883772,29.7286992 C31.3640477,31.9516209 29.3139577,33.3310553 27.1341717,33.3310553 C24.8390011,33.3310553 22.830056,31.8625961 21.7486603,29.682838 L27.4186083,29.682838 C28.1520611,29.682838 28.745979,29.0857425 28.745979,28.3492649 C28.745979,27.6109887 28.1511666,27.0138933 27.4177138,27.0138933 L20.965118,27.0138933 C20.925762,26.6820736 20.9042951,26.3439594 20.9042951,26.0004496 C20.9042951,25.5139607 20.94544,25.0391619 21.0223631,24.578751 L27.9821147,24.578751 C28.716462,24.578751 29.3121688,23.9807563 29.3121688,23.2451778 C29.3121688,22.5087001 28.7173564,21.9098062 27.9830092,21.9098062 L21.9669072,21.9098062 C23.0867644,19.9566566 24.9847972,18.6689447 27.1341717,18.6689447"/>
        <path stroke="#171717" d="M27.1341717,18.6689447 C29.3148521,18.6689447 31.3649422,20.0492784 32.4874828,22.2722 C32.8193254,22.9286453 33.6216512,23.1903242 34.2728142,22.8567061 C34.9266606,22.523088 35.1878413,21.7200665 34.8559987,21.062722 C33.2772862,17.9405602 30.3184302,16 27.1341717,16 C23.528625,16 20.4186062,18.4288476 19.0277293,21.9098062 L16.892666,21.9098062 C16.1592132,21.9098062 15.5644009,22.5087001 15.5644009,23.2451778 C15.5644009,23.9807563 16.1583188,24.578751 16.892666,24.578751 L18.3398936,24.578751 C18.2808596,25.0436581 18.2486593,25.5175577 18.2486593,26.0004496 C18.2486593,26.3421609 18.2647595,26.6802752 18.2942765,27.0138933 L16.3273707,27.0138933 C15.5948123,27.0138933 15,27.6109887 15,28.3492649 C15,29.0857425 15.5939179,29.682838 16.3273707,29.682838 L18.8738831,29.682838 C20.1797868,33.3796142 23.3890901,36 27.1341717,36 C30.3184302,36 33.2772862,34.0594398 34.8559987,30.937278 C35.1869469,30.2790342 34.9257661,29.476912 34.2728142,29.1423947 C33.6216512,28.8096758 32.8202199,29.0713547 32.4883772,29.7286992 C31.3640477,31.9516209 29.3139577,33.3310553 27.1341717,33.3310553 C24.8390011,33.3310553 22.830056,31.8625961 21.7486603,29.682838 L27.4186083,29.682838 C28.1520611,29.682838 28.745979,29.0857425 28.745979,28.3492649 C28.745979,27.6109887 28.1511666,27.0138933 27.4177138,27.0138933 L20.965118,27.0138933 C20.925762,26.6820736 20.9042951,26.3439594 20.9042951,26.0004496 C20.9042951,25.5139607 20.94544,25.0391619 21.0223631,24.578751 L27.9821147,24.578751 C28.716462,24.578751 29.3121688,23.9807563 29.3121688,23.2451778 C29.3121688,22.5087001 28.7173564,21.9098062 27.9830092,21.9098062 L21.9669072,21.9098062 C23.0867644,19.9566566 24.9847972,18.6689447 27.1341717,18.6689447 Z"/>
        <path fill="#FFF" d="M40.432716,222.16842 C40.432716,222.16842 35.6080757,203.220018 36.0256186,199.523504 C36.4431614,195.827904 41.9672983,186.192488 44.7132037,182 L52,204.327968 L46.8242645,224.687567 C46.8242645,224.687567 42.4890023,226.307931 40.432716,222.16842"/>
        <path stroke="#171717" d="M40.432716,222.16842 C40.432716,222.16842 35.6080757,203.220018 36.0256186,199.523504 C36.4431614,195.827904 41.9672983,186.192488 44.7132037,182 L52,204.327968 L46.8242645,224.687567 C46.8242645,224.687567 42.4890023,226.307931 40.432716,222.16842 Z"/>
        <path fill="#0A0A0A" d="M72.5266685,145.967162 L93.7495255,201.25621 C94.4556752,203.094802 93.6170654,205.433661 91.8832076,206.454388 L62.9064074,223.522184 C61.1743767,224.54291 59.1792528,223.873747 58.4731031,222.034236 L37.2502462,166.745189 C36.5440965,164.906596 37.3845334,162.564983 39.1156505,161.545175 L68.0924508,144.477379 C69.8263085,143.456652 71.8214324,144.127651 72.5266685,145.967162"/>
        <path fill="#FFF" d="M84.8581912,184.365912 L71.0014957,148.888887 C70.676034,148.055642 69.7654829,147.755307 68.9680553,148.215881 L40.9718558,164.422046 C40.1762827,164.883536 39.7905503,165.933791 40.1150848,166.767037 L53.9717802,202.244061 L58.9983558,215.113582 C59.3238176,215.944996 60.2352959,216.244415 61.0327235,215.783841 L89.0298502,199.57676 C89.8244961,199.116186 90.2093013,198.066847 89.8847668,197.235432 L84.8581912,184.365912 Z"/>
        <path fill="#0A0A0A" d="M59.7388858,150.32916 C60.7427755,152.945186 58.7636529,156.71129 55.3176512,158.741477 C51.872545,160.770764 48.2644523,160.295614 47.259667,157.679589 C47.0563815,157.146845 46.9757838,156.566405 47.0062318,155.961669 L58.824549,149 C59.2221646,149.352763 59.5347048,149.796416 59.7388858,150.32916"/>
        <path fill="#FFF" d="M138.431094,112.756484 C132.791789,123.782385 144.728743,152.430362 158.336078,163.156522 C166.299392,169.433584 177.801538,161.727904 177.801538,161.727904 L180.856515,177 L210,167.011667 L201.563207,146.176356 L170.718216,94 C170.718216,94 147.928971,94.185379 138.431094,112.756484"/>
        <path stroke="#171717" d="M138.431094,112.756484 C132.791789,123.782385 144.728743,152.430362 158.336078,163.156522 C166.299392,169.433584 177.801538,161.727904 177.801538,161.727904 L180.856515,177 L210,167.011667 L201.563207,146.176356 L170.718216,94 C170.718216,94 147.928971,94.185379 138.431094,112.756484 Z"/>
        <path fill="#0A0A0A" d="M176.15402,139.430242 C176.15402,139.430242 181.723552,131.52424 179.411423,125.656084 C177.098357,119.789752 171.300236,122.592017 171.538194,127.907383 C171.776152,133.223661 171.661857,136.4428 167.788948,137.491825 C162.952027,138.802651 161.157036,122.40593 156.427852,113.445429 C151.698668,104.484017 144.494345,109.667114 139.450382,113.716351 C134.405482,117.764677 128.473392,112.476677 126.217474,107.885595 C123.962493,103.293601 123.282345,97.7830257 138.505108,92.024333 C153.728807,86.2665525 154.168187,83.3000915 165.974283,82.3733004 C177.778506,81.4465094 187.480452,84.4120583 194.527386,79 C194.527386,79 195.20285,86.4581136 191.475151,89.7785067 C191.475151,89.7785067 204.278048,100.952906 204.877628,119.463186 C205.478144,137.973465 203.767469,144.562256 201.949993,148.171815 C200.134392,151.781374 189.787897,154.777025 185.552429,151.761306 C181.316962,148.744674 178.05019,146.16772 176.15402,139.430242"/>
        <path fill="#FFF" d="M50.9948884,220.986759 C54.6786339,221.294415 57.8062584,216.199566 57.8925684,209.985295 C57.9797682,203.771025 56.9582851,203.592177 59.2975525,198.926377 C61.6368199,194.262431 61.2791229,191.214603 59.9382039,190.419518 C58.597285,189.623505 57.3515739,189.203722 53.7034201,196.47996 C50.0552663,203.755271 48.216063,203.796045 46.5770631,209.593313 C44.9389531,215.391507 46.905397,220.644817 50.9948884,220.986759"/>
        <path stroke="#171717" d="M50.9948884,220.986759 C54.6786339,221.294415 57.8062584,216.199566 57.8925684,209.985295 C57.9797682,203.771025 56.9582851,203.592177 59.2975525,198.926377 C61.6368199,194.262431 61.2791229,191.214603 59.9382039,190.419518 C58.597285,189.623505 57.3515739,189.203722 53.7034201,196.47996 C50.0552663,203.755271 48.216063,203.796045 46.5770631,209.593313 C44.9389531,215.391507 46.905397,220.644817 50.9948884,220.986759 Z"/>
        <path fill="#FFF" d="M127.091419,174.255819 C127.091419,174.255819 116.810512,169.078158 110.707057,169.001091 C104.601763,168.924024 92.1567447,172.957196 92.1567447,172.957196 C92.1567447,172.957196 79.1159987,173.488693 74.7464065,175.529639 C71.4910465,177.049719 72.8544181,179.163304 78.2711312,178.591945 C83.686925,178.018814 94.3631452,179.01537 94.3631452,179.01537 L103.6668,181.530235 C102.451441,182.442637 100.956605,183.482598 98.8871854,184.709469 C91.2125892,189.260851 91.771544,190.598451 92.7506342,192.013117 C93.7306437,193.42867 97.0972431,193.594319 102.018435,190.675518 C106.938708,187.756716 107.218186,188.865772 114.017577,188.307701 C118.694226,187.924137 122.67494,185.998348 124.498898,183.524232 C129.398946,180.660352 130.353214,175.744895 127.091419,174.255819"/>
        <path stroke="#171717" d="M127.091419,174.255819 C127.091419,174.255819 116.810512,169.078158 110.707057,169.001091 C104.601763,168.924024 92.1567447,172.957196 92.1567447,172.957196 C92.1567447,172.957196 79.1159987,173.488693 74.7464065,175.529639 C71.4910465,177.049719 72.8544181,179.163304 78.2711312,178.591945 C83.686925,178.018814 94.3631452,179.01537 94.3631452,179.01537 L103.6668,181.530235 C102.451441,182.442637 100.956605,183.482598 98.8871854,184.709469 C91.2125892,189.260851 91.771544,190.598451 92.7506342,192.013117 C93.7306437,193.42867 97.0972431,193.594319 102.018435,190.675518 C106.938708,187.756716 107.218186,188.865772 114.017577,188.307701 C118.694226,187.924137 122.67494,185.998348 124.498898,183.524232 C129.398946,180.660352 130.353214,175.744895 127.091419,174.255819 Z"/>
        <path fill="#0A0A0A" d="M233.390854,227.797337 C217.62523,200.736848 160.258683,175.970977 130.87489,166 C130.87489,166 109.038717,170.193454 113.635904,194.962118 C113.635904,194.962118 180.624275,228.049708 193.661073,257.494217 C199.639826,270.993731 247.566285,252.129241 233.390854,227.797337"/>
        <path fill="#FF598B" d="M161.726564,348 C159.199093,305.575972 143.84142,260.285929 133,232.94352 L139.929682,207 C139.929682,207 162.243926,223.936045 168.780487,269.817181 C173.549858,303.283529 162.869766,313.025029 161.726564,348"/>
        <path fill="#FF6592" d="M59.494,214.4815 L59.506,214.4945 L59.506,214.5185 C59.494,214.4945 59.494,214.4815 59.494,214.4815"/>
        <path fill="#FF598B" d="M102,290.642869 C101.326596,306.459385 98.3832297,343.767472 85.650533,326.566482 C69.6784682,304.994824 69.3704415,287.633662 67.7267072,256.694709 C66.6546262,236.394301 63.8139352,224.665851 62,219 C67.0542284,231.807309 83.152094,270.296434 102,290.642869"/>
        <g transform="translate(30 158)">
          <mask id="img2-b" fill="#fff">
            <use xlink:href="#img2-a"/>
          </mask>
          <path fill="#0A0A0A" d="M225.093037,12.4092845 C223.393456,10.8063174 221.287232,9.47112488 218.8483,8.38346291 C218.862163,8.38806385 218.877874,8.39082441 218.891737,8.39542535 C218.828892,8.36597934 218.75773,8.34389484 218.693037,8.31536901 C218.077528,8.0448338 217.446308,7.78626103 216.788286,7.54701221 C208.843968,4.56376338 198.298986,3.8386554 186.474929,5.0974723 L181.95103,0.190110798 C161.527405,-0.671184977 139.30069,12.3549934 139.30069,12.3549934 L134.122466,20.7848338 C121.054452,27.1157258 108.570524,35.1296413 98.0708274,44.5560451 C97.2436794,45.2931155 96.4266975,46.0384676 95.6272751,46.7930216 C95.4174845,46.9927023 95.2113906,47.1951437 95.0025242,47.3948244 C93.9960838,48.3591812 93.0053545,49.3355005 92.0441993,50.3283831 C92.0441993,50.3283831 92.0562137,50.3550685 92.0589863,50.3605897 C80.257109,59.4354817 66.8822643,90.2856977 57.8649646,113.950167 C45.7433184,94.3602892 36.2639249,71.5488338 32.5985964,62.2567775 C32.5865819,62.2337728 32.5754917,62.2116883 32.5754917,62.1896038 C31.6633184,59.8514066 31.1161993,58.3873878 31.0025242,58.0570404 C30.9914339,58.0469183 30.9914339,58.0349559 30.9803437,58.0229934 L30.9803437,58.0009089 L30.9683292,57.9898667 C7.01892852,50.8400075 0.556083755,71.9380732 0.556083755,71.9380732 C7.25459639,101.975763 25.5673762,161.146599 50.5675783,179.590843 C50.580517,179.601885 50.5925314,179.613848 50.6045458,179.62581 C60.6282859,188.511144 72.1639971,183.647951 88.316026,166.367745 C101.101239,152.688233 112.613845,135.22951 117.613701,118.629322 C124.319607,141.079144 127.096791,187.401397 131.564315,191.222937 C136.032762,195.045397 144.977051,195.583707 148.433513,195.623275 C151.926943,195.662843 206.530726,199.834054 234.078914,179.416928 C237.953109,176.546862 243.635939,172.610299 247.48056,165.981266 C251.324257,159.352233 273.584243,58.1941484 225.093037,12.4092845" mask="url(#img2-b)"/>
        </g>
        <path stroke="#FFF" stroke-linecap="round" d="M166 178C166 178 200.255411 164.268771 218 163M147 276C147 276 154.600013 258.194325 151.060172 236M89 272C89 272 82.0214106 283.705625 80 295"/>
      </g>
    </g>
    <g fill="#D8D8D8" opacity="0" transform="translate(-12 803)">
      <rect width="1799" height="200" x="15" y="1234"/>
      <rect width="1799" height="50" y="818"/>
    </g>
  </g>
</svg>
