<svg xmlns="http://www.w3.org/2000/svg" xmlns:xlink="http://www.w3.org/1999/xlink" width="810" height="396" viewBox="0 0 810 396">
  <defs>
    <polygon id="404-a" points="0 .25 16.907 .25 16.907 24.769 0 24.769"/>
  </defs>
  <g fill="none" fill-rule="evenodd" transform="translate(-490 -414)">
    <rect width="1802" height="1546" fill="#FFF"/>
    <g transform="translate(480 347)">
      <path fill="#0049F8" fill-rule="nonzero" d="M165.332031,371 L165.332031,293.460938 L214.550781,293.460938 L214.550781,282.914062 L165.332031,282.914062 L165.332031,86.625 L152.636719,86.625 L16.8945312,287.601562 L16.8945312,293.460938 L154.785156,293.460938 L154.785156,371 L165.332031,371 Z M154.785156,282.914062 L33.3007812,282.914062 L138.378906,126.273438 L154.785156,99.3203125 L154.785156,282.914062 Z M425.292969,374.90625 C452.115885,374.90625 472.949219,364.457031 487.792969,343.558594 C502.636719,322.660156 510.058594,293.135417 510.058594,254.984375 L510.058594,254.984375 L510.058594,203.421875 C510.058594,165.140625 502.604167,135.420573 487.695312,114.261719 C472.786458,93.1028646 451.855469,82.5234375 424.902344,82.5234375 C398.079427,82.5234375 377.213542,93.1028646 362.304688,114.261719 C347.395833,135.420573 339.941406,164.880208 339.941406,202.640625 L339.941406,202.640625 L339.941406,254.203125 C339.941406,292.484375 347.49349,322.171875 362.597656,343.265625 C377.701823,364.359375 398.60026,374.90625 425.292969,374.90625 Z M425.292969,364.359375 C401.72526,364.359375 383.365885,354.658854 370.214844,335.257812 C357.063802,315.856771 350.488281,288.96875 350.488281,254.59375 L350.488281,254.59375 L350.488281,203.617188 C350.488281,168.591146 356.901042,141.410156 369.726562,122.074219 C382.552083,102.738281 400.94401,93.0703125 424.902344,93.0703125 C448.730469,93.0703125 467.122396,102.705729 480.078125,121.976562 C493.033854,141.247396 499.511719,168.135417 499.511719,202.640625 L499.511719,202.640625 L499.511719,253.617188 C499.511719,288.643229 493.066406,315.856771 480.175781,335.257812 C467.285156,354.658854 448.990885,364.359375 425.292969,364.359375 Z M764.628906,371 L764.628906,293.460938 L813.847656,293.460938 L813.847656,282.914062 L764.628906,282.914062 L764.628906,86.625 L751.933594,86.625 L616.191406,287.601562 L616.191406,293.460938 L754.082031,293.460938 L754.082031,371 L764.628906,371 Z M754.082031,282.914062 L632.597656,282.914062 L737.675781,126.273438 L754.082031,99.3203125 L754.082031,282.914062 Z" opacity=".456"/>
      <g transform="matrix(-1 0 0 1 564.5 101)">
        <path fill="#FFF" d="M280.248716,192.642761 L97.0752462,144.177426 C90.9589295,142.559606 85.7256636,135.978951 85.6908545,129.863135 L85,7.56686745 C84.9708568,2.37343683 88.7430586,-0.76923582 93.8865539,0.163175468 L276.973917,33.3690484 C283.375118,34.5293217 289.186398,41.4134884 289.223039,47.876566 L290,185.432296 C290.030975,190.957494 285.775111,194.104723 280.248716,192.642761"/>
        <path stroke="#171717" d="M280.248716,192.642761 L97.0752462,144.177426 C90.9589295,142.559606 85.7256636,135.978951 85.6908545,129.863135 L85,7.56686745 C84.9708568,2.37343683 88.7430586,-0.76923582 93.8865539,0.163175468 L276.973917,33.3690484 C283.375118,34.5293217 289.186398,41.4134884 289.223039,47.876566 L290,185.432296 C290.030975,190.957494 285.775111,194.104723 280.248716,192.642761 Z"/>
        <path fill="#0048FB" d="M285,62 L90.0806662,23.1672032 L90,8.25746647 C89.9836154,5.32202657 92.0976761,3.56659885 95.0073709,4.09277121 L278.008676,37.3109351 C278.333704,37.372945 278.659649,37.4522812 278.984678,37.5635343 C282.235882,38.6760651 284.885553,42.2370756 284.902034,45.4980676 L285,62 Z"/>
        <path stroke="#121212" d="M285,62 L90.0806662,23.1672032 L90,8.25746647 C89.9836154,5.32202657 92.0976761,3.56659885 95.0073709,4.09277121 L278.008676,37.3109351 C278.333704,37.372945 278.659649,37.4522812 278.984678,37.5635343 C282.235882,38.6760651 284.885553,42.2370756 284.902034,45.4980676 L285,62 Z"/>
        <path fill="#DCEAF3" d="M148.546195,64.169937 C147.512956,63.8194877 146.465927,63.5262361 145.40419,63.2901822 C130.070136,59.8855584 117.355953,69.581927 117.062711,84.9054578 C116.928501,91.9997859 119.525389,99.2021541 124.379043,105.187029 C129.149045,111.069311 135.61323,115.159399 142.594954,116.710091 C157.929007,120.114715 170.643191,110.418347 170.936432,95.0957238 C171.070643,88.0004878 168.473754,80.7972117 163.619181,74.813245 C159.575389,69.8252441 154.30899,66.1237371 148.546195,64.169937 M139.400551,128.713433 C130.413018,125.664706 122.100216,119.773345 115.614889,111.776565 C107.922582,102.289013 103.799734,91.0882546 104.007485,80.2352218 C104.416553,58.7524996 122.297855,45.1712283 143.8672,49.961307 C154.639921,52.3554385 164.773763,58.839658 172.384255,68.2237091 C180.077481,77.7103528 184.19941,88.9120191 183.992578,99.7650519 L183.992578,99.7659598 C183.582591,121.247774 165.701288,134.828137 144.131944,130.038967 C142.539799,129.685794 140.959603,129.241831 139.400551,128.713433"/>
        <path fill="#0048FB" d="M140.284162,128.669243 C131.326179,125.609414 123.040708,119.693926 116.576703,111.665634 C108.908771,102.140696 104.800394,90.8967114 105.007462,80 L118.019765,84.6877279 C117.885996,91.8109231 120.474347,99.0416727 125.312043,105.050131 C130.066362,110.955593 136.509294,115.061798 143.468063,116.618601 L145,130 C143.413089,129.645435 141.838089,129.199723 140.284162,128.669243"/>
        <path stroke="#121212" d="M140.284162,128.669243 C131.326179,125.609414 123.040708,119.693926 116.576703,111.665634 C108.908771,102.140696 104.800394,90.8967114 105.007462,80 L118.019765,84.6877279 C117.885996,91.8109231 120.474347,99.0416727 125.312043,105.050131 C130.066362,110.955593 136.509294,115.061798 143.468063,116.618601 L145,130 C143.413089,129.645435 141.838089,129.199723 140.284162,128.669243 Z"/>
        <path fill="#DCEAF3" d="M210.570877 77.3377459L210.570877 64.4213782C210.570877 63.0717016 209.419147 61.603745 207.999035 61.1407106 206.579887 60.6776762 205.428158 61.3946919 205.428158 62.7443684L205.428158 75.6598193C203.402735 75.9147174 202 77.4120148 202 79.6850095L202 124.401297C202 126.674291 203.402735 129.086655 205.428158 130.662806L205.428158 143.578256C205.428158 144.927933 206.579887 146.39589 207.999035 146.858924 209.419147 147.322875 210.570877 146.604943 210.570877 145.256183L210.570877 132.339815C212.596299 132.085834 214 130.58762 214 128.316459L214 83.5983379C214 81.3262601 212.596299 78.9129798 210.570877 77.3377459M228.571842 103.020135L228.571842 68.4218373C228.571842 67.0730777 227.420113 65.6032873 226 65.1402529 224.580853 64.6781354 223.429123 65.395151 223.429123 66.7448275L223.429123 101.342208C221.403701 101.597106 220 103.09532 220 105.367398L220 132.109698C220 134.380859 221.403701 136.794139 223.429123 138.37029L223.429123 147.578715C223.429123 148.926557 224.580853 150.396348 226 150.859382 227.420113 151.322416 228.571842 150.604484 228.571842 149.255724L228.571842 140.0473C230.597265 139.792401 232 138.295104 232 136.023026L232 109.280726C232 107.008649 230.597265 104.595368 228.571842 103.020135M245.571842 88.9633807L245.571842 72.4214147C245.571842 71.0717237 244.420113 69.6037515 243 69.1407121 241.580853 68.6776728 240.429123 69.3946961 240.429123 70.744387L240.429123 87.286353C238.403701 87.540337 237 89.0385672 237 91.3106692L237 118.052338C237 120.32444 238.403701 122.737746 240.429123 124.313913L240.429123 151.57822C240.429123 152.927911 241.580853 154.395883 243 154.858923 244.420113 155.322879 245.571842 154.604939 245.571842 153.256165L245.571842 125.990941C247.597265 125.73604 249 124.238727 249 121.965708L249 95.2240394C249 92.9528543 247.597265 90.5395483 245.571842 88.9633807M263.571842 107.237867L263.571842 76.4226654C263.571842 75.0729874 262.420113 73.6041124 261 73.1401606 259.580853 72.6780426 258.429123 73.3959759 258.429123 74.744737L258.429123 105.560856C256.403701 105.815754 255 107.313053 255 109.58605L255 128.980336C255 131.251499 256.403701 133.664782 258.429123 135.240934L258.429123 155.578711C258.429123 156.927472 259.580853 158.396347 261 158.859382 262.420113 159.322417 263.571842 158.604483 263.571842 157.255722L263.571842 136.918863C265.597265 136.663964 267 135.165748 267 132.893668L267 113.499383C267 111.227303 265.597265 108.81402 263.571842 107.237867"/>
        <path fill="#0048FB" d="M208.499507,127.809177 C206.566944,127.182139 205,125.191085 205,123.364011 L205,83.3631028 C205,81.5360285 206.566944,80.563328 208.499507,81.1903658 C210.432071,81.8183352 212,83.8075262 212,85.6355322 L212,125.63644 C212,127.464446 210.432071,128.437147 208.499507,127.809177"/>
        <path stroke="#121212" d="M208.499507,127.809177 C206.566944,127.182139 205,125.191085 205,123.364011 L205,83.3631028 C205,81.5360285 206.566944,80.563328 208.499507,81.1903658 C210.432071,81.8183352 212,83.8075262 212,85.6355322 L212,125.63644 C212,127.464446 210.432071,128.437147 208.499507,127.809177 Z"/>
        <path fill="#0048FB" d="M225.500493,134.814046 C223.567929,134.203031 222,132.262857 222,130.482473 L222,109.303069 C222,107.522684 223.567929,106.573933 225.500493,107.185855 C227.433056,107.797777 229,109.737043 229,111.518336 L229,132.697739 C229,134.478124 227.433056,135.425968 225.500493,134.814046"/>
        <path stroke="#121212" d="M225.500493,134.814046 C223.567929,134.203031 222,132.262857 222,130.482473 L222,109.303069 C222,107.522684 223.567929,106.573933 225.500493,107.185855 C227.433056,107.797777 229,109.737043 229,111.518336 L229,132.697739 C229,134.478124 227.433056,135.425968 225.500493,134.814046 Z"/>
        <path fill="#0048FB" d="M243.500493,112.811459 C241.567929,112.189508 240,110.217537 240,108.408898 L240,95.3396316 C240,93.5300693 241.567929,92.5676147 243.500493,93.1886424 C245.433056,93.8096702 247,95.781641 247,97.5912033 L247,110.659547 C247,112.469109 245.433056,113.432487 243.500493,112.811459"/>
        <path stroke="#121212" d="M243.500493,112.811459 C241.567929,112.189508 240,110.217537 240,108.408898 L240,95.3396316 C240,93.5300693 241.567929,92.5676147 243.500493,93.1886424 C245.433056,93.8096702 247,95.781641 247,97.5912033 L247,110.659547 C247,112.469109 245.433056,113.432487 243.500493,112.811459 Z"/>
        <path fill="#0048FB" d="M260.500493,130.812034 C258.567929,130.191983 257,128.226033 257,126.422915 L257,112.333759 C257,110.528801 258.567929,109.568365 260.500493,110.188417 C262.433056,110.807549 264,112.773499 264,114.577536 L264,128.666692 C264,130.47073 262.433056,131.431166 260.500493,130.812034"/>
        <path stroke="#121212" d="M260.500493,130.812034 C258.567929,130.191983 257,128.226033 257,126.422915 L257,112.333759 C257,110.528801 258.567929,109.568365 260.500493,110.188417 C262.433056,110.807549 264,112.773499 264,114.577536 L264,128.666692 C264,130.47073 262.433056,131.431166 260.500493,130.812034 Z"/>
        <path fill="#FFF" d="M261.792079 40.7489952C261.410127 40.6091369 261.072006 40.1866883 261.010285 39.746039 260.940514 39.256535 261.233016 38.9289218 261.665954 39.01322L278.079137 42.2136752C278.520126 42.302763 278.921756 42.7644869 278.989738 43.2530329 279.059509 43.7425368 278.766113 44.071108 278.33407 43.9868098L261.920887 40.7853966C261.877056 40.7767752 261.83412 40.76528 261.792079 40.7489952M261.792059 44.7494887C261.410117 44.6096105 261.072004 44.1871015 261.010285 43.7463892 260.940516 43.2568154 261.23301 42.9281973 261.665938 43.0134655L278.078725 46.21342C278.519703 46.3006044 278.921324 46.7633523 278.989304 47.2529262 279.060862 47.7425 278.765685 48.0711181 278.333651 47.9868079L261.920864 44.7858954C261.877035 44.7772728 261.8341 44.7648179 261.792059 44.7494887M261.792079 48.7496089C261.410127 48.6097758 261.072006 48.1874031 261.010285 47.7468329 260.940514 47.2574169 261.233016 46.9289048 261.665954 47.0131878L278.079137 50.2130681C278.520126 50.2983088 278.921756 50.7647385 278.989738 51.252239 279.059509 51.741655 278.766113 52.0711248 278.33407 51.9868418L261.920887 48.7860038C261.877056 48.777384 261.83412 48.7649331 261.792079 48.7496089M261.792079 52.7488915C261.410127 52.6090392 261.072006 52.1866087 261.010285 51.7459783 260.940514 51.2574533 261.233016 50.9288962 261.665954 51.0131907L278.079137 54.2135087C278.520126 54.2958874 278.921756 54.7642967 278.989738 55.2528217 279.059509 55.7423047 278.766113 56.0718196 278.33407 55.9865672L261.920887 52.7852914C261.877056 52.7766703 261.83412 52.7651756 261.792079 52.7488915M93.2958958 110.35436C93.1984864 110.389707 93.1056717 110.426867 93.0119381 110.464026L94.9592076 107.847461C94.9592076 107.847461 97.4367151 103.308578 97.8952746 101.079015 98.353834 98.8494521 97.1821641 100.052147 96.7769042 101.079015 96.3716442 102.105883 94.6329779 105.077728 94.6329779 105.077728L93.0275604 107.235691 93.0238846 107.233878C93.4355772 106.465313 95.4701476 102.611613 95.8818402 100.609538 96.3403997 98.3799749 95.1687297 99.5826702 94.7634698 100.609538 94.3582098 101.637312 92.6186246 104.609157 92.6186246 104.609157L91.1574833 106.57226C91.7934014 105.366846 93.4796871 102.061473 93.8500267 100.260602 94.3085862 98.0310393 93.1369163 99.2328282 92.7316563 100.260602 92.3263964 101.28747 90.5877301 104.259315 90.5877301 104.259315L89.2616754 106.040246 89.164266 106.009431C89.824077 104.666255 90.6244884 102.892574 90.8551465 101.76873 91.2668392 99.7648418 90.2146336 100.846089 89.8498078 101.76873 89.4859009 102.692276 87.9227554 105.362314 87.9227554 105.362314L87.8014531 105.577114C87.8014531 105.57802 84.8001401 109.690023 84.4803432 113.647044 80.846788 117.010422 61.9043314 134.464457 57.0651049 137.403674 55.5056352 138.349879 52.5282151 139.452878 49.0949925 140.542283 40.7269719 143.194194 29.6333253 145.760004 29.6333253 145.760004 20.5953852 147.826429 18.0370094 160.895656 30.5614717 159.951264 43.0868529 159.006872 54.4561865 153.16016 63.6880265 147.648789 63.9940392 147.466617 64.3092413 147.257256 64.6317952 147.027955 74.0161821 140.361924 89.7193159 114.958499 89.7193159 114.958499L89.6779628 114.942185 91.4313324 112.586643C91.4717665 112.59208 91.504849 112.599331 91.5489589 112.602956 91.5489589 112.602956 97.54699 111.098454 97.8824092 110.35436 98.2178284 109.60936 95.7541052 109.444409 93.2958958 110.35436"/>
        <path stroke="#171717" d="M93.2958958,110.35436 C93.1984864,110.389707 93.1056717,110.426867 93.0119381,110.464026 L94.9592076,107.847461 C94.9592076,107.847461 97.4367151,103.308578 97.8952746,101.079015 C98.353834,98.8494521 97.1821641,100.052147 96.7769042,101.079015 C96.3716442,102.105883 94.6329779,105.077728 94.6329779,105.077728 L93.0275604,107.235691 L93.0238846,107.233878 C93.4355772,106.465313 95.4701476,102.611613 95.8818402,100.609538 C96.3403997,98.3799749 95.1687297,99.5826702 94.7634698,100.609538 C94.3582098,101.637312 92.6186246,104.609157 92.6186246,104.609157 L91.1574833,106.57226 C91.7934014,105.366846 93.4796871,102.061473 93.8500267,100.260602 C94.3085862,98.0310393 93.1369163,99.2328282 92.7316563,100.260602 C92.3263964,101.28747 90.5877301,104.259315 90.5877301,104.259315 L89.2616754,106.040246 L89.164266,106.009431 C89.824077,104.666255 90.6244884,102.892574 90.8551465,101.76873 C91.2668392,99.7648418 90.2146336,100.846089 89.8498078,101.76873 C89.4859009,102.692276 87.9227554,105.362314 87.9227554,105.362314 L87.8014531,105.577114 C87.8014531,105.57802 84.8001401,109.690023 84.4803432,113.647044 C80.846788,117.010422 61.9043314,134.464457 57.0651049,137.403674 C55.5056352,138.349879 52.5282151,139.452878 49.0949925,140.542283 C40.7269719,143.194194 29.6333253,145.760004 29.6333253,145.760004 C20.5953852,147.826429 18.0370094,160.895656 30.5614717,159.951264 C43.0868529,159.006872 54.4561865,153.16016 63.6880265,147.648789 C63.9940392,147.466617 64.3092413,147.257256 64.6317952,147.027955 C74.0161821,140.361924 89.7193159,114.958499 89.7193159,114.958499 L89.6779628,114.942185 L91.4313324,112.586643 C91.4717665,112.59208 91.504849,112.599331 91.5489589,112.602956 C91.5489589,112.602956 97.54699,111.098454 97.8824092,110.35436 C98.2178284,109.60936 95.7541052,109.444409 93.2958958,110.35436 Z"/>
        <path fill="#0A0A0A" d="M43.6071847,117.422465 C42.9332692,114.547696 40.5375315,110.754965 36.2837254,115.857384 C36.2837254,115.857384 39.0342518,110.937648 27.594147,110.062403 C17.290646,109.275318 11.2775272,116.055518 10.8733608,123.526463 C10.8733608,123.526463 10.7846637,131.214628 8.18775712,133.79674 C5.58993619,136.377033 2.41604092,141.254051 8.47579429,144.695957 C14.5364621,148.137863 20.3081783,146.70366 20.3081783,146.70366 L39.6423302,130.641129 C39.6423302,130.641129 45.5521214,125.71594 43.6071847,117.422465"/>
        <g transform="translate(1 264)">
          <path fill="#FFF" d="M6.69994674,0.81737472 C6.69994674,0.81737472 3.41157904,11.3787117 3.25858935,18.4902922 C3.11015292,25.377922 5.40226632,61.8224871 0.745187285,68.8079239 C1.06755842,69.045586 1.35259278,69.2850762 1.58207732,69.4788622 C5.29480928,75.5401592 5.56436254,88.4479521 13.284878,88.4415559 C11.1102388,83.9634516 8.2016134,77.3125698 9.69508419,72.2211169 C12.0709777,64.125981 23.3767337,14.5332187 24.2026959,1.13913261"/>
          <path stroke="#171717" d="M6.69994674,0.81737472 C6.69994674,0.81737472 3.41157904,11.3787117 3.25858935,18.4902922 C3.11015292,25.377922 5.40226632,61.8224871 0.745187285,68.8079239 C1.06755842,69.045586 1.35259278,69.2850762 1.58207732,69.4788622 C5.29480928,75.5401592 5.56436254,88.4479521 13.284878,88.4415559 C11.1102388,83.9634516 8.2016134,77.3125698 9.69508419,72.2211169 C12.0709777,64.125981 23.3767337,14.5332187 24.2026959,1.13913261"/>
        </g>
        <g transform="translate(0 333)">
          <mask id="404-b" fill="#fff">
            <use xlink:href="#404-a"/>
          </mask>
          <path fill="#190937" d="M3.34946628,0.915750457 C3.12450146,0.723438326 2.84396763,0.484862426 2.52668657,0.249915058 C2.37700878,0.475791099 2.2201608,0.670824629 2.05614262,0.833201382 C-3.14762533,5.95759398 2.96227583,9.12530136 4.67326326,10.5494997 C6.38425069,11.9727909 5.86441166,18.1929998 8.07372754,20.2948263 C10.2839397,22.3975598 16.0989666,25.5543816 16.8590072,24.5910067 C17.1413335,24.2326893 16.1303362,22.3585531 14.8674859,19.7342182 C7.26976959,19.7405682 7.00357615,6.93094737 3.34946628,0.915750457" mask="url(#404-b)"/>
        </g>
        <polygon fill="#190937" points="1.407 339 1 349 1.789 348.876 3 341.354"/>
        <g transform="translate(12 266)">
          <path fill="#FFF" d="M0.983662515,3.56675929 C0.983662515,3.56675929 -0.424454598,14.5750838 0.66972767,21.5979981 C1.72994623,28.3997039 10.3888567,63.8058685 6.9970753,71.5563944 C7.35782499,71.7282424 7.68277509,71.9110593 7.94346953,72.058227 C12.685538,77.3169575 15.2153755,89.9587517 22.8673079,88.4925595 C19.927152,84.4989225 15.8781268,78.5080101 16.4665252,73.2200289 C17.40374,64.8086196 19.9198085,13.899575 18.3905235,0.571303065"/>
          <path stroke="#171717" d="M0.983662515,3.56675929 C0.983662515,3.56675929 -0.424454598,14.5750838 0.66972767,21.5979981 C1.72994623,28.3997039 10.3888567,63.8058685 6.9970753,71.5563944 C7.35782499,71.7282424 7.68277509,71.9110593 7.94346953,72.058227 C12.685538,77.3169575 15.2153755,89.9587517 22.8673079,88.4925595 C19.927152,84.4989225 15.8781268,78.5080101 16.4665252,73.2200289 C17.40374,64.8086196 19.9198085,13.899575 18.3905235,0.571303065"/>
        </g>
        <path fill="#190937" d="M19.8073628,337.509237 C19.5410915,337.359898 19.20919,337.175311 18.8407231,337 C18.7272765,337.256937 18.6016414,337.484193 18.4619428,337.678983 C14.0328388,343.846408 20.8902618,345.838832 22.9069855,346.938005 C24.9237092,348.037177 25.5106311,354.391972 28.1630306,356.075515 C30.8154301,357.75813 37.3672037,359.797861 37.9756898,358.680137 C38.2016454,358.265512 36.8234102,356.578259 35.050456,354.186979 C27.2348314,355.673877 24.6508749,342.845558 19.8073628,337.509237"/>
        <polygon fill="#190937" points="19 344 19.887 353 20.708 352.699 21 345.707"/>
        <path fill="#FFF" d="M40.2140037,127.220837 C38.5378393,119.525969 36.1664959,119 36.1664959,119 C31.6841474,123.101996 35.4835791,124.81467 31.3851355,129.992937 C28.4091656,133.752398 23.3080417,133.944254 22.6788906,131.241411 C22.0506826,128.537631 18.9492597,125.273255 17.6919006,129.646658 C16.7609078,132.883894 19.7076369,134.364468 21.3036246,134.916642 L14,146.173499 C14,146.173499 27.9233892,153.591345 26.6330161,150.034971 C25.7746539,147.670919 27.7262488,144.162276 28.9373884,142.314834 C34.6789825,144.420581 38.0879066,143.300324 39.3839391,141.43042 C40.5365969,139.766412 41.8901681,134.91477 40.2140037,127.220837"/>
        <path stroke="#171717" d="M40.2140037,127.220837 C38.5378393,119.525969 36.1664959,119 36.1664959,119 C31.6841474,123.101996 35.4835791,124.81467 31.3851355,129.992937 C28.4091656,133.752398 23.3080417,133.944254 22.6788906,131.241411 C22.0506826,128.537631 18.9492597,125.273255 17.6919006,129.646658 C16.7609078,132.883894 19.7076369,134.364468 21.3036246,134.916642 L14,146.173499 C14,146.173499 27.9233892,153.591345 26.6330161,150.034971 C25.7746539,147.670919 27.7262488,144.162276 28.9373884,142.314834 C34.6789825,144.420581 38.0879066,143.300324 39.3839391,141.43042 C40.5365969,139.766412 41.8901681,134.91477 40.2140037,127.220837 Z"/>
        <path fill="#003888" d="M15.1236811,197.458305 C14.8599891,196.334153 14.4898952,195.10355 13.9837917,193.736214 C9.54636501,181.769726 3.55639417,165.511271 5.31434051,156.237243 C7.75696068,143.347574 14.9340079,142.863959 18.089059,142.093112 C21.279269,141.313088 26.8103233,145.526136 30.5788051,151.272619 C34.3472869,157.018185 43.7199166,164.520181 45.3103954,166.081147 C46.6029485,167.353045 48.4645212,172.615914 45.0846381,176.649097 C42.815962,179.347981 41.3605675,180.100475 41.7954279,185.05684 C41.9212599,186.53705 41.7223344,190.254553 41.7223344,193.736214 C41.7223344,193.736214 41.5696706,195.67618 41.3365114,199 C32.6096957,197.060952 23.5118608,195.476126 15.1236811,197.458305"/>
        <path stroke="#2F2F2F" d="M15.1236811,197.458305 C14.8599891,196.334153 14.4898952,195.10355 13.9837917,193.736214 C9.54636501,181.769726 3.55639417,165.511271 5.31434051,156.237243 C7.75696068,143.347574 14.9340079,142.863959 18.089059,142.093112 C21.279269,141.313088 26.8103233,145.526136 30.5788051,151.272619 C34.3472869,157.018185 43.7199166,164.520181 45.3103954,166.081147 C46.6029485,167.353045 48.4645212,172.615914 45.0846381,176.649097 C42.815962,179.347981 41.3605675,180.100475 41.7954279,185.05684 C41.9212599,186.53705 41.7223344,190.254553 41.7223344,193.736214 C41.7223344,193.736214 41.5696706,195.67618 41.3365114,199 C32.6096957,197.060952 23.5118608,195.476126 15.1236811,197.458305 Z"/>
        <path fill="#003888" d="M9.44659307,210.722259 C12.6658266,207.580601 17.3044577,205.649111 15.302627,196.9133 C21.8244282,195.336498 28.7828277,196.015552 35.6497409,197.333229 C38.9776711,222.165097 35.6606105,246.6386 31.0554943,271 L6.69113208,268.871869 C6.69113208,268.871869 6.98461313,240.689758 4.92752835,232.042159 C2.86953776,223.39548 4.17661541,215.86616 9.44659307,210.722259"/>
        <path stroke="#2F2F2F" d="M9.44659307,210.722259 C12.6658266,207.580601 17.3044577,205.649111 15.302627,196.9133 C21.8244282,195.336498 28.7828277,196.015552 35.6497409,197.333229 C38.9776711,222.165097 35.6606105,246.6386 31.0554943,271 L6.69113208,268.871869 C6.69113208,268.871869 6.98461313,240.689758 4.92752835,232.042159 C2.86953776,223.39548 4.17661541,215.86616 9.44659307,210.722259 Z"/>
        <path fill="#FFF" d="M74.1709411,158.97276 C74.3311152,158.749357 74.315466,158.537905 74.0641584,158.286922 C73.8459901,158.069035 73.5974441,158.065357 73.4013688,158.116841 C73.583636,157.882406 73.5753511,157.664519 73.3129969,157.403422 C73.0129005,157.102793 72.6584923,157.20668 72.4568938,157.30689 C72.6907112,157.04947 72.6999166,156.816874 72.41639,156.533713 C71.9699276,156.087826 71.3973511,156.533713 71.3973511,156.533713 L68.1018144,158.48826 L70.5375658,154.879794 L73.7815523,152.416843 C75.2498151,150.396101 73.0027746,151.571956 73.0027746,151.571956 L69.3270545,153.607407 L65.7443089,157.988131 L65.6927587,157.958712 L65.6568576,158.094777 L65.6329235,158.123277 L65.6476521,158.13247 L63.7255626,165.430307 C62.9412617,166.258645 54.4952981,175.130417 49.2730691,179.082722 C43.7848038,183.220737 40.3539476,185.111849 37.8031285,187.787171 C37.7442139,187.836816 37.6935841,187.88922 37.6374311,187.914961 C37.6282257,187.922316 37.6190203,187.929671 37.6107354,187.927832 L37.6006095,187.935187 C35.0341412,189.266413 30.9450982,167.219371 29.3930661,159.077567 C27.8051329,150.72523 23.224521,144.527861 17.3901322,146.305893 C17.1213342,146.384957 16.8580595,146.48057 16.5929437,146.593651 C16.4447366,146.653409 16.3002117,146.725119 16.1538457,146.792231 C12.3151898,148.563828 9.35565051,153.198294 12.0242988,163.534598 C14.9709505,174.949304 22.3141059,200.427377 29.2467001,202.628312 C36.1783737,204.83844 48.6424986,197.065298 57.9823074,182.693028 C58.3597292,182.111995 58.7168991,181.562221 59.0648636,181.027157 C65.3346682,171.378531 66.8425143,169.059919 67.206128,168.500951 C67.4114087,168.447628 67.6231331,168.373161 67.8440629,168.24537 C71.6238042,166.078452 72.4265159,161.728066 72.4265159,161.728066 L73.9343621,160.244228 L74.1460865,162.173033 C74.550204,162.894727 74.9322285,162.173033 74.9322285,162.173033 C74.9322285,162.173033 75.336346,159.163986 74.1709411,158.97276"/>
        <path stroke="#171717" d="M74.1709411,158.97276 C74.3311152,158.749357 74.315466,158.537905 74.0641584,158.286922 C73.8459901,158.069035 73.5974441,158.065357 73.4013688,158.116841 C73.583636,157.882406 73.5753511,157.664519 73.3129969,157.403422 C73.0129005,157.102793 72.6584923,157.20668 72.4568938,157.30689 C72.6907112,157.04947 72.6999166,156.816874 72.41639,156.533713 C71.9699276,156.087826 71.3973511,156.533713 71.3973511,156.533713 L68.1018144,158.48826 L70.5375658,154.879794 L73.7815523,152.416843 C75.2498151,150.396101 73.0027746,151.571956 73.0027746,151.571956 L69.3270545,153.607407 L65.7443089,157.988131 L65.6927587,157.958712 L65.6568576,158.094777 L65.6329235,158.123277 L65.6476521,158.13247 L63.7255626,165.430307 C62.9412617,166.258645 54.4952981,175.130417 49.2730691,179.082722 C43.7848038,183.220737 40.3539476,185.111849 37.8031285,187.787171 C37.7442139,187.836816 37.6935841,187.88922 37.6374311,187.914961 C37.6282257,187.922316 37.6190203,187.929671 37.6107354,187.927832 L37.6006095,187.935187 C35.0341412,189.266413 30.9450982,167.219371 29.3930661,159.077567 C27.8051329,150.72523 23.224521,144.527861 17.3901322,146.305893 C17.1213342,146.384957 16.8580595,146.48057 16.5929437,146.593651 C16.4447366,146.653409 16.3002117,146.725119 16.1538457,146.792231 C12.3151898,148.563828 9.35565051,153.198294 12.0242988,163.534598 C14.9709505,174.949304 22.3141059,200.427377 29.2467001,202.628312 C36.1783737,204.83844 48.6424986,197.065298 57.9823074,182.693028 C58.3597292,182.111995 58.7168991,181.562221 59.0648636,181.027157 C65.3346682,171.378531 66.8425143,169.059919 67.206128,168.500951 C67.4114087,168.447628 67.6231331,168.373161 67.8440629,168.24537 C71.6238042,166.078452 72.4265159,161.728066 72.4265159,161.728066 L73.9343621,160.244228 L74.1460865,162.173033 C74.550204,162.894727 74.9322285,162.173033 74.9322285,162.173033 C74.9322285,162.173033 75.336346,159.163986 74.1709411,158.97276 Z"/>
      </g>
    </g>
    <rect width="1384" height="120" x="219" y="295" fill="#0049F8" opacity="0"/>
    <rect width="1384" height="60" x="219" y="806" fill="#0049F8" opacity="0"/>
  </g>
</svg>
