<svg xmlns="http://www.w3.org/2000/svg" xmlns:xlink="http://www.w3.org/1999/xlink" width="475" height="347" viewBox="0 0 475 347">
  <defs>
    <polygon id="img1-a" points=".682 .57 208.781 .57 208.781 252.955 .682 252.955"/>
  </defs>
  <g fill="none" fill-rule="evenodd" transform="translate(-365 -1667)">
    <rect width="1803" height="6217" fill="#FFF"/>
    <g transform="translate(359 1651)">
      <path fill="#F8F8F8" d="M225.02195,84.8545584 C170.686548,105.761877 127.064579,38.8241629 46.1130558,117.256929 C-47.3814316,207.843459 45.380406,363.349743 216.990015,357.858383 C326.577678,354.353615 436.133943,308.588796 470.589416,192.611522 C505.044889,76.6321563 412.255839,2.04919771 338.390086,14.315884 C263.730979,26.7122217 275.078677,65.592975 225.02195,84.8545584" transform="scale(-1 1) rotate(3 0 -9113.39)"/>
      <g transform="translate(44 105)">
        <g transform="translate(143)">
          <mask id="img1-b" fill="#fff">
            <use xlink:href="#img1-a"/>
          </mask>
          <path fill="#0A0A0A" d="M204.417813,80.7079569 L204.427438,80.7189549 C211.309313,93.6553899 209.294938,108.204411 203.522688,118.455952 C195.161313,133.323916 184.874938,132.026148 184.098063,144.170725 C183.317063,156.335923 205.432563,172.911332 188.843188,188.993204 C172.233188,205.069577 154.561688,194.661314 147.626188,206.335725 C147.385563,206.760524 147.139438,207.174325 146.926313,207.612872 C146.916688,207.619745 146.915313,207.640367 146.915313,207.640367 C144.411438,212.64997 143.897188,218.469304 142.442438,224.505849 C140.557313,232.429931 137.067563,240.737569 125.353938,248.038887 C122.814313,249.622604 120.309063,250.791145 117.851938,251.583003 C99.6235625,257.515066 84.2923125,243.117268 80.2580625,229.3876 C75.6724375,213.82401 3.2388125,168.989159 3.2388125,168.989159 C3.2388125,168.989159 25.4491875,158.582271 17.0094375,140.391526 C9.7838125,124.827936 -1.5970625,118.344597 1.0828125,102.563796 C1.5324375,99.91327 2.3904375,97.0029159 3.7255625,93.7392499 C6.4494375,87.0620698 10.0684375,83.0794075 14.0284375,80.321651 C21.1743125,75.314797 29.4339375,74.2727335 35.5705625,68.4382776 C49.0029375,55.6668132 41.2493125,46.626431 41.2493125,46.626431 C41.2493125,46.626431 36.0765625,45.6902235 31.2296875,37.5654275 C25.3969375,27.8142975 30.1998125,19.4681661 36.4794375,15.3576517 C37.5285625,14.6647757 38.6354375,14.0860042 39.7340625,13.6529567 C47.3584375,10.6298727 52.5270625,15.9432969 57.4578125,12.7896112 C60.0840625,11.1151609 63.8405625,5.9914528 69.7764375,2.94224847 C74.9505625,0.261478207 81.7994375,-0.836950224 91.0091875,3.38904351 C94.7698125,5.11710927 97.3438125,6.8877924 99.1464375,8.62823094 C99.1725625,8.66122503 99.2014375,8.67359782 99.2275625,8.70521716 C100.870688,10.2916833 101.842813,11.8589028 102.434063,13.32714 C102.442313,13.3381381 102.449188,13.3683827 102.456063,13.3972525 C104.621688,18.6364399 102.128813,22.5022481 108.743938,21.6801452 C117.121813,20.6325827 130.673813,21.7213879 137.345313,36.3185256 C139.999063,42.1158632 139.886313,46.4229674 139.462813,49.9560851 C139.048938,53.4795796 138.340813,56.2510836 139.785938,59.0102148 L139.794188,59.0212129 C140.533938,60.4743278 141.880063,61.9136952 144.144688,63.457544 C155.126813,70.9554522 166.205188,49.8598523 189.291438,64.7965543 C190.875438,65.8303693 192.339813,66.8903047 193.712063,67.9901078 L193.720313,68.0011059 C198.530063,71.8696636 202.022563,76.1891406 204.417813,80.7079569" mask="url(#img1-b)"/>
        </g>
        <path fill="#FFF" d="M259,90.5289205 C259,90.5289205 248.216831,99.9028378 231.40607,99.9973993 C214.604967,100.101554 211,97.0426967 211,97.0426967 C211,97.0426967 216.714417,93.8783143 219.261209,86.6491603 C220.152449,84.1288922 220.653254,81.1125191 220.386986,77.5479637 C220.315245,76.547531 220.341458,75.5375051 220.464245,74.5357019 C221.985974,61.7246816 237.992412,49 237.992412,49 C237.992412,49 237.871005,67.4107025 244.424235,76.2487716 C250.985744,85.0772475 259,90.5289205 259,90.5289205"/>
        <path stroke="#171717" d="M259,90.5289205 C259,90.5289205 248.216831,99.9028378 231.40607,99.9973993 C214.604967,100.101554 211,97.0426967 211,97.0426967 C211,97.0426967 216.714417,93.8783143 219.261209,86.6491603 C220.152449,84.1288922 220.653254,81.1125191 220.386986,77.5479637 C220.315245,76.547531 220.341458,75.5375051 220.464245,74.5357019 C221.985974,61.7246816 237.992412,49 237.992412,49 C237.992412,49 237.871005,67.4107025 244.424235,76.2487716 C250.985744,85.0772475 259,90.5289205 259,90.5289205 Z"/>
        <path fill="#FFF" d="M205.266293,95.8071071 C205.251246,95.0061645 204.823104,94.2600809 204.124124,93.8760673 C201.869881,92.636252 196.656942,90.4679466 191.900871,93.6689743 C191.776396,93.7553773 191.65192,93.837666 191.52334,93.9432697 C190.638331,94.6111791 189.723228,95.5684701 188.806758,96.8096569 C183.318878,104.196433 177.296163,122.036607 171.340473,154.684621 C171.315852,154.828626 171.280287,154.98086 171.228308,155.112521 L169.235327,160.092355 C168.898832,160.915241 168.131459,161.469318 167.234139,161.494005 C163.371284,161.618809 152.101434,162.175629 137.149288,164.689546 C129.776488,165.923876 123.101301,165.796328 117.718747,165.179164 C117.699597,165.177792 117.680447,165.175049 117.680447,165.175049 C112.258225,164.574342 108.161465,163.475789 105.994765,162.803765 C105.669213,162.703647 105.346397,162.705019 105.03042,162.750278 L105.041362,162.72422 L95.1831502,164.885668 L87.7720507,170.592384 C87.7720507,170.592384 86.3275839,172.867664 90.0167192,171.350811 C92.8331559,170.193284 96.8615221,167.581992 96.8615221,167.581992 L101.844659,166.653502 L101.71608,166.890767 L94.263944,169.268908 L86.2988587,175.402154 C86.2988587,175.402154 84.7476983,177.844755 88.7131427,176.21544 C91.737495,174.972882 96.0681597,172.165468 96.0681597,172.165468 L100.052754,170.91331 C100.073272,171.044971 100.133458,171.168404 100.17723,171.295952 L97.2130637,172.240899 L89.2493463,178.374145 C89.2493463,178.374145 87.696818,180.816746 91.6622624,179.187431 C94.6866147,177.944873 99.0172794,175.138831 99.0172794,175.138831 L102.63255,174.003248 C102.896548,174.251485 103.16465,174.505208 103.450534,174.774018 L102.457463,175.0922 L96.1078278,179.980145 C96.1078278,179.980145 94.8712767,181.927642 98.0310478,180.628854 C100.443964,179.637276 103.896458,177.400396 103.896458,177.400396 L105.661006,176.84632 C115.173148,177.947616 121.894843,178.088878 122.279213,177.947616 C122.705988,177.776181 142.616649,185.205473 161.18133,184.995637 C169.125898,184.903748 175.639677,184.828317 178.071743,184.807744 C178.71464,184.796773 179.328812,184.508762 179.739172,184.015031 L205.457794,153.787675 C205.809336,153.377603 206.01178,152.841355 206,152.303736 L205.266293,95.8071071 Z"/>
        <path stroke="#171717" d="M205.266293,95.8071071 C205.251246,95.0061645 204.823104,94.2600809 204.124124,93.8760673 C201.869881,92.636252 196.656942,90.4679466 191.900871,93.6689743 C191.776396,93.7553773 191.65192,93.837666 191.52334,93.9432697 C190.638331,94.6111791 189.723228,95.5684701 188.806758,96.8096569 C183.318878,104.196433 177.296163,122.036607 171.340473,154.684621 C171.315852,154.828626 171.280287,154.98086 171.228308,155.112521 L169.235327,160.092355 C168.898832,160.915241 168.131459,161.469318 167.234139,161.494005 C163.371284,161.618809 152.101434,162.175629 137.149288,164.689546 C129.776488,165.923876 123.101301,165.796328 117.718747,165.179164 C117.699597,165.177792 117.680447,165.175049 117.680447,165.175049 C112.258225,164.574342 108.161465,163.475789 105.994765,162.803765 C105.669213,162.703647 105.346397,162.705019 105.03042,162.750278 L105.041362,162.72422 L95.1831502,164.885668 L87.7720507,170.592384 C87.7720507,170.592384 86.3275839,172.867664 90.0167192,171.350811 C92.8331559,170.193284 96.8615221,167.581992 96.8615221,167.581992 L101.844659,166.653502 L101.71608,166.890767 L94.263944,169.268908 L86.2988587,175.402154 C86.2988587,175.402154 84.7476983,177.844755 88.7131427,176.21544 C91.737495,174.972882 96.0681597,172.165468 96.0681597,172.165468 L100.052754,170.91331 C100.073272,171.044971 100.133458,171.168404 100.17723,171.295952 L97.2130637,172.240899 L89.2493463,178.374145 C89.2493463,178.374145 87.696818,180.816746 91.6622624,179.187431 C94.6866147,177.944873 99.0172794,175.138831 99.0172794,175.138831 L102.63255,174.003248 C102.896548,174.251485 103.16465,174.505208 103.450534,174.774018 L102.457463,175.0922 L96.1078278,179.980145 C96.1078278,179.980145 94.8712767,181.927642 98.0310478,180.628854 C100.443964,179.637276 103.896458,177.400396 103.896458,177.400396 L105.661006,176.84632 C115.173148,177.947616 121.894843,178.088878 122.279213,177.947616 C122.705988,177.776181 142.616649,185.205473 161.18133,184.995637 C169.125898,184.903748 175.639677,184.828317 178.071743,184.807744 C178.71464,184.796773 179.328812,184.508762 179.739172,184.015031 L205.457794,153.787675 C205.809336,153.377603 206.01178,152.841355 206,152.303736 L205.266293,95.8071071 Z"/>
        <g transform="translate(147 89)">
          <path fill="#171717" d="M4.89973118,119.868628 C4.89973118,119.868628 38.0789591,88.2727222 44.579598,67.4349188 C44.6318119,67.3041923 44.6757816,67.1610812 44.7197513,67.0207222 C44.7197513,67.0207222 43.8252436,66.2239786 42.6092078,64.8547906 C39.6357597,61.4944316 34.6987918,54.6237222 36.0384922,47.2411154 C37.9346837,36.8325342 42.4869171,36.0715684 45.6279995,29.6879872 C48.7704559,23.283765 54.4686485,3.39820085 54.4686485,3.39820085 C54.4686485,3.39820085 88.4626891,17.3694231 110.747061,0.974944444 L110.77729,2.29872222 L112.841115,86.9819701 L108.624151,145.372679 C108.624151,145.372679 113.043101,161.306175 73.2684247,160.421363 C33.4923743,159.535175 -15.7385263,132.428004 4.89973118,119.868628"/>
          <path stroke="#FFF" d="M4.89973118,119.868628 C4.89973118,119.868628 38.0789591,88.2727222 44.579598,67.4349188 C44.6318119,67.3041923 44.6757816,67.1610812 44.7197513,67.0207222 C44.7197513,67.0207222 43.8252436,66.2239786 42.6092078,64.8547906 C39.6357597,61.4944316 34.6987918,54.6237222 36.0384922,47.2411154 C37.9346837,36.8325342 42.4869171,36.0715684 45.6279995,29.6879872 C48.7704559,23.283765 54.4686485,3.39820085 54.4686485,3.39820085 C54.4686485,3.39820085 88.4626891,17.3694231 110.747061,0.974944444 L110.77729,2.29872222 L112.841115,86.9819701 L108.624151,145.372679 C108.624151,145.372679 113.043101,161.306175 73.2684247,160.421363 C33.4923743,159.535175 -15.7385263,132.428004 4.89973118,119.868628"/>
        </g>
        <path fill="#451170" d="M241.597,8.5565 C241.537,8.5145 241.469,8.4795 241.403,8.4435 L241.538,8.5005 C241.557,8.5235 241.577,8.5335 241.597,8.5565"/>
        <polygon fill="#0048FA" points="158 205.471 86.067 162 23 166.49 99.621 219"/>
        <polygon stroke="#121212" points="158 205.471 86.067 162 23 166.49 99.621 219"/>
        <path fill="#0048FA" d="M100.676383,222.951223 L157.287001,210.7195 C158.476634,210.461161 159.223933,209.270316 158.939575,208.078089 L158.844789,207.673312 C158.570046,206.517004 157.425745,205.795865 156.270455,206.051441 L99.7051695,218.523544 C98.463335,218.797079 97.7201575,220.081866 98.0993017,221.303104 L98.150129,221.468883 C98.4839407,222.545065 99.5801618,223.187458 100.676383,222.951223"/>
        <path stroke="#121212" d="M100.676383,222.951223 L157.287001,210.7195 C158.476634,210.461161 159.223933,209.270316 158.939575,208.078089 L158.844789,207.673312 C158.570046,206.517004 157.425745,205.795865 156.270455,206.051441 L99.7051695,218.523544 C98.463335,218.797079 97.7201575,220.081866 98.0993017,221.303104 L98.150129,221.468883 C98.4839407,222.545065 99.5801618,223.187458 100.676383,222.951223 Z"/>
        <path fill="#0048FA" d="M72.8629662,134.778695 L74.0322215,138.519306 L99.9472952,221.612347 C100.261832,222.607744 99.1007817,223.411455 98.2611059,222.770676 L21.3774415,167.521362 L0.244690465,99.0087618 L0.0546010063,98.4063208 C-0.240789807,97.4985518 0.719230336,96.6838873 1.56711137,97.1220262 L72.3350919,134.14887 C72.583986,134.28305 72.7768106,134.496643 72.8629662,134.778695"/>
        <path stroke="#121212" d="M72.8629662,134.778695 L74.0322215,138.519306 L99.9472952,221.612347 C100.261832,222.607744 99.1007817,223.411455 98.2611059,222.770676 L21.3774415,167.521362 L0.244690465,99.0087618 L0.0546010063,98.4063208 C-0.240789807,97.4985518 0.719230336,96.6838873 1.56711137,97.1220262 L72.3350919,134.14887 C72.583986,134.28305 72.7768106,134.496643 72.8629662,134.778695 Z"/>
        <path fill="#FFF" d="M188,40.9441914 C188,40.9441914 195.700207,55.2570992 198.010133,67.112967 C200.32006,78.9674674 213.380707,84.596646 221.578708,82.6072229 C229.776709,80.6177998 235.088319,72.4016876 237.140532,63.8464847 C239.195457,55.2899144 237.523033,51.5229999 237.523033,51.5229999 C237.523033,51.5229999 244.265631,47.9639152 241.201553,40.6379159 C238.856361,35.0319814 233.972012,35.8318526 232.945228,43.5461653 C231.917087,51.2618454 234.510498,50.5358085 231.366394,51.3931063 C228.220933,52.2504041 230.370806,42.7558653 221.002243,40.1197088 C211.632324,37.4835523 202.455012,46.7183039 188,40.9441914"/>
        <path stroke="#171717" d="M188,40.9441914 C188,40.9441914 195.700207,55.2570992 198.010133,67.112967 C200.32006,78.9674674 213.380707,84.596646 221.578708,82.6072229 C229.776709,80.6177998 235.088319,72.4016876 237.140532,63.8464847 C239.195457,55.2899144 237.523033,51.5229999 237.523033,51.5229999 C237.523033,51.5229999 244.265631,47.9639152 241.201553,40.6379159 C238.856361,35.0319814 233.972012,35.8318526 232.945228,43.5461653 C231.917087,51.2618454 234.510498,50.5358085 231.366394,51.3931063 C228.220933,52.2504041 230.370806,42.7558653 221.002243,40.1197088 C211.632324,37.4835523 202.455012,46.7183039 188,40.9441914 Z"/>
        <path fill="#FFF" d="M282.82952,119.267994 C281.678658,99.5102259 274.071711,90.1012414 265.916799,89.0927433 C265.893452,89.0899954 265.868732,89.0858735 265.846759,89.0831255 C265.072193,88.9924431 264.293508,88.9759554 263.516195,89.0336624 C263.431048,89.0405323 263.347274,89.0501501 263.2635,89.058394 C262.961365,89.0872474 262.659229,89.1270927 262.359841,89.1779298 C262.271947,89.1916696 262.185426,89.2054093 262.097532,89.2218971 C261.722609,89.2933438 261.347687,89.3757823 260.975511,89.4802045 L260.967271,89.4705866 C259.95237,89.7467557 258.942963,90.1589484 257.961023,90.6920509 C257.402072,90.9929515 256.885695,91.3172098 256.405025,91.6648256 C249.208707,96.866697 250.257941,107.460048 250.63149,123.754024 C251.031133,141.111457 245.198545,190.470155 245.184811,190.578699 C245.091424,190.558089 229.389992,187.004989 209.156528,189.788663 C207.890305,189.964532 206.587003,190.106051 205.260353,190.218717 L205.257606,190.218717 C204.599775,190.27505 203.937824,190.32314 203.269006,190.364359 C203.253899,190.365733 203.237419,190.367107 203.220939,190.367107 C183.634319,191.584449 159.721668,187.025598 159.721668,187.025598 L159.714802,187.055826 L159.717548,187.02285 L138.730118,180.576157 C138.590037,180.515702 138.415623,180.459369 138.195888,180.41128 C138.195888,180.41128 129.280144,178.557787 126.054161,177.308843 C122.863885,176.073639 119.662622,174.367162 119.896091,176.275614 C119.79309,176.421255 119.74777,176.628725 119.78897,176.932374 C119.942784,178.063156 122.318668,179.825966 125.044754,181.293372 L117.185111,182.198822 L115.274791,182.418658 L104.969224,188.795279 C104.969224,188.795279 104.89781,188.892831 104.814036,189.032977 C104.808543,189.04122 104.80305,189.050838 104.797556,189.060456 C104.78245,189.083814 104.77009,189.108545 104.753609,189.136025 C104.724769,189.186862 104.697302,189.240447 104.668462,189.298154 C104.667089,189.302276 104.665715,189.306398 104.662969,189.31052 C104.32238,190.022239 104.227619,191.118671 107.770844,190.066206 C111.553031,188.945042 117.088977,186.106409 117.088977,186.106409 L120.001838,185.920922 C120.000465,185.934662 119.994971,185.947027 119.993598,185.960767 C119.970251,186.092669 119.981238,186.239684 119.977118,186.37983 L114.769401,187.477636 L104.467954,193.858379 C104.467954,193.858379 102.309059,196.595338 107.265454,195.125184 C111.047641,194.002646 116.583587,191.165387 116.583587,191.165387 L121.405395,190.170628 C121.505649,190.31627 121.594916,190.457789 121.706157,190.603431 L117.950064,191.39484 L107.648617,197.776957 C107.648617,197.776957 105.491095,200.513916 110.446117,199.043762 C114.228304,197.91985 119.765623,195.082591 119.765623,195.082591 L125.224662,193.957305 C125.661385,194.277441 126.117335,194.582464 126.593885,194.875121 L123.900759,195.443946 L115.689541,200.531778 C115.689541,200.531778 113.968742,202.712277 117.91985,201.540276 C120.934338,200.645818 125.348263,198.38288 125.348263,198.38288 L131.581867,197.098213 C133.331507,197.609332 135.19376,197.897867 137.126054,197.849778 C148.479481,197.57773 158.031083,201.165181 158.031083,201.165181 L158.031083,201.162433 C161.946484,202.738383 173.082924,206.738025 196.823906,212.188586 C227.817514,219.304406 257.046376,219.886971 266.689991,204.525925 C276.333607,189.163504 284.274277,144.381519 282.82952,119.267994"/>
        <path stroke="#171717" d="M282.82952,119.267994 C281.678658,99.5102259 274.071711,90.1012414 265.916799,89.0927433 C265.893452,89.0899954 265.868732,89.0858735 265.846759,89.0831255 C265.072193,88.9924431 264.293508,88.9759554 263.516195,89.0336624 C263.431048,89.0405323 263.347274,89.0501501 263.2635,89.058394 C262.961365,89.0872474 262.659229,89.1270927 262.359841,89.1779298 C262.271947,89.1916696 262.185426,89.2054093 262.097532,89.2218971 C261.722609,89.2933438 261.347687,89.3757823 260.975511,89.4802045 L260.967271,89.4705866 C259.95237,89.7467557 258.942963,90.1589484 257.961023,90.6920509 C257.402072,90.9929515 256.885695,91.3172098 256.405025,91.6648256 C249.208707,96.866697 250.257941,107.460048 250.63149,123.754024 C251.031133,141.111457 245.198545,190.470155 245.184811,190.578699 C245.091424,190.558089 229.389992,187.004989 209.156528,189.788663 C207.890305,189.964532 206.587003,190.106051 205.260353,190.218717 L205.257606,190.218717 C204.599775,190.27505 203.937824,190.32314 203.269006,190.364359 C203.253899,190.365733 203.237419,190.367107 203.220939,190.367107 C183.634319,191.584449 159.721668,187.025598 159.721668,187.025598 L159.714802,187.055826 L159.717548,187.02285 L138.730118,180.576157 C138.590037,180.515702 138.415623,180.459369 138.195888,180.41128 C138.195888,180.41128 129.280144,178.557787 126.054161,177.308843 C122.863885,176.073639 119.662622,174.367162 119.896091,176.275614 C119.79309,176.421255 119.74777,176.628725 119.78897,176.932374 C119.942784,178.063156 122.318668,179.825966 125.044754,181.293372 L117.185111,182.198822 L115.274791,182.418658 L104.969224,188.795279 C104.969224,188.795279 104.89781,188.892831 104.814036,189.032977 C104.808543,189.04122 104.80305,189.050838 104.797556,189.060456 C104.78245,189.083814 104.77009,189.108545 104.753609,189.136025 C104.724769,189.186862 104.697302,189.240447 104.668462,189.298154 C104.667089,189.302276 104.665715,189.306398 104.662969,189.31052 C104.32238,190.022239 104.227619,191.118671 107.770844,190.066206 C111.553031,188.945042 117.088977,186.106409 117.088977,186.106409 L120.001838,185.920922 C120.000465,185.934662 119.994971,185.947027 119.993598,185.960767 C119.970251,186.092669 119.981238,186.239684 119.977118,186.37983 L114.769401,187.477636 L104.467954,193.858379 C104.467954,193.858379 102.309059,196.595338 107.265454,195.125184 C111.047641,194.002646 116.583587,191.165387 116.583587,191.165387 L121.405395,190.170628 C121.505649,190.31627 121.594916,190.457789 121.706157,190.603431 L117.950064,191.39484 L107.648617,197.776957 C107.648617,197.776957 105.491095,200.513916 110.446117,199.043762 C114.228304,197.91985 119.765623,195.082591 119.765623,195.082591 L125.224662,193.957305 C125.661385,194.277441 126.117335,194.582464 126.593885,194.875121 L123.900759,195.443946 L115.689541,200.531778 C115.689541,200.531778 113.968742,202.712277 117.91985,201.540276 C120.934338,200.645818 125.348263,198.38288 125.348263,198.38288 L131.581867,197.098213 C133.331507,197.609332 135.19376,197.897867 137.126054,197.849778 C148.479481,197.57773 158.031083,201.165181 158.031083,201.165181 L158.031083,201.162433 C161.946484,202.738383 173.082924,206.738025 196.823906,212.188586 C227.817514,219.304406 257.046376,219.886971 266.689991,204.525925 C276.333607,189.163504 284.274277,144.381519 282.82952,119.267994 Z"/>
      </g>
    </g>
  </g>
</svg>
