<svg xmlns="http://www.w3.org/2000/svg" xmlns:xlink="http://www.w3.org/1999/xlink" width="397" height="417" viewBox="0 0 397 417">
  <defs>
    <rect id="img2-a" width="445" height="426" x="0" y="0"/>
    <polygon id="img2-c" points=".65 .209 427.65 .209 427.65 391.209 .65 391.209"/>
  </defs>
  <g fill="none" fill-rule="evenodd" transform="translate(-946 -2067)">
    <rect width="1803" height="6217" fill="#FFF"/>
    <g transform="translate(916 2059)">
      <mask id="img2-b" fill="#fff">
        <use xlink:href="#img2-a"/>
      </mask>
      <g mask="url(#img2-b)">
        <g transform="translate(-47 -68)">
          <g transform="rotate(-60 321.71 185.44)">
            <mask id="img2-d" fill="#fff">
              <use xlink:href="#img2-c"/>
            </mask>
            <path fill="#F8F8F8" d="M97.654314,265.504904 C125.962408,290.505215 101.13362,359.531861 187.8145,386.464509 C274.496187,413.397963 395.64576,320.115576 418.256409,246.660189 C440.867058,173.203996 420.248618,126.175207 382.102124,108.074257 C343.95563,89.9725002 285.273806,102.973468 266.808146,53.0711542 C248.34168,3.16803461 182.587472,-18.9063741 122.543618,20.2705845 C68.9798923,55.2186426 108.980618,88.2375873 41.6198932,114.431306 C-6.25929852,133.049588 -13.465626,194.011669 26.8473656,227.631749 C60.1347729,255.39116 73.5888435,244.250006 97.654314,265.504904" mask="url(#img2-d)"/>
          </g>
          <g transform="translate(189 100)">
            <polygon fill="#FFF" points="1 58.5 43.001 83 85 58.5 43.001 34"/>
            <path fill="#171717" d="M42.4091422,34.3434131 L1.77612557,57.9673758 L0,58.9988076 L1.77612557,60.0326242 L42.4091422,83.6553944 L43,84 L43.5932259,83.6553944 L84.2238744,60.0326242 L86,58.9988076 L84.2238744,57.9673758 L43.5932259,34.3434131 L43,34 L42.4091422,34.3434131 Z M2.36816742,58.9988076 L43,35.3760374 L83.6318326,58.9988076 L43,82.6227702 L2.36816742,58.9988076 Z"/>
            <polygon fill="#FFF" points="2 289.903 2 58 44 82.097 44 314"/>
            <path fill="#171717" d="M1,59.0465875 L1,289.544091 L1,290.225893 L1.59204186,290.567385 L42.2250585,313.976706 L44,315 L44,312.953413 L44,82.4570903 L44,81.7752883 L43.4091422,81.4337965 L2.77494148,58.0232937 L1,57 L1,59.0465875 Z M2.18408371,289.544091 L2.18408371,59.0465875 L42.8159163,82.4570903 L42.8159163,312.953413 L2.18408371,289.544091 Z"/>
            <polygon fill="#FFF" points="42 82.097 84 58 84 289.903 42 314"/>
            <path fill="#171717" d="M84,57 L82.2238255,58.0221121 L41.5920582,81.4337965 L41,81.7741067 L41,82.4559086 L41,312.952231 L41,315 L42.7761745,313.976706 L83.4079418,290.566203 L84,290.224712 L84,289.54291 L84,59.0454058 L84,57 Z M82.8158837,59.0454058 L82.8158837,289.54291 L42.1841163,312.952231 L42.1841163,82.4559086 L82.8158837,59.0454058 Z"/>
            <polygon fill="#0048FA" points="90.499 209 50 185.499 90.499 162 131 185.499"/>
            <polygon stroke="#121212" points="90.499 209 50 185.499 90.499 162 131 185.499"/>
            <polygon fill="#0048FA" points="90 341 49 317.494 49 185 90 208.505"/>
            <polygon stroke="#121212" points="90 341 49 317.494 49 185 90 208.505"/>
            <polygon fill="#0048FA" points="131 317.494 90 341 90 208.506 131 185"/>
            <polygon stroke="#121212" points="131 317.494 90 341 90 208.506 131 185"/>
            <polygon fill="#FFF" points="136.499 169 96 145.499 136.499 122 177 145.499"/>
            <polygon stroke="#171717" points="136.499 169 96 145.499 136.499 122 177 145.499"/>
            <polygon fill="#FFF" points="137 368 96 344.566 96 146 137 169.433"/>
            <polygon stroke="#171717" points="137 368 96 344.566 96 146 137 169.433"/>
            <polygon fill="#FFF" points="178 344.566 137 368 137 169.434 178 146"/>
            <polygon stroke="#171717" points="178 344.566 137 368 137 169.434 178 146"/>
            <polygon fill="#0048FA" points="184.501 315 144 291.5 184.499 268 225 291.5"/>
            <polygon stroke="#121212" points="184.501 315 144 291.5 184.499 268 225 291.5"/>
            <polygon fill="#0048FA" points="144 370.599 185 394 185 315.4 144 292"/>
            <polygon stroke="#121212" points="185 394 144 370.599 144 292 185 315.4"/>
            <polygon fill="#0048FA" points="184 315.401 184 394 225 370.6 225 292"/>
            <polygon stroke="#121212" points="225 370.599 184 394 184 315.401 225 292"/>
            <polygon fill="#001E34" points="163 129 159.909 119 153 123.011 155.038 129"/>
            <g transform="translate(51)">
              <path fill="#0A0A0A" d="M34.3414569 235.16045C33.8562275 236.762764 32.0454936 237.471367 30.4702734 238.025515 25.5363193 239.757524 20.8023743 242.05783 16.3998055 244.862764 15.5346771 245.405122 14.6600807 245.994642 13.6541174 246.206869 12.8848514 246.373114 12.1037505 246.314083 11.3226495 246.24224 8.71897982 246.031192 6.10347523 245.736432 3.62998899 244.899314 2.61100734 244.545603 1.58137431 244.073987.89613578 243.24748.209713761 242.410362-.0269834862 241.137.60026422 240.252721.60026422 240.242109.612099083 240.242109.623933945 240.230319 1.66540183 238.791891 3.94834679 239.404991 5.67742018 238.909795 6.76622752 238.603245 7.6538422 237.836869 8.49411743 237.082284 11.4871541 234.382284 14.4458697 231.623332 17.3347596 228.804249 18.1975211 227.978921 19.0626495 227.107611 19.5833835 226.034686 20.1632917 224.819096 20.2579706 223.440799 20.3408147 222.096694 20.4709982 219.914293 19.796411 217.945297 22.2817321 217.76962 24.5528422 217.615166 26.8854936 217.722459 29.169622 217.697699 29.429989 217.697699 29.7140257 217.697699 29.9152183 217.863943 30.1519156 218.05141 30.199255 218.382721 30.2229248 218.688092 30.5069615 222.497568 30.2465945 226.577044 32.2348514 229.854773 32.742567 230.691891 33.4065028 231.540799 33.8680624 232.413288 34.3532917 233.297568 34.6254936 234.216039 34.3414569 235.16045M58.3301312 257.45514C55.8448101 258.091821 48.8279202 263.021384 46.2715899 265.885271 43.7140761 268.738546 37.7493055 269.694747 34.9811312 268.585271 32.6839844 267.65383 31.2993055 266.840293 32.1170945 264.848895 32.2697642 264.448022 32.5182963 263.999987 32.8615073 263.491821 34.9326083 260.474659 48.2835165 247.752825 50.5427917 240.277716L58.7088468 241.704354C58.7088468 241.704354 59.0414064 246.643349 60.7917826 250.29955 61.1231587 250.995183 61.3243514 251.654266 61.4308651 252.268546 61.868755 254.956755 60.3420578 256.937541 58.3301312 257.45514"/>
              <path fill="#FFF" d="M112.878077,128.215572 C112.53605,126.688716 112.065022,125.245572 111.420022,124.038236 C108.377279,118.337581 99.1981596,116.664524 93.7292697,118.582821 C92.7481596,118.925921 91.6960404,119.610943 90.6297193,120.497581 C90.2758569,119.991773 90.0356092,119.698192 90.0356092,119.698192 C87.3313431,107.189764 78.8540312,105.960026 78.8540312,105.960026 C78.8540312,105.960026 27.8209211,142.526751 23.1958569,147.835965 C22.4502606,148.691948 21.8810037,149.599808 21.4454807,150.534786 C18.3459303,154.871293 17.593233,159.188934 19.7436275,172.212603 C21.9697651,185.698454 18.5163523,224.230638 18.5163523,224.230638 C18.5163523,224.230638 20.8407193,226.80448 24.8361688,227.44352 C28.8008477,228.076664 31.6400312,226.211424 31.6400312,226.211424 C31.6400312,226.211424 39.3776642,189.423039 39.5883248,179.328105 C39.7173248,173.187668 38.1385541,166.382253 36.8805083,161.989153 C40.0534349,160.512996 54.2434349,153.8809 67.3824991,147.35138 C59.9431046,155.542166 51.8054532,164.597188 50.0787468,166.898672 C48.1046917,169.530288 47.3898661,171.509895 47.5756734,173.871511 C46.8868844,175.010463 46.5188202,176.576227 46.7756367,178.731511 C47.7875174,187.248891 49.6929303,191.046576 49.4550495,199.354087 C49.2171688,207.661598 46.6927927,244.877974 46.6927927,244.877974 C46.6927927,244.877974 49.4550495,248.438672 53.5049394,248.201686 C57.5548294,247.96352 59.4602422,245.114961 59.4602422,245.114961 C59.4602422,245.114961 65.668811,220.66876 67.4487743,213.074568 C69.1163064,205.959066 65.797811,183.20007 65.371756,180.358585 C73.192233,174.764044 86.8650495,164.978017 94.9174899,159.161817 C99.8183064,155.624699 103.885949,151.83055 106.964196,148.608236 C112.162068,143.16579 114.523123,135.545659 112.878077,128.215572"/>
              <path stroke="#171717" d="M112.878077,128.215572 C112.53605,126.688716 112.065022,125.245572 111.420022,124.038236 C108.377279,118.337581 99.1981596,116.664524 93.7292697,118.582821 C92.7481596,118.925921 91.6960404,119.610943 90.6297193,120.497581 C90.2758569,119.991773 90.0356092,119.698192 90.0356092,119.698192 C87.3313431,107.189764 78.8540312,105.960026 78.8540312,105.960026 C78.8540312,105.960026 27.8209211,142.526751 23.1958569,147.835965 C22.4502606,148.691948 21.8810037,149.599808 21.4454807,150.534786 C18.3459303,154.871293 17.593233,159.188934 19.7436275,172.212603 C21.9697651,185.698454 18.5163523,224.230638 18.5163523,224.230638 C18.5163523,224.230638 20.8407193,226.80448 24.8361688,227.44352 C28.8008477,228.076664 31.6400312,226.211424 31.6400312,226.211424 C31.6400312,226.211424 39.3776642,189.423039 39.5883248,179.328105 C39.7173248,173.187668 38.1385541,166.382253 36.8805083,161.989153 C40.0534349,160.512996 54.2434349,153.8809 67.3824991,147.35138 C59.9431046,155.542166 51.8054532,164.597188 50.0787468,166.898672 C48.1046917,169.530288 47.3898661,171.509895 47.5756734,173.871511 C46.8868844,175.010463 46.5188202,176.576227 46.7756367,178.731511 C47.7875174,187.248891 49.6929303,191.046576 49.4550495,199.354087 C49.2171688,207.661598 46.6927927,244.877974 46.6927927,244.877974 C46.6927927,244.877974 49.4550495,248.438672 53.5049394,248.201686 C57.5548294,247.96352 59.4602422,245.114961 59.4602422,245.114961 C59.4602422,245.114961 65.668811,220.66876 67.4487743,213.074568 C69.1163064,205.959066 65.797811,183.20007 65.371756,180.358585 C73.192233,174.764044 86.8650495,164.978017 94.9174899,159.161817 C99.8183064,155.624699 103.885949,151.83055 106.964196,148.608236 C112.162068,143.16579 114.523123,135.545659 112.878077,128.215572 Z"/>
              <path fill="#171717" d="M77.1896945,43.9995066 C77.1896945,43.9995066 89.2849239,37.0856201 101.058245,38.2057074 C112.831566,39.3269738 120.805896,51.1633493 120.805896,51.1633493 C120.805896,51.1633493 122.680539,56.4572358 121.743217,62.6884585 C120.805896,68.9173231 111.568786,109.339507 111.02675,120.410686 C111.02675,120.410686 105.613483,125.540686 98.2912541,124.866275 C90.9702083,124.190686 73.6333183,121.625096 70.3799147,118.250686 C67.1276945,114.875096 68.0768505,109.069507 68.0768505,109.069507 C68.0768505,109.069507 66.0909606,86.3600306 66.0909606,70.9429127 C66.0909606,55.5234367 77.1896945,43.9995066 77.1896945,43.9995066"/>
              <path stroke="#FFF" d="M77.1896945,43.9995066 C77.1896945,43.9995066 89.2849239,37.0856201 101.058245,38.2057074 C112.831566,39.3269738 120.805896,51.1633493 120.805896,51.1633493 C120.805896,51.1633493 122.680539,56.4572358 121.743217,62.6884585 C120.805896,68.9173231 111.568786,109.339507 111.02675,120.410686 C111.02675,120.410686 105.613483,125.540686 98.2912541,124.866275 C90.9702083,124.190686 73.6333183,121.625096 70.3799147,118.250686 C67.1276945,114.875096 68.0768505,109.069507 68.0768505,109.069507 C68.0768505,109.069507 66.0909606,86.3600306 66.0909606,70.9429127 C66.0909606,55.5234367 77.1896945,43.9995066 77.1896945,43.9995066 Z"/>
              <path fill="#171717" d="M77.1896945,43.9995066 C77.1896945,43.9995066 69.6828413,44.9321266 65.2092633,52.5062751 C60.7368688,60.0804236 57.8325936,68.4964061 58.1296486,67.8880218 C58.4267037,67.2772795 65.7027771,74.1369301 65.7027771,74.1369301 L77.1896945,43.9995066 Z"/>
              <path stroke="#FFF" d="M77.1896945,43.9995066 C77.1896945,43.9995066 69.6828413,44.9321266 65.2092633,52.5062751 C60.7368688,60.0804236 57.8325936,68.4964061 58.1296486,67.8880218 C58.4267037,67.2772795 65.7027771,74.1369301 65.7027771,74.1369301 L77.1896945,43.9995066 Z"/>
              <path fill="#FFBDBD" d="M79.1325055,33.0323188 C79.5396248,33.7562489 80.5077165,37.0858559 80.7538817,37.8357249 C89.2666982,32.619655 89.7862486,28.3397424 89.7862486,28.3397424 L83.5291569,27.1229738 L79.1325055,33.0323188 Z"/>
              <path fill="#FFF" d="M93.738856,24.5661092 C96.7673972,22.7032271 98.5248743,19.8876812 98.9970853,17.4458908 C99.6397183,14.1268952 99.7710853,9.72554148 95.2785716,5.94554148 C90.7860578,2.16672052 83.6058468,2.76095633 83.6058468,2.76095633 C83.6058468,2.76095633 77.8860578,4.42575983 75.2137459,6.78855459 C72.5402505,9.15017031 72.0538376,15.3342314 72.0538376,15.3342314 C71.9496908,17.1876812 71.5473055,19.6318297 71.5473055,19.6318297 C70.0123239,24.7241004 71.6952413,29.8882926 72.0124156,32.6625721 C72.3284064,35.4380306 75.3415624,34.7813057 75.3415624,34.7813057 L79.4080211,33.6906943 C79.8352596,34.8591223 80.4092505,36.950738 80.6577826,37.5555852 C80.9915257,38.3290349 81.2743789,39.1142751 81.520544,39.8629651 C82.6910119,43.4955852 82.9371771,46.6247555 82.9371771,46.6247555 L83.3135257,48.7576376 L90.552911,45.9727467 C94.6962963,44.3798646 98.3272321,41.6951921 101.058718,38.2052358 C95.8691312,36.2987293 94.2465716,28.8625284 93.738856,24.5661092"/>
              <path stroke="#171717" d="M93.738856,24.5661092 C96.7673972,22.7032271 98.5248743,19.8876812 98.9970853,17.4458908 C99.6397183,14.1268952 99.7710853,9.72554148 95.2785716,5.94554148 C90.7860578,2.16672052 83.6058468,2.76095633 83.6058468,2.76095633 C83.6058468,2.76095633 77.8860578,4.42575983 75.2137459,6.78855459 C72.5402505,9.15017031 72.0538376,15.3342314 72.0538376,15.3342314 C71.9496908,17.1876812 71.5473055,19.6318297 71.5473055,19.6318297 C70.0123239,24.7241004 71.6952413,29.8882926 72.0124156,32.6625721 C72.3284064,35.4380306 75.3415624,34.7813057 75.3415624,34.7813057 L79.4080211,33.6906943 C79.8352596,34.8591223 80.4092505,36.950738 80.6577826,37.5555852 C80.9915257,38.3290349 81.2743789,39.1142751 81.520544,39.8629651 C82.6910119,43.4955852 82.9371771,46.6247555 82.9371771,46.6247555 L83.3135257,48.7576376 L90.552911,45.9727467 C94.6962963,44.3798646 98.3272321,41.6951921 101.058718,38.2052358 C95.8691312,36.2987293 94.2465716,28.8625284 93.738856,24.5661092 Z"/>
              <path stroke="#FFF" stroke-width=".5" d="M66.1245716,74.5958122 C66.1245716,74.5958122 65.6073881,66.4038472 67.5341037,61.179524"/>
              <path fill="#001E34" d="M58.3301312 257.45514C55.8448101 258.091821 48.8279202 263.021384 46.2715899 265.885271 43.7140761 268.738546 37.7493055 269.694747 34.9811312 268.585271 32.6839844 267.65383 31.2993055 266.840293 32.1170945 264.848895 32.7088376 265.979594 34.0935165 266.934616 37.1812321 266.734179 44.1638009 266.274354 46.6727917 262.85514 51.8339752 259.659943 56.0826908 257.031865 59.8568284 255.947148 61.4308651 252.268546 61.868755 254.956755 60.3420578 256.937541 58.3301312 257.45514M34.3414569 235.16045C33.8562275 236.762764 32.0454936 237.471367 30.4702734 238.025515 25.5363193 239.757524 20.8023743 242.05783 16.3998055 244.862764 15.5346771 245.405122 14.6600807 245.994642 13.6541174 246.206869 12.8848514 246.373114 12.1037505 246.314083 11.3226495 246.24224 8.71897982 246.031192 6.10347523 245.736432 3.62998899 244.899314 2.61100734 244.545603 1.58137431 244.073987.89613578 243.24748.209713761 242.410362-.0269834862 241.137.60026422 240.252721.60026422 240.242109.612099083 240.242109.623933945 240.230319 1.15650275 241.478921 2.36247523 242.847786 5.02531927 243.388965 10.5297138 244.510231 12.4114569 245.135122 16.2932917 242.387961 20.1751266 239.640799 26.9446679 236.893638 29.8205394 236.398441 31.8549523 236.044729 33.2644844 234.404686 33.8680624 232.413288 34.3532917 233.297568 34.6254936 234.216039 34.3414569 235.16045"/>
              <path fill="#FFF" d="M64.7145661,94.2676114 C65.5607587,95.0233755 66.4578413,95.7602751 67.4034468,96.4665197 C82.8361073,108.045865 117.654272,106.917524 117.654272,106.917524 C120.178649,103.052633 126.322126,77.2257773 126.97541,70.5076114 C127.631061,63.7894454 126.903217,54.5481354 118.25075,54.0694454 C109.599465,53.6037249 108.437282,65.4955153 108.437282,65.4955153 L103.358942,91.828179 C92.2034009,91.4202314 77.9660615,89.4229389 72.5681807,87.8324148 C70.1574193,87.1214541 68.7407862,86.6840306 68.7407862,86.6840306 L64.7145661,94.2676114 Z"/>
              <path stroke="#171717" d="M64.7145661,94.2676114 C65.5607587,95.0233755 66.4578413,95.7602751 67.4034468,96.4665197 C82.8361073,108.045865 117.654272,106.917524 117.654272,106.917524 C120.178649,103.052633 126.322126,77.2257773 126.97541,70.5076114 C127.631061,63.7894454 126.903217,54.5481354 118.25075,54.0694454 C109.599465,53.6037249 108.437282,65.4955153 108.437282,65.4955153 L103.358942,91.828179 C92.2034009,91.4202314 77.9660615,89.4229389 72.5681807,87.8324148 C70.1574193,87.1214541 68.7407862,86.6840306 68.7407862,86.6840306 L64.7145661,94.2676114 Z"/>
              <path fill="#171717" d="M117.648947,47.4421834 C117.648947,47.4421834 125.005497,50.9250655 126.796112,59.7843668 C128.586727,68.6424891 128.564247,89.5562882 128.564247,89.5562882 C128.564247,89.5562882 115.652406,93.2289956 109.273415,90.6928821 C102.892057,88.1567686 98.8989743,85.2952402 98.8989743,85.2952402 L104.913451,67.5389083 C104.913451,67.5389083 107.313561,52.5556769 117.648947,47.4421834"/>
              <path stroke="#FFF" d="M117.648947,47.4421834 C117.648947,47.4421834 125.005497,50.9250655 126.796112,59.7843668 C128.586727,68.6424891 128.564247,89.5562882 128.564247,89.5562882 C128.564247,89.5562882 115.652406,93.2289956 109.273415,90.6928821 C102.892057,88.1567686 98.8989743,85.2952402 98.8989743,85.2952402 L104.913451,67.5389083 C104.913451,67.5389083 107.313561,52.5556769 117.648947,47.4421834 Z"/>
              <path fill="#FFF" d="M78.6771,35.2258035 C78.4273844,35.059559 78.0853569,34.8956725 77.6344486,34.7541878 C76.0379257,34.2589913 74.203522,32.4904323 73.2318798,32.7486419 C72.7253477,32.8842314 70.9217147,33.6765459 69.2967881,34.4110873 C69.306256,33.8357162 69.2979716,33.2473755 69.2470817,32.7191659 C69.0742927,30.9128777 67.6600266,31.7181616 67.6600266,31.7181616 C67.3499532,32.6378122 66.2457606,34.4700393 65.4540083,35.7268952 C64.9758798,36.4861965 64.7652193,37.370476 64.8054578,38.2606507 C64.7782376,38.5377249 64.7782376,38.8360218 64.8172927,39.1637948 C65.0551734,41.0879869 65.307256,47.5656288 65.4090358,50.4094716 C65.3581459,50.3528777 65.3238248,50.3116114 65.3238248,50.3116114 C64.8965862,57.8456725 59.3815404,74.0268079 57.7116413,79.9738821 C56.0429257,85.9209563 56.7873385,90.8328341 57.7838339,93.0989476 C58.7803294,95.3650611 60.8679991,96.2422664 60.8679991,96.2422664 L63.9639991,95.4534891 C71.3442193,92.3054541 71.8898064,67.8120917 71.4045771,61.7636201 C70.9903569,56.5935328 71.4353477,53.1589913 71.5726321,52.2676376 C72.0933661,51.620345 73.0188523,50.3340131 73.256733,49.2681616 C73.5869257,47.7707817 74.2141734,42.5818297 74.2141734,42.5818297 L79.4345312,36.1690349 C79.4345312,36.1690349 79.3398523,35.6856288 78.6771,35.2258035"/>
              <path stroke="#171717" d="M78.6771,35.2258035 C78.4273844,35.059559 78.0853569,34.8956725 77.6344486,34.7541878 C76.0379257,34.2589913 74.203522,32.4904323 73.2318798,32.7486419 C72.7253477,32.8842314 70.9217147,33.6765459 69.2967881,34.4110873 C69.306256,33.8357162 69.2979716,33.2473755 69.2470817,32.7191659 C69.0742927,30.9128777 67.6600266,31.7181616 67.6600266,31.7181616 C67.3499532,32.6378122 66.2457606,34.4700393 65.4540083,35.7268952 C64.9758798,36.4861965 64.7652193,37.370476 64.8054578,38.2606507 C64.7782376,38.5377249 64.7782376,38.8360218 64.8172927,39.1637948 C65.0551734,41.0879869 65.307256,47.5656288 65.4090358,50.4094716 C65.3581459,50.3528777 65.3238248,50.3116114 65.3238248,50.3116114 C64.8965862,57.8456725 59.3815404,74.0268079 57.7116413,79.9738821 C56.0429257,85.9209563 56.7873385,90.8328341 57.7838339,93.0989476 C58.7803294,95.3650611 60.8679991,96.2422664 60.8679991,96.2422664 L63.9639991,95.4534891 C71.3442193,92.3054541 71.8898064,67.8120917 71.4045771,61.7636201 C70.9903569,56.5935328 71.4353477,53.1589913 71.5726321,52.2676376 C72.0933661,51.620345 73.0188523,50.3340131 73.256733,49.2681616 C73.5869257,47.7707817 74.2141734,42.5818297 74.2141734,42.5818297 L79.4345312,36.1690349 C79.4345312,36.1690349 79.3398523,35.6856288 78.6771,35.2258035 Z"/>
              <path stroke="#000" stroke-width=".5" d="M76.5991349,137.322118 L50.0783917,166.898319 C50.0783917,166.898319 48.124456,170.046354 45.3539147,169.91548"/>
              <path fill="#0A0A0A" d="M93.6556569,29.3616157 C93.6556569,29.3616157 95.4782257,25.8457205 97.5434092,24.1726638 C99.6074092,22.4984279 103.039519,15.4395197 101.415776,10.0866812 C99.7932165,4.73384279 91.5384,-1.5150655 81.5379413,1.9230131 C81.5379413,1.9230131 74.7577486,4.06886463 72.4321982,2.52078603 C72.4321982,2.52078603 71.7292073,7.58122271 75.6844183,8.2049345 C79.6396294,8.82628821 87.2151248,9.63746725 87.2151248,9.63746725 C87.2151248,9.63746725 85.6623908,16.5218777 88.0234459,20.0212664 C88.0234459,20.0212664 92.4733541,18.8811354 93.6556569,29.3616157"/>
            </g>
          </g>
        </g>
      </g>
    </g>
    <rect width="1799" height="50" x="10" y="1448" fill="#D8D8D8" opacity="0" transform="translate(0 574)"/>
  </g>
</svg>
