<svg xmlns="http://www.w3.org/2000/svg" xmlns:xlink="http://www.w3.org/1999/xlink" width="529" height="417" viewBox="0 0 529 417">
  <defs>
    <polygon id="img3-a" points=".456 .441 7.816 .441 7.816 20 .456 20"/>
    <polygon id="img3-c" points="0 .504 9.237 .504 9.237 18.914 0 18.914"/>
  </defs>
  <g fill="none" fill-rule="evenodd" transform="translate(-308 -2533)">
    <rect width="1803" height="6217" fill="#FFF"/>
    <g transform="translate(308 2535)">
      <path fill="#F8F8F8" d="M382.731175,115.655407 L382.731175,115.655407 L382.728771,115.655407 C380.81256,115.782484 378.915583,115.979208 377.040245,116.25902 C347.015597,117.466246 323.472889,86.7039823 323.472889,86.7039823 L323.471686,86.7137574 C283.406766,35.7255744 223.425994,0 170.14595,0 C113.546797,0 81.5434272,40.3125436 86.472201,96.411886 C86.8628965,107.0973 84.9743346,138.215134 51.0331155,148.373914 C51.0222962,148.37758 51.0126791,148.381245 51.0018598,148.383689 C50.814326,148.443562 50.6279943,148.500991 50.4392583,148.560863 C50.2709587,148.614626 50.1026591,148.668389 49.9403702,148.722152 C25.8014002,156.455484 0.323246227,169.694646 0,205.642604 C-0.768296841,292.992965 94.4856658,301 94.4856658,301 L474.757392,301 C474.757392,301 552.635624,298.221426 521.761064,220.801352 C498.587412,162.688337 434.026486,112.265889 382.731175,115.655407" transform="matrix(-1 0 0 1 529 0)"/>
      <g transform="translate(122 9)">
        <polygon fill="#FFF" points="303.119 273.526 118.105 164.82 144.824 12.479 329.837 121.185"/>
        <polygon stroke="#171717" points="303.119 273.526 118.105 164.82 144.824 12.479 329.837 121.185"/>
        <polygon fill="#FFF" points="301.574 273.527 116.56 164.821 143.279 12.48 328.292 121.186"/>
        <polygon stroke="#171717" points="301.574 273.527 116.56 164.821 143.279 12.48 328.292 121.186"/>
        <g transform="translate(0 .79)">
          <path fill="#0048FA" d="M326.4791,105.0915 L149.6201,1.1755 C147.3681,-0.1465 145.0751,1.4465 144.4981,4.7365 L143.2791,11.6905 L328.2911,120.3965 L329.5111,113.4425 C330.0881,110.1535 328.7311,106.4135 326.4791,105.0915"/>
          <path stroke="#121212" d="M326.4791,105.0915 L149.6201,1.1755 C147.3681,-0.1465 145.0751,1.4465 144.4981,4.7365 L143.2791,11.6905 L328.2911,120.3965 L329.5111,113.4425 C330.0881,110.1535 328.7311,106.4135 326.4791,105.0915 Z"/>
          <path fill="#EDEDED" d="M254.2496,218.1159 L172.4116,170.0309 C167.8766,167.3669 165.1426,159.8369 166.3046,153.2129 C167.4656,146.5879 172.0836,143.3779 176.6186,146.0429 L258.4566,194.1279 C262.9916,196.7919 265.7266,204.3219 264.5636,210.9459 C263.4026,217.5699 258.7846,220.7799 254.2496,218.1159"/>
          <path fill="#FFF" d="M238.9966 195.9235C238.6096 198.1285 236.8836 199.0865 235.1396 198.0625 233.3956 197.0375 232.2966 194.4195 232.6836 192.2145 233.0696 190.0085 234.7976 189.0515 236.5406 190.0755 238.2836 191.1005 239.3836 193.7185 238.9966 195.9235M225.3922 187.9304C225.0052 190.1354 223.2792 191.0934 221.5362 190.0694 219.7922 189.0444 218.6932 186.4264 219.0802 184.2214 219.4662 182.0154 221.1932 181.0584 222.9362 182.0824 224.6792 183.1074 225.7802 185.7254 225.3922 187.9304M211.7886 179.9372C211.4016 182.1422 209.6756 183.1002 207.9326 182.0762 206.1876 181.0512 205.0886 178.4332 205.4756 176.2282 205.8626 174.0222 207.5896 173.0652 209.3326 174.0892 211.0756 175.1142 212.1756 177.7322 211.7886 179.9372M198.1851 171.944C197.7981 174.149 196.0711 175.107 194.3281 174.083 192.5841 173.058 191.4851 170.44 191.8721 168.235 192.2581 166.03 193.9851 165.072 195.7291 166.096 197.4721 167.121 198.5721 169.739 198.1851 171.944M233.481 127.0612L218.254 118.1152 220.886 103.1112C221.888 97.3952 225.874 94.6242 229.787 96.9242L230.843 97.5452C234.755 99.8442 237.116 106.3412 236.113 112.0572L233.481 127.0612z"/>
          <path stroke="#171717" d="M233.481,127.0612 L218.254,118.1152 L220.886,103.1112 C221.888,97.3952 225.874,94.6242 229.787,96.9242 L230.843,97.5452 C234.755,99.8442 237.116,106.3412 236.113,112.0572 L233.481,127.0612 Z"/>
          <polygon fill="#0048FA" points="236.556 157.3 206.138 139.429 211.297 110.013 241.715 127.885"/>
          <polygon stroke="#121212" points="236.556 157.3 206.138 139.429 211.297 110.013 241.715 127.885"/>
          <path fill="#FFF" d="M226.941,131.985 C226.639,133.71 225.29,134.458 223.926,133.657 C222.564,132.856 221.705,130.81 222.006,129.086 C222.309,127.362 223.659,126.614 225.021,127.415 C226.384,128.215 227.244,130.261 226.941,131.985"/>
          <polygon fill="#FFF" points="223.901 141.336 221.505 139.93 222.977 131.54 225.372 132.947"/>
          <line x1="204.574" x2="178.246" y1="120.625" y2="105.156" stroke="#000"/>
          <line x1="206.147" x2="194.439" y1="111.654" y2="104.775" stroke="#000"/>
          <polyline stroke="#000" points="207.72 102.683 196.012 95.804 197.8 85.607 187.672 79.656"/>
          <polyline stroke="#000" points="202.993 129.637 187.18 120.346 185.498 129.932 169.228 120.372"/>
          <line x1="243.808" x2="258.507" y1="143.677" y2="152.314" stroke="#000"/>
          <line x1="245.381" x2="268.868" y1="134.707" y2="148.507" stroke="#000"/>
          <polyline stroke="#000" points="246.955 125.735 264.803 136.222 266.591 126.025 276.719 131.976"/>
          <polyline stroke="#000" points="242.227 152.69 251.613 158.205 249.931 167.791 276.795 183.575"/>
          <path fill="#FFF" d="M80.1187,387.32 C78.8037,387.228 77.8017,387.609 76.9367,387.534 C75.6277,387.42 74.2917,387.28 72.5007,386.264 C69.1787,384.38 67.0997,369.421 67.6367,360.089 C68.1557,350.757 69.0457,342.035 69.8567,336.025 C70.6737,329.972 72.3627,310.511 72.3627,305.906 C72.3627,302.72 73.6877,298.399 74.5457,294.472 C75.6777,292.307 76.5737,289.759 77.1807,286.875 C78.8037,279.044 83.1607,245.73 81.8287,232.626 L81.8277,232.596 C80.4967,219.522 66.0977,224.027 66.0977,224.027 C66.0977,224.027 61.2227,223.847 57.3647,226.71 C55.7577,222.311 52.5157,220.317 47.7127,221.374 C39.7957,223.115 36.1137,221.026 32.4307,231.125 C32.4307,231.125 39.0537,270.855 36.8447,282 C36.5827,283.318 36.4777,284.544 36.4987,285.675 C34.0957,288.515 28.7627,295.624 25.2107,306.424 C20.5077,320.732 18.0897,349.191 18.0897,349.191 C18.0897,349.191 17.0217,364.513 12.3747,368.74 L12.3687,368.752 C12.1277,368.963 11.8737,369.138 11.6137,369.298 C6.2087,372.442 5.3607,372.944 6.5117,376.351 C7.6627,379.759 9.6147,380.562 9.4677,386.34 C9.3197,392.116 12.2447,394.684 16.3157,395.972 C20.3767,397.256 24.9737,395.54 24.9737,395.54 C24.9737,395.54 26.4207,394.94 24.2337,392.724 C23.1797,391.67 22.1877,391.254 21.4867,390.735 C20.7107,390.168 20.2737,389.478 20.5147,387.696 C20.9807,384.28 23.0917,373.465 23.6677,367.114 C24.2617,360.757 30.3827,346.977 30.3827,346.977 C35.9107,332.291 46.3217,300.632 46.3217,300.632 C52.5367,294.251 50.6007,288.965 50.6007,288.965 L50.5967,288.962 C53.1237,283.743 54.8997,273.247 56.1417,262.799 C57.7337,274.235 58.9497,285.211 57.9207,291.117 C57.5797,293.076 57.5527,294.759 57.7737,296.185 C57.5797,298.432 57.1197,301.459 56.0557,304.713 C52.7497,314.822 54.1007,333.791 55.9367,343.919 C57.6657,353.373 58.2427,363.072 54.9837,368.9 C54.7547,369.314 54.5107,369.712 54.2197,370.079 C49.8747,375.739 50.0437,379.549 53.4387,381.399 C56.8497,383.235 60.1247,386.386 61.1807,390.073 C62.2357,393.76 66.7027,397.049 70.1297,396.912 C73.5407,396.774 82.6277,388.895 82.6277,388.895 C82.6277,388.895 83.8067,387.58 80.1187,387.32"/>
          <path stroke="#171717" d="M80.1187,387.32 C78.8037,387.228 77.8017,387.609 76.9367,387.534 C75.6277,387.42 74.2917,387.28 72.5007,386.264 C69.1787,384.38 67.0997,369.421 67.6367,360.089 C68.1557,350.757 69.0457,342.035 69.8567,336.025 C70.6737,329.972 72.3627,310.511 72.3627,305.906 C72.3627,302.72 73.6877,298.399 74.5457,294.472 C75.6777,292.307 76.5737,289.759 77.1807,286.875 C78.8037,279.044 83.1607,245.73 81.8287,232.626 L81.8277,232.596 C80.4967,219.522 66.0977,224.027 66.0977,224.027 C66.0977,224.027 61.2227,223.847 57.3647,226.71 C55.7577,222.311 52.5157,220.317 47.7127,221.374 C39.7957,223.115 36.1137,221.026 32.4307,231.125 C32.4307,231.125 39.0537,270.855 36.8447,282 C36.5827,283.318 36.4777,284.544 36.4987,285.675 C34.0957,288.515 28.7627,295.624 25.2107,306.424 C20.5077,320.732 18.0897,349.191 18.0897,349.191 C18.0897,349.191 17.0217,364.513 12.3747,368.74 L12.3687,368.752 C12.1277,368.963 11.8737,369.138 11.6137,369.298 C6.2087,372.442 5.3607,372.944 6.5117,376.351 C7.6627,379.759 9.6147,380.562 9.4677,386.34 C9.3197,392.116 12.2447,394.684 16.3157,395.972 C20.3767,397.256 24.9737,395.54 24.9737,395.54 C24.9737,395.54 26.4207,394.94 24.2337,392.724 C23.1797,391.67 22.1877,391.254 21.4867,390.735 C20.7107,390.168 20.2737,389.478 20.5147,387.696 C20.9807,384.28 23.0917,373.465 23.6677,367.114 C24.2617,360.757 30.3827,346.977 30.3827,346.977 C35.9107,332.291 46.3217,300.632 46.3217,300.632 C52.5367,294.251 50.6007,288.965 50.6007,288.965 L50.5967,288.962 C53.1237,283.743 54.8997,273.247 56.1417,262.799 C57.7337,274.235 58.9497,285.211 57.9207,291.117 C57.5797,293.076 57.5527,294.759 57.7737,296.185 C57.5797,298.432 57.1197,301.459 56.0557,304.713 C52.7497,314.822 54.1007,333.791 55.9367,343.919 C57.6657,353.373 58.2427,363.072 54.9837,368.9 C54.7547,369.314 54.5107,369.712 54.2197,370.079 C49.8747,375.739 50.0437,379.549 53.4387,381.399 C56.8497,383.235 60.1247,386.386 61.1807,390.073 C62.2357,393.76 66.7027,397.049 70.1297,396.912 C73.5407,396.774 82.6277,388.895 82.6277,388.895 C82.6277,388.895 83.8067,387.58 80.1187,387.32 Z"/>
          <path fill="#0A0A0A" d="M82.6275,388.8952 C82.6275,388.8952 73.5405,396.7742 70.1295,396.9122 C66.7025,397.0492 62.2355,393.7602 61.1805,390.0732 C60.1245,386.3862 56.8505,383.2352 53.4395,381.3992 C50.0425,379.5482 49.8745,375.7392 54.2195,370.0792 C54.5105,369.7112 54.7545,369.3142 54.9835,368.9012 C56.6365,368.5482 58.5335,368.9012 60.1705,371.1032 C64.0705,376.3512 68.9365,391.9402 73.2045,391.2202 C77.4725,390.4862 79.2165,388.7272 76.9375,387.5342 C77.7935,387.3962 78.8035,387.2282 80.1185,387.3202 C83.8065,387.5802 82.6275,388.8952 82.6275,388.8952"/>
          <g transform="translate(51 379)">
            <mask id="img3-b" fill="#fff">
              <use xlink:href="#img3-a"/>
            </mask>
            <path fill="#0A0A0A" d="M0.4556,0.4411 C0.4556,0.4411 4.7086,12.7811 3.8866,19.1771 L5.2576,20.0001 L6.2626,19.5431 L6.2626,9.4911 C6.2626,9.4911 6.4446,4.5561 7.8156,4.6481 L3.2466,0.4411 L0.4556,0.4411 Z" mask="url(#img3-b)"/>
          </g>
          <path fill="#0A0A0A" d="M26.2593,396.4274 C26.2593,396.4274 21.2573,398.2944 16.8403,396.8984 C12.4103,395.4954 9.2303,392.7014 9.3903,386.4174 C9.5503,380.1344 7.4263,379.2604 6.1743,375.5534 C4.9223,371.8454 5.8443,371.2994 11.7253,367.8794 C12.0073,367.7054 12.2833,367.5144 12.5463,367.2844 C13.7233,368.3384 14.8743,370.0274 15.1863,372.6704 C15.8583,378.5654 14.1853,391.3514 18.3393,393.3304 C22.0793,395.1134 22.7923,394.3284 22.4663,391.2004 C23.2293,391.7644 24.3073,392.2164 25.4543,393.3644 C27.8323,395.7754 26.2593,396.4274 26.2593,396.4274"/>
          <g transform="translate(0 373)">
            <mask id="img3-d" fill="#fff">
              <use xlink:href="#img3-c"/>
            </mask>
            <path fill="#0A0A0A" d="M5.7017,0.5036 C5.7017,0.5036 2.8507,11.0326 -0.0003,17.0156 L0.7537,18.9136 C0.7537,18.9136 6.2447,5.1796 8.8837,8.5726 C8.8837,8.5726 10.8007,2.6496 5.7017,0.5036" mask="url(#img3-d)"/>
          </g>
          <path fill="#FFF" d="M40.7759,211.322 C40.7759,211.322 38.5859,199.656 37.9949,189.861 C37.7109,185.147 37.7019,181.599 37.7679,179.175 C37.7839,179.125 37.7939,179.092 37.7939,179.092 C37.7939,179.092 37.8679,177.625 37.9989,175.254 C38.2969,169.859 38.8939,159.767 39.5979,151.508 C40.6129,139.62 40.9509,127.29 33.8029,126.545 C26.6569,125.799 25.3529,137.515 25.3529,137.515 C25.3529,137.515 24.6489,159.038 24.7229,167.33 C24.7539,170.701 25.0449,173.506 25.7049,175.79 C24.7859,177.962 24.5199,180.236 24.8539,181.875 C25.5819,185.449 32.9649,213.465 32.9649,213.465 C32.9649,213.465 35.3229,216.836 38.1179,215.303 C40.9119,213.77 40.7759,211.322 40.7759,211.322"/>
          <path stroke="#171717" d="M40.7759,211.322 C40.7759,211.322 38.5859,199.656 37.9949,189.861 C37.7109,185.147 37.7019,181.599 37.7679,179.175 C37.7839,179.125 37.7939,179.092 37.7939,179.092 C37.7939,179.092 37.8679,177.625 37.9989,175.254 C38.2969,169.859 38.8939,159.767 39.5979,151.508 C40.6129,139.62 40.9509,127.29 33.8029,126.545 C26.6569,125.799 25.3529,137.515 25.3529,137.515 C25.3529,137.515 24.6489,159.038 24.7229,167.33 C24.7539,170.701 25.0449,173.506 25.7049,175.79 C24.7859,177.962 24.5199,180.236 24.8539,181.875 C25.5819,185.449 32.9649,213.465 32.9649,213.465 C32.9649,213.465 35.3229,216.836 38.1179,215.303 C40.9119,213.77 40.7759,211.322 40.7759,211.322 Z"/>
          <path fill="#FFD0CF" d="M33.522,212.7253 L33.656,227.6933 L38.296,235.3453 C38.296,235.3453 41.427,236.2963 43.097,235.3023 C44.767,234.3083 45.575,230.8043 45.575,230.8043 L40.776,211.3223 L33.522,212.7253 Z"/>
          <path fill="#FFD0CF" d="M81.6461,231.9284 L81.6461,231.9574 C81.6461,234.2824 81.4791,236.1664 81.0031,237.2264 C79.0201,241.8474 72.5951,244.6724 65.5281,245.6724 C61.7011,246.2324 57.5931,245.0844 54.6321,243.8774 C52.0901,242.8774 50.3861,241.8474 50.3861,241.8474 C43.3461,242.9064 33.9321,239.3454 31.9201,229.0744 C30.6921,222.9514 32.5071,215.5654 34.1561,210.6204 C35.2461,207.2944 36.2791,205.0874 36.2791,205.0874 L79.6351,211.9454 C79.6351,211.9454 79.6911,212.2684 79.7751,212.7984 C80.2211,215.7414 81.6461,225.4534 81.6461,231.9284"/>
          <path fill="#0A0A0A" d="M82.0172,228.611 C81.5152,216.692 76.1502,194.475 76.1502,194.475 L38.1972,192.565 L31.5572,215.865 C31.0212,217.47 30.6672,219.185 30.4862,220.886 C30.0792,224.685 30.5132,228.524 30.9482,232.32 C32.1802,243.091 30.8572,271.754 32.0902,282.525 C32.1432,282.993 32.2042,283.481 32.4542,283.869 C32.6882,284.23 33.0582,284.457 33.4162,284.669 C42.5582,290.079 52.6932,293.516 63.0572,294.823 C63.6012,294.796 69.6982,294.464 73.4812,292.696 C74.9082,292.029 76.4022,290.291 77.7322,288.343 C78.9042,279.317 81.7262,252.273 81.9272,243.151 C82.0282,238.63 82.1152,234.033 81.7792,229.52 L82.0172,228.611 Z"/>
          <path fill="#FFF" d="M76.4429,181.1042 C76.9139,185.1662 78.1789,192.1412 79.4159,198.5282 C79.3569,198.6162 79.2969,198.6742 79.2389,198.7632 C76.3549,202.5892 71.5569,204.6202 66.8189,205.0902 C62.0509,205.5912 57.2549,204.7082 52.6039,203.6492 C46.2169,202.1772 39.6539,200.2052 34.5919,196.2032 C35.4459,191.6702 36.0049,186.9322 35.7689,183.1352 C35.0919,172.5402 30.7369,152.0262 30.7369,152.0262 C30.7369,152.0262 22.6719,133.3082 37.1239,126.6862 L75.7959,138.2522 C75.7959,138.2522 76.9219,142.9322 78.2759,148.9952 C79.5999,155.0582 75.4419,172.2162 76.4429,181.1042"/>
          <path stroke="#171717" d="M76.4429,181.1042 C76.9139,185.1662 78.1789,192.1412 79.4159,198.5282 C79.3569,198.6162 79.2969,198.6742 79.2389,198.7632 C76.3549,202.5892 71.5569,204.6202 66.8189,205.0902 C62.0509,205.5912 57.2549,204.7082 52.6039,203.6492 C46.2169,202.1772 39.6539,200.2052 34.5919,196.2032 C35.4459,191.6702 36.0049,186.9322 35.7689,183.1352 C35.0919,172.5402 30.7369,152.0262 30.7369,152.0262 C30.7369,152.0262 22.6719,133.3082 37.1239,126.6862 L75.7959,138.2522 C75.7959,138.2522 76.9219,142.9322 78.2759,148.9952 C79.5999,155.0582 75.4419,172.2162 76.4429,181.1042 Z"/>
          <path fill="#FFF" d="M62.7759,124.487 C62.7759,124.487 67.8889,124.006 67.7129,118.646 C67.5389,113.286 67.1369,93.841 59.1499,91.3 C51.1639,88.761 43.6109,89.547 39.1099,95.255 C34.6099,100.962 34.6219,110.139 41.5749,116.338 C48.5279,122.536 57.6129,124.301 62.7759,124.487"/>
          <path stroke="#171717" d="M62.7759,124.487 C62.7759,124.487 67.8889,124.006 67.7129,118.646 C67.5389,113.286 67.1369,93.841 59.1499,91.3 C51.1639,88.761 43.6109,89.547 39.1099,95.255 C34.6099,100.962 34.6219,110.139 41.5749,116.338 C48.5279,122.536 57.6129,124.301 62.7759,124.487 Z"/>
          <path fill="#FFD0CF" d="M60.0699,133.1276 C60.2009,133.4366 60.3429,133.7846 60.2159,134.0946 C60.1009,134.3696 59.8099,134.5216 59.5369,134.6416 C56.2729,136.0676 52.4369,136.0816 49.1279,134.7646 C45.8179,133.4466 43.0609,130.8346 41.4829,127.6416 C43.0979,126.8016 43.6189,124.7716 43.8639,122.9666 C44.1249,121.0506 44.2669,119.1176 44.2899,117.1846 C44.2939,116.8856 44.3029,116.5616 44.4939,116.3306 C44.7299,116.0446 45.1519,116.0136 45.5229,116.0296 C47.5899,116.1206 49.5369,116.9816 51.3929,117.8936 C53.0369,118.7006 54.6489,119.5666 56.2429,120.4706 C57.4969,121.1816 59.1539,121.3016 59.2289,122.8496 C59.3129,124.5576 58.6899,126.2996 58.8349,128.0756 C58.9749,129.8116 59.3869,131.5246 60.0699,133.1276"/>
          <path fill="#0A0A0A" d="M64.5953,98.7712 C63.1483,100.2232 60.9943,100.7932 59.5393,102.2382 C56.6583,105.0962 57.7153,110.1472 60.2513,113.3152 C61.1463,114.4312 62.2133,115.4642 62.7093,116.8072 C63.8683,119.9452 61.5223,123.4482 62.2493,126.7132 C62.9503,129.8572 66.2143,131.7352 67.6563,134.6152 C69.3933,138.0882 68.1033,142.4592 65.5743,145.4072 C60.8473,150.9172 51.8853,152.1622 45.8353,148.1472 C44.4233,147.2092 43.1293,146.0132 41.5073,145.5182 C39.5443,144.9192 37.4233,145.4442 35.3793,145.2482 C32.4953,144.9702 29.8063,143.1442 28.4863,140.5652 C27.1653,137.9862 27.2553,134.7362 28.7173,132.2342 C30.1243,129.8242 32.6163,128.2102 34.1073,125.8502 C36.3523,122.2962 35.9643,117.7132 35.0883,113.6022 C34.2133,109.4922 32.9213,105.3092 33.6203,101.1652 C34.3323,96.9412 37.1323,93.2242 40.7403,90.9152 C44.3483,88.6052 48.6943,87.6192 52.9773,87.5910205 C57.8583,87.5602 71.7973,91.5452 64.5953,98.7712"/>
          <path fill="#FFF" d="M157.8345,128.2087 C159.0225,127.2587 157.8415,126.0447 157.8415,126.0447 L152.4265,128.7697 L148.9395,132.9467 L149.4625,131.7907 C149.8515,130.0437 148.0365,129.8997 148.0365,129.8997 C147.2775,132.7317 143.6315,136.9567 143.5175,137.0807 C143.4195,137.1867 142.1075,140.0647 141.7275,140.9037 L137.8725,145.1537 L138.0035,145.2007 C128.9015,153.4837 111.4195,161.5817 111.4195,161.5817 L96.2025,151.6957 L84.9325,143.0037 C84.9325,143.0037 78.3515,137.3497 75.1635,138.0277 C71.9755,138.7067 68.7775,140.4787 68.2895,144.2967 C67.8015,148.1137 71.1175,156.2967 80.1905,161.1377 L80.1955,161.1377 C92.4565,169.0097 112.7635,174.2707 112.7635,174.2707 C123.1715,167.5747 139.2915,153.3107 144.0275,149.0587 L144.0575,149.0927 L153.5255,142.3437 C156.3865,139.5177 157.0845,137.6747 157.0845,137.6747 C157.1395,135.9787 155.7045,136.2937 155.7045,136.2937 C155.5565,133.7027 153.5525,134.3797 153.5525,134.3797 C153.2645,133.3917 152.7455,133.0037 152.2695,132.8697 L154.5325,130.0197 L157.8345,128.2087 Z"/>
          <path stroke="#171717" d="M157.8345,128.2087 C159.0225,127.2587 157.8415,126.0447 157.8415,126.0447 L152.4265,128.7697 L148.9395,132.9467 L149.4625,131.7907 C149.8515,130.0437 148.0365,129.8997 148.0365,129.8997 C147.2775,132.7317 143.6315,136.9567 143.5175,137.0807 C143.4195,137.1867 142.1075,140.0647 141.7275,140.9037 L137.8725,145.1537 L138.0035,145.2007 C128.9015,153.4837 111.4195,161.5817 111.4195,161.5817 L96.2025,151.6957 L84.9325,143.0037 C84.9325,143.0037 78.3515,137.3497 75.1635,138.0277 C71.9755,138.7067 68.7775,140.4787 68.2895,144.2967 C67.8015,148.1137 71.1175,156.2967 80.1905,161.1377 L80.1955,161.1377 C92.4565,169.0097 112.7635,174.2707 112.7635,174.2707 C123.1715,167.5747 139.2915,153.3107 144.0275,149.0587 L144.0575,149.0927 L153.5255,142.3437 C156.3865,139.5177 157.0845,137.6747 157.0845,137.6747 C157.1395,135.9787 155.7045,136.2937 155.7045,136.2937 C155.5565,133.7027 153.5525,134.3797 153.5525,134.3797 C153.2645,133.3917 152.7455,133.0037 152.2695,132.8697 L154.5325,130.0197 L157.8345,128.2087 Z"/>
        </g>
      </g>
    </g>
    <rect width="1799" height="50" x="10" y="1924" fill="#D8D8D8" opacity="0" transform="translate(0 574)"/>
  </g>
</svg>
