<svg xmlns="http://www.w3.org/2000/svg" width="494" height="412" viewBox="0 0 494 412">
  <g fill="none" fill-rule="evenodd" transform="translate(-924 -2995)">
    <rect width="1803" height="6217" fill="#FFF"/>
    <g transform="translate(932 2995)">
      <path fill="#F8F8F8" d="M224.728528,84.8545584 C170.393126,105.761877 126.771157,38.8241629 45.8196341,117.256929 C-47.6748532,207.843459 45.0869844,363.349743 216.696593,357.858383 C326.284257,354.353615 435.840521,308.588796 470.295994,192.611522 C504.751468,76.6321563 411.962417,2.04919771 338.096665,14.315884 C263.437557,26.7122217 274.785256,65.592975 224.728528,84.8545584" transform="rotate(3 243.207 185.5)"/>
      <g transform="translate(52 55)">
        <path fill="#FFF" d="M243.749066,83.2597021 C243.749066,83.2597021 244.789891,98.7628914 242.63202,111.708772 C241.546513,118.225827 238.47135,122.803172 238.47135,122.803172 C238.47135,122.803172 192.15203,124.616464 169.190811,117.235561 L166,108.340288 L222.759105,104.579386 C222.759105,104.579386 223.502927,87.2694882 225.478128,81 L243.749066,83.2597021 Z"/>
        <path stroke="#171717" d="M243.749066,83.2597021 C243.749066,83.2597021 244.789891,98.7628914 242.63202,111.708772 C241.546513,118.225827 238.47135,122.803172 238.47135,122.803172 C238.47135,122.803172 192.15203,124.616464 169.190811,117.235561 L166,108.340288 L222.759105,104.579386 C222.759105,104.579386 223.502927,87.2694882 225.478128,81 L243.749066,83.2597021 Z"/>
        <path fill="#0A0A0A" d="M250.812507,300 C250.812507,300 251.487974,303.721907 250.274757,305.896377 C249.061541,308.069588 245.449434,307.147925 240.416881,311.898519 C235.384327,316.651631 230.898705,317.232077 227.971246,316.936188 C225.042476,316.641558 223.68892,315.214995 224.060098,311.892224 L239.317772,302.780098 L250.812507,300 Z"/>
        <path fill="#0A0A0A" d="M249.826811 291L250.925934 298.71489C250.925934 298.71489 251.751268 303.309886 247.891774 304.794341 244.033603 306.281469 241.754676 306.801228 239.052501 309.995946 236.350327 313.189328 231.627142 315.674555 226.742594 314.835457 226.742594 314.835457 223.281218 314.26626 224.13565 311.094256 224.992728 307.920916 237.821114 300.617558 239.639758 294.17334L249.826811 291zM274 336.727098C274 336.727098 274.026433 344.3397 271.10727 348.2617 268.188107 352.185008 263.182695 348.523167 262.546772 346.494186 261.910849 344.465204 261.850033 341.688428 262.258558 336.972876L268.395675 334 274 336.727098z"/>
        <path fill="#0A0A0A" d="M272.425966,311 L273.656398,319.667799 C273.656398,319.667799 274.416777,326.688362 273.67525,332.722767 C272.933723,338.757173 271.170397,346.627305 267.699046,346.966041 C264.228951,347.304776 261.925191,345.178119 262.001857,337.481452 C262.078523,329.784785 263.961248,324.288531 263.301414,319.893168 C262.642838,315.496438 263.809172,311.639226 263.809172,311.639226 L272.425966,311 Z"/>
        <path fill="#171717" d="M275.006958,229.296202 C275.006958,229.296202 285.51458,189.866203 284.980294,170.750648 C284.446008,151.636427 278.768546,138.932731 278.768546,138.932731 L256.270525,139.707542 C256.332588,139.218118 256.370366,138.932731 256.370366,138.932731 L228.904565,135 C228.904565,135 224.735516,151.636427 226.386945,172.973728 C228.037025,194.31103 228.904565,216.515159 228.904565,216.515159 C228.904565,216.515159 228.47012,225.375473 230.05274,231.401927 C230.05274,231.401927 235.682979,270.325165 236.581551,295.219128 C236.581551,295.219128 237.180599,298.114333 241.178298,299.541265 C245.626633,301.126893 250.595761,299.253212 253.207825,295.356487 L254.49227,293.440131 C254.49227,293.440131 253.354889,243.297473 249.465126,224.139243 C249.465126,224.139243 250.83592,211.87963 252.168936,198.567821 C252.813857,214.770834 253.010841,232.54614 253.582905,235.652051 C254.482826,240.542294 257.550922,249.431947 257.550922,249.431947 L261.317907,314.853446 C261.85759,316.709791 265.924099,318.795513 265.924099,318.795513 C270.619338,320.147764 277.546165,314.350686 277.546165,314.350686 C277.546165,314.350686 280.858468,273.59244 279.390531,257.734824 C277.790372,240.464946 275.006958,229.296202 275.006958,229.296202"/>
        <path stroke="#FFF" d="M275.006958,229.296202 C275.006958,229.296202 285.51458,189.866203 284.980294,170.750648 C284.446008,151.636427 278.768546,138.932731 278.768546,138.932731 L256.270525,139.707542 C256.332588,139.218118 256.370366,138.932731 256.370366,138.932731 L228.904565,135 C228.904565,135 224.735516,151.636427 226.386945,172.973728 C228.037025,194.31103 228.904565,216.515159 228.904565,216.515159 C228.904565,216.515159 228.47012,225.375473 230.05274,231.401927 C230.05274,231.401927 235.682979,270.325165 236.581551,295.219128 C236.581551,295.219128 237.180599,298.114333 241.178298,299.541265 C245.626633,301.126893 250.595761,299.253212 253.207825,295.356487 L254.49227,293.440131 C254.49227,293.440131 253.354889,243.297473 249.465126,224.139243 C249.465126,224.139243 250.83592,211.87963 252.168936,198.567821 C252.813857,214.770834 253.010841,232.54614 253.582905,235.652051 C254.482826,240.542294 257.550922,249.431947 257.550922,249.431947 L261.317907,314.853446 C261.85759,316.709791 265.924099,318.795513 265.924099,318.795513 C270.619338,320.147764 277.546165,314.350686 277.546165,314.350686 C277.546165,314.350686 280.858468,273.59244 279.390531,257.734824 C277.790372,240.464946 275.006958,229.296202 275.006958,229.296202 Z"/>
        <path stroke="#FFF" stroke-width=".5" d="M228.042787,90 C228.042787,90 227.691863,80.8410229 229,75"/>
        <path fill="#FFF" d="M303.906036,117.68196 C303.896814,117.038679 303.842799,116.622673 303.842799,116.622673 C303.842799,116.622673 301.035343,70.8460509 294.90268,62.5272576 C288.771334,54.2097934 284.091802,59.8983116 284.091802,59.8983116 C275.104256,66.0413796 278.876074,76.9824734 278.876074,76.9824734 L288.087585,117.615505 C288.078363,117.74044 288.074411,117.830819 288.074411,117.830819 L282.226313,155.422886 C282.002349,155.84155 281.886415,156.143254 281.886415,156.143254 L281.682212,156.591159 C281.078827,156.883559 280.471489,157.445765 280.172431,157.734179 C277.459831,160.348505 276.284678,164.143065 274.432363,167.433899 C273.307273,169.431526 271.908157,171.270991 270.286393,172.885839 C270.162554,173.010774 270.028176,173.146341 270.004462,173.321782 C269.954399,173.668675 270.335138,173.913228 270.66845,174.002277 C271.802762,174.307969 273.014803,173.981012 274.08456,173.493235 C275.197794,172.985521 276.216171,172.299709 277.139694,171.49295 L276.179283,182.759671 C276.030413,184.502112 277.392642,186 279.126387,186 L282.455547,186 C283.670223,186 284.759742,185.251721 285.206353,184.111359 L289.905646,172.120281 L290.623649,158.385434 C290.884501,157.965441 291.145353,157.52684 291.412793,157.052354 C293.038508,154.166893 303.054972,123.640284 303.054972,123.640284 C303.054972,123.640284 304.353964,120.76014 303.906036,117.68196"/>
        <path stroke="#171717" d="M303.906036,117.68196 C303.896814,117.038679 303.842799,116.622673 303.842799,116.622673 C303.842799,116.622673 301.035343,70.8460509 294.90268,62.5272576 C288.771334,54.2097934 284.091802,59.8983116 284.091802,59.8983116 C275.104256,66.0413796 278.876074,76.9824734 278.876074,76.9824734 L288.087585,117.615505 C288.078363,117.74044 288.074411,117.830819 288.074411,117.830819 L282.226313,155.422886 C282.002349,155.84155 281.886415,156.143254 281.886415,156.143254 L281.682212,156.591159 C281.078827,156.883559 280.471489,157.445765 280.172431,157.734179 C277.459831,160.348505 276.284678,164.143065 274.432363,167.433899 C273.307273,169.431526 271.908157,171.270991 270.286393,172.885839 C270.162554,173.010774 270.028176,173.146341 270.004462,173.321782 C269.954399,173.668675 270.335138,173.913228 270.66845,174.002277 C271.802762,174.307969 273.014803,173.981012 274.08456,173.493235 C275.197794,172.985521 276.216171,172.299709 277.139694,171.49295 L276.179283,182.759671 C276.030413,184.502112 277.392642,186 279.126387,186 L282.455547,186 C283.670223,186 284.759742,185.251721 285.206353,184.111359 L289.905646,172.120281 L290.623649,158.385434 C290.884501,157.965441 291.145353,157.52684 291.412793,157.052354 C293.038508,154.166893 303.054972,123.640284 303.054972,123.640284 C303.054972,123.640284 304.353964,120.76014 303.906036,117.68196 Z"/>
        <path fill="#FFF" d="M295.254329,64.2847346 C289.33508,56.0671795 280.183523,55.8591068 280.183523,55.8591068 C276.540192,53.1054356 271.889925,50.6441198 266.539988,50.1371072 C253.307475,48.8860371 239.713156,56.6084319 239.713156,56.6084319 C239.713156,56.6084319 231.486066,58.7313003 227.615277,67.7692941 C223.745818,76.804654 220.772892,91.0444656 221.013652,90.3254295 C221.15199,89.9198194 224.446816,90.3978599 227.278744,90.8890695 C227.576702,107.74691 229.470861,129.287703 229.470861,129.287703 C229.470861,129.287703 228.404067,135.772197 232.060699,139.54121 C235.716001,143.31154 255.201635,146.177149 263.430055,146.931742 C271.659805,147.685018 277.743995,141.955117 277.743995,141.955117 C278.077867,135.180902 281.34476,118.571958 284.402817,103.788261 C286.081489,103.863325 288.407953,103.887029 291.523207,103.760605 C299.236852,103.445863 308,96.0882534 308,96.0882534 C308,96.0882534 301.174907,72.5009729 295.254329,64.2847346"/>
        <path stroke="#171717" d="M295.254329,64.2847346 C289.33508,56.0671795 280.183523,55.8591068 280.183523,55.8591068 C276.540192,53.1054356 271.889925,50.6441198 266.539988,50.1371072 C253.307475,48.8860371 239.713156,56.6084319 239.713156,56.6084319 C239.713156,56.6084319 231.486066,58.7313003 227.615277,67.7692941 C223.745818,76.804654 220.772892,91.0444656 221.013652,90.3254295 C221.15199,89.9198194 224.446816,90.3978599 227.278744,90.8890695 C227.576702,107.74691 229.470861,129.287703 229.470861,129.287703 C229.470861,129.287703 228.404067,135.772197 232.060699,139.54121 C235.716001,143.31154 255.201635,146.177149 263.430055,146.931742 C271.659805,147.685018 277.743995,141.955117 277.743995,141.955117 C278.077867,135.180902 281.34476,118.571958 284.402817,103.788261 C286.081489,103.863325 288.407953,103.887029 291.523207,103.760605 C299.236852,103.445863 308,96.0882534 308,96.0882534 C308,96.0882534 301.174907,72.5009729 295.254329,64.2847346 Z"/>
        <path fill="#FFBDBD" d="M242,46.0370233 C242.439049,46.8326546 242.824493,47.641244 243.155056,48.4640874 C243.514974,49.3141429 243.820011,50.1771566 244.085482,51 C253.265943,45.2673084 252.999195,38.3359867 252.999195,38.3359867 L246.251372,37 L242,46.0370233 Z"/>
        <path fill="#FFF" d="M257.734527,32.3212216 C260.091406,29.5123253 261.005566,26.1916386 260.804897,23.5692085 C260.516353,19.7883071 259.362177,14.9904372 253.449649,12.2278268 C247.538432,9.46521647 240.038912,12.2278268 240.038912,12.2278268 C240.038912,12.2278268 234.414928,15.7164655 232.250848,19.0622789 C230.08808,22.4054473 231.386528,29.2398994 231.386528,29.2398994 C231.818032,31.275159 232.107888,34.0390918 232.107888,34.0390918 C231.963616,40.0007229 235.28056,45.0895332 236.433424,47.9976137 C237.5876,50.9056942 240.614689,49.306845 240.614689,49.306845 L243.121087,47.8256944 C243.211584,48.0293526 243.30864,48.2303659 243.391269,48.4366691 C243.76113,49.3042001 244.074593,50.1849557 244.347398,51.0247152 C245.644535,55.0992018 245.91734,58.6089998 245.91734,58.6089998 L246.335729,61 L254.357251,57.8776816 C258.949035,56.0910437 262.972911,53.0798117 266,49.1653423 C259.569404,46.7756645 258.079468,36.627138 257.734527,32.3212216"/>
        <path stroke="#171717" d="M257.734527,32.3212216 C260.091406,29.5123253 261.005566,26.1916386 260.804897,23.5692085 C260.516353,19.7883071 259.362177,14.9904372 253.449649,12.2278268 C247.538432,9.46521647 240.038912,12.2278268 240.038912,12.2278268 C240.038912,12.2278268 234.414928,15.7164655 232.250848,19.0622789 C230.08808,22.4054473 231.386528,29.2398994 231.386528,29.2398994 C231.818032,31.275159 232.107888,34.0390918 232.107888,34.0390918 C231.963616,40.0007229 235.28056,45.0895332 236.433424,47.9976137 C237.5876,50.9056942 240.614689,49.306845 240.614689,49.306845 L243.121087,47.8256944 C243.211584,48.0293526 243.30864,48.2303659 243.391269,48.4366691 C243.76113,49.3042001 244.074593,50.1849557 244.347398,51.0247152 C245.644535,55.0992018 245.91734,58.6089998 245.91734,58.6089998 L246.335729,61 L254.357251,57.8776816 C258.949035,56.0910437 262.972911,53.0798117 266,49.1653423 C259.569404,46.7756645 258.079468,36.627138 257.734527,32.3212216 Z"/>
        <path fill="#0A0A0A" d="M257.458426,38 C257.458426,38 258.369173,33.7324618 260.078295,31.3536634 C261.787416,28.9748651 263.373711,20.4748856 260.078295,15.2532282 C256.781572,10.0315709 246.162283,5.78223108 236.521688,12.3388753 C236.521688,12.3388753 229.929549,16.5882151 227,15.6171974 C227,15.6171974 227.733041,21.2028239 232.126058,20.7166651 C236.521688,20.2318062 244.824255,18.8955195 244.824255,18.8955195 C244.824255,18.8955195 245.186202,26.6662608 248.725965,29.7028033 C248.725965,29.7028033 253.129436,27.1992156 257.458426,38"/>
        <g transform="translate(245 52)">
          <path fill="#FFF" d="M0.963684211,10.8478308 C0.963684211,10.8478308 3.64789474,8.64306154 5.70973684,10.6935231 C7.77421053,12.7439846 9.97026316,16.7808308 9.97026316,16.7808308 C9.97026316,16.7808308 20.2492105,9.02229231 24.1702632,0.524907692"/>
          <path stroke="#171717" d="M0.963684211,10.8478308 C0.963684211,10.8478308 3.64789474,8.64306154 5.70973684,10.6935231 C7.77421053,12.7439846 9.97026316,16.7808308 9.97026316,16.7808308 C9.97026316,16.7808308 20.2492105,9.02229231 24.1702632,0.524907692"/>
        </g>
        <g transform="translate(240 56)">
          <path fill="#FFF" d="M5.60492,6.965925 C5.60492,6.965925 5.22832,4.2833 3.54412,6.520425 C1.86132,8.75755 0.09592,9.9703 0.09592,9.9703 C0.09592,9.9703 0.33252,2.39955 0.61252,0.04555"/>
          <path stroke="#171717" d="M5.60492,6.965925 C5.60492,6.965925 5.22832,4.2833 3.54412,6.520425 C1.86132,8.75755 0.09592,9.9703 0.09592,9.9703 C0.09592,9.9703 0.33252,2.39955 0.61252,0.04555"/>
        </g>
        <path fill="#FFF" d="M5.24146812,58.9401371 L180.757209,160.3705 C183.652521,162.043368 186,160.267188 186,156.403565 L186,112.083825 C186,108.220202 183.652521,103.731406 180.757209,102.059863 L5.24146812,0.629499516 C2.34615576,-1.04336836 0,0.732812021 0,4.59643482 L0,48.9161751 C0,52.7797979 2.34615576,57.2672692 5.24146812,58.9401371"/>
        <path stroke="#171717" d="M5.24146812,58.9401371 L180.757209,160.3705 C183.652521,162.043368 186,160.267188 186,156.403565 L186,112.083825 C186,108.220202 183.652521,103.731406 180.757209,102.059863 L5.24146812,0.629499516 C2.34615576,-1.04336836 0,0.732812021 0,4.59643482 L0,48.9161751 C0,52.7797979 2.34615576,57.2672692 5.24146812,58.9401371 Z"/>
        <polygon fill="#EDEDED" points="145 125.333 171 141 171 109.667 145 94"/>
        <polyline stroke="#0048FA" points="150 110 158.871 125 163 122.672"/>
        <line x1="135" x2="13" y1="94" y2="24" stroke="#0048FA"/>
        <line x1="63" x2="13" y1="64" y2="36" stroke="#0048FA"/>
        <line x1="25" x2="13" y1="52" y2="45" stroke="#0048FA"/>
        <line x1="135" x2="68" y1="105" y2="66" stroke="#0048FA"/>
        <line x1="88" x2="30" y1="88" y2="55" stroke="#0048FA"/>
        <line x1="135" x2="92" y1="115" y2="91" stroke="#0048FA"/>
        <path fill="#FFF" d="M31.2415054,138.94083 L206.758495,240.369724 C209.652504,242.043914 212,240.267736 212,236.404118 L212,192.083117 C212,188.2195 209.652504,183.730711 206.758495,182.05917 L31.2415054,80.6302764 C28.3461725,78.9560864 26,80.7322643 26,84.5958815 L26,128.916883 C26,132.7805 28.3461725,137.26664 31.2415054,138.94083"/>
        <path stroke="#171717" d="M31.2415054,138.94083 L206.758495,240.369724 C209.652504,242.043914 212,240.267736 212,236.404118 L212,192.083117 C212,188.2195 209.652504,183.730711 206.758495,182.05917 L31.2415054,80.6302764 C28.3461725,78.9560864 26,80.7322643 26,84.5958815 L26,128.916883 C26,132.7805 28.3461725,137.26664 31.2415054,138.94083 Z"/>
        <polygon fill="#EDEDED" points="171 206.333 197 222 197 190.667 171 175"/>
        <polyline stroke="#0048FA" points="176 190 184.869 205 189 202.671"/>
        <line x1="161" x2="114" y1="174" y2="148" stroke="#0048FA"/>
        <line x1="160" x2="38" y1="186" y2="116" stroke="#0048FA"/>
        <line x1="68" x2="40" y1="143" y2="127" stroke="#0048FA"/>
        <line x1="109" x2="38" y1="146" y2="105" stroke="#0048FA"/>
        <line x1="99" x2="72" y1="161" y2="146" stroke="#0048FA"/>
        <line x1="161" x2="103" y1="197" y2="164" stroke="#0048FA"/>
        <polyline stroke="#6764FF" points="150 241 158.871 256 163 253.672"/>
        <path fill="#FFF" d="M5.24146812,189.940137 L180.757209,291.3705 C183.652521,293.043368 186,291.267188 186,287.403565 L186,243.083825 C186,239.220202 183.652521,234.731406 180.757209,233.059863 L5.24146812,131.6295 C2.34615576,129.956632 0,131.732812 0,135.596435 L0,179.916175 C0,183.779798 2.34615576,188.267269 5.24146812,189.940137"/>
        <path stroke="#171717" d="M5.24146812,189.940137 L180.757209,291.3705 C183.652521,293.043368 186,291.267188 186,287.403565 L186,243.083825 C186,239.220202 183.652521,234.731406 180.757209,233.059863 L5.24146812,131.6295 C2.34615576,129.956632 0,131.732812 0,135.596435 L0,179.916175 C0,183.779798 2.34615576,188.267269 5.24146812,189.940137 Z"/>
        <polygon fill="#EDEDED" points="145 257.334 171 273 171 241.667 145 226"/>
        <line x1="24" x2="13" y1="162" y2="155" stroke="#6764FF"/>
        <line x1="92" x2="13" y1="212" y2="166" stroke="#6764FF"/>
        <line x1="58" x2="13" y1="202" y2="177" stroke="#6764FF"/>
        <line x1="135" x2="29" y1="225" y2="164" stroke="#6764FF"/>
        <line x1="135" x2="98" y1="236" y2="215" stroke="#6764FF"/>
        <line x1="135" x2="63" y1="248" y2="206" stroke="#6764FF"/>
        <path stroke="#000" stroke-width=".75" d="M277,79 L281.752197,102.680287 C281.752197,102.680287 286.352128,103.093672 292,102.980325"/>
      </g>
    </g>
    <g fill="#D8D8D8" opacity="0" transform="translate(0 574)">
      <rect width="1799" height="50" x="10" y="2384"/>
      <rect width="1799" height="30" x="10" y="2628"/>
    </g>
  </g>
</svg>
