<svg xmlns="http://www.w3.org/2000/svg" xmlns:xlink="http://www.w3.org/1999/xlink" width="479" height="385" viewBox="0 0 479 385">
  <defs>
    <polygon id="img1-a" points="0 .032 81.816 .032 81.816 1.532 0 1.532"/>
  </defs>
  <g fill="none" fill-rule="evenodd" transform="translate(-969 -2562)">
    <rect width="1802" height="5750" fill="#FFF"/>
    <g transform="translate(969 2579)">
      <path fill="#F8F8F8" d="M225.02195,92.8545584 C170.686548,113.761877 127.064579,46.8241629 46.1130558,125.256929 C-47.3814316,215.843459 45.380406,371.349743 216.990015,365.858383 C326.577678,362.353615 436.133943,316.588796 470.589416,200.611522 C505.044889,84.6321563 412.255839,10.0491977 338.390086,22.315884 C263.730979,34.7122217 275.078677,73.592975 225.02195,92.8545584" transform="scale(-1 1) rotate(3 0 -9105.39)"/>
      <g transform="translate(62)">
        <path fill="#0048FA" d="M283.070134,75.8888798 L260.786528,84.5732134 C260.786528,84.5732134 248.812412,97.2493129 251.354114,107.62398 C253.898613,117.997245 244.263366,127.394995 273.28661,115.331396 C295.367383,106.152297 322,95.613642 322,95.613642 L305.868515,69 C305.868515,69 292.741751,72.380667 283.070134,75.8888798"/>
        <path fill="#FFF" d="M289.860589,61.3096357 C289.39638,53.5314213 287.632666,45.62109 279.118866,48.6695159 C271.922913,51.2395391 263.313167,53.9069117 262.3015,62.0161139 C262.006607,64.3900477 262.0828,67.0866252 262.449652,69.6886347 L252,88.6856681 C254.027566,99.9754131 271.667527,96.4930872 271.667527,96.4930872 L280.304081,81.0256637 C281.019444,80.9895053 281.722108,80.8893746 282.326003,80.6821595 C284.810723,79.8282665 290.480006,80.2997155 290.099043,68.7596436 C290.080701,68.1991894 290.066591,67.6081396 290.052481,66.9962293 C291.089545,66.4371658 291.744236,65.5568494 293,64.3010426 C291.977046,63.6738346 290.87931,62.4680931 289.860589,61.3096357"/>
        <path stroke="#231815" d="M289.860589,61.3096357 C289.39638,53.5314213 287.632666,45.62109 279.118866,48.6695159 C271.922913,51.2395391 263.313167,53.9069117 262.3015,62.0161139 C262.006607,64.3900477 262.0828,67.0866252 262.449652,69.6886347 L252,88.6856681 C254.027566,99.9754131 271.667527,96.4930872 271.667527,96.4930872 L280.304081,81.0256637 C281.019444,80.9895053 281.722108,80.8893746 282.326003,80.6821595 C284.810723,79.8282665 290.480006,80.2997155 290.099043,68.7596436 C290.080701,68.1991894 290.066591,67.6081396 290.052481,66.9962293 C291.089545,66.4371658 291.744236,65.5568494 293,64.3010426 C291.977046,63.6738346 290.87931,62.4680931 289.860589,61.3096357 Z"/>
        <path fill="#FFF" d="M366.72642,12.132499 C365.993675,11.3126567 364.118917,12.8981483 362.124613,15.1033849 C364.296126,11.912948 366.892378,7.54138242 365.761616,6.27410085 C364.896667,5.30557536 362.429806,7.69840306 360.061394,10.5053206 C362.480437,6.9244164 365.246866,2.18461658 364.000778,0.788105641 C363.043005,-0.284637091 360.358149,2.27771731 357.735175,5.35837876 C358.917974,3.10311781 359.608527,1.0799139 358.865937,0.248955149 C357.137446,-1.69087497 349.762177,8.23616399 347.319225,11.6461519 C346.443025,12.6619225 345.699029,13.7555087 345.263039,14.3571895 C346.236281,12.7036094 345.964842,7.37463485 343.135124,7.444113 C341.509302,7.48163121 341.306778,9.83971983 341.170355,11.0500293 C340.896103,13.5165039 341.119724,15.863476 341.662602,18.2173959 C341.934041,19.3915767 341.974828,20.1502782 341.606345,21.3244591 L341.381318,21.2063462 L306,70.0619961 L319.953097,94 C319.953097,94 354.919521,35.6202845 357.677511,29.8702723 L357.662041,29.8605453 C359.002359,27.4677176 360.300486,25.163822 361.443905,23.2754057 C363.497279,20.487942 368.175033,13.7555087 366.72642,12.132499"/>
        <path stroke="#231815" d="M366.72642,12.132499 C365.993675,11.3126567 364.118917,12.8981483 362.124613,15.1033849 C364.296126,11.912948 366.892378,7.54138242 365.761616,6.27410085 C364.896667,5.30557536 362.429806,7.69840306 360.061394,10.5053206 C362.480437,6.9244164 365.246866,2.18461658 364.000778,0.788105641 C363.043005,-0.284637091 360.358149,2.27771731 357.735175,5.35837876 C358.917974,3.10311781 359.608527,1.0799139 358.865937,0.248955149 C357.137446,-1.69087497 349.762177,8.23616399 347.319225,11.6461519 C346.443025,12.6619225 345.699029,13.7555087 345.263039,14.3571895 C346.236281,12.7036094 345.964842,7.37463485 343.135124,7.444113 C341.509302,7.48163121 341.306778,9.83971983 341.170355,11.0500293 C340.896103,13.5165039 341.119724,15.863476 341.662602,18.2173959 C341.934041,19.3915767 341.974828,20.1502782 341.606345,21.3244591 L341.381318,21.2063462 L306,70.0619961 L319.953097,94 C319.953097,94 354.919521,35.6202845 357.677511,29.8702723 L357.662041,29.8605453 C359.002359,27.4677176 360.300486,25.163822 361.443905,23.2754057 C363.497279,20.487942 368.175033,13.7555087 366.72642,12.132499 Z"/>
        <path fill="#FFF" d="M179.288208,313.340527 C181.94101,312.744171 198.752843,305 198.752843,305 L206,325.893612 C206,325.893612 179.673994,343.476955 179.265762,344 C179.265762,344 162.902843,341.724542 179.288208,313.340527"/>
        <path stroke="#231815" d="M179.288208,313.340527 C181.94101,312.744171 198.752843,305 198.752843,305 L206,325.893612 C206,325.893612 179.673994,343.476955 179.265762,344 C179.265762,344 162.902843,341.724542 179.288208,313.340527 Z"/>
        <path fill="#FFF" d="M170.693653,313.42861 C169.148703,316.166801 166.251397,331.580056 165.549401,334.888646 C164.255662,340.949306 163.13498,347.305574 163.009374,353.500853 C162.903307,358.855107 163.603908,366.325803 169.98747,361.382348 C174.213405,358.115393 177.339592,353.8034 180.373668,349.481693 C181.827903,347.409661 183.417513,345.168314 185.284852,343.440463 C186.723735,342.116472 189.429841,341.133888 190.369092,339.476817 C193.770216,333.466119 182.428019,332.290626 179.959169,329.49137 C178.023445,327.30276 181.480394,312.679181 181.586461,312.679181 C177.455428,312.679181 172.210691,310.733441 170.693653,313.42861"/>
        <path stroke="#231815" d="M170.693653,313.42861 C169.148703,316.166801 166.251397,331.580056 165.549401,334.888646 C164.255662,340.949306 163.13498,347.305574 163.009374,353.500853 C162.903307,358.855107 163.603908,366.325803 169.98747,361.382348 C174.213405,358.115393 177.339592,353.8034 180.373668,349.481693 C181.827903,347.409661 183.417513,345.168314 185.284852,343.440463 C186.723735,342.116472 189.429841,341.133888 190.369092,339.476817 C193.770216,333.466119 182.428019,332.290626 179.959169,329.49137 C178.023445,327.30276 181.480394,312.679181 181.586461,312.679181 C177.455428,312.679181 172.210691,310.733441 170.693653,313.42861 Z"/>
        <path stroke="#500B02" d="M180 339C180 339 185.941427 342.431937 186 343M177 343C177 343 182.93997 346.42446 183 347"/>
        <path fill="#0A0A0A" d="M191,301.396054 L281.715262,229.597024 C277.791452,232.182113 249.194117,214.223282 245.379185,212.223049 C232.527344,205.465805 209.986721,176.580367 218.112121,159.838706 C220.73637,154.432632 244.946463,150.800665 270.92932,164.503591 C291.75441,175.491615 322.243158,216.149536 327.748498,223.290635 C343.810856,244.150014 322.463707,258.490836 271.426252,291.990909 L207.499268,334 L191,301.396054 Z"/>
        <path stroke="#FFF" stroke-width=".5" d="M240.806201,169 C239.653848,176.647039 243.550564,174.337475 248.186578,178.437334 C250.866533,180.803977 249.918608,184.122845 252.109898,186.446331 C254.026752,188.488604 258.384129,188.068177 260.079753,190.386094 C261.366523,192.149939 260.50821,194.579227 261.624158,196.281818 C263.010341,198.396482 265.126021,198.304601 266.652223,200.8383 C270.891985,207.871404 298.425231,228.402723 303.582114,234.134174 C303.582114,234.134174 308.856612,237.130065 299.059515,242.374266 C289.258217,247.621251 197,314 197,314"/>
        <line x1="196" x2="213" y1="298" y2="331" stroke="#FFF" stroke-width=".5"/>
        <path fill="#FFF" d="M313.115198,354.443683 C312.163081,351.87088 309,336.186544 309,336.186544 L328.361554,326 C328.361554,326 342.435114,349.801606 343,350.13682 C343,350.13682 343.055516,366.788609 313.115198,354.443683"/>
        <path stroke="#231815" d="M313.115198,354.443683 C312.163081,351.87088 309,336.186544 309,336.186544 L328.361554,326 C328.361554,326 342.435114,349.801606 343,350.13682 C343,350.13682 343.055516,366.788609 313.115198,354.443683 Z"/>
        <path fill="#FFF" d="M314.265089,363.553873 C317.1954,364.700121 332.864925,365.38787 336.246587,365.618518 C342.433571,366.039275 348.887199,366.25175 355.036686,365.502495 C360.361241,364.848295 367.662021,363.095374 361.876393,357.467575 C358.040602,353.738075 353.335439,351.254071 348.621943,348.851143 C346.369354,347.700701 343.934835,346.442624 341.962777,344.832285 C340.446237,343.600767 339.099127,341.056655 337.324275,340.363315 C330.887312,337.833182 331.316443,349.246739 328.884702,352.089993 C326.982083,354.319586 312.016665,352.960862 312,352.854625 C312.580507,356.958752 311.384774,362.428593 314.265089,363.553873"/>
        <path stroke="#231815" d="M314.265089,363.553873 C317.1954,364.700121 332.864925,365.38787 336.246587,365.618518 C342.433571,366.039275 348.887199,366.25175 355.036686,365.502495 C360.361241,364.848295 367.662021,363.095374 361.876393,357.467575 C358.040602,353.738075 353.335439,351.254071 348.621943,348.851143 C346.369354,347.700701 343.934835,346.442624 341.962777,344.832285 C340.446237,343.600767 339.099127,341.056655 337.324275,340.363315 C330.887312,337.833182 331.316443,349.246739 328.884702,352.089993 C326.982083,354.319586 312.016665,352.960862 312,352.854625 C312.580507,356.958752 311.384774,362.428593 314.265089,363.553873 Z"/>
        <path stroke="#500B02" d="M339 351C339 351 341.475456 345.138104 342 345M343 353C343 353 345.475882 347.139535 346 347"/>
        <path fill="#0A0A0A" d="M218.241847,165.85002 C214.671428,168.026548 219.842476,188.730725 220.760505,191.428061 C226.263102,207.621824 256.088573,239.035969 260.18975,243.8416 C261.946402,245.899763 308.353498,341 308.353498,341 L335,334.151524 C335,334.151524 292.4893,208.20251 271.515349,162.076256 C254.59521,124.863604 248.683052,147.357185 218.241847,165.85002"/>
        <path stroke="#FFF" stroke-width=".5" d="M322,337 L266.852309,202.847143 L263.062234,196.970034 C262.852451,194.645683 261.762979,191.108263 260.951819,188.967963 C259.732282,185.75124 259.29034,185.450064 255.525439,184.711068 C257.605085,182.415998 259.618999,181.515259 258.068006,178.357097 C256.870845,175.917017 252.629038,174.224298 250.071087,173.803209 C249.431949,170.677117 253.32272,170.229537 252.956299,168"/>
        <line x1="305" x2="332" y1="335" y2="327" stroke="#FFF" stroke-width=".5"/>
        <path fill="#010101" d="M285.57498,61.0456761 C284.73398,60.6403373 285.01298,63.0508621 285.31298,63.6150274 C286.03298,64.9749803 286.18298,62.3775034 285.71698,61.3087327 L285.57498,61.0456761 Z"/>
        <path fill="#010101" d="M285.76799 65L285.76799 65C285.376909 65 284.998049 64.8065282 284.640576 64.425275 284.17464 63.9330601 283.760643 62.5474608 284.162418 61.7180928 284.448091 61.1348324 285.100402 60.8659635 285.827569 61.0651256L286.038386 61.1220291 286.400442 61.5004371C287.025255 62.2999307 287.181077 63.6471202 286.776246 64.38402 286.562374 64.7752313 286.19268 65 285.76799 65M286.527502 70.542518C286.536502 70.545518 286.481502 70.468518 286.470502 70.454518 286.477502 70.475518 286.541502 70.562518 286.527502 70.542518"/>
        <polygon fill="#010101" points="286.501 70.49 286.48 70.457 286.52 70.543"/>
        <path fill="#010101" d="M286.463,70.5131707 C286.547,70.6511707 286.475,70.4741707 286.516,70.5181707 L286.537,70.5481707 L286.478,70.4331707 C286.474,70.4581707 286.495,70.5451707 286.463,70.5131707"/>
        <path fill="#010101" d="M286.490226 70.4788029C286.519226 70.5338029 286.508226 70.5318029 286.505226 70.4928029L286.497226 70.4788029C286.496226 70.4798029 286.494226 70.4798029 286.490226 70.4788029M286.505798 70.510603C286.508798 70.503603 286.477798 70.466603 286.505798 70.510603"/>
        <path fill="#010101" d="M286.5265,70.559 L286.5095,70.502 C286.4925,70.471 286.4825,70.467 286.4735,70.441 C286.4785,70.473 286.4965,70.506 286.5265,70.559"/>
        <path fill="#010101" d="M286.505581,70.516532 L286.500581,70.493532 C286.492581,70.479532 286.490581,70.474532 286.505581,70.516532"/>
        <path fill="#010101" d="M286.484995,70.4581453 L286.497995,70.5091453 C286.508995,70.5321453 286.531995,70.5781453 286.493995,70.4901453 C286.512995,70.5341453 286.495995,70.4921453 286.484995,70.4581453"/>
        <path fill="#010101" d="M286.473682 70.4522738C286.494682 70.4802738 286.510682 70.4962738 286.525682 70.5532738 286.532682 70.5222738 286.479682 70.4222738 286.473682 70.4522738M286.488567 71.4903557L286.518567 71.5273557 286.500567 71.4763557C286.509567 71.5013557 286.464567 71.4463557 286.488567 71.4903557"/>
        <path fill="#010101" d="M286.472,70.438 C286.487,70.47 286.51,70.521 286.528,70.562 L286.518,70.522 C286.506,70.503 286.492,70.485 286.472,70.438"/>
        <path fill="#010101" d="M286.491015,70.4708032 L286.505015,70.5288032 C286.514015,70.5328032 286.507015,70.5058032 286.491015,70.4708032"/>
        <polygon fill="#010101" points="286.518 70.558 286.482 70.438 286.515 70.562"/>
        <polygon fill="#010101" points="285.507 70.517 285.483 70.442 285.517 70.558"/>
        <path fill="#010101" d="M285.526025,70.5715 C285.505025,70.5095 285.489025,70.4675 285.474025,70.4285 C285.473025,70.4425 285.487025,70.4975 285.500025,70.5465 C285.496025,70.5185 285.502025,70.5235 285.526025,70.5715"/>
        <path fill="#010101" d="M285.5085,70.537 C285.5045,70.521 285.4985,70.493 285.4915,70.463 C285.4945,70.479 285.5005,70.5 285.5085,70.537"/>
        <path fill="#010101" d="M285.5215 70.544C285.5135 70.526 285.4915 70.476 285.4785 70.456L285.5175 70.544 285.5215 70.544zM286.505 70.5025L286.505 70.4985 286.495 70.4975C286.495 70.4985 286.498 70.4985 286.505 70.5025"/>
        <path fill="#010101" d="M286.4985 70.4958415L286.4985 70.4958415C286.5025 70.5048415 286.5025 70.5088415 286.4985 70.4958415M286.465 71.41C286.481 71.461 286.488 71.519 286.535 71.59 286.515 71.528 286.488 71.488 286.465 71.41"/>
        <path fill="#010101" d="M286.497,70.5255 L286.517,70.5415 C286.506,70.5185 286.49,70.4845 286.483,70.4585 L286.497,70.5255 Z"/>
        <polygon fill="#010101" points="286.507 70.517 286.501 70.487 286.493 70.483"/>
        <path fill="#010101" d="M285.4855,70.4628084 C285.4955,70.5038084 285.4905,70.5078084 285.4875,70.5178084 C285.5005,70.5328084 285.5085,70.5408084 285.5145,70.5368084 C285.5055,70.5078084 285.4905,70.4558084 285.4855,70.4628084"/>
        <path fill="#010101" d="M285.497625,70.4940455 L285.499625,70.4990455 C285.502625,70.5080455 285.504625,70.5100455 285.497625,70.4940455"/>
        <polygon fill="#010101" points="285.497 70.491 285.503 70.509 285.498 70.493"/>
        <path fill="#010101" d="M285.501034,70.5159938 C285.511034,70.5319938 285.507034,70.5069938 285.499034,70.4789938 C285.498034,70.4899938 285.497034,70.4969938 285.493034,70.4979938 C285.498034,70.5129938 285.501034,70.5209938 285.501034,70.5159938"/>
        <path fill="#010101" d="M285.490458,70.4802046 C285.498458,70.4982046 285.506458,70.5132046 285.511458,70.5272046 C285.501458,70.4992046 285.482458,70.4552046 285.490458,70.4802046"/>
        <path fill="#010101" d="M285.502887,70.50702 L285.502887,70.50402 C285.492887,70.48402 285.497887,70.49502 285.502887,70.50702"/>
        <path fill="#010101" d="M285.492 70.4705C285.496 70.4845 285.502 70.5075 285.508 70.5295 285.507 70.5215 285.505 70.5115 285.504 70.4955 285.502 70.4905 285.497 70.4795 285.492 70.4705M285.561 71.792C285.54 71.706 285.535 71.623 285.575 71.713 285.572 71.642 285.478 71.365 285.425 71.208 285.435 71.245 285.445 71.281 285.447 71.334 285.464 71.379 285.506 71.438 285.517 71.517 285.511 71.566 285.494 71.491 285.472 71.446 285.509 71.552 285.492 71.607 285.537 71.766L285.54 71.706C285.546 71.73 285.55 71.771 285.561 71.792"/>
        <path fill="#010101" d="M285.5235,70.562 L285.5245,70.55 C285.5145,70.536 285.5015,70.504 285.4755,70.438 C285.4825,70.484 285.4885,70.514 285.4965,70.544 L285.5205,70.548 L285.5235,70.562 Z"/>
        <path fill="#010101" d="M285.476004 70.4105C285.501004 70.5035 285.501004 70.5485 285.540004 70.6465 285.554004 70.6345 285.527004 70.5655 285.523004 70.5215 285.507004 70.5535 285.511004 70.4665 285.480004 70.4205 285.480004 70.4035 285.480004 70.3975 285.482004 70.3925 285.476004 70.3825 285.468004 70.3695 285.456004 70.3535L285.461004 70.3595 285.460004 70.3595 285.461004 70.3615C285.465004 70.3715 285.468004 70.3785 285.464004 70.3735L285.464004 70.3745 285.476004 70.4105C285.462004 70.3925 285.466004 70.3855 285.464004 70.3745L285.461004 70.3615 285.461004 70.3595 285.456004 70.4195C285.464004 70.4295 285.469004 70.4245 285.476004 70.4105M286.5045 71.51L286.4955 71.49C286.4975 71.501 286.5005 71.51 286.5045 71.51"/>
        <path fill="#010101" d="M286.539,71.5915 C286.536,71.5795 286.522,71.5425 286.532,71.5495 C286.55,71.5735 286.55,71.5915 286.563,71.6215 C286.558,71.5955 286.55,71.5505 286.519,71.5125 L286.522,71.5265 C286.498,71.4985 286.44,71.3905 286.437,71.3785 C286.475,71.4575 286.502,71.5135 286.539,71.5915"/>
        <path fill="#010101" d="M286.4865,71.4365 L286.4805,71.4875 L286.5195,71.5635 L286.5025,71.5165 C286.5215,71.5305 286.4975,71.4735 286.4865,71.4365"/>
        <polygon fill="#010101" points="285.512 70.528 285.486 70.43 285.514 70.57"/>
        <polygon fill="#010101" points="285.511 70.543 285.489 70.457 285.497 70.509"/>
        <path fill="#010101" d="M283.51 71.491L283.49 71.509 283.51 71.491zM283.489038 71.5195L283.511038 71.4805C283.497038 71.5015 283.488038 71.5175 283.489038 71.5195M285.501832 70.5752388C285.505832 70.4922388 285.517832 70.3612388 285.502832 70.4602388L285.489832 70.5592388C285.497832 70.5412388 285.501832 70.5542388 285.501832 70.5752388M284.488 71.514L284.481 71.542C284.494 71.513 284.509 71.484 284.519 71.458L284.488 71.514z"/>
        <path fill="#010101" d="M283.4965 71.5325L283.5035 71.4675C283.4995 71.4905 283.4965 71.5115 283.4965 71.5325M282.531 71.4597294L282.469 71.5397294C282.482 71.5457294 282.505 71.5007294 282.531 71.4597294M285.510169 70.512205C285.499169 70.473205 285.493169 70.457205 285.489169 70.454205 285.499169 70.509205 285.514169 70.593205 285.510169 70.512205M283.5165 70.4755C283.5045 70.4895 283.4935 70.5055 283.4835 70.5245 283.4955 70.5125 283.5055 70.4965 283.5165 70.4755"/>
        <path fill="#010101" d="M285.49 70.5099855C285.492 70.5189855 285.493 70.5239855 285.494 70.5329855 285.499 70.5149855 285.502 70.5009855 285.51 70.5089855 285.5 70.4659855 285.493 70.4409855 285.49 70.5099855M281.497722 70.5055L281.504722 70.4945C281.493722 70.5045 281.493722 70.5055 281.497722 70.5055M282.493479 69.4995639C282.499479 69.4975639 282.501479 69.5005639 282.504479 69.5025639 282.508479 69.4975639 282.507479 69.4955639 282.493479 69.4995639M285.499751 70.5032119C285.502751 70.4962119 285.497751 70.4932119 285.499751 70.5032119M285.4965 71.476C285.4985 71.487 285.5005 71.501 285.5035 71.524 285.5005 71.499 285.4985 71.485 285.4965 71.476"/>
        <path fill="#010101" d="M285.499423 71.4932293L285.499423 71.4932293C285.501423 71.5132293 285.500423 71.5092293 285.499423 71.4932293M285.506 70.513C285.502 70.502 285.497 70.492 285.494 70.487 285.498 70.493 285.502 70.502 285.506 70.513"/>
        <path fill="#010101" d="M285.497,70.5001433 L285.503,70.5091433 C285.501,70.4931433 285.498,70.4821433 285.497,70.5001433"/>
        <path fill="#010101" d="M285.495 70.499C285.497 70.497 285.502 70.5 285.505 70.508 285.503 70.5 285.502 70.496 285.502 70.492L285.495 70.499zM282.506 70.4986336L282.511 70.4896336C282.48 70.5166336 282.485 70.5146336 282.506 70.4986336"/>
        <polygon fill="#010101" points="284.499 72.504 284.501 72.501 284.501 72.496"/>
        <path fill="#010101" d="M284.451 72.6755C284.49 72.5585 284.493 72.5745 284.498 72.6035L284.549 72.3245 284.451 72.6755zM282.802794 71.2487479L282.761787 71.3564274C282.619022 71.4991653 282.631172 71.4328047 282.564346 71.5780467 282.801276 71.2487479 282.69648 71.5980801 282.927335 71.265025L282.899996 71.3439065C282.89544 71.3376461 282.880252 71.3564274 282.877215 71.3526711 282.805832 71.5279633 283.067062 71.1210351 283.079213 71.1873957 283.077694 71.2199499 283.054912 71.2737896 283.01998 71.3088481L283.10807 71.2399833C283.114145 71.2512521 283.076175 71.3088481 283.068581 71.2975793L283.138445 71.293823 283.133889 71.3025876C283.176415 71.2537563 283.243241 71.1786311 283.275136 71.1448247 283.255391 71.1999165 283.243241 71.1786311 283.220459 71.2224541L283.299436 71.1510851C283.258429 71.2449917 283.179452 71.322621 283.167302 71.3000835 282.983529 71.653172 283.24476 71.2249583 283.18249 71.4503339L283.127814 71.4816361C283.030612 71.6844741 283.094401 71.6218698 283.054912 71.7595993 283.085288 71.6907346 283.173377 71.4240401 283.258429 71.3526711 283.249316 71.3814691 283.255391 71.3989983 283.314624 71.3376461 283.241722 71.4590985 283.278173 71.4365609 283.300955 71.4390651L283.20679 71.6018364C283.258429 71.5655259 283.303993 71.4816361 283.360187 71.4127713 283.373856 71.4390651 283.310068 71.5692821 283.25691 71.6769616 283.285767 71.7195326 283.340443 71.4628548 283.408788 71.4503339 283.410307 71.5254591 283.472577 71.4678631 283.568261 71.3814691 283.562185 71.4478297 283.509028 71.4828881 283.49384 71.5317195L283.584967 71.4077629C283.588005 71.4127713 283.565223 71.4528381 283.553073 71.4716194 283.598636 71.4277963 283.639643 71.3063439 283.692801 71.2712855 283.790003 71.0897329 283.616862 71.5605175 283.75659 71.3639399 283.739883 71.4140234 283.701913 71.4653589 283.673057 71.5292154 283.788484 71.4102671 283.762665 71.4453255 283.888724 71.2712855L283.870498 71.3927379C283.90543 71.2575125 284.00567 71.1185309 284.084647 71.0033389 284.105909 70.9382304 284.119579 70.8831386 284.128691 70.8555927L284.207668 70.7767112C284.200074 70.8055092 284.169698 70.8618531 284.131729 70.933222L284.159067 70.8931553C284.143879 70.9595159 284.095278 71.0571786 284.042121 71.1498331L284.074015 71.0396494C284.019339 71.1385643 283.957069 71.2487479 283.916062 71.351419 283.926693 71.3301336 283.938843 71.3176127 283.950994 71.3088481 283.935806 71.3376461 283.923656 71.3614357 283.916062 71.3777129 283.909987 71.3964942 283.929731 71.3589316 283.95555 71.3201169L283.882649 71.5116861 283.919099 71.4365609 283.928212 71.5717863C284.054271 71.3927379 284.203112 71.1185309 284.295757 71.0546745 284.227412 71.1911519 284.203112 71.2825543 284.139323 71.4503339 284.190961 71.2687813 284.058827 71.5116861 284.037564 71.4678631 284.046677 71.4891486 284.011745 71.566778 283.995038 71.5930718L284.122616 71.4503339C284.069459 71.5868114 284.099834 71.5567613 284.093759 71.6181135 284.181849 71.3439065 284.207668 71.4503339 284.262344 71.3727045 284.233487 71.4628548 284.19248 71.5567613 284.169698 71.5254591 284.131729 71.7395659 284.327652 71.2186978 284.297276 71.3989983 284.291201 71.4015025 284.29272 71.3852254 284.271457 71.4303005 284.31702 71.3551753 284.339802 71.4303005 284.301832 71.5079299L284.294238 71.5079299C284.333727 71.5542571 284.452192 71.5454925 284.526612 71.3113523 284.517499 71.3388982 284.437004 71.5918197 284.421816 71.6381469L284.72861 70.8643573C284.66634 71.0634391 284.570657 71.5492487 284.496236 71.6581803 284.499274 71.6882304 284.509906 71.7232888 284.555469 71.6581803 284.552431 71.6268781 284.607108 71.3614357 284.623814 71.3439065 284.599514 71.5755426 284.614702 71.4703673 284.607108 71.6694491 284.607108 71.6218698 284.696716 71.3063439 284.713422 71.3201169 284.701272 71.3676962 284.632927 71.6331386 284.625333 71.6669449L284.746836 71.3614357C284.724054 71.4165275 284.686084 71.6268781 284.67849 71.7170284 284.686084 71.6556761 284.724054 71.7308013 284.745317 71.7020033L284.737723 71.624374C284.787843 71.6819699 284.87897 71.1911519 284.927571 71.2186978 284.909345 71.2825543 284.839481 71.6156093 284.863782 71.6581803 284.906308 71.4991653 285.049073 70.8868948 285.100712 70.7629382L285.094637 70.8555927 285.137163 70.7516694C285.093118 70.9945743 284.962503 71.5054257 284.885045 71.6994992 284.897195 71.7746244 284.875932 71.8096828 284.912383 71.8034224 284.912383 71.8923205 284.872894 71.9336394 284.859225 71.9386477L284.938202 72C284.962503 71.8096828 285.02781 71.8146912 285.042998 71.6581803L284.929089 71.8484975C284.95339 71.6581803 285.052111 71.3126043 285.096155 71.351419 285.102231 71.4277963 285.049073 71.6869783 285.042998 71.7508347 285.056667 71.6869783 285.111343 71.6293823 285.111343 71.6757095L285.074892 71.7746244C285.102231 71.8497496 285.149313 71.5279633 285.173613 71.7107679 285.182726 71.7232888 285.194876 71.957429 285.203989 71.8459933 285.194876 71.6268781 285.241959 70.9570117 285.261703 70.7967446 285.26474 70.8092654 285.295116 71.0058431 285.310304 71.1147746 285.322454 71.2838063 285.263221 71.5179466 285.272334 71.6644407 285.276891 71.6143573 285.289041 71.5492487 285.296635 71.5292154 285.307266 71.5742905 285.282966 71.6882304 285.311823 71.6694491 285.323973 71.4741235 285.372574 71.6869783 285.333085 71.5054257 285.363461 71.4528381 285.363461 71.5467446 285.392318 71.5392321 285.384724 71.4127713 285.425731 71.1122705 285.445475 71.0571786 285.448513 71.1047579 285.45155 71.1698664 285.453069 71.1986644 285.504708 71.2136895 285.535083 71.3000835 285.585203 71.3000835 285.591278 71.3464107 285.621654 71.4015025 285.618617 71.4828881 285.621654 71.4503339 285.624692 71.3839733 285.638361 71.380217 285.685443 71.5429883 285.606466 71.4065109 285.644436 71.6043406 285.638361 71.4941569 285.674811 71.4478297 285.68848 71.3777129 285.665699 71.207429 285.636842 71.3464107 285.618617 71.4190317 285.603429 71.1798831 285.618617 70.9282137 285.647473 70.8180301 285.674811 70.7566778 285.680887 70.9707846 285.682405 70.9357262 285.753788 70.9732888 285.680887 70.5237896 285.752269 70.6853088 285.796314 70.831803 285.803908 70.9845576 285.825171 71.0922371 285.805427 71.1535893 285.762901 71.0058431 285.746194 71.0108514L285.781126 71.0809683C285.779607 71.1323038 285.762901 71.1723706 285.746194 71.1272955 285.787201 71.2662771 285.870734 71.1385643 285.95123 71.2537563 285.95123 71.1999165 285.957305 71.1473289 285.936042 71.0884808L285.923892 71.1122705C285.881366 70.9920701 285.917817 70.9394825 285.884403 70.8868948 285.887441 70.7979967 285.878328 70.6615192 285.920854 70.7253756L285.969455 70.8931553C285.955786 70.8443239 285.923892 70.7967446 285.929967 70.8493322 285.920854 70.7717028 286.034763 71.0696995 285.989199 70.846828L285.93908 70.7341402C285.936042 70.64399 285.905666 70.4624374 285.942117 70.5112688 285.873772 70.3497496 285.946673 70.5313022 285.870734 70.3397329 285.95123 70.5801336 285.816058 70.3372287 285.905666 70.5914023 285.829727 70.3660267 285.852509 70.4974958 285.787201 70.3059265 285.80087 70.3635225 285.819096 70.413606 285.796314 70.3873122 285.799352 70.4048414 285.802389 70.4248748 285.803908 70.4386477L285.802389 70.4336394 285.803908 70.4411519C285.808464 70.4486644 285.808464 70.4511686 285.808464 70.442404 285.814539 70.4674457 285.822133 70.4962437 285.834284 70.5262938 285.855547 70.6565109 285.822133 70.659015 285.825171 70.7278798 285.809983 70.7040902 285.816058 70.6615192 285.799352 70.601419L285.805427 70.7053422C285.77657 70.5801336 285.737082 70.5025042 285.746194 70.4248748L285.724931 70.4223706C285.697593 70.3547579 285.680887 70.3297162 285.677849 70.3860601 285.662661 70.3585142 285.671774 70.5237896 285.667218 70.427379L285.641398 70.5062604 285.636842 70.4737062C285.603429 70.4586811 285.580647 70.6853088 285.522933 70.4599332 285.513821 70.4912354 285.503189 70.5313022 285.481926 70.4962437L285.474332 70.3873122C285.460663 70.427379 285.431806 70.2796327 285.425731 70.3935726 285.410543 70.1030885 285.358905 70.3322204 285.333085 70.2746244L285.323973 70.4186144C285.307266 70.4098497 285.286003 70.4486644 285.258665 70.5050083L285.251071 70.630217C285.219177 70.7341402 285.20247 70.5375626 285.169057 70.5488314 285.176651 70.5 285.182726 70.513773 285.184245 70.542571 285.182726 70.254591 285.073374 70.745409 285.062742 70.5350584 285.049073 70.5813856 285.046036 70.5638564 285.044517 70.5313022 285.044517 70.5313022 285.049073 70.528798 285.049073 70.5262938L285.042998 70.5237896 285.042998 70.4536728C285.042998 70.4874791 285.042998 70.5112688 285.041479 70.5237896 285.033885 70.5237896 285.018698 70.5375626 285.00351 70.5688648L285.024773 70.4336394 285.021735 70.4361436C285.021735 70.3860601 285.000472 70.4974958 284.986803 70.601419 284.980728 70.6214524 284.968578 70.6489983 284.956427 70.6790484 284.992878 70.4599332 284.912383 70.7479132 284.948834 70.513773 284.918458 70.6264608 284.875932 70.5914023 284.813662 70.8255426 284.821256 70.7942404 284.821256 70.7792154 284.82885 70.7792154 284.821256 70.7504174 284.813662 70.7216194 284.787843 70.7854758L284.825812 70.615192 284.737723 70.8380634C284.745317 70.7316361 284.757467 70.6702838 284.807587 70.542571 284.70431 70.7341402 284.769617 70.615192 284.664821 70.8055092L284.699753 70.6965776C284.686084 70.6990818 284.620777 70.8405676 284.64204 70.7504174 284.676972 70.5400668 284.511424 70.687813 284.512943 70.4799666 284.408147 70.7979967 284.535725 70.3322204 284.440042 70.5751252 284.465861 70.5 284.471936 70.456177 284.508387 70.3935726 284.444598 70.4586811 284.505349 70.2633556 284.399034 70.4624374 284.430929 70.3898164 284.446117 70.3547579 284.465861 70.312187 284.455229 70.3259599 284.427891 70.3722871 284.443079 70.3284641 284.459786 70.283389 284.474974 70.2683639 284.493199 70.2370618 284.455229 70.2420701 284.35499 70.4674457 284.259306 70.6790484 284.285126 70.5738731 284.271457 70.5838898 284.19248 70.716611 284.218299 70.6464942 284.241081 70.5713689 284.274494 70.5525876 284.265382 70.5375626 284.244119 70.427379 284.165142 70.5951586 284.18033 70.5500835 284.152992 70.5751252 284.139323 70.5951586 284.116541 70.5751252 284.122616 70.557596 284.086165 70.5638564L284.081609 70.5951586C283.969219 70.7917362 284.034527 70.630217 283.998076 70.6489983L284.010226 70.6277129C284.034527 70.4649416 283.950994 70.687813 283.984407 70.5062604L283.920618 70.6327212C283.773296 70.8981636 283.961625 70.4586811 283.873536 70.5500835L283.847717 70.6264608C283.779371 70.7103506 284.00567 70.2458264 284.010226 70.2082638 284.020858 70.1844741 284.037564 70.1732053 284.051233 70.1594324 284.104391 69.9878965 283.954031 70.3171953 283.903911 70.3434891 283.947956 70.2533389 284.037564 70.124374 284.02997 70.1005843 284.061865 70.0267112 283.805191 70.3572621 283.879611 70.1819699 283.844679 70.2508347 283.809747 70.3171953 283.764184 70.3610184 283.727733 70.3735392 283.864423 70.0893155 283.714064 70.2883973L283.742921 70.2345576C283.692801 70.2821369 283.633568 70.3009182 283.548516 70.4073456 283.808228 69.9941569 283.310068 70.5550918 283.568261 70.1819699L283.507509 70.1782137 283.536366 70.139399C283.524216 70.1005843 283.448277 70.1844741 283.372338 70.2658598 283.384488 70.2370618 283.413345 70.2070117 283.428533 70.1857262 283.437645 70.0893155 283.423976 70.1043406 283.24476 70.2658598L283.332849 70.1469115C283.266023 70.2082638 283.410307 69.9303005 283.259948 70.0404841 283.275136 70.0292154 283.291842 70.0079299 283.308549 69.9916528 283.146039 70.0980801 283.468021 69.6085142 283.094401 70.0166945L282.971379 70.0980801C282.986567 70.1556761 282.805832 70.2746244 282.767862 70.3547579 282.725337 70.3672788 282.830132 70.2045075 282.87114 70.1957429L282.852914 70.2170284C283.051875 70.0054257 282.869621 70.1093489 283.000236 69.9653589 282.906072 69.9277963 282.94556 69.7575125 282.886327 69.7049249L282.734449 69.8702003 282.717743 69.8439065C282.749637 69.8025876 282.836208 69.7136895 282.843802 69.7312187 282.927335 69.6360601 282.739006 69.7888147 282.705592 69.8213689 282.734449 69.736227 282.904553 69.6448247 282.899996 69.634808L282.87114 69.6385643 282.855952 69.6585977C282.778494 69.7161937 282.70863 69.7825543 282.693442 69.7600167 282.713186 69.7199499 282.787607 69.6585977 282.787607 69.6498331 282.799757 69.6385643 282.802794 69.6323038 282.784569 69.6410684L282.7709 69.60601 282.652435 69.7387312C282.574977 69.7888147 282.629653 69.7099332 282.497519 69.8601836 282.705592 69.6297997 282.465625 69.6961603 282.526376 69.6210351 282.407911 69.6936561 282.391204 69.6786311 282.379054 69.6498331 282.357791 69.6811352 282.207432 69.8151085 282.205913 69.7825543 282.529414 69.5146077 282.304634 69.6360601 282.524857 69.4307179 282.383611 69.5696995 282.435249 69.418197 282.236289 69.6160267 282.24692 69.5809683 282.354754 69.5146077 282.42158 69.4444908 282.25907 69.5146077 282.429174 69.3117696 282.344122 69.3092654 282.298559 69.3405676 282.236289 69.3981636 282.16035 69.4394825L282.360829 69.2541736C282.331972 69.2629382 282.092004 69.4369783 282.236289 69.3092654 282.201357 69.3380634 282.145162 69.3818865 282.126936 69.389399 282.281852 69.159015 281.76091 69.3405676 282.154274 69 282.066185 69.0638564 282.052516 69.0638564 282.040366 69.057596 282.02214 69.0751252 281.918863 69.1264608 281.850518 69.1652755L282.014546 69.028798C281.818624 69.1239566 281.972021 69 281.783692 69.0901503L281.826217 69.086394C281.595363 69.1790484 281.36147 69.3555927 281.085052 69.5020868 281.344764 69.3919032 280.773701 69.7575125 281.150359 69.6035058 281.101758 69.6423205 281.059233 69.6448247 281 69.6873957 281.12454 69.6297997 281.156435 69.6247913 281.121503 69.6786311L281.088089 69.6911519C281.168585 69.736227 281.080495 69.8213689 281.069864 69.9365609L281.194404 69.8476628C281.189848 69.8727045 281.151878 69.9015025 281.127578 69.9277963 281.331095 69.8151085 281.101758 69.8839733 281.326538 69.7575125 281.085052 69.9453255 281.41159 69.8501669 281.138209 70.0630217 281.156435 70.0843072 281.273381 69.9540902 281.293125 69.9766277L281.221742 70.03798 281.325019 69.9728715C281.323501 69.9966611 281.233892 70.0717863 281.170104 70.1206177 281.17466 70.110601 281.141247 70.124374 281.141247 70.124374 281.06227 70.2070117 281.215667 70.1494157 281.194404 70.1757095L281.218705 70.1231219C281.346282 70.1206177 281.323501 70.2608514 281.527017 70.1907346L281.578656 70.1419032C281.72294 70.095576 281.554355 70.2220367 281.645482 70.2220367L281.634851 70.2308013C281.697121 70.1932387 281.735091 70.1794658 281.744203 70.1957429 281.668264 70.2395659 281.645482 70.3171953 281.560431 70.3635225 281.715346 70.3109349 281.668264 70.312187 281.893044 70.1644407L281.815586 70.2458264C281.903675 70.1844741 281.946201 70.1494157 281.991765 70.1469115 281.8976 70.196995 281.877856 70.2771285 281.756354 70.3472454 281.622701 70.557596 282.019103 70.2333055 281.77306 70.5 282.028216 70.3009182 281.859631 70.3472454 281.921901 70.3109349 281.988727 70.2308013 282.116305 70.1619366 282.108711 70.1957429 282.119342 70.2107679 281.83533 70.4962437 281.886969 70.5225376 281.883931 70.5175292 281.864187 70.5350584 281.862668 70.5313022 281.821661 70.6001669 281.972021 70.4762104 281.8976 70.5813856 282.046441 70.456177 281.915826 70.6064274 282.093523 70.4386477L282.014546 70.4511686C282.082892 70.4198664 282.304634 70.2333055 282.243883 70.3547579 282.207432 70.3873122 282.149718 70.427379 282.116305 70.4474124 282.076817 70.5050083 282.170981 70.427379 282.131493 70.4874791 281.955314 70.659015 282.043403 70.4937396 281.886969 70.6064274 281.826217 70.687813 282.06011 70.513773 281.859631 70.6928214 282.114786 70.4674457 281.874819 70.7516694 282.08441 70.5888982L281.979614 70.6928214C282.002396 70.6790484 282.058591 70.6364775 282.066185 70.64399L281.915826 70.7691987C282.052516 70.6702838 281.865706 70.904424 281.953795 70.8555927 281.8976 70.8267947 282.063148 70.7216194 282.114786 70.630217 282.30919 70.528798 281.886969 70.9307179 282.006953 70.9269616 281.982652 70.9357262 282.028216 70.8380634 282.090486 70.7979967 282.082892 70.8292988 282.063148 70.8831386 282.019103 70.9444908 282.085929 70.9507513 282.113267 70.8292988 282.195282 70.7767112 282.088967 70.9156928 282.265146 70.7366444 282.322859 70.7053422L282.221101 70.8155259C282.215026 70.9169449 282.441324 70.5951586 282.413986 70.7078464L282.25907 70.8493322 282.319822 70.8230384 282.204394 70.9457429C282.313747 70.8693656 282.300078 70.8981636 282.295521 70.9482471 282.357791 70.8668614 282.473219 70.7504174 282.500557 70.7579299 282.45955 70.8343072 282.398798 70.860601 282.447399 70.8618531 282.379054 70.9282137 282.298559 71.0133556 282.37146 70.8994157L282.271221 71.0020868C282.221101 71.0884808 282.301596 71.0434057 282.315265 71.0496661 282.313747 71.0434057 282.312228 71.0346411 282.322859 71.0171119L282.502076 70.8881469C282.474737 70.9357262 282.441324 70.9657763 282.404873 70.9970785 282.427655 70.990818 282.476256 70.9419866 282.497519 70.9394825 282.420061 71.0308848 282.344122 71.1247913 282.286408 71.1560935L282.417024 71.0834725C282.391204 71.1247913 282.354754 71.207429 282.319822 71.2374791 282.304634 71.3088481 282.529414 71.0947412 282.511188 71.1848915 282.526376 71.1673623 282.543083 71.1510851 282.561308 71.1435726 282.581052 71.1798831 282.524857 71.3126043 282.661548 71.2024207L282.559789 71.3852254C282.620541 71.3614357 282.687367 71.1560935 282.784569 71.1172788 282.862027 71.0809683 282.693442 71.2687813 282.673698 71.3238731 282.755712 71.2474958 282.909109 71.0884808 282.846839 71.2449917 282.813426 71.2712855 282.82102 71.2399833 282.802794 71.2487479"/>
        <path fill="#010101" d="M283.4905,71.528 L283.5095,71.472 C283.5005,71.487 283.4925,71.507 283.4905,71.528"/>
        <polygon fill="#010101" points="282.506 71.493 282.506 71.493 282.494 71.507"/>
        <path fill="#010101" d="M285.504619 72.528C285.499619 72.512 285.497619 72.493 285.495619 72.472 285.494619 72.498 285.496619 72.521 285.504619 72.528M285.496 70.469L285.491 70.497C285.496 70.492 285.501 70.515 285.509 70.531 285.503 70.506 285.493 70.47 285.496 70.469M286.507337 71.5325C286.505337 71.5185 286.511337 71.5295 286.509337 71.5145L286.493337 71.4675C286.486337 71.4745 286.491337 71.5145 286.507337 71.5325M285.486934 71.4908539C285.507934 71.5808539 285.508934 71.5488539 285.513934 71.5298539L285.512934 71.5318539C285.483934 71.4068539 285.484934 71.4488539 285.486934 71.4908539"/>
        <path fill="#010101" d="M285.4965 71.513609C285.4965 71.510609 285.4995 71.506609 285.5035 71.510609 285.4925 71.460609 285.4985 71.501609 285.4965 71.513609M285.507304 70.5495115C285.515304 70.5725115 285.489304 70.4335115 285.497304 70.4705115 285.482304 70.3535115 285.498304 70.6145115 285.507304 70.5495115"/>
        <polygon fill="#010101" points="285.514 71.555 285.486 71.445 285.5 71.534"/>
        <path fill="#010101" d="M285.489551,71.4950014 L285.511551,71.5230014 C285.508551,71.5040014 285.508551,71.4940014 285.508551,71.4850014 C285.497551,71.4830014 285.484551,71.4630014 285.489551,71.4950014"/>
        <path fill="#010101" d="M285.494936,71.5104155 C285.500936,71.5114155 285.505936,71.5084155 285.504936,71.4894155 C285.502936,71.4904155 285.496936,71.4964155 285.494936,71.5104155"/>
        <polygon fill="#010101" points="285.512 71.514 285.5 71.491 285.488 71.486"/>
        <path fill="#010101" d="M285.506592,71.4577426 L285.490592,71.4897426 C285.492592,71.5287426 285.498592,71.5527426 285.504592,71.5377426 C285.507592,71.5087426 285.512592,71.4947426 285.506592,71.4577426"/>
        <path fill="#010101" d="M285.51 71.515C285.502 71.492 285.498 71.467 285.49 71.43L285.508 71.57 285.51 71.515zM285.498312 72.4480402C285.500312 72.4870402 285.477312 72.5610402 285.504312 72.5510402 285.502312 72.5120402 285.519312 72.4780402 285.498312 72.4480402"/>
        <polygon fill="#010101" points="285.492 71.615 285.499 71.614 285.508 71.385"/>
        <path fill="#010101" d="M284.477232,72.5787523 C284.496232,72.6387523 284.504232,72.4407523 284.518232,72.5137523 C284.532232,72.4607523 284.508232,72.4537523 284.520232,72.4097523 C284.497232,72.4627523 284.493232,72.4287523 284.477232,72.5787523"/>
        <path fill="#010101" d="M284.493,72.5165 C284.497,72.5075 284.501,72.4975 284.507,72.4835 C284.501,72.4955 284.497,72.5065 284.493,72.5165"/>
        <polygon fill="#010101" points="282.495 69.51 282.531 69.477 282.469 69.523"/>
        <path fill="#010101" d="M282.438 69.539L282.562 69.461 282.444 69.523C282.452 69.523 282.463 69.52 282.438 69.539M283.486332 72.54L283.503332 72.508C283.517332 72.473 283.514332 72.469 283.510332 72.46L283.486332 72.54z"/>
        <polygon fill="#010101" points="283.471 71.555 283.471 71.559 283.529 71.441"/>
        <path fill="#010101" d="M282.480194 72.5296413C282.484194 72.5386413 282.507194 72.5186413 282.511194 72.5276413 282.484194 72.5386413 282.564194 72.3866413 282.480194 72.5296413M285.917501 57C285.764447 57 285.607062 56.9754202 285.461227 56.9217916 283.958121 56.3821533 282.631172 56.8849219 282.573415 56.9072671 282.044946 57.1128436 281.393744 56.9519577 281.120846 56.5430393 280.849392 56.1341208 281.050095 55.6347041 281.574233 55.4201895 281.668086 55.3833198 283.88737 54.5051508 286.373776 55.4023133 286.91524 55.5978344 287.150597 56.0961339 286.899357 56.5151077 286.715981 56.8201206 286.323239 57 285.917501 57"/>
        <line x1="268" x2="270" y1="63" y2="65" stroke="#500B02" stroke-linecap="round" stroke-linejoin="round" stroke-width="1.5"/>
        <path fill="#010101" d="M266.828519,65.4850116 C266.828519,65.4850116 278.129014,61.3329995 271.859514,52.8340256 L284.828143,51.2633676 C290.798163,51.1237229 295.679417,48.5534296 294.922319,41.4066595 C294.466101,37.080437 287.16941,34.0303741 285.394917,39.0368463 C281.368722,32.0435472 268.576422,38.5211285 270.301935,44.4816095 C264.662183,38.0828375 260.032829,48.4483504 259.218353,52.7883991 C258.230347,58.0451257 260.785729,63.3336527 263.062621,68"/>
        <path fill="#0048FA" d="M273.888343,96.0189932 C263.08646,90.6824358 252.873361,86.6754835 242.029322,93.9666858 C222.836904,106.877667 212.085608,169.226794 215.691388,169 C221.556753,168.622681 278,168.360388 278,168.371549 C277.99719,168.360388 277.203243,115.718912 273.888343,96.0189932"/>
        <path fill="#0048FA" d="M248,90.3536931 L253.560102,85 L271.942962,94.7724632 C271.942962,94.7724632 273.105377,102.517218 264.935062,100.733108 C256.757787,98.9517188 248,90.3536931 248,90.3536931"/>
        <path stroke="#000" d="M274.348062,92.4919157 C276.606751,94.3392935 278.18133,99.0157672 275.84773,99.4049044 C273.987634,99.712118 272.500687,96.0979206 272.311286,94.7516424 C272.312699,94.7666617 272.432842,95.572244 272.319766,96.601751 C272.083721,98.7740925 270.808792,101.941806 265.194581,100.733433 C256.891994,98.9461321 248,90.3182088 248,90.3182088 L253.674989,85"/>
        <path stroke="#8E4C4C" stroke-linecap="round" d="M357 5C357 5 352.569881 14.3370166 352 15M361 9C361 9 356.630901 15.3577348 356 16M362 14C362 14 358.651026 19.3197674 358 20"/>
        <line x1="179" x2="72" y1="200" y2="350" stroke="#000" stroke-width="5"/>
        <path fill="#FFAF1B" d="M42,326.093116 C42.0546139,339.452629 57.8615209,342.946483 74.5994776,355 C74.5994776,355 142.634505,260.00104 142.864824,259.68189 C145.126145,256.523983 118.802703,206.698766 79.8954336,261.785761 C68.4380782,278.007827 55.6755781,293.171658 46.5772542,310.95868 C43.3765091,317.215702 41.9820283,322.09674 42,326.093116"/>
        <path stroke="#1E1E1E" d="M42,326.093116 C42.0546139,339.452629 57.8615209,342.946483 74.5994776,355 C74.5994776,355 142.634505,260.00104 142.864824,259.68189 C145.126145,256.523983 118.802703,206.698766 79.8954336,261.785761 C68.4380782,278.007827 55.6755781,293.171658 46.5772542,310.95868 C43.3765091,317.215702 41.9820283,322.09674 42,326.093116 Z"/>
        <path fill="#0A0A0A" d="M57.0670118,341.583644 C53.5230143,346.517446 54.6490524,353.388222 59.5805651,356.93325 C64.5191067,360.478279 71.3920159,359.349548 74.9332019,354.415746 C78.4757937,349.481944 77.3525672,342.609762 72.4196487,339.066139 C67.4839187,335.522517 60.6110094,336.649841 57.0670118,341.583644"/>
        <line x1="125" x2="79" y1="261" y2="329" stroke="#1E1E1E"/>
        <path fill="#FFF" d="M217.999435,129 C217.999435,129 203.832993,145.664828 198.310765,152.35743 C189.755552,162.725545 181.709314,173.621512 172.710487,183.607629 C172.710487,183.607629 161.205729,190.718345 157.81535,195.63292 C154.928383,199.818227 154.936727,211.869911 161.908002,217.337341 C166.049325,220.593352 167.252228,210.921167 168.338318,208.452767 C170.116945,204.427204 170.833124,203.927134 174.779759,202.106047 C176.149538,201.471236 177.50124,200.818367 178.852941,200.16272 C178.387077,203.283989 176.543089,206.927554 178.858503,207.922137 C183.622833,209.968256 187.650125,196.002416 187.650125,196.002416 C187.868455,196.181608 196.501543,187.115064 197.027205,186.585823 C210.687454,172.829734 235,142.454657 235,142.454657 L217.999435,129 Z"/>
        <path stroke="#231815" d="M217.999435,129 C217.999435,129 203.832993,145.664828 198.310765,152.35743 C189.755552,162.725545 181.709314,173.621512 172.710487,183.607629 C172.710487,183.607629 161.205729,190.718345 157.81535,195.63292 C154.928383,199.818227 154.936727,211.869911 161.908002,217.337341 C166.049325,220.593352 167.252228,210.921167 168.338318,208.452767 C170.116945,204.427204 170.833124,203.927134 174.779759,202.106047 C176.149538,201.471236 177.50124,200.818367 178.852941,200.16272 C178.387077,203.283989 176.543089,206.927554 178.858503,207.922137 C183.622833,209.968256 187.650125,196.002416 187.650125,196.002416 C187.868455,196.181608 196.501543,187.115064 197.027205,186.585823 C210.687454,172.829734 235,142.454657 235,142.454657 L217.999435,129 Z"/>
        <path stroke="#121212" stroke-width="1.5" d="M164 217C164 217 164.269565 208.887479 166.449275 205.44048 168.636232 201.994854 172 201 172 201M160.107281 215C160.107281 215 159.475651 208.193968 161.277616 204.935572 163.079581 201.68403 167 199 167 199"/>
        <path stroke="#121212" stroke-width="1.5" d="M159.107586,212 C159.107586,212 158.474636,205.193355 160.279215,201.939373 C162.074367,198.685391 166,196 166,196"/>
        <path fill="#0048FA" d="M208,134.209712 L233.234406,155 L251,107.445283 L242.066028,94 C242.066028,94 220.615801,115.498591 208,134.209712"/>
        <line x1="229" x2="254" y1="155" y2="126" stroke="#000"/>
        <line x1="113" x2="31" y1="195.5" y2="195.5" stroke="#121212" stroke-width="2"/>
        <g transform="translate(0 179)">
          <mask id="img1-b" fill="#fff">
            <use xlink:href="#img1-a"/>
          </mask>
          <line x1="81.816" x2="-.001" y1=".782" y2=".782" stroke="#121212" stroke-width="2" mask="url(#img1-b)"/>
        </g>
      </g>
    </g>
    <g fill="#D8D8D8" opacity="0" transform="translate(-42 969)">
      <rect width="1799" height="150" x="37" y="1444"/>
      <rect width="1799" height="50" x="39" y="1975"/>
    </g>
  </g>
</svg>
