<svg xmlns="http://www.w3.org/2000/svg" xmlns:xlink="http://www.w3.org/1999/xlink" width="529" height="404" viewBox="0 0 529 404">
  <defs>
    <polygon id="img3-a" points=".501 .459 41.64 .459 41.64 30.426 .501 30.426"/>
    <polygon id="img3-c" points=".32 .421 7.587 .421 7.587 4.57 .32 4.57"/>
  </defs>
  <g fill="none" fill-rule="evenodd" transform="translate(-887 -3538)">
    <rect width="1802" height="5750" fill="#FFF"/>
    <g transform="translate(887 3540)">
      <path fill="#F8F8F8" d="M382.731175,115.655407 L382.731175,115.655407 L382.728771,115.655407 C380.81256,115.782484 378.915583,115.979208 377.040245,116.25902 C347.015597,117.466246 323.472889,86.7039823 323.472889,86.7039823 L323.471686,86.7137574 C283.406766,35.7255744 223.425994,0 170.14595,0 C113.546797,0 81.5434272,40.3125436 86.472201,96.411886 C86.8628965,107.0973 84.9743346,138.215134 51.0331155,148.373914 C51.0222962,148.37758 51.0126791,148.381245 51.0018598,148.383689 C50.814326,148.443562 50.6279943,148.500991 50.4392583,148.560863 C50.2709587,148.614626 50.1026591,148.668389 49.9403702,148.722152 C25.8014002,156.455484 0.323246227,169.694646 0,205.642604 C-0.768296841,292.992965 94.4856658,301 94.4856658,301 L474.757392,301 C474.757392,301 552.635624,298.221426 521.761064,220.801352 C498.587412,162.688337 434.026486,112.265889 382.731175,115.655407" transform="matrix(-1 0 0 1 529 37)"/>
      <g transform="translate(194)">
        <path fill="#0A0A0A" d="M85.598133 42.0106309C91.5196788 41.5690108 97.5179641 54.9842422 102.788942 64.0048289 112.422621 80.4962535 114.233446 91.2466161 96.7408328 104 76.8446681 98.2898166 71.5880077 72.6618655 76.9964292 54.9341376 79.7808156 45.8080981 82.6797387 42.2273627 85.598133 42.0106309M56.2554575 29C51.7744079 39.9242696 42.6390307 45.2546892 37.4642934 55.0160527 35.2519767 59.1887655 34.7235076 63.9050922 32.0189892 67.9039179 28.9955472 72.3724121 24.0056014 75.0078705 20.929773 79.3585143 6.83208236 99.2989169 47.5265065 117.915236 59.9415008 96.4034944 68.2041556 82.0887151 70.4107156 64.0165879 68.1868854 47.9045901"/>
        <g transform="translate(30 336)">
          <path fill="#FFF" d="M0.214865455,0.337269231 C0.683810909,11.4038077 1.15275636,22.4651538 1.62228364,33.5299615 C1.98941091,42.1734231 0.983447273,45.2461154 7.50330182,50.4170769 C12.6576291,54.5080385 20.1782109,60.8063077 27.2496291,59.8595769 C35.4189382,58.7668846 30.5450473,56.4822692 28.6756655,52.0820769 C28.1706473,39.2386154 25.8439564,16.2199615 27.5835927,0.705923077"/>
          <path stroke="#231815" d="M0.214865455,0.337269231 C0.683810909,11.4038077 1.15275636,22.4651538 1.62228364,33.5299615 C1.98941091,42.1734231 0.983447273,45.2461154 7.50330182,50.4170769 C12.6576291,54.5080385 20.1782109,60.8063077 27.2496291,59.8595769 C35.4189382,58.7668846 30.5450473,56.4822692 28.6756655,52.0820769 C28.1706473,39.2386154 25.8439564,16.2199615 27.5835927,0.705923077"/>
        </g>
        <path fill="#0A0A0A" d="M60.2765442,387.031929 C60.2765442,387.031929 59.3365244,392.796786 51.8739181,389.359481 C44.4194505,385.9239 31.3300961,370 31.3300961,370 L30,397.237524 L37.5201585,397.37143 L37.6701431,389.10776 C37.6701431,389.10776 41.6551993,399.925415 48.3533491,399.217954 C55.0538243,398.505896 87.5220041,405.690271 60.2765442,387.031929"/>
        <path fill="#FFF" d="M63.9997999,30.5273614 C63.9864402,31.3548859 63.3012807,32.0156324 62.4742543,31.9997185 C61.6453193,31.9850776 60.9856068,31.3014151 61.0002388,30.4738906 C61.0155069,29.6438199 61.698758,28.984983 62.5276929,29.0002604 C63.3559916,29.0149012 64.0131595,29.6972907 63.9997999,30.5273614"/>
        <g transform="translate(71 336)">
          <path fill="#FFF" d="M0.191592727,0.516640952 C0.659956364,11.6598886 1.13006545,22.7990695 1.59493818,33.9405743 C1.96788364,42.6449838 0.957265455,45.7397171 7.47770182,50.9462124 C12.6349382,55.0657457 20.15552,61.4080029 27.2228655,60.45466 C35.3974109,59.3537552 30.5211927,57.0531838 28.6506473,52.62226 C27.7814109,40.7249362 25.8206836,16.509679 27.5632291,0.887288571"/>
          <path stroke="#231815" d="M0.191592727,0.516640952 C0.659956364,11.6598886 1.13006545,22.7990695 1.59493818,33.9405743 C1.96788364,42.6449838 0.957265455,45.7397171 7.47770182,50.9462124 C12.6349382,55.0657457 20.15552,61.4080029 27.2228655,60.45466 C35.3974109,59.3537552 30.5211927,57.0531838 28.6506473,52.62226 C27.7814109,40.7249362 25.8206836,16.509679 27.5632291,0.887288571"/>
        </g>
        <polygon fill="#FFF" points="28 336.504 28.091 149.994 73 149 58.96 337"/>
        <polygon stroke="#231815" points="28 336.504 28.091 149.994 73 149 58.96 337"/>
        <path stroke="#292121" d="M37.3759176,162 C44.9651244,168.107299 38.4566709,169.566251 37.3285815,176.179978 C36.5488648,180.744789 43.5780159,182.726413 36.3201621,189.858749 C35.5431048,192.129262 36.2659117,193.196647 37.5705809,194.498393 L37.8966152,336"/>
        <polygon fill="#FFF" points="70.364 336.393 64 149 107 151.56 100.071 338"/>
        <polygon stroke="#231815" points="70.364 336.393 64 149 107 151.56 100.071 338"/>
        <line x1="77" x2="79" y1="212" y2="337" stroke="#292121"/>
        <path fill="#0048FA" d="M147.835519,134.641297 C146.314287,125.885934 135.924822,116.05528 130.817831,109.39659 C130.815507,109.388475 106.938331,78.2554621 106.938331,78.2554621 C106.938331,78.2554621 102.176493,71.5475001 95.5476891,71.685462 C92.5,70.4148215 82.2360419,66.5078336 72.4026574,67.0515657 C64.5559384,67.4886383 57.1845317,69.4467696 50.7643304,72.851182 C45.0774348,71.3312826 34.4677458,78.2734319 28.9871287,86.8148958 C13.093804,111.583112 3.07738359,124.829772 3.07738359,124.829772 C3.07738359,124.829772 -6.27429701,138.791167 7.62655143,145.472464 C9.3982225,146.323422 11.5353842,145.660278 13.3146092,145.000032 C18.9526952,142.906257 23.5768206,139.813128 27.639636,136.148443 C27.4850724,147.526821 27.27124,158.24843 26.4687875,162.757118 L106.895332,163 C106.895332,163 108.292216,150.287218 108.500237,134.007715 C119.75491,144.800045 127.263448,150.47735 127.538874,150.684873 C137.760992,158.384653 149.533394,144.395434 147.835519,134.641297"/>
        <path stroke="#000" d="M147.835519,134.641297 C146.314287,125.885934 135.924822,116.05528 130.817831,109.39659 C130.815507,109.388475 106.938331,78.2554621 106.938331,78.2554621 C106.938331,78.2554621 102.176493,71.5475001 95.5476891,71.685462 C92.5,70.4148215 82.2360419,66.5078336 72.4026574,67.0515657 C64.5559384,67.4886383 57.1845317,69.4467696 50.7643304,72.851182 C45.0774348,71.3312826 34.4677458,78.2734319 28.9871287,86.8148958 C13.093804,111.583112 3.07738359,124.829772 3.07738359,124.829772 C3.07738359,124.829772 -6.27429701,138.791167 7.62655143,145.472464 C9.3982225,146.323422 11.5353842,145.660278 13.3146092,145.000032 C18.9526952,142.906257 23.5768206,139.813128 27.639636,136.148443 C27.4850724,147.526821 27.27124,158.24843 26.4687875,162.757118 L106.895332,163 C106.895332,163 108.292216,150.287218 108.500237,134.007715 C119.75491,144.800045 127.263448,150.47735 127.538874,150.684873 C137.760992,158.384653 149.533394,144.395434 147.835519,134.641297 Z"/>
        <line x1="62" x2="64" y1="37" y2="39" stroke="#500B02" stroke-linecap="round" stroke-linejoin="round" stroke-width="1.5"/>
        <path stroke="#292121" d="M70.7374754,166 L70,205.97184 C70,205.97184 76.0439626,206.76707 77.9478168,199.905617 C79.859415,193.045893 80,166.159622 80,166.159622"/>
        <line x1="29" x2="59" y1="329.036" y2="329.964" stroke="#292121"/>
        <line x1="74" x2="100" y1="330.099" y2="330.901" stroke="#292121"/>
        <line x1="70" x2="79" y1="261" y2="254" stroke="#000"/>
        <line x1="28" x2="37" y1="262" y2="255" stroke="#000"/>
        <g transform="translate(70 371)">
          <mask id="img3-b" fill="#fff">
            <use xlink:href="#img3-a"/>
          </mask>
          <path fill="#0A0A0A" d="M30.8786333,17.4726333 C30.8786333,17.4726333 29.9353833,23.2317444 22.4488833,19.7970593 C14.9641333,16.3658185 1.83505,0.459374074 1.83505,0.459374074 L0.500966667,27.6676148 L8.04405,27.8002259 L8.19571667,19.5461889 C8.19571667,19.5461889 12.1938833,30.3525593 18.9168,29.6447259 C25.6391333,28.9334481 58.2188833,36.1099481 30.8786333,17.4726333" mask="url(#img3-b)"/>
        </g>
        <path fill="#FFF" d="M79.764814,67.4827988 C80.265069,63.4635748 80.9843323,58.9030237 81.3507162,56.6510565 C82.4322533,56.537245 83.4333503,56.2634039 84.2659343,55.7451857 C91.5255026,51.2106321 89.6982803,38.3851652 89.6765556,34.4289131 C89.6583538,31.2265904 89.4381712,26.8595767 87.2997574,24.2101357 C85.5482779,22.0494489 82.4340147,22.1280193 79.9057309,21.7039701 C76.7462569,21.1736197 73.5139758,20.6750441 70.3239698,21.2700996 C67.0077257,21.8899971 63.2851713,23.6965393 60.6547227,25.7884769 C60.6547227,25.7884769 61.2571424,28.9873332 61.7638561,33.8448344 C61.1455832,33.8436789 60.4697693,34.029706 59.7440473,34.5028617 C56.6767564,36.5069854 56.9621131,41.1813481 62.4009178,43.289462 C62.4866423,46.248563 62.4643304,49.3861806 62.256478,52.5445962 C62.256478,52.545174 62.3052118,52.5590393 62.3880004,52.582726 C61.351087,59.8331589 60.5625396,65.8154881 60.2542839,68.1864664 L59.7704693,68.2113085 L53,71.7619986 L76.2371946,86 L91,70.2957357 L79.764814,67.4827988 Z"/>
        <path stroke="#231815" d="M79.764814,67.4827988 C80.265069,63.4635748 80.9843323,58.9030237 81.3507162,56.6510565 C82.4322533,56.537245 83.4333503,56.2634039 84.2659343,55.7451857 C91.5255026,51.2106321 89.6982803,38.3851652 89.6765556,34.4289131 C89.6583538,31.2265904 89.4381712,26.8595767 87.2997574,24.2101357 C85.5482779,22.0494489 82.4340147,22.1280193 79.9057309,21.7039701 C76.7462569,21.1736197 73.5139758,20.6750441 70.3239698,21.2700996 C67.0077257,21.8899971 63.2851713,23.6965393 60.6547227,25.7884769 C60.6547227,25.7884769 61.2571424,28.9873332 61.7638561,33.8448344 C61.1455832,33.8436789 60.4697693,34.029706 59.7440473,34.5028617 C56.6767564,36.5069854 56.9621131,41.1813481 62.4009178,43.289462 C62.4866423,46.248563 62.4643304,49.3861806 62.256478,52.5445962 C62.256478,52.545174 62.3052118,52.5590393 62.3880004,52.582726 C61.351087,59.8331589 60.5625396,65.8154881 60.2542839,68.1864664 L59.7704693,68.2113085 L53,71.7619986 L76.2371946,86 L91,70.2957357 L79.764814,67.4827988 Z"/>
        <polygon fill="#FFAF1B" points="120.61 156 81 155.3 96.392 100 136 100.701"/>
        <polygon stroke="#1E1E1E" points="120.61 156 81 155.3 96.392 100 136 100.701"/>
        <path fill="#FFF" d="M184.724627,52.7948008 C179.926868,54.6196059 174.139892,58.3456839 164.613632,58.1753688 C155.083908,58.003895 153.110669,61.7942757 153.110669,61.7942757 L151.615878,66.0440438 C143.251399,82.4800336 117.6495,132.83828 125.46512,141.945505 C134.440213,152.397293 145.933365,145.043039 149.674959,134.354316 C155.958274,116.392442 166.22789,83.6913566 168.390431,71.4350392 C169.586841,70.6923725 170.855393,70.0609321 172.028717,69.7886596 C175.858036,68.8976913 186.406411,65.2631431 191.289586,58.6538732 C196.175647,52.0417067 189.522386,50.9670993 184.724627,52.7948008"/>
        <path stroke="#231815" d="M184.724627,52.7948008 C179.926868,54.6196059 174.139892,58.3456839 164.613632,58.1753688 C155.083908,58.003895 153.110669,61.7942757 153.110669,61.7942757 L151.615878,66.0440438 C143.251399,82.4800336 117.6495,132.83828 125.46512,141.945505 C134.440213,152.397293 145.933365,145.043039 149.674959,134.354316 C155.958274,116.392442 166.22789,83.6913566 168.390431,71.4350392 C169.586841,70.6923725 170.855393,70.0609321 172.028717,69.7886596 C175.858036,68.8976913 186.406411,65.2631431 191.289586,58.6538732 C196.175647,52.0417067 189.522386,50.9670993 184.724627,52.7948008 Z"/>
        <path fill="#FFF" d="M98.2616287,128.387024 C95.0802398,130.638551 94.3104179,130.704152 90.4659495,130.332795 C89.1287684,130.206728 87.7991288,130.100626 86.468329,129.997947 C88.2289992,127.85024 91.2821812,125.914737 89.9554422,124.139527 C87.2120453,120.479013 83.3188467,126.550777 77.9051484,129.515355 C77.4828196,129.562701 77.0651318,129.645986 76.642803,129.776046 L31.5313576,124.715101 L9,145.319398 C9,145.319398 71.4570926,149.226913 77.9625805,145.125448 L78.0008685,144.551015 L78.4783089,145.082665 C85.1694359,144.121474 94.2611075,145.614316 100.558332,142.718191 C104.658054,140.832316 110.067691,131.733226 107.191446,124.524574 C105.481247,120.237146 100.207358,127.00827 98.2616287,128.387024"/>
        <path stroke="#231815" d="M98.2616287,128.387024 C95.0802398,130.638551 94.3104179,130.704152 90.4659495,130.332795 C89.1287684,130.206728 87.7991288,130.100626 86.468329,129.997947 C88.2289992,127.85024 91.2821812,125.914737 89.9554422,124.139527 C87.2120453,120.479013 83.3188467,126.550777 77.9051484,129.515355 C77.4828196,129.562701 77.0651318,129.645986 76.642803,129.776046 L31.5313576,124.715101 L9,145.319398 C9,145.319398 71.4570926,149.226913 77.9625805,145.125448 L78.0008685,144.551015 L78.4783089,145.082665 C85.1694359,144.121474 94.2611075,145.614316 100.558332,142.718191 C104.658054,140.832316 110.067691,131.733226 107.191446,124.524574 C105.481247,120.237146 100.207358,127.00827 98.2616287,128.387024 Z"/>
        <path stroke="#000" stroke-linecap="round" stroke-linejoin="round" stroke-width="1.6" d="M106 124C106 124 102.157751 130.114624 99.0235108 131.828849 95.8927046 133.539065 93 132.871817 93 132.871817M107 127C107 127 104.343705 132.436935 101.377547 134.08942 98.4131641 135.740776 94 136 94 136M108 130C108 130 105.340869 135.437947 102.379577 137.08966 99.4135547 138.740243 95 139 95 139"/>
        <line x1="46" x2="33" y1="108" y2="124" stroke="#000" stroke-width="1.4"/>
        <path fill="#0A0A0A" d="M177.087949,36.9654761 C177.061119,36.9512646 177.03543,36.93819 177.005746,36.9239786 C176.747148,36.7682209 176.664945,36.4305564 176.818505,36.1741815 L182.314127,26.9969833 L175.5866,28.6523352 C175.347412,28.7086126 175.097948,28.6017423 174.979781,28.3908441 L171.536954,22.2492157 L170.09212,33.5086783 C170.048164,33.8082561 169.775296,34.0168805 169.473884,33.9822045 C169.167335,33.9372963 168.968677,33.6684153 169.00407,33.3722482 L170.664688,20.4744875 C170.692089,20.2402825 170.867341,20.0549649 171.100821,20.0094882 C171.333159,19.9662853 171.571206,20.0731556 171.683664,20.2783692 L175.731597,27.4943847 L183.319974,25.6275661 C183.544891,25.5724256 183.760103,25.6559891 183.894254,25.8333482 C184.023838,26.0107073 184.035255,26.2443439 183.923368,26.4347776 L177.759845,36.7329764 C177.620557,36.9654761 177.332846,37.055861 177.087949,36.9654761"/>
        <path fill="#0A0A0A" d="M178.052187,37.9623916 C177.855982,37.8830357 177.70736,37.6972841 177.696198,37.4709728 C177.678575,37.1570761 177.914139,36.8960833 178.22372,36.8731583 C183.032506,36.5927674 187.273238,33.5078801 189.026748,29.0198628 C191.511033,22.662573 188.365877,15.469401 182.009773,12.9835038 L181.990975,12.9788012 C178.913962,11.7796453 175.560265,11.8484204 172.541997,13.1721945 C169.510805,14.4983199 167.174554,16.9266106 165.977938,20.007971 C164.304321,24.3102367 165.134374,29.1427175 168.15558,32.632026 L168.687213,33.0182248 C168.932763,33.2045642 168.98622,33.5578449 168.802939,33.8082569 C168.617308,34.0592567 168.262494,34.1162754 168.017531,33.9269968 L167.440665,33.5043532 C167.406006,33.4773134 167.378396,33.4508614 167.351961,33.422646 C164.015888,29.6112112 163.092431,24.312588 164.931707,19.5959081 C166.241699,16.2394472 168.782378,13.58896 172.08908,12.1405677 C175.385795,10.6980537 179.044961,10.6210491 182.396896,11.9254251 C182.401008,11.928952 182.412757,11.9307155 182.412757,11.9307155 C189.350427,14.6470387 192.780491,22.4926926 190.074741,29.4331013 C188.160861,34.3278911 183.537118,37.690818 178.2901,37.9988365 C178.206096,38.0047147 178.127379,37.9876679 178.052187,37.9623916"/>
        <path fill="#0A0A0A" d="M169.626519,34.1764565 C169.246416,34.0271981 168.818944,34.2164155 168.67395,34.6013143 L165.160595,43.7572044 C165.008669,44.140928 165.195832,44.5693115 165.576513,44.7220957 L173.373251,47.8206779 L173.173379,48.347196 L173.374406,47.8218532 C173.749888,47.9699364 174.178515,47.7824819 174.321776,47.4011089 L177.842641,38.2458063 C177.91196,38.0595271 177.909072,37.853856 177.829354,37.673453 C177.747326,37.4906996 177.606376,37.3461421 177.424989,37.2750387 L169.626519,34.1764565 Z M172.973507,48.8719511 L172.96773,48.8678377 L165.170993,45.7704308 C164.224201,45.3919959 163.755715,44.3031143 164.127731,43.3446869 L167.643397,34.1911473 C168.010214,33.2309571 169.081204,32.7526248 170.028573,33.1281215 L177.829354,36.2278789 C178.283399,36.4100448 178.645594,36.7585104 178.846044,37.220389 C179.038984,37.679917 179.055158,38.1893937 178.868573,38.6577362 L175.355217,47.8089253 C174.985512,48.7685279 173.916255,49.2474478 172.973507,48.8719511 L172.973507,48.8719511 Z"/>
        <path fill="#0A0A0A" d="M177.255304 40.9631548L177.248447 40.9631548 167.348724 37.0644449C167.068176 36.9527571 166.927617 36.6320865 167.037322 36.3505642 167.143598 36.0661633 167.465856 35.9268415 167.744118 36.0385293L177.650127 39.9349363C177.930675 40.0466241 178.074662 40.362689 177.960958 40.652847 177.852967 40.9332179 177.533566 41.0713883 177.255304 40.9631548M176.25289 43.9622027L176.25289 43.9622027 166.34397 40.0655951C166.064516 39.9533092 165.928503 39.6360297 166.037656 39.3446622 166.146809 39.0665388 166.461695 38.927765 166.742864 39.0377475L166.746865 39.0377475 176.653499 42.934931C176.930096 43.0483685 177.074109 43.3673755 176.961527 43.651833 176.853517 43.9322598 176.534059 44.0727611 176.25289 43.9622027M175.251495 46.9617452L175.251495 46.9617452 165.348749 43.0641966C165.064736 42.95422 164.929301 42.6346544 165.036735 42.353667 165.14474 42.068649 165.464183 41.9264279 165.745339 42.0381319L175.649227 45.9333774C175.934383 46.0439298 176.073247 46.3646469 175.961242 46.6519681 175.852094 46.9335313 175.536651 47.0728734 175.251495 46.9617452M182.390455 8.96401616L182.390455 8.96401616C182.073843 8.8624851 181.917794 8.5589778 182.043536 8.29184794L184.808575 2.33083434C184.925934 2.06479037 185.290265 1.93122545 185.606877 2.03547124 185.925424 2.13971704 186.084697 2.43942371 185.954441 2.70763946L183.187468 8.67028191C183.066884 8.93686882 182.707713 9.06880491 182.390455 8.96401616M174.215147 6.96298551C174.075394 6.91456085 173.962748 6.81606069 173.89528 6.68564428L171.047801.742067715C170.923107.474081252 171.049608.163172933 171.342971.0454129673 171.634525-.0734475584 171.976681.0492649288 172.106194.317251392L174.95307 6.25862684C175.077764 6.52826414 174.945842 6.83697134 174.653685 6.95253018 174.507907 7.01251073 174.353094 7.01526213 174.215147 6.96298551"/>
        <g transform="translate(190 10)">
          <mask id="img3-d" fill="#fff">
            <use xlink:href="#img3-c"/>
          </mask>
          <path fill="#0A0A0A" d="M0.669771429,4.5316875 C0.540057143,4.4735625 0.424057143,4.3635625 0.367485714,4.2116875 C0.242342857,3.9098125 0.371485714,3.5554375 0.648628571,3.4241875 L6.82234286,0.4704375 C7.09891429,0.3416875 7.42348571,0.4735625 7.5412,0.7766875 C7.66177143,1.0785625 7.53948571,1.4298125 7.26234286,1.5629375 L1.08577143,4.5185625 C0.9492,4.5860625 0.799485714,4.5835625 0.669771429,4.5316875" mask="url(#img3-d)"/>
        </g>
        <path fill="#0A0A0A" d="M64.4202085 36.2516693C70.7673297 34.9051469 81.8818956 30.1893629 83.7126733 23.2652349 85.3920943 27.0807758 87.1921367 31.6830689 89.8782824 34.7124487 89.4874227 34.2756269 94.4462379 27.5181887 90.4042613 20.1566478 87.8161204 15.8061627 81.9816402 13.5292512 77.2391316 13.0853363 70.1798803 12.4286258 50.2860483 15.1169419 57.5836429 37M75.8153494 37.2102734C74.4546419 36.2854311 73.7817319 38.6684231 74.0631036 39.383924 74.730803 41.0972651 76.2917459 38.8270882 75.9523134 37.5457021L75.8153494 37.2102734zM86.9072195 37.2111635C86.2262926 36.2846595 85.8919428 38.6645567 86.0310795 39.3782521 86.3603699 41.102617 87.1483899 38.8280976 86.975523 37.5402982L86.9072195 37.2111635zM81.5134038 46.4344438C81.4824038 46.4214438 81.4884038 46.5474438 81.4824038 46.5704438 81.5344038 46.5454438 81.5134038 46.4014438 81.5134038 46.4344438"/>
        <polygon fill="#0A0A0A" points="81.47 46.508 81.456 46.559 81.544 46.441"/>
        <path fill="#0A0A0A" d="M81.664 46.53C81.637 46.312 81.482 46.549 81.4 46.466L81.391 46.416 81.336 46.584C81.445 46.566 81.594 46.464 81.664 46.53M82.5246941 46.53013C82.5146941 46.44613 82.5886941 46.46413 82.4626941 46.49913 82.4676941 46.50913 82.4696941 46.51313 82.4726941 46.52013 82.4836941 46.52013 82.4996941 46.52213 82.5246941 46.53013M82.5064274 46.4835533C82.4524274 46.4855533 82.5344274 46.5565533 82.5064274 46.4835533"/>
        <path fill="#0A0A0A" d="M82.5252346,46.416 L82.4482346,46.483 C82.4592346,46.534 82.5212346,46.551 82.4952346,46.584 C82.5712346,46.55 82.5592346,46.5 82.5252346,46.416"/>
        <path fill="#0A0A0A" d="M82.5195,46.4777589 L82.4805,46.5057589 C82.4865,46.5277589 82.4945,46.5357589 82.5195,46.4777589"/>
        <path fill="#0A0A0A" d="M82.459,46.5553833 L82.541,46.4953833 C82.533,46.4603833 82.539,46.3913833 82.504,46.5163833 C82.516,46.4533833 82.494,46.5133833 82.459,46.5553833"/>
        <path fill="#0A0A0A" d="M82.5537833 46.5747609C82.5187833 46.5247609 82.4687833 46.4907609 82.5457833 46.4237609 82.4087833 46.4407609 82.4147833 46.5927609 82.5537833 46.5747609M81.549 45.5210807L81.504 45.4550807 81.451 45.5220807C81.478 45.4890807 81.547 45.5880807 81.549 45.5210807"/>
        <path fill="#0A0A0A" d="M82.5371866,46.591 C82.5451866,46.546 82.5211866,46.468 82.5191866,46.409 L82.4611866,46.458 C82.4881866,46.491 82.5391866,46.523 82.5371866,46.591"/>
        <path fill="#0A0A0A" d="M82.4570228,46.5380219 L82.5430228,46.4650219 C82.4710228,46.4510219 82.4560228,46.4870219 82.4570228,46.5380219"/>
        <polygon fill="#0A0A0A" points="82.559 46.425 82.417 46.577 82.583 46.423"/>
        <polygon fill="#0A0A0A" points="82.507 46.474 82.454 46.578 82.546 46.422"/>
        <path fill="#0A0A0A" d="M82.4233047,46.3995 C82.3843047,46.4865 82.4683047,46.5475 82.4293047,46.6005 C82.4883047,46.5865 82.5403047,46.5115 82.5873047,46.4445 C82.5383047,46.4815 82.4853047,46.4715 82.4233047,46.3995"/>
        <path fill="#0A0A0A" d="M82.5375,46.4515 C82.5145,46.4725 82.4895,46.5095 82.4625,46.5485 C82.4875,46.5285 82.5135,46.5005 82.5375,46.4515"/>
        <path fill="#0A0A0A" d="M82.4715,46.433 C82.4775,46.46 82.4855,46.534 82.5285,46.567 L82.5025,46.437 L82.4715,46.433 Z"/>
        <path fill="#0A0A0A" d="M82.466,46.492 L82.466,46.497 C82.5,46.502 82.525,46.506 82.534,46.508 C82.527,46.506 82.507,46.502 82.466,46.492"/>
        <path fill="#0A0A0A" d="M82.496,46.5049304 L82.504,46.5059304 C82.502,46.4929304 82.5,46.4879304 82.496,46.5049304"/>
        <path fill="#0A0A0A" d="M82.4495926,46.627 C82.5015926,46.559 82.6025926,46.488 82.5175926,46.373 C82.4775926,46.459 82.5275926,46.524 82.4495926,46.627"/>
        <path fill="#0A0A0A" d="M82.5485,46.476 L82.4655,46.441 C82.4655,46.475 82.4775,46.525 82.4515,46.559 L82.5485,46.476 Z"/>
        <polygon fill="#0A0A0A" points="82.522 46.474 82.478 46.513 82.508 46.526"/>
        <path fill="#0A0A0A" d="M82.4535632,46.55392 C82.4925632,46.49792 82.5335632,46.49392 82.5815632,46.48592 C82.5315632,46.45992 82.4795632,46.44592 82.4305632,46.44592 C82.4225632,46.48592 82.3985632,46.55792 82.4535632,46.55392"/>
        <path fill="#0A0A0A" d="M82.495,46.5077737 L82.505,46.5007737 C82.499,46.4897737 82.495,46.4867737 82.495,46.5077737"/>
        <polygon fill="#0A0A0A" points="83.505 46.511 83.496 46.489 83.495 46.511"/>
        <path fill="#0A0A0A" d="M82.5356707,46.482 C82.4986707,46.457 82.4746707,46.488 82.4536707,46.527 C82.4816707,46.514 82.5126707,46.506 82.5436707,46.505 C82.5476707,46.487 82.5486707,46.475 82.5356707,46.482"/>
        <path fill="#0A0A0A" d="M82.5335,46.5306953 C82.5125,46.5046953 82.4905,46.4806953 82.4665,46.4596953 C82.4855,46.5006953 82.5255,46.5646953 82.5335,46.5306953"/>
        <path fill="#0A0A0A" d="M82.5017505,46.489195 L82.4957505,46.495195 C82.5057505,46.522195 82.5057505,46.510195 82.5017505,46.489195"/>
        <path fill="#0A0A0A" d="M82.4795 46.5385C82.4995 46.5195 82.5165 46.4885 82.5325 46.4615 82.5085 46.4715 82.4875 46.4845 82.4675 46.5035 82.4695 46.5125 82.4755 46.5255 82.4795 46.5385M83.5535944 46.096C83.5575944 46.215 83.4695944 46.331 83.3835944 46.209 83.3085944 46.303 83.3695944 46.691 83.4565944 46.904 83.4575944 46.852 83.4555944 46.804 83.5385944 46.728 83.5035944 46.665 83.3405944 46.589 83.4075944 46.477 83.5165944 46.408 83.5005944 46.513 83.5595944 46.573 83.5045944 46.427 83.6865944 46.348 83.6435944 46.132L83.5555944 46.215C83.5515944 46.182 83.5815944 46.125 83.5535944 46.096"/>
        <path fill="#0A0A0A" d="M83.4325 46.415L83.3975 46.429C83.4385 46.451 83.4695 46.495 83.5305 46.585 83.5885 46.523 83.6005 46.478 83.6025 46.438L83.4205 46.433 83.4325 46.415zM82.4665 46.6225C82.4935 46.4935 82.5775 46.4395 82.5255 46.2995 82.4235 46.3075 82.4545 46.4065 82.3925 46.4625 82.5595 46.4325 82.3435 46.5335 82.4645 46.6075 82.4325 46.6295 82.4025 46.6365 82.3735 46.6415 82.4045 46.6575 82.4335 46.6775 82.4615 46.7005L82.4575 46.6925 82.4565 46.6935 82.4565 46.6915C82.4505 46.6755 82.4465 46.6655 82.4545 46.6755L82.4585 46.6725C82.4625 46.6545 82.4645 46.6385 82.4665 46.6235 82.5155 46.6505 82.4745 46.6575 82.4585 46.6725L82.4565 46.6915 82.4575 46.6925 82.6265 46.6235C82.5915 46.6055 82.5465 46.6085 82.4665 46.6225M82.4938109 45.485C82.4978109 45.497 82.4968109 45.506 82.4968109 45.515 82.5078109 45.501 82.5118109 45.49 82.4938109 45.485"/>
        <path fill="#0A0A0A" d="M82.5210764,46.3675 C82.5090764,46.3855 82.4970764,46.4355 82.4600764,46.4205 C82.4290764,46.3805 82.4640764,46.3585 82.4650764,46.3155 C82.4410764,46.3485 82.3800764,46.4035 82.4470764,46.4715 L82.4590764,46.4545 C82.5200764,46.5025 82.5940764,46.6685 82.5820764,46.6845 C82.5700764,46.5675 82.5580764,46.4845 82.5210764,46.3675"/>
        <path fill="#0A0A0A" d="M82.4305,46.587 L82.5695,46.525 L82.5025,46.413 L82.5045,46.48 C82.4295,46.453 82.4435,46.536 82.4305,46.587"/>
        <polygon fill="#0A0A0A" points="83.475 46.462 83.463 46.599 83.537 46.401"/>
        <polygon fill="#0A0A0A" points="83.477 46.441 83.478 46.559 83.523 46.485"/>
        <path fill="#0A0A0A" d="M83.5235,41.511 L83.4765,41.489 C83.4945,41.501 83.5095,41.507 83.5235,41.511"/>
        <path fill="#0A0A0A" d="M83.4715604 41.509L83.5285604 41.491C83.4925604 41.492 83.4695604 41.497 83.4715604 41.509M84.4075951 44.5628974C84.5115951 44.4968974 84.6755951 44.4188974 84.5425951 44.4408974L84.4155951 44.4708974C84.4425951 44.5048974 84.4325951 44.5358974 84.4075951 44.5628974M84.4665 42.4855L84.4355 42.5145C84.4825 42.5105 84.5255 42.5075 84.5645 42.5045 84.5345 42.4985 84.5005 42.4915 84.4665 42.4855M83.474 42.55L83.526 42.45C83.504 42.477 83.487 42.509 83.474 42.55M82.5705 40.4791235L82.4295 40.4901235C82.4595 40.5551235 82.5085 40.5001235 82.5705 40.4791235M84.4047469 45.5295164C84.4947469 45.5305164 84.5597469 45.5195164 84.6047469 45.4885164 84.4827469 45.4885164 84.3597469 45.4275164 84.4047469 45.5295164"/>
        <path fill="#0A0A0A" d="M83.543 41.4978904C83.512 41.4858904 83.484 41.4868904 83.457 41.4998904 83.488 41.5128904 83.516 41.5158904 83.543 41.4978904M84.5787615 45.4135C84.5577615 45.4185 84.5457615 45.4205 84.5277615 45.4255 84.5047615 45.4835 84.4747615 45.5415 84.4197615 45.5865 84.5047615 45.5785 84.5927615 45.5355 84.5787615 45.4135M81.4969842 37.5085C81.5009842 37.5025 81.5029842 37.4995 81.5069842 37.4915 81.4899842 37.4955 81.4909842 37.5015 81.4969842 37.5085M82.488252 36.4705C82.498252 36.4845 82.502252 36.5075 82.509252 36.5295 82.515252 36.5175 82.511252 36.4985 82.488252 36.4705M83.5091285 46.494186C83.4701285 46.510186 83.5051285 46.509186 83.5091285 46.494186"/>
        <path fill="#0A0A0A" d="M83.4969595 46.5325C83.5029595 46.5165 83.5049595 46.4975 83.5009595 46.4675 83.5029595 46.4995 83.5009595 46.5195 83.4969595 46.5325M84.5080714 45.5015L84.5090714 45.4985C84.4830714 45.4985 84.4870714 45.4985 84.5080714 45.5015"/>
        <path fill="#0A0A0A" d="M83.4695,46.486 C83.4895,46.499 83.5085,46.508 83.5305,46.514 C83.5205,46.506 83.5015,46.497 83.4695,46.486"/>
        <path fill="#0A0A0A" d="M83.5195449,46.494467 C83.5015449,46.491467 83.4925449,46.490467 83.4805449,46.488467 C83.4795449,46.511467 83.4865449,46.523467 83.5195449,46.494467"/>
        <path fill="#0A0A0A" d="M83.5355 46.4915C83.5125 46.4985 83.4895 46.4965 83.4645 46.4905 83.4735 46.4975 83.4795 46.5045 83.4775 46.5095 83.4915 46.5055 83.5095 46.5005 83.5355 46.4915M82.5133234 39.5092245L82.5223234 39.4972245C82.4573234 39.4832245 82.4713234 39.4942245 82.5133234 39.5092245"/>
        <polygon fill="#0A0A0A" points="84.494 43.5 84.502 43.502 84.506 43.498"/>
        <path fill="#0A0A0A" d="M84.258,43.479 C84.422,43.482 84.406,43.511 84.377,43.542 L84.742,43.458 C84.742,43.458 84.621,43.46 84.5,43.463 L84.258,43.479 Z"/>
        <path fill="#0A0A0A" d="M83.0422692,41.4761895 C83.0174797,41.4692182 82.9501033,41.4628278 82.9952328,41.4326187 C83.0994756,41.4105428 83.0581599,41.4413328 83.0422692,41.4761895 M82.6424599,40.7715045 L82.597966,40.8470272 C82.4574925,40.8330845 82.4759256,40.7749901 82.4015573,40.859227 C82.6424599,40.7715045 82.5159701,41.0387387 82.7568727,40.9510162 L82.7219132,41.0033011 C82.7193707,40.9928441 82.7047513,40.9969107 82.7034801,40.9864537 C82.6189417,41.0945093 82.8967106,40.9649588 82.90116,41.0590717 C82.896075,41.0939284 82.8706499,41.1270422 82.8337836,41.1194899 L82.9215001,41.1578322 C82.9259495,41.1781652 82.8833625,41.1897841 82.8782775,41.170613 L82.9431114,41.2577546 L82.9354839,41.2594974 C82.9793421,41.2583355 83.051168,41.2664687 83.0829493,41.2716972 C83.0607024,41.3094586 83.0518036,41.2699544 83.0251073,41.2873827 L83.1077388,41.3175918 C83.0568886,41.3634864 82.976164,41.3431533 82.9679008,41.3030682 C82.7543302,41.4459804 83.0486255,41.3239822 82.9602733,41.4843227 L82.906245,41.4465613 C82.7861116,41.5319601 82.853488,41.5511313 82.7962816,41.6400157 C82.8337836,41.6098066 82.9551883,41.4448185 83.0409979,41.4779323 C83.0308279,41.5011701 83.0320992,41.5255697 83.0943906,41.5377695 C83.0098522,41.5708833 83.0448117,41.5929592 83.0670586,41.6289777 L82.9539171,41.6702248 C83.0047672,41.6981101 83.0607024,41.6725485 83.1229938,41.6766151 C83.1325282,41.7265763 83.0505323,41.7695662 82.9825203,41.8090704 C82.9984109,41.8880787 83.0982044,41.7045005 83.1592245,41.7823469 C83.1439695,41.8584506 83.2107103,41.8828502 83.311775,41.9299067 C83.2914349,41.9862583 83.2393135,41.9490779 83.2138884,41.9763822 L83.3200381,41.978706 C83.3225806,41.988582 83.2939774,41.9967153 83.279358,42.0007819 C83.3283013,42.0187911 83.3924996,41.9595348 83.4458923,41.9978771 C83.5761958,41.9636015 83.3105037,42.1686747 83.4802161,42.1762269 C83.454791,42.2035313 83.407119,42.1953981 83.3664389,42.2163121 C83.4967424,42.2656923 83.4662323,42.2633685 83.6219609,42.2860253 L83.5749245,42.372005 C83.6403941,42.2970633 83.764977,42.3156535 83.8692198,42.3348246 C83.902908,42.3040346 83.9334181,42.2773112 83.9461306,42.2622066 L84.0414747,42.3185582 C84.0268552,42.3354056 83.9842682,42.341796 83.9308756,42.3452816 L83.9645638,42.3499292 C83.9346893,42.3935 83.8634991,42.4027951 83.7910377,42.4056998 L83.8488797,42.351672 C83.7719689,42.3574815 83.6880661,42.3673575 83.6238678,42.3958238 C83.6391228,42.3964047 83.6543779,42.4016332 83.6651835,42.4103474 C83.6442078,42.4120902 83.6264103,42.4149949 83.6156046,42.4213853 C83.604799,42.4283566 83.6334022,42.4271947 83.667726,42.4295185 L83.5488638,42.4928414 L83.6016208,42.4788987 L83.5660257,42.6078683 C83.72239,42.6351727 83.9423169,42.6322679 84.0395678,42.7321903 C83.9346893,42.7345141 83.8838392,42.7775039 83.7732401,42.8129415 C83.8787542,42.7420663 83.6887017,42.7414854 83.6867949,42.6740959 C83.6867949,42.7089525 83.6321309,42.7205714 83.6092484,42.7194095 L83.7598919,42.7879609 C83.6683617,42.8164272 83.700143,42.8332745 83.6740823,42.8733597 C83.8457016,42.7931894 83.8240903,42.9122829 83.8965517,42.9384254 C83.8368028,42.9599203 83.7706976,42.9692154 83.764977,42.9122829 C83.6518354,43.0127862 84.0052439,42.9204161 83.9124424,43.0139481 C83.9060861,43.0011673 83.9124424,42.9918722 83.8800254,42.9959388 C83.9461306,43.0093006 83.9308756,43.0958612 83.8717623,43.0941184 L83.865406,43.0824995 C83.870491,43.170803 83.9423169,43.3311435 84.1050373,43.3113914 C84.0840617,43.3142961 83.9111711,43.3386958 83.8774829,43.3439243 C83.8774829,43.3433433 84.0192277,43.3456671 84.15843,43.3613526 C84.2989035,43.3770381 84.4431908,43.4147994 84.4431908,43.4147994 C84.3020817,43.4159613 83.9791832,43.4798652 83.8914667,43.4345515 C83.8736692,43.4519798 83.8539647,43.4682463 83.9098999,43.4972935 C83.9270618,43.4879984 84.1063086,43.460694 84.1221993,43.4775414 C83.9747338,43.5315692 84.0427459,43.5170456 83.9162562,43.595473 C83.9448594,43.5699115 84.1641506,43.5890826 84.1597013,43.6251011 C84.1272843,43.6216155 83.9448594,43.6396247 83.9213412,43.626263 L84.1419037,43.7087571 C84.1018592,43.688424 83.9594788,43.7168903 83.9010011,43.7436137 C83.9435881,43.7290901 83.9022724,43.8295934 83.9283331,43.8505074 L83.9734626,43.8063557 C83.9531225,43.9155731 84.286191,43.8795546 84.2874623,43.9800579 C84.2423328,43.9730866 84.0128714,43.979477 83.993167,44.0346666 C84.105673,44.0480283 84.5309074,44.0759136 84.6262514,44.1572458 L84.5665025,44.1816454 L84.6472271,44.2432255 C84.4775147,44.2141783 84.115843,44.1386556 83.9734626,44.0898563 C83.9283331,44.1334271 83.9016367,44.1113512 83.9149849,44.1642171 C83.8590497,44.1897787 83.8215478,44.1473698 83.8170984,44.1293605 L83.795487,44.258911 C83.9226124,44.2391589 83.9359606,44.3402431 84.0414747,44.3251386 L83.8914667,44.2031404 C84.0179565,44.1816454 84.2639441,44.2420636 84.253774,44.3367575 C84.2054664,44.3646428 84.0243127,44.341405 83.9817257,44.3477954 C84.0293977,44.3565096 84.0751629,44.4227372 84.0427459,44.4314513 L83.9734626,44.4029851 C83.9270618,44.4488797 84.1469887,44.4651461 84.0281265,44.5255643 C84.0211346,44.5453164 83.8666773,44.5836587 83.9423169,44.5854015 C84.0872398,44.5557733 84.5391705,44.5342784 84.6510408,44.5586781 C84.6459558,44.5668113 84.5080248,44.6864857 84.4311139,44.7033331 C84.3147942,44.7259899 84.1641506,44.6371055 84.063086,44.6586004 C84.0974098,44.6615051 84.1393612,44.6795144 84.1527094,44.6876476 C84.120928,44.7021712 84.0452884,44.6713812 84.0573653,44.7085616 C84.185762,44.7300565 84.0402034,44.7846653 84.1641506,44.7399326 C84.1952964,44.7829224 84.1412681,44.7840843 84.131098,44.8177791 C84.2175433,44.8206838 84.3885269,44.9264156 84.3993326,44.9972907 C84.3707294,44.9821862 84.3262355,44.9775387 84.3071667,44.9746339 C84.2690291,45.0681659 84.15843,45.0577089 84.1088511,45.1227746 C84.0815191,45.108832 84.030669,45.1094129 84.0046083,45.0594517 C84.0141427,45.0832705 84.0338471,45.1204509 84.0116002,45.1338126 C83.9016367,45.0745563 84.0491022,45.0966322 83.9321468,45.0170428 C83.9791832,45.0710706 83.945495,45.118708 83.9372318,45.1721549 C84.0065152,45.2552299 84.0319403,45.1477552 84.0268552,45.0972131 C84.1380899,45.2093353 84.1768632,45.3632854 84.0961386,45.4864456 C84.0217702,45.5660349 84.0090577,45.4213798 84.0046083,45.4481033 C83.8368028,45.5015501 83.9645638,45.7379943 83.7846814,45.6857093 C83.700143,45.6113485 83.72239,45.5085214 83.6887017,45.4469414 C83.7420944,45.3940755 83.8107421,45.4742457 83.8565072,45.4573984 L83.7840458,45.4318368 C83.7942158,45.3958183 83.827904,45.3615426 83.8628635,45.3801328 C83.7884952,45.3110005 83.6035277,45.4422938 83.4668679,45.3905898 C83.4528842,45.4242845 83.4236453,45.4626268 83.449706,45.4963216 L83.4853011,45.4777314 C83.5386938,45.5451209 83.4357222,45.5910155 83.4941999,45.6177389 C83.4528842,45.678738 83.4058478,45.7705271 83.3200381,45.740899 L83.2882568,45.63691 C83.2946131,45.6677001 83.3486413,45.6920997 83.364532,45.6572431 C83.3397426,45.7083661 83.2259654,45.5317592 83.2126172,45.6758333 L83.2774511,45.740899 C83.2310504,45.8042219 83.1725727,45.9244773 83.09884,45.8936873 C83.141427,45.9970953 83.1128238,45.8803255 83.1776577,46 C83.114095,45.855345 83.3651676,45.9848955 83.2704592,45.8326881 C83.3448276,45.9668862 83.369617,45.8791637 83.4630542,45.9883811 C83.4541554,45.9541054 83.4242809,45.9256392 83.4903861,45.9331914 C83.4903861,45.9227345 83.4954712,45.9087918 83.4980137,45.9000776 L83.5011918,45.9024014 L83.4980137,45.8989158 C83.4992849,45.8936873 83.4992849,45.8925254 83.4967424,45.8977539 C83.4783092,45.8849731 83.4630542,45.8687067 83.4541554,45.8501165 C83.4681392,45.7658796 83.5609407,45.7536798 83.5819164,45.7072043 C83.6206897,45.7164994 83.577467,45.7501941 83.6060702,45.782146 L83.6365803,45.7089471 C83.6613698,45.7838889 83.7681551,45.8077076 83.695058,45.8762589 L83.7732401,45.8576687 C83.832989,45.8872969 83.9035436,45.8849731 83.9308756,45.8425642 C83.9753695,45.8472117 83.9906245,45.7333467 83.982997,45.8007362 C83.9804545,45.8036409 84.0859685,45.7159184 84.0910536,45.7077852 L84.1012236,45.7252135 C84.1730494,45.6955854 84.2277133,45.6299387 84.2874623,45.5788156 C84.3491181,45.5288545 84.4126808,45.4910931 84.5309074,45.4666935 C84.5544256,45.4126657 84.5715875,45.3586379 84.6497696,45.3022863 L84.7228667,45.3255241 C84.7489274,45.2622012 84.8894009,45.1582122 84.8328301,45.1030225 C84.9364373,45.1024416 84.9968219,45.0025192 84.9968219,44.9206061 C84.9987287,44.8375312 84.9777531,44.7498086 85,44.6969427 L84.9033847,44.6888095 C84.9180041,44.6127059 84.8843159,44.559259 84.8423645,44.4878029 L84.7565549,44.4953552 C84.6821866,44.4413274 84.8112188,44.3280433 84.7877006,44.2443874 C84.8213888,44.2472921 84.8150326,44.2705299 84.7978706,44.2879582 C84.9764818,44.1647981 84.6275226,44.0782374 84.7565549,43.9765722 C84.7215954,43.958563 84.7304942,43.9411347 84.7501986,43.9231254 C84.7501986,43.9254492 84.7527411,43.927192 84.7552836,43.9283539 L84.7552836,43.9190588 C84.7686318,43.9080208 84.7838869,43.8946591 84.7965994,43.8842021 C84.7762593,43.8952401 84.7610043,43.906278 84.7540124,43.9149922 C84.7501986,43.8975639 84.7368505,43.8731642 84.712061,43.8505074 L84.8010488,43.8307553 C84.7997775,43.8284315 84.7997775,43.8278506 84.7978706,43.8249459 C84.8283807,43.7970606 84.7521055,43.8098413 84.6847291,43.8295934 C84.6682028,43.8185555 84.6484983,43.8086794 84.6256158,43.8017081 C84.7692674,43.7674324 84.5684093,43.740709 84.7241379,43.7017857 C84.6472271,43.6919097 84.6586684,43.5873398 84.4959479,43.5803685 C84.5169236,43.5786256 84.5270936,43.5716543 84.5290005,43.5844351 C84.5455268,43.5559688 84.5614174,43.5280835 84.5143811,43.5048457 L84.6300652,43.4909031 L84.4622597,43.4211898 C84.5270936,43.3712286 84.56396,43.3416005 84.6612109,43.3840094 C84.5048467,43.2806014 84.5951057,43.2858299 84.4400127,43.2230879 L84.5150167,43.2114691 C84.5035754,43.1824219 84.3904338,43.1591841 84.4457334,43.1272322 C84.5665025,43.0220813 84.3605594,42.8030655 84.4215795,42.6078683 C84.2238996,42.7089525 84.4857778,42.5027174 84.3224217,42.5515167 C84.3669156,42.5253743 84.3853488,42.4940033 84.4387415,42.5044603 C84.3567456,42.4422993 84.4660734,42.3580624 84.3071667,42.351672 C84.3516606,42.3249486 84.3866201,42.3423769 84.4114095,42.3243676 C84.3980613,42.3220439 84.3580168,42.3150725 84.3840775,42.2959014 C84.408867,42.2773112 84.4298427,42.2929967 84.456539,42.2976442 C84.413952,42.2197977 84.2594947,42.2662733 84.1145717,42.3115869 C84.1641506,42.2465212 84.1469887,42.2290928 84.0414747,42.2343213 C84.0821548,42.2035313 84.1196568,42.1617033 84.15843,42.2052741 C84.153345,42.1744841 84.1495312,42.0106579 84.0351184,42.050743 C84.0599078,42.03041 84.0268552,42.0083341 84.0103289,42.0060104 C83.9893532,41.9421065 83.9969808,41.9322305 83.9582075,41.8764599 L83.9474019,41.9002786 C83.8005721,41.9275829 83.8940092,41.8607744 83.855236,41.8183655 L83.870491,41.8142989 C83.9162562,41.6644153 83.8018433,41.7840898 83.8615922,41.6313015 L83.7808676,41.6696438 C83.594629,41.730062 83.8418878,41.5307982 83.7420944,41.4941987 L83.705228,41.5360267 C83.6270459,41.5255697 83.9054505,41.3425724 83.9111711,41.2990016 C83.9238837,41.284478 83.9423169,41.3007444 83.9594788,41.3065539 C84.0230415,41.1729367 83.8437947,41.3379248 83.7859526,41.2798304 C83.8393453,41.2438119 83.9448594,41.2368406 83.9334181,41.1862985 C83.9709201,41.1444705 83.6778961,41.1293659 83.7624345,41.0218913 C83.7236612,41.0538432 83.6842523,41.0852142 83.6346734,41.0672049 C83.5959002,41.0259579 83.7452725,40.8679412 83.5806452,40.8818838 C83.5901796,40.8708459 83.6009852,40.8638746 83.6117909,40.859227 C83.557127,40.8371511 83.4929287,40.7633713 83.4045765,40.7720854 C83.6778961,40.6227828 83.1554108,40.5989641 83.4217384,40.4932323 L83.354362,40.3851768 L83.3823296,40.3776245 C83.3664389,40.2980352 83.2901637,40.2980352 83.2132528,40.2980352 C83.2240585,40.2742165 83.2545686,40.2765402 83.269188,40.2718927 C83.2730017,40.144666 83.2571111,40.1394375 83.0810424,40.102838 L83.1636739,40.0592672 C83.1020181,40.0552006 83.2285079,39.8524512 83.0778643,39.7885473 C83.0880343,39.7856426 83.1058319,39.780995 83.1217225,39.7844807 C82.9653583,39.7072152 83.2323216,39.4115147 82.8954394,39.491104 L82.7816622,39.4440476 C82.8032735,39.5544269 82.6373749,39.4829708 82.6036866,39.5445509 C82.5668203,39.5114371 82.6526299,39.4057053 82.6907675,39.4475332 L82.6786906,39.4614759 C82.8522167,39.4150004 82.6799619,39.3144971 82.7937391,39.27325 C82.6958525,39.0797957 82.6996663,38.8538085 82.6265692,38.6661636 L82.5070713,38.7352959 L82.48546,38.6684874 C82.5083426,38.6400211 82.5763547,38.6086502 82.5916097,38.6562876 C82.6539012,38.6051645 82.4956301,38.6016788 82.4676625,38.6109739 C82.4797394,38.5017565 82.6335611,38.5906409 82.6240267,38.5621746 L82.597966,38.527899 L82.5865247,38.5418416 C82.5210551,38.5313846 82.4638487,38.5488129 82.4447799,38.4912995 C82.4562212,38.4465668 82.5172414,38.444824 82.5166058,38.4285575 C82.5255045,38.4256528 82.528047,38.4192624 82.5108851,38.4064817 L82.4860957,38.3216639 L82.3977435,38.3907962 C82.332274,38.3727869 82.3704116,38.3117878 82.2706181,38.3919581 C82.4263467,38.2722836 82.2070555,38.0637247 82.2490068,38.0102779 C82.1517559,37.9852973 82.1326871,37.9353361 82.1161608,37.8696895 C82.1009058,37.8923463 81.9883998,37.9411456 81.9807723,37.8830512 C82.2280311,37.8214711 82.0462419,37.7488531 82.2019704,37.6483498 C82.102177,37.7244535 82.1148896,37.5054376 81.9756873,37.6193026 C81.9769585,37.5681796 82.0640394,37.5873507 82.1085333,37.5350657 C81.974416,37.4578002 82.0735738,37.2823551 81.9992055,37.1603569 C81.9667885,37.1673282 81.9261084,37.2045086 81.868902,37.189985 L82.0042905,37.0732153 C81.979501,37.0523013 81.8116955,37.1028434 81.9064039,37.0232541 C81.8816145,37.0383587 81.8441125,37.0598536 81.8282218,37.0447491 C81.8924201,36.7473058 81.5250278,36.5387469 81.761481,36.216323 C81.7049102,36.2633794 81.6941046,36.2413036 81.686477,36.2145802 C81.6737645,36.2349132 81.6044812,36.2296847 81.5612585,36.2418845 L81.6616876,36.1100102 C81.5339266,36.1100102 81.6292706,35.9944024 81.5078659,36.0002118 L81.5364691,36.0321638 C81.3858255,36.0048594 81.2383601,36.1460288 81.0572064,36.1692665 C81.2275544,36.1971518 80.8531702,36.3633018 81.100429,36.4150058 C81.0680121,36.4434721 81.0394089,36.4091964 81,36.4289485 C81.0813602,36.4370817 81.1029716,36.4620623 81.085174,36.5207376 L81.0648339,36.5189948 C81.1252185,36.6601642 81.0680121,36.7397535 81.0654696,36.9181033 L81.1500079,36.8832466 C81.1481011,36.921008 81.122676,36.9361125 81.1067853,36.9581884 C81.2498014,36.9639978 81.085174,36.8571042 81.2409026,36.8565232 C81.0743683,36.9506361 81.3178134,37.0987768 81.1290323,37.1859184 C81.1455586,37.2387843 81.2237407,37.1417667 81.2396313,37.1952135 L81.1913237,37.2248417 L81.265692,37.2178704 C81.265692,37.2562127 81.2046719,37.2928121 81.1595423,37.3073357 C81.1614492,37.2980406 81.1385667,37.2870027 81.1315748,37.2794504 C81.0832671,37.3433542 81.1970443,37.4008677 81.1824249,37.4223626 L81.1970443,37.3613635 C81.2955665,37.4920759 81.2949309,37.6861112 81.4557445,37.7883573 L81.4913396,37.7651195 C81.6063881,37.8441279 81.4805339,37.8627181 81.558716,37.9655452 L81.5472747,37.9643833 C81.5968536,37.9742594 81.6279994,37.9980781 81.6368981,38.0306109 C81.5784205,38.0178302 81.5682504,38.1148478 81.5002384,38.0950957 C81.6267281,38.1793326 81.586048,38.1293714 81.7646591,38.1520282 L81.7061815,38.1915324 C81.7767361,38.195599 81.8078818,38.1868849 81.8491975,38.236846 C81.7735579,38.2107036 81.7633879,38.3077212 81.6674082,38.2821597 C81.5720642,38.4512144 81.8860639,38.4064817 81.6979183,38.5354512 C81.9038614,38.5244133 81.756396,38.3971866 81.8078818,38.413453 C81.8580963,38.3675584 81.9636104,38.4099673 81.9610679,38.4529572 C81.9718735,38.4924614 81.7532179,38.6010979 81.7996186,38.693468 C81.7958049,38.6847538 81.7818211,38.6882395 81.7786429,38.6789444 C81.7481328,38.7312293 81.8720801,38.7254199 81.8155093,38.7957141 C81.9362784,38.7800286 81.8339425,38.8543894 81.9769585,38.8096568 L81.9064039,38.7352959 C81.9655172,38.7713145 82.149849,38.7567909 82.1053552,38.8660083 C82.0742094,38.8700749 82.0265374,38.8596179 81.9985698,38.8514847 C81.9674241,38.889827 82.0462419,38.8863414 82.0144605,38.9264265 C81.8714445,38.9711592 81.9375497,38.8328945 81.8072461,38.8195328 C81.7595741,38.8665893 81.9534403,38.8811129 81.7894486,38.910741 C81.9992055,38.8782082 81.8066105,39.0129871 81.9820435,39.0222823 L81.8962339,39.0495866 C81.9133958,39.0542342 81.9623391,39.0606246 81.9680597,39.0797957 L81.8453838,39.086767 C81.9610679,39.1036144 81.8078818,39.2174794 81.8809789,39.2476885 C81.8320356,39.1454424 81.9706023,39.1866894 82.0131893,39.1198808 C82.1816304,39.2052796 81.8269506,39.2749929 81.9324646,39.4028005 C81.911489,39.3882769 81.9496266,39.3115923 82.001748,39.3266969 C81.996663,39.3603916 81.9814079,39.40861 81.9445416,39.4417238 C82.0055617,39.5294463 82.0239949,39.3940864 82.0939139,39.4150004 C82.006833,39.4858755 82.1568409,39.4452094 82.2076911,39.4742566 L82.1237883,39.5073704 C82.1187033,39.6351781 82.3132051,39.4672853 82.2909582,39.5892835 L82.1555697,39.5939311 L82.2089623,39.6322734 L82.107262,39.6589968 C82.2038773,39.6863012 82.1930717,39.7101199 82.1905292,39.7751856 C82.2451931,39.7391671 82.3481646,39.7223197 82.3729541,39.7682143 C82.3367233,39.8204992 82.2833307,39.781576 82.3271889,39.843737 C82.26744,39.8489655 82.1930717,39.8582606 82.25727,39.7995853 C82.2286668,39.8065566 82.1968854,39.8048137 82.1682822,39.812366 C82.1269665,39.8698795 82.1968854,39.9047361 82.2076911,39.9285548 C82.2070555,39.9180978 82.2064198,39.9053171 82.2153186,39.8948601 L82.3793103,39.9459831 C82.3545209,39.9732875 82.3233752,39.9715447 82.2922295,39.9698018 C82.3106626,39.9854873 82.3557922,39.9837445 82.3767678,40.009887 C82.304942,40.0290581 82.2343874,40.0586863 82.1829016,40.03022 L82.3023995,40.0929619 C82.2750675,40.1115522 82.2426506,40.1731322 82.2115048,40.1708084 C82.1956142,40.237617 82.4040998,40.2445883 82.3831241,40.3328918 C82.3977435,40.3317299 82.4142698,40.3334727 82.4307961,40.3445107 C82.4447799,40.4142239 82.3882091,40.5036893 82.5172414,40.5420316 L82.4155411,40.6332398 C82.4708406,40.6814582 82.5420308,40.5141463 82.6348324,40.5943166 C82.7079294,40.6477634 82.5433021,40.6617061 82.5210551,40.6994674 C82.5992372,40.7099244 82.753059,40.7203814 82.6837756,40.8232085 C82.6513587,40.8115896 82.6608931,40.7877709 82.6424599,40.7715045"/>
        <path fill="#0A0A0A" d="M83.4655,42.52 C83.4865,42.503 83.5105,42.492 83.5345,42.48 C83.5085,42.48 83.4825,42.49 83.4655,42.52"/>
        <polygon fill="#0A0A0A" points="82.513 40.502 82.513 40.496 82.487 40.504"/>
        <path fill="#0A0A0A" d="M84.4605 45.5148251C84.4835 45.4988251 84.5115 45.4918251 84.5395 45.4858251 84.5045 45.4828251 84.4745 45.4898251 84.4605 45.5148251M83.458 46.543L83.544 46.49C83.501 46.504 83.48 46.476 83.456 46.457 83.462 46.49 83.485 46.535 83.458 46.543M83.5047005 45.4565C83.4927005 45.4745 83.4807005 45.4585 83.4697005 45.4765L83.4737005 45.5435C83.5227005 45.5395 83.5557005 45.4855 83.5047005 45.4565"/>
        <path fill="#0A0A0A" d="M83.5615,46.5094917 C83.5415,46.3884917 83.4955,46.4334917 83.4385,46.4594917 L83.4505,46.4584917 C83.4485,46.6294917 83.5065,46.5694917 83.5615,46.5094917"/>
        <path fill="#0A0A0A" d="M83.5275,46.4800053 C83.5095,46.4870053 83.4925,46.4920053 83.4725,46.4870053 C83.4725,46.5550053 83.4975,46.5 83.5275,46.4800053"/>
        <path fill="#0A0A0A" d="M83.4762301,46.4375398 C83.4392301,46.4125398 83.4922301,46.5925398 83.4642301,46.5465398 C83.4672301,46.7095398 83.6192301,46.3145398 83.4762301,46.4375398"/>
        <polygon fill="#0A0A0A" points="83.472 45.426 83.51 45.574 83.528 45.45"/>
        <path fill="#0A0A0A" d="M83.5537948,45.4978293 L83.4577948,45.4728293 C83.4637948,45.4968293 83.4557948,45.5138293 83.4447948,45.5268293 C83.4987948,45.5218293 83.5657948,45.5418293 83.5537948,45.4978293"/>
        <path fill="#0A0A0A" d="M83.534,45.4815 C83.505,45.4835 83.477,45.4915 83.466,45.5185 C83.481,45.5135 83.513,45.5035 83.534,45.4815"/>
        <polygon fill="#0A0A0A" points="83.454 45.487 83.483 45.513 83.546 45.513"/>
        <path fill="#0A0A0A" d="M84.4778632 45.5674112L84.5438632 45.4784112C84.5268632 45.4304112 84.4858632 45.4174112 84.4658632 45.4524112 84.4638632 45.4954112 84.4388632 45.5314112 84.4778632 45.5674112M83.461 45.4925C83.496 45.5135 83.51 45.5455 83.539 45.5875L83.477 45.4125 83.461 45.4925z"/>
        <path fill="#0A0A0A" d="M84.527,45.5686351 C84.51,45.5186351 84.54,45.3916351 84.473,45.4436351 C84.493,45.4906351 84.448,45.5646351 84.527,45.5686351"/>
        <polygon fill="#0A0A0A" points="84.347 45.487 84.347 45.509 84.653 45.513"/>
        <path fill="#0A0A0A" d="M84.3835531,44.4496839 C84.3245531,44.5766839 84.5745531,44.4566839 84.4965531,44.5736839 C84.5715531,44.5926839 84.5595531,44.4776839 84.6255531,44.4996839 C84.5415531,44.4366839 84.5795531,44.3946839 84.3835531,44.4496839"/>
        <path fill="#0A0A0A" d="M84.4745,44.485 C84.4885,44.495 84.5035,44.505 84.5255,44.515 C84.5035,44.497 84.4885,44.489 84.4745,44.485"/>
        <polygon fill="#0A0A0A" points="82.497 36.538 82.547 36.462 82.453 36.521"/>
        <path fill="#0A0A0A" d="M82.4055 36.5295L82.5945 36.4855 82.4135 36.4705C82.4255 36.4845 82.4465 36.5115 82.4055 36.5295M83.4591642 42.5475L83.5041642 42.5345C83.5471642 42.5035 83.5431642 42.4865 83.5371642 42.4525L83.4591642 42.5475z"/>
        <polygon fill="#0A0A0A" points="83.424 41.532 83.427 41.55 83.576 41.45"/>
        <path fill="#0A0A0A" d="M82.4541401 41.4729586C82.4601401 41.5059586 82.5131401 41.5279586 82.5201401 41.5619586 82.4601401 41.5059586 82.6511401 41.3759586 82.4541401 41.4729586M77.1329958 46L84 49.4866817C84 49.4866817 81.7577931 52.6863037 79.0040284 51.865264 76.2564406 51.043008 77.1329958 46 77.1329958 46"/>
      </g>
    </g>
    <rect width="1799" height="50" x="39" y="2520" fill="#D8D8D8" opacity="0" transform="translate(-42 969)"/>
  </g>
</svg>
