<svg height="76" viewBox="0 0 76 76" width="76" xmlns="http://www.w3.org/2000/svg"><g fill="#0049f8" transform="translate(1)"><path d="m72.494 31.735-23.803-23.833-10.022 10.035-17.915-17.937-1.754 1.756 19.669 19.693 10.022-10.034 22.05 22.076h-4.511v2.509h8.77v-8.78h-2.506zm-61.494-26.735c-6.111 0-11 4.982-11 11.21 0 2.865 1.1 5.606 3.056 7.723-1.956.872-3.056 2.118-3.056 3.488v43.597c0 3.238 5.5 4.982 11 4.982s11-1.744 11-4.982v-43.598c0-1.37-1.1-2.616-3.056-3.488 4.156-4.484 4.034-11.584-.367-15.819-2.077-1.992-4.766-3.113-7.577-3.113zm0 2.491c4.767 0 8.556 3.861 8.556 8.72 0 4.857-3.79 8.719-8.556 8.719-4.767 0-8.556-3.862-8.556-8.72s3.79-8.719 8.556-8.719zm0 66.018c-5.5 0-8.556-1.745-8.556-2.491v-2.99c2.689 1.245 5.623 1.868 8.556 1.744 2.933.124 5.866-.499 8.556-1.744v2.99c0 .746-3.056 2.49-8.556 2.49zm0-6.228c-5.5 0-8.556-1.745-8.556-2.492v-2.989c2.689 1.246 5.623 1.869 8.556 1.745 2.933.124 5.866-.499 8.556-1.744v2.99c0 .746-3.056 2.49-8.556 2.49zm0-6.228c-5.5 0-8.556-1.745-8.556-2.492v-2.99c2.689 1.246 5.623 1.869 8.556 1.745 2.933.124 5.866-.499 8.556-1.745v2.99c0 .747-3.056 2.492-8.556 2.492zm0-6.228c-5.5 0-8.556-1.745-8.556-2.492v-2.99c2.689 1.247 5.623 1.869 8.556 1.745 2.933.124 5.866-.499 8.556-1.745v2.99c0 .747-3.056 2.492-8.556 2.492zm0-6.229c-5.5 0-8.556-1.744-8.556-2.49v-2.99c2.689 1.244 5.623 1.867 8.556 1.744 2.933.124 5.866-.5 8.556-1.745v2.99c0 .747-3.056 2.491-8.556 2.491zm0-6.228c-5.5 0-8.556-1.744-8.556-2.49v-2.99c2.689 1.245 5.623 1.868 8.556 1.744 2.933.124 5.866-.5 8.556-1.745v2.99c0 .747-3.056 2.491-8.556 2.491zm0-6.228c-5.5 0-8.556-1.744-8.556-2.49v-2.99c2.689 1.245 5.623 1.868 8.556 1.744 2.933.124 5.866-.5 8.556-1.745v2.99c0 .747-3.056 2.491-8.556 2.491zm8.556-8.719c0 .747-3.056 2.491-8.556 2.491s-8.556-1.744-8.556-2.49c0-.25.734-1.122 2.689-1.745 3.545 2.242 8.067 2.242 11.611 0 2.078.623 2.812 1.495 2.812 1.744zm17.444 7.579c-5.5 0-11 1.74-11 4.97v31.06c0 3.23 5.5 4.97 11 4.97s11-1.74 11-4.97v-31.06c0-3.23-5.5-4.97-11-4.97zm0 38.515c-5.5 0-8.556-1.74-8.556-2.485v-2.982c2.689 1.242 5.623 1.864 8.556 1.74 2.933.124 5.866-.498 8.556-1.74v2.982c0 .745-3.056 2.485-8.556 2.485zm0-6.212c-5.5 0-8.556-1.74-8.556-2.485v-2.982c2.689 1.242 5.623 1.864 8.556 1.74 2.933.124 5.866-.498 8.556-1.74v2.982c0 .745-3.056 2.485-8.556 2.485zm0-6.212c-5.5 0-8.556-1.74-8.556-2.485v-2.982c2.689 1.242 5.623 1.863 8.556 1.74 2.933.123 5.866-.498 8.556-1.74v2.982c0 .745-3.056 2.485-8.556 2.485zm0-6.212c-5.5 0-8.556-1.74-8.556-2.485v-2.982c2.689 1.242 5.623 1.863 8.556 1.74 2.933.123 5.866-.498 8.556-1.74v2.982c0 .745-3.056 2.485-8.556 2.485zm0-6.212c-5.5 0-8.556-1.74-8.556-2.485v-2.982c2.689 1.242 5.623 1.863 8.556 1.74 2.933.123 5.866-.498 8.556-1.74v2.982c0 .745-3.056 2.485-8.556 2.485zm0-6.212c-5.5 0-8.556-1.74-8.556-2.485 0-.746 3.056-2.485 8.556-2.485s8.556 1.74 8.556 2.485-3.056 2.485-8.556 2.485zm27-1.455c-5.5 0-11 1.75-11 5v25c0 3.25 5.5 5 11 5s11-1.75 11-5v-25c0-3.25-5.5-5-11-5zm0 32.5c-5.5 0-8.556-1.75-8.556-2.5v-3c2.689 1.25 5.623 1.875 8.556 1.75 2.933.125 5.866-.5 8.556-1.75v3c0 .75-3.056 2.5-8.556 2.5zm0-6.25c-5.5 0-8.556-1.75-8.556-2.5v-3c2.689 1.25 5.623 1.875 8.556 1.75 2.933.125 5.866-.5 8.556-1.75v3c0 .75-3.056 2.5-8.556 2.5zm0-6.25c-5.5 0-8.556-1.75-8.556-2.5v-3c2.689 1.25 5.623 1.875 8.556 1.75 2.933.125 5.866-.5 8.556-1.75v3c0 .75-3.056 2.5-8.556 2.5zm0-6.25c-5.5 0-8.556-1.75-8.556-2.5v-3c2.689 1.25 5.623 1.875 8.556 1.75 2.933.125 5.866-.5 8.556-1.75v3c0 .75-3.056 2.5-8.556 2.5zm0-6.25c-5.5 0-8.556-1.75-8.556-2.5s3.056-2.5 8.556-2.5 8.556 1.75 8.556 2.5-3.056 2.5-8.556 2.5z"/><path d="m63 32.29-14.625-14.29-10 9.771-6.625-6.473-1.75 1.71 8.375 8.183 10-9.771 12.875 12.58z"/></g></svg>