<svg xmlns="http://www.w3.org/2000/svg" xmlns:xlink="http://www.w3.org/1999/xlink" width="564" height="517" viewBox="0 0 564 517">
  <defs>
    <polygon id="service5-a" points="0 0 550 0 550 504 0 504"/>
    <polygon id="service5-c" points=".798 .109 9.37 .109 9.37 17.825 .798 17.825"/>
  </defs>
  <g fill="none" fill-rule="evenodd" transform="translate(-12 -17)">
    <g transform="rotate(-5 560.345 23.51)">
      <mask id="service5-b" fill="#fff">
        <use xlink:href="#service5-a"/>
      </mask>
      <path fill="#F8F8F8" d="M124.947406,341.966722 C161.409822,374.192188 129.428948,463.16771 241.078793,497.883962 C352.729677,532.601253 508.777137,412.360018 537.900924,317.675836 C567.024711,222.990616 540.467002,162.370387 491.332173,139.038215 C442.197345,115.705005 366.611857,132.463285 342.827049,68.1390753 C319.041203,3.8138266 234.346087,-24.6401427 157.006229,25.8590571 C88.013139,70.9071935 139.536322,113.468698 52.7719222,147.232468 C-8.89916774,171.231481 -18.1813226,249.811759 33.7440764,293.148129 C76.620128,328.93008 93.9497271,314.569104 124.947406,341.966722" mask="url(#service5-b)" transform="matrix(-1 0 0 1 550 0)"/>
    </g>
    <g transform="translate(39 77)">
      <polygon fill="#F79A98" points="447 242.428 453 228 459 231.202 450.292 244"/>
      <path fill="#FFF" d="M480.117625,267.349684 C480.117625,267.349684 479.5308,267.340863 478.583597,266.128828 C477.637276,264.916792 476.524422,260.862561 476.524422,260.862561 L471.583108,220.684559 L464.46631,222.944555 C462.366604,225.596213 466.621527,242.442975 467.597807,245.627435 C468.767933,249.447022 473.137401,262.150458 473.137401,262.150458 C473.137401,262.150458 473.795597,264.044374 473.681933,265.547509 L473.69515,267.195313 L477.313024,270.250101 L479.681471,270.056916 L480.795206,268.312079 L480.117625,267.349684 Z"/>
      <path stroke="#171717" d="M480.117625,267.349684 C480.117625,267.349684 479.5308,267.340863 478.583597,266.128828 C477.637276,264.916792 476.524422,260.862561 476.524422,260.862561 L471.583108,220.684559 L464.46631,222.944555 C462.366604,225.596213 466.621527,242.442975 467.597807,245.627435 C468.767933,249.447022 473.137401,262.150458 473.137401,262.150458 C473.137401,262.150458 473.795597,264.044374 473.681933,265.547509 L473.69515,267.195313 L477.313024,270.250101 L479.681471,270.056916 L480.795206,268.312079 L480.117625,267.349684 Z"/>
      <path fill="#0A0A0A" d="M473.682197,265.547598 C473.682197,265.547598 472.318225,267.460038 473.824057,268.784985 C475.32989,270.110814 476.51147,269.36101 477.313288,270.250189 C478.115106,271.139368 481.046589,272.421973 482.329498,271.317556 C483.613288,270.214022 481.510938,268.191317 480.11789,267.349772 C480.11789,267.349772 480.533778,268.804391 478.58298,269.225163 C476.633945,269.645936 475.202127,267.636462 475.202127,267.636462 C475.202127,267.636462 473.770309,266.386495 473.682197,265.547598"/>
      <path fill="#FFF" d="M446.771945,242.404779 C446.771945,242.404779 445.84589,244.183137 444.675764,245.131418 L443.486253,246.271119 L443.747064,251.001938 L445.970127,253.946461 L448.002869,253.560092 L448.238127,252.40804 C448.238127,252.40804 447.382561,250.621744 447.614295,249.100966 C447.846029,247.579306 450.031204,243.988188 450.031204,243.988188 L446.771945,242.404779 Z"/>
      <path stroke="#171717" d="M446.771945,242.404779 C446.771945,242.404779 445.84589,244.183137 444.675764,245.131418 L443.486253,246.271119 L443.747064,251.001938 L445.970127,253.946461 L448.002869,253.560092 L448.238127,252.40804 C448.238127,252.40804 447.382561,250.621744 447.614295,249.100966 C447.846029,247.579306 450.031204,243.988188 450.031204,243.988188 L446.771945,242.404779 Z"/>
      <path fill="#0A0A0A" d="M444.675852 245.131241C444.675852 245.131241 442.350579 245.448805 442.419306 247.45475 442.488915 249.460695 443.844076 249.808251 443.747152 251.001762 443.65111 252.196155 445.739362 256.571479 447.422299 256.748785 449.105236 256.926092 448.581852 253.999212 448.238215 252.407864 448.238215 252.407864 447.465474 253.708994 445.822187 252.575467 444.179782 251.442823 444.199166 247.67087 444.199166 247.67087 444.199166 247.67087 444.126034 245.77078 444.675852 245.131241M476.348815 257.8824C473.291333 257.988255 468.920983 256.683597 464.066899 255.624168 464.066899 255.624168 454.698843 213.694272 455.112969 204.193821 455.306815 199.686178 454.769333 195.901876 454.30234 192.399852 454.30234 192.373388 454.293529 192.346925 454.293529 192.320461 453.773669 187.565825 454.875067 181.170441 455.439864 178.356473 455.447794 178.347652 455.447794 178.33883 455.447794 178.330009 455.738564 177.412603 455.747375 176.918614 455.747375 176.918614L470.277025 174.307534 475.211291 173.425412C475.211291 173.425412 478.559543 204.69663 473.132731 214.003015 473.132731 214.003015 475.070312 219.242819 474.68262 224.676689 474.294927 230.101738 481.776508 257.688333 476.348815 257.8824"/>
      <path fill="#0A0A0A" d="M448.564317,231.059546 L443.679394,239.340023 C443.679394,239.340023 448.714108,246.222338 452.035045,246.988902 C455.356863,247.754583 461.049772,235.27697 461.049772,235.27697 L448.564317,231.059546 Z"/>
      <path fill="#171717" d="M452.119808,214.264741 L451.684536,206.410328 C451.681011,206.35299 451.347067,200.734756 447.232242,198.301864 C446.558186,197.904028 445.897347,197.840515 445.21448,198.111326 C442.234536,199.292487 440.140116,206.381218 440.120731,206.45267 L439.759473,206.346815 C439.846703,206.048658 441.927025,199.010208 445.076144,197.762006 C445.862102,197.449735 446.652466,197.522951 447.423445,197.978126 C451.713613,200.514226 452.056368,206.331819 452.059011,206.390039 L452.495165,214.244452 L452.119808,214.264741 Z"/>
      <polygon fill="#FFF" points="434.274 202.866 454.779 215.257 453.202 245.505 431.24 232.992"/>
      <polygon stroke="#171717" points="434.274 202.866 454.779 215.257 453.202 245.505 431.24 232.992"/>
      <polygon fill="#FFF" points="459.027 213.253 457.025 214.255 454.781 215.257 453.203 245.506 460.846 241.496"/>
      <polygon stroke="#171717" points="459.027 213.253 457.025 214.255 454.781 215.257 453.203 245.506 460.846 241.496"/>
      <polygon fill="#FFF" points="459.027 213.253 438.641 201.226 438.641 205.506 454.78 215.257"/>
      <polygon stroke="#171717" points="459.027 213.253 438.641 201.226 438.641 205.506 454.78 215.257"/>
      <polygon fill="#FFF" points="438.641 201.226 434.274 202.866 438.641 205.506"/>
      <polygon stroke="#171717" points="438.641 201.226 434.274 202.866 438.641 205.506"/>
      <path fill="#171717" d="M450.822185,214.598977 L450.386031,206.744564 C450.382506,206.687226 450.048562,201.068992 445.933737,198.636983 C445.259681,198.238263 444.598842,198.174751 443.915975,198.445562 C440.93515,199.627605 438.842492,206.715454 438.822227,206.786906 L438.461849,206.681933 C438.548199,206.382894 440.62852,199.345326 443.777639,198.096242 C444.563597,197.783971 445.353961,197.857187 446.12494,198.313244 C450.415108,200.849344 450.757863,206.666937 450.760506,206.724275 L451.19666,214.578688 L450.822185,214.598977 Z"/>
      <path fill="#FFF" d="M452.30731,171.630912 L446.772122,172.697397 L446.772122,175.800701 L444.105856,194.686929 C443.624765,195.853094 443.626527,197.435621 443.782485,198.359202 C443.908485,199.105477 444.200136,199.810293 444.489143,200.508051 C444.698849,201.016153 444.909436,201.522491 445.120024,202.029711 C445.373786,202.641904 445.709492,203.329959 446.350947,203.493151 C446.742164,203.592831 447.17215,203.470216 447.548387,203.614002 C447.69994,203.67134 447.86559,203.771902 448.010975,203.699568 C448.099087,203.657226 448.147548,203.561075 448.185436,203.471098 C448.288527,203.223222 448.357255,202.962114 448.387213,202.695713 C448.404835,202.54046 448.408359,202.377267 448.339632,202.237892 C448.277073,202.112631 448.16429,202.02089 448.062961,201.922974 C447.595968,201.469564 447.367758,200.822086 447.255856,200.180784 C447.104303,199.317187 447.140429,198.438593 447.205632,197.56 C447.452345,197.671147 447.700821,197.77612 447.848849,197.995768 C448.060317,198.311568 447.970443,198.729694 447.966038,199.109006 C447.960751,199.4892 448.151954,199.958489 448.531716,199.960253 C448.760807,199.960253 448.955534,199.772361 449.034835,199.557124 C449.113255,199.342768 449.100038,199.105477 449.079772,198.87789 C448.984611,197.81758 448.758164,196.773147 448.470038,195.749886 C448.324653,195.235609 448.099968,193.780108 447.662933,193.234075 L452.30731,177.627576 L452.30731,171.630912 Z"/>
      <path stroke="#171717" d="M452.30731,171.630912 L446.772122,172.697397 L446.772122,175.800701 L444.105856,194.686929 C443.624765,195.853094 443.626527,197.435621 443.782485,198.359202 C443.908485,199.105477 444.200136,199.810293 444.489143,200.508051 C444.698849,201.016153 444.909436,201.522491 445.120024,202.029711 C445.373786,202.641904 445.709492,203.329959 446.350947,203.493151 C446.742164,203.592831 447.17215,203.470216 447.548387,203.614002 C447.69994,203.67134 447.86559,203.771902 448.010975,203.699568 C448.099087,203.657226 448.147548,203.561075 448.185436,203.471098 C448.288527,203.223222 448.357255,202.962114 448.387213,202.695713 C448.404835,202.54046 448.408359,202.377267 448.339632,202.237892 C448.277073,202.112631 448.16429,202.02089 448.062961,201.922974 C447.595968,201.469564 447.367758,200.822086 447.255856,200.180784 C447.104303,199.317187 447.140429,198.438593 447.205632,197.56 C447.452345,197.671147 447.700821,197.77612 447.848849,197.995768 C448.060317,198.311568 447.970443,198.729694 447.966038,199.109006 C447.960751,199.4892 448.151954,199.958489 448.531716,199.960253 C448.760807,199.960253 448.955534,199.772361 449.034835,199.557124 C449.113255,199.342768 449.100038,199.105477 449.079772,198.87789 C448.984611,197.81758 448.758164,196.773147 448.470038,195.749886 C448.324653,195.235609 448.099968,193.780108 447.662933,193.234075 L452.30731,177.627576 L452.30731,171.630912 Z"/>
      <path fill="#FFF" d="M495.26538,156.645162 L481.081129,165.781297 L478.372569,156.645162 L472.948401,160.090729 C472.948401,160.090729 476.145101,169.59471 477.029744,172.211965 C477.914387,174.830985 481.317269,172.632737 481.317269,172.632737 L497.218821,159.25095 L495.26538,156.645162 Z"/>
      <path stroke="#171717" d="M495.26538,156.645162 L481.081129,165.781297 L478.372569,156.645162 L472.948401,160.090729 C472.948401,160.090729 476.145101,169.59471 477.029744,172.211965 C477.914387,174.830985 481.317269,172.632737 481.317269,172.632737 L497.218821,159.25095 L495.26538,156.645162 Z"/>
      <path fill="#FFF" d="M470.613789,137.594242 C470.613789,137.594242 473.907411,137.594242 475.457299,141.666116 C477.007187,145.738872 479.525425,156.908299 479.525425,156.908299 C479.525425,156.908299 478.266306,162.612098 473.035103,162.612098 C467.804782,162.612098 470.613789,137.594242 470.613789,137.594242"/>
      <path stroke="#171717" d="M470.613789,137.594242 C470.613789,137.594242 473.907411,137.594242 475.457299,141.666116 C477.007187,145.738872 479.525425,156.908299 479.525425,156.908299 C479.525425,156.908299 478.266306,162.612098 473.035103,162.612098 C467.804782,162.612098 470.613789,137.594242 470.613789,137.594242 Z"/>
      <path fill="#FFF" d="M456.472007,140.915166 L449.062678,147.388175 C449.062678,147.388175 456.182119,172.261364 455.745965,176.916321 C455.745965,176.916321 471.001657,179.970227 475.214287,173.424883 L475.859266,156.131767 C475.913014,154.67803 475.710357,153.225175 475.259224,151.842891 L470.613965,137.593977 L467.087727,138.127661 L456.472007,140.915166 Z"/>
      <path stroke="#171717" d="M456.472007,140.915166 L449.062678,147.388175 C449.062678,147.388175 456.182119,172.261364 455.745965,176.916321 C455.745965,176.916321 471.001657,179.970227 475.214287,173.424883 L475.859266,156.131767 C475.913014,154.67803 475.710357,153.225175 475.259224,151.842891 L470.613965,137.593977 L467.087727,138.127661 L456.472007,140.915166 Z"/>
      <path fill="#FFF" d="M449.062502,147.388087 C449.062502,147.388087 445.285145,148.697156 445.285145,153.497663 L445.285145,172.988144 C445.285145,172.988144 450.659971,177.061783 454.002055,172.988144 C454.002055,172.988144 458.071062,147.823855 449.062502,147.388087"/>
      <path stroke="#171717" d="M449.062502,147.388087 C449.062502,147.388087 445.285145,148.697156 445.285145,153.497663 L445.285145,172.988144 C445.285145,172.988144 450.659971,177.061783 454.002055,172.988144 C454.002055,172.988144 458.071062,147.823855 449.062502,147.388087 Z"/>
      <path fill="#0A0A0A" d="M453.137677,128.980675 C453.137677,128.980675 453.724502,135.7342 461.559411,140.1995 L463.217677,131.692317 L457.38467,128.062386 L453.137677,128.980675 Z"/>
      <path fill="#FFF" d="M459.668618,130.878384 C459.668618,130.878384 460.211387,137.77834 458.341653,139.346753 L456.471919,140.915166 C456.471919,140.915166 458.896758,144.311335 462.28466,146.04735 C463.716478,146.781276 465.461975,146.79539 466.767793,145.854166 C467.697373,145.181989 468.462185,144.050227 468.167891,142.151018 C468.167891,142.151018 467.15108,140.333847 467.223331,139.387331 C467.296464,138.442578 467.659485,134.515372 467.659485,134.515372 L459.668618,130.878384 Z"/>
      <path stroke="#171717" d="M459.668618,130.878384 C459.668618,130.878384 460.211387,137.77834 458.341653,139.346753 L456.471919,140.915166 C456.471919,140.915166 458.896758,144.311335 462.28466,146.04735 C463.716478,146.781276 465.461975,146.79539 466.767793,145.854166 C467.697373,145.181989 468.462185,144.050227 468.167891,142.151018 C468.167891,142.151018 467.15108,140.333847 467.223331,139.387331 C467.296464,138.442578 467.659485,134.515372 467.659485,134.515372 L459.668618,130.878384 Z"/>
      <path fill="#FFF" d="M457.670681,130.829338 C457.670681,130.829338 462.093898,138.997786 467.429954,136.860405 C467.429954,136.860405 471.776513,134.03585 471.165898,125.333719 C471.165898,125.333719 471.700737,118.081795 463.236709,118.234403 C454.773562,118.38701 457.670681,130.829338 457.670681,130.829338"/>
      <path stroke="#171717" d="M457.670681,130.829338 C457.670681,130.829338 462.093898,138.997786 467.429954,136.860405 C467.429954,136.860405 471.776513,134.03585 471.165898,125.333719 C471.165898,125.333719 471.700737,118.081795 463.236709,118.234403 C454.773562,118.38701 457.670681,130.829338 457.670681,130.829338 Z"/>
      <path fill="#0A0A0A" d="M469.161352,122.331153 C469.876821,123.844874 470.016919,125.624995 470.979101,126.995813 C471.16766,127.143127 471.463716,127.047858 471.60822,126.85732 C471.752723,126.665899 471.783562,126.413612 471.795898,126.173675 C471.896345,124.370618 471.341241,122.584322 470.554401,120.958571 C470.23808,120.304037 469.87594,119.659206 469.356961,119.150221 C468.747227,118.553025 467.956863,118.178123 467.158569,117.87732 C464.887926,117.022544 462.42608,116.681162 460.010052,116.884933 C459.737786,116.907868 459.452303,116.942271 459.225856,117.09576 C458.999408,117.250131 458.856667,117.562402 458.979143,117.807632 C459.106024,118.061683 459.432919,118.125196 459.714877,118.15607 C460.838303,118.276921 461.967017,118.341316 463.09573,118.346608 C463.96187,118.351019 464.596276,118.319263 465.37166,118.709161 C466.971772,119.514538 468.381562,120.684231 469.161352,122.331153"/>
      <path fill="#0A0A0A" d="M460.8828,129.793815 C459.782283,130.750917 458.483513,131.603929 457.027905,131.686848 C456.007569,131.745068 454.970492,131.400159 454.186297,130.74386 C453.877024,130.483634 453.602996,130.174892 453.416199,129.814104 C453.152744,129.304237 453.073443,128.718508 453.043485,128.145129 C452.862856,124.774542 454.221541,121.449825 456.277192,118.773467 C456.956534,117.889581 457.845583,116.997756 458.959317,116.975703 C459.393709,116.966882 459.815765,117.094789 460.233415,117.212994 C461.644968,117.615241 463.081192,117.933687 464.531513,118.164803 C465.627625,118.340345 466.755457,118.24243 466.715807,119.62295 C466.646199,122.019675 465.103359,124.724261 463.752604,126.623469 C462.924352,127.788752 461.96129,128.857002 460.8828,129.793815"/>
      <g transform="translate(494.308 143.786)">
        <mask id="service5-d" fill="#fff">
          <use xlink:href="#service5-c"/>
        </mask>
        <polygon fill="#0A0A0A" points=".798 11.529 8.207 .109 9.37 6.482 1.589 17.825" mask="url(#service5-d)"/>
      </g>
      <path fill="#FFF" d="M501.716228,155.568356 C501.855445,155.032026 501.887165,154.383666 501.483613,154.005236 C501.162885,153.70355 500.650074,153.682379 500.244759,153.854393 C499.839445,154.026407 499.524004,154.357202 499.251738,154.703876 C498.820871,155.252556 496.30792,159.515851 498.07985,159.544079 C498.831445,159.555546 499.880857,158.533167 500.348731,158.028593 C500.99371,157.334363 501.477445,156.487527 501.716228,155.568356"/>
      <path stroke="#171717" d="M501.716228,155.568356 C501.855445,155.032026 501.887165,154.383666 501.483613,154.005236 C501.162885,153.70355 500.650074,153.682379 500.244759,153.854393 C499.839445,154.026407 499.524004,154.357202 499.251738,154.703876 C498.820871,155.252556 496.30792,159.515851 498.07985,159.544079 C498.831445,159.555546 499.880857,158.533167 500.348731,158.028593 C500.99371,157.334363 501.477445,156.487527 501.716228,155.568356 Z"/>
      <path fill="#0A0A0A" d="M453.296895,121.54033 C452.046587,124.050849 451.739077,126.908042 451.382224,129.690254 C451.025371,132.473348 450.566308,135.336716 449.073692,137.709623 C447.497371,140.213967 444.932434,141.912934 442.996615,144.149994 C440.681916,146.823706 439.300322,150.293973 439.145245,153.829517 C439.061538,155.741075 439.347021,157.724085 440.347972,159.354246 C441.514573,161.256101 443.522643,162.481368 445.568601,163.370547 C446.706126,163.863653 447.967007,164.282661 449.167091,163.971272 C450.074643,163.734863 450.831524,163.106792 451.714406,162.792757 C454.526056,161.793313 457.695441,164.167985 460.524713,163.220586 C462.103678,162.691313 463.250014,161.072619 463.226224,159.406291 C463.190979,157.06955 461.210224,155.313246 459.901762,153.379635 C458.791552,151.738888 458.108685,149.766464 458.221469,147.788747 C458.353636,145.476706 459.533455,143.355203 459.963441,141.079328 C460.463916,138.429435 459.838322,135.497262 457.973874,133.550419 C457.499832,133.055549 456.951776,132.624191 456.549105,132.069336 C455.792224,131.021376 455.641552,129.656733 455.651245,128.362661 C455.664462,126.578128 455.933203,124.788303 456.455706,123.080515 C456.851329,121.787325 458.158909,120.543533 458.185343,119.223879 C458.264643,115.232277 453.879315,120.371519 453.296895,121.54033"/>
      <path fill="#FFF" d="M97.2629245,139.588543 C116.767372,150.862059 132.565834,178.271348 132.503274,200.695767 L132.425736,228.047717 C132.377274,245.122949 144.416001,265.99748 159.269022,274.582289 L277.694043,343.034059 L277.666729,352.737399 L159.241708,284.286511 C139.747834,273.019169 123.937917,245.604588 124.001358,223.179287 L124.078897,195.827336 C124.127358,178.752105 112.088631,157.876692 97.2356098,149.291883 L0.851777622,93.5814798 L0.879092308,83.8781399 L97.2629245,139.588543 Z"/>
      <path stroke="#171717" d="M97.2629245,139.588543 C116.767372,150.862059 132.565834,178.271348 132.503274,200.695767 L132.425736,228.047717 C132.377274,245.122949 144.416001,265.99748 159.269022,274.582289 L277.694043,343.034059 L277.666729,352.737399 L159.241708,284.286511 C139.747834,273.019169 123.937917,245.604588 124.001358,223.179287 L124.078897,195.827336 C124.127358,178.752105 112.088631,157.876692 97.2356098,149.291883 L0.851777622,93.5814798 L0.879092308,83.8781399 L97.2629245,139.588543 Z"/>
      <path fill="#121212" d="M302.887171,191.026388 C288.03415,182.440697 275.995422,161.566166 276.043884,144.490935 L276.121422,117.138984 C276.184863,94.7136831 260.386401,67.3052764 240.881954,56.0317597 L144.497241,0.321356974 L0.879268531,83.8776988 L97.2631007,139.588102 C116.767548,150.8625 132.56601,178.270907 132.50345,200.696208 L132.425912,228.048159 C132.37745,245.122508 144.415297,265.997039 159.269199,274.58273 L277.69422,343.033618 L421.313073,259.477276 L302.887171,191.026388 Z"/>
      <path stroke="#121212" d="M302.887171,191.026388 C288.03415,182.440697 275.995422,161.566166 276.043884,144.490935 L276.121422,117.138984 C276.184863,94.7136831 260.386401,67.3052764 240.881954,56.0317597 L144.497241,0.321356974 L0.879268531,83.8776988 L97.2631007,139.588102 C116.767548,150.8625 132.56601,178.270907 132.50345,200.696208 L132.425912,228.048159 C132.37745,245.122508 144.415297,265.997039 159.269199,274.58273 L277.69422,343.033618 L421.313073,259.477276 L302.887171,191.026388 Z"/>
      <polygon fill="#FFF" points="277.694 343.034 421.312 259.477 421.285 269.18 277.667 352.737"/>
      <polygon stroke="#171717" points="277.694 343.034 421.312 259.477 421.285 269.18 277.667 352.737"/>
      <path fill="#FFF" d="M125.386477 55.0133501C126.930197 55.9060574 126.928435 57.344798 125.40498 58.2313305L76.1786308 86.8711792C74.6551762 87.7577116 72.1730643 87.7630043 70.6293441 86.8711792 69.0961972 85.9837646 69.087386 84.5406134 70.6117217 83.6531988L119.838071 55.0133501C121.362407 54.1268177 123.852449 54.1268177 125.386477 55.0133501M154.471947 54.5093939C156.015667 55.4012191 156.032408 56.8408418 154.499262 57.7317849L90.3432336 95.0587692C88.8188979 95.9453016 86.3288559 95.9453016 84.7851357 95.0525943 83.2511077 94.1660619 83.2431776 92.7220285 84.7675133 91.8346139L148.923541 54.5093939C150.456688 53.6166866 152.937919 53.6228615 154.471947 54.5093939M168.63699 62.696631C170.171018 63.5831635 170.188641 65.0219041 168.655494 65.9137293L104.498585 103.239831C102.97513 104.127246 100.483326 104.127246 98.950179 103.239831 97.4064587 102.348006 97.3985287 100.903973 98.9228643 100.01744L163.078892 62.6913383C164.61292 61.798631 167.09327 61.8039238 168.63699 62.696631M260.185594 226.097611C261.729315 226.990318 261.728434 228.429059 260.204098 229.314709L210.977748 257.954558C209.454294 258.841972 206.972182 258.847265 205.428462 257.954558 203.895315 257.068025 203.886503 255.624874 205.410839 254.73746L254.637189 226.097611C256.161524 225.211078 258.652448 225.211078 260.185594 226.097611M289.271064 225.593655C290.814785 226.48548 290.831526 227.92422 289.298379 228.816046L225.142351 266.142148C223.618015 267.029562 221.127973 267.029562 219.584253 266.136855 218.051106 265.250323 218.042295 263.805407 219.566631 262.918875L283.722659 225.593655C285.255806 224.700947 287.737917 224.70624 289.271064 225.593655M303.436108 233.780892C304.970136 234.667424 304.986877 236.106165 303.454611 236.99799L239.297702 274.324092C237.774248 275.210625 235.282443 275.210625 233.749297 274.324092 232.205576 273.432267 232.197646 271.988234 233.721982 271.101701L297.87801 233.775599C299.412038 232.882892 301.892387 232.888184 303.436108 233.780892M219.778892 121.142317C220.983382 120.446323 222.227522 120.999413 222.565871 122.37817 222.90334 123.75869 222.206375 125.448836 221.002766 126.14483L163.62078 159.311728C162.416291 160.007722 161.167745 159.4414 160.831158 158.062643 160.49369 156.682123 161.193298 155.006091 162.396906 154.310097L219.778892 121.142317zM236.587292 130.779321C237.790901 130.084209 239.035922 130.636418 239.37339 132.016056 239.710859 133.395695 239.014775 135.08584 237.810285 135.781834L169.280383 175.706667C168.076775 176.402661 166.828229 175.836339 166.490761 174.457583 166.153292 173.077062 166.852901 171.401031 168.05739 170.705037L236.587292 130.779321zM227.137557 155.858662C228.341165 155.16355 229.586186 155.715758 229.923655 157.095397 230.261123 158.475035 229.565039 160.165181 228.36055 160.861175L170.978564 194.028955C169.774074 194.724949 168.525529 194.158627 168.188941 192.778988 167.851473 191.398467 168.551081 189.722436 169.75469 189.026442L227.137557 155.858662zM227.137557 173.184946C228.341165 172.488951 229.586186 173.04116 229.923655 174.420798 230.261123 175.801319 229.565039 177.491464 228.36055 178.186576L170.978564 211.354356C169.774074 212.05035 168.525529 211.484028 168.188941 210.10439 167.851473 208.724751 168.551081 207.047838 169.75469 206.352726L227.137557 173.184946zM403.670253 308.366672C408.438869 310.811914 410.084799 315.381305 407.271386 319.368495L323.601218 437.96889C320.018589 443.05344 311.241764 445.367246 304.014827 443.130185L215.823638 415.903495C214.885246 415.613277 214.018225 415.261311 213.228743 414.856417 207.937624 412.142128 206.09961 407.076985 209.223176 402.647851L292.900393 284.050985C296.129694 279.462187 304.048309 277.377733 310.56947 279.392499L401.316785 307.418391C402.167945 307.680382 402.954785 307.99971 403.670253 308.366672"/>
      <path stroke="#171717" d="M403.670253,308.366672 C408.438869,310.811914 410.084799,315.381305 407.271386,319.368495 L323.601218,437.96889 C320.018589,443.05344 311.241764,445.367246 304.014827,443.130185 L215.823638,415.903495 C214.885246,415.613277 214.018225,415.261311 213.228743,414.856417 C207.937624,412.142128 206.09961,407.076985 209.223176,402.647851 L292.900393,284.050985 C296.129694,279.462187 304.048309,277.377733 310.56947,279.392499 L401.316785,307.418391 C402.167945,307.680382 402.954785,307.99971 403.670253,308.366672 Z"/>
      <path fill="#FFF" d="M408.636856,314.930011 C408.725849,316.400508 408.291457,317.923051 407.271122,319.367966 L323.600954,437.968361 C320.018324,443.052911 311.241499,445.366717 304.015443,443.130538 L215.822492,415.903848 C214.884982,415.61363 214.017961,415.260782 213.229359,414.855888 C209.852912,413.124283 207.883611,410.437339 207.710031,407.567797 L207.986702,412.142481 C208.160283,415.012023 210.129583,417.70073 213.50515,419.432336 C214.294632,419.836347 215.161653,420.189196 216.099164,420.479414 L304.291234,447.706986 C311.51729,449.942283 320.294115,447.629359 323.877625,442.544809 L407.547793,323.944414 C408.568129,322.497734 409.001639,320.976074 408.912646,319.505577 L408.636856,314.930011 Z"/>
      <path stroke="#171717" d="M408.636856,314.930011 C408.725849,316.400508 408.291457,317.923051 407.271122,319.367966 L323.600954,437.968361 C320.018324,443.052911 311.241499,445.366717 304.015443,443.130538 L215.822492,415.903848 C214.884982,415.61363 214.017961,415.260782 213.229359,414.855888 C209.852912,413.124283 207.883611,410.437339 207.710031,407.567797 L207.986702,412.142481 C208.160283,415.012023 210.129583,417.70073 213.50515,419.432336 C214.294632,419.836347 215.161653,420.189196 216.099164,420.479414 L304.291234,447.706986 C311.51729,449.942283 320.294115,447.629359 323.877625,442.544809 L407.547793,323.944414 C408.568129,322.497734 409.001639,320.976074 408.912646,319.505577 L408.636856,314.930011 Z"/>
      <path fill="#FFF" d="M380.437615,314.619946 C384.064301,316.470637 385.332231,319.979718 383.210497,323.058323 C382.159322,324.58704 380.442902,325.757616 378.433951,326.47037 C377.932594,324.966352 376.704315,323.616706 374.876874,322.686067 C374.347322,322.415256 373.767545,322.179729 373.140189,321.986545 C370.357615,321.125594 367.238455,321.272908 364.613601,322.204429 C364.118413,320.718054 364.335168,319.083482 365.386343,317.555647 C367.823517,314.032452 373.779881,312.404938 378.705336,313.923951 C379.330049,314.117136 379.908944,314.350898 380.437615,314.619946"/>
      <path stroke="#171717" d="M380.437615,314.619946 C384.064301,316.470637 385.332231,319.979718 383.210497,323.058323 C382.159322,324.58704 380.442902,325.757616 378.433951,326.47037 C377.932594,324.966352 376.704315,323.616706 374.876874,322.686067 C374.347322,322.415256 373.767545,322.179729 373.140189,321.986545 C370.357615,321.125594 367.238455,321.272908 364.613601,322.204429 C364.118413,320.718054 364.335168,319.083482 365.386343,317.555647 C367.823517,314.032452 373.779881,312.404938 378.705336,313.923951 C379.330049,314.117136 379.908944,314.350898 380.437615,314.619946 Z"/>
      <path fill="#FFF" d="M374.877315,322.685626 C376.703874,323.617147 377.933035,324.966793 378.43351,326.469929 C378.928699,327.955422 378.712825,329.589994 377.658126,331.120475 C375.228881,334.647198 369.264587,336.270302 364.345301,334.745996 C363.718825,334.552811 363.139049,334.318167 362.609497,334.048237 C358.983692,332.198428 357.714,328.69464 359.833972,325.616035 C360.886909,324.087318 362.605091,322.91586 364.614042,322.203988 C367.238014,321.272467 370.357175,321.125153 373.139748,321.986104 C373.767105,322.180171 374.346881,322.414815 374.877315,322.685626"/>
      <path stroke="#171717" d="M374.877315,322.685626 C376.703874,323.617147 377.933035,324.966793 378.43351,326.469929 C378.928699,327.955422 378.712825,329.589994 377.658126,331.120475 C375.228881,334.647198 369.264587,336.270302 364.345301,334.745996 C363.718825,334.552811 363.139049,334.318167 362.609497,334.048237 C358.983692,332.198428 357.714,328.69464 359.833972,325.616035 C360.886909,324.087318 362.605091,322.91586 364.614042,322.203988 C367.238014,321.272467 370.357175,321.125153 373.139748,321.986104 C373.767105,322.180171 374.346881,322.414815 374.877315,322.685626 Z"/>
      <path fill="#0048FA" d="M298.976324 317.857244C299.54729 318.148345 299.745541 318.701435 299.413359 319.187484L273.010632 357.481274C272.629989 358.038775 271.688954 358.292826 270.910926 358.054653 270.815765 358.024661 270.725891 357.988494 270.644828 357.946152 270.070338 357.653288 269.865038 357.101079 270.204269 356.609738L296.600828 318.319476C296.981471 317.763739 297.922506 317.507924 298.700534 317.746979 298.800101 317.776971 298.891737 317.81402 298.976324 317.857244M315.598808 313.548256C316.169773 313.839356 316.368025 314.392446 316.035843 314.878495L301.556417 335.873877C301.175773 336.429613 300.234738 336.685429 299.457592 336.447256 299.357144 336.416382 299.265508 336.379332 299.181801 336.336108 298.610836 336.045008 298.412585 335.491918 298.744766 335.006751L313.223312 314.010488C313.603955 313.454751 314.54499 313.198936 315.323018 313.437108 315.422585 313.467983 315.514221 313.505032 315.598808 313.548256M312.82813 307.668914C313.399095 307.960014 313.597347 308.513105 313.265165 308.999154L278.64248 359.218348C278.261836 359.775849 277.320801 360.030782 276.542773 359.792609 276.442326 359.761735 276.349808 359.724686 276.265221 359.68058 275.688969 359.386833 275.490717 358.833743 275.822899 358.348576L310.445585 308.128499C310.833277 307.575409 311.774312 307.319594 312.55234 307.558649 312.651906 307.588641 312.743543 307.62569 312.82813 307.668914M298.299978 338.62495C298.874467 338.918696 299.079768 339.470023 298.740537 339.963129L284.267278 360.953217C283.886635 361.509836 282.9456 361.763887 282.167572 361.526596 282.068006 361.496604 281.976369 361.458673 281.892663 361.416331 281.319936 361.124349 281.123446 360.571258 281.455628 360.086091L295.933292 339.089828C296.314817 338.533209 297.254971 338.278276 298.032999 338.517331 298.129922 338.547323 298.218034 338.58349 298.299978 338.62495M312.446077 328.024845C313.017042 328.316827 313.215294 328.869918 312.883112 329.355085L289.900007 362.69135C289.518483 363.247969 288.578329 363.502902 287.800301 363.263847 287.700734 363.233855 287.609098 363.196806 287.52451 363.153582 286.952664 362.862482 286.755294 362.309391 287.087476 361.823342L310.07058 328.487959C310.451224 327.93134 311.398427 327.671114 312.170287 327.91458 312.269853 327.945454 312.36149 327.982503 312.446077 328.024845M322.276103 390.503945C322.852355 390.797691 323.050607 391.350782 322.718425 391.835949L313.088677 405.797291C312.701866 406.360084 311.760831 406.615017 310.983684 406.375962 310.887642 406.34597 310.798649 406.309803 310.717586 406.268344 310.142215 405.974597 309.937796 405.423271 310.276145 404.930165L319.898845 390.965294C320.286537 390.412204 321.226691 390.14845 321.998551 390.391915 322.098999 390.42279 322.191516 390.459839 322.276103 390.503945M308.851024 409.982959C309.42287 410.274941 309.620241 410.828031 309.288059 411.313198L299.660073 425.284243C299.271499 425.837334 298.332227 426.100206 297.553317 425.853212 297.453751 425.82322 297.362115 425.786171 297.277527 425.742947 296.706562 425.450964 296.50831 424.898756 296.840492 424.412707L306.476408 410.446072C306.857052 409.889454 307.798087 409.63452 308.576115 409.872693 308.675681 409.902685 308.767317 409.940617 308.851024 409.982959M335.634835 371.131668C336.2058 371.42365 336.404052 371.97674 336.07187 372.461907L326.443884 386.432953C326.05531 386.986043 325.115157 387.240976 324.337129 387.001921 324.236681 386.971929 324.145045 386.933998 324.061338 386.891656 323.489492 386.599674 323.292122 386.047465 323.624303 385.561416L333.259338 371.594782C333.639982 371.038163 334.581898 370.78323 335.359926 371.021403 335.458611 371.051395 335.550248 371.089326 335.634835 371.131668M348.983257 351.763801C349.555103 352.055784 349.758642 352.610638 349.419411 353.093159L339.797593 367.058911C339.410782 367.620823 338.469747 367.875756 337.6926 367.637583 337.597439 367.607591 337.510208 367.571424 337.429145 367.529964 336.851131 367.235336 336.644069 366.676071 336.985062 366.190904L346.607761 352.226033C346.988404 351.669414 347.935607 351.409188 348.707467 351.652654 348.807034 351.682646 348.89867 351.720577 348.983257 351.763801"/>
      <path fill="#FFF" d="M264.74001,393.747242 C265.098625,393.220615 265.794709,392.842185 266.599171,392.734566 L273.407576,391.758057 L262.814765,407.114916 L259.508807,403.015696 C259.119352,402.533175 259.100849,401.930686 259.460345,401.405824 L264.74001,393.747242 Z"/>
      <path stroke="#171717" d="M264.74001,393.747242 C265.098625,393.220615 265.794709,392.842185 266.599171,392.734566 L273.407576,391.758057 L262.814765,407.114916 L259.508807,403.015696 C259.119352,402.533175 259.100849,401.930686 259.460345,401.405824 L264.74001,393.747242 Z"/>
      <path fill="#FFF" d="M245.872523,399.799833 L243.131362,403.77732 L240.8616,403.078679 C240.700355,403.028398 240.551446,402.968414 240.415754,402.898727 C239.466789,402.415324 239.128439,401.48645 239.683544,400.682837 L245.872523,399.799833 Z"/>
      <path stroke="#171717" d="M245.872523,399.799833 L243.131362,403.77732 L240.8616,403.078679 C240.700355,403.028398 240.551446,402.968414 240.415754,402.898727 C239.466789,402.415324 239.128439,401.48645 239.683544,400.682837 L245.872523,399.799833 Z"/>
      <path fill="#FFF" d="M251.073239,384.146405 L251.234484,383.910878 C251.868008,382.990825 253.446092,382.56035 254.730764,382.957305 L259.87826,384.54777 L253.437281,387.063582 L251.073239,384.146405 Z"/>
      <path stroke="#171717" d="M251.073239,384.146405 L251.234484,383.910878 C251.868008,382.990825 253.446092,382.56035 254.730764,382.957305 L259.87826,384.54777 L253.437281,387.063582 L251.073239,384.146405 Z"/>
      <path fill="#FFF" d="M262.046782,389.994784 L264.768558,386.056992 L272.791145,388.530462 C272.954152,388.580743 273.104824,388.642491 273.241397,388.712179 C274.198292,389.199992 274.531355,390.125338 273.970964,390.935126 L273.815887,391.164478 L266.488502,392.218613 C265.961593,392.291829 265.477859,392.45414 265.058446,392.682609 L263.082097,392.074827 C262.940236,392.031603 262.80895,391.977794 262.689117,391.916928 C261.859985,391.494391 261.567453,390.690778 262.046782,389.994784"/>
      <path stroke="#171717" d="M262.046782,389.994784 L264.768558,386.056992 L272.791145,388.530462 C272.954152,388.580743 273.104824,388.642491 273.241397,388.712179 C274.198292,389.199992 274.531355,390.125338 273.970964,390.935126 L273.815887,391.164478 L266.488502,392.218613 C265.961593,392.291829 265.477859,392.45414 265.058446,392.682609 L263.082097,392.074827 C262.940236,392.031603 262.80895,391.977794 262.689117,391.916928 C261.859985,391.494391 261.567453,390.690778 262.046782,389.994784 Z"/>
      <path fill="#FFF" d="M254.639039,388.561336 L253.790522,387.50279 L260.670298,384.826432 L260.649151,384.782326 L264.096969,385.848812 L261.382242,389.790132 C260.744312,390.718124 261.124074,391.783727 262.225473,392.345639 C262.384955,392.426794 262.558536,392.498246 262.747976,392.555584 L264.482018,393.09015 C264.316368,393.222468 264.182438,393.379485 264.075822,393.541796 L259.773319,399.769576 L255.766871,398.52843 L258.385557,394.730014 C258.86841,394.019024 258.580284,393.210118 257.744102,392.783171 C257.625151,392.722305 257.493864,392.669377 257.352885,392.625271 L254.047808,391.607303 L254.71041,390.651083 C255.177403,389.971849 255.155375,389.192053 254.639039,388.561336"/>
      <path stroke="#171717" d="M254.639039,388.561336 L253.790522,387.50279 L260.670298,384.826432 L260.649151,384.782326 L264.096969,385.848812 L261.382242,389.790132 C260.744312,390.718124 261.124074,391.783727 262.225473,392.345639 C262.384955,392.426794 262.558536,392.498246 262.747976,392.555584 L264.482018,393.09015 C264.316368,393.222468 264.182438,393.379485 264.075822,393.541796 L259.773319,399.769576 L255.766871,398.52843 L258.385557,394.730014 C258.86841,394.019024 258.580284,393.210118 257.744102,392.783171 C257.625151,392.722305 257.493864,392.669377 257.352885,392.625271 L254.047808,391.607303 L254.71041,390.651083 C255.177403,389.971849 255.155375,389.192053 254.639039,388.561336 Z"/>
      <path fill="#FFF" d="M246.761396,399.668838 L247.004585,399.634435 C248.059284,399.48712 248.963312,398.988722 249.430305,398.309488 L253.719592,392.08259 L257.019382,393.106733 C257.117186,393.135843 257.207941,393.17201 257.290766,393.214352 C257.84499,393.496631 258.040599,394.0409 257.714585,394.520775 L249.892011,405.863979 L243.78762,403.978003 L246.761396,399.668838 Z"/>
      <path stroke="#171717" d="M246.761396,399.668838 L247.004585,399.634435 C248.059284,399.48712 248.963312,398.988722 249.430305,398.309488 L253.719592,392.08259 L257.019382,393.106733 C257.117186,393.135843 257.207941,393.17201 257.290766,393.214352 C257.84499,393.496631 258.040599,394.0409 257.714585,394.520775 L249.892011,405.863979 L243.78762,403.978003 L246.761396,399.668838 Z"/>
      <path fill="#FFF" d="M258.796775,401.199672 C258.321852,401.876259 258.345642,402.664876 258.854048,403.291183 L262.396145,407.686795 C261.778481,408.622727 260.213614,409.051438 258.921894,408.650955 L250.562719,406.073395 L255.433544,399.009363 L259.444397,400.245216 L258.796775,401.199672 Z"/>
      <path stroke="#171717" d="M258.796775,401.199672 C258.321852,401.876259 258.345642,402.664876 258.854048,403.291183 L262.396145,407.686795 C261.778481,408.622727 260.213614,409.051438 258.921894,408.650955 L250.562719,406.073395 L255.433544,399.009363 L259.444397,400.245216 L258.796775,401.199672 Z"/>
      <path fill="#FFF" d="M240.085951,400.095255 L250.670832,384.733986 L253.985601,388.837617 C254.374175,389.319255 254.399727,389.925273 254.033182,390.447489 L248.759685,398.099896 C248.400189,398.626522 247.698818,399.011128 246.900524,399.121393 L240.085951,400.095255 Z"/>
      <path stroke="#171717" d="M240.085951,400.095255 L250.670832,384.733986 L253.985601,388.837617 C254.374175,389.319255 254.399727,389.925273 254.033182,390.447489 L248.759685,398.099896 C248.400189,398.626522 247.698818,399.011128 246.900524,399.121393 L240.085951,400.095255 Z"/>
    </g>
  </g>
</svg>
