<svg xmlns="http://www.w3.org/2000/svg" xmlns:xlink="http://www.w3.org/1999/xlink" width="580" height="526" viewBox="0 0 580 526">
  <defs>
    <rect id="service1-a" width="637" height="526" x="0" y="0"/>
    <polygon id="service1-c" points="0 0 550 0 550 504 0 504"/>
    <polyline id="service1-e" points="16.879 13.547 .428 22.153 .428 257.719 207.642 257.719 207.642 .151"/>
    <polygon id="service1-g" points="16.879 13.547 .428 22.153 .428 257.719 207.642 257.719 207.642 .151"/>
    <polyline id="service1-i" points="16.879 13.547 .428 22.153 .428 257.719 207.642 257.719 207.642 .151"/>
    <polygon id="service1-k" points="16.879 13.547 .428 22.153 .428 257.719 207.642 257.719 207.642 .151"/>
    <polyline id="service1-m" points="16.879 13.547 .428 22.153 .428 257.719 207.642 257.719 207.642 .151"/>
    <polygon id="service1-o" points="16.879 13.547 .428 22.153 .428 257.719 207.642 257.719 207.642 .151"/>
    <polyline id="service1-q" points="16.879 13.547 .428 22.153 .428 257.719 207.642 257.719 207.642 .151"/>
    <polygon id="service1-s" points="16.879 13.547 .428 22.153 .428 257.719 207.642 257.719 207.642 .151"/>
    <polygon id="service1-u" points="16.879 13.547 .428 22.153 .428 257.719 207.642 257.719 207.642 .151"/>
    <polygon id="service1-w" points="16.879 13.547 .428 22.153 .428 257.719 207.642 257.719 207.642 .151"/>
    <polygon id="service1-y" points="16.879 13.547 .428 22.153 .428 257.719 207.642 257.719 207.642 .151"/>
    <polygon id="service1-A" points="16.879 13.547 .428 22.153 .428 257.719 207.642 257.719 207.642 .151"/>
    <polygon id="service1-C" points="16.879 13.547 .428 22.153 .428 257.719 207.642 257.719 207.642 .151"/>
    <polygon id="service1-E" points="16.879 13.547 .428 22.153 .428 257.719 207.642 257.719 207.642 .151"/>
    <polygon id="service1-G" points="16.879 13.547 .428 22.153 .428 257.719 207.642 257.719 207.642 .151"/>
    <polygon id="service1-I" points="16.879 13.547 .428 22.153 .428 257.719 207.642 257.719 207.642 .151"/>
    <polygon id="service1-K" points="16.879 13.547 .428 22.153 .428 257.719 207.642 257.719 207.642 .151"/>
    <polygon id="service1-M" points="16.879 13.547 .428 22.153 .428 257.719 207.642 257.719 207.642 .151"/>
    <polyline id="service1-O" points="16.879 13.547 .428 22.153 .428 257.719 207.642 257.719 207.642 .151"/>
    <polygon id="service1-Q" points="16.879 13.547 .428 22.153 .428 257.719 207.642 257.719 207.642 .151"/>
    <polygon id="service1-S" points="16.879 13.547 .428 22.153 .428 257.719 207.642 257.719 207.642 .151"/>
    <polygon id="service1-U" points="16.879 13.547 .428 22.153 .428 257.719 207.642 257.719 207.642 .151"/>
    <polygon id="service1-W" points="16.879 13.547 .428 22.153 .428 257.719 207.642 257.719 207.642 .151"/>
    <polygon id="service1-Y" points="16.879 13.547 .428 22.153 .428 257.719 207.642 257.719 207.642 .151"/>
    <polygon id="service1-aa" points="16.879 13.547 .428 22.153 .428 257.719 207.642 257.719 207.642 .151"/>
    <polygon id="service1-ac" points="16.879 13.547 .428 22.153 .428 257.719 207.642 257.719 207.642 .151"/>
  </defs>
  <g fill="none" fill-rule="evenodd">
    <mask id="service1-b" fill="#fff">
      <use xlink:href="#service1-a"/>
    </mask>
    <g mask="url(#service1-b)">
      <g transform="rotate(-5 549.414 23.033)">
        <mask id="service1-d" fill="#fff">
          <use xlink:href="#service1-c"/>
        </mask>
        <path fill="#F8F8F8" d="M241.078793,497.883962 C352.729677,532.601253 508.777137,412.360018 537.900924,317.675836 C567.024711,222.990616 540.467002,162.370387 491.332173,139.038215 C442.197345,115.705005 366.611857,132.463285 342.827049,68.1390753 C319.041203,3.8138266 234.346087,-24.6401427 157.006229,25.8590571 C88.013139,70.9071935 139.536322,113.468698 52.7719222,147.232468 C-8.89916774,171.231481 -18.1813226,249.811759 33.7440764,293.148129 C76.620128,328.93008 93.9497271,314.569104 124.947406,341.966722 C161.409822,374.192188 129.428948,463.16771 241.078793,497.883962 Z" mask="url(#service1-d)"/>
      </g>
    </g>
    <g mask="url(#service1-b)">
      <g transform="translate(195 15)">
        <path fill="#FFF" d="M158.702266,18.6587732 C158.662216,4.33919331 141.512111,-4.49891822 129.13834,2.69596283 L22.7229473,64.5716171 C10.3555841,71.7624647 0.359967164,89.197487 0.400693142,103.517067 L1.26829552,411.632059 C1.30834527,425.951639 15.4491114,438.24723 27.8172756,431.055576 L130.150798,362.658628 C142.52537,355.463747 152.520186,338.027918 152.479335,323.708338 L158.702266,18.6587732 Z"/>
        <path stroke="#171717" d="M158.702266,18.6587732 C158.662216,4.33919331 141.512111,-4.49891822 129.13834,2.69596283 L22.7229473,64.5716171 C10.3555841,71.7624647 0.359967164,89.197487 0.400693142,103.517067 L1.26829552,411.632059 C1.30834527,425.951639 15.4491114,438.24723 27.8172756,431.055576 L130.150798,362.658628 C142.52537,355.463747 152.520186,338.027918 152.479335,323.708338 L158.702266,18.6587732 Z"/>
        <path fill="#FFF" d="M158.071108,330.999619 L157.203524,22.8854331 C157.16828,10.3889758 148.358937,5.32698699 137.561524,11.6054665 L31.1469318,73.4803141 C20.3543249,79.7563736 11.5970463,95.0326896 11.632184,107.529147 L12.4997677,415.642526 C12.5350114,428.138177 21.3499617,433.197745 32.1409667,426.922493 L138.55636,365.046838 C149.353773,358.768359 158.106245,343.494463 158.071108,330.999619 L158.071108,330.999619 Z M137.551912,8.3448197 C149.925683,1.14993866 159.986181,6.92423606 160.02623,21.243816 L160.893828,329.358002 C160.933758,343.677582 150.939743,361.112604 138.565171,368.307485 L32.1505786,430.182333 C19.7824144,437.373987 9.72271791,431.600496 9.68186716,417.280916 L8.81426961,109.16673 C8.7743398,94.8471506 18.7691557,77.4121283 31.1373199,70.220474 L137.551912,8.3448197 Z"/>
        <path stroke="#171717" d="M158.071108,330.999619 L157.203524,22.8854331 C157.16828,10.3889758 148.358937,5.32698699 137.561524,11.6054665 L31.1469318,73.4803141 C20.3543249,79.7563736 11.5970463,95.0326896 11.632184,107.529147 L12.4997677,415.642526 C12.5350114,428.138177 21.3499617,433.197745 32.1409667,426.922493 L138.55636,365.046838 C149.353773,358.768359 158.106245,343.494463 158.071108,330.999619 L158.071108,330.999619 Z M137.551912,8.3448197 C149.925683,1.14993866 159.986181,6.92423606 160.02623,21.243816 L160.893828,329.358002 C160.933758,343.677582 150.939743,361.112604 138.565171,368.307485 L32.1505786,430.182333 C19.7824144,437.373987 9.72271791,431.600496 9.68186716,417.280916 L8.81426961,109.16673 C8.7743398,94.8471506 18.7691557,77.4121283 31.1373199,70.220474 L137.551912,8.3448197 Z"/>
        <path fill="#FFF" d="M138.694611,10.2822506 C149.66584,3.95294944 158.61696,9.05607955 158.653004,21.6533732 L159.535004,332.245715 C159.570144,344.841396 150.677497,360.237909 139.705467,366.56721 L31.5767458,428.940593 C20.6103229,435.266667 11.6535965,430.166764 11.6183527,417.571083 L10.7363481,106.977128 C10.7004124,94.3814476 19.5994672,78.9809011 30.5650891,72.6556335 L138.694611,10.2822506 Z"/>
        <path fill="#F7F7F7" d="M137.377295,17.599184 C146.032847,12.5662361 153.092817,16.6182472 153.120852,26.6341283 L153.981209,332.268545 C154.009957,342.277165 146.995643,354.520322 138.340091,359.55327 L32.7905736,420.926355 C24.1350214,425.958496 17.0694443,421.903258 17.0414095,411.893024 L16.1802561,106.259414 C16.152305,96.2435335 23.1730264,84.0036041 31.8285786,78.9714628 L50.445305,68.1464703 L137.377295,17.599184 Z"/>
        <path fill="#FFF" d="M137.890493,11.4142807 C148.687905,5.13580112 157.502856,10.1945632 157.5381,22.6910204 L158.405683,330.8044 C158.440821,343.30005 149.683542,358.570719 138.885328,364.849199 L135.572413,366.775578 C146.370627,360.496292 155.122299,345.230463 155.087055,332.734006 L154.220378,24.6198197 C154.185134,12.1249758 145.375791,7.06137361 134.577577,13.3406599 L137.890493,11.4142807 Z"/>
        <path fill="#FFF" d="M159.012922,331.39272 L158.145334,23.2801472 C158.108488,10.1827048 148.874617,4.88274201 137.557359,11.4637309 L31.1475726,73.3353517 C19.8303139,79.9163405 10.6565179,95.9202922 10.6932531,109.016928 L11.5608413,417.1295 C11.5976871,430.226943 20.8315577,435.526906 32.1488164,428.946723 L138.558602,367.073489 C149.875861,360.493307 159.049657,344.489355 159.012922,331.39272 L159.012922,331.39272 Z M137.554956,10.6965673 C149.236667,3.90422528 158.769309,9.37601338 158.807757,22.8945487 L159.675346,331.007928 C159.712881,344.526463 150.241916,361.049117 138.561005,367.840653 L32.1512194,429.71308 C20.469508,436.505422 10.9368662,431.034441 10.8984184,417.515099 L10.030829,109.40172 C9.99329403,95.8839911 19.4642592,79.3605301 31.1459706,72.5689948 L137.554956,10.6965673 Z"/>
        <polygon fill="#FFF" points="139.546 34.088 139.547 34.259 139.398 34.346 139.398 34.174"/>
        <polygon fill="#0A0A0A" points="96.879 115.493 97.279 258.911 80.924 267.722 80.924 124.304"/>
        <g transform="translate(85 103)">
          <mask id="service1-f" fill="#fff">
            <use xlink:href="#service1-e"/>
          </mask>
          <path fill="#0048FA" d="M161.525056,129.030799 L161.226685,235.350986 C161.202499,242.994236 155.792887,246.074111 149.141724,242.236361 L-22.8291287,142.938611 C-25.1993612,141.567986 -27.4164155,139.576549 -29.3432372,137.222299 C-33.4153612,132.247736 -36.1556403,125.644549 -36.1403864,119.887924 L-35.8420279,16.5750487 C-35.8170357,8.10136125 -29.8197023,4.68286125 -22.450214,8.93986125 L127.824949,95.7084862 L149.519833,108.237611 C156.170995,112.075361 161.54836,121.387549 161.525056,129.030799" mask="url(#service1-f)"/>
          <mask id="service1-h" fill="#fff">
            <use xlink:href="#service1-g"/>
          </mask>
          <path stroke="#121212" d="M161.525056,129.030799 L161.226685,235.350986 C161.202499,242.994236 155.792887,246.074111 149.141724,242.236361 L-22.8291287,142.938611 C-25.1993612,141.567986 -27.4164155,139.576549 -29.3432372,137.222299 C-33.4153612,132.247736 -36.1556403,125.644549 -36.1403864,119.887924 L-35.8420279,16.5750487 C-35.8170357,8.10136125 -29.8197023,4.68286125 -22.450214,8.93986125 L127.824949,95.7084862 L149.519833,108.237611 C156.170995,112.075361 161.54836,121.387549 161.525056,129.030799 Z" mask="url(#service1-h)"/>
          <mask id="service1-j" fill="#fff">
            <use xlink:href="#service1-i"/>
          </mask>
          <path fill="#003887" d="M155.220161,104.927552 L-16.7539163,5.63222063 C-20.4640558,3.49082063 -23.8259163,3.29167687 -26.2533891,4.70261437 L-31.9500093,8.01388313 C-29.5225364,6.60294563 -26.160676,6.80128312 -22.4513426,8.94268313 L149.523541,108.238014 C156.172285,112.077377 161.548037,121.389564 161.52627,129.030396 L161.223944,235.349777 C161.21427,239.145602 159.87275,241.815902 157.711324,243.072846 L163.407944,239.761577 C165.570177,238.505439 166.91089,235.833527 166.922177,232.037702 L167.223757,125.719127 C167.244657,118.078296 161.868905,108.766914 155.220161,104.927552" mask="url(#service1-j)"/>
          <mask id="service1-l" fill="#fff">
            <use xlink:href="#service1-k"/>
          </mask>
          <path stroke="#2F2F2F" d="M155.220161,104.927552 L-16.7539163,5.63222063 C-20.4640558,3.49082063 -23.8259163,3.29167687 -26.2533891,4.70261437 L-31.9500093,8.01388313 C-29.5225364,6.60294563 -26.160676,6.80128312 -22.4513426,8.94268313 L149.523541,108.238014 C156.172285,112.077377 161.548037,121.389564 161.52627,129.030396 L161.223944,235.349777 C161.21427,239.145602 159.87275,241.815902 157.711324,243.072846 L163.407944,239.761577 C165.570177,238.505439 166.91089,235.833527 166.922177,232.037702 L167.223757,125.719127 C167.244657,118.078296 161.868905,108.766914 155.220161,104.927552 Z" mask="url(#service1-l)"/>
          <mask id="service1-n" fill="#fff">
            <use xlink:href="#service1-m"/>
          </mask>
          <path fill="#FFF" d="M123.85626,186.781599 C126.031392,188.037737 128.026741,190.068681 129.586741,192.437443 C131.623206,195.527799 132.918772,199.192206 132.909949,202.453487 C132.901036,205.716381 131.587733,207.877131 129.540788,208.613237 C127.971919,209.175999 125.97254,208.903487 123.797408,207.648156 C118.782028,204.752106 114.735702,197.732893 114.751778,191.970624 C114.768757,186.206743 118.840881,183.885549 123.85626,186.781599" mask="url(#service1-n)"/>
          <mask id="service1-p" fill="#fff">
            <use xlink:href="#service1-o"/>
          </mask>
          <path stroke="#171717" d="M123.85626,186.781599 C126.031392,188.037737 128.026741,190.068681 129.586741,192.437443 C131.623206,195.527799 132.918772,199.192206 132.909949,202.453487 C132.901036,205.716381 131.587733,207.877131 129.540788,208.613237 C127.971919,209.175999 125.97254,208.903487 123.797408,207.648156 C118.782028,204.752106 114.735702,197.732893 114.751778,191.970624 C114.768757,186.206743 118.840881,183.885549 123.85626,186.781599 Z" mask="url(#service1-p)"/>
          <mask id="service1-r" fill="#fff">
            <use xlink:href="#service1-q"/>
          </mask>
          <path fill="#FFF" d="M135.33125,193.406394 C140.336955,196.296801 144.392149,203.311982 144.376073,209.075057 C144.359901,214.837326 140.278102,217.163357 135.271591,214.272951 C133.096459,213.016813 131.10111,210.983451 129.540304,208.613076 C131.58725,207.876969 132.900552,205.717026 132.910226,202.454132 C132.919095,199.192044 131.622722,195.527638 129.587064,192.437282 C131.155126,191.876132 133.155312,192.150257 135.33125,193.406394" mask="url(#service1-r)"/>
          <mask id="service1-t" fill="#fff">
            <use xlink:href="#service1-s"/>
          </mask>
          <path stroke="#171717" d="M135.33125,193.406394 C140.336955,196.296801 144.392149,203.311982 144.376073,209.075057 C144.359901,214.837326 140.278102,217.163357 135.271591,214.272951 C133.096459,213.016813 131.10111,210.983451 129.540304,208.613076 C131.58725,207.876969 132.900552,205.717026 132.910226,202.454132 C132.919095,199.192044 131.622722,195.527638 129.587064,192.437282 C131.155126,191.876132 133.155312,192.150257 135.33125,193.406394 Z" mask="url(#service1-t)"/>
          <mask id="service1-v" fill="#fff">
            <use xlink:href="#service1-u"/>
          </mask>
          <path fill="#FFF" d="M85.0570047,111.568149 C85.8478884,112.024487 86.4912372,113.138724 86.4888254,114.048174 C86.4855938,114.957624 85.8390202,115.326887 85.0473302,114.869743 L55.1824,97.6256681 C54.3907101,97.1693306 53.7570357,96.0607369 53.7594474,95.1512869 C53.7618729,94.2418369 54.4003845,93.8677369 55.1920744,94.3240744 L85.0570047,111.568149 Z" mask="url(#service1-v)"/>
          <mask id="service1-x" fill="#fff">
            <use xlink:href="#service1-w"/>
          </mask>
          <path fill="#FFF" d="M102.602933,128.303319 C103.393817,128.759657 104.037166,129.873894 104.034754,130.782538 C104.031522,131.692794 103.384949,132.050769 102.593259,131.594432 L55.1636155,104.209344 C54.3727318,103.752201 53.7382512,102.654088 53.7406629,101.744638 C53.7438946,100.834382 54.3816,100.461088 55.1732899,100.917426 L102.602933,128.303319 Z" mask="url(#service1-x)"/>
          <mask id="service1-z" fill="#fff">
            <use xlink:href="#service1-y"/>
          </mask>
          <path fill="#FFF" d="M120.745612,132.174771 C121.536496,132.631108 122.171783,133.739702 122.169371,134.649152 C122.16614,135.558602 121.527628,135.932702 120.735938,135.476364 L90.8629457,118.226646 C90.0712558,117.770308 89.4367752,116.661714 89.4391869,115.752264 C89.4416124,114.842814 90.080124,114.468714 90.871814,114.925052 L120.745612,132.174771 Z" mask="url(#service1-z)"/>
          <mask id="service1-B" fill="#fff">
            <use xlink:href="#service1-A"/>
          </mask>
          <path fill="#FFF" d="M109.712341,112.605874 C110.503225,113.063018 111.138512,114.171611 111.1361,115.081061 C111.133674,115.990511 110.495163,116.35413 109.702667,115.897793 L55.2195659,84.43953 C54.4286822,83.9831925 53.7942016,82.8842737 53.7966133,81.9748237 C53.7990388,81.0653738 54.4375504,80.6912738 55.2292403,81.1484175 L109.712341,112.605874 Z" mask="url(#service1-B)"/>
          <mask id="service1-D" fill="#fff">
            <use xlink:href="#service1-C"/>
          </mask>
          <path fill="#FFF" d="M126.656763,128.993066 C127.447647,129.45021 128.082933,130.549129 128.079721,131.458579 C128.07729,132.368029 127.438778,132.741322 126.647088,132.284985 L55.2007008,91.0332038 C54.4098171,90.5768662 53.7753364,89.4674663 53.778549,88.5580163 C53.7801736,87.6485663 54.4186853,87.2849475 55.2103752,87.741285 L126.656763,128.993066 Z" mask="url(#service1-D)"/>
          <mask id="service1-F" fill="#fff">
            <use xlink:href="#service1-E"/>
          </mask>
          <path fill="#FFF" d="M32.7326698,139.118438 C33.5235535,139.574775 34.1588403,140.6745 34.1564286,141.58395 C34.1531969,142.4934 33.5146853,142.866694 32.7229953,142.410356 L12.8444837,130.932581 C12.0536,130.475438 11.4191194,129.366038 11.4215311,128.456588 C11.4239566,127.547138 12.0624682,127.183519 12.8541581,127.641469 L32.7326698,139.118438 Z" mask="url(#service1-F)"/>
          <mask id="service1-H" fill="#fff">
            <use xlink:href="#service1-G"/>
          </mask>
          <path fill="#FFF" d="M5.00925271,123.111472 C5.80013643,123.56781 6.44348527,124.672372 6.44107346,125.581016 C6.43784186,126.490466 5.79126822,126.859729 4.99957829,126.402585 L-14.8700651,114.930454 C-15.661755,114.47331 -16.2962357,113.364716 -16.2938239,112.45446 C-16.2905922,111.545816 -15.6520806,111.181391 -14.8603907,111.639341 L5.00925271,123.111472 Z" mask="url(#service1-H)"/>
          <mask id="service1-J" fill="#fff">
            <use xlink:href="#service1-I"/>
          </mask>
          <path fill="#FFF" d="M60.2836403,155.026072 C61.074524,155.48241 61.7178729,156.586972 61.7154611,157.495616 C61.7130357,158.405066 61.066462,158.774329 60.2739659,158.317991 L40.4051287,146.845054 C39.6126326,146.38791 38.9700899,145.274479 38.9725017,144.364222 C38.9749271,143.454772 39.622307,143.096797 40.4139969,143.553941 L60.2836403,155.026072 Z" mask="url(#service1-J)"/>
          <mask id="service1-L" fill="#fff">
            <use xlink:href="#service1-K"/>
          </mask>
          <path fill="#FFF" d="M87.844124,170.938545 C88.6350078,171.395689 89.2783566,172.500251 89.2751439,173.408895 C89.2727132,174.318345 88.6261395,174.686801 87.8344496,174.230464 L67.9648062,162.758332 C67.1731163,162.300382 66.5305736,161.186951 66.532183,160.277501 C66.5354109,159.368051 67.1827907,159.00927 67.9744806,159.466414 L87.844124,170.938545 Z" mask="url(#service1-L)"/>
          <mask id="service1-N" fill="#fff">
            <use xlink:href="#service1-M"/>
          </mask>
          <path fill="#FBD736" d="M-1.2600124,67.225125 C-2.22261705,66.6696187 -3.13604341,66.6857438 -3.68990388,67.2775312 L-7.57821395,71.3886 C-8.9028031,70.6533 -9.97505116,68.7965063 -9.97103148,67.2839812 L-9.9428031,57.4993312 L0.112142636,63.3051375 L0.100049612,68.0104125 L-1.2600124,67.225125 Z" mask="url(#service1-N)"/>
          <mask id="service1-P" fill="#fff">
            <use xlink:href="#service1-O"/>
          </mask>
          <path fill="#FBD736" d="M-7.51992558,44.7887194 L-4.25803411,52.0683506 L-9.91837519,48.8006194 L-9.91111938,46.1504756 C-9.90628217,44.6484319 -8.8275845,44.0332631 -7.51992558,44.7887194" mask="url(#service1-P)"/>
          <mask id="service1-R" fill="#fff">
            <use xlink:href="#service1-Q"/>
          </mask>
          <path fill="#FFF" d="M9.63628527,74.2987594 C10.3763783,74.7252656 11.071324,75.5532844 11.5002233,76.4933719 L15.095076,84.5099156 L-6.76104806,71.8904906 L-3.13152868,68.0454844 C-2.70907907,67.5964031 -2.01010233,67.5738281 -1.26275349,68.0059781 L9.63628527,74.2987594 Z" mask="url(#service1-R)"/>
          <mask id="service1-T" fill="#fff">
            <use xlink:href="#service1-S"/>
          </mask>
          <path fill="#FFF" d="M-1.22623256,55.4817712 C-1.9751938,55.0504275 -2.67013953,54.2224087 -3.09017054,53.27829 L-6.68582946,45.26094 L15.1711008,57.8811712 L11.5415814,61.7253712 C11.1094574,62.17929 10.412093,62.201865 9.672,61.7753587 L-1.22623256,55.4817712 Z" mask="url(#service1-T)"/>
          <mask id="service1-V" fill="#fff">
            <use xlink:href="#service1-U"/>
          </mask>
          <path fill="#000" d="M-9.91095814,46.1508787 L-9.91821395,48.8002162 L-4.25787287,52.0687537 L-7.51976434,44.7891225 C-8.82742326,44.0336662 -9.90612093,44.648835 -9.91095814,46.1508787 L-9.91095814,46.1508787 Z M18.6987163,68.7000787 L18.7164641,62.67981 C18.7204837,61.167285 17.6490419,59.3112975 16.3325147,58.55181 L16.0051969,58.3623412 L13.4301891,61.1035912 L18.6987163,68.7000787 L18.6987163,68.7000787 Z M18.6567938,83.813235 L18.6825922,74.4228412 L13.0827163,71.1897787 C11.9475845,70.5342975 11.0067473,71.0502975 11.0027163,72.3652912 L10.9970729,74.6784225 C11.4171039,75.1782975 11.7863442,75.7579912 12.0604527,76.3707412 L15.9302202,84.9919725 L16.2567318,85.180635 C17.5732589,85.9409287 18.6519566,85.32576 18.6567938,83.813235 L18.6567938,83.813235 Z M-9.92063256,49.5709913 L-9.9407876,56.7175913 L6.19614264,66.0354225 C6.97896434,66.4877288 7.61747597,66.1224975 7.61989457,65.243685 L7.6311814,61.3785225 L-1.22816744,56.2628663 C-2.1923845,55.70736 -3.10258605,54.63666 -3.6499969,53.4095475 L-3.77898915,53.117685 L-9.92063256,49.5709913 L-9.92063256,49.5709913 Z M-7.59554729,71.4082725 L-3.68950078,67.2778538 C-3.13644651,66.6860663 -2.22302016,66.669135 -1.2604155,67.2254475 L0.0996465116,68.0099288 L0.112545736,63.3046538 L-9.9424,57.4988475 L-9.97062839,67.2843038 C-9.97464806,68.7968288 -8.9032062,70.6536225 -7.59554729,71.4082725 L-7.59554729,71.4082725 Z M-6.76112868,71.89041 L15.0958016,84.509835 L11.5001426,76.4932912 C11.0712434,75.5532037 10.3762977,74.725185 9.63620465,74.2986787 L-1.26202791,68.0058975 C-2.01018295,67.5737475 -2.70835349,67.5971287 -3.1316093,68.0454037 L-6.76112868,71.89041 L-6.76112868,71.89041 Z M15.1707783,57.88101 L-6.68615194,45.2607787 L-3.08968682,53.2781287 C-2.67046202,54.2230537 -1.97471008,55.0502662 -1.22655504,55.48161 L9.67167752,61.7751975 C10.4117705,62.2017037 11.1091349,62.1791287 11.5412589,61.72521 L15.1707783,57.88101 L15.1707783,57.88101 Z M18.6850109,73.6423913 L18.6962977,69.5990475 L18.653569,69.623235 L13.0327318,61.5075225 L12.0999566,62.5032412 C11.5460961,63.0950288 10.6326698,63.11196 9.66925891,62.5556475 L8.3108093,61.7711663 L8.29952248,65.6363288 C8.29629767,66.9609975 7.34659225,67.481835 6.19453023,66.8158725 L0.792173643,63.6972975 L0.779274419,68.4025725 L9.63862326,73.5174225 C9.8708093,73.65126 10.0941271,73.8108975 10.3182512,73.9987538 L10.3238946,71.9726475 C10.3279256,70.23276 11.5630264,69.52971 13.0851349,70.4085225 L18.6850109,73.6423913 L18.6850109,73.6423913 Z M16.4808558,57.864885 C18.0972899,58.8880162 19.4001116,61.1842163 19.3960899,63.0716475 L19.3356155,84.2050725 C19.3299721,86.1037912 18.0190884,86.8810163 16.3833054,86.025585 L-8.0712062,71.91621 C-9.54977984,70.7947162 -10.6550822,68.662185 -10.6502608,66.8924662 L-10.590586,45.7590413 C-10.5849426,43.9893225 -9.4199814,43.1572725 -7.93979535,43.765185 L16.4808558,57.864885 Z" mask="url(#service1-V)"/>
          <mask id="service1-X" fill="#fff">
            <use xlink:href="#service1-W"/>
          </mask>
          <path fill="#FFF" d="M7.61997519,65.2433625 C7.61755659,66.1229813 6.97904496,66.4874063 6.19622326,66.0351 L-9.94070698,56.718075 L-9.92055194,49.571475 L-3.77890853,53.1173625 L-3.64991628,53.409225 C-3.10250543,54.6371437 -2.19230388,55.7070375 -1.22889302,56.2625437 L7.63126202,61.3782 L7.61997519,65.2433625 Z" mask="url(#service1-X)"/>
          <mask id="service1-Z" fill="#fff">
            <use xlink:href="#service1-Y"/>
          </mask>
          <path fill="#FFF" d="M16.3322729,58.5516487 C17.6488,59.3111362 18.7202419,61.1671238 18.7162222,62.6796487 L18.6992806,68.6999175 L13.4299473,61.10343 L16.0057612,58.3629862 L16.3322729,58.5516487 Z" mask="url(#service1-Z)"/>
          <mask id="service1-ab" fill="#fff">
            <use xlink:href="#service1-aa"/>
          </mask>
          <path fill="#FFF" d="M11.0030388,72.3649688 C11.0070698,71.049975 11.947907,70.533975 13.0830388,71.1894562 L18.6821085,74.423325 L18.6563101,83.8129125 C18.6514729,85.3254375 17.5727752,85.9406063 16.2570543,85.1811188 L15.9297364,84.99165 L12.0607752,76.371225 C11.7866667,75.7576688 11.4174264,75.177975 10.9965891,74.6781 L11.0030388,72.3649688 Z" mask="url(#service1-ab)"/>
          <mask id="service1-ad" fill="#fff">
            <use xlink:href="#service1-ac"/>
          </mask>
          <path fill="#FFF" d="M13.0327318,61.5073612 L18.653569,69.6230737 L18.6962977,69.5988862 L18.6850109,73.64223 L13.0851349,70.4083612 C11.5630264,69.5295487 10.3287318,70.2325987 10.3238946,71.9724862 L10.3182512,73.9985925 C10.0941271,73.8107362 9.8708093,73.651905 9.63862326,73.5172612 L0.779274419,68.4024112 L0.792173643,63.6971362 L6.19453023,66.8157112 C7.34659225,67.4816737 8.29629767,66.9608362 8.29952248,65.6361675 L8.3108093,61.771005 L9.66925891,62.5554862 C10.6326698,63.1117987 11.5460961,63.0948675 12.0999566,62.50308 L13.0327318,61.5073612 Z" mask="url(#service1-ad)"/>
        </g>
        <g transform="translate(194 374)">
          <path fill="#FFF" d="M63.0629524,22.4258282 C63.0629524,22.4258282 72.8553214,45.1557423 61.0816667,47.951227 L63.0629524,22.4258282 Z"/>
          <path stroke="#171717" d="M63.0629524,22.4258282 C63.0629524,22.4258282 72.8553214,45.1557423 61.0816667,47.951227 L63.0629524,22.4258282 Z"/>
          <path fill="#FFF" d="M53.8069821,21.0822626 L52.1032679,22.1269252 C52.6815417,21.8564466 53.2598155,21.5130847 53.8069821,21.0822626"/>
          <path stroke="#3DC4BD" stroke-linecap="round" stroke-linejoin="round" stroke-width="2" d="M53.8069821,21.0822626 L52.1032679,22.1269252 C52.6815417,21.8564466 53.2598155,21.5130847 53.8069821,21.0822626 Z"/>
          <path fill="#FFF" d="M47.921431,21.5069301 C47.8727762,21.5676663 47.8257167,21.6284025 47.7818476,21.6915681 L46.7616929,25.4037644 L52.1033476,22.1272491 L53.8070619,21.0825865 L55.9032048,19.7965988 L55.224431,18.2530896 L55.0529429,17.8627583 C55.0529429,17.8627583 49.7695143,19.1851877 47.921431,21.5069301"/>
          <path stroke="#171717" d="M47.921431,21.5069301 C47.8727762,21.5676663 47.8257167,21.6284025 47.7818476,21.6915681 L46.7616929,25.4037644 L52.1033476,22.1272491 L53.8070619,21.0825865 L55.9032048,19.7965988 L55.224431,18.2530896 L55.0529429,17.8627583 C55.0529429,17.8627583 49.7695143,19.1851877 47.921431,21.5069301 Z"/>
          <g transform="translate(52.643 116.613)">
            <path fill="#FFF" d="M7.63544762,0.366279755 L2.68382857,0.793862577 C2.68382857,0.793862577 3.06509048,6.70794847 0.170530952,7.32745767 L1.00803095,8.48711411 L7.40732857,9.02807117 L8.39717381,7.32745767"/>
            <path stroke="#171717" d="M7.63544762,0.366279755 L2.68382857,0.793862577 C2.68382857,0.793862577 3.06509048,6.70794847 0.170530952,7.32745767 L1.00803095,8.48711411 L7.40732857,9.02807117 L8.39717381,7.32745767"/>
          </g>
          <path fill="#0048FA" d="M52.6604048,122.136037 C52.6604048,122.136037 46.8712857,121.701166 45.804869,125.104012 C45.804869,125.104012 46.2627024,127.191718 52.5088571,127.655742 C52.5088571,127.655742 56.3932619,127.888969 57.6120238,128.893951 C57.6120238,128.893951 60.8120714,129.898933 62.0300357,128.042834 C62.0300357,128.042834 62.4176786,124.576822 61.0401905,122.552282 C61.0401905,122.552282 61.573,124.794663 58.8307857,124.639988 L55.0987262,124.872405 L56.3932619,123.943546 L55.4791905,122.136037 L52.6604048,122.136037 Z"/>
          <path stroke="#171717" d="M52.6604048,122.136037 C52.6604048,122.136037 46.8712857,121.701166 45.804869,125.104012 C45.804869,125.104012 46.2627024,127.191718 52.5088571,127.655742 C52.5088571,127.655742 56.3932619,127.888969 57.6120238,128.893951 C57.6120238,128.893951 60.8120714,129.898933 62.0300357,128.042834 C62.0300357,128.042834 62.4176786,124.576822 61.0401905,122.552282 C61.0401905,122.552282 61.573,124.794663 58.8307857,124.639988 L55.0987262,124.872405 L56.3932619,123.943546 L55.4791905,122.136037 L52.6604048,122.136037 Z"/>
          <path fill="#0A0A0A" d="M52.6604048 121.281924C52.6604048 121.281924 46.8712857 120.847053 45.804869 124.249899 45.804869 124.249899 46.2627024 126.337605 52.5088571 126.801629 52.5088571 126.801629 56.3932619 127.034047 57.6120238 128.039838 57.6120238 128.039838 60.8120714 129.04482 62.0300357 127.188721 62.0300357 127.188721 62.4176786 123.722709 61.0401905 121.698169 61.0401905 121.698169 61.573 123.94055 58.8307857 123.785875L55.0987262 124.018292 56.3932619 123.089433 55.4791905 121.281924 52.6604048 121.281924zM62.1313333 56.5203755C62.1313333 56.5203755 62.2589524 71.1488908 61.0401905 76.0992957L59.7113571 92.9596638C59.7113571 92.9596638 61.1662143 111.98467 60.8958214 118.326339 60.8958214 118.326339 59.8637024 120.337921 54.3792738 119.719222L52.3987857 95.4344613 51.332369 69.4482773 51.332369 58.9303877 62.1313333 56.5203755z"/>
          <path fill="#FFF" d="M44.6289393,119.83705 C44.6289393,119.83705 45.0102012,125.751136 42.1156417,126.369836 L42.952344,127.530302 L49.3516417,128.071259 L50.3422845,126.369836 L49.5805583,119.409467 L44.6289393,119.83705 Z"/>
          <path stroke="#171717" d="M44.6289393,119.83705 C44.6289393,119.83705 45.0102012,125.751136 42.1156417,126.369836 L42.952344,127.530302 L49.3516417,128.071259 L50.3422845,126.369836 L49.5805583,119.409467 L44.6289393,119.83705 Z"/>
          <path fill="#0A0A0A" d="M42.1581548,60.5742331 C42.1581548,60.5742331 39.9064762,76.7187239 41.734619,97.4451534 L42.9525833,122.193939 C42.9525833,122.193939 48.5893571,123.740687 49.9612619,121.111215 L49.0471905,96.0530798 L51.7894048,74.5532761 C51.7894048,74.5532761 54.7174643,70.5309202 54.3234405,61.4051043 L53.5625119,58.9303067 L42.1581548,60.5742331 Z"/>
          <path fill="#0048FA" d="M41.9626583,124.566294 C41.9626583,124.566294 36.1735393,124.130613 35.1071226,127.53346 C35.1071226,127.53346 35.5641583,129.621975 41.8111107,130.08519 C41.8111107,130.08519 45.6955155,130.318417 46.9142774,131.323399 C46.9142774,131.323399 50.1135274,132.32838 51.3322893,130.472282 C51.3322893,130.472282 51.7199321,127.00627 50.342444,124.98173 C50.342444,124.98173 50.8752536,127.22411 48.1330393,127.069436 L44.4009798,127.301853 L45.6955155,126.372994 L44.781444,124.566294 L41.9626583,124.566294 Z"/>
          <path stroke="#171717" d="M41.9626583,124.566294 C41.9626583,124.566294 36.1735393,124.130613 35.1071226,127.53346 C35.1071226,127.53346 35.5641583,129.621975 41.8111107,130.08519 C41.8111107,130.08519 45.6955155,130.318417 46.9142774,131.323399 C46.9142774,131.323399 50.1135274,132.32838 51.3322893,130.472282 C51.3322893,130.472282 51.7199321,127.00627 50.342444,124.98173 C50.342444,124.98173 50.8752536,127.22411 48.1330393,127.069436 L44.4009798,127.301853 L45.6955155,126.372994 L44.781444,124.566294 L41.9626583,124.566294 Z"/>
          <path fill="#0A0A0A" d="M41.9626583,123.711372 C41.9626583,123.711372 36.1735393,123.276501 35.1071226,126.679347 C35.1071226,126.679347 35.5641583,128.767053 41.8111107,129.231077 C41.8111107,129.231077 45.6955155,129.464304 46.9142774,130.469286 C46.9142774,130.469286 50.1135274,131.474267 51.3322893,129.618169 C51.3322893,129.618169 51.7199321,126.152157 50.342444,124.127617 C50.342444,124.127617 50.8752536,126.369998 48.1330393,126.215323 L44.4009798,126.44774 L45.6955155,125.518881 L44.781444,123.711372 L41.9626583,123.711372 Z"/>
          <path fill="#FFF" d="M47.7820071,23.0632344 C47.7820071,23.0632344 37.9258286,25.5194061 37.9258286,31.5517252 L41.7129238,64.7566086 C41.7129238,64.7566086 55.6545071,63.5046331 62.0378524,57.5209031 L63.0627929,22.4259092 C63.0627929,22.4259092 62.3010667,18.7137129 55.9033643,19.7964368 L47.7820071,23.0632344 Z"/>
          <path stroke="#171717" d="M47.7820071,23.0632344 C47.7820071,23.0632344 37.9258286,25.5194061 37.9258286,31.5517252 L41.7129238,64.7566086 C41.7129238,64.7566086 55.6545071,63.5046331 62.0378524,57.5209031 L63.0627929,22.4259092 C63.0627929,22.4259092 62.3010667,18.7137129 55.9033643,19.7964368 L47.7820071,23.0632344 Z"/>
          <path fill="#FFF" d="M40.7374357,26.905973 C41.375531,26.8282307 42.0846143,26.9578012 42.6796381,27.6072736 C42.6796381,27.6072736 46.7482929,36.2933595 33.9504952,50.4262675 C32.1399,52.4265129 29.1679714,52.8711018 26.8891738,51.4482552 C26.8588643,51.4288196 26.8277571,51.409384 26.79665,51.3891387 L10.4574238,39.7690896 L13.6566738,34.6842552 L29.6537214,43.5007215 L38.4865548,28.4567706 C38.9731024,27.627519 39.7922571,27.0217767 40.7374357,26.905973"/>
          <path stroke="#171717" d="M40.7374357,26.905973 C41.375531,26.8282307 42.0846143,26.9578012 42.6796381,27.6072736 C42.6796381,27.6072736 46.7482929,36.2933595 33.9504952,50.4262675 C32.1399,52.4265129 29.1679714,52.8711018 26.8891738,51.4482552 C26.8588643,51.4288196 26.8277571,51.409384 26.79665,51.3891387 L10.4574238,39.7690896 L13.6566738,34.6842552 L29.6537214,43.5007215 L38.4865548,28.4567706 C38.9731024,27.627519 39.7922571,27.0217767 40.7374357,26.905973 Z"/>
          <path fill="#FFF" d="M11.8502262,34.7288761 L9.29305952,30.2595018 L5.05929762,27.3692687 C4.60066667,27.0558699 4.07344048,26.8623239 3.52388095,26.804827 L0.835107143,26.2314773 C0.370095238,26.1747902 0.10927381,26.7748638 0.473785714,27.0728761 C1.01217857,27.5117963 2.64330952,28.2382012 3.12746429,28.349146 L3.3292619,28.3953055 C3.90354762,28.5273055 4.4259881,28.8293669 4.82958333,29.2634282 L5.95502381,30.4732933 L4.88302381,29.9574405 C4.0909881,29.576827 1.97969048,28.9451706 0.82075,28.978373 C0.572690476,28.9848515 0.369297619,29.1816368 0.335,29.4310601 L0.329416667,29.4764098 C0.3015,29.9380049 1.11586905,30.5696613 1.6710119,30.6911337 L3.71371429,31.1365325 L5.05132143,32.2354528 L4.09019048,32.0791583 C3.48719048,31.9811706 2.86425,31.842692 2.18786905,31.873465 C1.84489286,31.8880417 1.61039286,32.1058822 1.5537619,32.4492442 C1.5537619,32.4492442 1.4612381,33.2388147 2.53244048,33.4331706 L4.5687619,33.7336123 L3.8732381,33.6315755 C3.41620238,33.5635509 2.87222619,33.4914773 2.52446429,33.5109129 C1.96294048,33.5424957 1.87759524,34.5733914 2.42077381,34.7215877 L5.33447619,35.4018331 C5.33447619,35.4018331 7.47847619,36.5209988 9.39116667,37.0498086 L11.8502262,34.7288761 Z"/>
          <path stroke="#171717" d="M11.8502262,34.7288761 L9.29305952,30.2595018 L5.05929762,27.3692687 C4.60066667,27.0558699 4.07344048,26.8623239 3.52388095,26.804827 L0.835107143,26.2314773 C0.370095238,26.1747902 0.10927381,26.7748638 0.473785714,27.0728761 C1.01217857,27.5117963 2.64330952,28.2382012 3.12746429,28.349146 L3.3292619,28.3953055 C3.90354762,28.5273055 4.4259881,28.8293669 4.82958333,29.2634282 L5.95502381,30.4732933 L4.88302381,29.9574405 C4.0909881,29.576827 1.97969048,28.9451706 0.82075,28.978373 C0.572690476,28.9848515 0.369297619,29.1816368 0.335,29.4310601 L0.329416667,29.4764098 C0.3015,29.9380049 1.11586905,30.5696613 1.6710119,30.6911337 L3.71371429,31.1365325 L5.05132143,32.2354528 L4.09019048,32.0791583 C3.48719048,31.9811706 2.86425,31.842692 2.18786905,31.873465 C1.84489286,31.8880417 1.61039286,32.1058822 1.5537619,32.4492442 C1.5537619,32.4492442 1.4612381,33.2388147 2.53244048,33.4331706 L4.5687619,33.7336123 L3.8732381,33.6315755 C3.41620238,33.5635509 2.87222619,33.4914773 2.52446429,33.5109129 C1.96294048,33.5424957 1.87759524,34.5733914 2.42077381,34.7215877 L5.33447619,35.4018331 C5.33447619,35.4018331 7.47847619,36.5209988 9.39116667,37.0498086 L11.8502262,34.7288761 Z"/>
          <polygon fill="#FFF" points="10.77 39.272 8.642 37.927 11.442 33.77 13.408 35.079"/>
          <polygon stroke="#171717" points="10.77 39.272 8.642 37.927 11.442 33.77 13.408 35.079"/>
          <path fill="#FFF" d="M48.7852524,15.8176491 C49.8803833,14.4701153 49.5956333,13.6141399 49.5956333,13.6141399 C48.6719905,12.3654037 47.7666929,14.0546798 47.7666929,14.0546798 C46.5383595,13.3153178 47.3040738,12.8682994 47.3718714,10.4817718 C47.3918119,9.77642209 47.3024786,9.05973497 47.0017762,8.41998037 C46.6093476,7.58667975 45.9872048,7.00037301 45.1816095,6.58655706 C44.6910738,6.33389448 44.186181,6.21890061 43.7283476,6.00915828 C43.2410024,8.44913374 43.0814786,11.1652564 43.6868714,13.5590724 C44.0011333,14.7956613 44.6966571,15.6208638 45.7527048,16.2484712 C46.5232048,16.7060172 47.7603119,17.3976 47.9134548,18.3855755 C47.9134548,18.3855755 48.055431,20.1015755 47.921431,21.5066061 C49.7695143,19.1848638 55.0529429,17.8624344 55.0529429,17.8624344 L55.224431,18.2535755 C55.2842524,17.4785816 55.3209429,16.5383853 55.2531452,15.7115632 C53.817431,16.6371828 52.360181,16.9351951 52.360181,16.9351951 C50.2855738,17.520692 48.7852524,15.8176491 48.7852524,15.8176491"/>
          <path stroke="#171717" d="M48.7852524,15.8176491 C49.8803833,14.4701153 49.5956333,13.6141399 49.5956333,13.6141399 C48.6719905,12.3654037 47.7666929,14.0546798 47.7666929,14.0546798 C46.5383595,13.3153178 47.3040738,12.8682994 47.3718714,10.4817718 C47.3918119,9.77642209 47.3024786,9.05973497 47.0017762,8.41998037 C46.6093476,7.58667975 45.9872048,7.00037301 45.1816095,6.58655706 C44.6910738,6.33389448 44.186181,6.21890061 43.7283476,6.00915828 C43.2410024,8.44913374 43.0814786,11.1652564 43.6868714,13.5590724 C44.0011333,14.7956613 44.6966571,15.6208638 45.7527048,16.2484712 C46.5232048,16.7060172 47.7603119,17.3976 47.9134548,18.3855755 C47.9134548,18.3855755 48.055431,20.1015755 47.921431,21.5066061 C49.7695143,19.1848638 55.0529429,17.8624344 55.0529429,17.8624344 L55.224431,18.2535755 C55.2842524,17.4785816 55.3209429,16.5383853 55.2531452,15.7115632 C53.817431,16.6371828 52.360181,16.9351951 52.360181,16.9351951 C50.2855738,17.520692 48.7852524,15.8176491 48.7852524,15.8176491 Z"/>
          <path fill="#0A0A0A" d="M56.6586298,4.06422331 C56.6586298,4.06422331 54.6486298,1.78621104 51.0433917,1.40397791 L51.0433917,1.3983092 C51.0059036,1.3983092 50.9739988,1.39506994 50.9365107,1.39506994 C50.6597369,1.36834601 50.3717964,1.35457914 50.0758798,1.35214969 C48.5739631,1.23148712 47.8066536,0.90270184 47.8066536,0.90270184 C43.9645226,0.0434871166 42.4977012,2.97906994 42.4977012,2.97906994 C41.9864274,3.73219877 42.3006893,4.55335215 42.7585226,5.21821104 C43.0329036,5.61826012 43.3663083,5.84257914 43.7284274,6.00859141 C44.1862607,6.21914356 44.6911536,6.33413742 45.1816893,6.58599018 C45.9872845,7.00061595 46.6094274,7.5869227 47.001856,8.42022331 C47.3025583,9.05997791 47.3918917,9.77666503 47.3711536,10.4820147 C47.303356,12.8685423 46.5384393,13.3155607 47.7667726,14.0549227 C47.7667726,14.0549227 48.6720702,12.3656466 49.5957131,13.6143828 C49.5957131,13.6143828 49.8804631,14.4703583 48.7853321,15.817892 C48.7853321,15.817892 50.2856536,17.5201252 52.3602607,16.935438 C52.3602607,16.935438 53.8167131,16.636616 55.253225,15.7118061 C56.1688917,15.1222601 57.0757845,14.2792417 57.5926417,13.094481 C57.5926417,13.094481 60.0931774,7.97968344 56.6586298,4.06422331"/>
        </g>
      </g>
    </g>
  </g>
</svg>
