<svg xmlns="http://www.w3.org/2000/svg" xmlns:xlink="http://www.w3.org/1999/xlink" width="584" height="443" viewBox="0 0 584 443">
  <defs>
    <rect id="service2-a" width="638" height="443" x="0" y="0"/>
  </defs>
  <g fill="none" fill-rule="evenodd" transform="translate(-248 -2826)">
    <g transform="translate(248 2826)">
      <mask id="service2-b" fill="#fff">
        <use xlink:href="#service2-a"/>
      </mask>
      <g mask="url(#service2-b)">
        <g transform="translate(-67 -71)">
          <path fill="#F8F8F8" d="M324.239662,192.642018 C258.782301,217.852002 206.231315,137.138701 108.709758,231.712703 C-3.92219368,340.941678 107.827142,528.450705 314.563664,521.829239 C446.582917,517.6032 578.564344,462.420114 620.072537,322.575052 C661.58073,182.72747 549.798612,92.7955543 460.813217,107.586689 C370.872075,122.534157 384.542543,169.416457 324.239662,192.642018" transform="scale(1 -1) rotate(27 1654.404 0)"/>
          <g transform="translate(173 71)">
            <polygon fill="#FFF" stroke="#121212" points="39.425 104.246 192.699 15.173 161.753 240.405 8.479 329.478"/>
            <g transform="translate(0 .186)">
              <path fill="#6E80FF" d="M41.865,101.3462 L195.139,12.2732 C194.146,12.8502 193.319,13.7572 192.699,14.9872 L39.425,104.0602 C40.045,102.8302 40.872,101.9232 41.865,101.3462"/>
              <path fill="#FFF" d="M50.1668,92.2388 C58.3408,96.9578 65.4738,106.4188 68.7748,116.9268 L168.2308,433.2538 L160.2508,432.7318 L60.8018,116.4018 C58.8778,110.2958 54.8958,105.0088 50.1388,102.2618 C45.3818,99.5158 41.3768,100.1908 39.4248,104.0598 L8.4788,329.2928 L0.5268,320.6168 L31.4738,95.3908 C34.8238,88.7228 41.9868,87.5158 50.1668,92.2388"/>
              <path stroke="#171717" d="M50.1668,92.2388 C58.3408,96.9578 65.4738,106.4188 68.7748,116.9268 L168.2308,433.2538 L160.2508,432.7318 L60.8018,116.4018 C58.8778,110.2958 54.8958,105.0088 50.1388,102.2618 C45.3818,99.5158 41.3768,100.1908 39.4248,104.0598 L8.4788,329.2928 L0.5268,320.6168 L31.4738,95.3908 C34.8238,88.7228 41.9868,87.5158 50.1668,92.2388 Z"/>
              <g transform="translate(35)">
                <path fill="#FFF" d="M168.4412,3.1656 C162.8372,-0.0694 157.7112,-0.5224 153.9612,1.6566 L0.6862,90.7296 C4.4362,88.5516 9.5632,89.0036 15.1672,92.2386 L15.1702,92.2366 C23.3392,96.9546 30.4682,106.4196 33.7782,116.9246 L133.2292,433.2536 L149.9272,423.5526 L286.5012,344.1846 L187.0492,27.8546 C186.7372,26.8716 186.3972,25.8976 186.0182,24.9426 L186.0182,24.9336 C182.3972,15.6196 175.8442,7.4406 168.4412,3.1666"/>
                <path stroke="#171717" d="M168.4412,3.1656 C162.8372,-0.0694 157.7112,-0.5224 153.9612,1.6566 L0.6862,90.7296 C4.4362,88.5516 9.5632,89.0036 15.1672,92.2386 L15.1702,92.2366 C23.3392,96.9546 30.4682,106.4196 33.7782,116.9246 L133.2292,433.2536 L149.9272,423.5526 L286.5012,344.1846 L187.0492,27.8546 C186.7372,26.8716 186.3972,25.8976 186.0182,24.9426 L186.0182,24.9336 C182.3972,15.6196 175.8442,7.4406 168.4412,3.1666"/>
              </g>
            </g>
            <polygon fill="#FFF" points="271.892 273.316 173.093 331.964 136.744 216.353 235.872 158.749"/>
            <polygon fill="#0048FC" points="187.786 208.422 189.604 213.678 184.914 216.331 183.097 211.075"/>
            <polygon stroke="#121212" points="187.786 208.422 189.604 213.678 184.914 216.331 183.097 211.075"/>
            <polygon fill="#0048FC" points="183.096 211.075 184.913 216.331 180.23 218.981 178.411 213.724"/>
            <polygon stroke="#121212" points="183.096 211.075 184.913 216.331 180.23 218.981 178.411 213.724"/>
            <polygon fill="#0048FC" points="184.914 216.331 186.731 221.587 182.048 224.237 180.229 218.981"/>
            <polygon stroke="#121212" points="184.914 216.331 186.731 221.587 182.048 224.237 180.229 218.981"/>
            <polygon fill="#0048FC" points="177.208 210.241 178.412 213.724 173.723 216.378 172.518 212.894"/>
            <polygon stroke="#121212" points="177.208 210.241 178.412 213.724 173.723 216.378 172.518 212.894"/>
            <path fill="#0048FC" d="M174.0877,234.6357 L169.4707,221.2827 L157.5577,228.0247 L162.1737,241.3757 L174.0877,234.6357 L174.0877,234.6357 Z M150.6607,225.2597 L172.5177,212.8947 L180.9897,237.3967 L159.1337,249.7607 L150.6607,225.2597 Z"/>
            <path stroke="#121212" d="M174.0877,234.6357 L169.4707,221.2827 L157.5577,228.0247 L162.1737,241.3757 L174.0877,234.6357 L174.0877,234.6357 Z M150.6607,225.2597 L172.5177,212.8947 L180.9897,237.3967 L159.1337,249.7607 L150.6607,225.2597 Z"/>
            <polygon fill="#0048FC" points="184.618 247.888 184.623 247.902 185.568 250.637 183.115 252.026 182.165 249.276"/>
            <polygon stroke="#121212" points="184.618 247.888 184.623 247.902 185.568 250.637 183.115 252.026 182.165 249.276"/>
            <polygon fill="#0048FC" points="190.364 232.093 193.997 242.599 184.623 247.902 180.99 237.397"/>
            <polygon stroke="#121212" points="190.364 232.093 193.997 242.599 184.623 247.902 180.99 237.397"/>
            <polygon fill="#0048FC" points="211.078 236.123 212.895 241.379 208.212 244.028 206.393 238.772"/>
            <polygon stroke="#121212" points="211.078 236.123 212.895 241.379 208.212 244.028 206.393 238.772"/>
            <polygon fill="#0048FC" points="203.432 237.451 207.065 247.956 197.684 253.263 194.051 242.758"/>
            <polygon stroke="#121212" points="203.432 237.451 207.065 247.956 197.684 253.263 194.051 242.758"/>
            <polygon fill="#0048FC" points="196.111 216.28 199.744 226.786 190.364 232.093 186.731 221.587"/>
            <polygon stroke="#121212" points="196.111 216.28 199.744 226.786 190.364 232.093 186.731 221.587"/>
            <polygon fill="#0048FC" points="229.287 180.777 233.032 191.608 223.368 197.076 219.623 186.245"/>
            <polygon stroke="#121212" points="229.287 180.777 233.032 191.608 223.368 197.076 219.623 186.245"/>
            <polygon fill="#0048FC" points="211.23 195.158 212.437 198.648 207.748 201.302 206.541 197.811"/>
            <polygon stroke="#121212" points="211.23 195.158 212.437 198.648 207.748 201.302 206.541 197.811"/>
            <polygon fill="#0048FC" points="215.927 192.501 217.133 195.991 212.438 198.648 211.231 195.158"/>
            <polygon stroke="#121212" points="215.927 192.501 217.133 195.991 212.438 198.648 211.231 195.158"/>
            <polygon fill="#0048FC" points="223.368 197.076 227.113 207.907 217.449 213.375 213.704 202.544"/>
            <polygon stroke="#121212" points="223.368 197.076 227.113 207.907 217.449 213.375 213.704 202.544"/>
            <path fill="#0048FC" d="M237.0838,211.9375 L235.2698,206.6875 L230.5848,209.3375 L232.3998,214.5865 L237.0838,211.9375 L237.0838,211.9375 Z M227.1298,207.9565 L236.7948,202.4885 L240.5398,213.3195 L230.8748,218.7875 L227.1298,207.9565 Z"/>
            <path stroke="#121212" d="M237.0838,211.9375 L235.2698,206.6875 L230.5848,209.3375 L232.3998,214.5865 L237.0838,211.9375 L237.0838,211.9375 Z M227.1298,207.9565 L236.7948,202.4885 L240.5398,213.3195 L230.8748,218.7875 L227.1298,207.9565 Z"/>
            <polygon fill="#0048FC" points="204.429 224.136 206.243 229.386 201.56 232.035 199.744 226.786"/>
            <polygon stroke="#121212" points="204.429 224.136 206.243 229.386 201.56 232.035 199.744 226.786"/>
            <polygon fill="#0048FC" points="213.555 218.973 215.369 224.222 210.933 226.733 210.686 226.872 208.87 221.622"/>
            <polygon stroke="#121212" points="213.555 218.973 215.369 224.222 210.933 226.733 210.686 226.872 208.87 221.622"/>
            <polygon fill="#0048FC" points="210.933 226.732 212.75 231.988 208.061 234.641 206.243 229.385 210.686 226.872"/>
            <polygon stroke="#121212" points="210.933 226.732 212.75 231.988 208.061 234.641 206.243 229.385 210.686 226.872"/>
            <polygon fill="#0048FC" points="190.964 266.347 192.782 271.604 188.092 274.257 186.275 269"/>
            <polygon stroke="#121212" points="190.964 266.347 192.782 271.604 188.092 274.257 186.275 269"/>
            <polygon fill="#0048FC" points="193.87 258.427 195.685 263.676 190.995 266.329 189.18 261.08"/>
            <polygon stroke="#121212" points="193.87 258.427 195.685 263.676 190.995 266.329 189.18 261.08"/>
            <polygon fill="#0048FC" points="207.301 216.227 209.118 221.483 204.429 224.136 202.611 218.88"/>
            <polygon stroke="#121212" points="207.301 216.227 209.118 221.483 204.429 224.136 202.611 218.88"/>
            <polygon fill="#0048FC" points="205.336 194.328 206.541 197.811 201.851 200.465 200.647 196.981"/>
            <polygon stroke="#121212" points="205.336 194.328 206.541 197.811 201.851 200.465 200.647 196.981"/>
            <polygon fill="#0048FC" points="214.722 189.018 215.926 192.501 211.23 195.159 210.026 191.675"/>
            <polygon stroke="#121212" points="214.722 189.018 215.926 192.501 211.23 195.159 210.026 191.675"/>
            <polygon fill="#0048FC" points="228.769 280.148 230.586 285.405 225.903 288.054 224.084 282.798"/>
            <polygon stroke="#121212" points="228.769 280.148 230.586 285.405 225.903 288.054 224.084 282.798"/>
            <path fill="#0048FC" d="M252.8572,266.1406 L248.2402,252.7876 L236.3272,259.5286 L240.9432,272.8796 L252.8572,266.1406 L252.8572,266.1406 Z M229.4302,256.7646 L251.2872,244.3996 L259.7592,268.9006 L237.9032,281.2656 L229.4302,256.7646 Z"/>
            <path stroke="#121212" d="M252.8572,266.1406 L248.2402,252.7876 L236.3272,259.5286 L240.9432,272.8796 L252.8572,266.1406 L252.8572,266.1406 Z M229.4302,256.7646 L251.2872,244.3996 L259.7592,268.9006 L237.9032,281.2656 L229.4302,256.7646 Z"/>
            <polygon fill="#0048FC" points="225.908 246.577 229.541 257.083 227.298 258.352 224.919 259.698 220.161 262.39 216.528 251.885"/>
            <polygon stroke="#121212" points="225.908 246.577 229.541 257.083 227.298 258.352 224.919 259.698 220.161 262.39 216.528 251.885"/>
            <polygon fill="#0048FC" points="201.85 200.465 205.485 210.978 196.111 216.28 192.476 205.768"/>
            <polygon stroke="#121212" points="201.85 200.465 205.485 210.978 196.111 216.28 192.476 205.768"/>
            <path fill="#0048FC" d="M205.7195,261.1377 L203.9045,255.8877 L199.2135,258.5407 L201.0295,263.7907 L205.7195,261.1377 L205.7195,261.1377 Z M195.9645,257.2417 L205.3385,251.9387 L208.9715,262.4447 L199.5975,267.7467 L195.9645,257.2417 Z"/>
            <path stroke="#121212" d="M205.7195,261.1377 L203.9045,255.8877 L199.2135,258.5407 L201.0295,263.7907 L205.7195,261.1377 L205.7195,261.1377 Z M195.9645,257.2417 L205.3385,251.9387 L208.9715,262.4447 L199.5975,267.7467 L195.9645,257.2417 Z"/>
            <polygon fill="#0048FC" points="228.777 238.679 230.591 243.928 225.908 246.577 224.092 241.328"/>
            <polygon stroke="#121212" points="228.777 238.679 230.591 243.928 225.908 246.577 224.092 241.328"/>
            <polygon fill="#0048FC" points="181.041 262.969 183.948 271.376 176.44 275.624 173.533 267.217"/>
            <polygon stroke="#121212" points="181.041 262.969 183.948 271.376 176.44 275.624 173.533 267.217"/>
            <polygon fill="#0048FC" points="220.161 262.39 221.978 267.647 217.295 270.296 215.476 265.04"/>
            <polygon stroke="#121212" points="220.161 262.39 221.978 267.647 217.295 270.296 215.476 265.04"/>
            <polygon fill="#0048FC" points="225.814 262.288 226.736 264.954 224.357 266.3 223.435 263.634"/>
            <polygon stroke="#121212" points="225.814 262.288 226.736 264.954 224.357 266.3 223.435 263.634"/>
            <polygon fill="#0048FC" points="227.298 258.353 228.22 261.019 225.841 262.365 224.919 259.699"/>
            <polygon stroke="#121212" points="227.298 258.353 228.22 261.019 225.841 262.365 224.919 259.699"/>
            <polygon fill="#0048FC" points="229.115 263.608 230.037 266.274 227.658 267.62 226.736 264.954"/>
            <polygon stroke="#121212" points="229.115 263.608 230.037 266.274 227.658 267.62 226.736 264.954"/>
            <polygon fill="#0048FC" points="224.357 266.3 225.279 268.967 222.9 270.313 221.978 267.647"/>
            <polygon stroke="#121212" points="224.357 266.3 225.279 268.967 222.9 270.313 221.978 267.647"/>
            <polygon fill="#0048FC" points="227.658 267.62 228.578 270.279 226.199 271.626 225.279 268.967"/>
            <polygon stroke="#121212" points="227.658 267.62 228.578 270.279 226.199 271.626 225.279 268.967"/>
            <polygon fill="#0048FC" points="226.199 271.626 227.121 274.292 224.742 275.638 223.82 272.972"/>
            <polygon stroke="#121212" points="226.199 271.626 227.121 274.292 224.742 275.638 223.82 272.972"/>
            <polygon fill="#0048FC" points="170.577 249.439 172.426 254.786 172.452 254.862 167.62 257.596 167.608 257.56 165.745 252.173"/>
            <polygon stroke="#121212" points="170.577 249.439 172.426 254.786 172.452 254.862 167.62 257.596 167.608 257.56 165.745 252.173"/>
            <polygon fill="#0048FC" points="177.264 252.048 179.139 257.471 174.3 260.208 172.452 254.861 172.425 254.785"/>
            <polygon stroke="#121212" points="177.264 252.048 179.139 257.471 174.3 260.208 172.452 254.861 172.425 254.785"/>
            <polygon fill="#0048FC" points="167.608 257.56 167.62 257.596 169.483 262.983 164.651 265.716 162.776 260.293"/>
            <polygon stroke="#121212" points="167.608 257.56 167.62 257.596 169.483 262.983 164.651 265.716 162.776 260.293"/>
            <polygon fill="#0048FC" points="186.493 253.31 187.444 256.06 184.99 257.447 184.04 254.698"/>
            <polygon stroke="#121212" points="186.493 253.31 187.444 256.06 184.99 257.447 184.04 254.698"/>
            <polygon fill="#0048FC" points="181.593 256.082 182.543 258.832 180.09 260.22 179.139 257.471"/>
            <polygon stroke="#121212" points="181.593 256.082 182.543 258.832 180.09 260.22 179.139 257.471"/>
            <polygon fill="#0048FC" points="184.99 257.447 185.941 260.196 183.494 261.581 182.544 258.832"/>
            <polygon stroke="#121212" points="184.99 257.447 185.941 260.196 183.494 261.581 182.544 258.832"/>
            <polygon fill="#0048FC" points="183.494 261.581 184.442 264.323 181.989 265.711 181.041 262.969"/>
            <polygon stroke="#121212" points="183.494 261.581 184.442 264.323 181.989 265.711 181.041 262.969"/>
            <polygon fill="#0048FC" points="213.662 259.791 215.476 265.04 210.787 267.693 208.972 262.444"/>
            <polygon stroke="#121212" points="213.662 259.791 215.476 265.04 210.787 267.693 208.972 262.444"/>
            <polygon fill="#0048FC" points="220.656 272.882 224.085 282.799 215.236 287.805 211.807 277.888"/>
            <polygon stroke="#121212" points="220.656 272.882 224.085 282.799 215.236 287.805 211.807 277.888"/>
            <polygon fill="#0048FC" points="210.787 267.693 212.604 272.949 207.92 275.599 206.102 270.342"/>
            <polygon stroke="#121212" points="210.787 267.693 212.604 272.949 207.92 275.599 206.102 270.342"/>
            <polygon fill="#0048FC" points="215.236 287.805 217.053 293.062 212.364 295.715 210.547 290.458"/>
            <polygon stroke="#121212" points="215.236 287.805 217.053 293.062 212.364 295.715 210.547 290.458"/>
            <polygon fill="#0048FC" points="208.731 285.209 210.546 290.458 205.862 293.108 204.047 287.859"/>
            <polygon stroke="#121212" points="208.731 285.209 210.546 290.458 205.862 293.108 204.047 287.859"/>
            <path fill="#0048FC" d="M196.0877,298.2568 L191.4707,284.9048 L179.5577,291.6458 L184.1737,304.9968 L196.0877,298.2568 L196.0877,298.2568 Z M172.6607,288.8818 L194.5177,276.5168 L201.1717,295.7618 L202.9897,301.0178 L181.1337,313.3828 L172.6607,288.8818 Z"/>
            <path stroke="#121212" d="M196.0877,298.2568 L191.4707,284.9048 L179.5577,291.6458 L184.1737,304.9968 L196.0877,298.2568 L196.0877,298.2568 Z M172.6607,288.8818 L194.5177,276.5168 L201.1717,295.7618 L202.9897,301.0178 L181.1337,313.3828 L172.6607,288.8818 Z"/>
            <polygon fill="#0048FC" points="205.862 293.108 207.679 298.364 202.99 301.017 201.173 295.761"/>
            <polygon stroke="#121212" points="205.862 293.108 207.679 298.364 202.99 301.017 201.173 295.761"/>
            <polygon fill="#0048FC" points="231.649 230.769 233.466 236.026 228.777 238.679 226.96 233.422"/>
            <polygon stroke="#121212" points="231.649 230.769 233.466 236.026 228.777 238.679 226.96 233.422"/>
            <polygon fill="#0048FC" points="230.875 218.787 232.693 224.043 228.003 226.696 226.186 221.44"/>
            <polygon stroke="#121212" points="230.875 218.787 232.693 224.043 228.003 226.696 226.186 221.44"/>
            <polygon fill="#0048FC" points="237.383 221.39 239.198 226.639 234.508 229.292 232.694 224.043"/>
            <polygon stroke="#121212" points="237.383 221.39 239.198 226.639 234.508 229.292 232.694 224.043"/>
            <polygon fill="#0048FC" points="243.882 223.989 245.7 229.245 241.016 231.895 239.198 226.638"/>
            <polygon stroke="#121212" points="243.882 223.989 245.7 229.245 241.016 231.895 239.198 226.638"/>
            <polygon fill="#0048FC" points="241.015 231.895 242.83 237.144 238.14 239.798 236.326 234.548"/>
            <polygon stroke="#121212" points="241.015 231.895 242.83 237.144 238.14 239.798 236.326 234.548"/>
            <polygon fill="#0048FC" points="222.275 236.072 224.092 241.328 219.403 243.981 217.586 238.725"/>
            <polygon stroke="#121212" points="222.275 236.072 224.092 241.328 219.403 243.981 217.586 238.725"/>
            <polygon fill="#0048FC" points="217.586 238.726 219.403 243.982 214.713 246.635 212.896 241.379"/>
            <polygon stroke="#121212" points="217.586 238.726 219.403 243.982 214.713 246.635 212.896 241.379"/>
            <polygon fill="#0048FC" points="189.188 291.189 190.917 296.189 186.456 298.713 184.727 293.713"/>
            <polygon stroke="#121212" points="189.188 291.189 190.917 296.189 186.456 298.713 184.727 293.713"/>
            <polygon fill="#0048FC" points="197.274 269.062 199.003 274.062 194.542 276.586 192.812 271.586"/>
            <polygon stroke="#121212" points="197.274 269.062 199.003 274.062 194.542 276.586 192.812 271.586"/>
            <g transform="translate(132 91.186)">
              <path fill="#121212" d="M2.8386 73.9126C4.0086 73.2736 4.9916 73.0966 5.7836 73.3836 6.5826 73.6656 7.1836 74.3216 7.5896 75.3576L6.7926 75.7936C6.6126 75.4086 6.4136 75.0926 6.2096 74.8346 5.9976 74.5816 5.7486 74.3956 5.4656 74.2846 5.1816 74.1946 4.8496 74.1676 4.4656 74.2356 4.0806 74.3046 3.6186 74.4716 3.0796 74.7366 3.0286 74.7626 2.9796 74.7886 2.9306 74.8146 2.2426 75.1896 1.7376 75.7136 1.4156 76.3846 1.0616 77.0986 1.0106 77.8356 1.2646 78.5956 1.3766 78.9316 1.5236 79.1916 1.6866 79.3776 1.8576 79.5586 2.0946 79.6836 2.3786 79.7466 2.6636 79.7896 3.0256 79.7806 3.4686 79.7096 3.9036 79.6416 4.4476 79.5156 5.1016 79.3386 5.4866 79.2506 5.8136 79.1846 6.0916 79.1286 6.3616 79.0746 6.6046 79.0376 6.8156 79.0076 7.0346 78.9816 7.2346 78.9686 7.4136 78.9736 7.5946 78.9786 7.7836 78.9886 7.9986 78.9946 8.4726 79.0676 8.8666 79.2586 9.1696 79.5566 9.4806 79.8506 9.7186 80.2596 9.8926 80.7796 10.2646 81.8916 10.2256 82.9436 9.7856 83.9136 9.3386 84.8866 8.5176 85.7036 7.3186 86.3576 6.0206 87.0666 4.9076 87.2676 3.9966 86.9526 3.0806 86.6476 2.4186 85.8846 2.0126 84.6686L2.8656 84.2016C3.1766 85.2336 3.7006 85.8366 4.4426 86.0276 5.1756 86.2146 6.0476 86.0306 7.0446 85.4856 7.9426 84.9966 8.5846 84.3806 8.9676 83.6226 9.3456 82.8766 9.4016 82.0796 9.1266 81.2556 8.9666 80.7746 8.6836 80.4366 8.2756 80.2336 7.8766 80.0266 7.3786 79.9586 6.7936 80.0126 6.6656 80.0346 6.5596 80.0466 6.4656 80.0686 6.3756 80.0806 6.2786 80.0956 6.1746 80.1136 6.0706 80.1336 5.9526 80.1596 5.8106 80.1896 5.6646 80.2136 5.4846 80.2556 5.2616 80.3006 4.7016 80.4546 4.2386 80.5656 3.8886 80.6346 3.5406 80.7116 3.2496 80.7566 3.0176 80.7696 2.7896 80.7996 2.5956 80.8016 2.4506 80.7756 2.3026 80.7636 2.1526 80.7216 1.9926 80.6766 1.6826 80.6096 1.4076 80.4476 1.1786 80.1936.9406 79.9356.7516 79.5756.5996 79.1196.2376 78.0396.2476 77.0506.6336 76.1486 1.0196 75.2476 1.7556 74.5046 2.8386 73.9126M24.9832 70.7671L29.4032 68.3531 26.9652 65.1711 24.8282 62.4791 24.8652 66.2241 24.9832 70.7671 24.9832 70.7671zM25.2312 61.6811L33.2062 71.8111 32.3742 72.2661 29.8842 69.0071 25.0202 71.6641 25.1332 76.2201 24.3512 76.6471 24.1832 62.2531 25.2312 61.6811z"/>
              <polygon fill="#121212" points="18.786 65.6 22.766 77.513 22.057 77.902 18.316 66.707 18.275 79.967 17.564 80.355 9.95 71.278 13.69 82.471 12.973 82.863 8.992 70.95 10.162 70.31 17.695 79.527 17.688 66.2"/>
              <polygon fill="#121212" points="47.678 49.818 47.965 50.673 44.464 52.587 48.157 63.644 47.383 64.067 43.688 53.009 40.188 54.922 39.901 54.066"/>
              <path fill="#121212" d="M36.405,62.7495 C37.438,62.1855 38.134,61.5775 38.484,60.9235 C38.837,60.2765 38.865,59.5225 38.579,58.6675 C38.28,57.7985 37.874,57.2925 37.361,57.1285 C36.847,56.9635 36.097,57.1555 35.107,57.6965 L31.864,59.4685 L33.492,64.3415 L36.405,62.7495 M41.92,66.0485 C42.035,66.2695 42.196,66.5215 42.382,66.7985 L41.564,67.2455 C41.479,67.0935 41.397,66.9485 41.327,66.8165 C41.258,66.6845 41.19,66.5315 41.114,66.3555 C41.041,66.1875 40.96,65.9955 40.865,65.7635 C40.773,65.5395 40.657,65.2425 40.527,64.8785 C40.278,64.2105 39.997,63.7215 39.686,63.4275 C39.369,63.1375 39.043,62.9745 38.703,62.9235 C38.371,62.8675 38.041,62.8965 37.7,63.0175 C37.368,63.1425 37.063,63.2705 36.773,63.4195 L33.738,65.0765 L35.558,70.5255 L34.791,70.9445 L30.81,59.0315 L35.288,56.5855 C36.242,56.0645 37.067,55.9445 37.768,56.2145 C38.472,56.4925 38.984,57.1115 39.305,58.0715 C39.541,58.7755 39.612,59.4745 39.524,60.1755 C39.436,60.8765 39.069,61.5305 38.438,62.1315 C38.823,62.0625 39.243,62.1265 39.702,62.3305 C40.15,62.5305 40.516,62.9165 40.811,63.4935 C40.995,63.9415 41.142,64.3065 41.256,64.5945 C41.369,64.8835 41.473,65.1465 41.583,65.3715 C41.687,65.6075 41.796,65.8315 41.92,66.0485"/>
              <polygon fill="#121212" points="80.346 31.974 78.874 41.056 80.516 45.969 79.749 46.388 78.108 41.475 71.921 36.575 72.898 36.042 76.754 39.281 78.278 40.436 78.638 38.29 79.492 32.44"/>
              <path fill="#121212" d="M67.1922 47.7115L71.6202 45.2935 69.1742 42.1155 67.0442 39.4195 67.0742 43.1685 67.1922 47.7115 67.1922 47.7115zM67.4402 38.6255L75.4212 48.7515 74.5832 49.2095 72.1012 45.9475 67.2362 48.6055 67.3422 53.1645 66.5612 53.5915 66.4002 39.1935 67.4402 38.6255zM62.0193 48.3521C62.3263 47.6451 62.3313 46.8471 62.0293 45.9431 61.8893 45.5271 61.6653 45.1861 61.3683 44.9041 61.0703 44.6231 60.7463 44.4401 60.3833 44.3441 60.1133 44.3221 59.8223 44.3671 59.5313 44.4591 59.2403 44.5521 58.8413 44.7321 58.3463 45.0021L55.5833 46.5111 57.3253 51.7201 60.2803 50.1061C61.1343 49.6391 61.7123 49.0591 62.0193 48.3521M61.9223 44.0521C62.2893 44.4111 62.5813 44.9041 62.8013 45.5391 63.0183 46.1881 63.1073 46.7831 63.0733 47.3411 63.0313 47.9031 62.8973 48.4401 62.6603 48.9481 62.4523 49.3171 62.2183 49.6331 61.9583 49.8981 61.6923 50.1671 61.2713 50.4541 60.6973 50.7681L57.5763 52.4721 59.2793 57.5691 58.5253 57.9811 54.5443 46.0671 58.3543 43.9861C58.9283 43.6721 59.3963 43.4731 59.7543 43.4011 60.1123 43.3291 60.4663 43.3241 60.8143 43.3991 61.1913 43.4871 61.5593 43.7021 61.9223 44.0521M14.8923 29.8638C15.3553 31.3948 15.9963 32.7828 16.7643 34.0358L24.9013 29.8888C24.3463 28.5278 23.8283 27.0778 23.3653 25.5468 22.7413 23.4818 22.2603 21.4498 21.9203 19.4868L14.0383 23.5028C14.0053 25.6468 14.2653 27.7918 14.8923 29.8638M39.3383 22.5328L47.4753 18.3868C47.3733 16.7948 47.1233 15.2078 46.6613 13.6768 46.0343 11.6048 45.1003 9.8028 43.9453 8.2638L36.0703 12.2768C36.8423 14.0198 37.5633 15.9298 38.1883 17.9938 38.6513 19.5248 39.0323 21.0458 39.3383 22.5328M22.1503 6.3228C17.6903 9.9588 14.7893 15.6028 14.1653 21.4858L21.6423 17.6758C21.0513 13.1518 21.2353 9.1448 22.1503 6.3228M42.8013 6.8958C39.2603 3.1348 34.1753 1.5578 28.9953 2.8358 31.1513 4.0928 33.3863 6.8668 35.3183 10.7088L42.8013 6.8958M25.4463 4.1608C23.0343 5.3888 22.4963 10.8498 23.2373 16.8638L33.7303 11.5168C31.1213 6.4558 27.8583 2.9308 25.4463 4.1608M36.6623 18.7708C36.0703 16.8138 35.3273 14.8808 34.4963 13.0798L23.4953 18.6848C23.8303 20.7378 24.2983 22.8118 24.8903 24.7688 25.3353 26.2398 25.8633 27.6938 26.4543 29.0978L37.7863 23.3248C37.4763 21.7768 37.1073 20.2418 36.6623 18.7708M36.0983 39.3768C38.7163 38.0428 39.1353 31.7178 38.0983 25.1168L27.1643 30.6878C29.8653 36.4418 33.4803 40.7108 36.0983 39.3768M39.3933 37.2138C44.2923 33.2218 47.3093 26.8058 47.4983 20.3268L39.6713 24.3148C40.5303 29.4608 40.4173 34.0718 39.3933 37.2138M17.7573 35.4808C21.2993 40.0588 26.8723 42.0978 32.5493 40.7008 30.1583 39.2998 27.6593 36.0188 25.5913 31.4898L17.7573 35.4808M24.9343 2.4688C34.5403-2.4252 44.9653 2.2508 48.1863 12.8998 51.4053 23.5418 46.2163 36.1728 36.6093 41.0668 27.0093 45.9588 16.5853 41.2828 13.3673 30.6408 10.1453 19.9918 15.3333 7.3608 24.9343 2.4688"/>
              <path stroke="#171717" d="M284.1375,258.2144 C284.1375,258.2144 282.7715,258.6814 282.6095,265.1774 C282.4535,271.4594 283.2855,277.5724 283.2855,277.5724 L292.0215,272.2244 C292.0215,272.2244 289.4025,257.1954 284.1375,258.2144 Z"/>
              <path fill="#FDA09E" d="M227.1082 188.6548C227.1082 188.6548 226.7642 189.1068 226.9622 189.6108 227.1602 190.1138 227.9502 190.6718 227.9502 190.6718L227.1082 188.6548zM236.8181 229.6958C236.8181 229.6958 239.8901 227.2668 239.7421 223.6718 239.7421 223.6718 239.8271 218.4128 238.2831 218.3508 236.7381 218.2898 233.9781 221.7498 233.9781 221.7498L236.8181 229.6958z"/>
              <polygon fill="#FFF" points="279.989 234.905 284.572 255.442 282.234 256.023 273.65 235.735"/>
              <polygon stroke="#171717" points="279.989 234.905 284.572 255.442 282.234 256.023 273.65 235.735"/>
              <path fill="#FFF" d="M283.3748,246.5493 C283.3748,246.5493 275.0688,206.0353 273.0168,201.8263 C270.3358,196.3293 263.5928,194.4423 263.5928,194.4423 C252.5978,198.3833 246.7808,193.6753 246.7808,193.6753 C234.7458,195.2043 232.3258,222.6923 232.3258,222.6923 C234.1188,225.0853 235.6518,228.4733 238.2148,229.1243 C242.7818,219.7013 239.0958,209.9983 239.9408,206.7413 C240.9308,202.9363 242.0048,204.4843 242.0048,204.4843 C242.0048,204.4843 239.9408,209.8373 241.6328,214.2103 C243.3238,218.5823 241.6328,229.8573 241.6328,229.8573 C248.1198,232.6733 262.6338,230.5593 262.6338,230.5593 C263.0568,226.4743 266.1598,214.7773 266.1598,214.7773 L278.0808,249.1403 C284.9898,249.5633 283.3748,246.5493 283.3748,246.5493"/>
              <path stroke="#171717" d="M283.3748,246.5493 C283.3748,246.5493 275.0688,206.0353 273.0168,201.8263 C270.3358,196.3293 263.5928,194.4423 263.5928,194.4423 C252.5978,198.3833 246.7808,193.6753 246.7808,193.6753 C234.7458,195.2043 232.3258,222.6923 232.3258,222.6923 C234.1188,225.0853 235.6518,228.4733 238.2148,229.1243 C242.7818,219.7013 239.0958,209.9983 239.9408,206.7413 C240.9308,202.9363 242.0048,204.4843 242.0048,204.4843 C242.0048,204.4843 239.9408,209.8373 241.6328,214.2103 C243.3238,218.5823 241.6328,229.8573 241.6328,229.8573 C248.1198,232.6733 262.6338,230.5593 262.6338,230.5593 C263.0568,226.4743 266.1598,214.7773 266.1598,214.7773 L278.0808,249.1403 C284.9898,249.5633 283.3748,246.5493 283.3748,246.5493 Z"/>
              <path fill="#FFF" d="M237.572,221.688 L232.326,200.912 L228.905,202.243 C228.905,202.243 229.444,225.41 234.468,229.105 C239.493,232.799 237.572,221.688 237.572,221.688"/>
              <path stroke="#171717" d="M237.572,221.688 L232.326,200.912 L228.905,202.243 C228.905,202.243 229.444,225.41 234.468,229.105 C239.493,232.799 237.572,221.688 237.572,221.688 Z"/>
              <polygon fill="#FFF" points="226.379 183.642 232.079 185.554 234.027 197.003 228.051 195.12"/>
              <polygon stroke="#171717" points="226.379 183.642 232.079 185.554 234.027 197.003 228.051 195.12"/>
              <path fill="#FFF" d="M281.4724,259.7271 C281.4244,259.9101 281.3734,260.1121 281.4604,260.2801 C281.6204,260.5881 282.1204,260.5091 282.3354,260.2371 C282.5514,259.9631 282.5834,259.5951 282.6794,259.2611 C282.7754,258.9271 282.9984,258.5721 283.3454,258.5451 C283.6784,258.5201 283.9954,258.7781 284.1384,259.0801 C284.3634,259.5521 283.0394,261.1231 283.5384,262.6581 C283.6754,263.0791 283.9594,263.5981 284.3934,263.5081 C284.6634,263.4531 284.8214,263.1721 284.9044,262.9101 C285.3244,261.5861 286.3924,259.8271 286.0544,258.5621 C285.6964,257.2201 284.9474,256.7791 284.5724,255.4421 C284.4484,254.9981 284.3584,255.2711 284.1344,254.8691 C283.8244,254.3111 283.2444,253.9581 282.6564,253.7541 C281.7044,253.4241 281.5744,253.6241 281.7004,254.5411 C281.9394,256.2911 281.9274,258.0081 281.4724,259.7271"/>
              <path stroke="#171717" d="M281.4724,259.7271 C281.4244,259.9101 281.3734,260.1121 281.4604,260.2801 C281.6204,260.5881 282.1204,260.5091 282.3354,260.2371 C282.5514,259.9631 282.5834,259.5951 282.6794,259.2611 C282.7754,258.9271 282.9984,258.5721 283.3454,258.5451 C283.6784,258.5201 283.9954,258.7781 284.1384,259.0801 C284.3634,259.5521 283.0394,261.1231 283.5384,262.6581 C283.6754,263.0791 283.9594,263.5981 284.3934,263.5081 C284.6634,263.4531 284.8214,263.1721 284.9044,262.9101 C285.3244,261.5861 286.3924,259.8271 286.0544,258.5621 C285.6964,257.2201 284.9474,256.7791 284.5724,255.4421 C284.4484,254.9981 284.3584,255.2711 284.1344,254.8691 C283.8244,254.3111 283.2444,253.9581 282.6564,253.7541 C281.7044,253.4241 281.5744,253.6241 281.7004,254.5411 C281.9394,256.2911 281.9274,258.0081 281.4724,259.7271 Z"/>
              <path fill="#FFF" d="M233.4148,190.6626 C233.3888,190.4896 233.2278,190.3596 233.0608,190.3316 C232.9978,190.3196 232.9338,190.3296 232.8698,190.3396 C232.9738,190.1806 233.0778,190.0206 233.1708,189.8536 C233.2408,189.7276 233.3108,189.5876 233.2878,189.4436 C233.2618,189.2696 233.1018,189.1406 232.9348,189.1116 C232.7678,189.0826 232.5978,189.1366 232.4458,189.2136 C232.1658,189.3556 231.9318,189.5756 231.7048,189.7986 C231.2538,190.2386 230.8248,190.7036 230.4058,191.1766 L230.4038,191.1646 C229.9998,191.0406 230.0148,190.7796 230.3048,190.4296 L230.3098,190.4106 C230.9278,189.7396 231.4418,188.9676 231.8138,188.1216 C231.8718,187.9896 231.9278,187.8436 231.8928,187.7016 C231.8498,187.5316 231.6788,187.4186 231.5098,187.4046 C231.3408,187.3916 231.1758,187.4606 231.0318,187.5526 C230.7668,187.7206 230.5538,187.9616 230.3498,188.2036 C229.8868,188.7496 229.4458,189.3146 229.0288,189.8986 C228.9368,190.0266 228.4658,190.5076 228.0468,191.0016 L228.0428,191.0036 C227.5408,191.2986 227.1688,191.7746 227.0208,192.3386 C226.8258,193.0786 226.6418,194.1286 226.8718,194.9006 C227.2678,196.2256 228.5608,199.3176 228.5608,199.3176 L228.9048,202.2426 L232.3258,200.9116 L231.4188,197.0036 L230.9558,194.9956 C231.6858,194.4426 232.3308,193.7716 232.8478,193.0036 C232.9288,192.8836 233.0088,192.7496 232.9988,192.6026 C232.9868,192.4286 232.8388,192.2856 232.6748,192.2436 C232.6198,192.2286 232.5638,192.2346 232.5098,192.2366 C232.8018,191.8716 233.0678,191.4846 233.2978,191.0736 C233.3678,190.9476 233.4358,190.8076 233.4148,190.6626"/>
              <path stroke="#171717" d="M233.4148,190.6626 C233.3888,190.4896 233.2278,190.3596 233.0608,190.3316 C232.9978,190.3196 232.9338,190.3296 232.8698,190.3396 C232.9738,190.1806 233.0778,190.0206 233.1708,189.8536 C233.2408,189.7276 233.3108,189.5876 233.2878,189.4436 C233.2618,189.2696 233.1018,189.1406 232.9348,189.1116 C232.7678,189.0826 232.5978,189.1366 232.4458,189.2136 C232.1658,189.3556 231.9318,189.5756 231.7048,189.7986 C231.2538,190.2386 230.8248,190.7036 230.4058,191.1766 L230.4038,191.1646 C229.9998,191.0406 230.0148,190.7796 230.3048,190.4296 L230.3098,190.4106 C230.9278,189.7396 231.4418,188.9676 231.8138,188.1216 C231.8718,187.9896 231.9278,187.8436 231.8928,187.7016 C231.8498,187.5316 231.6788,187.4186 231.5098,187.4046 C231.3408,187.3916 231.1758,187.4606 231.0318,187.5526 C230.7668,187.7206 230.5538,187.9616 230.3498,188.2036 C229.8868,188.7496 229.4458,189.3146 229.0288,189.8986 C228.9368,190.0266 228.4658,190.5076 228.0468,191.0016 L228.0428,191.0036 C227.5408,191.2986 227.1688,191.7746 227.0208,192.3386 C226.8258,193.0786 226.6418,194.1286 226.8718,194.9006 C227.2678,196.2256 228.5608,199.3176 228.5608,199.3176 L228.9048,202.2426 L232.3258,200.9116 L231.4188,197.0036 L230.9558,194.9956 C231.6858,194.4426 232.3308,193.7716 232.8478,193.0036 C232.9288,192.8836 233.0088,192.7496 232.9988,192.6026 C232.9868,192.4286 232.8388,192.2856 232.6748,192.2436 C232.6198,192.2286 232.5638,192.2346 232.5098,192.2366 C232.8018,191.8716 233.0678,191.4846 233.2978,191.0736 C233.3678,190.9476 233.4358,190.8076 233.4148,190.6626 Z"/>
              <path fill="#FFF" d="M269.2302,310.9292 C268.4982,309.5032 267.6652,308.1292 266.7382,306.8212 C267.8832,306.1812 269.0292,305.5412 270.1742,304.9032 C270.3762,307.1462 271.6352,309.1312 272.7482,311.0892 C273.1662,311.8242 273.5792,312.6792 273.3112,313.4802 C273.0692,314.2042 272.3492,314.6392 271.6822,315.0122 C270.4702,315.6902 270.3192,314.9122 270.1732,313.9112 C270.0152,312.8262 269.7352,311.9122 269.2302,310.9292"/>
              <path stroke="#171717" d="M269.2302,310.9292 C268.4982,309.5032 267.6652,308.1292 266.7382,306.8212 C267.8832,306.1812 269.0292,305.5412 270.1742,304.9032 C270.3762,307.1462 271.6352,309.1312 272.7482,311.0892 C273.1662,311.8242 273.5792,312.6792 273.3112,313.4802 C273.0692,314.2042 272.3492,314.6392 271.6822,315.0122 C270.4702,315.6902 270.3192,314.9122 270.1732,313.9112 C270.0152,312.8262 269.7352,311.9122 269.2302,310.9292 Z"/>
              <path fill="#0048FC" d="M273.8806,312.0152 C273.5816,311.6472 273.2056,311.3412 272.7806,311.1282 C272.7806,311.3772 272.7806,311.6262 272.7796,311.8762 C272.7796,312.0482 272.7326,312.2412 272.7116,312.4252 C272.5296,312.9072 272.1396,313.2292 271.8286,313.6092 C271.3536,314.1892 270.4156,314.1072 270.0606,314.5202 C269.7096,314.9262 269.6626,316.3692 269.4206,316.9462 C269.0786,317.7612 268.6786,318.5672 268.5346,319.4392 C268.3916,320.3122 268.5516,321.2912 269.1896,321.9042 C269.3886,322.0942 269.6406,322.2462 269.9146,322.2552 C270.1546,322.2642 270.3846,322.1622 270.5966,322.0482 C272.1766,321.1952 273.2416,319.4602 273.2876,317.6652 C273.2976,317.2842 273.2656,316.8982 273.3246,316.5212 C273.4526,315.7082 273.9876,315.0252 274.2976,314.2632 C274.6076,313.5002 274.7806,312.6672 274.0836,312.2312 C274.0746,312.2252 273.8896,312.0212 273.8806,312.0152"/>
              <path stroke="#171717" d="M273.8806,312.0152 C273.5816,311.6472 273.2056,311.3412 272.7806,311.1282 C272.7806,311.3772 272.7806,311.6262 272.7796,311.8762 C272.7796,312.0482 272.7326,312.2412 272.7116,312.4252 C272.5296,312.9072 272.1396,313.2292 271.8286,313.6092 C271.3536,314.1892 270.4156,314.1072 270.0606,314.5202 C269.7096,314.9262 269.6626,316.3692 269.4206,316.9462 C269.0786,317.7612 268.6786,318.5672 268.5346,319.4392 C268.3916,320.3122 268.5516,321.2912 269.1896,321.9042 C269.3886,322.0942 269.6406,322.2462 269.9146,322.2552 C270.1546,322.2642 270.3846,322.1622 270.5966,322.0482 C272.1766,321.1952 273.2416,319.4602 273.2876,317.6652 C273.2976,317.2842 273.2656,316.8982 273.3246,316.5212 C273.4526,315.7082 273.9876,315.0252 274.2976,314.2632 C274.6076,313.5002 274.7806,312.6672 274.0836,312.2312 C274.0746,312.2252 273.8896,312.0212 273.8806,312.0152 Z"/>
              <path fill="#003889" d="M249.8406,234.8853 L241.4256,234.8853 C241.4256,234.8853 239.8296,259.1163 243.4206,268.0943 C247.0116,277.0723 262.3726,313.5793 262.3726,313.5793 C262.3726,313.5793 272.7466,306.9953 273.1466,302.4073 C273.5446,297.8193 255.1916,262.9073 255.1916,262.9073 L249.8406,234.8853 Z"/>
              <path stroke="#2F2F2F" d="M249.8406,234.8853 L241.4256,234.8853 C241.4256,234.8853 239.8296,259.1163 243.4206,268.0943 C247.0116,277.0723 262.3726,313.5793 262.3726,313.5793 C262.3726,313.5793 272.7466,306.9953 273.1466,302.4073 C273.5446,297.8193 255.1916,262.9073 255.1916,262.9073 L249.8406,234.8853 Z"/>
              <path fill="#FFF" d="M233.2654,322.5484 C233.8274,321.0464 234.2844,319.5064 234.6294,317.9414 C235.8734,318.3584 237.1174,318.7754 238.3604,319.1934 C236.8354,320.8514 236.2134,323.1174 235.5134,325.2584 C235.2504,326.0624 234.8954,326.9434 234.1224,327.2834 C233.4234,327.5914 232.6184,327.3514 231.8934,327.1094 C230.5774,326.6674 231.0504,326.0324 231.6934,325.2514 C232.3894,324.4044 232.8774,323.5824 233.2654,322.5484"/>
              <path stroke="#171717" d="M233.2654,322.5484 C233.8274,321.0464 234.2844,319.5064 234.6294,317.9414 C235.8734,318.3584 237.1174,318.7754 238.3604,319.1934 C236.8354,320.8514 236.2134,323.1174 235.5134,325.2584 C235.2504,326.0624 234.8954,326.9434 234.1224,327.2834 C233.4234,327.5914 232.6184,327.3514 231.8934,327.1094 C230.5774,326.6674 231.0504,326.0324 231.6934,325.2514 C232.3894,324.4044 232.8774,323.5824 233.2654,322.5484 Z"/>
              <path fill="#003889" d="M229.4783,299.4908 C228.1753,304.3378 227.2773,309.2818 226.3803,314.2198 C226.3163,314.5748 226.2543,314.9518 226.3923,315.2838 C226.5363,315.6308 226.8673,315.8568 227.1833,316.0578 C232.0063,319.1368 237.4423,321.2528 243.0783,322.2468 C246.6123,315.8198 247.3723,308.2998 248.8523,301.1158 C250.8523,291.4108 254.2863,282.0018 259.0053,273.2898 C261.2483,269.1508 263.8023,265.1138 265.1023,260.5908 C267.3083,252.9198 265.6903,244.7328 264.0623,236.9198 C259.3223,236.2418 254.5823,235.5628 249.8403,234.8858 C250.4603,234.8858 248.7793,248.0898 248.1823,249.7758 C246.3283,255.0138 244.6413,260.3138 242.5873,265.4848 C238.1063,276.7728 232.6403,287.7198 229.4783,299.4908"/>
              <path stroke="#2F2F2F" d="M229.4783,299.4908 C228.1753,304.3378 227.2773,309.2818 226.3803,314.2198 C226.3163,314.5748 226.2543,314.9518 226.3923,315.2838 C226.5363,315.6308 226.8673,315.8568 227.1833,316.0578 C232.0063,319.1368 237.4423,321.2528 243.0783,322.2468 C246.6123,315.8198 247.3723,308.2998 248.8523,301.1158 C250.8523,291.4108 254.2863,282.0018 259.0053,273.2898 C261.2483,269.1508 263.8023,265.1138 265.1023,260.5908 C267.3083,252.9198 265.6903,244.7328 264.0623,236.9198 C259.3223,236.2418 254.5823,235.5628 249.8403,234.8858 C250.4603,234.8858 248.7793,248.0898 248.1823,249.7758 C246.3283,255.0138 244.6413,260.3138 242.5873,265.4848 C238.1063,276.7728 232.6403,287.7198 229.4783,299.4908 Z"/>
              <path fill="#0048FC" d="M235.5896,326.7202 C235.6616,326.2502 235.6346,325.7662 235.5066,325.3092 C235.3216,325.4772 235.1376,325.6442 234.9526,325.8122 C234.8246,325.9272 234.6506,326.0212 234.4996,326.1302 C234.0216,326.3202 233.5206,326.2472 233.0296,326.2732 C232.2806,326.3122 231.7106,325.5622 231.1666,325.5762 C230.6306,325.5912 229.5306,326.5262 228.9426,326.7352 C228.1086,327.0312 227.2426,327.2762 226.5006,327.7572 C225.7586,328.2382 225.1406,329.0152 225.1166,329.8992 C225.1106,330.1732 225.1656,330.4632 225.3446,330.6722 C225.4996,330.8562 225.7296,330.9572 225.9556,331.0362 C227.6506,331.6322 229.6506,331.2542 231.0096,330.0812 C231.2996,329.8312 231.5626,329.5482 231.8816,329.3382 C232.5686,328.8872 233.4346,328.8232 234.2066,328.5392 C234.9796,328.2552 235.7126,327.8242 235.5676,327.0142 C235.5656,327.0042 235.5916,326.7302 235.5896,326.7202"/>
              <path stroke="#171717" d="M235.5896,326.7202 C235.6616,326.2502 235.6346,325.7662 235.5066,325.3092 C235.3216,325.4772 235.1376,325.6442 234.9526,325.8122 C234.8246,325.9272 234.6506,326.0212 234.4996,326.1302 C234.0216,326.3202 233.5206,326.2472 233.0296,326.2732 C232.2806,326.3122 231.7106,325.5622 231.1666,325.5762 C230.6306,325.5912 229.5306,326.5262 228.9426,326.7352 C228.1086,327.0312 227.2426,327.2762 226.5006,327.7572 C225.7586,328.2382 225.1406,329.0152 225.1166,329.8992 C225.1106,330.1732 225.1656,330.4632 225.3446,330.6722 C225.4996,330.8562 225.7296,330.9572 225.9556,331.0362 C227.6506,331.6322 229.6506,331.2542 231.0096,330.0812 C231.2996,329.8312 231.5626,329.5482 231.8816,329.3382 C232.5686,328.8872 233.4346,328.8232 234.2066,328.5392 C234.9796,328.2552 235.7126,327.8242 235.5676,327.0142 C235.5656,327.0042 235.5916,326.7302 235.5896,326.7202 Z"/>
              <path fill="#FFF" d="M241.6326,229.857 L241.4256,234.885 C241.4256,234.885 257.0226,239.288 264.0626,236.919 L262.6336,230.559 L241.6326,229.857 Z"/>
              <path stroke="#171717" d="M241.6326,229.857 L241.4256,234.885 C241.4256,234.885 257.0226,239.288 264.0626,236.919 L262.6336,230.559 L241.6326,229.857 Z"/>
              <path fill="#FFF" d="M263.5916,194.4419 C259.9636,198.0689 254.4216,199.2819 254.4216,199.2819 C251.5586,199.0879 246.7796,193.6769 246.7796,193.6769 C246.7796,193.6769 248.1276,193.3399 248.1486,193.3299 C248.4036,193.2789 249.1446,193.1369 250.6616,192.9029 L257.3866,192.9029 L263.5916,194.4419 Z"/>
              <path stroke="#171717" d="M263.5916,194.4419 C259.9636,198.0689 254.4216,199.2819 254.4216,199.2819 C251.5586,199.0879 246.7796,193.6769 246.7796,193.6769 C246.7796,193.6769 248.1276,193.3399 248.1486,193.3299 C248.4036,193.2789 249.1446,193.1369 250.6616,192.9029 L257.3866,192.9029 L263.5916,194.4419 Z"/>
              <path fill="#FFF" d="M258.7292,193.2359 C258.7292,193.2359 256.9682,191.2049 257.0002,189.2949 L256.7412,189.3789 L256.3962,187.4879 L257.1672,179.3859 L251.2862,174.0459 L247.4802,172.4269 L244.0982,173.1989 L242.0872,178.1649 C242.0872,178.1649 241.2222,187.7339 244.7172,189.6869 C247.1642,191.0539 249.8042,189.7479 249.8042,189.7479 L250.0902,190.8069 C250.4722,193.2119 250.8132,194.2179 250.8132,194.2179 C250.8132,194.2179 256.5642,197.7199 257.6912,194.5799 L258.7292,193.2359 Z"/>
              <path stroke="#171717" d="M258.7292,193.2359 C258.7292,193.2359 256.9682,191.2049 257.0002,189.2949 L256.7412,189.3789 L256.3962,187.4879 L257.1672,179.3859 L251.2862,174.0459 L247.4802,172.4269 L244.0982,173.1989 L242.0872,178.1649 C242.0872,178.1649 241.2222,187.7339 244.7172,189.6869 C247.1642,191.0539 249.8042,189.7479 249.8042,189.7479 L250.0902,190.8069 C250.4722,193.2119 250.8132,194.2179 250.8132,194.2179 C250.8132,194.2179 256.5642,197.7199 257.6912,194.5799 L258.7292,193.2359 Z"/>
              <path fill="#0A0A0A" d="M256.2732,190.482 C255.0422,188.836 253.9712,186.697 254.7192,184.787 C254.9722,184.166 255.3872,183.636 255.5832,183.003 C255.7902,182.382 255.7092,181.578 255.1452,181.232 C254.4782,180.818 253.5572,181.359 253.2812,182.095 C253.1552,182.428 253.1212,182.796 252.9362,183.107 C252.7522,183.418 252.3272,183.625 252.0272,183.418 C251.7062,180.76 250.6592,178.195 249.0372,176.067 C248.2652,175.043 247.0812,174.019 245.8272,174.33 C243.2042,174.962 244.3192,179.668 242.2372,180.151 C240.8562,180.461 240.7992,178.115 240.8452,177.194 C241.0752,172.443 247.0452,169.67 251.2452,170.095 C256.2732,170.59 260.5642,174.801 261.5992,179.737 C261.5992,179.737 261.6012,179.857 261.6572,180.047 C264.1752,188.655 262.4972,188.169 256.2732,190.482"/>
              <path fill="#FFF" d="M233.6394,206.1138 C233.6394,206.1138 231.4504,207.7818 227.9504,207.5268 C227.9504,207.5268 229.2894,230.7908 235.2334,230.706032 C241.1764,230.6208 238.8164,224.0228 238.8164,224.0228 L233.6394,206.1138 Z"/>
              <path stroke="#171717" d="M233.6394,206.1138 C233.6394,206.1138 231.4504,207.7818 227.9504,207.5268 C227.9504,207.5268 229.2894,230.7908 235.2334,230.706032 C241.1764,230.6208 238.8164,224.0228 238.8164,224.0228 L233.6394,206.1138 Z"/>
              <path fill="#251E3F" d="M242.5095,179.272 C242.8785,179.55 243.1485,179.972 243.6065,180.04 C244.0645,180.106 244.5495,179.946 244.8775,179.62 C245.2145,179.284 245.3775,178.803 245.7145,178.466 C246.6315,177.549 248.3335,178.092 249.3515,177.289 C249.6665,177.039 249.8855,176.67 249.9525,176.274 C250.1135,175.344 249.4475,174.454 248.6585,173.936 C247.4775,173.161 245.9195,172.962 244.6065,173.483 C243.2925,174.004 242.2795,175.254 242.1085,176.657 C242.0555,177.091 242.0785,177.531 242.1185,177.967 C242.1835,178.683 241.9355,178.838 242.5095,179.272"/>
              <polygon fill="#0048FC" points="298.128 267.131 277.758 279.84 282.505 307.009 306.285 291.812"/>
              <polygon stroke="#121212" points="298.128 267.131 277.758 279.84 282.505 307.009 306.285 291.812"/>
              <polygon fill="#0048FC" points="282.505 307.009 276.242 306.44 277.95 283.089"/>
              <polygon stroke="#121212" points="282.505 307.009 276.242 306.44 277.95 283.089"/>
            </g>
          </g>
        </g>
      </g>
    </g>
    <g transform="translate(354 2826)">
      <polygon fill="#FFF" points="39.425 104.246 192.699 15.173 161.753 240.405 8.479 329.478"/>
      <g transform="translate(0 .186)">
        <path fill="#6E80FF" d="M41.865,101.3462 L195.139,12.2732 C194.146,12.8502 193.319,13.7572 192.699,14.9872 L39.425,104.0602 C40.045,102.8302 40.872,101.9232 41.865,101.3462"/>
        <path fill="#FFF" d="M50.1668,92.2388 C58.3408,96.9578 65.4738,106.4188 68.7748,116.9268 L168.2308,433.2538 L160.2508,432.7318 L60.8018,116.4018 C58.8778,110.2958 54.8958,105.0088 50.1388,102.2618 C45.3818,99.5158 41.3768,100.1908 39.4248,104.0598 L8.4788,329.2928 L0.5268,320.6168 L31.4738,95.3908 C34.8238,88.7228 41.9868,87.5158 50.1668,92.2388"/>
        <path stroke="#171717" d="M50.1668,92.2388 C58.3408,96.9578 65.4738,106.4188 68.7748,116.9268 L168.2308,433.2538 L160.2508,432.7318 L60.8018,116.4018 C58.8778,110.2958 54.8958,105.0088 50.1388,102.2618 C45.3818,99.5158 41.3768,100.1908 39.4248,104.0598 L8.4788,329.2928 L0.5268,320.6168 L31.4738,95.3908 C34.8238,88.7228 41.9868,87.5158 50.1668,92.2388 Z"/>
        <g transform="translate(35)">
          <path fill="#FFF" d="M168.4412,3.1656 C162.8372,-0.0694 157.7112,-0.5224 153.9612,1.6566 L0.6862,90.7296 C4.4362,88.5516 9.5632,89.0036 15.1672,92.2386 L15.1702,92.2366 C23.3392,96.9546 30.4682,106.4196 33.7782,116.9246 L133.2292,433.2536 L149.9272,423.5526 L286.5012,344.1846 L187.0492,27.8546 C186.7372,26.8716 186.3972,25.8976 186.0182,24.9426 L186.0182,24.9336 C182.3972,15.6196 175.8442,7.4406 168.4412,3.1666"/>
          <path stroke="#171717" d="M168.4412,3.1656 C162.8372,-0.0694 157.7112,-0.5224 153.9612,1.6566 L0.6862,90.7296 C4.4362,88.5516 9.5632,89.0036 15.1672,92.2386 L15.1702,92.2366 C23.3392,96.9546 30.4682,106.4196 33.7782,116.9246 L133.2292,433.2536 L149.9272,423.5526 L286.5012,344.1846 L187.0492,27.8546 C186.7372,26.8716 186.3972,25.8976 186.0182,24.9426 L186.0182,24.9336 C182.3972,15.6196 175.8442,7.4406 168.4412,3.1666"/>
        </g>
      </g>
      <polygon fill="#FFF" points="271.892 273.316 173.093 331.964 136.744 216.353 235.872 158.749"/>
      <polygon fill="#0048FA" points="187.786 208.422 189.604 213.678 184.914 216.331 183.097 211.075"/>
      <polygon stroke="#121212" points="187.786 208.422 189.604 213.678 184.914 216.331 183.097 211.075"/>
      <polygon fill="#0048FA" points="183.096 211.075 184.913 216.331 180.23 218.981 178.411 213.724"/>
      <polygon stroke="#121212" points="183.096 211.075 184.913 216.331 180.23 218.981 178.411 213.724"/>
      <polygon fill="#0048FA" points="184.914 216.331 186.731 221.587 182.048 224.237 180.229 218.981"/>
      <polygon stroke="#121212" points="184.914 216.331 186.731 221.587 182.048 224.237 180.229 218.981"/>
      <polygon fill="#0048FA" points="177.208 210.241 178.412 213.724 173.723 216.378 172.518 212.894"/>
      <polygon stroke="#121212" points="177.208 210.241 178.412 213.724 173.723 216.378 172.518 212.894"/>
      <path fill="#0048FA" d="M174.0877,234.6357 L169.4707,221.2827 L157.5577,228.0247 L162.1737,241.3757 L174.0877,234.6357 L174.0877,234.6357 Z M150.6607,225.2597 L172.5177,212.8947 L180.9897,237.3967 L159.1337,249.7607 L150.6607,225.2597 Z"/>
      <path stroke="#121212" d="M174.0877,234.6357 L169.4707,221.2827 L157.5577,228.0247 L162.1737,241.3757 L174.0877,234.6357 L174.0877,234.6357 Z M150.6607,225.2597 L172.5177,212.8947 L180.9897,237.3967 L159.1337,249.7607 L150.6607,225.2597 Z"/>
      <polygon fill="#0048FA" points="184.618 247.888 184.623 247.902 185.568 250.637 183.115 252.026 182.165 249.276"/>
      <polygon stroke="#121212" points="184.618 247.888 184.623 247.902 185.568 250.637 183.115 252.026 182.165 249.276"/>
      <polygon fill="#0048FA" points="190.364 232.093 193.997 242.599 184.623 247.902 180.99 237.397"/>
      <polygon stroke="#121212" points="190.364 232.093 193.997 242.599 184.623 247.902 180.99 237.397"/>
      <polygon fill="#0048FA" points="211.078 236.123 212.895 241.379 208.212 244.028 206.393 238.772"/>
      <polygon stroke="#121212" points="211.078 236.123 212.895 241.379 208.212 244.028 206.393 238.772"/>
      <polygon fill="#0048FA" points="203.432 237.451 207.065 247.956 197.684 253.263 194.051 242.758"/>
      <polygon stroke="#121212" points="203.432 237.451 207.065 247.956 197.684 253.263 194.051 242.758"/>
      <polygon fill="#0048FA" points="196.111 216.28 199.744 226.786 190.364 232.093 186.731 221.587"/>
      <polygon stroke="#121212" points="196.111 216.28 199.744 226.786 190.364 232.093 186.731 221.587"/>
      <polygon fill="#0048FA" points="229.287 180.777 233.032 191.608 223.368 197.076 219.623 186.245"/>
      <polygon stroke="#121212" points="229.287 180.777 233.032 191.608 223.368 197.076 219.623 186.245"/>
      <polygon fill="#0048FA" points="211.23 195.158 212.437 198.648 207.748 201.302 206.541 197.811"/>
      <polygon stroke="#121212" points="211.23 195.158 212.437 198.648 207.748 201.302 206.541 197.811"/>
      <polygon fill="#0048FA" points="215.927 192.501 217.133 195.991 212.438 198.648 211.231 195.158"/>
      <polygon stroke="#121212" points="215.927 192.501 217.133 195.991 212.438 198.648 211.231 195.158"/>
      <polygon fill="#0048FA" points="223.368 197.076 227.113 207.907 217.449 213.375 213.704 202.544"/>
      <polygon stroke="#121212" points="223.368 197.076 227.113 207.907 217.449 213.375 213.704 202.544"/>
      <path fill="#0048FA" d="M237.0838,211.9375 L235.2698,206.6875 L230.5848,209.3375 L232.3998,214.5865 L237.0838,211.9375 L237.0838,211.9375 Z M227.1298,207.9565 L236.7948,202.4885 L240.5398,213.3195 L230.8748,218.7875 L227.1298,207.9565 Z"/>
      <path stroke="#121212" d="M237.0838,211.9375 L235.2698,206.6875 L230.5848,209.3375 L232.3998,214.5865 L237.0838,211.9375 L237.0838,211.9375 Z M227.1298,207.9565 L236.7948,202.4885 L240.5398,213.3195 L230.8748,218.7875 L227.1298,207.9565 Z"/>
      <polygon fill="#0048FA" points="204.429 224.136 206.243 229.386 201.56 232.035 199.744 226.786"/>
      <polygon stroke="#121212" points="204.429 224.136 206.243 229.386 201.56 232.035 199.744 226.786"/>
      <polygon fill="#0048FA" points="213.555 218.973 215.369 224.222 210.933 226.733 210.686 226.872 208.87 221.622"/>
      <polygon stroke="#121212" points="213.555 218.973 215.369 224.222 210.933 226.733 210.686 226.872 208.87 221.622"/>
      <polygon fill="#0048FA" points="210.933 226.732 212.75 231.988 208.061 234.641 206.243 229.385 210.686 226.872"/>
      <polygon stroke="#121212" points="210.933 226.732 212.75 231.988 208.061 234.641 206.243 229.385 210.686 226.872"/>
      <polygon fill="#0048FA" points="190.964 266.347 192.782 271.604 188.092 274.257 186.275 269"/>
      <polygon stroke="#121212" points="190.964 266.347 192.782 271.604 188.092 274.257 186.275 269"/>
      <polygon fill="#0048FA" points="193.87 258.427 195.685 263.676 190.995 266.329 189.18 261.08"/>
      <polygon stroke="#121212" points="193.87 258.427 195.685 263.676 190.995 266.329 189.18 261.08"/>
      <polygon fill="#0048FA" points="207.301 216.227 209.118 221.483 204.429 224.136 202.611 218.88"/>
      <polygon stroke="#121212" points="207.301 216.227 209.118 221.483 204.429 224.136 202.611 218.88"/>
      <polygon fill="#0048FA" points="205.336 194.328 206.541 197.811 201.851 200.465 200.647 196.981"/>
      <polygon stroke="#121212" points="205.336 194.328 206.541 197.811 201.851 200.465 200.647 196.981"/>
      <polygon fill="#0048FA" points="214.722 189.018 215.926 192.501 211.23 195.159 210.026 191.675"/>
      <polygon stroke="#121212" points="214.722 189.018 215.926 192.501 211.23 195.159 210.026 191.675"/>
      <polygon fill="#0048FA" points="228.769 280.148 230.586 285.405 225.903 288.054 224.084 282.798"/>
      <polygon stroke="#121212" points="228.769 280.148 230.586 285.405 225.903 288.054 224.084 282.798"/>
      <path fill="#0048FA" d="M252.8572,266.1406 L248.2402,252.7876 L236.3272,259.5286 L240.9432,272.8796 L252.8572,266.1406 L252.8572,266.1406 Z M229.4302,256.7646 L251.2872,244.3996 L259.7592,268.9006 L237.9032,281.2656 L229.4302,256.7646 Z"/>
      <path stroke="#121212" d="M252.8572,266.1406 L248.2402,252.7876 L236.3272,259.5286 L240.9432,272.8796 L252.8572,266.1406 L252.8572,266.1406 Z M229.4302,256.7646 L251.2872,244.3996 L259.7592,268.9006 L237.9032,281.2656 L229.4302,256.7646 Z"/>
      <polygon fill="#0048FA" points="225.908 246.577 229.541 257.083 227.298 258.352 224.919 259.698 220.161 262.39 216.528 251.885"/>
      <polygon stroke="#121212" points="225.908 246.577 229.541 257.083 227.298 258.352 224.919 259.698 220.161 262.39 216.528 251.885"/>
      <polygon fill="#0048FA" points="201.85 200.465 205.485 210.978 196.111 216.28 192.476 205.768"/>
      <polygon stroke="#121212" points="201.85 200.465 205.485 210.978 196.111 216.28 192.476 205.768"/>
      <path fill="#0048FA" d="M205.7195,261.1377 L203.9045,255.8877 L199.2135,258.5407 L201.0295,263.7907 L205.7195,261.1377 L205.7195,261.1377 Z M195.9645,257.2417 L205.3385,251.9387 L208.9715,262.4447 L199.5975,267.7467 L195.9645,257.2417 Z"/>
      <path stroke="#121212" d="M205.7195,261.1377 L203.9045,255.8877 L199.2135,258.5407 L201.0295,263.7907 L205.7195,261.1377 L205.7195,261.1377 Z M195.9645,257.2417 L205.3385,251.9387 L208.9715,262.4447 L199.5975,267.7467 L195.9645,257.2417 Z"/>
      <polygon fill="#0048FA" points="228.777 238.679 230.591 243.928 225.908 246.577 224.092 241.328"/>
      <polygon stroke="#121212" points="228.777 238.679 230.591 243.928 225.908 246.577 224.092 241.328"/>
      <polygon fill="#0048FA" points="181.041 262.969 183.948 271.376 176.44 275.624 173.533 267.217"/>
      <polygon stroke="#121212" points="181.041 262.969 183.948 271.376 176.44 275.624 173.533 267.217"/>
      <polygon fill="#0048FA" points="220.161 262.39 221.978 267.647 217.295 270.296 215.476 265.04"/>
      <polygon stroke="#121212" points="220.161 262.39 221.978 267.647 217.295 270.296 215.476 265.04"/>
      <polygon fill="#0048FA" points="225.814 262.288 226.736 264.954 224.357 266.3 223.435 263.634"/>
      <polygon stroke="#121212" points="225.814 262.288 226.736 264.954 224.357 266.3 223.435 263.634"/>
      <polygon fill="#0048FA" points="227.298 258.353 228.22 261.019 225.841 262.365 224.919 259.699"/>
      <polygon stroke="#121212" points="227.298 258.353 228.22 261.019 225.841 262.365 224.919 259.699"/>
      <polygon fill="#0048FA" points="229.115 263.608 230.037 266.274 227.658 267.62 226.736 264.954"/>
      <polygon stroke="#121212" points="229.115 263.608 230.037 266.274 227.658 267.62 226.736 264.954"/>
      <polygon fill="#0048FA" points="224.357 266.3 225.279 268.967 222.9 270.313 221.978 267.647"/>
      <polygon stroke="#121212" points="224.357 266.3 225.279 268.967 222.9 270.313 221.978 267.647"/>
      <polygon fill="#0048FA" points="227.658 267.62 228.578 270.279 226.199 271.626 225.279 268.967"/>
      <polygon stroke="#121212" points="227.658 267.62 228.578 270.279 226.199 271.626 225.279 268.967"/>
      <polygon fill="#0048FA" points="226.199 271.626 227.121 274.292 224.742 275.638 223.82 272.972"/>
      <polygon stroke="#121212" points="226.199 271.626 227.121 274.292 224.742 275.638 223.82 272.972"/>
      <polygon fill="#0048FA" points="170.577 249.439 172.426 254.786 172.452 254.862 167.62 257.596 167.608 257.56 165.745 252.173"/>
      <polygon stroke="#121212" points="170.577 249.439 172.426 254.786 172.452 254.862 167.62 257.596 167.608 257.56 165.745 252.173"/>
      <polygon fill="#0048FA" points="177.264 252.048 179.139 257.471 174.3 260.208 172.452 254.861 172.425 254.785"/>
      <polygon stroke="#121212" points="177.264 252.048 179.139 257.471 174.3 260.208 172.452 254.861 172.425 254.785"/>
      <polygon fill="#0048FA" points="167.608 257.56 167.62 257.596 169.483 262.983 164.651 265.716 162.776 260.293"/>
      <polygon stroke="#121212" points="167.608 257.56 167.62 257.596 169.483 262.983 164.651 265.716 162.776 260.293"/>
      <polygon fill="#0048FA" points="186.493 253.31 187.444 256.06 184.99 257.447 184.04 254.698"/>
      <polygon stroke="#121212" points="186.493 253.31 187.444 256.06 184.99 257.447 184.04 254.698"/>
      <polygon fill="#0048FA" points="181.593 256.082 182.543 258.832 180.09 260.22 179.139 257.471"/>
      <polygon stroke="#121212" points="181.593 256.082 182.543 258.832 180.09 260.22 179.139 257.471"/>
      <polygon fill="#0048FA" points="184.99 257.447 185.941 260.196 183.494 261.581 182.544 258.832"/>
      <polygon stroke="#121212" points="184.99 257.447 185.941 260.196 183.494 261.581 182.544 258.832"/>
      <polygon fill="#0048FA" points="183.494 261.581 184.442 264.323 181.989 265.711 181.041 262.969"/>
      <polygon stroke="#121212" points="183.494 261.581 184.442 264.323 181.989 265.711 181.041 262.969"/>
      <polygon fill="#0048FA" points="213.662 259.791 215.476 265.04 210.787 267.693 208.972 262.444"/>
      <polygon stroke="#121212" points="213.662 259.791 215.476 265.04 210.787 267.693 208.972 262.444"/>
      <polygon fill="#0048FA" points="220.656 272.882 224.085 282.799 215.236 287.805 211.807 277.888"/>
      <polygon stroke="#121212" points="220.656 272.882 224.085 282.799 215.236 287.805 211.807 277.888"/>
      <polygon fill="#0048FA" points="210.787 267.693 212.604 272.949 207.92 275.599 206.102 270.342"/>
      <polygon stroke="#121212" points="210.787 267.693 212.604 272.949 207.92 275.599 206.102 270.342"/>
      <polygon fill="#0048FA" points="215.236 287.805 217.053 293.062 212.364 295.715 210.547 290.458"/>
      <polygon stroke="#121212" points="215.236 287.805 217.053 293.062 212.364 295.715 210.547 290.458"/>
      <polygon fill="#0048FA" points="208.731 285.209 210.546 290.458 205.862 293.108 204.047 287.859"/>
      <polygon stroke="#121212" points="208.731 285.209 210.546 290.458 205.862 293.108 204.047 287.859"/>
      <path fill="#0048FA" d="M196.0877,298.2568 L191.4707,284.9048 L179.5577,291.6458 L184.1737,304.9968 L196.0877,298.2568 L196.0877,298.2568 Z M172.6607,288.8818 L194.5177,276.5168 L201.1717,295.7618 L202.9897,301.0178 L181.1337,313.3828 L172.6607,288.8818 Z"/>
      <path stroke="#121212" d="M196.0877,298.2568 L191.4707,284.9048 L179.5577,291.6458 L184.1737,304.9968 L196.0877,298.2568 L196.0877,298.2568 Z M172.6607,288.8818 L194.5177,276.5168 L201.1717,295.7618 L202.9897,301.0178 L181.1337,313.3828 L172.6607,288.8818 Z"/>
      <polygon fill="#0048FA" points="205.862 293.108 207.679 298.364 202.99 301.017 201.173 295.761"/>
      <polygon stroke="#121212" points="205.862 293.108 207.679 298.364 202.99 301.017 201.173 295.761"/>
      <polygon fill="#0048FA" points="231.649 230.769 233.466 236.026 228.777 238.679 226.96 233.422"/>
      <polygon stroke="#121212" points="231.649 230.769 233.466 236.026 228.777 238.679 226.96 233.422"/>
      <polygon fill="#0048FA" points="230.875 218.787 232.693 224.043 228.003 226.696 226.186 221.44"/>
      <polygon stroke="#121212" points="230.875 218.787 232.693 224.043 228.003 226.696 226.186 221.44"/>
      <polygon fill="#0048FA" points="237.383 221.39 239.198 226.639 234.508 229.292 232.694 224.043"/>
      <polygon stroke="#121212" points="237.383 221.39 239.198 226.639 234.508 229.292 232.694 224.043"/>
      <polygon fill="#0048FA" points="243.882 223.989 245.7 229.245 241.016 231.895 239.198 226.638"/>
      <polygon stroke="#121212" points="243.882 223.989 245.7 229.245 241.016 231.895 239.198 226.638"/>
      <polygon fill="#0048FA" points="241.015 231.895 242.83 237.144 238.14 239.798 236.326 234.548"/>
      <polygon stroke="#121212" points="241.015 231.895 242.83 237.144 238.14 239.798 236.326 234.548"/>
      <polygon fill="#0048FA" points="222.275 236.072 224.092 241.328 219.403 243.981 217.586 238.725"/>
      <polygon stroke="#121212" points="222.275 236.072 224.092 241.328 219.403 243.981 217.586 238.725"/>
      <polygon fill="#0048FA" points="217.586 238.726 219.403 243.982 214.713 246.635 212.896 241.379"/>
      <polygon stroke="#121212" points="217.586 238.726 219.403 243.982 214.713 246.635 212.896 241.379"/>
      <polygon fill="#0048FA" points="189.188 291.189 190.917 296.189 186.456 298.713 184.727 293.713"/>
      <polygon stroke="#121212" points="189.188 291.189 190.917 296.189 186.456 298.713 184.727 293.713"/>
      <polygon fill="#0048FA" points="197.274 269.062 199.003 274.062 194.542 276.586 192.812 271.586"/>
      <polygon stroke="#121212" points="197.274 269.062 199.003 274.062 194.542 276.586 192.812 271.586"/>
      <g transform="translate(132 91.186)">
        <path fill="#121212" d="M2.8386 73.9126C4.0086 73.2736 4.9916 73.0966 5.7836 73.3836 6.5826 73.6656 7.1836 74.3216 7.5896 75.3576L6.7926 75.7936C6.6126 75.4086 6.4136 75.0926 6.2096 74.8346 5.9976 74.5816 5.7486 74.3956 5.4656 74.2846 5.1816 74.1946 4.8496 74.1676 4.4656 74.2356 4.0806 74.3046 3.6186 74.4716 3.0796 74.7366 3.0286 74.7626 2.9796 74.7886 2.9306 74.8146 2.2426 75.1896 1.7376 75.7136 1.4156 76.3846 1.0616 77.0986 1.0106 77.8356 1.2646 78.5956 1.3766 78.9316 1.5236 79.1916 1.6866 79.3776 1.8576 79.5586 2.0946 79.6836 2.3786 79.7466 2.6636 79.7896 3.0256 79.7806 3.4686 79.7096 3.9036 79.6416 4.4476 79.5156 5.1016 79.3386 5.4866 79.2506 5.8136 79.1846 6.0916 79.1286 6.3616 79.0746 6.6046 79.0376 6.8156 79.0076 7.0346 78.9816 7.2346 78.9686 7.4136 78.9736 7.5946 78.9786 7.7836 78.9886 7.9986 78.9946 8.4726 79.0676 8.8666 79.2586 9.1696 79.5566 9.4806 79.8506 9.7186 80.2596 9.8926 80.7796 10.2646 81.8916 10.2256 82.9436 9.7856 83.9136 9.3386 84.8866 8.5176 85.7036 7.3186 86.3576 6.0206 87.0666 4.9076 87.2676 3.9966 86.9526 3.0806 86.6476 2.4186 85.8846 2.0126 84.6686L2.8656 84.2016C3.1766 85.2336 3.7006 85.8366 4.4426 86.0276 5.1756 86.2146 6.0476 86.0306 7.0446 85.4856 7.9426 84.9966 8.5846 84.3806 8.9676 83.6226 9.3456 82.8766 9.4016 82.0796 9.1266 81.2556 8.9666 80.7746 8.6836 80.4366 8.2756 80.2336 7.8766 80.0266 7.3786 79.9586 6.7936 80.0126 6.6656 80.0346 6.5596 80.0466 6.4656 80.0686 6.3756 80.0806 6.2786 80.0956 6.1746 80.1136 6.0706 80.1336 5.9526 80.1596 5.8106 80.1896 5.6646 80.2136 5.4846 80.2556 5.2616 80.3006 4.7016 80.4546 4.2386 80.5656 3.8886 80.6346 3.5406 80.7116 3.2496 80.7566 3.0176 80.7696 2.7896 80.7996 2.5956 80.8016 2.4506 80.7756 2.3026 80.7636 2.1526 80.7216 1.9926 80.6766 1.6826 80.6096 1.4076 80.4476 1.1786 80.1936.9406 79.9356.7516 79.5756.5996 79.1196.2376 78.0396.2476 77.0506.6336 76.1486 1.0196 75.2476 1.7556 74.5046 2.8386 73.9126M24.9832 70.7671L29.4032 68.3531 26.9652 65.1711 24.8282 62.4791 24.8652 66.2241 24.9832 70.7671 24.9832 70.7671zM25.2312 61.6811L33.2062 71.8111 32.3742 72.2661 29.8842 69.0071 25.0202 71.6641 25.1332 76.2201 24.3512 76.6471 24.1832 62.2531 25.2312 61.6811z"/>
        <polygon fill="#121212" points="18.786 65.6 22.766 77.513 22.057 77.902 18.316 66.707 18.275 79.967 17.564 80.355 9.95 71.278 13.69 82.471 12.973 82.863 8.992 70.95 10.162 70.31 17.695 79.527 17.688 66.2"/>
        <polygon fill="#121212" points="47.678 49.818 47.965 50.673 44.464 52.587 48.157 63.644 47.383 64.067 43.688 53.009 40.188 54.922 39.901 54.066"/>
        <path fill="#121212" d="M36.405,62.7495 C37.438,62.1855 38.134,61.5775 38.484,60.9235 C38.837,60.2765 38.865,59.5225 38.579,58.6675 C38.28,57.7985 37.874,57.2925 37.361,57.1285 C36.847,56.9635 36.097,57.1555 35.107,57.6965 L31.864,59.4685 L33.492,64.3415 L36.405,62.7495 M41.92,66.0485 C42.035,66.2695 42.196,66.5215 42.382,66.7985 L41.564,67.2455 C41.479,67.0935 41.397,66.9485 41.327,66.8165 C41.258,66.6845 41.19,66.5315 41.114,66.3555 C41.041,66.1875 40.96,65.9955 40.865,65.7635 C40.773,65.5395 40.657,65.2425 40.527,64.8785 C40.278,64.2105 39.997,63.7215 39.686,63.4275 C39.369,63.1375 39.043,62.9745 38.703,62.9235 C38.371,62.8675 38.041,62.8965 37.7,63.0175 C37.368,63.1425 37.063,63.2705 36.773,63.4195 L33.738,65.0765 L35.558,70.5255 L34.791,70.9445 L30.81,59.0315 L35.288,56.5855 C36.242,56.0645 37.067,55.9445 37.768,56.2145 C38.472,56.4925 38.984,57.1115 39.305,58.0715 C39.541,58.7755 39.612,59.4745 39.524,60.1755 C39.436,60.8765 39.069,61.5305 38.438,62.1315 C38.823,62.0625 39.243,62.1265 39.702,62.3305 C40.15,62.5305 40.516,62.9165 40.811,63.4935 C40.995,63.9415 41.142,64.3065 41.256,64.5945 C41.369,64.8835 41.473,65.1465 41.583,65.3715 C41.687,65.6075 41.796,65.8315 41.92,66.0485"/>
        <polygon fill="#121212" points="80.346 31.974 78.874 41.056 80.516 45.969 79.749 46.388 78.108 41.475 71.921 36.575 72.898 36.042 76.754 39.281 78.278 40.436 78.638 38.29 79.492 32.44"/>
        <path fill="#121212" d="M67.1922 47.7115L71.6202 45.2935 69.1742 42.1155 67.0442 39.4195 67.0742 43.1685 67.1922 47.7115 67.1922 47.7115zM67.4402 38.6255L75.4212 48.7515 74.5832 49.2095 72.1012 45.9475 67.2362 48.6055 67.3422 53.1645 66.5612 53.5915 66.4002 39.1935 67.4402 38.6255zM62.0193 48.3521C62.3263 47.6451 62.3313 46.8471 62.0293 45.9431 61.8893 45.5271 61.6653 45.1861 61.3683 44.9041 61.0703 44.6231 60.7463 44.4401 60.3833 44.3441 60.1133 44.3221 59.8223 44.3671 59.5313 44.4591 59.2403 44.5521 58.8413 44.7321 58.3463 45.0021L55.5833 46.5111 57.3253 51.7201 60.2803 50.1061C61.1343 49.6391 61.7123 49.0591 62.0193 48.3521M61.9223 44.0521C62.2893 44.4111 62.5813 44.9041 62.8013 45.5391 63.0183 46.1881 63.1073 46.7831 63.0733 47.3411 63.0313 47.9031 62.8973 48.4401 62.6603 48.9481 62.4523 49.3171 62.2183 49.6331 61.9583 49.8981 61.6923 50.1671 61.2713 50.4541 60.6973 50.7681L57.5763 52.4721 59.2793 57.5691 58.5253 57.9811 54.5443 46.0671 58.3543 43.9861C58.9283 43.6721 59.3963 43.4731 59.7543 43.4011 60.1123 43.3291 60.4663 43.3241 60.8143 43.3991 61.1913 43.4871 61.5593 43.7021 61.9223 44.0521M14.8923 29.8638C15.3553 31.3948 15.9963 32.7828 16.7643 34.0358L24.9013 29.8888C24.3463 28.5278 23.8283 27.0778 23.3653 25.5468 22.7413 23.4818 22.2603 21.4498 21.9203 19.4868L14.0383 23.5028C14.0053 25.6468 14.2653 27.7918 14.8923 29.8638M39.3383 22.5328L47.4753 18.3868C47.3733 16.7948 47.1233 15.2078 46.6613 13.6768 46.0343 11.6048 45.1003 9.8028 43.9453 8.2638L36.0703 12.2768C36.8423 14.0198 37.5633 15.9298 38.1883 17.9938 38.6513 19.5248 39.0323 21.0458 39.3383 22.5328M22.1503 6.3228C17.6903 9.9588 14.7893 15.6028 14.1653 21.4858L21.6423 17.6758C21.0513 13.1518 21.2353 9.1448 22.1503 6.3228M42.8013 6.8958C39.2603 3.1348 34.1753 1.5578 28.9953 2.8358 31.1513 4.0928 33.3863 6.8668 35.3183 10.7088L42.8013 6.8958M25.4463 4.1608C23.0343 5.3888 22.4963 10.8498 23.2373 16.8638L33.7303 11.5168C31.1213 6.4558 27.8583 2.9308 25.4463 4.1608M36.6623 18.7708C36.0703 16.8138 35.3273 14.8808 34.4963 13.0798L23.4953 18.6848C23.8303 20.7378 24.2983 22.8118 24.8903 24.7688 25.3353 26.2398 25.8633 27.6938 26.4543 29.0978L37.7863 23.3248C37.4763 21.7768 37.1073 20.2418 36.6623 18.7708M36.0983 39.3768C38.7163 38.0428 39.1353 31.7178 38.0983 25.1168L27.1643 30.6878C29.8653 36.4418 33.4803 40.7108 36.0983 39.3768M39.3933 37.2138C44.2923 33.2218 47.3093 26.8058 47.4983 20.3268L39.6713 24.3148C40.5303 29.4608 40.4173 34.0718 39.3933 37.2138M17.7573 35.4808C21.2993 40.0588 26.8723 42.0978 32.5493 40.7008 30.1583 39.2998 27.6593 36.0188 25.5913 31.4898L17.7573 35.4808M24.9343 2.4688C34.5403-2.4252 44.9653 2.2508 48.1863 12.8998 51.4053 23.5418 46.2163 36.1728 36.6093 41.0668 27.0093 45.9588 16.5853 41.2828 13.3673 30.6408 10.1453 19.9918 15.3333 7.3608 24.9343 2.4688"/>
        <path stroke="#171717" d="M284.1375,258.2144 C284.1375,258.2144 282.7715,258.6814 282.6095,265.1774 C282.4535,271.4594 283.2855,277.5724 283.2855,277.5724 L292.0215,272.2244 C292.0215,272.2244 289.4025,257.1954 284.1375,258.2144 Z"/>
        <path fill="#FB9E9C" d="M227.1082 188.6548C227.1082 188.6548 226.7642 189.1068 226.9622 189.6108 227.1602 190.1138 227.9502 190.6718 227.9502 190.6718L227.1082 188.6548zM236.8181 229.6958C236.8181 229.6958 239.8901 227.2668 239.7421 223.6718 239.7421 223.6718 239.8271 218.4128 238.2831 218.3508 236.7381 218.2898 233.9781 221.7498 233.9781 221.7498L236.8181 229.6958z"/>
        <polygon fill="#FFF" points="279.989 234.905 284.572 255.442 282.234 256.023 273.65 235.735"/>
        <polygon stroke="#171717" points="279.989 234.905 284.572 255.442 282.234 256.023 273.65 235.735"/>
        <path fill="#FFF" d="M283.3748,246.5493 C283.3748,246.5493 275.0688,206.0353 273.0168,201.8263 C270.3358,196.3293 263.5928,194.4423 263.5928,194.4423 C252.5978,198.3833 246.7808,193.6753 246.7808,193.6753 C234.7458,195.2043 232.3258,222.6923 232.3258,222.6923 C234.1188,225.0853 235.6518,228.4733 238.2148,229.1243 C242.7818,219.7013 239.0958,209.9983 239.9408,206.7413 C240.9308,202.9363 242.0048,204.4843 242.0048,204.4843 C242.0048,204.4843 239.9408,209.8373 241.6328,214.2103 C243.3238,218.5823 241.6328,229.8573 241.6328,229.8573 C248.1198,232.6733 262.6338,230.5593 262.6338,230.5593 C263.0568,226.4743 266.1598,214.7773 266.1598,214.7773 L278.0808,249.1403 C284.9898,249.5633 283.3748,246.5493 283.3748,246.5493"/>
        <path stroke="#171717" d="M283.3748,246.5493 C283.3748,246.5493 275.0688,206.0353 273.0168,201.8263 C270.3358,196.3293 263.5928,194.4423 263.5928,194.4423 C252.5978,198.3833 246.7808,193.6753 246.7808,193.6753 C234.7458,195.2043 232.3258,222.6923 232.3258,222.6923 C234.1188,225.0853 235.6518,228.4733 238.2148,229.1243 C242.7818,219.7013 239.0958,209.9983 239.9408,206.7413 C240.9308,202.9363 242.0048,204.4843 242.0048,204.4843 C242.0048,204.4843 239.9408,209.8373 241.6328,214.2103 C243.3238,218.5823 241.6328,229.8573 241.6328,229.8573 C248.1198,232.6733 262.6338,230.5593 262.6338,230.5593 C263.0568,226.4743 266.1598,214.7773 266.1598,214.7773 L278.0808,249.1403 C284.9898,249.5633 283.3748,246.5493 283.3748,246.5493 Z"/>
        <path fill="#FFF" d="M237.572,221.688 L232.326,200.912 L228.905,202.243 C228.905,202.243 229.444,225.41 234.468,229.105 C239.493,232.799 237.572,221.688 237.572,221.688"/>
        <path stroke="#171717" d="M237.572,221.688 L232.326,200.912 L228.905,202.243 C228.905,202.243 229.444,225.41 234.468,229.105 C239.493,232.799 237.572,221.688 237.572,221.688 Z"/>
        <polygon fill="#FFF" points="226.379 183.642 232.079 185.554 234.027 197.003 228.051 195.12"/>
        <polygon stroke="#171717" points="226.379 183.642 232.079 185.554 234.027 197.003 228.051 195.12"/>
        <path fill="#FFF" d="M281.4724,259.7271 C281.4244,259.9101 281.3734,260.1121 281.4604,260.2801 C281.6204,260.5881 282.1204,260.5091 282.3354,260.2371 C282.5514,259.9631 282.5834,259.5951 282.6794,259.2611 C282.7754,258.9271 282.9984,258.5721 283.3454,258.5451 C283.6784,258.5201 283.9954,258.7781 284.1384,259.0801 C284.3634,259.5521 283.0394,261.1231 283.5384,262.6581 C283.6754,263.0791 283.9594,263.5981 284.3934,263.5081 C284.6634,263.4531 284.8214,263.1721 284.9044,262.9101 C285.3244,261.5861 286.3924,259.8271 286.0544,258.5621 C285.6964,257.2201 284.9474,256.7791 284.5724,255.4421 C284.4484,254.9981 284.3584,255.2711 284.1344,254.8691 C283.8244,254.3111 283.2444,253.9581 282.6564,253.7541 C281.7044,253.4241 281.5744,253.6241 281.7004,254.5411 C281.9394,256.2911 281.9274,258.0081 281.4724,259.7271"/>
        <path stroke="#171717" d="M281.4724,259.7271 C281.4244,259.9101 281.3734,260.1121 281.4604,260.2801 C281.6204,260.5881 282.1204,260.5091 282.3354,260.2371 C282.5514,259.9631 282.5834,259.5951 282.6794,259.2611 C282.7754,258.9271 282.9984,258.5721 283.3454,258.5451 C283.6784,258.5201 283.9954,258.7781 284.1384,259.0801 C284.3634,259.5521 283.0394,261.1231 283.5384,262.6581 C283.6754,263.0791 283.9594,263.5981 284.3934,263.5081 C284.6634,263.4531 284.8214,263.1721 284.9044,262.9101 C285.3244,261.5861 286.3924,259.8271 286.0544,258.5621 C285.6964,257.2201 284.9474,256.7791 284.5724,255.4421 C284.4484,254.9981 284.3584,255.2711 284.1344,254.8691 C283.8244,254.3111 283.2444,253.9581 282.6564,253.7541 C281.7044,253.4241 281.5744,253.6241 281.7004,254.5411 C281.9394,256.2911 281.9274,258.0081 281.4724,259.7271 Z"/>
        <path fill="#FFF" d="M233.4148,190.6626 C233.3888,190.4896 233.2278,190.3596 233.0608,190.3316 C232.9978,190.3196 232.9338,190.3296 232.8698,190.3396 C232.9738,190.1806 233.0778,190.0206 233.1708,189.8536 C233.2408,189.7276 233.3108,189.5876 233.2878,189.4436 C233.2618,189.2696 233.1018,189.1406 232.9348,189.1116 C232.7678,189.0826 232.5978,189.1366 232.4458,189.2136 C232.1658,189.3556 231.9318,189.5756 231.7048,189.7986 C231.2538,190.2386 230.8248,190.7036 230.4058,191.1766 L230.4038,191.1646 C229.9998,191.0406 230.0148,190.7796 230.3048,190.4296 L230.3098,190.4106 C230.9278,189.7396 231.4418,188.9676 231.8138,188.1216 C231.8718,187.9896 231.9278,187.8436 231.8928,187.7016 C231.8498,187.5316 231.6788,187.4186 231.5098,187.4046 C231.3408,187.3916 231.1758,187.4606 231.0318,187.5526 C230.7668,187.7206 230.5538,187.9616 230.3498,188.2036 C229.8868,188.7496 229.4458,189.3146 229.0288,189.8986 C228.9368,190.0266 228.4658,190.5076 228.0468,191.0016 L228.0428,191.0036 C227.5408,191.2986 227.1688,191.7746 227.0208,192.3386 C226.8258,193.0786 226.6418,194.1286 226.8718,194.9006 C227.2678,196.2256 228.5608,199.3176 228.5608,199.3176 L228.9048,202.2426 L232.3258,200.9116 L231.4188,197.0036 L230.9558,194.9956 C231.6858,194.4426 232.3308,193.7716 232.8478,193.0036 C232.9288,192.8836 233.0088,192.7496 232.9988,192.6026 C232.9868,192.4286 232.8388,192.2856 232.6748,192.2436 C232.6198,192.2286 232.5638,192.2346 232.5098,192.2366 C232.8018,191.8716 233.0678,191.4846 233.2978,191.0736 C233.3678,190.9476 233.4358,190.8076 233.4148,190.6626"/>
        <path stroke="#171717" d="M233.4148,190.6626 C233.3888,190.4896 233.2278,190.3596 233.0608,190.3316 C232.9978,190.3196 232.9338,190.3296 232.8698,190.3396 C232.9738,190.1806 233.0778,190.0206 233.1708,189.8536 C233.2408,189.7276 233.3108,189.5876 233.2878,189.4436 C233.2618,189.2696 233.1018,189.1406 232.9348,189.1116 C232.7678,189.0826 232.5978,189.1366 232.4458,189.2136 C232.1658,189.3556 231.9318,189.5756 231.7048,189.7986 C231.2538,190.2386 230.8248,190.7036 230.4058,191.1766 L230.4038,191.1646 C229.9998,191.0406 230.0148,190.7796 230.3048,190.4296 L230.3098,190.4106 C230.9278,189.7396 231.4418,188.9676 231.8138,188.1216 C231.8718,187.9896 231.9278,187.8436 231.8928,187.7016 C231.8498,187.5316 231.6788,187.4186 231.5098,187.4046 C231.3408,187.3916 231.1758,187.4606 231.0318,187.5526 C230.7668,187.7206 230.5538,187.9616 230.3498,188.2036 C229.8868,188.7496 229.4458,189.3146 229.0288,189.8986 C228.9368,190.0266 228.4658,190.5076 228.0468,191.0016 L228.0428,191.0036 C227.5408,191.2986 227.1688,191.7746 227.0208,192.3386 C226.8258,193.0786 226.6418,194.1286 226.8718,194.9006 C227.2678,196.2256 228.5608,199.3176 228.5608,199.3176 L228.9048,202.2426 L232.3258,200.9116 L231.4188,197.0036 L230.9558,194.9956 C231.6858,194.4426 232.3308,193.7716 232.8478,193.0036 C232.9288,192.8836 233.0088,192.7496 232.9988,192.6026 C232.9868,192.4286 232.8388,192.2856 232.6748,192.2436 C232.6198,192.2286 232.5638,192.2346 232.5098,192.2366 C232.8018,191.8716 233.0678,191.4846 233.2978,191.0736 C233.3678,190.9476 233.4358,190.8076 233.4148,190.6626 Z"/>
        <path fill="#FFF" d="M269.2302,310.9292 C268.4982,309.5032 267.6652,308.1292 266.7382,306.8212 C267.8832,306.1812 269.0292,305.5412 270.1742,304.9032 C270.3762,307.1462 271.6352,309.1312 272.7482,311.0892 C273.1662,311.8242 273.5792,312.6792 273.3112,313.4802 C273.0692,314.2042 272.3492,314.6392 271.6822,315.0122 C270.4702,315.6902 270.3192,314.9122 270.1732,313.9112 C270.0152,312.8262 269.7352,311.9122 269.2302,310.9292"/>
        <path stroke="#171717" d="M269.2302,310.9292 C268.4982,309.5032 267.6652,308.1292 266.7382,306.8212 C267.8832,306.1812 269.0292,305.5412 270.1742,304.9032 C270.3762,307.1462 271.6352,309.1312 272.7482,311.0892 C273.1662,311.8242 273.5792,312.6792 273.3112,313.4802 C273.0692,314.2042 272.3492,314.6392 271.6822,315.0122 C270.4702,315.6902 270.3192,314.9122 270.1732,313.9112 C270.0152,312.8262 269.7352,311.9122 269.2302,310.9292 Z"/>
        <path fill="#0A0A0A" d="M273.8806 312.0152C273.5816 311.6472 273.2056 311.3412 272.7806 311.1282 272.7806 311.3772 272.7806 311.6262 272.7796 311.8762 272.7796 312.0482 272.7326 312.2412 272.7116 312.4252 272.5296 312.9072 272.1396 313.2292 271.8286 313.6092 271.3536 314.1892 270.4156 314.1072 270.0606 314.5202 269.7096 314.9262 269.6626 316.3692 269.4206 316.9462 269.0786 317.7612 268.6786 318.5672 268.5346 319.4392 268.3916 320.3122 268.5516 321.2912 269.1896 321.9042 269.3886 322.0942 269.6406 322.2462 269.9146 322.2552 270.1546 322.2642 270.3846 322.1622 270.5966 322.0482 272.1766 321.1952 273.2416 319.4602 273.2876 317.6652 273.2976 317.2842 273.2656 316.8982 273.3246 316.5212 273.4526 315.7082 273.9876 315.0252 274.2976 314.2632 274.6076 313.5002 274.7806 312.6672 274.0836 312.2312 274.0746 312.2252 273.8896 312.0212 273.8806 312.0152M249.8406 234.8853L241.4256 234.8853C241.4256 234.8853 239.8296 259.1163 243.4206 268.0943 247.0116 277.0723 262.3726 313.5793 262.3726 313.5793 262.3726 313.5793 272.7466 306.9953 273.1466 302.4073 273.5446 297.8193 255.1916 262.9073 255.1916 262.9073L249.8406 234.8853z"/>
        <path fill="#FFF" d="M233.2654,322.5484 C233.8274,321.0464 234.2844,319.5064 234.6294,317.9414 C235.8734,318.3584 237.1174,318.7754 238.3604,319.1934 C236.8354,320.8514 236.2134,323.1174 235.5134,325.2584 C235.2504,326.0624 234.8954,326.9434 234.1224,327.2834 C233.4234,327.5914 232.6184,327.3514 231.8934,327.1094 C230.5774,326.6674 231.0504,326.0324 231.6934,325.2514 C232.3894,324.4044 232.8774,323.5824 233.2654,322.5484"/>
        <path stroke="#171717" d="M233.2654,322.5484 C233.8274,321.0464 234.2844,319.5064 234.6294,317.9414 C235.8734,318.3584 237.1174,318.7754 238.3604,319.1934 C236.8354,320.8514 236.2134,323.1174 235.5134,325.2584 C235.2504,326.0624 234.8954,326.9434 234.1224,327.2834 C233.4234,327.5914 232.6184,327.3514 231.8934,327.1094 C230.5774,326.6674 231.0504,326.0324 231.6934,325.2514 C232.3894,324.4044 232.8774,323.5824 233.2654,322.5484 Z"/>
        <path fill="#0A0A0A" d="M229.4783 299.4908C228.1753 304.3378 227.2773 309.2818 226.3803 314.2198 226.3163 314.5748 226.2543 314.9518 226.3923 315.2838 226.5363 315.6308 226.8673 315.8568 227.1833 316.0578 232.0063 319.1368 237.4423 321.2528 243.0783 322.2468 246.6123 315.8198 247.3723 308.2998 248.8523 301.1158 250.8523 291.4108 254.2863 282.0018 259.0053 273.2898 261.2483 269.1508 263.8023 265.1138 265.1023 260.5908 267.3083 252.9198 265.6903 244.7328 264.0623 236.9198 259.3223 236.2418 254.5823 235.5628 249.8403 234.8858 250.4603 234.8858 248.7793 248.0898 248.1823 249.7758 246.3283 255.0138 244.6413 260.3138 242.5873 265.4848 238.1063 276.7728 232.6403 287.7198 229.4783 299.4908M235.5896 326.7202C235.6616 326.2502 235.6346 325.7662 235.5066 325.3092 235.3216 325.4772 235.1376 325.6442 234.9526 325.8122 234.8246 325.9272 234.6506 326.0212 234.4996 326.1302 234.0216 326.3202 233.5206 326.2472 233.0296 326.2732 232.2806 326.3122 231.7106 325.5622 231.1666 325.5762 230.6306 325.5912 229.5306 326.5262 228.9426 326.7352 228.1086 327.0312 227.2426 327.2762 226.5006 327.7572 225.7586 328.2382 225.1406 329.0152 225.1166 329.8992 225.1106 330.1732 225.1656 330.4632 225.3446 330.6722 225.4996 330.8562 225.7296 330.9572 225.9556 331.0362 227.6506 331.6322 229.6506 331.2542 231.0096 330.0812 231.2996 329.8312 231.5626 329.5482 231.8816 329.3382 232.5686 328.8872 233.4346 328.8232 234.2066 328.5392 234.9796 328.2552 235.7126 327.8242 235.5676 327.0142 235.5656 327.0042 235.5916 326.7302 235.5896 326.7202"/>
        <path fill="#FFF" d="M241.6326,229.857 L241.4256,234.885 C241.4256,234.885 257.0226,239.288 264.0626,236.919 L262.6336,230.559 L241.6326,229.857 Z"/>
        <path stroke="#171717" d="M241.6326,229.857 L241.4256,234.885 C241.4256,234.885 257.0226,239.288 264.0626,236.919 L262.6336,230.559 L241.6326,229.857 Z"/>
        <path fill="#FFF" d="M263.5916,194.4419 C259.9636,198.0689 254.4216,199.2819 254.4216,199.2819 C251.5586,199.0879 246.7796,193.6769 246.7796,193.6769 C246.7796,193.6769 248.1276,193.3399 248.1486,193.3299 C248.4036,193.2789 249.1446,193.1369 250.6616,192.9029 L257.3866,192.9029 L263.5916,194.4419 Z"/>
        <path stroke="#171717" d="M263.5916,194.4419 C259.9636,198.0689 254.4216,199.2819 254.4216,199.2819 C251.5586,199.0879 246.7796,193.6769 246.7796,193.6769 C246.7796,193.6769 248.1276,193.3399 248.1486,193.3299 C248.4036,193.2789 249.1446,193.1369 250.6616,192.9029 L257.3866,192.9029 L263.5916,194.4419 Z"/>
        <path fill="#FFF" d="M258.7292,193.2359 C258.7292,193.2359 256.9682,191.2049 257.0002,189.2949 L256.7412,189.3789 L256.3962,187.4879 L257.1672,179.3859 L251.2862,174.0459 L247.4802,172.4269 L244.0982,173.1989 L242.0872,178.1649 C242.0872,178.1649 241.2222,187.7339 244.7172,189.6869 C247.1642,191.0539 249.8042,189.7479 249.8042,189.7479 L250.0902,190.8069 C250.4722,193.2119 250.8132,194.2179 250.8132,194.2179 C250.8132,194.2179 256.5642,197.7199 257.6912,194.5799 L258.7292,193.2359 Z"/>
        <path stroke="#171717" d="M258.7292,193.2359 C258.7292,193.2359 256.9682,191.2049 257.0002,189.2949 L256.7412,189.3789 L256.3962,187.4879 L257.1672,179.3859 L251.2862,174.0459 L247.4802,172.4269 L244.0982,173.1989 L242.0872,178.1649 C242.0872,178.1649 241.2222,187.7339 244.7172,189.6869 C247.1642,191.0539 249.8042,189.7479 249.8042,189.7479 L250.0902,190.8069 C250.4722,193.2119 250.8132,194.2179 250.8132,194.2179 C250.8132,194.2179 256.5642,197.7199 257.6912,194.5799 L258.7292,193.2359 Z"/>
        <path fill="#0A0A0A" d="M256.2732,190.482 C255.0422,188.836 253.9712,186.697 254.7192,184.787 C254.9722,184.166 255.3872,183.636 255.5832,183.003 C255.7902,182.382 255.7092,181.578 255.1452,181.232 C254.4782,180.818 253.5572,181.359 253.2812,182.095 C253.1552,182.428 253.1212,182.796 252.9362,183.107 C252.7522,183.418 252.3272,183.625 252.0272,183.418 C251.7062,180.76 250.6592,178.195 249.0372,176.067 C248.2652,175.043 247.0812,174.019 245.8272,174.33 C243.2042,174.962 244.3192,179.668 242.2372,180.151 C240.8562,180.461 240.7992,178.115 240.8452,177.194 C241.0752,172.443 247.0452,169.67 251.2452,170.095 C256.2732,170.59 260.5642,174.801 261.5992,179.737 C261.5992,179.737 261.6012,179.857 261.6572,180.047 C264.1752,188.655 262.4972,188.169 256.2732,190.482"/>
        <path fill="#FFF" d="M233.6394,206.1138 C233.6394,206.1138 231.4504,207.7818 227.9504,207.5268 C227.9504,207.5268 229.2894,230.7908 235.2334,230.706032 C241.1764,230.6208 238.8164,224.0228 238.8164,224.0228 L233.6394,206.1138 Z"/>
        <path stroke="#171717" d="M233.6394,206.1138 C233.6394,206.1138 231.4504,207.7818 227.9504,207.5268 C227.9504,207.5268 229.2894,230.7908 235.2334,230.706032 C241.1764,230.6208 238.8164,224.0228 238.8164,224.0228 L233.6394,206.1138 Z"/>
        <path fill="#0A0A0A" d="M242.5095,179.272 C242.8785,179.55 243.1485,179.972 243.6065,180.04 C244.0645,180.106 244.5495,179.946 244.8775,179.62 C245.2145,179.284 245.3775,178.803 245.7145,178.466 C246.6315,177.549 248.3335,178.092 249.3515,177.289 C249.6665,177.039 249.8855,176.67 249.9525,176.274 C250.1135,175.344 249.4475,174.454 248.6585,173.936 C247.4775,173.161 245.9195,172.962 244.6065,173.483 C243.2925,174.004 242.2795,175.254 242.1085,176.657 C242.0555,177.091 242.0785,177.531 242.1185,177.967 C242.1835,178.683 241.9355,178.838 242.5095,179.272"/>
        <polygon fill="#FFF" points="298.128 267.131 277.758 279.84 282.505 307.009 306.285 291.812"/>
        <polygon stroke="#171717" points="298.128 267.131 277.758 279.84 282.505 307.009 306.285 291.812"/>
        <polygon fill="#FFF" points="282.505 307.009 276.242 306.44 277.95 283.089"/>
        <polygon stroke="#171717" points="282.505 307.009 276.242 306.44 277.95 283.089"/>
      </g>
    </g>
    <rect width="1799" height="150" y="3212" fill="#D8D8D8" opacity="0" transform="translate(0 56)"/>
  </g>
</svg>
