<svg xmlns="http://www.w3.org/2000/svg" width="692" height="412" viewBox="0 0 692 412">
  <g fill="none" fill-rule="evenodd" transform="translate(-824 -3417)">
    <path fill="#F8F8F8" d="M473.892098,141.015065 L473.892098,141.015065 L473.889121,141.015065 C471.516496,141.170005 469.167688,141.409864 466.845671,141.751031 C429.669596,143.222964 400.519361,105.715487 400.519361,105.715487 L400.517873,105.727405 C350.910079,43.5590891 276.642771,0 210.672206,0 C140.59197,0 100.965869,49.1518389 107.068604,117.552034 C107.552358,130.580429 105.213968,168.521442 63.1884511,180.907729 C63.1750548,180.912199 63.1631471,180.916668 63.1497508,180.919648 C62.9175492,180.992648 62.686836,181.062669 62.4531459,181.13567 C62.2447599,181.201222 62.0363738,181.266774 61.8354301,181.332325 C31.9469133,190.761338 0.400238712,206.903438 0,250.733673 C-0.95129382,357.23727 116.990758,367 116.990758,367 L587.837602,367 C587.837602,367 684.265281,363.61217 646.036856,269.216266 C617.343582,198.360863 537.405196,136.882329 473.892098,141.015065" transform="matrix(-1 0 0 1 1479 3417)"/>
    <g transform="translate(931 3445)">
      <path fill="#0A0A0A" d="M183.284561 159.993365C183.284561 159.993365 184.126939 161.188163 183.951501 164.687217 183.951501 164.687217 184.648477 170.158567 180.758107 171.903701 180.409961 172.059953 179.994915 172.023557 179.682948 171.81271 178.655574 171.1193 176.515495 169.153907 177.099153 165.063729 177.099153 165.063729 177.795447 160.203584 178.882211 159L183.284561 159.993365zM188 155.726441C188 155.726441 189.307332 159.674596 189.238398 161L190.62192 161C190.62192 161 190.404837 159.449527 192 158.061909L190.759788 155 188 155.726441z"/>
      <path fill="#0A0A0A" d="M202.27071,157.064172 C202.27071,157.064172 206.47215,159.795575 205.956071,162.450701 C205.956071,162.450701 201.902819,164.195801 198.365001,161.465061 C198.365001,161.465061 196.11706,158.296554 191.695272,158.600338 C191.695272,158.600338 187.347577,157.310914 188.084005,154.655125 L188.821077,152 L202.27071,157.064172 Z"/>
      <path fill="#FFF" d="M189,112.41096 L179.679523,110 L178.087576,155.000961 C178.485728,158.306052 177.178649,162.378817 177.178649,162.378817 C176.041827,168.679884 180.702397,166.707687 180.702397,166.707687 C181.838556,166.378775 182.201597,165.087395 182.337406,163.88415 C182.408292,163.258897 182.414254,162.627258 182.326144,162.003921 C181.88758,158.89043 182.86143,155.000961 182.86143,155.000961 L189,112.41096 Z"/>
      <path stroke="#171717" d="M189,112.41096 L179.679523,110 L178.087576,155.000961 C178.485728,158.306052 177.178649,162.378817 177.178649,162.378817 C176.041827,168.679884 180.702397,166.707687 180.702397,166.707687 C181.838556,166.378775 182.201597,165.087395 182.337406,163.88415 C182.408292,163.258897 182.414254,162.627258 182.326144,162.003921 C181.88758,158.89043 182.86143,155.000961 182.86143,155.000961 L189,112.41096 Z"/>
      <path fill="#FFF" d="M197.797653,153.265684 C195.090539,151.098996 195.76685,146.552313 195.76685,146.552313 L201.608287,108.844707 L192.526036,105 L190.353868,146.552313 C190.047473,149.563828 189,151.72793 189,151.72793 C189.285222,154.537773 199.079904,158.88149 199.079904,158.88149 C201.501174,159.62031 202,156.663092 202,156.663092 L197.797653,153.265684 Z"/>
      <path stroke="#171717" d="M197.797653,153.265684 C195.090539,151.098996 195.76685,146.552313 195.76685,146.552313 L201.608287,108.844707 L192.526036,105 L190.353868,146.552313 C190.047473,149.563828 189,151.72793 189,151.72793 C189.285222,154.537773 199.079904,158.88149 199.079904,158.88149 C201.501174,159.62031 202,156.663092 202,156.663092 L197.797653,153.265684 Z"/>
      <path fill="#FFF" d="M239.80429,37.9758894 L239.363763,38.0999768 C240.262984,37.0921602 239.679723,36.8811486 239.679723,36.8811486 L238.701998,37.1570384 C239.503901,36.2147298 238.953079,36.0125366 238.953079,36.0125366 L234.552343,37.2559304 L230.777039,40.3763826 L217.159605,46.8440459 L216.505626,45.4841233 L211.32764,34.7483566 C208.870676,28.3833647 206.540874,27.2199664 205.527466,27.0335203 C205.190744,26.969272 205,27.0171433 205,27.0171433 L205.373054,30.4115957 L206.675173,42.2698181 L212.443557,50.256135 L214.471672,53.0635342 C215.197667,54.0688313 216.634086,54.3031487 217.659821,53.5787805 L231.8696,43.5453361 L234.670422,42.9885174 C234.670422,42.9885174 237.189022,41.8037029 238.40096,41.0610681 C239.559697,40.3511872 239.006929,39.8605065 238.851868,39.7490168 C239.054939,39.6148512 239.239844,39.4693477 239.389714,39.3118763 C240.452431,38.1957194 239.80429,37.9758894 239.80429,37.9758894"/>
      <path stroke="#171717" d="M239.80429,37.9758894 L239.363763,38.0999768 C240.262984,37.0921602 239.679723,36.8811486 239.679723,36.8811486 L238.701998,37.1570384 C239.503901,36.2147298 238.953079,36.0125366 238.953079,36.0125366 L234.552343,37.2559304 L230.777039,40.3763826 L217.159605,46.8440459 L216.505626,45.4841233 L211.32764,34.7483566 C208.870676,28.3833647 206.540874,27.2199664 205.527466,27.0335203 C205.190744,26.969272 205,27.0171433 205,27.0171433 L205.373054,30.4115957 L206.675173,42.2698181 L212.443557,50.256135 L214.471672,53.0635342 C215.197667,54.0688313 216.634086,54.3031487 217.659821,53.5787805 L231.8696,43.5453361 L234.670422,42.9885174 C234.670422,42.9885174 237.189022,41.8037029 238.40096,41.0610681 C239.559697,40.3511872 239.006929,39.8605065 238.851868,39.7490168 C239.054939,39.6148512 239.239844,39.4693477 239.389714,39.3118763 C240.452431,38.1957194 239.80429,37.9758894 239.80429,37.9758894 Z"/>
      <path fill="#0A0A0A" d="M200.931059 15.0149668C200.931059 15.0149668 201.645639 23.6202733 198.473645 26L189 23.3034753C189 23.3034753 191.659471 18.9493735 191.409946 15L200.931059 15.0149668zM176 110.255228C182.131482 114.513448 187.739213 115.351801 192.195831 114.884701 198.45746 114.228459 202.44782 110.984953 202.44782 110.984953L205.659187 86.8120139C207.321416 68.4615388 202.363161 57 202.363161 57L200.719254 57.0185307 184.120344 57.1904186C176.313366 66.8397857 177.590205 85.9244587 177.590205 85.9244587 178.024242 95.3425119 176 110.255228 176 110.255228"/>
      <path fill="#FFF" d="M181.419607,27.9176222 L165.273467,24.1610281 L156.305365,8.17426125 L156.30473,8.17490494 L155.731528,6.63776534 L154.983763,2.50525433 L152.398324,0 C152.398324,0 151.571847,0.746040538 152.399594,1.71286788 L151.305876,0.653348702 C151.305876,0.653348702 150.634284,1.26807581 151.121157,2.10294602 L150.664753,1.66072872 C150.664753,1.66072872 149.624992,2.57734798 150.987854,3.69930541 L151.635324,4.72020299 L150.304836,3.4308853 C150.304836,3.4308853 149.468837,4.16855783 150.565728,5.07230322 L151.43537,6.44272627 L152.680799,9.00140714 L153.349852,9.86717464 L161.067448,28.9243586 L176.73941,35.5994581 L181.124437,43 C185.16478,36.5012724 181.419607,27.9176222 181.419607,27.9176222"/>
      <path stroke="#171717" d="M181.419607,27.9176222 L165.273467,24.1610281 L156.305365,8.17426125 L156.30473,8.17490494 L155.731528,6.63776534 L154.983763,2.50525433 L152.398324,0 C152.398324,0 151.571847,0.746040538 152.399594,1.71286788 L151.305876,0.653348702 C151.305876,0.653348702 150.634284,1.26807581 151.121157,2.10294602 L150.664753,1.66072872 C150.664753,1.66072872 149.624992,2.57734798 150.987854,3.69930541 L151.635324,4.72020299 L150.304836,3.4308853 C150.304836,3.4308853 149.468837,4.16855783 150.565728,5.07230322 L151.43537,6.44272627 L152.680799,9.00140714 L153.349852,9.86717464 L161.067448,28.9243586 L176.73941,35.5994581 L181.124437,43 C185.16478,36.5012724 181.419607,27.9176222 181.419607,27.9176222 Z"/>
      <path fill="#FFF" d="M210.771761,33.3161893 C208.245365,27.738431 205.606414,26.4539426 204.658373,26.0671731 L204.640364,26.1428454 C204.487288,26.0639393 204.325851,25.9960283 204.14962,25.9468736 C204.14962,25.9468736 201.539612,25.4404515 197.710142,25.3641324 C193.914117,25.2826392 188.915353,25.6312491 184.078669,27.3089746 C183.073385,27.6588781 182.074533,28.0708716 181.093046,28.5436616 L181.09176,28.539781 L165.747509,25 C166.035652,27.1136496 165.549411,29.1386915 164,31.0427871 L176.34898,36.2583533 L180.79011,43.6897591 L180.79204,43.69558 C180.79204,43.69558 183.61301,51.5486808 183.467009,57.9045054 C183.467009,57.9045054 190.859674,62.2281736 200.363886,58.4542613 C200.916375,58.2362992 201.474651,57.9911728 202.03743,57.7137078 C202.03743,57.7137078 202.097246,50.4925028 203.705829,44.2951373 C204.043496,42.9912457 204.453199,41.7442701 204.940084,40.6085391 L209.233927,48.7462195 C210.810351,48.9480122 215,44.0357819 215,44.0357819 L210.771761,33.3161893 Z"/>
      <path stroke="#171717" d="M210.771761,33.3161893 C208.245365,27.738431 205.606414,26.4539426 204.658373,26.0671731 L204.640364,26.1428454 C204.487288,26.0639393 204.325851,25.9960283 204.14962,25.9468736 C204.14962,25.9468736 201.539612,25.4404515 197.710142,25.3641324 C193.914117,25.2826392 188.915353,25.6312491 184.078669,27.3089746 C183.073385,27.6588781 182.074533,28.0708716 181.093046,28.5436616 L181.09176,28.539781 L165.747509,25 C166.035652,27.1136496 165.549411,29.1386915 164,31.0427871 L176.34898,36.2583533 L180.79011,43.6897591 L180.79204,43.69558 C180.79204,43.69558 183.61301,51.5486808 183.467009,57.9045054 C183.467009,57.9045054 190.859674,62.2281736 200.363886,58.4542613 C200.916375,58.2362992 201.474651,57.9911728 202.03743,57.7137078 C202.03743,57.7137078 202.097246,50.4925028 203.705829,44.2951373 C204.043496,42.9912457 204.453199,41.7442701 204.940084,40.6085391 L209.233927,48.7462195 C210.810351,48.9480122 215,44.0357819 215,44.0357819 L210.771761,33.3161893 Z"/>
      <path fill="#FFF" d="M201,14.3022249 C201,8.06349195 197.957467,5.16197693 197.957467,5.16197693 C188.395403,0.664152987 185.352237,10.6745384 185.352237,10.6745384 C182.309704,12.5613159 185.352237,16.6234369 185.352237,16.6234369 C185.802537,18.2191116 186.58597,19.4463098 187.514436,20.3950893 L187.914703,26.3389142 C186.734803,26.5995749 185.54477,26.9261935 184.363604,27.3346254 L194.261968,37 L197.787101,25.4275531 C196.841534,25.4078926 195.819334,25.4142347 194.744568,25.4630689 L194.914935,23.5877072 C198.392567,24.3132445 201,20.5409579 201,14.3022249"/>
      <path stroke="#171717" d="M201,14.3022249 C201,8.06349195 197.957467,5.16197693 197.957467,5.16197693 C188.395403,0.664152987 185.352237,10.6745384 185.352237,10.6745384 C182.309704,12.5613159 185.352237,16.6234369 185.352237,16.6234369 C185.802537,18.2191116 186.58597,19.4463098 187.514436,20.3950893 L187.914703,26.3389142 C186.734803,26.5995749 185.54477,26.9261935 184.363604,27.3346254 L194.261968,37 L197.787101,25.4275531 C196.841534,25.4078926 195.819334,25.4142347 194.744568,25.4630689 L194.914935,23.5877072 C198.392567,24.3132445 201,20.5409579 201,14.3022249 Z"/>
      <path fill="#0A0A0A" d="M199,6.87330354 L190.495702,3 C183.122891,4.73521461 183.392232,14.8089761 183.392232,14.8089761 C183.639924,18.8269337 181,23.2566479 181,23.2566479 L190.404011,26 C193.541229,23.5878296 192.849093,14.8895509 192.843999,14.827375 C195.327284,8.95238883 199,6.87330354 199,6.87330354"/>
      <polygon fill="#FFF" points="186.723 27 184 27.963 195 37"/>
      <polygon stroke="#171717" points="186.723 27 184 27.963 195 37"/>
      <polygon fill="#FFF" points="195 37 198.607 25 201 25.109"/>
      <polygon stroke="#171717" points="195 37 198.607 25 201 25.109"/>
      <path fill="#0A0A0A" d="M195.894442,6.90216228 C195.894442,6.90216228 200.92211,10.6959508 201.496647,15 C201.496647,15 204.297749,4.8592059 196.684351,2.59747523 C189.071582,0.335744564 189,5.22404232 189,5.22404232 L195.894442,6.90216228 Z"/>
      <path fill="#FFF" d="M443,133 L442.902085,138.957583 C442.891977,142.545717 440.566014,146.129365 435.919773,148.868521 C431.253948,151.618569 425.133291,152.994233 419,153 L419.097915,147.042417 C425.231207,147.03665 431.352495,145.660345 436.017056,142.910297 C440.664561,140.171141 442.989893,136.588774 443,133"/>
      <path stroke="#171717" d="M443,133 L442.902085,138.957583 C442.891977,142.545717 440.566014,146.129365 435.919773,148.868521 C431.253948,151.618569 425.133291,152.994233 419,153 L419.097915,147.042417 C425.231207,147.03665 431.352495,145.660345 436.017056,142.910297 C440.664561,140.171141 442.989893,136.588774 443,133 Z"/>
      <path fill="#FFF" d="M328,198.084207 L327.900313,204 C327.9106,200.39059 325.502295,196.775454 320.681184,194.020519 C311.104538,188.54946 295.624137,188.546915 286.105352,194.021155 C281.356889,196.751913 278.992944,200.326966 279,203.907745 L279.099022,197.991315 C279.093236,194.411809 281.456539,190.835483 286.204359,188.104726 C295.723786,182.630486 311.204187,182.633031 320.780833,188.104726 C325.602587,190.860297 328.010892,194.474797 328,198.084207"/>
      <path stroke="#171717" d="M328,198.084207 L327.900313,204 C327.9106,200.39059 325.502295,196.775454 320.681184,194.020519 C311.104538,188.54946 295.624137,188.546915 286.105352,194.021155 C281.356889,196.751913 278.992944,200.326966 279,203.907745 L279.099022,197.991315 C279.093236,194.411809 281.456539,190.835483 286.204359,188.104726 C295.723786,182.630486 311.204187,182.633031 320.780833,188.104726 C325.602587,190.860297 328.010892,194.474797 328,198.084207 Z"/>
      <polygon fill="#FFF" points="279 199.052 278.902 205 234 178.947 234.099 173"/>
      <polygon stroke="#171717" points="279 199.052 278.902 205 234 178.947 234.099 173"/>
      <polygon fill="#FFF" points="463 172 462.901 207.169 417 234 417.099 198.831"/>
      <polygon stroke="#171717" points="463 172 462.901 207.169 417 234 417.099 198.831"/>
      <polygon fill="#FFF" points="396 211 395.9 246.002 349 273 349.101 237.998"/>
      <polygon stroke="#171717" points="396 211 395.9 246.002 349 273 349.101 237.998"/>
      <path fill="#FFF" d="M445,213.133289 L444.900328,248.019895 C444.890039,251.591909 442.521708,255.158183 437.791475,257.885184 C428.275064,263.369798 412.791203,263.372349 403.212417,257.888373 C398.3928,255.128847 395.989744,251.504538 396,247.887244 L396.099705,213 C396.089416,216.617932 398.493115,220.241603 403.312088,223.001767 C412.890875,228.485743 428.374736,228.483192 437.891147,222.998578 C442.622023,220.271577 444.989711,216.705303 445,213.133289"/>
      <path stroke="#171717" d="M445,213.133289 L444.900328,248.019895 C444.890039,251.591909 442.521708,255.158183 437.791475,257.885184 C428.275064,263.369798 412.791203,263.372349 403.212417,257.888373 C398.3928,255.128847 395.989744,251.504538 396,247.887244 L396.099705,213 C396.089416,216.617932 398.493115,220.241603 403.312088,223.001767 C412.890875,228.485743 428.374736,228.483192 437.891147,222.998578 C442.622023,220.271577 444.989711,216.705303 445,213.133289 Z"/>
      <path fill="#FFF" d="M434.973007,122.404295 C444.477974,127.906499 444.527722,136.822961 435.08462,142.325166 C430.374549,145.069873 424.195013,146.444145 418.002721,146.449901 L463,172.498401 L417.19528,199.187675 C424.070644,198.847464 431.160305,200.202551 436.439283,203.258692 C445.939148,208.758339 445.989534,217.67544 436.546432,223.177645 C427.107795,228.677931 411.750477,228.679849 402.249336,223.180842 C396.970996,220.125341 394.615004,216.012117 395.177534,212.017839 L348.870874,239 L303.367829,212.658611 C309.564585,212.650298 315.744759,211.277305 320.454192,208.532597 C329.897932,203.029753 329.848184,194.113291 320.343217,188.610447 C310.842076,183.110801 295.484759,183.108243 286.041019,188.610447 C281.331586,191.355155 278.986437,194.94911 278.992814,198.547541 L234,172.501599 L348.129126,106 L393.632171,132.341389 C393.620691,128.744876 395.965841,125.15156 400.676549,122.406853 C410.119013,116.904009 425.472504,116.904009 434.973007,122.404295"/>
      <path stroke="#171717" d="M434.973007,122.404295 C444.477974,127.906499 444.527722,136.822961 435.08462,142.325166 C430.374549,145.069873 424.195013,146.444145 418.002721,146.449901 L463,172.498401 L417.19528,199.187675 C424.070644,198.847464 431.160305,200.202551 436.439283,203.258692 C445.939148,208.758339 445.989534,217.67544 436.546432,223.177645 C427.107795,228.677931 411.750477,228.679849 402.249336,223.180842 C396.970996,220.125341 394.615004,216.012117 395.177534,212.017839 L348.870874,239 L303.367829,212.658611 C309.564585,212.650298 315.744759,211.277305 320.454192,208.532597 C329.897932,203.029753 329.848184,194.113291 320.343217,188.610447 C310.842076,183.110801 295.484759,183.108243 286.041019,188.610447 C281.331586,191.355155 278.986437,194.94911 278.992814,198.547541 L234,172.501599 L348.129126,106 L393.632171,132.341389 C393.620691,128.744876 395.965841,125.15156 400.676549,122.406853 C410.119013,116.904009 425.472504,116.904009 434.973007,122.404295 Z"/>
      <polygon fill="#FFF" points="350 238.107 349.9 244 304 217.893 304.1 212"/>
      <polygon stroke="#171717" points="350 238.107 349.9 244 304 217.893 304.1 212"/>
      <path fill="#FFF" d="M395.359,247 L395.514,212.129562 C395.515,211.752191 395.558,211.375458 395.641,211 L395.486,245.871076 C395.403,246.245896 395.36,246.622629 395.359,247"/>
      <path stroke="#171717" d="M395.359,247 L395.514,212.129562 C395.515,211.752191 395.558,211.375458 395.641,211 L395.486,245.871076 C395.403,246.245896 395.36,246.622629 395.359,247 Z"/>
      <polygon fill="#FFF" points="578 238 577.901 244.891 533 271 533.099 264.109"/>
      <polygon stroke="#171717" points="578 238 577.901 244.891 533 271 533.099 264.109"/>
      <polygon fill="#FFF" points="395 265.202 394.9 300 349 273.798 349.1 239"/>
      <polygon stroke="#171717" points="395 265.202 394.9 300 349 273.798 349.1 239"/>
      <path fill="#FFF" d="M558,279.048102 L557.900341,285.94332 C557.890054,289.535555 555.522674,293.122018 550.793059,295.863815 C541.27789,301.378835 525.800551,301.379477 516.219158,295.861249 C511.438748,293.108549 509.03472,287.686526 509,284.076974 L509.099659,279 C509.133736,282.60891 511.538407,286.213331 516.318173,288.966031 C525.90021,294.483617 541.377549,294.483617 550.892717,288.967955 C555.622333,286.226158 557.989713,282.640337 558,279.048102"/>
      <path stroke="#171717" d="M558,279.048102 L557.900341,285.94332 C557.890054,289.535555 555.522674,293.122018 550.793059,295.863815 C541.27789,301.378835 525.800551,301.379477 516.219158,295.861249 C511.438748,293.108549 509.03472,287.686526 509,284.076974 L509.099659,279 C509.133736,282.60891 511.538407,286.213331 516.318173,288.966031 C525.90021,294.483617 541.377549,294.483617 550.892717,288.967955 C555.622333,286.226158 557.989713,282.640337 558,279.048102 Z"/>
      <path fill="#FFF" d="M371,313.884393 L371.099689,279 C371.090045,282.618978 373.496579,286.242419 378.316078,289.00177 C387.893353,294.486673 403.379272,294.486673 412.894181,289.00177 C417.642956,286.264739 420.007057,282.681473 420,279.092467 L419.900971,313.977498 C419.906757,317.565866 417.5433,321.14977 412.795168,323.886801 C403.279616,329.371066 387.793697,329.371066 378.216422,323.886801 C373.397566,321.126812 370.989746,317.503371 371,313.884393"/>
      <path stroke="#171717" d="M371,313.884393 L371.099689,279 C371.090045,282.618978 373.496579,286.242419 378.316078,289.00177 C387.893353,294.486673 403.379272,294.486673 412.894181,289.00177 C417.642956,286.264739 420.007057,282.681473 420,279.092467 L419.900971,313.977498 C419.906757,317.565866 417.5433,321.14977 412.795168,323.886801 C403.279616,329.371066 387.793697,329.371066 378.216422,323.886801 C373.397566,321.126812 370.989746,317.503371 371,313.884393 Z"/>
      <polygon fill="#FFF" points="464 304.955 463.901 310 419 284.045 419.098 279"/>
      <polygon stroke="#171717" points="464 304.955 463.901 310 419 284.045 419.098 279"/>
      <polygon fill="#FFF" points="509 279 508.9 285.787 463 310 463.1 305.003"/>
      <polygon stroke="#171717" points="509 279 508.9 285.787 463 310 463.1 305.003"/>
      <path fill="#FFF" d="M578,238.49936 L533.293957,264.549127 C539.490834,264.556801 545.686436,265.931106 550.42785,268.675879 C559.933003,274.177577 559.982752,283.094253 550.538828,288.597229 C541.100644,294.097008 525.746854,294.097008 516.241702,288.595311 C511.500287,285.850538 509.11491,282.256496 509.081107,278.657978 L463.873752,305 L418.879422,278.953431 C418.8858,282.552589 416.541243,286.145991 411.830442,288.890764 C402.391621,294.390543 387.029539,294.390543 377.528851,288.890764 C368.028164,283.390985 367.977777,274.468553 377.416598,268.968775 C382.127399,266.224641 388.307055,264.850336 394.503933,264.842022 L349,238.50064 L395.303098,211.519748 C394.739919,215.514762 397.101059,219.624247 402.379503,222.680462 C411.884655,228.182799 427.237808,228.182799 436.676629,222.68302 C446.120553,217.180043 446.070166,208.263367 436.565014,202.760391 C431.286571,199.704816 424.201236,198.347138 417.325738,198.687357 L463.126886,172 L578,238.49936 Z"/>
      <path stroke="#171717" d="M578,238.49936 L533.293957,264.549127 C539.490834,264.556801 545.686436,265.931106 550.42785,268.675879 C559.933003,274.177577 559.982752,283.094253 550.538828,288.597229 C541.100644,294.097008 525.746854,294.097008 516.241702,288.595311 C511.500287,285.850538 509.11491,282.256496 509.081107,278.657978 L463.873752,305 L418.879422,278.953431 C418.8858,282.552589 416.541243,286.145991 411.830442,288.890764 C402.391621,294.390543 387.029539,294.390543 377.528851,288.890764 C368.028164,283.390985 367.977777,274.468553 377.416598,268.968775 C382.127399,266.224641 388.307055,264.850336 394.503933,264.842022 L349,238.50064 L395.303098,211.519748 C394.739919,215.514762 397.101059,219.624247 402.379503,222.680462 C411.884655,228.182799 427.237808,228.182799 436.676629,222.68302 C446.120553,217.180043 446.070166,208.263367 436.565014,202.760391 C431.286571,199.704816 424.201236,198.347138 417.325738,198.687357 L463.126886,172 L578,238.49936 Z"/>
      <path fill="#FFF" d="M302.641,264 L302.486,298.870438 C302.485,299.247171 302.442,299.624542 302.359,300 L302.514,265.128924 C302.597,264.754104 302.64,264.376733 302.641,264"/>
      <path stroke="#171717" d="M302.641,264 L302.486,298.870438 C302.485,299.247171 302.442,299.624542 302.359,300 L302.514,265.128924 C302.597,264.754104 302.64,264.376733 302.641,264 Z"/>
      <path fill="#FFF" d="M254,271.015 L254.100757,264 C254.09036,267.586174 256.523222,271.177404 261.394145,273.912376 C266.771915,276.931713 273.995124,278.270762 281,277.934578 L280.899281,284.949578 C273.893755,285.28513 266.671195,283.946081 261.293426,280.926743 C256.422503,278.191772 253.988991,274.600542 254,271.015"/>
      <path stroke="#171717" d="M254,271.015 L254.100757,264 C254.09036,267.586174 256.523222,271.177404 261.394145,273.912376 C266.771915,276.931713 273.995124,278.270762 281,277.934578 L280.899281,284.949578 C273.893755,285.28513 266.671195,283.946081 261.293426,280.926743 C256.422503,278.191772 253.988991,274.600542 254,271.015 Z"/>
      <polygon fill="#FFF" points="282 332.72 281.901 338 234 312.091 234.099 305"/>
      <polygon stroke="#171717" points="282 332.72 281.901 338 234 312.091 234.099 305"/>
      <polygon fill="#FFF" points="350 371.81 349.9 379 302 349.355 302.1 344"/>
      <polygon stroke="#171717" points="350 371.81 349.9 379 302 349.355 302.1 344"/>
      <path fill="#FFF" d="M303,347.144679 L302.900337,354.157526 C302.89005,357.693643 300.526436,361.224074 295.800496,363.923072 C286.280459,369.358976 270.802523,369.358976 261.219473,363.923072 C256.397728,361.188062 253.989106,357.598243 254,354.013478 L254.099057,347 C254.089412,350.584765 256.497391,354.174584 261.319779,356.910226 C270.902185,362.34613 286.379479,362.34613 295.900159,356.909594 C300.639602,354.203646 302.386592,352.020187 303,347.144679"/>
      <path stroke="#171717" d="M303,347.144679 L302.900337,354.157526 C302.89005,357.693643 300.526436,361.224074 295.800496,363.923072 C286.280459,369.358976 270.802523,369.358976 261.219473,363.923072 C256.397728,361.188062 253.989106,357.598243 254,354.013478 L254.099057,347 C254.089412,350.584765 256.497391,354.174584 261.319779,356.910226 C270.902185,362.34613 286.379479,362.34613 295.900159,356.909594 C300.639602,354.203646 302.386592,352.020187 303,347.144679 Z"/>
      <path fill="#FFF" d="M464,304.49968 L349.873752,371 L302.447486,343.545364 C303.865956,347.946445 301.663628,352.657686 295.821368,356.061138 C286.378082,361.563448 271.025568,361.563448 261.519777,356.061777 C252.014625,350.558827 251.964876,341.642194 261.407524,336.139884 C267.249784,332.735153 275.354963,331.440793 282.935869,332.250408 L235,304.50032 L280.801148,277.813091 C273.925012,278.153308 266.835851,276.798195 261.557408,273.741995 C252.056082,268.242243 252.006333,259.319854 261.445155,253.820102 C270.889078,248.317152 286.246695,248.31971 295.746746,253.819462 C301.025827,256.875022 303.386967,260.985767 302.823789,264.980122 L349.126886,238 L394.630819,264.341895 C388.438406,264.347011 382.254285,265.723228 377.543485,268.467989 C368.104663,273.968381 368.150585,282.887572 377.655738,288.390522 C387.156426,293.890274 402.518507,293.890274 411.957329,288.390522 C416.668129,285.645762 419.017789,282.049179 419.006308,278.453237 L464,304.49968 Z"/>
      <path stroke="#171717" d="M464,304.49968 L349.873752,371 L302.447486,343.545364 C303.865956,347.946445 301.663628,352.657686 295.821368,356.061138 C286.378082,361.563448 271.025568,361.563448 261.519777,356.061777 C252.014625,350.558827 251.964876,341.642194 261.407524,336.139884 C267.249784,332.735153 275.354963,331.440793 282.935869,332.250408 L235,304.50032 L280.801148,277.813091 C273.925012,278.153308 266.835851,276.798195 261.557408,273.741995 C252.056082,268.242243 252.006333,259.319854 261.445155,253.820102 C270.889078,248.317152 286.246695,248.31971 295.746746,253.819462 C301.025827,256.875022 303.386967,260.985767 302.823789,264.980122 L349.126886,238 L394.630819,264.341895 C388.438406,264.347011 382.254285,265.723228 377.543485,268.467989 C368.104663,273.968381 368.150585,282.887572 377.655738,288.390522 C387.156426,293.890274 402.518507,293.890274 411.957329,288.390522 C416.668129,285.645762 419.017789,282.049179 419.006308,278.453237 L464,304.49968 Z"/>
      <polygon fill="#FFF" points="465 305 464.901 312.137 350 379 350.1 371.863"/>
      <polygon stroke="#171717" points="465 305 464.901 312.137 350 379 350.1 371.863"/>
      <path fill="#0048FA" d="M208,204 L207.902714,213.1188 C207.891974,216.666373 205.56595,220.208878 200.919586,222.915953 C196.253639,225.634428 190.132821,226.995566 184,227 L184.097918,217.8812 C190.230739,217.875499 196.352189,216.515628 201.017504,213.797153 C205.664499,211.088811 207.989892,207.547572 208,204"/>
      <path stroke="#121212" d="M208,204 L207.902714,213.1188 C207.891974,216.666373 205.56595,220.208878 200.919586,222.915953 C196.253639,225.634428 190.132821,226.995566 184,227 L184.097918,217.8812 C190.230739,217.875499 196.352189,216.515628 201.017504,213.797153 C205.664499,211.088811 207.989892,207.547572 208,204 Z"/>
      <path fill="#0048FA" d="M183,269.931591 L182.900306,278 C182.90995,274.428314 180.503289,270.854739 175.687393,268.131895 C166.105112,262.713284 150.627377,263.711366 141.107464,269.129977 C136.377728,271.821336 134.010288,272.559979 134,276.086327 L134.099661,269.803761 C134.109949,266.276154 136.477389,262.755474 141.207126,260.063486 C150.727038,254.645505 166.204773,254.645505 175.787055,260.063486 C180.60295,262.78633 183.010255,266.359905 183,269.931591"/>
      <path stroke="#121212" d="M183,269.931591 L182.900306,278 C182.90995,274.428314 180.503289,270.854739 175.687393,268.131895 C166.105112,262.713284 150.627377,263.711366 141.107464,269.129977 C136.377728,271.821336 134.010288,272.559979 134,276.086327 L134.099661,269.803761 C134.109949,266.276154 136.477389,262.755474 141.207126,260.063486 C150.727038,254.645505 166.204773,254.645505 175.787055,260.063486 C180.60295,262.78633 183.010255,266.359905 183,269.931591 Z"/>
      <polygon fill="#0048FA" points="230 244 229.9 252.153 183 279 183.101 270.847"/>
      <polygon stroke="#121212" points="230 244 229.9 252.153 183 279 183.101 270.847"/>
      <path fill="#0048FA" d="M201.46724,194.111407 C210.972207,199.613611 211.021955,208.530713 201.579491,214.032917 C196.868783,216.777624 190.689246,218.151257 184.497592,218.157013 L230,244.497762 L183.693341,271.480563 C184.260973,267.483087 181.899878,263.3737 176.621538,260.317559 C167.116571,254.815355 151.76308,254.815355 142.320616,260.317559 C132.876876,265.820403 132.927261,274.736865 142.431591,280.239709 C147.710569,283.295211 154.795128,284.652856 161.675594,284.310087 L115.870874,311 L1,244.501599 L115.129126,178 L160.12194,204.045943 C160.11046,200.44943 162.45561,196.856114 167.166318,194.111407 C176.60942,188.609202 191.966738,188.61112 201.46724,194.111407"/>
      <path stroke="#121212" d="M201.46724,194.111407 C210.972207,199.613611 211.021955,208.530713 201.579491,214.032917 C196.868783,216.777624 190.689246,218.151257 184.497592,218.157013 L230,244.497762 L183.693341,271.480563 C184.260973,267.483087 181.899878,263.3737 176.621538,260.317559 C167.116571,254.815355 151.76308,254.815355 142.320616,260.317559 C132.876876,265.820403 132.927261,274.736865 142.431591,280.239709 C147.710569,283.295211 154.795128,284.652856 161.675594,284.310087 L115.870874,311 L1,244.501599 L115.129126,178 L160.12194,204.045943 C160.11046,200.44943 162.45561,196.856114 167.166318,194.111407 C176.60942,188.609202 191.966738,188.61112 201.46724,194.111407 Z"/>
      <polygon fill="#0048FA" points="162 284 161.901 292.221 116 319 116.1 310.779"/>
      <polygon stroke="#121212" points="162 284 161.901 292.221 116 319 116.1 310.779"/>
      <polygon fill="#0048FA" points="116 310.772 115.9 319 0 252.227 .1 244"/>
      <polygon stroke="#121212" points="116 310.772 115.9 319 0 252.227 .1 244"/>
    </g>
    <text fill="#121212" font-family="NotoSansCJKkr-Bold, Noto Sans CJK KR" font-size="40" font-weight="bold" transform="translate(232 3478)">
      <tspan x="16" y="46">엑심베이는 비즈니스별 </tspan> <tspan x="16" y="105">특화 서비스를 제공합니다. </tspan>
    </text>
    <g fill="#D8D8D8" opacity="0" transform="translate(0 56)">
      <rect width="1799" height="150" y="3212"/>
      <rect width="1799" height="150" y="3770"/>
    </g>
  </g>
</svg>
