<svg height="540" viewBox="0 0 813 540" width="813" xmlns="http://www.w3.org/2000/svg" xmlns:xlink="http://www.w3.org/1999/xlink"><defs><path id="a" d="m0 0h1802v540h-1802z"/><mask id="b" fill="#fff"><use fill="#fff" fill-rule="evenodd" xlink:href="#a"/></mask></defs><g fill="none" fill-rule="evenodd" transform="translate(-989)"><use fill="#fff" xlink:href="#a"/><g mask="url(#b)" stroke="#0049f8"><path d="m146 55c19.595 6.983 45.527 3.95 66.303 6.725 19.076 2.549 36.43 8.836 54.962 12.807 19.716 4.226 40.3 3.79 60.343 7.998 23.09 4.847 46.701 6.87 69.7 11.997 13.281 2.96 26.679 4.719 39.721 6.994 8.122 1.416 17.677 4.785 25.971 4.457m2 1.022c1.462 16.934-.332 34.274 1.737 51.141 1.898 15.476 1.068 35.295 1.158 50.859" transform="matrix(-1 0 0 1 1833 -30)"/><path d="m474 207.752c-18.084 1.508-38.946-4.287-57.08-5.895-20.777-1.843-40.97-4.262-61.877-5.252-33.45-1.58-66.263-5.25-99.44-7.16-20.869-1.2-41.884-3.12-62.621-5.161-10.118-.995-19.602-2.902-29.78-2.89-6.029.005-23.193-.006-25.202-4.394" transform="matrix(-1 0 0 1 1833 -30)"/><path d="m474.825 209.591c.398 1.513.01 3.798-.117 5.315-13.595.653-27.262-2.283-41.018-2.987-16.303-.834-32.339-2.163-48.36-3.121-36.266-2.17-71.726-8.183-107.85-11.624-25.017-2.38-60.024-3.402-84.906-6.207-20.653-2.327-48.19-3.103-53.543-3.88-.214-3.706.764-3.879 0-10.087" transform="matrix(-1 0 0 1 1833 -30)"/><path d="m474.163 214.457c10.128.863 22.093 6.114 34.425 9.343 10.9 2.853 21.711 5.738 32.11 9.914 18.666 7.496 37.417 14.024 57.278 14.418.292 5.745-2.178 6.747-1.413 10.56-14.927 1.263-26.756-1.735-42.075-2.287-18.94-.683-46.146-3.002-65.022-3.813-28.677-1.235-61.102-7.235-89.504-8.39-37.485-1.526-81.203-3.394-123.164-5.34-27.014-1.253-44.319-2.798-71.143-4.576 3.09-5.054 2.56-14.177 2.178-20.477-11.008.007-26.646-9.9-37.371-13.23-4.565-1.417-30.748-10.606-28.301-13.579" transform="matrix(-1 0 0 1 1833 -30)"/><path d="m598 249c-21.467-.778-34.863-.254-46-2.333-15.834-2.956-32.997-4.521-49.068-5.445-40.63-2.335-73.472-8.265-114.062-10.114-20.622-.939-39.448-2.404-59.97-4.665-17.061-1.88-36.46-2.438-53.67-4.061-13.896-1.31-23.678-.914-36.798-3.716-14.566-3.11-20.699-3.888-31.432-4.666m-56.704-160c2.179 42.648-1.405 83.413-1.293 125m-1.003-125.132c-1.59-.828-4.415-1.106-6.692-.649 2.807 24.54 1.396 50.918-.75 75.473-2.132 24.428-2.01 50.745-.035 75.586.537 6.747-1.193 22.523 1.36 26.722" transform="matrix(-1 0 0 1 1833 -30)"/><path d="m151 193c-.017 2.173-.034 3.427 0 6.231.031 2.652-7.031 1.99-9 2.769m455 55.29c-6.447 22.1-32.92 17.358-39.322-1.374 1.152 9.8-3.323 17.262-13.315 15.583-9.237-1.555-12.772-9.936-15.544-17.488-1.069 8.476-9.575 18.273-18.241 17.49-9.7-.874-14.573-11.187-17.305-19.79-2.51 8.593-10.662 13.101-18.835 13.103-11.309.001-15.32-7.702-20.249-17.305-.404 10.42-13.784 16.1-22.174 15.633-9.734-.541-14.1-9-17.308-18.137-1.151 10.327-14.417 15.8-22.759 15.627-11.406-.237-16.05-9.293-22.001-18.056-12.954 16.717-40.618 19.125-51.066-1.666-4.903 9.451-15.083 15.303-25.143 15.544-13.125.316-19.808-9.229-26.496-19.164-4.698 11.38-20.61 15.72-30.854 15.821-14.231.14-28.326-5.88-31.388-19.111m351.81 12c-.608 2.514-.734 5.3-.531 8m-26.99-10c-.084 3.315 1 8.196 0 9m-35.499-14c-.815 3.93-.532 8.626-.532 13m-38.258-16c-.344 4.04-.143 9.82-1 13m-37.284-15c.384 3.526-.45 6.582-.532 10m-45.184-13c-.708 2.957-1.197 6.645-.923 10m-50.842-16c0 5.497-.06 10.872.532 16m-50.937-18c0 5.23.995 12.112-1.83 16m-119.836-36c2.273.75 12.455 4.883 8.16 8.24-3.762 2.942-10.836-3.375-10.295-6.721 7.013-2.614 16.14-.075 23.295.579 6.784.62 16.263-.09 22.676 2.094m18 8.502c-9.252 1.24-19.754-1.694-29.385-1.694h-25.615m58 8c-8.562 0-21.303-.688-31.364-.668-8.263.018-21.08 1.077-28.636-1.332m0-5c-1.79 6.014-3.308 12.908-8 17m66-5c-19.361-.836-41.175.183-60-3m59 9c-21.87 0-43.294-2-65-2m-1-175c-9.862 10.753-23.45 17.831-33.222 29.018-8.18 9.366-21.26 26-29.81 35.087-18.92 20.109-21.961 26.357-42.278 45.789-8.161 7.804-13.63 13.107-22.292 20.605.272 1.196-16.146 14.661-15.371 14.501m143.973-131c-5.06.9-8.972 8.575-12.494 12.027-4.426 4.34-9.23 7.962-13.773 12.204-9.377 8.753-19.715 15.573-28.444 25.221-16.254 17.967-33.239 35.076-49.524 53.079-10.873 12.015-22.483 29.692-37.765 36.469m149-138c16.347 3.928 34.292 5.092 51.15 8.633 14.135 2.968 29.268 1.406 43.474 4.275 31.635 6.388 62.793 10.815 94.535 15.573 22.735 3.408 45.709 6.11 68.112 9.81 10.08 1.664 19.875 3.207 29.773 5.724 5.62 1.43 23.488 2.343 25.956 5.985m.525-14.002c.882.05 2.847-.89 4.456-.095-.037-.255-.03-1.844.019-2.092-13.508.918-30.351-3.504-43.51-6.224-13.832-2.86-27.436-5.954-41.294-9.388-28.445-7.05-59.024-5.255-87.29-12.07-27.075-6.528-55.472-10.76-82.703-16.076-13.284-2.593-28.415-2.528-42.056-3.913-5.749-.585-30.625-8.152-32.147-3.793m150.113 47.526c-12.602 1.325-25.864-3.608-37.893-5.972-11.816-2.32-24.766-2.995-36.226-5.901-1.395 3.358-.969 7.319-.792 11.01 13.084-1.632 25.792.903 38.703 2.38 12.343 1.41 24.86 6.542 36.85 6.61.134-2.34.406-5.01.116-7.378" transform="matrix(-1 0 0 1 1833 -30)"/><path d="m290.98 109.925c.027.994.054 1.941-.114 2.904-12.052 1.248-27.331-4.71-39.639-5.925-13.592-1.341-26.174-4.053-40.227-3.714 2.267-3.463 2.622-8.103 1.316-11.974.94-.197 2.006-.285 2.981-.153m-.297 10.937c-.058 19.353-3.532 38.79-2.93 58" transform="matrix(-1 0 0 1 1833 -30)"/><path d="m287.192 112c0 8.844 1.105 18.407.73 26.797-.188 4.243-1.896 7.33-2.352 11.316-.354 3.104.766 9.533-.57 10.887m-5.169-48c0 8.013.38 14.93 0 22.759-.266 5.5-.054 18.402-1.831 21.241m-55-54c-.05 16.78-3.936 36.129-2.788 51m-6.212-53c-.062 18.833-8.755 40.736-3.075 59" transform="matrix(-1 0 0 1 1833 -30)"/><path d="m209.65 170c-4.251-13.732 13.621-20.56 16.749-7.824-1.44-4.593 4.212-8.592 5.825-3.71.537-3.155 2.554-3.987 5.325-2.734.695-4.689 7.709-6.013 11.257-3.434 3.142 2.284 5.554 12.486-.75 9.938" transform="matrix(-1 0 0 1 1833 -30)"/><path d="m216 169.687c-4.133-4.793-14.762-2.663-8.88 2.372-2.491-1.139-5.113-1.858-7.923-1.608-.71 2.705.504 4.328 3.566 4.549m49.237-17.059c3.301-5.456 15.978-10.355 14.567.684-.292.273-.311.26-.055-.04 3.279-3.26 7.396-2.538 7.268 2.608 1.726-2.67 8.481-2.056 5.446 3.807" transform="matrix(-1 0 0 1 1833 -30)"/><path d="m280 161.221c6.48-3.99 17.203 2.774 9.122 6.342 6.133-1.007 8.682 6.999 1.615 7.05 6.703.362 2.837 7.555-1.856 4.732m-6.501-6.345c8.624 6.946-6.265 14.713-12.703 6.403-.315 4.974-8.034 4.231-9.635.019-1.829 4.93-6.842.238-5.933-2.289m-3.109 2.374c-2.638 3.372-10.145 3.904-9.735-2.076-.79 7.487-11.714 4.1-11.958-2.304-1.762 6.34-7.63 1.947-8.251-2.54-.61-4.42 3.903-10.356 6.735-6.15m-6.791 11.66c-2.051 2.558-6.62 2.92-6.122-1.306.002-.028 1.022 1.326.763 1.327-1.321 1.01-2.332.397-4.048.675-1.266-2.719-.343-3.347 1.242-4.793" transform="matrix(-1 0 0 1 1833 -30)"/><path d="m260.858 166.553c2.597-2.483 2.458-7.644-1.408-8.553-.39 3.582 1.18 6.616 2.211 9.853-1.852-2.632-4.54-4.072-7.62-3.542-.854 8.783 11.945-.08 15.959.789-.48 4.454-5.673 4.754-8.873 2.948 10.718 5.648-2.2 11.755.54 1.145-.546 3.287-1.562 4.065-4.542 4.322-.46-2.842.966-2.988 2.962-3.815m-22.214-4.682c2.612-1.871 3.886-4.8 3.768-7.963-1.004-.067-1.853-.087-2.855.021-1.004 2.51-1.53 4.937-1.653 7.657-1.839-3.251-4.844-3.976-7.133-1.31 3.895 3.873 14.545-1.057 13.978 5.515-2.983.793-5.655-.34-7.542-2.87.672 3.095.194 5.976-2.49 6.932-2.578-3.33-.964-6.76 2.371-5.557m46.063 3.867c1.497-1.873 2.373-4.674 2.316-7.31-3.715 1.005-3.617 5.758-2.032 8.007-1.565-2.613-3.86-4.038-6.664-3.872.154 3.602 3.352 4.711 6.946 3.999-4.34-.586-7.492 2.457-4.675 5.866 3.537-2.825 5.05-9.596 10.729-5.866-2.118 1.155-5.418 1.149-7.434 0m-58.016-6.14c.535-3.29.777-6.723-2.773-6.994-.52 2.886.752 5.356 3.223 6.923-2.006-3.097-5.457-5.356-8.979-5.501-.429 4.604 5.824 5.67 7.81 5.572m58.169-53.994c-2.84 6.188-1.2 17.615-1.2 24.774 0 8.394-1.866 15.427-1.798 23.226m-26.235-52c0 15.364-.534 30.506-.534 46m-.467-48c0 16.884-.532 33.02-.532 50" transform="matrix(-1 0 0 1 1833 -30)"/><path d="m279 114c-8.126-3.04-19.75-4.224-29.027-5.349-7.573-.917-19.28.541-25.973-2.651m52 23c-17.005-2.127-36.971-3.928-53-8m57 10c-18.68-2.343-39.249-8.567-58-7.958m56 26.015c-8.315 3.139-26.003-2.495-35.108-3.29-7.453-.65-16.732-2.398-23.892-1.53m61 1.316c-7.402 3.617-21.58-.515-29.288-1.93-9.833-1.806-19.324-3.59-29.712-3.623m63.303 38c2.848.477 5.656 2.023 6.697 4.641-2.14 2.47-5.86 2.627-8.207.232-1.55 2.793-.486 2.172-3.66 1.344-1.661 2.274-3.866 2.563-5.133-.247m-16.374-.6c1.725 5.403-2.956 3.979-5.085.869-1.424 3.231-4.692 3.056-6.926.615-2.91 2.498-6.472 1.687-8.992-1.151-2.394.845-5.067.625-7.39-.468-.696-1.512.368-1.541.616-2.235m-19.849-.444c-3.27.858-15.653.909-10.807-3.935-3.603 1.8-7.005-.28-6.021-4.467 2.803-.796 3.267-1.237 5.437.483-7.097-.38-.442-8.48 5.632-5.391-3.614-4.089.934-6.53 3.335-4.541m219.573-42.425c-12.106 1.26-24.843-3.43-36.398-5.674-11.348-2.204-23.79-2.846-34.796-5.606-1.34 3.19-.931 6.953-.761 10.46 12.567-1.551 24.775.857 37.176 2.26 11.855 1.34 23.877 6.215 35.396 6.28.129-2.224.389-4.76.11-7.01" transform="matrix(-1 0 0 1 1833 -30)"/><path d="m428.981 127.065c.026.95.05 1.852-.11 2.772-11.447 1.19-25.962-4.497-37.655-5.655-12.912-1.28-24.866-3.87-38.216-3.545 2.154-3.306 2.49-7.736 1.25-11.431.892-.187 1.905-.272 2.833-.147m-1.083 11.941c-.06 17.685-3.531 35.445-2.93 53" transform="matrix(-1 0 0 1 1833 -30)"/><path d="m425.191 130c0 8.302 1.106 17.28.732 25.155-.19 3.986-1.896 6.882-2.352 10.625-.355 2.913.766 8.949-.571 10.22m-5.168-45c0 7.65.378 14.252 0 21.724-.268 5.252-.055 17.567-1.832 20.276m-54-51c-.051 16.452-3.937 35.42-2.787 50m-4.213-51c-.064 17.557-8.754 37.975-3.075 55" transform="matrix(-1 0 0 1 1833 -30)"/><path d="m350.62 183c-4.053-12.287 12.988-18.396 15.972-7-1.376-4.11 4.014-7.688 5.553-3.32.51-2.824 2.434-3.568 5.077-2.446.66-4.195 7.35-5.38 10.732-3.074 2.997 2.043 5.296 11.172-.714 8.892" transform="matrix(-1 0 0 1 1833 -30)"/><path d="m357 184.687c-4.132-4.793-14.762-2.662-8.88 2.373-2.49-1.14-5.114-1.858-7.924-1.608-.708 2.703.505 4.327 3.567 4.548m47.237-18.058c3.184-5.457 15.407-10.356 14.047.684-.283.272-.3.26-.054-.04 3.163-3.261 7.132-2.538 7.01 2.607 1.661-2.67 8.178-2.056 5.251 3.807m1.746-1.84c6.049-3.791 16.057 2.636 8.514 6.025 5.724-.957 8.104 6.649 1.507 6.7 6.256.34 2.648 7.174-1.733 4.493m-6.738-6.378c8.067 6.946-5.862 14.713-11.884 6.404-.295 4.975-7.514 4.23-9.014.019-1.71 4.93-6.4.236-5.55-2.29m-4.102 2.521c-2.55 3.173-9.806 3.674-9.41-1.954-.765 7.045-11.323 3.857-11.562-2.17-1.701 5.967-7.376 1.834-7.974-2.39-.59-4.159 3.773-9.745 6.511-5.789m-5.565 10.746c-2.052 2.558-6.619 2.919-6.121-1.306 0-.028 1.02 1.325.762 1.327-1.32 1.012-2.33.398-4.048.674-1.267-2.718-.341-3.345 1.242-4.792" transform="matrix(-1 0 0 1 1833 -30)"/><path d="m401.858 181.05c2.596-2.337 2.459-7.194-1.406-8.05-.39 3.37 1.18 6.227 2.21 9.275-1.853-2.478-4.541-3.833-7.621-3.334-.853 8.265 11.944-.076 15.959.741-.48 4.191-5.674 4.475-8.872 2.775 10.715 5.315-2.2 11.064.54 1.077-.547 3.093-1.563 3.826-4.542 4.068-.46-2.675.965-2.813 2.962-3.59m-24.215-3.494c2.612-1.754 3.887-4.502 3.769-7.466-1.006-.063-1.854-.081-2.856.02-1.004 2.352-1.53 4.628-1.652 7.177-1.84-3.047-4.845-3.727-7.134-1.228 3.895 3.632 14.547-.992 13.978 5.172-2.982.742-5.655-.319-7.543-2.691.673 2.901.195 5.604-2.492 6.498-2.577-3.12-.962-6.338 2.375-5.21m45.589 3.998c1.153-1.738 1.825-4.34 1.782-6.788-2.857.934-2.782 5.347-1.564 7.434-1.203-2.424-2.967-3.748-5.125-3.593.119 3.345 2.578 4.373 5.344 3.712-3.339-.543-5.764 2.283-3.597 5.447 2.721-2.623 3.884-8.909 8.253-5.447-1.63 1.072-4.167 1.068-5.718 0m-56.682-5.558c.475-2.82.69-5.763-2.465-5.995-.461 2.474.669 4.591 2.865 5.935-1.783-2.656-4.85-4.593-7.981-4.717-.38 3.948 5.176 4.86 6.941 4.777m55.04-51.995c-2.84 5.802-1.198 16.515-1.198 23.225 0 7.872-1.868 14.465-1.8 21.775m-23.25-48c0 14.695-.505 29.18-.505 44m-.495-47c0 16.208-.505 31.7-.505 48" transform="matrix(-1 0 0 1 1833 -30)"/><path d="m417 131c-7.535-3.038-18.313-4.223-26.916-5.349-7.022-.917-17.877.54-24.084-2.651m48 23c-16.365-2.127-35.575-3.927-51-8m52 9c-17.07-2.05-35.865-7.497-53-6.963m53 24.019c-7.752 3.14-24.24-2.494-32.728-3.289-6.947-.65-15.599-2.398-22.272-1.53" transform="matrix(-1 0 0 1 1833 -30)"/><path d="m417 162.553c-6.9 3.617-20.118-.515-27.302-1.93-9.166-1.807-18.014-3.59-27.698-3.623m60.303 36c2.848.477 5.655 2.024 6.697 4.64-2.139 2.47-5.86 2.628-8.207.233-1.55 2.792-.486 2.171-3.659 1.344-1.662 2.274-3.866 2.563-5.134-.247m-14.361-1.6c1.665 5.402-2.855 3.98-4.91.869-1.376 3.231-4.53 3.056-6.687.614-2.808 2.498-6.248 1.687-8.681-1.15-2.312.845-4.893.625-7.136-.468-.673-1.511.356-1.541.595-2.235m-19.82-.397c-3.076.768-14.733.813-10.172-3.522-3.392 1.61-6.592-.25-5.666-3.995 2.637-.713 3.073-1.109 5.116.432-6.68-.343-.415-7.588 5.301-4.825-3.401-3.658.881-5.84 3.14-4.063m-202.012 53.37c-1.638 17.05 3.263 35.284 2.118 52.527-.631 9.49-2.118 18.41-2.118 28.26 0 7.598.703 14.766.694 22.32-.013 12.633-1.586 24.742-3.623 36.659-2.233 13.06.991 25.19 1.577 38.187.588 13.007-2.493 25.463-2.27 38.047m-1.085 0c-10.566-6.234-24.045-5.54-35.709-8.272-12.44-2.917-23.797-6.945-35.484-12.02-19.412-8.432-40.498-8.145-59.807-14.708" transform="matrix(-1 0 0 1 1833 -30)"/><path d="m143 440.999c-12.004.09-25.761-5.176-37.496-7.866-11.457-2.627-22.668-5.027-33.962-7.52-17.576-3.88-37.622-12.022-53.542-14.613m445 26c-1.657-5.673.735-38.745-12.166-34.65-8.181 2.597 3.928 25.461 4.185 30.167m5.981-16.517c-2.74-3.463-8.74-5.4-13-6" transform="matrix(-1 0 0 1 1833 -30)"/><path d="m462 436.821c-2.127-1.65-4.28-3.415-6.577-4.821-.216.546-.449 2.52-.42 3.033 2.376 1.03 4.331 2.74 6.465 3.967.727-.744.455-1.228.532-2.179m20 .179c-5.901 1.278-12.487 1.023-19 2m0-2.341c6.283-.137 13.569.223 19-.318m1-5.341c-6.15-3.83-13.266-.993-20-.933m-1.726 22.933c.154-4.133.617-9.186.391-14m-.665 23.743c-.383 1.678.248 5.807-2 5.196.456-2.132.414-3.87 1.091-5.939m2.764-23c0 4.355-.261 8.699-.71 13m26.055-4c.004 7.073 1.155 11.928.69 19-1.464-.195-2.258-11.077-1.722-14.923m-36.022 8.821c-.304 1.869-2.59 5.672.298 6.102.676-.944 1.39-4.608 1.556-7m3-13c.939 1.795 3.937 3.357 6 5m-1 0c-1.66-1.198-5.535-2.7-6-5m23.745-8c-.018 4.662-.645 9.341-.454 14m-2.201-1c.01-4.851 1.055-9.537.77-14m5.14 10c-.73-.566-1.408-1.232-2-2 .63.086 1.227.317 1.796.655" transform="matrix(-1 0 0 1 1833 -30)"/><path d="m478.658 446.624c-5.011.45-21.134 1.57-22.658 1.347 1.524-.226 8.719-1.291 12.116-1.289 2.013.002 4.063.117 6.071-.002.947-.056 6.588-.902 4.25-.624m24.381-39.636c6.166.28 27.526-2.049 30.182 3.302-7.76 4.13-27.217 1.32-36.355 1.627-6.152.207-12.36 0-18.519 0-3.152 0-7.225.06-9.666-1.394-4.528-5.177 25.635-3.93 34.358-3.534zm30.182 4.58c-.06 6.114-1.874 12.13-1.339 18.26-6.364-.78-12.253 2.022-18.473 2.662-6.545.676-11.78-3.278-18.188-3.242m-27.327-17.68c.141 4.88-1.015 9.772-.57 14.075.238 2.298 8.952 1.563 15.897 2.925" transform="matrix(-1 0 0 1 1833 -30)"/><path d="m526.12 429c.53 7.44 1.415 18.172.45 25.945-.69.074-1.27.072-1.96 0-.33-7.656 1.61-18.271-.61-25.324m-20.63 1.007c.95 7.512.62 13.46.33 21.327-.6.056-1.102.069-1.7-.014.457-6.895 0-16.925 0-21.941m51.1-5.422c-.539-8.538.7-31.465 13.992-30.551 3.055 5.737-2.38 12.165-4.818 17.326-2.984 6.317-3.183 12.706-4.103 19.38.16.834-.462-.537-.727-.687" transform="matrix(-1 0 0 1 1833 -30)"/><path d="m564.431 393c4.857 1.479-3.01 11.482-4.153 15.606-1.8 6.495-2.878 12.564-3.278 17.394m-3.414-2c-5.995.308-14.657.009-20.586.61 6.895 9.08 4.292 6.16 26 5.048" transform="matrix(-1 0 0 1 1833 -30)"/><path d="m558.795 428c.33 1.054.173 2.599.127 3.668-4.742.514-14.154 2.365-18.922 2.332.586-.833.158-1.51.43-2.411m-.43 2.411c-2.647-.517-8.994-5.833-7.867-9m20.867-1c1.882 1.723 4.514 3.84 6 6m-.438 3c.172 2.968.915 14.107 1.216 21.027.207 4.734.788 6.795-1.475 5.674-.25-4.328-2.138-19.535-.867-25.39m-15.436 1.145c-1.854 6.7-.675 14.773-2.45 21.544-.649-.148-1.949-.614-2.55-.922.627-6.282 3.452-15.573 2.399-21.078" transform="matrix(-1 0 0 1 1833 -30)"/><path d="m532.384 427c-.532 7.732.359 13.913-1.384 21 .18-.051 1.324-.103 1.533-.087.458-4.106.66-12.054 1.467-18.868m20.732 4.439c.257 5.513.22 10.88.268 16.42-.219-.02-1.195.045-1.412.096-.582-4.63-.728-12.258-.455-17" transform="matrix(-1 0 0 1 1833 -30)"/><path d="m556.329 446c-4.447.17-10.704.54-16.329.267 3.105.817 6.302.798 10.128.66 1.96-.071 8.08-.709 6.66-.044m-16.788-2.3c-2.14-1.275-4.308-2.973-6-4.583 2.796.746 3.657 2.95 5.744 5m12.256-3.125c-3.598.4-5.328-1.26-9-.694 2.618.249 5.219.317 7.85.492m4.15 1.327c1.576.443 1.305.69 2 2-.878-.904-.788-.814-1.667-1.466m-40.483-38.172c3.13-6.447-.336-14.71-7.873-15.324-9.472-.77-7.875 10.26-7.875 15.962m9.29 25.758c0 5.428.907 11.053.506 16.167-3.004 1.238-1.477-13.185-1.728-16.925m-139.17 36c-1.877-6.97.833-47.601-13.784-42.57-9.268 3.192 4.414 31.422 4.707 37.203m8.077-19.633c-3.373-4.04-10.757-6.301-16-7" transform="matrix(-1 0 0 1 1833 -30)"/><path d="m368 468.2c-2.735-2.122-5.503-4.39-8.456-6.2-.275.703-.577 3.243-.541 3.9 3.056 1.325 5.571 3.523 8.314 5.1.933-.957.584-1.578.683-2.8m1 .372c5.998 4.055 24.45-2.007 32.764-1.547.278 1.358.349 3.413.001 4.764-7.792-1.698-23.808 2.2-32.765.965" transform="matrix(-1 0 0 1 1833 -30)"/><path d="m401 467c-4.219-.956-8.564-5.359-13.337-6.6-4.916-1.277-14.043.911-19.663.911m1 10.46c0 14.175-3.152 26.16-5.974 39.229-.387-.033-1.674-.101-2.026-.043 2.6-12.692 7.465-26.633 5.8-39.957m33.177-.894c-.972 11.718.44 23.946-.108 35.894-3.08-.815-1.293-27.375-1.83-36m-38.862-.687c-.042 12.62-6.07 24.966-5.064 36.858.77.213 1.305.509 1.946.829.458-7.12.369-14.016 1.676-20.69 1.103-5.633 3.536-14.106 1.442-19.31" transform="matrix(-1 0 0 1 1833 -30)"/><path d="m398 486c-12.248 2.53-20.272 2.288-30 4.115 4.526 2.713 22.324-1.683 29.774-1.63-1.013.189-1.198-.44-2.016-.839m-7.83-17.646c0 5.296-1.103 13.63-.804 17" transform="matrix(-1 0 0 1 1833 -30)"/><path d="m385.763 490c0 4.262.985 11.878-1.061 15-1.607-4.53.112-9.431-.333-14.775m1.711-3.225c.014-6 1.124-11.48.772-17m12.148 17.318c-3.58-1.241-7.553-2.795-10-5.318 3.698.33 7.012 4.242 10 6" transform="matrix(-1 0 0 1 1833 -30)"/><path d="m386.22 480.836c-6.91.961-21.175 3.124-27.192 1.682-.669-1.2 10.899-1.62 15.2-1.615 2.546.003 5.141.155 7.683-.003 1.2-.075 8.334-1.196 5.377-.825m31.102-47.513c7.683.372 34.3-2.733 37.61 4.4-9.67 5.509-33.915 1.76-45.303 2.17-7.666.276-15.403 0-23.077 0-3.929 0-9.003.081-12.046-1.858-5.644-6.903 31.943-5.242 42.816-4.712z" transform="matrix(-1 0 0 1 1833 -30)"/><path d="m456 436c-.055 7.965-1.473 14.673-.799 22.458-10.011-1.292-19.725 5.612-29.405 4.398-4.621-.58-8.34-3.198-12.919-3.923-5.173-.82-11.069 1.574-16.877-.702m-21.354-21.231c2.24 5.988-.523 12.712-.646 18.832 6.843 2.267 16.16.674 22 3.168" transform="matrix(-1 0 0 1 1833 -30)"/><path d="m445.533 460c.883 8.87 2.359 21.669.749 30.935-1.15.088-2.117.085-3.266 0-.553-9.129 2.683-21.785-1.016-30.195m-47.287-1.74c.24 1.201.082 2.373-.533 3m-1.719-4c.115 1.678.09 2.36 0 3m25.595-.23c1.423 9.221.93 16.52.493 26.175-.899.068-1.651.084-2.549-.017.684-8.465 0-20.773 0-26.928m66.11-7.639c-.595-10.15.774-37.413 15.46-36.33 4.673 4.326-3.439 14.16-5.323 20.606-2.593 8.87-3.518 15.11-4.534 23.045.177.992-.511-.637-.803-.817" transform="matrix(-1 0 0 1 1833 -30)"/><path d="m495.707 416c7.098 1.824-4.397 14.156-6.07 19.24-2.63 8.007-3.966 16.603-6.637 23.76" transform="matrix(-1 0 0 1 1833 -30)"/><path d="m479.543 453c-7.147.396-17.474.01-24.543.786 8.22 11.673 5.117 7.919 31 6.486" transform="matrix(-1 0 0 1 1833 -30)"/><path d="m485.752 460c.4 1.23.209 3.032.153 4.278-5.74.601-17.133 2.759-22.905 2.722.71-.974.19-1.76.521-2.814m.479.814c-3.432-.62-7.6-6.286-8-8m25-4c1.884 2.297 4.515 5.118 6 8m.562 1c.173 3.629.916 17.24 1.217 25.698.205 5.785.787 8.306-1.475 6.937-.25-5.29-2.139-23.878-.869-31.033" transform="matrix(-1 0 0 1 1833 -30)"/><path d="m466 465.582c-2.225 8.524-.81 18.8-2.94 27.418-.778-.188-2.339-.781-3.06-1.175.751-7.993 4.142-19.818 2.877-26.825m-5.769-10c-.77 9.146-2.6 19.983-3.108 28 .26-.06 1.918-.121 2.221-.104-.337-7.003.457-16.327 2.779-22.9m24.597 4.63c.385 7.137.33 14.082.403 21.25-.33-.027-1.794.057-2.119.124-.873-5.992-1.091-15.862-.681-22" transform="matrix(-1 0 0 1 1833 -30)"/><path d="m487.712 480c-5.216.302-15.117 1.183-21.712.694 3.64 1.456 7.39 1.423 11.88 1.176 2.298-.126 11.587-1.598 9.921-.413m-25.801-3.849c-2.14-1.561-4.307-3.638-6-5.608 2.795.913 3.712 3.493 5.798 6m19.202-4.11c-5.45.496-8.438-1.406-14-.708 3.966.31 7.905.393 11.892.608m4.304 1.21c1.947 1.797 1.796.954 2.804 3-1.275-1.413-1.724-1.533-3-2.55m-47.42-45.208c3.865-7.656-.415-17.468-9.728-18.196-11.702-.915-9.726 12.183-9.726 18.954m20.059 32.55c2.016 4.85 3.217 14.81 2.057 19.054-1.482-4.561-2.724-14.144-2.057-19.604.235 6 .428 15.001 2.815 20-.409-.653-.574-1.333-.758-2.088m-13.831-18.912c0 6.716.878 13.675.49 20-3.695-1.476-.821-13.827-1.065-18.454" transform="matrix(-1 0 0 1 1833 -30)"/><path d="m463 472.313c-.3.406-4.69.153-6 .154 1.533.337 4.503.197 6 .155m76-31.875c-1.524.069-3.263-.126-4.69-.31 1.354-.17 3.296-.348 4.605.009-1.571.012-3.868-.155-4.915-.162m-15.679-9.284c.922 2.018.315 5.995.441 8.404.143 2.737.331 5.573.186 8.37-.341.101-1.403.238-1.683.225 0-2.729-.308-5.413-.055-8.176.217-2.377.595-5.798-.21-8.177m-151 56.708c-2.403-1.324-4.524-3.935-6.967-5.354-.5 2.49 4.915 5.58 6.557 7m-178.59-30c-2.322-8.266 1.031-56.457-17.054-50.49-11.467 3.785 5.67 37.811 6.03 44.67m7.024-26.18c-3.584-4.62-11.43-7.202-17-8" transform="matrix(-1 0 0 1 1833 -30)"/><path d="m188 460.889c-3.95-2.358-7.948-4.879-12.212-6.889-.4.781-.835 3.602-.784 4.334 4.415 1.471 8.046 3.914 12.008 5.666 1.35-1.062.845-1.753.988-3.111" transform="matrix(-1 0 0 1 1833 -30)"/><path d="m186 459.638c7.09 4.23 28.895-2.092 38.72-1.612.33 1.416.413 3.558.003 4.967-9.21-1.771-30.728-3.373-38.723 1.007m41-6c-5.13-1.09-11.283-7.131-17.088-8.544-5.978-1.455-17.077 1.04-23.912 1.04m2 14.392c0 16.302-3.547 30.082-6.722 45.112-.434-.04-1.884-.116-2.278-.05 2.923-14.595 8.185-31.414 6.524-45.95" transform="matrix(-1 0 0 1 1833 -30)"/><path d="m224.962 463.198c-1.544 13.647.7 27.886-.17 41.802-3.5-1.376-2.22-3.306-2.566-8.439-.7-10.446.097-27.608-2.226-34.561m-43.72-3.658c-.05 14.515-6.304 31.03-5.134 44.707.897.243 1.52.585 2.267.951.532-8.187.427-16.118 1.951-23.792 1.284-6.48 4.115-16.224 1.678-22.208" transform="matrix(-1 0 0 1 1833 -30)"/><path d="m223.53 483.03c-14.793-.203-31.231.608-36.53 2.445 5.769 1.807 27.742-1.636 37-1.585m-40 .11c-3.038-2.415-6.997-4.303-7.216-7-.033.437-.945.475-.759.854.142-.505.353.24.629-.204 2.873 1.383 4.457 3.37 7.346 5.326m25.793-20.976c0 6-.854 17.184-.5 21m.22 3c0 4.748 1.767 13.522-1.429 17-2.511-5.047.224-10.83-.47-16.782m-.208-3.218c.015-7.009.417-14.552 0-21m16.594 20.213c-4.655-1.429-10.818-3.303-14-6.213 4.808.383 10.114 4.975 14 7m-36-8.389c6.661-.255 13.339.004 20-.222m-22.204 2.474c-2.351.062-6.63.55-8.796-.798 2.297-.924 6.617-.797 9-1.065m21 0c-6.361.393-12.64 1.546-19 2m57.89-59.368c9.011.42 40.23-3.074 44.11 4.95-11.342 6.198-39.779 1.98-53.132 2.443-8.992.31-18.065 0-27.065 0-4.61 0-10.56.088-14.13-2.092-6.618-7.766 37.466-5.896 50.217-5.301z" transform="matrix(-1 0 0 1 1833 -30)"/><path d="m290 423c-.064 8.843-2.725 17.363-1.935 26.007-11.7-1.434-22.05 5.157-33.361 3.81-5.398-.643-9.745-3.551-15.096-4.356-6.044-.91-11.918 2.688-17.608.484m-27.206-26.945c2.75 7.35-.642 15.602-.794 23.113 8.398 2.783 19.831.825 27 3.887m57.24 2c1.06 10.874 2.83 26.56.898 37.92-1.377.108-2.54.105-3.918 0-.663-11.19 3.22-26.704-1.22-37.014m-55.25-3.906c.287 2.003.098 3.955-.628 5m-2.722-6c.137 2.671.268 3.98.16 5m30.867.884c2.372 10.587 1.549 18.966.822 30.052-1.5.08-2.751.097-4.249-.02 1.142-9.717 0-23.85 0-30.916m77.133-11.025c-.719-11.996.935-44.22 18.656-42.938 4.075 8.067-3.173 17.099-6.423 24.352-3.979 8.878-4.245 17.859-5.472 27.236.216 1.171-.616-.754-.968-.965" transform="matrix(-1 0 0 1 1833 -30)"/><path d="m337.401 398c8.045 2.163-4.982 16.79-6.878 22.82-2.981 9.496-4.496 19.692-7.523 28.18" transform="matrix(-1 0 0 1 1833 -30)"/><path d="m319.087 441c-8.762.57-21.422.014-30.087 1.134 10.075 16.863 6.271 11.44 38 9.37" transform="matrix(-1 0 0 1 1833 -30)"/><path d="m327.71 449c.47 1.406.243 3.467.18 4.891-6.739.685-20.116 3.152-26.89 3.108.831-1.112.224-2.011.61-3.214m.39 5.215c-4.064-.925-11.474-9.332-9.742-15m27.742-3c2.196 2.583 5.267 5.76 7 9" transform="matrix(-1 0 0 1 1833 -30)"/><path d="m327.603 453c.288 4.398 1.528 20.898 2.028 31.147.344 7.014 1.311 10.07-2.458 8.411-.417-6.413-3.564-28.943-1.448-37.615m-23.725 2.742c-2.226 10.049-.809 22.159-2.941 32.315-.778-.224-2.34-.922-3.059-1.384.751-9.421 4.142-23.358 2.875-31.616m-8.825-15c-1.16 16.113-1.59 31.611-3.05 37.296.274-.077 3.601.679 3.922.704-.356-8.677-.378-22.451 2.078-30.598m28.597 7.365c.386 8.76.328 17.285.403 26.084-.33-.037-1.795.069-2.118.149-.874-7.352-1.092-19.469-.683-27" transform="matrix(-1 0 0 1 1833 -30)"/><path d="m325.307 474c-6.332.356-15.301 1.04-23.307.466 4.418 1.712 8.97 1.671 14.42 1.38 2.788-.147 7.503-.328 9.58-.328m-27.9-3.311c-2.533-1.727-5.097-4.027-7.1-6.207 3.308 1.012 5.532 4.225 8 7m19-5.284c-6.28.588-9.593-1.296-16-.47 4.568.366 9.108.465 13.704.72m-49.704-51.884c-.564-7.679-.486-21.147-11.426-22.027-13.746-1.107-11.426 14.749-11.426 22.945m23.709 34c2.386 9.78 5.567 24.568 3.447 26-2.121-.716-3.978-17.653-5.304-25.762.361 7.171 1.737 19.568 5.388 25.543-.622-.782-.876-1.594-1.158-2.497m-16.987-20.893c0 7.928 1.129 16.142.63 23.609-1.542-.568-1.462-2.011-1.696-4.849-.488-5.899.212-15.463 0-19.151m71.823 15c1.006 2.034 1.97 4.052 3 6-1.264-1.356-1.563-3.737-2.808-4.96" transform="matrix(-1 0 0 1 1833 -30)"/><path d="m298.788 466.612c-2.598 0-5.333.039-7.788-.318 2.149-.185 6.437.047 8 .477m-157-19.961c11.167 4.107 25.533-4.14 36 .85m9 .135c9.105-1.329 18.652 0 28 0m-39-6.761c-14.144 1.995-23.194-.397-33 .932m45-.666c2.444 0 5.556.4 8 .4m130 6.128c7.153 0 18.321.133 27-.665m-198.196-6.163c0-6.123.868-13.013.572-18.887-.683-13.486-1.882-26.573-1.145-40.065.46-8.399 5.15-21.046 5.15-41.78 0-13.521 1.099-26.869 2.306-39.684 1.198-12.705 1.074-25.186-.017-37.584 10.117 3.065 16.402 5.15 27.463 5.15h6.867c-1.669 23.177.344 41.084-.766 64.526-.833 17.596-3.231 35.25-3.83 52.617-.335 9.738 1.38 19.616 2.308 28.998.813 8.233.302 19.754 1.716 26.138" transform="matrix(-1 0 0 1 1833 -30)"/><path d="m149 442c.51-2.859 2.208-30.526 2.208-37.362 0-12.425-.089-25.399 1.375-37.345 2.996-24.474 5.878-46.725 4.738-72.454-.505-11.402-1.78-24.668.679-35.839" transform="matrix(-1 0 0 1 1833 -30)"/><path d="m144 257c11.215 4.984 38.375 3.764 50.8 4.504 12.492.743 24.025 2.765 35.905 4.522 12.303 1.82 25.591.597 38.197.734 13.514.146 26.942 2.298 40.486 3.002 31.52 1.64 63.082-.392 93.983 3.772 25.31 3.41 46.85 1.021 71.791 4.862 1.608.247 10.886.75 9.74.563m-208.902 136.699c0-8.4-1.332-20.265-2.301-30.07-1.086-10.952.766-21.025.756-32.031-.028-26.73 1.545-53.666 1.545-80.5l-5.027-.384c-14.503 1.725-24.032-2.121-35.967-2.683-10.807-.509-23.596.148-33.917-2.99-1.506 27.278-.525 54.538-3.213 81.191-1.208 11.98-1.141 24.822.042 36.8.973 9.836 2.281 23.96 2.281 32.009m161.801-112.82c-9.22 4.725-30.695-1.163-41.762-1.858-10.34-.649-25.506 1.606-35.238-2.322" transform="matrix(-1 0 0 1 1833 -30)"/><path d="m362 302c-3.454 10.468-1.404 24.858-3.18 36.13-1.638 10.398-1.18 21.67-1.703 32.204-.84 16.988 3.118 42.533 3.118 55.666" transform="matrix(-1 0 0 1 1833 -30)"/><path d="m362 304c-4.531 2.285-10.874 6.141-17.09 9.211-1.493.737-.776 9.313-.776 16.118 0 12.095-.314 24.91-1.553 36.844-1.347 12.994-.035 25.516.76 38.395.76 12.323.017 24.965.017 37.593v3.839m-59.358-148c4.24 5.725 13.432 14.408 20.372 15.434 1.096 22.341-4.12 43.998-2.163 66.53.898 10.328 2.834 20.353 2.291 31.412-.267 5.44-1.32 11.166-.774 16.85.237 2.458 1.092 4.52 1.534 6.88.463 2.477-.191 5.898.74 4.615" transform="matrix(-1 0 0 1 1833 -30)"/><path d="m286 300c-2.8 10.2-1.593 21.52-2.93 31.923-1.267 9.845-1.829 19.827-1.199 29.643.634 9.88-.194 19.974-.81 29.641-.61 9.522 3.592 17.76 2.006 26.793m202.929-157c.131 19.716-3.02 41.373-2.996 60.96.024 19.295 1.816 38.183.974 57.54-.384 8.807 1.023 16.932 1.023 24.5m-109.997 43.72c-1.834-.628-6.706-.398-8-.398m9-5.822h-8m-2-163.811c-.462 7.413-.858 14.804-1.239 22.311-12.86-.2-26.405-2.786-39.797-2.784-12.886.002-25.943 1.146-38.964.487 1.265-7.228-.107-16.262 1.064-23.46 5.241-.835 11.397.713 16.708 1.149 5.46.447 17.655-.308 23.047-.575 10.694-.526 15.796 2.297 26.505 2.297zm3.313 161.311c-.954-8.98.577-19.31.577-28.562 0-10.914.075-21.343.605-31.99 1.003-20.083-.7-39.795 2.26-59.406 1.97-13.035 3.567-27.563 2.986-41.042 23.55 2.77 37.615.113 55.257 4.483 6.918 1.714 11.53-.57 10.953 1.714-1.034 4.095-.967 11.231-1.165 15.425-.467 9.86-1.185 19.168-1.717 29.13-.827 15.512-1.729 30.975-1.729 46.841 0 7.671-.19 15.35-.578 22.85-.193 3.785 0 7.633 0 11.424 0 1.882.16 3.838 0 5.713-.175 2.081.842 15.067 0 14.28m5.343-14.86c.583-6.906-.397-6.133-.013-13.812.5-9.972.088-19.763.567-29.95.947-20.143 2.33-41.025 3.527-60.969.466-7.758 3.215-16.136 1.242-24.083 9.878-.49 19.8.16 29.575 0 .82 10.057-3.633 20.2-3.993 30.412-.427 12.017 3.033 23.733 4.08 35.552.892 10.043 1.497 20.284 0 30.048-.721 4.713-.233 9.125-.002 13.812.17 3.397.558 11.372.586 11.509m-208.96-114.993c-10.073 1.486-20.855-1.008-31.048-.89-11.106.128-21.875-.091-33.022-.653-.109-6.017-.882-11.857-.57-17.964 4.924-.245 10.119 1.91 15.31 2.182 5.563.292 11.12-.034 16.537.564 7.924.873 30.798 1.136 33.079 2.269zm-73.714-21.271c-.56 5.507-1.369 11.744-1.274 17.388-8.208 1.13-18.113-.748-26.482-1.165-.311-6.05-.344-12.436.014-18.478 5.751 1.279 14.37 1.673 19.447 1.673zm47.49 130.745-35.625-.58c-3.83-13.419-.574-30.15-.574-44.046 0-19.515 4.168-42.395.103-61.374 19.815 4.187 34.948 1.1 62.442 2.318.628 7.722-.67 16.278-1.766 23.703-1.142 7.749-1.084 15.625-1.723 23.762-1.401 17.846-1.809 37.966 1.277 55.638l-3.447-.58m-68.177-103.539c-5.085 3.426-4.097 26.598-4.113 33.736-.022 9-1.159 17.79-1.16 27.098-.002 7.351-.958 14.347-1.76 21.476-.819 7.304.968 13.994.467 21.388-3.893-2.54-11.082-1.377-15.689-2.23-5.974-1.102-9.881-1.752-15.745-1.853 3.212-15.977 5.184-33.392 5.184-50.347 0-9.009.148-17.744.586-26.662.417-8.534 4.909-17.229 2.33-25.908.018.501.087 1.066.013 1.563zm79 106.198h-10m-22 .014c-12.553 3.807-30.18-.96-41-.48m-9-.034c-11.157-1.6-24.408-2.244-36-1.917m84 1.917c-1.008 4.1-2.143 8.614-1.985 13m-5.116-9c-.153 3.111-.55 5.987-.798 9m-6.384-9c-.019 3.398-.578 6.675-.399 10m-7.818-13v9m-7-9v6.001 3.999m-23.355-10c.297 6.282 1.172 12.57.399 19" transform="matrix(-1 0 0 1 1833 -30)"/><path d="m159.414 401c.768 6.567.795 13.388 0 20-.693 5.759-1.697 17.387-1.34 20m9.926-40c-1.718 5.369-.768 14.459-1.011 20.111-.292 6.785-1.243 13.123-.479 19.643.09.78-.3-.53-.51-.657m10.46-38.097c.012 2.313.175 5.608 0 7m184.54-100c-3.829 2.4-7.87 4.99-11.796 6.971.088 10.25-3.359 21.724-1.798 31.883 3.186.497 6.216-.42 9.34-.573-.36-6.407 1.74-12.584 2.466-18.81.701-6-.082-12.834 1.224-18.725-.317.494-.398 1.033-.626 1.544m-4.165 43.71c1.002 10.722-.61 23.396-1.095 34.4-2.17.05-4.569-.01-6.454.6 1.424-10.7-.508-23.11-.013-34.328 2.604-.152 5.34.003 7.917-.218-.473-.608-.828-.228-1.373-.454m3.133 68.539c1.032-9.3-1.622-19.54-1.169-28.808-2.604-.344-5.3-1.04-7.987-.577-.809 16.988-.802 33.832 0 50.68 1.404.367 2.839.091 3.723-.49m-63.524-134.344c3.364 4.594 11.769 6.584 12.853 10.929 1.196 4.793-1.087 13.707-1.373 19.071-4.268-1.643-9.583-2.287-14.283-2.214.967-8.485 1.689-18.318 3.381-26.693m11.463 39.675c-.378 5.989-1.092 12.258-1.156 18.265-.065 6.034 2.694 12.24 1.647 18.179-3.945.208-8.727 1.227-12.546.57-3.67-12.881-.665-26.794.001-39.782 4.287.388 8.89 2.585 13.21 2.197m-3.5 47.803v43-1.573m2.5-41.366c-3.212-1.356-9.458-.716-13.329-1.061-.35 5.993-.671 17.13-.671 20m150-129.05c-1.036 4.88-.95 9.946-1.224 15.004-10.527.365-22.223-1.545-32.945-2.234-6.957-.448-13.781-.883-20.831-1.25.3-3.382-.595-12.463 2.159-14.451 3.06-2.21 16.61-.167 20.498.03 4.453.223 9.21 1.238 13.605 1.737 4.074.464 10.734-.353 14.195 1.164zm-1.957 20.889c2.411 6.533-.581 16.23.128 23.394.756 7.658.611 15.648-.128 23.267-1.248 12.87-1.714 25.351-2.381 38.378-18.897.947-37.704-4.016-56.662-1.702 1.984-6.476 1.228-14.765 2.224-21.479 1.1-7.39 1.85-14.55 2.297-22.132.802-13.624 4.548-29.298 1.16-42.565zm1.957 88.93c-11.611-1.207-25.321.58-36.814 1.18-9.7.506-18.625-2.88-28.186-2.949m3 1c-1.387 7.386-.602 16.469-.997 23.863-.22 4.106-.958 7.899-1.002 11.928-.024 2.134.395 3.651.5 5.681.045.892 0 6.233 0 3.977m9.499-46.449c0 11.818-2.56 25.708-1.888 36m12.888-32c-3.633 8.456-1.76 21.415-2.534 31-.624-.519-.234-.907-.466-1.502m10.91-29.498c0 5.915.028 11.796-.398 17.555-.185 2.5-.31 4.704-.4 7.13-.052 1.43 0 7.702 0 6.036" transform="matrix(-1 0 0 1 1833 -30)"/><path d="m410.297 398c0 9.151 2.248 24.375-1.297 32.847.298.726.065-1.336.032-1.793m8.514-31.054c-.205 4.24 0 13.146 0 17m7.954-17v15m6.2-16c0 5.805-.387 11.221-.4 17m10.7-.5h7m13-.399c1.883.556 4.43.252 6 .798m-18 3.318c-3.441.97-9.743.4-14 .4m26-.311c2.075.005 4.458-.129 6 .4m-27.275.294c-.22 4.573-.586 9.43-.399 14m5.998-14c0 4.976-.15 10.073.089 15 .59-.137.08-.599.31-1.155m3.702-12.845c0 5.034-.77 12.854.399 17m13.676-18v9m19.5-152.06c-24.586.807-47.825-6.851-72.173-5.726-12.085.558-23.383-1.072-35.3-1.679-10.26-.524-20.6.538-30.858 0-46.514-2.446-93.002-4.252-139.498-6.28-19.969-.873-42.79-4.182-61.171-6.255m-7-75c-12.272 8.125-23.18 15.784-34.16 25.49-10.914 9.649-23.484 19.433-35.325 27.897-13.171 9.414-26.365 19.073-39.429 28.45-3.35 2.403-20.556 17.397-22.086 16.08m132-91.917c-1.635 6.463-9.669 11.072-14.715 14.854-6.322 4.737-12.664 10.136-18.36 15.685-12.516 12.192-27.995 19.183-42.34 28.683-12.004 7.949-24.439 16.187-35.801 24.762-6.29 4.75-21.18 18.465-26.784 18.005" transform="matrix(-1 0 0 1 1833 -30)"/><path d="m139 185c-.086 6.459-14.644 14.35-19.759 19.102-7.164 6.656-15.127 12.552-21.762 20.011-15.568 17.507-37.55 25.996-56.91 37.881-12.027 7.383-21.463 18.9-33.569 26.006m114.412-97.356c-2.56-10.162.686-21.781.586-32.248-.099-10.46-2.319-20.938-1.713-31.396-3.046 1.716-11.195 8.656-12.498 11.71-1.861 4.36.164 15.417.158 20.867-.007 7.327.585 14.447.585 21.862 0 5.905-1.851 15.367 0 19.561" transform="matrix(-1 0 0 1 1833 -30)"/><path d="m119 132c-3.686 2.992-8.39 6.937-9.416 11.28-1.314 5.568 0 13.404 0 19.178 0 12.549 1.295 24.838.42 37.123-.895 1.06-.458-.195-.943-.46" transform="matrix(-1 0 0 1 1833 -30)"/><path d="m114.666 137c-1.687 4.904.332 10.414.6 15.41.276 5.148.34 10.384.6 15.396.551 10.628-.782 14.07-.6 24.555-.464-.72-.402 5.37-.6 4.566m4.334-50.927c-3.061 2.972-7.046 5.795-10 9m12 5c-2.758 3.043-6.64 6.444-10 9m8 9c-2.83 3.91-7.022 6.257-10 10m-21.588 28.644c-2.56-10.162.686-21.781.586-32.248-.1-10.46-2.32-20.938-1.714-31.396-3.044 1.716-11.195 8.656-12.498 11.71-1.86 4.36.166 15.417.16 20.867-.009 7.327.586 14.447.586 21.862 0 5.905-1.852 15.367 0 19.561" transform="matrix(-1 0 0 1 1833 -30)"/><path d="m86 159c-3.686 2.992-8.39 6.937-9.416 11.28-1.314 5.568 0 13.404 0 19.178 0 12.549 1.295 24.838.42 37.123-.895 1.06-.458-.195-.943-.46" transform="matrix(-1 0 0 1 1833 -30)"/><path d="m81.666 163c-1.688 4.981.331 10.577.6 15.652.277 5.23.34 10.548.6 15.638.55 10.795-.783 17.19-.6 27.84-.464-.732-.403 2.555-.6 1.739m5.334-49.869c-3.061 2.972-7.046 5.795-10 9m11 5c-2.758 3.043-6.64 6.444-10 9m9 10c-2.83 3.91-7.022 6.257-10 10m-24.352 25.855c-1.537-9.239.41-19.8.35-29.316-.057-9.507-1.39-19.033-1.026-28.539-1.828 1.56-6.72 7.867-7.5 10.645-1.116 3.965.099 14.015.095 18.968-.004 6.661.352 13.134.352 19.873 0 5.37-1.205 11.703-.094 15.514" transform="matrix(-1 0 0 1 1833 -30)"/><path d="m52 187c-2.58 2.807-5.874 6.507-6.59 10.581-.922 5.224 0 12.574 0 17.988 0 11.77 1.214 19.908.6 31.431" transform="matrix(-1 0 0 1 1833 -30)"/><path d="m50.282 194c-.715 4.417.141 9.38.254 13.88.117 4.636.145 9.353.255 13.867.233 9.574.131 14.81.209 24.253m2-45c-2.141 2.972-4.931 5.797-7 9m7 6c-1.93 2.705-4.65 5.728-7 8m7 8c-1.98 3.909-4.916 6.257-7 10m94-26c-6.955 8.52-18.85 13.047-28.685 17.528-12.326 5.614-21.906 14.572-33.617 21.407-5.294 3.09-10.244 5.926-14.84 10.13-5.248 4.797-8.67 10.425-14.432 14.804-9.215 7.001-19.515 15.885-30.143 20.426-3.639 1.554-7.037 2.509-10.283 4.705m102.575 8.774c-1.282 4.771-5.223 22.941-14.135 18.546-6.677-3.293-8.675-18.845-8.419-25.103.352-8.62.038-25.951 4.907-33.45 3.883-5.98 8.762-10.086 13.214-3.104 6.019 9.439 7.215 32.766 4.433 43.111z" transform="matrix(-1 0 0 1 1833 -30)"/><path d="m109.873 310.522c-1.016 4.338-4.136 20.857-11.19 16.86-5.286-2.995-6.868-17.131-6.666-22.82.278-7.837.03-23.594 3.884-30.41 3.073-5.436 6.937-9.17 10.463-2.822 4.764 8.581 5.71 29.787 3.509 39.192z" transform="matrix(-1 0 0 1 1833 -30)"/><path d="m105.612 267c3.116 1.828 6.933 1.581 10.92 1.794 1.735 10.95 5.078 20.538 4.371 31.635-.338 5.324-1.148 10.97-2.313 16.072-.952 4.18-1.968 9.67-3.252 14.677-3.305.205-7.723.778-10.338 1.822m38 73c-14.615-.1-28.871-4.125-43.399-4.739-13.39-.564-26.81-2.27-40.032-4.133-10.576-1.49-20.927-2.573-31.426-3.573-4.492-.427-19.884-.89-21.143-3.555m69.248-108c.032 12.478.53 29.185 1.157 41.535.409 8.076.664 19.167.579 26.378-11.126.454-22.732 5.382-33.472 6.087-.935-18.272-2.114-37.092-1.157-55.393 8.752-1.414 11.08-5.09 18.427-10.188zm1.752 3c-13.517 1.753-21.315 19.906-35 16.598" transform="matrix(-1 0 0 1 1833 -30)"/><path d="m48.231 302c-.085 18.366-.787 37.125.769 55-.196-.484-.232-1.074-.394-1.55m10.394-59.45c-.008 18.89 2 39.993 2 58m16-54c-6.64 8.219-20.085 10.333-29 15m27 8c-9.186 2.277-20.71 4.328-29 9m31 3c-8.843 3.226-19.99 6.731-29 9m95.7-294c1.882 37.131-5.7 74.634-5.7 112.226 0 37.191 5.738 73.4 5.7 111.08-.046 43.456-3.42 90.699-3.42 131.694m229.422-391.846c7.451-.152 17.5 8.307 24.452 11.36 9.254 4.063 18.238 8.368 27.257 13.02 13.02 6.714 27.456 12.427 41.344 16.741 13.28 4.125 26.357 9.532 39.77 13.137 18.281 4.913 38.537 9.066 55.806 17.355 7.66 3.676 15.713 4.505 23.5 7.455 7.194 2.727 14.08 5.825 21.02 9.27 8.882 4.412 22.217 10.312 29.618 11.508l.531-4.784s-23.793-7.173-30.668-11.358c-6.871-4.185-20.617-8.37-29.606-12.555-8.987-4.187-41.24-13.154-49.699-16.742-8.46-3.587-43.355-15.545-54.987-19.132-11.632-3.588-29.077-11.958-35.95-15.545-6.875-3.588-17.448-7.773-26.437-13.153-8.987-5.38-24.32-11.958-29.078-14.35-4.758-2.39-10.575-5.381-10.575-5.381z" transform="matrix(-1 0 0 1 1833 -30)"/><path d="m631 113.667s17.946 11.084 20.057 12.25c2.11 1.167 5.277 2.334 8.973 5.25 1.288 1.017 5.804 4.083 5.804 4.083l2.64 1.75.526-4.083s-4.82-1.805-10.025-5.833c-5.278-4.083-10.556-7.583-10.556-7.583l-10.03-5.834-6.86-4.667m-114.04-43c.415-2.122.93-6.906 1.511-8.851-7.426.17-15.597-8.068-21.361-12.792-6.747-5.528-13.71-9.567-19.639-16.357 1.329 7.943.604 15.611.553 23.67m3.447-24.67c-7.326-.04-14.932 2.343-22.252 3.266-4.032.509-7.954 1.7-11.942 2.015-1.893.149-3.807-.137-5.7.001-.81.059-5.62.954-3.626.658m233.52 104.143c-2.273.45-4.875.121-7 .834m-3 .083c-11.973-5.095-25.992-15.814-42-22" transform="matrix(-1 0 0 1 1833 -30)"/><path d="m633 114c-3.256.484-8.833 1.045-11.8 2.39 2.336 18.182 1.524 34.465 0 52.573-1.704 20.267 1.311 47.262.514 67.51-.782 19.85-2.1 39.944-2.053 60.34.065 27.405-2.531 54.768-3.615 81.86-.39 9.685 1.831 22.889 2.641 32.327m47.698-273c0 20.998 1.36 42.464.034 63.42-.591 9.328-3.151 18.039-3.134 27.448.019 9.58.178 19.485.597 29.332.863 20.294-1.882 40.84-1.882 61 0 9.746.735 19.477 1.254 29.3.479 9.078 3.165 21.522 1.878 30.5m-64.454-284c.04-5.956-1.877-13.33.322-18.966-6.634.178-15.238.796-21.42-1.034.936 2.638.215 8.214-.58 10.538m22-8.538c2.402 2.495 5.215 4.717 8 6.235-1.117 2.612-.44 8.193-1.242 8.765m.242 0c17.872 3.484 42.873 1.23 60.994 1.579.107.838-1.23 2.88-1.591 3.683-8.871 1.43-22.247.418-31.293-.028-9.425-.464-18.316-1.025-27.58-1.025zm3.5 2v6m56.367-1c0 10.522-.734 20.519-.734 31m14.84-1c10.07 4.794 18.798 15.864 28.98 20.22.117 1.408.046 1.653-.562 2.78-8.768-6.792-19.823-13.237-29.391-18.4 1.164-1.348.415-2.417.973-4.009m-.973-.34c-6.11-.747-11.11.375-15 .749m14 2.711c-2.503.046-6.48-.497-8-.417m38 18.706c-2.313 2.165-6.391 4.173-9 5m-1-2c-5.185-3.455-11.177-5.725-16.507-8.614-2.031-1.099-4.012-2.419-5.965-3.688-.984-.639-8.306-5.244-6.124-4.644" transform="matrix(-1 0 0 1 1833 -30)"/><path d="m701.143 155c2.266 3.531-.628 12.836-1.085 17.934-.459 5.115-.637 10.438-.403 15.542.47 10.23.579 20.269.953 30.489.731 20.084-.536 39.71-.536 59.778 0 16.034-1.072 31.495-1.072 47.24 0 7.961.544 15.54.535 23.3-.009 7.14-1.114 16.712 1.073 22.717m19.902-237.543c4.467 1.54 8.9 2.96 13.314 4.606 7.526 2.808 14.651 6.216 21.75 8.937.017-.422.221-.863.426-1.166-16.476-5.419-35.127-11.45-50.36-18.834.786.341-9.344 4.249-8.601 4.791" transform="matrix(-1 0 0 1 1833 -30)"/><path d="m756.107 145c5.005 4.679 10.853 11.303 14.893 17-6.719-.263-9.802-13.729-16-16.43m16 17.43c-1.74.314-3.378.967-5 2m0 1c-3.695-4.892-15.586-10.926-17-15" transform="matrix(-1 0 0 1 1833 -30)"/><path d="m757 146c-2.926 1.561-6.137 2.063-9 3.714 3.066 6.15 1.848 21.047 1.848 28.51 0 10.318.477 20.239.477 30.57 0 10.62-.44 21-.465 31.362-.028 10.57 1.023 20.553 1.418 31.165.48 12.84 2.436 25.717 1.918 38.79-.442 11.197-1.183 24.391-1.183 35.889m17.987-186c2.511.14 4.678 1.012 7 1.631-1.444 2.359-4.835.963-6.06.92" transform="matrix(-1 0 0 1 1833 -30)"/><path d="m776 161c1.982 6.594 7.573 12.06 9 18.82-.855.11-1.932.288-2.8.093" transform="matrix(-1 0 0 1 1833 -30)"/><path d="m783 180c-3.213-6.821-10.416-11.31-15-17 .388.643.887.96 1.411 1.33m13.589 16.67c-5.938-5.213-11.125-11.273-16-17m14.507 17c-2.189 18.295-1.696 36.388-.398 55.24 1.298 18.807.795 38.356.795 57.538 0 10.34.175 22.824-.397 32.222m-84.124-186c1.16-3.966 1.976-15.916 1.458-20.455-8.113-5.512-14.203-6.892-16.841-12.545.094 7.173.359 16.58.535 22.13m-4.535-23.13c-.464 2.223-8.286.564-9 3" transform="matrix(-1 0 0 1 1833 -30)"/><path d="m696.53 119.352c1.132.705 2.384.666 3.468 1.648.242-5.155-17.821-11.327-20.904-16.895-3.425-.703-7.076 2.353-9.094 2.175m50.964 25.72c.033-5.298.846-9.987 1.036-15-3.79 1.185-8.726.367-12.903.675 1.28 3.396-.652 6.724.07 10.438.85 1.206.124-.205.441-.513m22.43 11.479c0-2.027.01-4.055-.038-6.079 3.579 1.696 8.86.727 12.98.928.168 2.673-.812 5.104-.432 7.84-.592.692-.205-.363-.57-.597m-69.896-37.171c.032-5.446 1.165-10.856.868-16.142-3.068-.791-6.403-3.76-8.497-6.858-.08 3.996-.456 7.865-.453 11.978m0-11.978c-2.839 1.991-9.264 1.579-13 1.671.652 2.237.472 6.927.472 8.329m-13.932 2c-.282-1.933.018-4.227.46-5.836-4.145 1.11-8.603-.712-12.93.011.687 1.668.73 6.202-.07 5.286m77.112 35.539c.015-6.015 1.074-10.97.86-16.915-1.942-.113-3.96-.113-5.901 0-.047 1.157-.056 4.529-.071 4.448" transform="matrix(-1 0 0 1 1833 -30)"/><path d="m690.537 112c.267-2.027.57-3.94.426-6-2.416.503-7.098.014-7.963.84m-5 274.414-14.119 6.746-7.881-4.224 5.333-3.776m2.204 8-.074 6m-1.463-17.916-6 .832" transform="matrix(-1 0 0 1 1833 -30)"/><path d="m652.56 373.167c6.143 0 6.524 1.374 5.197 6.476 7.09.09 11.813-.407 16.243 1.418-.017 1.2-.285 3.75-.526 5.15-4.532.09-7.603 3.075-13.337 7.789-1.991-2.098-6.153-3.836-7.577-4.116 0 0-1.538-14.926-.511-22.09 1.022-7.166.51-17.912-1.027-23.882-1.533-5.97-.51-14.33 0-25.672.514-11.344-1.022-31.045-1.022-31.045l5.632-1.195s.513 58.509.513 67.465c0 8.954 1.536 22.09 1.536 22.09m-13.215-92.27c1.642 7.7-1.316 19.368-1.02 28.25.162 4.933 1.302 9.14 1.527 13.826.25 5.104-1.348 9.294-1.096 14.334-3.608.054-7.579 2.136-10.772 3.548-3.152 1.396-7.321 3.54-10.594 3.757-.482-10.533.571-18.51 1.02-28.851.43-9.87.064-22.606-1.531-31.86 3.927-.977 8.485-.352 12.229-1.232 1.954-.461 3.746-.825 5.655-1.155 1.872-.324 4.397-1.413 4.071-.617" transform="matrix(-1 0 0 1 1833 -30)"/><path d="m642 285c-2.231 6.829-2.326 18.393-2.65 25.8-.339 7.753-1.384 19.614.011 27-6.861 4.8-11.612 3-16.361 7.2m21-5c-2.253-.637-3.864-2.236-6-3m16 27c-1.547 1.458-6.661 2.73-9.53 4.289-3.209 1.744-5.984 4.25-9.118 5.994-4.892 2.722-14.8 4.293-17.352 8.717m35 9c-5.643 1.622-12.196 8-17.532 11.71-4.93 3.43-10.913 4.172-15.468 7.29m42-161.108c-6.305 2.562-14.545-.039-21.03-.644-5.751-.536-14.031-.036-19.97-.036m39 9.466c-9.066-.66-15.535-.562-22.96-.66-4.526-.06-13.149-.086-17.04 1.982m-1 151.457c-7.687.328-20.066 2.432-32.735 1.113-3.215-.337-11.689-1.579-14.873-1.57-1.98.004-8.469 1.628-9.392 0m168.69-252c-.963 9.586.237 19.247.997 28.817.788 9.925-.115 19.666-.482 29.497-.408 10.89-1.016 21.7-1.851 32.447-.843 10.81.024 20.49.491 31.398.533 12.392 1.383 24.387 1.383 37.036 0 12.028-1.407 22.926-1.407 34.805m-28.821-96.084c-12.323.003-26.149-.833-37-.833m36-3.083c-11.3-.645-25.268-3.858-35-5m-44.498-73.559c5.585.112 11.003-.67 16.56-.877 4.247-.157 8.993.501 12.938-.436-9.998-.813-20.338 2.536-30 1.752m27.5-1.88v14m0-13v14m-18.828-13c-.774 2.497 0 10.887 0 13m1-13c-.774 2.497 0 10.887 0 13m73.845 13.062c5.669 1.68 13.435.432 19.483.417-6.488.207-13.364-.417-20-.417" transform="matrix(-1 0 0 1 1833 -30)"/><path d="m714.675 202c0 2.922-.005 5.846.007 8.768.065.732-.227-.49-.373-.62m2.101 2.365c1.62 1.847 3.717 3.787 5.59 5.019-4.175.816-10.622.39-15 .027 2.669-2.578 6.314-3.394 8.846-5.559m-1.846 0c-.434 2.447-.175 5.205-1 7m-.273 0c0 4.656-.693 9.475-.366 14m-5.361-15c.967 4.002 1.866 8.663 2 13m12-12c-.007 3.872-1.494 10.167-3 13" transform="matrix(-1 0 0 1 1833 -30)"/><path d="m717 231c-1.72.986-4.706.588-7 .54 1.957 1.006 4.561 1.48 6.855 1.296-1.627.89-4.11 1.059-5.553 1.454 1.048.004 2.221.223 3.27.255-.34.165-1.213.877-1.704 1.155.507.492 1.234.614 1.706 1.152-.225.106-1.017.722-1.323 1.125.035.26.863 1.187.881.998m-19.132-76.189c-.747 13.593-1.88 26.966-1.88 40.659 0 10.262.872 20.496.398 30.452-2.113.137-4.318.137-6.434 0 .482-12.155-.186-25.343-.07-37.605.055-5.98.939-33.506 0-38.292z" transform="matrix(-1 0 0 1 1833 -30)"/><path d="m693 162c0 12.994-.854 27.279-1.503 40.026-.267 5.265-.838 10.729-1.109 15.998-.25 4.84 1.646 9.018 1.534 13.784-1.56.104-3.344.32-4.922.09m5 .186c.803.324.412.168 1 .832m-10-75.752c-.747 14.667-1.88 29.097-1.88 43.87 0 11.07.873 22.114.397 32.854-2.112.15-4.316.15-6.432 0 .48-13.112-.186-27.342-.072-40.572.055-6.454.94-36.152 0-41.316z" transform="matrix(-1 0 0 1 1833 -30)"/><path d="m678 157c0 13.737-.852 28.838-1.502 42.313-.267 5.567-.837 11.342-1.11 16.912-.248 5.117 1.646 9.533 1.534 14.57-1.56.11-3.343.34-4.922.098m7 1.162c.803.347.413.179 1 .89m-21-83.152c-.934 16.455-2.349 32.645-2.349 49.22 0 12.422 1.09 24.81.496 36.863-2.64.165-5.397.165-8.04 0 .6-14.712-.233-30.678-.09-45.522.069-7.24 1.174-40.56 0-46.354z" transform="matrix(-1 0 0 1 1833 -30)"/><path d="m656 149c0 15.78-.996 33.126-1.754 48.604-.31 6.393-.976 13.027-1.294 19.426-.29 5.878 1.92 10.95 1.79 16.735-1.819.129-3.901.39-5.742.111m6 .124c1.607.39.826.202 2 1m-14-91.828c-.935 17.527-2.35 34.772-2.35 52.428 0 13.232 1.09 26.43.498 39.267-2.643.177-5.4.177-8.042 0 .6-15.672-.233-32.679-.089-48.491.068-7.71 1.173-43.204 0-49.376z" transform="matrix(-1 0 0 1 1833 -30)"/><path d="m640 142c0 16.893-.995 35.463-1.753 52.034-.312 6.846-.977 13.946-1.295 20.796-.289 6.294 1.921 11.724 1.792 17.918-1.821.137-3.902.418-5.744.12m6 1.132c1.606.39.826.202 2 1m47.1 106.661c-.143-25.462 1.56-43.565.61-69.661-2.513 1.053-6.224.973-8.71.175.237 14.082 1.418 27.997.953 41.814-.395 11.822-1.192 21.655-.22 32.011m7.267-6c-2.127 2.197-5.462 3.784-8 5" transform="matrix(-1 0 0 1 1833 -30)"/><path d="m686.642 273c0 23.482-2.47 41.394-1.352 64.909 1.964.39 4.276 1.104 4.71 2.091m-5-2c-1.93 1.335-4.277 1.985-6 3m9.321-68.503c.947.436 2.133.53 3.248.429.184-.481.44-2.11.43-2.482-5.443.099-10.336-.644-15.814-.391-.252.775-.241 2.096 0 2.873.597.043 2.74-.117 2.136.074m22.679 100c-3.59 2.786-8.388 2.954-12.598 4.619-3.293 1.302-6.106 3.463-9.402 4.381" transform="matrix(-1 0 0 1 1833 -30)"/><path d="m686.21 377.43c.014-5.494.394-14.289.79-19.43-2.022.905-4.048 1.937-6 3.033.952 4.678-.434 16.474.812 19.967" transform="matrix(-1 0 0 1 1833 -30)"/><path d="m685.333 359c.038 5.178.87 12.385.62 17.558-2.234-.3-3.45 1.907-4.953 2.442m46-126c-9.253-.818-18.438-3.95-27-5m28 8c-8.774-1.14-18.344-3.375-27-2.946m25.922 19.283c.176 1.03.01 2.506-.063 3.53-2.446.177-5.005.177-7.45 0 .142-1.306-.05-2.342.357-3.53-.503-1.101-.48-1.214-.766-2.337 2.583 1.764 4.375 2.304 7.501 2.337m-5.465 3.663c1.565 7.83.42 19.701.668 27.983.222 7.394.46 15.869-.017 23.017" transform="matrix(-1 0 0 1 1833 -30)"/><path d="m725.729 275c0 8.267-.095 16.864-.343 24.824-.208 6.68-.157 16.113.343 21.176m-3.299 3.316c2.606-.61 5.047-3.472 7.57-1.797-2.352 1.195-5.731 5.6-8 4.214" transform="matrix(-1 0 0 1 1833 -30)"/><path d="m722 327.327c.601.985 1.062 1.603 2.647 1.004.237-.02.01-1.215.066-1.384-.118.814.117 1.338-.27 2.053 1.55-1.283 5.51-4.872 4.346-6m-8.778-48c0 8.853.365 17.087.653 25.768.283 8.528-.77 17.401.325 25.232m-.489-56v6m-6.626-5.663c.285 1.03.013 2.506-.105 3.53-3.973.178-8.13.178-12.103 0 .232-1.307-.082-2.342.581-3.53-.818-1.102-.781-1.212-1.247-2.337 4.197 1.764 7.108 2.305 12.19 2.337m-8.19 3.663c3.374 8.905.907 22.405 1.441 31.825.478 8.408.989 18.045-.035 26.175m6.415-57c0 9.165-.133 18.697-.48 27.521-.293 7.407-.22 17.865.48 23.479m-5.123 3.315c4.235-.608 8.201-3.47 12.302-1.796-3.82 1.195-9.316 5.599-13 4.215" transform="matrix(-1 0 0 1 1833 -30)"/><path d="m707 331.328c.775.985 1.366 1.602 3.403 1.003.306-.018.013-1.215.086-1.383-.15.814.148 1.337-.348 2.052 1.993-1.282 7.084-4.87 5.588-6m-10.729-53c0 9.896.745 19.098 1.335 28.8.576 9.531-1.574 19.449.665 28.2m-1.5-62v6m24.5 79c-10.925 3.551-19.212 11.886-29 17m50-24.3c-6.398.173-13.92.057-20-.475m39.655-182.225c0 24.547.842 48.719-.105 73.198-.926 23.992-3.223 47.898-2.36 72.159.317 8.86.801 18.312 1.697 25.643m-17.887 11c4.229-2.378 8.437-4.4 10.384-6.585l4.616-3.06c0-11.416-.576-22.703-1.154-34.042-.619-12.15 0-23.818 0-35.954 0-8.053.377-16.074.385-24.181.007-7.783-1.21-15.512-1.163-23.247.046-7.627-.346-15.558.009-23.332.254-5.562.386-11.122.386-16.743 0-3.938 1.119-10.532-.386-13.856" transform="matrix(-1 0 0 1 1833 -30)"/><path d="m783 326c-5.541 1.127-9.817 5.144-14.187 8l-2.813-1.098" transform="matrix(-1 0 0 1 1833 -30)"/><path d="m779.278 324c3.679 1.191 5.256 2.381 8.722 2.384-13.686 11.4-28.751 20.409-43.936 28.581-9.625 5.18-21.19 8.556-29.957 15.613-10.138 8.16-22.418 11.51-32.612 19.381-11.114 8.586-23.394 15.569-35.843 20.232-4.28 1.603-7.525 4.225-11.405 6.86-2.925 1.984-16.938 5.757-19.03 5.949 0 0-23.262-1.543-33.248-1.543s-18.714 1.191-23.969 0" transform="matrix(-1 0 0 1 1833 -30)"/><path d="m788.483 325c.552 1.348.588 3.241.447 4.733-7.819 5.516-15.857 8.18-21.011 13.237-6.38 6.26-12.84 8.26-20.105 12.613-9.401 5.632-18.218 11.904-27.897 17.047-16.313 8.668-33.333 14.548-46.095 29.105-8.037 9.168-27.168 14.897-37.864 20.736-11.322 6.183-13.375 8.092-18.342 9.248 0 0-8.337 1.758-18.344 1.155-10.006-.602-29.808-2.311-41.272-2.311m-192-429.563c-19.867 15.242-48.635 24.236-70.915 36.602-16.483 9.148-33.645 17.155-49.085 27.398m125-52c-22.588 9.777-46.856 16.677-67.817 29.374-15.67 9.491-32.713 20.81-47.183 27.626m299 339.5h-24m23 9.386c-7.492.55-13.646-1.266-21-.798m52.789-277.09c.793 6.516-.903 31.59-.895 39.647.005 6.492-.751 22.996-.447 29.278-6.558.137-12.368-.485-19.24 0-6.575.461-18.543-1.307-25.207-.92 1.424-10.102 3.282-46.359 3.282-69.003z" transform="matrix(-1 0 0 1 1833 -30)"/><path d="m585.084 142.853c1.19.335 2.934.014 4.108-.138.709-1.484.958-2.78.721-4.492-16.63-.946-33.757-1.749-50.555-.792-.4 1.49-.505 3.932-.108 5.422 1.377.13 2.855-.38 4.23-.792m40.703 68.301c1.202-.28 1.392.327 2.585.443.31 1.043.31 2.79 0 3.834-16.564.805-33.704.123-50.424-.67-.706-1.383-1.607-3.384-1.272-4.969 1.347.193 2.574-.169 3.915.34" transform="matrix(-1 0 0 1 1833 -30)"/><path d="m588 142c-.647 11.453-1.305 19.43-1.305 33.465 0 11.597-2.515 23.257-1.418 34.535m-22.281-68c.055 11.322-.448 23.143-.448 34.705 0 7.258.131 29.711-.548 33.295m-1-69c0 12.24-.626 22.652-.626 34.868 0 11.702.983 20.495.126 31.827.087.981-.294 3.459-.5 3.297m-12-68.992c-.939 11.231-2.369 22.568-2.38 34.233-.008 6.965.895 27.716-.62 32.767m37.337-67c0 11.8.994 23.423.548 35.35-.209 5.563-.88 11.243-1.096 16.966-.107 2.822.12 5.668.012 8.485-.076 2.044-1.311 8.158-.56 7.07m1.759-58.754c-11.72 0-24.752 1.317-36 .499" transform="matrix(-1 0 0 1 1833 -30)"/><path d="m583 152.066c-3.69.77-12.46-.36-17.633.011-6.247.449-11.8.923-18.367.923m37 15.867c-11.089 1.163-29.142-5.795-39-1.387m39 3.405c-7.062.634-13.994-1.547-20.945-1.829-6.47-.261-11.908.505-18.055 0m37 16.721c-11.94 0-24.479-.763-36-.499m36 1.44c-7.302 3.836-25.37-2.21-35-1.685m35 15.619c-9.867 3.363-26.3-.622-37-.652m37 2c-10.02 1.734-25.745.864-36 0" transform="matrix(-1 0 0 1 1833 -30)"/><path d="m545.824 142c-.998 8.509.487 26.161.011 34.055-.696 11.55-.767 24.643-.767 32.945m-81.068-68 32.792.78c.78 6.494-.888 31.483-.881 39.514.005 6.47-.738 22.918-.439 29.178-6.453.137-14.205.046-20.967.528m24.685-69.348c1.494.348 2.654.348 3.813.348 1.16-.978 1.703-4.936-.61-5.072-15.764-.93-23.829.309-37.393-.928m33.226 74.09c1.067-.203 1.045-.075 2.151.513 1.105.588.39 2.056.453 3.275.1 1.935-8.735.773-10.922.805-7.555.112-7.358-.296-14.908-.556m25-71.127c-.773 11.467-3.538 20.538-2.446 32.117 1.09 11.566-1.482 23.592-.173 34.883" transform="matrix(-1 0 0 1 1833 -30)"/><path d="m474.754 143c.062 11.348-.5 23.196-.5 34.784 0 7.275.493 27.624-.012 31.216m-.547-67c0 11.968-.473 22.147-.473 34.09 0 11.442 1.088 21.83.222 32.91m22.632-67c0 11.947 1.386 23.714.763 35.79-.29 5.632-1.226 11.383-1.526 17.178-.148 2.856.167 5.737.017 8.59-.107 2.07-1.33 4.267-1.33 6.442m1-58.88c-9.251.004-19.745.825-29 .755m30 .221c-9.35.187-19.596-.61-29 .86m30 15.869c-9.331.963-18.713-2.339-28-2.825" transform="matrix(-1 0 0 1 1833 -30)"/><path d="m498 170.887c-4.8.432-9.52-.469-14.227-1.15-4.944-.717-9.77-.844-14.773-.663m26 16.781c-8.435-.002-18.568-.566-27-.71m28 1.567c-11.754.563-19.79.22-27-.698m26 14.986c-8.087 1.837-17.696.695-26 .097m26-.097c-8.325 2.678-17.473 2.156-26 1.348m104.79 86.666c.791 6.608-.905 32.04-.896 40.213.004 6.583-.75 23.325-.448 29.694-6.557.14-12.368-.49-19.24 0-6.575.47-18.542-1.323-25.206-.932 1.424-10.245 3.28-47.02 3.28-69.989z" transform="matrix(-1 0 0 1 1833 -30)"/><path d="m574.085 289.852c1.192.336 2.936.015 4.108-.138.709-1.485.957-2.78.72-4.492-16.63-.946-33.756-1.748-50.556-.79-.397 1.489-.505 3.929-.107 5.42 1.378.13 2.856-.38 4.23-.791m40.133 69.788c1.213-.27 2.949-.013 4.153.099.312 1.006.312 2.696 0 3.704-16.728.777-34.038.118-50.923-.648-.714-1.335-1.049-3.474-.71-5.004 1.36.187 3.512.058 4.867.548" transform="matrix(-1 0 0 1 1833 -30)"/><path d="m577 291c-.731 11.647-3.729 21.682-2.694 33.442 1.034 11.748-1.155 23.09.088 34.558m-22.922-70c.055 11.746-.455 24.01-.455 36.004 0 7.53 2.223 29.969-.017 33.996m-1.445-70c0 12.362-.415 22.01-.415 34.348 0 11.818 1.293 24.207.415 35.652m-13.555-70c-1.151 11.307-2.907 22.718-2.922 34.462-.008 7.012.797 28.267-.078 32.538m38.286-67c0 11.944 1.072 23.706.589 35.778-.224 5.63-.946 11.379-1.178 17.171-.116 2.856.128 5.735.013 8.588-.083 2.068-.934 6.122-.654 6.463m1.944-59.888c-11.718 0-24.751 1.335-36 .505" transform="matrix(-1 0 0 1 1833 -30)"/><path d="m572 300.066c-3.69.77-12.459-.36-17.633.012-6.248.447-11.8.922-18.367.922m37 15.867c-11.088 1.164-29.141-5.796-39-1.387" transform="matrix(-1 0 0 1 1833 -30)"/><path d="m573 317.885c-7.061.634-13.994-1.548-20.945-1.829-6.468-.262-11.907.505-18.055 0m37 17.724c-12.27 0-25.158-.772-37-.504m38 1.587c-7.51 6.395-26.094-3.685-36-2.809m35 17.599c-9.868 3.36-26.3-.622-37-.653m37 2c-10.298 1.734-26.461.863-37 0m-.298-62c-1.011 8.589.494 26.407.012 34.375-.633 10.463-.517 24.026-.517 33.625m-48.608-68 9.217.24c.728 6.589-.829 31.947-.822 40.097.005 6.564-.689 23.256-.41 29.608-3.387.078-5.325.07-8.574-.003m11.344-69.221c2.8 1.748 6.626-5.294 5.431-5.44-5.984-.728-11.058.139-15.775.548m8.054 74.171c1.46.341 2.653.341 3.843.341l1.103 4.126c-6.82 1.243-8.896-.334-14 .533" transform="matrix(-1 0 0 1 1833 -30)"/><path d="m498 289c-.785 11.676-3.573 22.083-2.464 33.87 1.109 11.78-1.476 22.633-.144 34.13m-4.069-68c0 12.27 1.016 24.352.559 36.752-.214 5.784-.898 11.69-1.118 17.64-.11 2.933.121 5.89.013 8.82-.08 2.125-1.291 7.77-.523 6.64m1.746-61.409c-2 .002-4.001.046-6 .114m5 2.818c-2.287.494-3.656.122-6 .006m7 16.329c-2.887.237-5.132-.192-8-.489m8 1.33c-3.23.247-5.814.158-9-.24m8 17.239c-2.667 0-5.335-.041-8-.1m9 .824c-2.236 1.12-5.398.046-8-.055m6 12.98c-1.822.561-4.065.481-6 .602m7 2.25c-1.959.458-3.977.729-6 .898m135-102.699c-7.05 0-14.364-.259-21 .54m23 10.21c-8.164 0-16.487-.142-24-2m15 124.88c-13.722.776-29.214-2.414-42.93-3.68-12.646-1.169-25.58.19-38.238-.925-15.442-1.36-33.058-4.11-46.832-4.275m211-238.233s4.19 1.883 5.715 3.39c1.523 1.505 8.76 6.024 11.81 7.909 3.046 1.884 8 7.154 12.19 9.039 4.19 1.882 7.998 4.895 7.998 4.895l2.287-.753s-4.191-3.013-6.858-4.519c-2.666-1.508-5.332-4.52-8.762-7.156-3.428-2.636-4.19-2.638-9.141-6.78-4.953-4.142-11.429-8.284-14.096-9.792m17.857 29.029c-2.073-.51-3.492-2.138-5.29-3.029-.714 9.896.449 19.94-.084 29.865-.246 4.55-.233 9.162-.414 13.801-.112 2.856-.415 13.034-.001 15.334m4.629-56c-1.575 16.606.184 34.234-.585 51m6.774 3.995c0-17.626-.427-35.07 2.014-51.995 1.305 1.376 4.699 2.148 5.445 3.368.924 1.513.3 8.304.375 10.195.278 7.041-.756 13.775-1.323 20.548-.947 11.33.186 22.584-1.01 33.807-1.235.21-2.42-.013-3.543-.323" transform="matrix(-1 0 0 1 1833 -30)"/><path d="m726.17 167c1.867 4.726 0 12.97 0 18.335 0 5.441-.38 10.759-.37 16.12.022 9.513-2.197 19.256-1.901 28.425-.98.225-2.06.142-2.899-.324m-67.653-42.436c-4.688-.655-9.522 1.566-14.253 1.752-4.077.162-8-.886-12.04-.495-.772 16.799.307 34.46-1.054 50.623 8.87-1.206 18.613-.07 27.794-.585.65-14.164-.447-28.277-.447-42.535zm60.653-28.12c-1.875 8.798-1.996 20.384-2 29.4-.001 4.446.678 8.804.678 13.378 0 3.484-.663 9.84.33 12.222m17.992 121.227c3.303.879 7.78.628 11.32.903 3.103.24 6.848 1.24 9.584.724 2.665-.505 5.276-1.98 7.742-2.927 1.944-.746 7.371-2.922 7.354-2.927m17-16c-4.124 3.87-11.72 3.296-16 7m-2-52.076c-5.115.567-9.8-2.24-15-1.894m15 3.884c-5.088.543-10.105-1.652-15-1.914m14-54c-5.104-1.387-9.389-5.366-15-6m16 8c-5.419-1.828-10.578-4.68-16-6m0-.644c-5.66 0-11.564.384-17 .266m17-2.415c-4.247 0-12.565.798-17 .532m18 59.894c-6.756 0-13.25-.266-20-.266m20-1.184c-2.947 1.17-7.909.384-11.38.267-3.327-.114-7.575.527-10.62-.267m51-46.183c-1.854-.462-5.525-2.155-8-3m7 4c-2.87-.222-4.426-.981-7-2m10 52.999c-4.776.055-11.066-2.05-15-1.998m17 2.999c-4.861-1.27-10.715-.969-16-.969m-16-75.354c1.695-5.518.45-12.763.82-18.525.388-5.995.89-12.403-.336-18.152 4.6 2.285 4.685 3.535 4.44 7.567-.211 3.498-.563 6.832-.82 10.254-.25 3.337.399 7.698 0 10.917-.36 2.897-1.293 6.429 0 9.262zm5 2.338c0-6.28.443-12.276.84-18.52.348-5.525 1.948-11.265.474-16.495 1.562.427 2.954.943 4.489 1.34.72 5.826-.767 11.965-.767 17.8 0 6.034-.42 11.85-.42 17.86z" transform="matrix(-1 0 0 1 1833 -30)"/><path d="m761.957 168c0 11.184.266 22.094-.519 33-1.631-.021-3.23-.164-4.438-.587m-1.187-36.413c.683 5.883-.725 12.171-.725 18.153 0 5.952 1.191 12.127.67 17.772-.72.186-1.165.001-1.758-.28m-2.4 54.207c1.633-5.287.09-12.138.31-17.618.228-5.707.565-11.807-.91-17.234 4.957 2.047 5.084 3.233 4.946 7.07-.118 3.328-.39 6.503-.56 9.762-.165 3.176.658 7.3.332 10.37-.293 2.762-1.179 6.14.282 8.798zm6.46 1.387c-.178-5.955.08-11.652.285-17.584.181-5.25 1.56-10.731-.007-15.655 1.518.365 2.87.818 4.36 1.154.858 5.506-.4 11.367-.238 16.9.17 5.722-.07 11.247.1 16.946z" transform="matrix(-1 0 0 1 1833 -30)"/><path d="m761.234 223c.398 10.502 1.073 20.739.61 30.998-1.773.017-3.517-.08-4.844-.45m-2.006-34.548c.908 5.696-.455 11.849-.29 17.661.165 5.783 1.636 11.747 1.223 17.248-.781.203-1.272.037-1.927-.219m1.34 62.105c1.057-5.913-.569-13.514-.68-19.623-.118-6.356-.165-13.153-1.66-19.172 4.162 2.199 4.33 3.517 4.421 7.79.08 3.709.027 7.248.06 10.879.035 3.54.926 8.119.822 11.54-.093 3.08-.638 6.857.697 9.791zm4.022-.682c-.423-6.646-.49-13.011-.61-19.637-.106-5.863.72-12.008-.752-17.476 1.216.38 2.306.863 3.497 1.21.94 6.132.225 12.698.618 18.873.407 6.384.48 12.558.885 18.917z" transform="matrix(-1 0 0 1 1833 -30)"/><path d="m761.162 279c.74 12.19 1.64 24.068 1.838 35.99-1.09.044-2.166-.041-3-.454m-4-35.536c.838 6.166.155 12.874.494 19.182.338 6.277 1.568 12.726 1.504 18.707-.522.235-.86.063-1.315-.203m15.317-109.731c1.018-4.356.27-10.077.492-14.624.232-4.733.533-9.793-.202-14.331 2.76 1.805 2.811 2.79 2.665 5.974-.128 2.762-.339 5.393-.493 8.095-.15 2.635.24 6.078 0 8.62-.216 2.286-.776 5.074 0 7.311zm5 1.436c0-5.09.221-9.953.42-15.015.174-4.482.973-9.135.236-13.376.783.347 1.477.765 2.246 1.087.36 4.723-.384 9.701-.384 14.432 0 4.892-.21 9.608-.21 14.481z" transform="matrix(-1 0 0 1 1833 -30)"/><path d="m778.983 181c0 9.491.106 18.745-.208 28-.652-.018-1.292-.138-1.775-.498m-3.12-29.502c.32 4.738-.339 9.805-.339 14.623 0 4.796.557 9.77.314 14.317-.337.149-.545.001-.823-.227m.328 46.363c.98-4.258.054-9.777.185-14.192.137-4.597.34-9.512-.545-13.884 2.974 1.65 3.05 2.604 2.966 5.694-.07 2.683-.233 5.24-.335 7.866-.099 2.558.395 5.88.2 8.353-.177 2.225-.708 4.948.169 7.087zm4.675 2.465c-.106-4.934.049-9.655.172-14.57.109-4.35.936-8.891-.004-12.971.91.301 1.722.678 2.616.957.514 4.562-.241 9.418-.143 14.003.102 4.739-.041 9.318.06 14.04l-2.7-1.459z" transform="matrix(-1 0 0 1 1833 -30)"/><path d="m779.694 230c.158 9.485.43 18.732.243 27.998-.709.015-1.407-.071-1.937-.406m-3.502-29.592c.389 4.556-.195 9.48-.125 14.129.07 4.627.7 9.398.525 13.799-.335.162-.545.029-.826-.175m-3.076 54.329c1.411-4.922-.076-11.18.051-16.239.133-5.262.359-10.89-1.047-15.843 4.518 1.732 4.649 2.82 4.574 6.357-.063 3.07-.268 6.003-.38 9.01-.107 2.93.693 6.703.437 9.539-.231 2.554-.99 5.692.369 8.094zm6.109-1.504c-.162-5.293-.047-10.37.033-15.653.07-4.675.895-9.598-.138-13.925.964.274 1.825.634 2.769.884.591 4.87-.157 10.124-.005 15.043.155 5.084.05 10.007.205 15.073z" transform="matrix(-1 0 0 1 1833 -30)"/><path d="m779.27 279c.352 10.15.87 20.035.694 29.974-1.084.065-2.149.021-2.964-.3m-4.722-29.674c.496 5.014-.154 10.512-.034 15.656.122 5.12.904 10.352.731 15.24-.393.206-.643.075-.975-.128m-211.042 136.232c19.867.067 39.653 3.101 58.325 7.026 4.786 4.36-15.725 8.436-21.602 10.31-10.832 3.452-21.295 9.393-31.882 13.687-20.827 8.447-42.483 14.507-63.302 22.495-43.206 16.575-89.116 18.377-134.311 25.07-19.785 2.93-39.207 6.419-58.58 9.057-17.715 2.41-32.914 7.103-50.685 8.88-20.283 2.03-33.312 4.247-53.7.254-17.237-3.375-53.405-2.73-71.116-7.97-22.932-6.785-44.512-13-67.7-21.633-24.39-9.08-42.201-15.677-65.405-22.772" transform="matrix(-1 0 0 1 1833 -30)"/><path d="m621 454c-1.259 1.495-1.083 9.254-2.465 13.577-19.208 1.976-40.062 12.752-58.376 18.24-17.402 5.214-35.829 10.998-52.804 18.58-21.903 9.785-42.614 11.216-66.607 16.9-22.996 5.446-44.463 12.652-67.705 15.167-79.605 8.62-161.302 30.268-241.06 10.374-15.866-3.958-31.492-7.975-47.065-11.454-12.471-2.787-35.195-14.251-45.918-12.66" transform="matrix(-1 0 0 1 1833 -30)"/><path d="m561.433 446c14.99 1.256 38.37 3.12 51.567 10.627-14.256 7.005-32.94 9.483-49.33 14.576-17.052 5.298-33.035 14.734-50.478 20.334-17.718 5.687-35.009 9.806-52.806 15.209-16.93 5.138-34.623 5.163-52.84 7.927-36.17 5.489-73.24 8.586-109.89 14.06-17.793 2.657-35.339 6.195-53.06 8.85-19.676 2.948-42.33.697-62.275-1.341-28.408-2.901-57.13-9.528-83.454-20.369-12.632-5.2-24.823-11.648-37.973-15.747-13.148-4.1-28.518-4.154-40.894-9.612 1.004 1.13 1.083 2.247 1.891 3.6m812.109-293.364c-16.863-.04-35.969-.5-53-.5m54.203.75c2.477 2.428 5.63 4.88 8.797 6.929-19.185.444-43.83-1.36-63-.818m57.5 2.889v53m-.893 6c1.229 10.665-.767 23.854-1.31 34.823-15.408.803-40.505-5.45-53.297.177" transform="matrix(-1 0 0 1 1833 -30)"/><path d="m783 306.205c6.1-3 20.798.39 28.889.726 10.008.416 19.292-1.166 28.792-1.366.962-3.676-.514-4.054-.983-4.565m-1.698-63.5h-53m52 1.875c-17.886.045-33.69.25-52 .25m53 32.443c-19.08.251-44.137 1.812-53 0m50-1.03c-15.61 0-38.436.587-51 .924m15.961-71.962c-.48-4.862.253-11.578 1.039-15.855-1.219-.595-4.702-1.19-5.863-1.142-.275 5.102-.052 11.823-.05 16.997m7.213 1c-.683-2.228-.014-5.524.179-7.763 1.746-.314 3.774-.318 5.521 0-1.657 3.031-.918 4.896-.998 7.763m-19.702 0c-.683-1.671-.014-4.141.179-5.821 1.746-.237 3.774-.24 5.521 0-1.657 2.273-.918 3.671-.998 5.821" transform="matrix(-1 0 0 1 1833 -30)"/><path d="m836.915 302c3.112.687 11.055 2 4.669 5.317-3.854 2-12.374 1.75-16.916 1.553-13.265-.576-26.39-1.25-39.668-1.25m46-91.254c-.762 4.241-1.201 9.926-.984 14.248-2.454-.262-5.803-.991-8.016.386 1.146-4.483.637-10.238.89-15zm-4.303-.366c0 3.343.453 12.15-.501 14m4.804-9.887c-2.836-.138-5.102.992-8 .752m8 3.761c-2.394 0-4.672-.265-7-.251m-12-8.009c-.762 4.241-1.2 9.926-.983 14.248-2.455-.262-5.804-.991-8.017.386 1.147-4.483.637-10.238.89-15zm-5.303-.366c0 3.343.453 12.15-.501 14m6.804-9.887c-2.835-.138-5.1.992-8 .752m6 3.761c-2.393 0-4.672-.265-7-.251m-10-8.009c-.762 4.241-1.201 9.926-.984 14.248-2.454-.262-5.803-.991-8.016.386 1.147-4.483.637-10.238.89-15zm-6.303-.366c0 3.343.453 12.15-.501 14m5.804-9.887c-2.836-.138-5.102.992-8 .752m8 3.761c-2.394 0-4.672-.265-7-.251m45 20.991c-.762 4.241-1.201 9.926-.984 14.248-2.454-.262-5.803-.991-8.016.386 1.146-4.483.637-10.238.89-15zm-4.303-.366c0 3.344.453 12.15-.501 14m4.804-9.887c-2.836-.138-5.102.992-8 .752m8 3.761c-2.394 0-4.672-.265-7-.251m-12-8.009c-.762 4.241-1.2 9.926-.983 14.248-2.455-.262-5.804-.991-8.017.386 1.147-4.483.637-10.238.89-15zm-5.303-.366c0 3.344.453 12.15-.501 14m6.804-9.887c-2.835-.138-5.1.992-8 .752m6 3.761c-2.393 0-4.672-.265-7-.251m-9-7.008c-.762 4.242-1.2 9.926-.983 14.248-2.455-.261-5.804-.99-8.017.385 1.147-4.481.637-10.236.89-15zm-3.303-.367c0 3.343.453 12.15-.501 14m3.804-9.887c-2.835-.138-5.1.992-8 .752m8 3.761c-2.393 0-4.672-.265-7-.251m43 21.991c-.762 4.242-1.201 9.927-.984 14.25-2.454-.262-5.803-.992-8.016.384 1.146-4.482.637-10.237.89-15zm-4.303-.366c0 3.343.453 12.15-.501 14m4.804-8.887c-2.836-.138-5.102.992-8 .752m8 4.761c-2.394 0-4.672-.265-7-.251m-12-10.009c-.762 4.242-1.2 9.927-.983 14.25-2.455-.262-5.804-.992-8.017.384 1.147-4.482.637-10.237.89-15zm-5.303-.366c0 3.343.453 12.15-.501 14m6.804-8.887c-2.835-.138-5.1.992-8 .752m6 4.761c-2.393 0-4.672-.265-7-.251m-9-8.009c-.762 4.241-1.2 9.926-.983 14.248-2.455-.262-5.804-.991-8.017.386 1.147-4.483.637-10.238.89-15zm-3.303-.366c0 3.343.453 12.15-.501 14m3.804-9.887c-2.835-.138-5.1.992-8 .752m8 4.761c-2.393 0-4.672-.265-7-.251m50-72.366c1.997 0 4.024-.041 6 .054-1.475 8.485.534 17.987-.405 26.683-.695 6.445.085 12.801.085 19.254m-.68 7c0 5.284-.96 10.096-.947 15.324.012 4.977.494 9.635.267 14.574-1.867.393-3.442-.489-5.32-.296m-191.013-96.79c1.158 1.499 3.671-.185 2.852-1.874-.674-1.387-3.374-1.037-4.201-.227-2.742 2.685.859 6.666 2.155 8.907 1.76 3.04 2.343 7.23.536 10.422-1.703 3.012-6.785 4.51-6.296 8.615.486 4.104 6.914 6.646 7.102 1.35.078-2.18-2.807-3.958-4.243-1.988-1.94 2.658 2.76 3.77 2.31 1.761" transform="matrix(-1 0 0 1 1833 -30)"/><path d="m640.647 201.665c-1.888.104-2.62-2.44-.405-2.654 1.78-.174 2.38 1.704 2.632 3.318.649 4.155-1.314 7.125-3.29 10.352-1.954 3.191-3 6.115-.81 9.604.914 1.455 2.145 1.958 2.085 3.935-.05 1.64-.782 3.573-2.232 3.764-2.832.374-5.52-5.807-1.828-5.977 1.516-.07 2.86 1.696 2.024 3.306-1.298 2.501-3.065-1.072-.808-.873m-166.015 63.907c-.588 5.867-1.573 11.625-2.068 17.41-6.008.911-12.703-1.008-18.83-1.347-.713-6 2.57-11.328 1.869-17.41zm.178 116.653c2.415-16.205-1.185-33.535-1.957-49.918-.683-14.5 1.862-30.692-1.403-44.49-5.3-.671-11.432-2.203-16.764-1.33 1.517 16.06-.664 32.015-1.436 47.818-.351 7.18-.618 14.074-.618 21.298v19.302m-89.155-119.73c.549 4.676-.518 10.004-.773 14.757-23.232 1.187-46.135-1.54-68.874-2.701-.264-5.25-.264-10.756 0-16.006 9.52.497 19.714 1.44 29.407 1.92 9.127.456 20.502-1.734 28.839 1.354z" transform="matrix(-1 0 0 1 1833 -30)"/></g></g></svg>