<svg xmlns="http://www.w3.org/2000/svg" xmlns:xlink="http://www.w3.org/1999/xlink" width="530" height="485" viewBox="0 0 530 485">
  <defs>
    <polygon id="main-service3-a" points="0 0 529.193 0 529.193 485.225 0 485.225"/>
    <polygon id="main-service3-c" points=".359 .039 103.064 .039 103.064 50.313 .359 50.313"/>
    <polygon id="main-service3-e" points="0 .523 267.229 .523 267.229 206.046 0 206.046"/>
  </defs>
  <g fill="none" fill-rule="evenodd">
    <mask id="main-service3-b" fill="#fff">
      <use xlink:href="#main-service3-a"/>
    </mask>
    <path fill="#F8F8F8" d="M120.2206,329.2275 C155.3036,360.2525 124.5326,445.9135 231.9586,479.3365 C339.3856,512.7605 489.5296,396.9985 517.5516,305.8415 C545.5736,214.6835 520.0206,156.3215 472.7446,133.8585 C425.4686,111.3945 352.7426,127.5285 329.8576,65.6005 C306.9716,3.6715 225.4806,-23.7225 151.0666,24.8955 C84.6836,68.2655 134.2576,109.2415 50.7756,141.7475 C-8.5624,164.8525 -17.4934,240.5055 32.4676,282.2275 C73.7216,316.6765 90.3956,302.8505 120.2206,329.2275" mask="url(#main-service3-b)"/>
    <g transform="translate(29 16)">
      <polygon fill="#FFF" points="341.333 124.255 468 153 467.665 36.745 341 8"/>
      <path fill="#0A0A0A" d="M340.71648,124.71185 L467.590236,153.542748 L467.255033,36.9400068 L340.38247,8.10910901 L340.71648,124.71185 Z M468.459855,155.491248 C468.395439,155.491248 468.331023,155.485293 468.267799,155.468619 L339.660769,126.244686 C339.267114,126.156551 338.987977,125.807584 338.986784,125.405021 L338.647994,7.02647646 C338.647994,6.76445318 338.766099,6.51553107 338.971277,6.34998 C339.177647,6.18442892 339.449627,6.12249615 339.704906,6.18204689 L468.310744,35.4071706 C468.704398,35.4964967 468.983536,35.8442731 468.984728,36.2480272 L469.325896,154.62419 C469.325896,154.887404 469.206607,155.137517 469.001429,155.301877 C468.846353,155.425743 468.654297,155.491248 468.459855,155.491248 L468.459855,155.491248 Z"/>
      <polygon fill="#0048FA" points="455.295 49.448 354.396 26.521 354.322 .903 455.221 23.831"/>
      <g transform="translate(353.096)">
        <mask id="main-service3-d" fill="#fff">
          <use xlink:href="#main-service3-c"/>
        </mask>
        <path fill="#0A0A0A" d="M2.1642665,25.8296243 L101.329495,48.3648173 L101.260307,24.5206989 L2.09507868,1.98669689 L2.1642665,25.8296243 Z M102.197921,50.3133177 C102.134698,50.3133177 102.070282,50.3061716 102.005865,50.2906884 L1.10855584,27.3624605 C0.714901015,27.2731343 0.435763959,26.925358 0.434571066,26.5216039 L0.359418782,0.906446373 C0.359418782,0.643232079 0.479901015,0.394309964 0.68507868,0.228758893 C0.891449239,0.0632078207 1.16342893,8.40307892e-05 1.41751523,0.0608257909 L102.317211,22.9890537 C102.709673,23.0771888 102.98881,23.4249652 102.990003,23.8287192 L103.063971,49.4450678 C103.065155,49.7094731 102.944673,49.9595862 102.739495,50.1215643 C102.585612,50.2466208 102.392363,50.3133177 102.197921,50.3133177 L102.197921,50.3133177 Z" mask="url(#main-service3-d)"/>
      </g>
      <path fill="#FFF" d="M376.914591 11.4560991L376.956343 26.23183 374.75784 25.7316037C374.775734 25.5970191 374.784084 25.4600523 374.784084 25.3218946 374.776926 23.0970788 372.814617 20.7936559 370.21053 19.7503269L370.208145 18.9690211C371.508398 18.7605935 372.426926 17.7113094 372.422155 16.2249228 372.41619 14.3061978 370.870201 12.3910458 368.955607 11.9563254 367.050556 11.5239869 365.512916 12.7364401 365.517688 14.6575472 365.522459 16.1427427 366.449338 17.6112641 367.750784 18.4104351L367.75317 19.1917409C365.152662 19.0523922 363.201089 20.4661269 363.207053 22.6909427 363.208246 22.8302914 363.216596 22.9708312 363.233297 23.113753L361.035987 22.6135267 360.993043 7.83779581 376.914591 11.4560991zM447.635396 31.0659213L386.512731 17.1763055C385.987858 17.057204 385.557223 16.5200563 385.55603 15.9840996L385.553638 15.3338054C385.551259 14.4858028 386.226437 13.945082 387.055497 14.1332624L448.178162 28.0228782C448.703036 28.1419797 449.13367 28.6791274 449.134863 29.2162752L449.137255 29.8653783C449.139635 30.7145719 448.463264 31.2541017 447.635396 31.0659213M447.650546 36.5243426L386.527881 22.6359178C386.003008 22.5156253 385.573566 21.9796686 385.572373 21.4425209L385.569981 20.7922267C385.567602 19.9442241 386.242779 19.4046944 387.07184 19.5928747L448.194505 33.4812995C448.719378 33.601592 449.14882 34.1375487 449.151206 34.6746965L449.152405 35.3249906C449.154784 36.1729932 448.478414 36.712523 447.650546 36.5243426M406.55167 32.5791057L386.544462 28.0330018C386.019589 27.9139004 385.588954 27.3767526 385.587761 26.8407959L385.585369 26.1905018C385.58299 25.3424992 386.258168 24.8029694 387.087228 24.9899588L407.095629 29.5372537C407.620503 29.6563552 408.049944 30.1923119 408.05233 30.7294596L408.053529 31.3797537C408.055909 32.2277563 407.379538 32.7672861 406.55167 32.5791057M419.835373 35.5985667L411.992099 33.8156174C411.467226 33.6965159 411.037784 33.1593682 411.035398 32.6234115L411.034199 31.9731174C411.03182 31.1251147 411.70819 30.585585 412.536058 30.7725743L420.379332 32.5555236C420.904206 32.6746251 421.333647 33.2117729 421.336033 33.7477296L421.33724 34.3980237C421.340805 35.2460263 420.663241 35.7867471 419.835373 35.5985667"/>
      <polygon fill="#0048FA" points="422.166 86.741 321.269 63.814 321.194 38.197 422.092 61.125"/>
      <path fill="#0A0A0A" d="M322.133467,63.1232785 L421.297503,85.6584715 L421.228315,61.8155441 L322.063086,39.2803511 L322.133467,63.1232785 Z M422.165929,87.6069719 C422.102706,87.6069719 422.038289,87.5998258 421.975066,87.5843426 L321.076563,64.6561147 C320.684102,64.5667885 320.403772,64.2190122 320.403772,63.8164492 L320.328611,38.2001006 C320.327426,37.9368863 320.447909,37.6879642 320.654279,37.5236041 C320.86065,37.356862 321.131437,37.2937382 321.386716,37.35448 L422.285218,60.2827079 C422.67768,60.370843 422.95801,60.7198104 422.95801,61.1223734 L423.031978,86.738722 C423.033162,87.0031273 422.91268,87.2532404 422.708695,87.4152185 C422.553619,87.540275 422.361563,87.6069719 422.165929,87.6069719 L422.165929,87.6069719 Z"/>
      <path fill="#FFF" d="M343.786152 48.7497533L343.829096 63.5254842 341.630594 63.025258C341.647294 62.8906733 341.655645 62.7548976 341.655645 62.6155488 341.64968 60.390733 339.686178 58.0873102 337.083284 57.0439811L337.080898 56.2626753C338.381152 56.0542477 339.298487 55.0049636 339.293716 53.519768 339.288944 51.599852 337.742954 49.6847 335.82836 49.2499796 333.92331 48.8176412 332.384477 50.0300943 332.390442 51.9512014 332.39402 53.436397 333.320898 54.9049183 334.623538 55.7040893L334.625924 56.4853951C332.024223 56.3460464 330.07265 57.7597811 330.079807 59.9845969 330.079807 60.1239456 330.08935 60.2644854 330.106051 60.4074072L327.907548 59.9071809 327.865797 45.13145 343.786152 48.7497533zM414.506957 68.3595755L353.384292 54.4699597C352.859419 54.3508582 352.429977 53.8137105 352.427591 53.2777538L352.426392 52.6274596C352.424013 51.779457 353.09919 51.2387363 353.928251 51.4269166L415.050916 65.3165324C415.575789 65.4356339 416.005231 65.9727816 416.007617 66.5099294L416.008816 67.1590325C416.011195 68.0082261 415.334825 68.5477559 414.506957 68.3595755M414.523299 73.8179968L353.400635 59.929572C352.875761 59.8092795 352.445127 59.2733228 352.443934 58.7361751L352.441542 58.0858809C352.439162 57.2378783 353.11434 56.6983486 353.943401 56.8865289L415.066066 70.7749537C415.590939 70.8952462 416.021574 71.4312029 416.022766 71.9683507L416.025159 72.6186448C416.027538 73.4666474 415.351168 74.0061772 414.523299 73.8179968M373.424424 69.873951L353.416023 65.3266561C352.89115 65.2075546 352.461708 64.6704068 352.459322 64.1344501L352.458123 63.484156C352.455744 62.6361534 353.130921 62.0966236 353.959982 62.283613L373.96719 66.8309079C374.492063 66.9500094 374.922698 67.4871571 374.923891 68.0231138L374.926283 68.6734079C374.928662 69.5214105 374.252292 70.0609403 373.424424 69.873951M386.708127 72.8922209L378.86366 71.1092716C378.338787 70.9901701 377.909345 70.4530224 377.908152 69.9170657L377.90576 69.2667716C377.903381 68.4187689 378.579751 67.8792392 379.407619 68.0662285L387.250893 69.8491778C387.776959 69.9682793 388.206401 70.5054271 388.207594 71.0413838L388.209986 71.6916779C388.212365 72.5408715 387.535995 73.0804013 386.708127 72.8922209"/>
      <polygon fill="#0048FA" points="455.748 129.333 354.851 106.405 354.776 80.787 455.674 103.715"/>
      <path fill="#0A0A0A" d="M355.715086,105.713733 L454.879122,128.248926 L454.811127,104.405999 L355.644706,81.8708059 L355.715086,105.713733 Z M455.747548,130.197427 C455.684325,130.197427 455.619909,130.190281 455.556685,130.174797 L354.658183,107.246569 C354.265721,107.158434 353.986584,106.809467 353.985391,106.406904 L353.91023,80.7905554 C353.909046,80.5273411 354.029528,80.278419 354.235898,80.1140589 C354.442269,79.9485078 354.713056,79.884193 354.968335,79.9449348 L455.866838,102.873163 C456.260492,102.961298 456.539629,103.310265 456.539629,103.712828 L456.614782,129.330368 C456.614782,129.593582 456.494299,129.843695 456.290315,130.006864 C456.135239,130.13073 455.943183,130.197427 455.747548,130.197427 L455.747548,130.197427 Z"/>
      <path fill="#FFF" d="M377.367772 91.340089L377.410716 106.11582 375.212213 105.616785C375.228914 105.4822 375.238457 105.345233 375.237264 105.205885 375.231299 102.981069 373.267797 100.678837 370.664904 99.6355078L370.662518 98.854202C371.962772 98.6457744 372.880107 97.5952993 372.876528 96.1101037 372.870563 94.1901877 371.324574 92.2750357 369.40998 91.8415063 367.504929 91.4079768 365.966096 92.62043 365.972061 94.5415371 365.976832 96.0267326 366.902518 97.495254 368.205157 98.295616L368.207543 99.0769218C365.605843 98.9375731 363.654269 100.351308 363.661426 102.576124 363.661426 102.714281 363.67097 102.854821 363.68767 102.997743L361.489168 102.498708 361.447416 87.7217857 377.367772 91.340089zM448.088576 110.95003L386.965911 97.0604145C386.441038 96.941313 386.011596 96.4041653 386.010404 95.8682086L386.008011 95.2179144C386.005632 94.3699118 386.68081 93.8303821 387.509871 94.0173714L448.632536 107.906987C449.157409 108.02728 449.58685 108.563236 449.589236 109.100384L449.590435 109.750678C449.592815 110.598681 448.916444 111.138211 448.088576 110.95003M448.104919 116.409643L386.982254 102.520027C386.457381 102.399734 386.026746 101.863778 386.025553 101.32663L386.023161 100.677527C386.020782 99.8283331 386.695959 99.2888034 387.52502 99.4769837L448.647685 113.3666C449.172558 113.485701 449.603193 114.022849 449.604386 114.558805L449.606778 115.2091C449.609157 116.057102 448.932787 116.597823 448.104919 116.409643M407.006043 112.464406L386.997642 107.918302C386.472769 107.798009 386.043327 107.262053 386.040942 106.724905L386.039742 106.074611C386.037363 105.226608 386.712541 104.687078 387.541602 104.875259L407.54881 109.421363C408.073683 109.540464 408.504317 110.077612 408.50551 110.613569L408.507902 111.263863C408.510282 112.111865 407.833911 112.652586 407.006043 112.464406M420.289746 115.482557L412.446472 113.700798C411.920406 113.580506 411.490964 113.044549 411.489772 112.507401L411.487379 111.857107C411.485 111.009105 412.161371 110.469575 412.989239 110.657755L420.833706 112.439514C421.358579 112.559806 421.78802 113.095763 421.789213 113.63291L421.791605 114.283205C421.793985 115.131207 421.117614 115.670737 420.289746 115.482557"/>
      <path fill="#194376" d="M310.648409,201.538028 L364.709145,217.578617 C365.729069,217.869225 366.493713,217.386864 366.669069,216.342344 L380.347977,134.803081 C380.68318,132.799794 378.78648,129.877044 376.856378,129.425649 L323.282343,116.897363 C322.316099,116.67107 321.603942,117.158195 321.434551,118.16103 L307.270135,196.189181 C306.940896,198.141254 308.742165,200.993735 310.648409,201.538028"/>
      <path fill="#0A0A0A" d="M309.949492,199.773659 L363.144188,215.125841 C364.162919,215.420022 364.931142,214.957908 365.110076,213.941972 L379.101523,134.712088 C379.445076,132.764778 377.555533,129.900388 375.624239,129.439465 L322.016802,116.66583 C321.050558,116.434773 320.334822,116.902842 320.163046,117.875901 L306.58434,194.52962 C306.247944,196.426907 308.040863,199.222219 309.949492,199.773659"/>
      <path fill="#FFF" d="M373.347482,136.37534 L361.95535,200.105357 L361.34101,203.543817 C361.193091,204.362044 360.570401,204.722921 359.764005,204.488291 L315.066289,191.596746 C313.534614,191.157262 312.091213,188.911008 312.362,187.381744 L324.038041,122.366623 C324.171645,121.584126 324.760934,121.219675 325.531543,121.41262 L337.551137,124.274629 L370.55969,132.132945 C372.118802,132.500969 373.631391,134.811538 373.347482,136.37534"/>
      <polygon fill="#A6CBF9" points="339.337 201.294 338.395 205.069 334.347 203.897 335.289 200.121"/>
      <path fill="#FFF" d="M302.670934,136.102002 C304.921924,159.073107 293.628802,158.750342 283.535731,157.286584 L281.501848,168.657204 C276.168421,169.386105 254.136873,174.040591 249.386772,174.960054 C253.218345,161.372956 254.377838,162.908175 257.864665,156.199188 C258.137838,155.995524 269.421416,155.560804 269.421416,155.560804 C271.681949,153.992237 273.734919,151.732882 275.038751,148.513568 C279.500173,137.438321 275.472964,135.816159 269.543091,134.071322 C263.613218,132.326485 264.043853,124.314528 268.043624,123.122322 C272.045782,121.944408 277.38398,130.805559 277.38398,130.805559 C277.38398,130.805559 280.474766,129.790814 278.891797,118.3797 C277.325528,106.979306 287.747838,101.584008 287.747838,101.584008 C287.747838,101.584008 292.180629,105.628695 296.279411,113.688293 C299.10299,119.253905 301.747635,126.717996 302.670934,136.102002"/>
      <path stroke="#171717" d="M302.670934,136.102002 C304.921924,159.073107 293.628802,158.750342 283.535731,157.286584 L281.501848,168.657204 C276.168421,169.386105 254.136873,174.040591 249.386772,174.960054 C253.218345,161.372956 254.377838,162.908175 257.864665,156.199188 C258.137838,155.995524 269.421416,155.560804 269.421416,155.560804 C271.681949,153.992237 273.734919,151.732882 275.038751,148.513568 C279.500173,137.438321 275.472964,135.816159 269.543091,134.071322 C263.613218,132.326485 264.043853,124.314528 268.043624,123.122322 C272.045782,121.944408 277.38398,130.805559 277.38398,130.805559 C277.38398,130.805559 280.474766,129.790814 278.891797,118.3797 C277.325528,106.979306 287.747838,101.584008 287.747838,101.584008 C287.747838,101.584008 292.180629,105.628695 296.279411,113.688293 C299.10299,119.253905 301.747635,126.717996 302.670934,136.102002 Z"/>
      <path fill="#FFF" d="M406.983855,128.928043 C407.066165,128.120535 406.715454,127.603634 405.702688,127.327319 C404.824718,127.089116 404.185327,127.442847 403.757079,127.863276 C403.879947,126.998599 403.539972,126.451923 402.485454,126.166079 C401.277053,125.837359 400.521952,126.621047 400.152155,127.172487 C400.371647,126.173226 400.056723,125.564617 398.912739,125.253762 C397.118627,124.767828 396.305074,126.744913 396.305074,126.744913 L390.739033,136.564831 L391.67784,123.770948 L396.368297,112.721903 C397.161571,105.401926 393.136749,111.700012 393.136749,111.700012 L386.714211,122.286944 L383.971749,138.73486 L383.797586,138.736051 L383.904947,139.136232 L383.887053,139.246996 L383.935962,139.249378 L389.943373,161.539222 C389.943373,161.539222 399.901647,169.579764 404.397662,161.909628 C410.891774,150.835571 406.561571,138.530005 406.561571,138.530005 L408.243551,132.526099 L411.617053,137.153192 C413.707003,138.407331 413.627079,136.003863 413.627079,136.003863 C413.627079,136.003863 410.245226,127.712017 406.983855,128.928043"/>
      <path stroke="#171717" d="M406.983855,128.928043 C407.066165,128.120535 406.715454,127.603634 405.702688,127.327319 C404.824718,127.089116 404.185327,127.442847 403.757079,127.863276 C403.879947,126.998599 403.539972,126.451923 402.485454,126.166079 C401.277053,125.837359 400.521952,126.621047 400.152155,127.172487 C400.371647,126.173226 400.056723,125.564617 398.912739,125.253762 C397.118627,124.767828 396.305074,126.744913 396.305074,126.744913 L390.739033,136.564831 L391.67784,123.770948 L396.368297,112.721903 C397.161571,105.401926 393.136749,111.700012 393.136749,111.700012 L386.714211,122.286944 L383.971749,138.73486 L383.797586,138.736051 L383.904947,139.136232 L383.887053,139.246996 L383.935962,139.249378 L389.943373,161.539222 C389.943373,161.539222 399.901647,169.579764 404.397662,161.909628 C410.891774,150.835571 406.561571,138.530005 406.561571,138.530005 L408.243551,132.526099 L411.617053,137.153192 C413.707003,138.407331 413.627079,136.003863 413.627079,136.003863 C413.627079,136.003863 410.245226,127.712017 406.983855,128.928043 Z"/>
      <path fill="#FFF" d="M414.910036,193.666254 C410.798132,172.983089 404.826508,159.249496 404.826508,159.249496 L389.846152,161.208715 L389.837802,161.193232 L389.513335,161.242064 C394.733437,204.229365 389.885518,221.19299 386.248386,226.304826 C385.807015,226.918199 385.569629,227.2362 385.569629,227.2362 C385.569629,227.2362 385.181939,226.805052 384.459046,226.03923 L384.455467,226.022556 C383.880492,225.418711 383.112269,224.592147 382.156761,223.591694 C381.833487,223.235581 381.472041,222.853265 381.071228,222.442365 C380.986533,222.35423 380.917345,222.262522 380.833843,222.174386 C380.196838,221.513373 379.518081,220.807101 378.795188,220.04247 C378.030543,219.248063 377.202675,218.379813 376.334249,217.48417 C375.76166,216.880325 375.150898,216.266952 374.53298,215.61904 C373.917447,214.971128 373.281635,214.308924 372.629122,213.650293 C371.653335,212.636739 370.619096,211.5815 369.547878,210.51435 C369.207904,210.163001 368.850036,209.796168 368.490975,209.429336 C368.047218,208.975559 367.583183,208.506299 367.119147,208.03823 C366.83166,207.77978 366.573995,207.49751 366.300822,207.220003 C364.808513,205.730044 363.276838,204.2115 361.705797,202.667944 C361.32765,202.28682 360.929223,201.892594 360.533183,201.516233 C359.756609,200.742073 358.963335,199.971487 358.149782,199.186608 C356.956888,198.020604 355.748487,196.860556 354.522193,195.700507 C354.123766,195.307472 353.70864,194.916819 353.297091,194.54165 C352.487117,193.773445 351.660442,193.008813 350.85166,192.257283 C350.622624,192.040518 350.394782,191.822563 350.184832,191.617708 C349.296127,190.795908 348.406228,189.972916 347.521102,189.16779 C346.594223,188.332889 345.688817,187.513471 344.785797,186.709536 C343.577396,185.651914 342.390467,184.607394 341.227396,183.608133 C340.435315,182.939973 339.66232,182.286106 338.909604,181.64534 C338.526685,181.334485 338.155695,181.005765 337.776355,180.711585 C337.393437,180.40073 337.026025,180.087493 336.645492,179.794503 C335.537294,178.906006 334.452954,178.050857 333.396051,177.257641 C332.713716,176.724067 332.037345,176.225031 331.368132,175.759345 C329.683766,174.544509 328.115112,173.497607 326.653817,172.656751 C326.384223,172.499537 326.097929,172.343514 325.811635,172.188682 C324.433843,171.434769 323.180112,170.884521 322.105315,170.576048 C321.532726,170.266384 320.932701,169.993641 320.302853,169.762585 C311.718792,166.525406 298.77232,166.668328 285.988081,168.109456 C284.48265,168.275007 282.979604,168.457232 281.496838,168.65375 C281.008944,168.72402 280.521051,168.793098 280.03435,168.863368 C275.222218,169.550584 270.522218,170.372384 266.205137,171.213241 C258.425086,172.743695 251.876102,174.344419 248.027827,175.338916 C245.711228,175.937997 243.825264,177.601845 242.954452,179.825469 C235.950975,197.689502 210.370569,280.100587 210.630619,302.403532 C210.906178,327.519655 193.69034,324.652882 193.613549,332.606479 C193.556736,338.542498 199.03331,336.754784 199.827777,339.453624 C200.115264,340.384998 199.842091,341.845182 198.61699,344.337976 C195.398563,350.864738 196.313513,365.387974 197.263056,374.234832 C197.700848,378.308103 201.360645,381.248719 205.44034,380.821145 C215.452294,379.77067 231.46331,377.78763 247.805949,373.608359 C261.216457,370.178236 292.556152,363.693159 313.017853,339.453624 C333.499832,315.22719 302.064706,271.164402 318.116279,251.002902 C321.34067,246.947496 324.264452,241.602222 326.718234,235.566158 C329.449959,238.006548 332.475137,240.151565 335.699528,241.970245 C363.848234,257.779777 385.014934,272.106495 401.989807,260.751359 C405.092523,258.977938 407.860036,256.364851 410.238665,252.720346 C419.635086,240.276622 418.790518,213.32991 414.910036,193.666254"/>
      <path stroke="#171717" d="M414.910036,193.666254 C410.798132,172.983089 404.826508,159.249496 404.826508,159.249496 L389.846152,161.208715 L389.837802,161.193232 L389.513335,161.242064 C394.733437,204.229365 389.885518,221.19299 386.248386,226.304826 C385.807015,226.918199 385.569629,227.2362 385.569629,227.2362 C385.569629,227.2362 385.181939,226.805052 384.459046,226.03923 L384.455467,226.022556 C383.880492,225.418711 383.112269,224.592147 382.156761,223.591694 C381.833487,223.235581 381.472041,222.853265 381.071228,222.442365 C380.986533,222.35423 380.917345,222.262522 380.833843,222.174386 C380.196838,221.513373 379.518081,220.807101 378.795188,220.04247 C378.030543,219.248063 377.202675,218.379813 376.334249,217.48417 C375.76166,216.880325 375.150898,216.266952 374.53298,215.61904 C373.917447,214.971128 373.281635,214.308924 372.629122,213.650293 C371.653335,212.636739 370.619096,211.5815 369.547878,210.51435 C369.207904,210.163001 368.850036,209.796168 368.490975,209.429336 C368.047218,208.975559 367.583183,208.506299 367.119147,208.03823 C366.83166,207.77978 366.573995,207.49751 366.300822,207.220003 C364.808513,205.730044 363.276838,204.2115 361.705797,202.667944 C361.32765,202.28682 360.929223,201.892594 360.533183,201.516233 C359.756609,200.742073 358.963335,199.971487 358.149782,199.186608 C356.956888,198.020604 355.748487,196.860556 354.522193,195.700507 C354.123766,195.307472 353.70864,194.916819 353.297091,194.54165 C352.487117,193.773445 351.660442,193.008813 350.85166,192.257283 C350.622624,192.040518 350.394782,191.822563 350.184832,191.617708 C349.296127,190.795908 348.406228,189.972916 347.521102,189.16779 C346.594223,188.332889 345.688817,187.513471 344.785797,186.709536 C343.577396,185.651914 342.390467,184.607394 341.227396,183.608133 C340.435315,182.939973 339.66232,182.286106 338.909604,181.64534 C338.526685,181.334485 338.155695,181.005765 337.776355,180.711585 C337.393437,180.40073 337.026025,180.087493 336.645492,179.794503 C335.537294,178.906006 334.452954,178.050857 333.396051,177.257641 C332.713716,176.724067 332.037345,176.225031 331.368132,175.759345 C329.683766,174.544509 328.115112,173.497607 326.653817,172.656751 C326.384223,172.499537 326.097929,172.343514 325.811635,172.188682 C324.433843,171.434769 323.180112,170.884521 322.105315,170.576048 C321.532726,170.266384 320.932701,169.993641 320.302853,169.762585 C311.718792,166.525406 298.77232,166.668328 285.988081,168.109456 C284.48265,168.275007 282.979604,168.457232 281.496838,168.65375 C281.008944,168.72402 280.521051,168.793098 280.03435,168.863368 C275.222218,169.550584 270.522218,170.372384 266.205137,171.213241 C258.425086,172.743695 251.876102,174.344419 248.027827,175.338916 C245.711228,175.937997 243.825264,177.601845 242.954452,179.825469 C235.950975,197.689502 210.370569,280.100587 210.630619,302.403532 C210.906178,327.519655 193.69034,324.652882 193.613549,332.606479 C193.556736,338.542498 199.03331,336.754784 199.827777,339.453624 C200.115264,340.384998 199.842091,341.845182 198.61699,344.337976 C195.398563,350.864738 196.313513,365.387974 197.263056,374.234832 C197.700848,378.308103 201.360645,381.248719 205.44034,380.821145 C215.452294,379.77067 231.46331,377.78763 247.805949,373.608359 C261.216457,370.178236 292.556152,363.693159 313.017853,339.453624 C333.499832,315.22719 302.064706,271.164402 318.116279,251.002902 C321.34067,246.947496 324.264452,241.602222 326.718234,235.566158 C329.449959,238.006548 332.475137,240.151565 335.699528,241.970245 C363.848234,257.779777 385.014934,272.106495 401.989807,260.751359 C405.092523,258.977938 407.860036,256.364851 410.238665,252.720346 C419.635086,240.276622 418.790518,213.32991 414.910036,193.666254 Z"/>
      <path fill="#FFAF1B" d="M308.021419,118.663638 C307.434515,115.659899 306.197485,112.951531 304.544135,111.050671 C302.738094,108.969968 300.649338,108.060033 298.642891,108.439966 C297.318779,108.693653 296.173602,109.510689 295.303982,110.783884 C295.686901,111.419886 296.060277,112.088045 296.433652,112.799081 C296.467053,112.851486 296.489718,112.905081 296.521926,112.969396 C297.14581,111.592583 298.021393,110.746962 299.056825,110.539726 L299.248881,110.503995 C300.414338,110.370602 301.71817,111.047098 302.915835,112.440585 C304.34015,114.07704 305.400632,116.435249 305.918348,119.078112 C306.944236,124.236397 305.5235,129.054052 302.812053,129.582863 C302.544845,129.640032 302.27883,129.643605 302.010429,129.61502 C302.127332,130.31891 302.232307,131.0228 302.318195,131.758847 C302.499515,131.767184 302.692764,131.754083 302.875277,131.730263 C302.990987,131.718353 303.109084,131.705252 303.225987,131.682622 C307.207865,130.900125 309.310937,125.176108 308.021419,118.663638"/>
      <path stroke="#121212" d="M308.021419,118.663638 C307.434515,115.659899 306.197485,112.951531 304.544135,111.050671 C302.738094,108.969968 300.649338,108.060033 298.642891,108.439966 C297.318779,108.693653 296.173602,109.510689 295.303982,110.783884 C295.686901,111.419886 296.060277,112.088045 296.433652,112.799081 C296.467053,112.851486 296.489718,112.905081 296.521926,112.969396 C297.14581,111.592583 298.021393,110.746962 299.056825,110.539726 L299.248881,110.503995 C300.414338,110.370602 301.71817,111.047098 302.915835,112.440585 C304.34015,114.07704 305.400632,116.435249 305.918348,119.078112 C306.944236,124.236397 305.5235,129.054052 302.812053,129.582863 C302.544845,129.640032 302.27883,129.643605 302.010429,129.61502 C302.127332,130.31891 302.232307,131.0228 302.318195,131.758847 C302.499515,131.767184 302.692764,131.754083 302.875277,131.730263 C302.990987,131.718353 303.109084,131.705252 303.225987,131.682622 C307.207865,130.900125 309.310937,125.176108 308.021419,118.663638 Z"/>
      <path fill="#FFAF1B" d="M275.920538,127.242757 C275.370614,127.242757 274.876756,126.861632 274.755081,126.304237 C274.616706,125.661089 275.025868,125.027469 275.67003,124.886929 L308.740614,117.765851 C309.384777,117.630076 310.018203,118.036212 310.157772,118.678169 C310.296147,119.321317 309.888178,119.954937 309.244015,120.094285 L276.173431,127.216555 C276.088736,127.23442 276.004041,127.242757 275.920538,127.242757"/>
      <path stroke="#121212" d="M275.920538,127.242757 C275.370614,127.242757 274.876756,126.861632 274.755081,126.304237 C274.616706,125.661089 275.025868,125.027469 275.67003,124.886929 L308.740614,117.765851 C309.384777,117.630076 310.018203,118.036212 310.157772,118.678169 C310.296147,119.321317 309.888178,119.954937 309.244015,120.094285 L276.173431,127.216555 C276.088736,127.23442 276.004041,127.242757 275.920538,127.242757 Z"/>
      <path fill="#FFF" d="M10.897797,296.732039 C10.897797,296.732039 5.7015533,276.700359 6.15127411,272.792639 C6.59980203,268.884919 12.5499543,258.698169 15.5071371,254.267593 L23.3563756,277.871127 L17.7819848,299.393957 C17.7819848,299.393957 13.1118071,301.109018 10.897797,296.732039"/>
      <path stroke="#171717" d="M10.897797,296.732039 C10.897797,296.732039 5.7015533,276.700359 6.15127411,272.792639 C6.59980203,268.884919 12.5499543,258.698169 15.5071371,254.267593 L23.3563756,277.871127 L17.7819848,299.393957 C17.7819848,299.393957 13.1118071,301.109018 10.897797,296.732039 Z"/>
      <path fill="#0A0A0A" d="M44.7158477,216.901525 L67.1851878,275.064738 C67.933132,276.998946 67.0444264,279.458392 65.2097563,280.533879 L34.5309239,298.488428 C32.6974467,299.560342 30.5836396,298.857643 29.8368883,296.923435 L7.36754822,238.760222 C6.62079695,236.826014 7.51069543,234.361804 9.34417259,233.288699 L40.0218122,215.33415 C41.8576751,214.259854 43.9690964,214.967317 44.7158477,216.901525"/>
      <path fill="#FFF" d="M57.1294543,257.179625 L42.6763579,219.765082 C42.3363832,218.887304 41.3868401,218.569303 40.5553934,219.055237 L11.3533629,236.146301 C10.5231091,236.632235 10.1211041,237.74107 10.4610787,238.620039 L24.9141751,276.033391 L24.9129822,276.033391 L30.1569416,289.605005 C30.4957234,290.481592 31.4476523,290.798402 32.2779061,290.311277 L61.4799365,273.220213 C62.3101904,272.73547 62.7110025,271.627826 62.3734137,270.751239 L57.1294543,257.178434 L57.1294543,257.179625 Z"/>
      <path fill="#0A0A0A" d="M32.0530457,222.001689 C33.1373858,224.808911 30.9985279,228.851216 27.2778934,231.028391 C23.5572589,233.205566 19.6600761,232.695812 18.575736,229.889781 C18.3562437,229.319285 18.2679695,228.695193 18.3013706,228.04609 L31.0641371,220.577235 C31.4935787,220.954787 31.8311675,221.431193 32.0530457,222.001689"/>
      <path fill="#FFF" d="M112.974043,181.407137 C107.190896,192.950454 119.431175,222.946164 133.384449,234.176244 C141.549805,240.748264 153.345135,232.680329 153.345135,232.680329 L156.477673,248.670895 L186.362038,238.212593 L177.711175,216.399155 L146.082799,161.769683 C146.082799,161.769683 122.712825,161.963819 112.974043,181.407137"/>
      <path stroke="#171717" d="M112.974043,181.407137 C107.190896,192.950454 119.431175,222.946164 133.384449,234.176244 C141.549805,240.748264 153.345135,232.680329 153.345135,232.680329 L156.477673,248.670895 L186.362038,238.212593 L177.711175,216.399155 L146.082799,161.769683 C146.082799,161.769683 122.712825,161.963819 112.974043,181.407137 Z"/>
      <path fill="#0A0A0A" d="M152.694888,210.538171 C152.694888,210.538171 158.444635,202.168909 156.056462,195.957766 C153.669482,189.746624 147.683543,192.713442 147.929279,198.340987 C148.175015,203.968533 148.056919,207.374835 144.059533,208.486052 C139.066081,209.873584 137.212325,192.516924 132.331005,183.030491 C127.448492,173.545248 120.011995,179.031062 114.802629,183.317525 C109.59565,187.602797 103.471335,182.006218 101.142807,177.145686 C98.8142792,172.285154 98.1128579,166.451563 113.828036,160.354758 C129.543213,154.259143 129.997706,151.119628 142.184305,150.138232 C154.372096,149.158027 164.387629,152.297542 171.663086,146.567569 C171.663086,146.567569 172.359736,154.462807 168.512655,157.977492 C168.512655,157.977492 181.728721,169.807843 182.34664,189.40242 C182.966944,208.995806 181.200269,215.971581 179.325041,219.792357 C177.449812,223.614323 166.769838,226.784805 162.39669,223.591694 C158.024736,220.398583 154.652426,217.668777 152.694888,210.538171"/>
      <path fill="#FFF" d="M21.7829492,295.131553 C25.7862995,295.451936 29.1872386,290.143582 29.2802843,283.666843 C29.3745228,277.191295 28.265132,277.004306 30.8071878,272.143774 C33.3492437,267.283242 32.9603604,264.106805 31.5026447,263.277859 C30.0461218,262.448913 28.6921878,262.01181 24.7270102,269.593811 C20.7630254,277.175812 18.7625431,277.217498 16.9815533,283.258325 C15.1993706,289.300344 17.3370355,294.774248 21.7829492,295.131553"/>
      <path stroke="#171717" d="M21.7829492,295.131553 C25.7862995,295.451936 29.1872386,290.143582 29.2802843,283.666843 C29.3745228,277.191295 28.265132,277.004306 30.8071878,272.143774 C33.3492437,267.283242 32.9603604,264.106805 31.5026447,263.277859 C30.0461218,262.448913 28.6921878,262.01181 24.7270102,269.593811 C20.7630254,277.175812 18.7625431,277.217498 16.9815533,283.258325 C15.1993706,289.300344 17.3370355,294.774248 21.7829492,295.131553 Z"/>
      <path fill="#FFF" d="M100.715513,245.820796 C100.715513,245.820796 89.9007411,240.177768 83.4793959,240.093206 C77.0568579,240.008644 63.962467,244.407062 63.962467,244.407062 C63.962467,244.407062 50.2453858,244.984704 45.6479746,247.210711 C42.2231777,248.868603 43.6570355,251.170835 49.3554873,250.547934 C55.0539391,249.923843 66.2862234,251.008857 66.2862234,251.008857 L76.0715279,253.750574 C74.7939391,254.746262 73.2217056,255.878917 71.0446751,257.216427 C62.9687868,262.178195 63.559269,263.637188 64.588736,265.178362 C65.6193959,266.720726 69.1610964,266.90176 74.3382538,263.720559 C79.5154112,260.538168 79.8088629,261.747048 86.9626447,261.13963 C91.8821371,260.721584 96.0691929,258.621825 97.9885584,255.924176 C103.143051,252.802526 104.147467,247.44415 100.715513,245.820796"/>
      <path stroke="#171717" d="M100.715513,245.820796 C100.715513,245.820796 89.9007411,240.177768 83.4793959,240.093206 C77.0568579,240.008644 63.962467,244.407062 63.962467,244.407062 C63.962467,244.407062 50.2453858,244.984704 45.6479746,247.210711 C42.2231777,248.868603 43.6570355,251.170835 49.3554873,250.547934 C55.0539391,249.923843 66.2862234,251.008857 66.2862234,251.008857 L76.0715279,253.750574 C74.7939391,254.746262 73.2217056,255.878917 71.0446751,257.216427 C62.9687868,262.178195 63.559269,263.637188 64.588736,265.178362 C65.6193959,266.720726 69.1610964,266.90176 74.3382538,263.720559 C79.5154112,260.538168 79.8088629,261.747048 86.9626447,261.13963 C91.8821371,260.721584 96.0691929,258.621825 97.9885584,255.924176 C103.143051,252.802526 104.147467,247.44415 100.715513,245.820796 Z"/>
      <path fill="#0A0A0A" d="M212.570145,302.81741 C196.126109,274.75829 136.28819,249.077627 105.640373,238.738426 C105.640373,238.738426 82.8632665,243.088013 87.6575051,268.769867 C87.6575051,268.769867 157.530043,303.080624 171.130221,333.609909 C177.365475,347.606717 227.356058,328.04787 212.570145,302.81741"/>
      <path fill="#FF598B" d="M137.099835,429.100959 C134.462348,384.676103 118.441789,337.249889 107.134353,308.617891 L114.362094,281.450841 C114.362094,281.450841 137.63783,299.185053 144.457602,347.230594 C149.431967,382.276208 138.292728,392.47725 137.099835,429.100959"/>
      <path fill="#FF6592" d="M31.8269924,290.06164 L31.8389213,290.073551 L31.8389213,290.097371 C31.8269924,290.073551 31.8269924,290.06164 31.8269924,290.06164"/>
      <path fill="#FF598B" d="M75.3548376,369.693373 C74.6510305,386.284211 71.5733655,425.420961 58.2606751,407.377085 C41.5601675,384.747802 41.2380863,366.537184 39.5203198,334.082028 C38.4001929,312.786681 35.4286954,300.483497 33.5319949,294.539142 C38.8165127,307.974981 55.6482386,348.350386 75.3548376,369.693373"/>
      <path stroke="#FFF" stroke-width="3" d="M258.404569,403.387185 C262.427005,396.430467 285.721827,290.275309 234.976142,242.229767 C233.197538,240.548054 230.993071,239.147421 228.441472,238.006428 C228.45698,238.010001 228.472487,238.013575 228.486802,238.018339 C228.42,237.987372 228.346041,237.963552 228.279239,237.933777 C227.633883,237.650315 223.376447,236.221097 222.688147,235.969793"/>
      <g transform="translate(0 228.842)">
        <mask id="main-service3-f" fill="#fff">
          <use xlink:href="#main-service3-e"/>
        </mask>
        <path fill="#0A0A0A" d="M234.9765,13.3879603 C233.197896,11.7062473 230.993429,10.3044228 228.440637,9.16343047 C228.456145,9.16819453 228.472845,9.17176758 228.48716,9.17653164 C228.420358,9.14437424 228.345206,9.12174495 228.279596,9.09196958 C227.634241,8.80731702 226.973378,8.53695663 226.285079,8.2868435 C217.971805,5.15566532 206.936348,4.39341578 194.562464,5.71544233 L189.829063,0.565493877 C168.454799,-0.338486436 145.194571,13.3319826 145.194571,13.3319826 L139.776449,22.1764593 C126.099926,28.8211315 113.036551,37.2320787 102.047617,47.1222665 C101.182769,47.8964262 100.328657,48.677732 99.4912462,49.4709479 C99.2705609,49.6793755 99.057033,49.8913762 98.8387335,50.1009948 C97.7842157,51.1145485 96.7475914,52.1376303 95.7407893,53.1797683 C95.7407893,53.1797683 95.7539112,53.2083527 95.756297,53.2131167 C83.4062716,62.7376629 69.4100533,95.1106391 59.9730736,119.9433 C47.2878452,99.3863826 37.3677437,75.448174 33.5325914,65.697335 C33.5206624,65.6735147 33.5075406,65.6496944 33.5075406,65.6258741 C32.5544188,63.1735744 31.9818299,61.6371652 31.8613477,61.2917708 C31.8506117,61.2786697 31.8506117,61.2667595 31.8386827,61.2548494 L31.8386827,61.2310291 L31.8267538,61.2191189 C6.76287056,53.715725 0.00035786802,75.8566921 0.00035786802,75.8566921 C7.00979949,107.378093 26.1748249,169.470464 52.3373629,188.825647 C52.3492919,188.838748 52.3624137,188.850658 52.3755355,188.862568 C62.8646472,198.187024 74.9379213,193.083525 91.8400279,174.949132 C105.220713,160.596212 117.266551,142.273638 122.500967,124.853854 C129.517566,148.41332 132.423454,197.023402 137.099596,201.03355 C141.774546,205.043697 151.13518,205.609429 154.752033,205.651114 C158.408251,205.6928 215.551424,210.068589 244.380079,188.643422 C248.43353,185.631345 254.38249,181.499714 258.404926,174.545378 C262.427363,167.58866 285.722185,61.4335016 234.9765,13.3879603" mask="url(#main-service3-f)"/>
      </g>
      <path fill="#0A0A0A" d="M268.997343,155.86082 C269.270515,155.657157 269.42082,155.560685 269.42082,155.560685 C271.682546,153.993309 273.735515,151.732763 275.038155,148.513449 C279.500769,137.438202 275.473561,135.816039 269.543688,134.071203 C263.612622,132.326366 264.044449,124.314409 268.043028,123.122203 C272.046378,121.944289 277.383383,130.80544 277.383383,130.80544 C277.383383,130.80544 280.47417,129.790695 278.892393,118.379581 C277.324931,106.979187 287.748434,101.583889 287.748434,101.583889 C287.748434,101.583889 292.181226,105.628576 296.278815,113.688174 L296.276429,113.673881 C296.276429,113.673881 314.111378,93.2265375 301.250794,79.2166292 C292.561759,69.7635439 288.346074,86.4317975 270.681708,90.2883037 C253.017343,94.147192 247.413129,86.3853479 229.753536,101.458833 C211.641835,116.92297 227.996404,132.158433 224.163637,144.705775 C224.163637,144.705775 215.988739,156.685003 232.544906,158.62993 C249.099881,160.574857 267.470439,170.593675 268.997343,155.86082"/>
      <g transform="translate(311.345 213.36)">
        <path fill="#FFF" d="M15.373533,22.206592 C15.373533,22.206592 3.2608934,12.0043583 0.983659898,0.536075809"/>
        <path stroke="#171717" stroke-linecap="round" d="M15.373533,22.206592 C15.373533,22.206592 3.2608934,12.0043583 0.983659898,0.536075809"/>
      </g>
      <path stroke="#FFF" stroke-linecap="round" d="M139.776926 251.018743C139.776926 251.018743 175.866723 235.948831 194.562942 234.557726M122.484624 354.785916C122.484624 354.785916 129.872213 336.364489 126.431909 313.402912M59.9730736 348.785464C59.9730736 348.785464 52.828835 361.593638 50.7567792 373.9528"/>
      <g transform="translate(385.305 226.46)">
        <path fill="#FFF" d="M0.265418782,0.775231602 C0.265418782,0.775231602 7.87607868,6.68742959 8.94968274,9.10518985"/>
        <path stroke="#171717" stroke-linecap="round" d="M0.265418782,0.775231602 C0.265418782,0.775231602 7.87607868,6.68742959 8.94968274,9.10518985"/>
      </g>
    </g>
  </g>
</svg>
