<svg height="72" viewBox="0 0 88 72" width="88" xmlns="http://www.w3.org/2000/svg" xmlns:xlink="http://www.w3.org/1999/xlink"><mask id="a" fill="#fff"><path d="m0 .033h88v71.967h-88z" fill="#fff" fill-rule="evenodd"/></mask><mask id="b" fill="#fff"><path d="m0 72h88v-72h-88z" fill="#fff" fill-rule="evenodd"/></mask><g fill="#0049f8" fill-rule="evenodd"><path d="m79.91 69.404h-4.31v-32c0-.717-.577-1.298-1.289-1.298h-16.533c-.712 0-1.29.581-1.29 1.298v32h-48.398v-37.251c1.217.42 2.52.653 3.878.653 4.657 0 8.7-2.693 10.677-6.613 1.977 3.92 6.021 6.613 10.678 6.613s8.701-2.693 10.678-6.613c1.977 3.92 6.02 6.613 10.678 6.613 4.657 0 8.7-2.693 10.677-6.613 1.977 3.92 6.021 6.613 10.678 6.613 1.357 0 2.66-.232 3.878-.653v37.251zm-20.843-6.937h13.955v-23.765h-13.955zm0 6.937h13.955v-4.34h-13.955zm-16.447-47.35c-.63 4.6-4.558 8.155-9.298 8.155s-8.667-3.555-9.298-8.156h18.596zm21.356 0c-.63 4.6-4.559 8.155-9.298 8.155-4.74 0-8.668-3.555-9.298-8.156h18.596zm17.224 0h4.133c-.63 4.6-4.56 8.155-9.3 8.155s-8.667-3.555-9.298-8.156h14.465zm-5.51-2.597h-72.18l9.127-16.083c.26-.46.748-.744 1.273-.744h60.18c.525 0 1.012.285 1.273.744l9.127 16.083zm-63.38 2.596h8.954c-.63 4.601-4.559 8.156-9.298 8.156-4.74 0-8.67-3.555-9.3-8.156h9.645zm70.178 47.35v-38.51c3.311-2.145 5.51-5.886 5.51-10.138 0-.226-.058-.448-.169-.644l-10.228-18.025c-.718-1.266-2.064-2.053-3.511-2.053h-60.18c-1.447 0-2.793.787-3.511 2.053l-10.23 18.024c-.11.196-.17.419-.17.644 0 4.252 2.2 7.993 5.512 10.139v38.51l.007 2.597h76.97v-2.596z" mask="url(#a)"/><path d="m14.593 62.4h34.814v-23.8h-34.814zm36.11-26.4h-37.406c-.717 0-1.297.582-1.297 1.3v26.4c0 .718.58 1.3 1.296 1.3h37.408c.716 0 1.296-.582 1.296-1.3v-26.4c0-.718-.58-1.3-1.296-1.3z" mask="url(#b)"/></g></svg>