<svg height="24" viewBox="0 0 27 24" width="27" xmlns="http://www.w3.org/2000/svg" xmlns:xlink="http://www.w3.org/1999/xlink"><mask id="a" fill="#fff"><path d="m0 0h27v24h-27z" fill="#fff" fill-rule="evenodd"/></mask><path d="m9.82 15.181c-.123.062-.26.098-.405.098-.338 0-.631-.187-.785-.464l-.06-.13-2.457-5.433c-.026-.06-.043-.126-.043-.191 0-.25.202-.454.45-.454.1 0 .194.034.27.09l2.9 2.08c.212.14.464.222.737.222.162 0 .316-.03.461-.083l13.639-6.116c-2.445-2.903-6.47-4.8-11.027-4.8-7.457 0-13.5 5.074-13.5 11.334 0 3.416 1.818 6.49 4.664 8.567.228.165.378.435.378.74 0 .1-.021.192-.047.288l-.608 2.286c-.028.107-.073.22-.073.331 0 .25.202.454.45.454.098 0 .178-.037.26-.084l2.955-1.72c.223-.128.458-.209.718-.209.138 0 .27.021.396.06 1.379.4 2.866.622 4.407.622 7.456 0 13.5-5.075 13.5-11.335 0-1.896-.558-3.68-1.538-5.252l-15.543 9.043-.1.056z" fill="#0049f8" fill-rule="evenodd" mask="url(#a)"/></svg>