<svg height="23" viewBox="0 0 22 23" width="22" xmlns="http://www.w3.org/2000/svg" xmlns:xlink="http://www.w3.org/1999/xlink"><mask id="a" fill="#fff"><path d="m0 0h22v22.148h-22z" fill="#fff" fill-rule="evenodd"/></mask><g fill="#0049f8" fill-rule="evenodd" transform="translate(0 .629)"><path d="m18.486 0h-14.972c-1.943 0-3.514 1.582-3.514 3.538v15.044c0 1.984 1.571 3.566 3.514 3.566h14.943c1.972 0 3.543-1.582 3.543-3.538v-.23s-5.686-2.387-8.572-3.797c-1.942 2.359-4.428 3.826-7 3.826-4.37 0-5.856-3.854-3.8-6.386.458-.546 1.23-1.093 2.4-1.38 1.858-.46 4.83.287 7.6 1.208.486-.92.915-1.956 1.23-3.05h-8.573v-.861h4.428v-1.583h-5.313v-.863h5.343v-2.244s0-.374.371-.374h2.172v2.618h5.286v.863h-5.286v1.582h4.314c-.4 1.697-1.029 3.279-1.828 4.66 1.314.488 2.485.92 3.37 1.236 3.145 1.065 3.858 1.122 3.858 1.122v-11.42c0-1.954-1.571-3.537-3.514-3.537" mask="url(#a)"/><path d="m3.8 13.174c-1.685 1.478-.674 4.197 2.724 4.197 1.966 0 3.932-1.271 5.476-3.31-2.19-1.094-4.072-1.863-6.066-1.656-.562.03-1.573.266-2.134.769" mask="url(#a)"/></g></svg>