<svg xmlns="http://www.w3.org/2000/svg" xmlns:xlink="http://www.w3.org/1999/xlink" width="537" height="468" viewBox="0 0 537 468">
  <defs>
    <polygon id="main-service2-a" points="0 0 537 0 537 468 0 468"/>
    <polygon id="main-service2-c" points="0 .757 153.616 .757 153.616 287.192 0 287.192"/>
    <polygon id="main-service2-e" points=".01 .927 38.448 .927 38.448 62.894 .01 62.894"/>
  </defs>
  <g fill="none" fill-rule="evenodd">
    <mask id="main-service2-b" fill="#fff">
      <use xlink:href="#main-service2-a"/>
    </mask>
    <path fill="#F8F8F8" d="M19.8919886,231.280868 C-57.5464586,368.231103 102.752268,517.145549 299.58256,452.37842 C425.274809,411.018874 536.553959,320.627778 537.001109,174.297441 C537.443811,27.9671044 404.637758,-27.0220779 323.286467,12.3469888 C241.057858,52.1415111 267.423803,93.4069296 216.016665,132.794822 C160.21792,175.547452 86.9417247,112.701776 19.8919886,231.280868 Z" mask="url(#main-service2-b)"/>
    <g transform="translate(108 109)">
      <path fill="#FFF" d="M342.151468,192.066424 C336.872456,193.916205 327.5953,200.311276 324.219329,202.703677 L329.541623,197.539988 C329.541623,197.539988 337.792192,191.127326 340.723173,189.494052 C343.655506,187.859425 346.801543,183.871639 340.264658,186.165259 C334.395933,188.222074 323.606623,195.879651 321.457418,197.427675 L321.452007,197.41685 L327.301796,191.741664 C327.301796,191.741664 335.552365,185.329001 338.483346,183.694374 C341.41568,182.059747 344.561716,178.073315 338.024831,180.366934 C331.487946,182.657848 318.810473,191.922988 318.810473,191.922988 L311.719041,198.806553 C311.792079,198.512916 311.865116,198.221985 311.934097,197.916169 C313.669421,190.220703 312.159973,182.956898 310.052696,184.264058 C307.944067,185.572571 305.866547,204.050079 305.866547,204.050079 C305.897656,204.17863 305.932822,204.274705 305.965283,204.393784 L299.425693,210.742847 C285.323982,208.464113 207.646902,195.759219 191.589401,189.678083 C186.445644,187.730874 178.323568,182.699796 169.402133,176.557767 C147.657149,161.586317 121.122777,139.968107 121.122777,139.968107 C99.567151,122.310619 63.3633829,140.540497 88.6128297,168.580842 C113.862277,196.619834 148.810876,212.79019 179.030953,224.497799 C180.033194,224.886158 181.117941,225.246101 182.260848,225.585746 C213.951149,235.033564 297.100655,226.504547 304.98874,225.666936 L304.992798,225.673702 C305.010381,225.669643 305.026612,225.66423 305.044195,225.661524 C305.403974,225.623635 305.596036,225.601984 305.596036,225.601984 L305.577101,225.532973 C317.398408,222.948422 328.594836,212.280046 328.596189,212.280046 L329.194017,211.828088 C329.194017,211.828088 336.608709,206.067652 339.243481,204.598112 C341.878253,203.129925 344.705087,199.546736 338.830952,201.607611 C335.53884,202.76051 330.51546,205.882268 326.733724,208.404573 L326.599821,208.125821 L331.428433,203.441153 C331.428433,203.441153 339.679002,197.028491 342.609983,195.393864 C345.542317,193.76059 348.688353,189.774158 342.151468,192.066424"/>
      <path stroke="#171717" d="M342.151468,192.066424 C336.872456,193.916205 327.5953,200.311276 324.219329,202.703677 L329.541623,197.539988 C329.541623,197.539988 337.792192,191.127326 340.723173,189.494052 C343.655506,187.859425 346.801543,183.871639 340.264658,186.165259 C334.395933,188.222074 323.606623,195.879651 321.457418,197.427675 L321.452007,197.41685 L327.301796,191.741664 C327.301796,191.741664 335.552365,185.329001 338.483346,183.694374 C341.41568,182.059747 344.561716,178.073315 338.024831,180.366934 C331.487946,182.657848 318.810473,191.922988 318.810473,191.922988 L311.719041,198.806553 C311.792079,198.512916 311.865116,198.221985 311.934097,197.916169 C313.669421,190.220703 312.159973,182.956898 310.052696,184.264058 C307.944067,185.572571 305.866547,204.050079 305.866547,204.050079 C305.897656,204.17863 305.932822,204.274705 305.965283,204.393784 L299.425693,210.742847 C285.323982,208.464113 207.646902,195.759219 191.589401,189.678083 C186.445644,187.730874 178.323568,182.699796 169.402133,176.557767 C147.657149,161.586317 121.122777,139.968107 121.122777,139.968107 C99.567151,122.310619 63.3633829,140.540497 88.6128297,168.580842 C113.862277,196.619834 148.810876,212.79019 179.030953,224.497799 C180.033194,224.886158 181.117941,225.246101 182.260848,225.585746 C213.951149,235.033564 297.100655,226.504547 304.98874,225.666936 L304.992798,225.673702 C305.010381,225.669643 305.026612,225.66423 305.044195,225.661524 C305.403974,225.623635 305.596036,225.601984 305.596036,225.601984 L305.577101,225.532973 C317.398408,222.948422 328.594836,212.280046 328.596189,212.280046 L329.194017,211.828088 C329.194017,211.828088 336.608709,206.067652 339.243481,204.598112 C341.878253,203.129925 344.705087,199.546736 338.830952,201.607611 C335.53884,202.76051 330.51546,205.882268 326.733724,208.404573 L326.599821,208.125821 L331.428433,203.441153 C331.428433,203.441153 339.679002,197.028491 342.609983,195.393864 C345.542317,193.76059 348.688353,189.774158 342.151468,192.066424 Z"/>
      <mask id="main-service2-d" fill="#fff">
        <use xlink:href="#main-service2-c"/>
      </mask>
      <path fill="#0A0A0A" d="M151.015372,27.8210704 C149.42674,19.0039437 143.469372,6.88495775 129.409442,21.2552113 C129.409442,21.2552113 138.908811,7.06073239 104.762688,1.55087324 C74.0113193,-3.41002817 54.2412316,15.5952676 51.1504246,38.0957746 C51.1504246,38.0957746 39.5747579,92.4223099 26.3496702,115.028282 C-13.4498737,183.063887 -1.82287368,287.356394 19.7790035,287.191632 C51.6651088,286.948056 54.7275474,251.027831 54.7275474,251.027831 L126.754968,170.563606 C126.754968,170.563606 136.21246,160.195606 141.728091,141.885296 C141.728091,141.885296 160.302653,79.3703662 151.015372,27.8210704" mask="url(#main-service2-d)"/>
      <path fill="#FFF" d="M138.094458,55.2606696 C135.0867,32.1349533 128.301317,30 128.301317,30 C114.22317,41.0199467 124.884948,47.0021647 111.663261,61.2945287 C102.066307,71.6689612 87.1398182,70.9908315 85.966752,62.8559935 C84.7936858,54.7211556 76.5497501,44.3276974 71.8114828,56.9322116 C68.3058144,66.2602316 76.5335139,71.3536784 81.0539454,73.3744776 L57,104.830725 C57,104.830725 95.7964243,130.125369 92.9023198,119.310627 C90.9823879,112.136586 97.5079914,102.262258 101.495334,97.092708 C117.74778,104.731519 127.956298,102.222847 132.196655,97.0138873 C135.966161,92.3824928 141.102216,78.3877448 138.094458,55.2606696"/>
      <path stroke="#171717" d="M138.094458,55.2606696 C135.0867,32.1349533 128.301317,30 128.301317,30 C114.22317,41.0199467 124.884948,47.0021647 111.663261,61.2945287 C102.066307,71.6689612 87.1398182,70.9908315 85.966752,62.8559935 C84.7936858,54.7211556 76.5497501,44.3276974 71.8114828,56.9322116 C68.3058144,66.2602316 76.5335139,71.3536784 81.0539454,73.3744776 L57,104.830725 C57,104.830725 95.7964243,130.125369 92.9023198,119.310627 C90.9823879,112.136586 97.5079914,102.262258 101.495334,97.092708 C117.74778,104.731519 127.956298,102.222847 132.196655,97.0138873 C135.966161,92.3824928 141.102216,78.3877448 138.094458,55.2606696 Z"/>
      <path fill="#0A0A0A" stroke="#979797" d="M140.88434,206.049667 C140.330499,206.616191 139.790166,207.143597 139.263342,207.654818 C132.846892,213.900068 128.983513,216.557335 129.024038,230.302282 L129.024038,230.369725 C129.024038,231.139928 128.983513,232.097623 128.902463,233.202344 C128.537739,238.570832 127.376024,247.581258 126.660083,256.187025 C126.646574,256.227491 126.646574,256.255817 126.646574,256.294934 C126.646574,256.294934 127.092349,264.442086 127.376024,273.938105 C127.497598,278.458155 123.885475,288.45865 118.17686,289.562022 C101.052367,292.876187 66.6966662,300.499979 59.5777834,298.739708 C50.0868403,296.392681 49.2979546,287.69654 49.2979546,287.69654 C48.7981469,284.742523 48.0822061,281.532221 47.1096074,278.013029 C46.582783,276.123268 46.0424504,274.113457 45.4886094,272.009226 C35.2763222,233.202344 20.7683903,161.106792 27.9007814,135.234189 C36.762237,103.159499 53.4450078,98.4506067 64.170611,96.8319672 C66.1293169,96.5365655 67.885398,96.3463754 69.3578045,96.1170681 C76.0984544,95.0379751 85.6218175,101.512533 94.0645153,111.669496 C97.7387773,116.0668 101.196906,121.165514 104.141719,126.628422 C105.614126,129.354481 107.451257,132.239706 109.531538,135.180234 C117.271803,146.133028 128.321606,157.922119 135.994329,165.893919 C139.911741,169.982332 142.951112,173.056398 144.193878,174.513174 C147.70604,178.642054 151.920635,194.828448 140.88434,206.049667"/>
      <path fill="#FFF" d="M231.802197,161.265951 C232.336365,160.638481 232.341761,160.005624 231.653817,159.195029 C231.058948,158.490808 230.321095,158.419443 229.72083,158.525817 C230.322443,157.872763 230.352119,157.222402 229.637197,156.378144 C228.817061,155.410008 227.735235,155.632181 227.109341,155.879938 C227.867428,155.171677 227.955107,154.482268 227.179485,153.566645 C225.961419,152.131273 224.143089,153.314849 224.143089,153.314849 L213.840119,158.318455 L221.991579,148.176593 L232.270269,141.644705 C237.147925,135.989391 230.160574,138.936887 230.160574,138.936887 L218.702938,144.088609 L206.940448,156.24484 L206.793417,156.146546 L206.65313,156.541071 L206.574893,156.624554 L206.614012,156.652831 L199.079004,177.910078 C196.541705,180.174897 169.169636,204.511597 152.625262,214.990085 C135.245913,225.956008 124.554457,230.737441 116.289689,238.073191 C116.16559,238.16206 116.05363,238.245544 115.94302,238.315562 C115.883668,238.353264 115.824316,238.392312 115.762266,238.41251 C115.735288,238.438094 115.708309,238.451559 115.681331,238.451559 L115.654353,238.46637 C107.668809,241.792233 100.96473,175.126856 98.3613344,150.499311 C95.7039829,125.224098 83.5907765,105.633822 65.7716833,109.484821 C64.9488486,109.659866 64.1395029,109.875307 63.3166682,110.143261 C62.858039,110.292723 62.4128989,110.466422 61.9677588,110.629349 C50.083867,114.951624 40.1154265,128.024825 45.497575,159.467023 C51.4462654,194.193342 66.9991909,271.885235 87.11143,280.154112 C98.0780635,284.677016 114.669649,280.773503 132.596655,269.7039 C147.542571,260.493817 163.405746,246.301673 177.677207,227.894973 C178.945182,226.265704 180.145711,224.718572 181.319263,223.210488 C201.067296,197.734646 206.773183,190.382738 208.418853,188.268728 C208.515974,188.142157 208.59556,188.038476 208.665703,187.945567 C209.295644,187.837847 209.95526,187.639911 210.649949,187.315404 C222.450208,181.796087 225.920952,169.039315 225.920952,169.039315 L230.781073,164.993072 L230.934848,170.791115 C231.957322,173.037083 233.275206,170.986358 233.275206,170.986358 C233.275206,170.986358 235.227078,162.122327 231.802197,161.265951"/>
      <path stroke="#171717" d="M231.802197,161.265951 C232.336365,160.638481 232.341761,160.005624 231.653817,159.195029 C231.058948,158.490808 230.321095,158.419443 229.72083,158.525817 C230.322443,157.872763 230.352119,157.222402 229.637197,156.378144 C228.817061,155.410008 227.735235,155.632181 227.109341,155.879938 C227.867428,155.171677 227.955107,154.482268 227.179485,153.566645 C225.961419,152.131273 224.143089,153.314849 224.143089,153.314849 L213.840119,158.318455 L221.991579,148.176593 L232.270269,141.644705 C237.147925,135.989391 230.160574,138.936887 230.160574,138.936887 L218.702938,144.088609 L206.940448,156.24484 L206.793417,156.146546 L206.65313,156.541071 L206.574893,156.624554 L206.614012,156.652831 L199.079004,177.910078 C196.541705,180.174897 169.169636,204.511597 152.625262,214.990085 C135.245913,225.956008 124.554457,230.737441 116.289689,238.073191 C116.16559,238.16206 116.05363,238.245544 115.94302,238.315562 C115.883668,238.353264 115.824316,238.392312 115.762266,238.41251 C115.735288,238.438094 115.708309,238.451559 115.681331,238.451559 L115.654353,238.46637 C107.668809,241.792233 100.96473,175.126856 98.3613344,150.499311 C95.7039829,125.224098 83.5907765,105.633822 65.7716833,109.484821 C64.9488486,109.659866 64.1395029,109.875307 63.3166682,110.143261 C62.858039,110.292723 62.4128989,110.466422 61.9677588,110.629349 C50.083867,114.951624 40.1154265,128.024825 45.497575,159.467023 C51.4462654,194.193342 66.9991909,271.885235 87.11143,280.154112 C98.0780635,284.677016 114.669649,280.773503 132.596655,269.7039 C147.542571,260.493817 163.405746,246.301673 177.677207,227.894973 C178.945182,226.265704 180.145711,224.718572 181.319263,223.210488 C201.067296,197.734646 206.773183,190.382738 208.418853,188.268728 C208.515974,188.142157 208.59556,188.038476 208.665703,187.945567 C209.295644,187.837847 209.95526,187.639911 210.649949,187.315404 C222.450208,181.796087 225.920952,169.039315 225.920952,169.039315 L230.781073,164.993072 L230.934848,170.791115 C231.957322,173.037083 233.275206,170.986358 233.275206,170.986358 C233.275206,170.986358 235.227078,162.122327 231.802197,161.265951 Z"/>
      <path fill="#0048FA" d="M380,73.9973031 C380,103.269744 356.27079,127 326.999326,127 C297.726513,127 274,103.269744 274,73.9973031 C274,44.728908 297.726513,21 326.999326,21 C356.27079,21 380,44.728908 380,73.9973031"/>
      <path stroke="#121212" stroke-width="2" d="M380,73.9973031 C380,103.269744 356.27079,127 326.999326,127 C297.726513,127 274,103.269744 274,73.9973031 C274,44.728908 297.726513,21 326.999326,21 C356.27079,21 380,44.728908 380,73.9973031 Z"/>
      <path fill="#FFF" d="M354.2344,60.2597139 C352.864819,62.1304483 356.205523,68.2957384 366.586143,67.4891536 C369.867767,67.2302331 362.935269,78.8084527 360.8527,82.4645185 C358.257209,87.0152834 358.913803,92.4011008 356.459298,96.9220424 C354.920533,99.7715234 352.295503,101.905245 350.211591,104.350756 C347.613415,107.376466 344.706411,110.339817 340.372089,109.968382 C337.487912,109.709461 336.318398,106.51159 335.750424,104.236885 C334.352646,98.562324 334.950159,92.688489 333.408709,86.9881713 C331.55306,80.2765725 325.881383,80.9421744 320.260729,80.8811722 C313.469217,80.7944135 309.277224,76.4185216 309.020764,69.6499875 C308.389682,52.917759 322.341955,51.1581841 323.9398,51.4496391 C326.250633,51.8766546 333.039459,53.0587418 334.74875,54.0130875 C340.542616,57.2082478 346.446585,52.7713537 345.991401,50.4397136 C345.506676,48.0782503 331.158299,44.7109282 326.078764,44.3313589 C324.251313,44.2229106 320.514504,45.8008344 319.119411,44.2486671 C317.976751,43.0096444 319.033477,41.0209723 319.831056,39.955467 C325.450368,32.4982857 334.809173,30.6804198 342.709777,26.7952568 C342.966237,26.6800304 344.965558,25.6673938 345.448939,24 C359.426724,29.3004143 370.580755,40.4177282 376,54.4143465 C373.689167,54.7003791 368.753304,57.982298 368.612318,59.0518701 C367.871132,64.8972375 356.60297,57.0062627 354.2344,60.2597139"/>
      <path stroke="#171717" stroke-width="2" d="M354.2344,60.2597139 C352.864819,62.1304483 356.205523,68.2957384 366.586143,67.4891536 C369.867767,67.2302331 362.935269,78.8084527 360.8527,82.4645185 C358.257209,87.0152834 358.913803,92.4011008 356.459298,96.9220424 C354.920533,99.7715234 352.295503,101.905245 350.211591,104.350756 C347.613415,107.376466 344.706411,110.339817 340.372089,109.968382 C337.487912,109.709461 336.318398,106.51159 335.750424,104.236885 C334.352646,98.562324 334.950159,92.688489 333.408709,86.9881713 C331.55306,80.2765725 325.881383,80.9421744 320.260729,80.8811722 C313.469217,80.7944135 309.277224,76.4185216 309.020764,69.6499875 C308.389682,52.917759 322.341955,51.1581841 323.9398,51.4496391 C326.250633,51.8766546 333.039459,53.0587418 334.74875,54.0130875 C340.542616,57.2082478 346.446585,52.7713537 345.991401,50.4397136 C345.506676,48.0782503 331.158299,44.7109282 326.078764,44.3313589 C324.251313,44.2229106 320.514504,45.8008344 319.119411,44.2486671 C317.976751,43.0096444 319.033477,41.0209723 319.831056,39.955467 C325.450368,32.4982857 334.809173,30.6804198 342.709777,26.7952568 C342.966237,26.6800304 344.965558,25.6673938 345.448939,24 C359.426724,29.3004143 370.580755,40.4177282 376,54.4143465 C373.689167,54.7003791 368.753304,57.982298 368.612318,59.0518701 C367.871132,64.8972375 356.60297,57.0062627 354.2344,60.2597139 Z"/>
      <path fill="#FFF" d="M291.308823,83.6864778 C294.134193,87.6702742 297.104947,93.1558088 295.590767,98.1571692 C294.948887,100.301369 293.495056,102.025243 291.771031,103.467124 C291.365056,103.806312 287.022763,107 286.557811,107 L286.529009,107 C278.720837,97.9283836 274,86.2270625 274,73.4815744 C274,69.8968228 274.377173,66.39188 275.106832,63 C278.047412,64.5842075 284.312602,74.441942 285.946105,76.6526497 C287.667386,78.9963723 289.619087,81.2802382 291.308823,83.6864778"/>
      <path fill="#121212" d="M286.351179,109 C285.906974,109 285.706409,108.763133 285.527381,108.554529 C285.085869,108.037729 285.146442,107.259837 285.663335,106.819749 C285.836978,106.671708 286.03889,106.580191 286.247531,106.543853 C287.092866,106.078195 290.30056,103.678574 290.813414,103.243869 C292.575425,101.748648 293.676514,100.184789 294.1786,98.4675055 C295.239306,94.870092 293.874387,90.2942574 290.129609,84.8597809 C289.191395,83.4910681 288.179147,82.1613844 287.169592,80.829009 C286.395599,79.8102129 285.621607,78.7914168 284.88665,77.7631998 C284.551478,77.2988872 284.011702,76.4873495 283.342703,75.4779742 C281.168793,72.2035608 276.648677,65.3896048 274.648411,64.3129378 C274.049408,63.9912836 273.824613,63.2470376 274.147671,62.6481416 C274.468037,62.0492456 275.2178,61.8258372 275.812765,62.1461456 C278.161664,63.4071918 281.833754,68.7541891 285.391428,74.1186822 C286.03889,75.0917199 286.558474,75.8776868 286.884224,76.3285411 C287.609758,77.3406081 288.368944,78.3405625 289.129476,79.3418628 C290.163261,80.7038465 291.199738,82.0685218 292.156796,83.4668431 C296.400968,89.6226864 297.835883,94.757042 296.539613,99.1606098 C295.905613,101.323365 294.516464,103.327311 292.40582,105.115924 C288.743152,108.226146 287.153439,109 286.351179,109"/>
      <path fill="#121212" d="M274.950185,130 C273.105906,130 271.619066,129.515974 270.561698,128.471496 C267.174856,125.132921 269.303185,117.377773 276.884164,105.42192 C277.24704,104.849401 278.014923,104.672416 278.595253,105.034431 C279.178301,105.392422 279.353623,106.149971 278.990747,106.72383 C269.362984,121.906972 271.449181,125.882424 272.317636,126.739191 C276.601474,130.976097 298.197345,119.628965 326.910747,93.3279652 C327.413609,92.8680731 328.201878,92.8935482 328.666686,93.393664 C329.13557,93.8884167 329.10567,94.664736 328.602809,95.1246281 C308.380974,113.646345 285.658421,130 274.950185,130"/>
      <g transform="translate(345 15)">
        <mask id="main-service2-f" fill="#fff">
          <use xlink:href="#main-service2-e"/>
        </mask>
        <path fill="#121212" d="M1.22933333,62.8936845 C0.929333333,62.8936845 0.629333333,62.7819677 0.394666667,62.5558093 C-0.096,62.0830566 -0.12,61.2955896 0.341333333,60.7955889 C27.368,31.4685725 39.4906667,8.6115924 35.2253333,4.25600049 C34.3733333,3.37997747 30.4146667,1.29686829 15.3266667,10.9399335 C14.7546667,11.3050566 14.0053333,11.1306695 13.6453333,10.5462 C13.288,9.96173052 13.4613333,9.19333708 14.032,8.82821395 C25.9213333,1.23011071 33.6306667,-0.904769655 36.9493333,2.49578005 C44.196,9.89224813 23.972,38.7873838 2.11866667,62.5026758 C1.87733333,62.7628941 1.55333333,62.8936845 1.22933333,62.8936845" mask="url(#main-service2-f)"/>
      </g>
    </g>
  </g>
</svg>
