<svg xmlns="http://www.w3.org/2000/svg" xmlns:xlink="http://www.w3.org/1999/xlink" width="657" height="441" viewBox="0 0 657 441">
  <defs>
    <polygon id="main-service4-a" points=".197 .03 272.928 .03 272.928 196.139 .197 196.139"/>
  </defs>
  <g fill="none" fill-rule="evenodd" transform="translate(0 -1)">
    <path fill="#F8F8F8" d="M475.339096,185.399302 L475.339096,185.399302 L475.33611,185.399302 C472.956241,185.554664 470.600261,185.795177 468.271154,186.137274 C430.981564,187.613218 401.742321,150.00354 401.742321,150.00354 L401.740828,150.015491 C351.981561,87.6777787 277.487482,44 211.31548,44 C141.021258,44 101.274162,93.2857676 107.395531,161.872339 C107.880762,174.936234 105.535232,212.980628 63.3813929,225.400666 C63.3679558,225.405147 63.3560116,225.409629 63.3425745,225.412617 C63.1096638,225.485816 62.8782462,225.556028 62.6438426,225.629228 C62.4348202,225.694958 62.2257978,225.760688 62.0242405,225.826419 C32.0444611,235.281124 0.401460815,251.467208 0,295.416871 C-0.954198534,402.210668 117.347982,412 117.347982,412 L589.632526,412 C589.632526,412 686.354641,408.602939 648.009487,313.949825 C619.228601,242.901356 539.046128,181.255306 475.339096,185.399302"/>
    <g transform="translate(158 1)">
      <path fill="#FFF" d="M381.848506,407 C382.119221,405.42502 382.347262,403.667396 381.892514,401.753597 L381.740487,401.110369 L381.092372,401.262573 C381.017692,401.259926 380.822991,401.184486 380.654961,401.119634 C381.013691,400.369202 381.333748,399.690241 381.611131,399.103925 C382.028538,398.219818 382.343261,397.551444 382.529961,397.182184 C383.740843,394.773392 380.416252,390.318449 379,388.592588 L388.134957,384 L394,394.61457 C389.585882,396.196168 386.098595,401.071988 382.998044,405.40252 C382.605974,405.950455 382.22324,406.485154 381.848506,407"/>
      <path fill="#171717" d="M388.439017,383 L378,388.185646 C378,388.185646 383.252779,394.065496 381.976515,396.572196 C381.630499,397.252045 380.838657,398.945797 379.781979,401.124969 C380.308987,401.246324 380.768123,401.537315 381.147409,401.537315 C381.195319,401.537315 381.241898,401.5334 381.288477,401.521656 C381.960545,404.315433 381.039612,406.73862 380.832003,409 C384.598246,404.4133 389.059183,396.230314 395,394.716637 C394.864256,394.483061 394.784406,394.346048 394.784406,394.346048 L388.439017,383 Z M387.890716,384.735508 L393.074292,394.002861 C388.987318,395.787955 385.746751,400.111066 382.8522,404.10143 C382.886801,403.19192 382.826914,402.232823 382.583372,401.222836 L382.277282,399.953174 L381.760921,400.07192 C381.940582,399.69611 382.109598,399.345094 382.262643,399.021481 C382.673869,398.164166 382.982621,397.515634 383.167606,397.155483 C384.417254,394.700979 381.851417,390.833275 380.085408,388.612346 L387.890716,384.735508 L387.890716,384.735508 Z"/>
      <path fill="#0A0A0A" d="M380.693369,409.403424 C380.901113,407.124351 381.822645,404.67948 381.15014,401.863535 C380.746637,401.956962 380.236598,401.601679 379.642663,401.462197 C376.799496,407.36647 372.021379,416.8262 368.716115,419.628986 C364.180366,423.472618 365.398866,426.471468 371.821625,424.231871 C378.244384,421.989642 387.663454,412.610179 388.082938,411.210102 C388.50109,409.812657 389.128318,406.136139 389.128318,406.136139 L391.318954,408.225727 C391.318954,408.225727 399.482237,405.393993 398.977525,403.282034 C398.544725,401.471409 395.680251,396.410604 394.870581,395 C388.9259,396.5264 384.462063,404.778169 380.693369,409.403424"/>
      <path fill="#FFF" d="M300,428 C300.917446,426.697771 301.875234,425.212166 302.302074,423.288056 L302.445222,422.639598 L301.811468,422.49343 C301.75551,422.468182 301.603253,422.299424 301.491338,422.173188 C302.130297,421.652296 302.706791,421.177912 303.203904,420.769969 C303.948272,420.15739 304.513054,419.693636 304.834486,419.442492 C306.936153,417.797431 305.941928,412.32541 305.447418,410.148826 L315.436519,410 L316,422.141296 C315.655144,422.10409 315.302481,422.084158 314.942009,422.084158 C310.646279,422.084158 305.892477,424.728481 301.699553,427.061863 C301.117853,427.384763 300.550468,427.69969 300,428"/>
      <path fill="#171717" d="M315.352122,410 L303.727349,410.175966 C303.727349,410.175966 305.801879,418.060344 303.54753,419.841832 C302.936674,420.323352 301.476966,421.559208 299.565066,423.129263 C300.033125,423.527574 300.331942,424.08821 300.731246,424.180968 C300.089979,427.106918 298.191301,428.97025 297,431 C301.878914,428.640143 308.566597,423.778564 314.22032,423.778564 C314.827209,423.778564 315.420877,423.834492 316,423.954531 C315.984134,423.674894 315.972234,423.511205 315.972234,423.511205 L315.352122,410 Z M314.092067,411.383176 L314.598469,422.419942 C314.47286,422.417213 314.345929,422.414485 314.22032,422.414485 C309.870285,422.414485 305.179123,424.951673 300.982463,427.307437 C301.417467,426.468529 301.789005,425.542319 302.021712,424.482429 L302.313918,423.153816 L301.799582,423.032413 C302.12881,422.759597 302.436882,422.50315 302.718511,422.268529 C303.464231,421.649237 304.02881,421.178629 304.352749,420.924911 C306.558177,419.180253 305.988309,414.395063 305.39993,411.514128 L314.092067,411.383176 L314.092067,411.383176 Z"/>
      <path fill="#0A0A0A" d="M297.642254,430.521385 C298.841013,428.583031 300.755032,426.801102 301.40103,424.006327 C300.99878,423.917687 300.697758,423.380632 300.224914,423 C295.047606,427.035738 286.552399,433.404799 282.336762,434.478911 C276.552082,435.951903 276.313662,439.144255 283.081324,439.909429 C289.850319,440.674602 302.48391,436.370337 303.481544,435.30535 C304.477846,434.240364 306.674239,431.237024 306.674239,431.237024 L307.714496,434.038316 C307.714496,434.038316 316.310932,435.023787 316.794432,432.927706 C317.210002,431.130135 316.883673,425.393286 316.782444,423.789941 C310.762009,422.595905 303.084621,428.023816 297.642254,430.521385"/>
      <path fill="#FFF" d="M299.132616,144.814575 C288.396837,141.691468 272.288482,103.00305 272.288482,103.00305 C272.288482,103.00305 269.065204,102.844496 265.389301,104.813759 C262.847639,106.174123 260.076986,108.5431 258,112.688145 C258,112.688145 267.111418,150.683724 280.007208,163.113529 C285.979714,168.861431 298.899608,171.340997 311.076287,172.361603 C325.1947,173.540762 338.298055,172.725343 338.298055,172.725343 L352,149.058216 C352,149.058216 309.867056,147.951005 299.132616,144.814575"/>
      <path stroke="#171717" d="M299.132616,144.814575 C288.396837,141.691468 272.288482,103.00305 272.288482,103.00305 C272.288482,103.00305 269.065204,102.844496 265.389301,104.813759 C262.847639,106.174123 260.076986,108.5431 258,112.688145 C258,112.688145 267.111418,150.683724 280.007208,163.113529 C285.979714,168.861431 298.899608,171.340997 311.076287,172.361603 C325.1947,173.540762 338.298055,172.725343 338.298055,172.725343 L352,149.058216 C352,149.058216 309.867056,147.951005 299.132616,144.814575 Z"/>
      <mask id="main-service4-b" fill="#fff">
        <use xlink:href="#main-service4-a"/>
      </mask>
      <path fill="#FFF" d="M255.496993,14.1449559 L272.795902,149.446313 C273.927071,158.296362 267.659061,166.395055 258.802669,167.525414 L35.720071,196.006481 C26.851702,197.13817 18.7591822,190.874649 17.6280127,182.02327 L0.32910379,46.721913 C-0.802065727,37.8718641 5.4539671,29.7758313 14.3210053,28.6428122 L237.404934,0.161745548 C246.261326,-0.968613825 254.364492,5.29490693 255.496993,14.1449559" mask="url(#main-service4-b)"/>
      <path stroke="#0A0A0A" d="M255.615535,16.0352476 L272.868134,150.571682 C273.997603,159.371697 267.746373,167.424604 258.912363,168.548572 L36.4282941,196.868622 C27.5823389,197.993913 19.5114832,191.765803 18.3846691,182.964465 L1.13207017,48.4280316 C0.00260162226,39.6280162 6.24188675,31.5777542 15.0865147,30.4511406 L237.57191,2.13109105 C246.405921,1.00712215 254.487394,7.23523222 255.615535,16.0352476 Z"/>
      <path fill="#0048FA" d="M255.70814,16.162076 L257,26.3145012 L2.42132248,59 L1.13211821,48.8475748 C0.00223886385,39.9680388 6.24379325,31.8450312 15.0916381,30.7082371 L237.657953,2.13227565 C246.495176,0.998150084 254.579589,7.28253998 255.70814,16.162076"/>
      <path stroke="#121212" d="M255.70814,16.162076 L257,26.3145012 L2.42132248,59 L1.13211821,48.8475748 C0.00223886385,39.9680388 6.24379325,31.8450312 15.0916381,30.7082371 L237.657953,2.13227565 C246.495176,0.998150084 254.579589,7.28253998 255.70814,16.162076 Z"/>
      <path fill="#FFAF1B" d="M76.6119275,127.593505 L42.5897565,131.939994 C38.5822237,132.453093 34.9190039,129.618896 34.4072604,125.611322 L30.0594654,91.5888049 C29.549072,87.5812313 32.3805398,83.9179742 36.3880725,83.4062254 L70.4115937,79.0597364 C74.4177763,78.5479877 78.0809961,81.3808345 78.5940899,85.3870578 L82.9405346,119.410925 C83.450928,123.418499 80.6194602,127.081756 76.6119275,127.593505"/>
      <polygon fill="#FFF" points="53.042 130 47 82.254 48.959 82 55 129.749"/>
      <polygon fill="#FFF" points="31.245 102 31 99.703 48.755 97 49 99.297"/>
      <polygon fill="#FFF" points="33.245 112 33 109.703 50.755 107 51 109.297"/>
      <polygon fill="#FFF" points="34.245 123 34 120.703 51.755 118 52 120.297"/>
      <polygon fill="#FFF" points="67.042 129 61 81.254 62.958 81 69 128.749"/>
      <polygon fill="#FFF" points="63.248 97 63 94.54 78.752 92 79 94.46"/>
      <polygon fill="#FFF" points="64.248 108 64 105.54 79.752 103 80 105.46"/>
      <polygon fill="#FFF" points="66.248 118 66 115.54 81.752 113 82 115.46"/>
      <path fill="#0A0A0A" d="M42.6122404 157.829216C42.6620002 158.249385 42.7398296 158.748595 42.8865572 159.324073 42.996284 159.925899 43.1774607 160.473644 43.4351909 160.989494 43.6546444 161.534465 43.9621344 161.980981 44.333419 162.312401 44.6881171 162.666008 45.1142651 162.799131 45.6156908 162.729796 46.1158405 162.659075 46.4986082 162.416403 46.7793045 161.972661 47.0421383 161.553879 47.2156596 161.039415 47.3228346 160.45007 47.4146988 159.884298 47.4631827 159.30466 47.4695622 158.68758 47.4376649 158.095462 47.4185265 157.587931 47.3687667 157.169149 47.3190069 156.751754 47.2207632 156.253931 47.093174 155.656265 46.9464464 155.080787 46.7639938 154.530269 46.5432644 153.986684 46.288086 153.469447 46.0022861 153.042345 45.6475881 152.687351 45.2967177 152.354544 44.866742 152.199234 44.3857306 152.267182 43.884305 152.336517 43.5245034 152.599989 43.2603937 153.018771 42.9796974 153.462514 42.7844859 153.956177 42.6926216 154.521949 42.5675842 155.114067 42.5191003 155.695093 42.5293074 156.289985 42.5242038 156.907064 42.5637565 157.411821 42.6122404 157.829216M40.0898014 158.18005C39.9966613 157.384087 39.976247 156.53543 40.0272827 155.636851 40.0604559 154.76046 40.236529 153.928443 40.532536 153.12 40.8145082 152.358704 41.2444839 151.681997 41.8211872 151.091265 42.3825798 150.544907 43.16215 150.181593 44.1254486 150.049857 45.0861955 149.915348 45.9065942 150.056791 46.595576 150.428425 47.270523 150.84582 47.8433986 151.382471 48.3116511 152.039764 48.7658687 152.742819 49.1282221 153.501341 49.3846765 154.337518 49.6411308 155.194496 49.815928 156.019579 49.9090682 156.816929 50.0022083 157.611505 50.0251744 158.458776 49.9715869 159.339327 49.9205512 160.237905 49.7470299 161.093496 49.4650577 161.854792 49.1690507 162.660462 48.739075 163.338556 48.1764065 163.883527 47.6009791 164.474259 46.8392714 164.813999 45.8759728 164.948508 44.91395 165.080244 44.0769647 164.963762 43.4020177 164.546367 42.7130359 164.174733 42.1401603 163.636695 41.6859426 162.935027 41.2176902 162.277734 40.852785 161.498411 40.615469 160.637274 40.3590147 159.801096 40.1842174 158.974626 40.0898014 158.18005M55.3543814 162C55.3118557 161.501733 55.2783505 161.084762 55.2358247 160.747776 55.1971649 160.431769 55.1572165 160.115763 55.1146907 159.778777L54.0734536 151.487871 52.6146907 153.24623 51 151.566545 54.1262887 148.284537 56.3028351 148C56.3041237 148.321251 56.3518041 148.697574 56.4033505 149.113234 56.439433 149.551185 56.4871134 149.927508 56.5244845 150.225157L57.6829897 159.444413C57.7242268 159.781399 57.7706186 160.157722 57.8234536 160.572071 57.878866 161.007399 57.9226804 161.364054 58 161.655147L55.3543814 162zM63.6121432 154.830173C63.6619011 155.248932 63.7410035 155.748115 63.8864498 156.323562 63.9961725 156.925355 64.1773424 157.473069 64.4350631 157.988892 64.6545084 158.535219 64.961987 158.980324 65.3345336 159.313113 65.6879426 159.666701 66.1140748 159.798429 66.6154818 159.729098 67.1156129 159.659767 67.4983664 159.415723 67.7790522 158.973391 68.0431521 158.553245 68.216667 158.040196 68.3225621 157.450883 68.4144229 156.885143 68.462905 156.304149 68.4692842 155.687104 68.4373881 155.095018 68.4182504 154.587515 68.3684925 154.168756 68.3187345 153.751384 68.2204945 153.253588 68.09291 152.655955 67.9461879 152.080508 67.7650179 151.531407 67.5442968 150.987852 67.287852 150.469257 67.0020627 150.042178 66.6473779 149.68859 66.2965206 149.354415 65.8665609 149.2005 65.3855674 149.267058 64.8841604 149.336389 64.5243722 149.601233 64.2602723 150.018606 63.9795865 150.462324 63.7843822 150.957347 63.6937973 151.523087 63.5674886 152.113787 63.5190065 152.69478 63.5304891 153.28964 63.5241099 153.906685 63.5636611 154.411415 63.6121432 154.830173M61.0897981 155.180988C60.9966614 154.385069 60.9762479 153.536458 61.0272817 152.637929 61.0604537 151.760199 61.2377961 150.928228 61.5337921 150.121215 61.8157538 149.358575 62.2444376 148.681905 62.8211194 148.092592 63.3824911 147.546264 64.1620323 147.18297 65.1252951 147.049854 66.0860062 146.915352 66.9063744 147.056787 67.5953306 147.428401 68.2702524 147.845774 68.8431067 148.383782 69.3113418 149.039653 69.7642667 149.744055 70.1278824 150.501149 70.3830514 151.33728 70.6420479 152.195597 70.8155628 153.020636 70.9099753 153.817942 71.0031119 154.612474 71.0248013 155.459699 70.9712158 156.338815 70.9214579 157.237344 70.7466671 158.094275 70.4647055 158.854142 70.1687095 159.661154 69.7400256 160.337824 69.1773781 160.882765 68.6006962 161.473465 67.8390169 161.813187 66.87703 161.947689 65.9137672 162.080804 65.076813 161.964328 64.4018911 161.546956 63.7129349 161.173955 63.1413565 160.635947 62.6871557 159.935705 62.2176449 159.277061 61.8527533 158.497781 61.6154461 157.638077 61.3590013 156.801946 61.1854864 155.974134 61.0897981 155.180988M76.3538943 160C76.3113607 159.501686 76.2778494 159.084676 76.2366047 158.747658 76.1966489 158.431622 76.1566931 158.115586 76.1141595 157.778569L75.0740195 149.486886 73.6136991 151.24541 72 149.565568 75.1255754 146.283252 77.3038115 146C77.3038115 146.321281 77.3515006 146.69764 77.4030565 147.113338 77.4391456 147.55133 77.4868348 147.927688 77.522924 148.225365L78.6816424 157.445485C78.724176 157.782503 78.7718652 158.158861 78.8234211 158.573248 78.8775548 159.008617 78.9226662 159.365305 79 159.656426L76.3538943 160zM98.6121432 150.829216C98.6619011 151.247998 98.7410035 151.747208 98.8864498 152.322687 98.9961725 152.924512 99.1773424 153.473644 99.4350631 153.989494 99.6545084 154.534465 99.961987 154.979594 100.334534 155.312401 100.687943 155.666008 101.114075 155.799131 101.615482 155.729796 102.115613 155.659075 102.498366 155.416403 102.779052 154.972661 103.043152 154.553879 103.216667 154.039415 103.322562 153.45007 103.414423 152.884298 103.462905 152.303273 103.469284 151.68758 103.437388 151.095462 103.41825 150.587931 103.368492 150.169149 103.318735 149.751754 103.220495 149.253931 103.09291 148.656265 102.946188 148.0794 102.765018 147.530269 102.544297 146.986684 102.287852 146.469447 102.002063 146.042345 101.647378 145.687351 101.296521 145.354544 100.866561 145.199234 100.385567 145.267182 99.8841604 145.336517 99.5243722 145.599989 99.2602723 146.018771 98.9795865 146.462514 98.7843822 146.956177 98.6925214 147.521949 98.5674886 148.114067 98.5190065 148.695093 98.5304891 149.288598 98.5241099 149.905677 98.5636611 150.410434 98.6121432 150.829216M96.0897981 151.18005C95.9966614 150.384087 95.9762479 149.53543 96.0272817 148.636851 96.0604537 147.759073 96.2365202 146.928443 96.5325162 146.12 96.8157538 145.358704 97.2444376 144.681997 97.8211194 144.091265 98.3824911 143.544907 99.1620323 143.181593 100.125295 143.049857 101.086006 142.915348 101.906374 143.056791 102.595331 143.428425 103.270252 143.84582 103.843107 144.382471 104.311342 145.039764 104.765543 145.742819 105.127882 146.501341 105.384327 147.337518 105.640772 148.194496 105.815563 149.019579 105.909975 149.816929 106.003112 150.611505 106.024801 151.458776 105.971216 152.339327 105.921458 153.237905 105.746667 154.093496 105.464705 154.854792 105.168709 155.660462 104.740026 156.338556 104.177378 156.883527 103.600696 157.474259 102.839017 157.813999 101.87703 157.948508 100.913767 158.080244 100.076813 157.963762 99.4018911 157.546367 98.7129349 157.173346 98.1413565 156.636695 97.6858799 155.935027 97.2176449 155.277734 96.8527533 154.497025 96.6154461 153.637274 96.3590013 152.801096 96.1842106 151.974626 96.0897981 151.18005M111.353894 156C111.311361 155.501733 111.277849 155.084762 111.235316 154.747776 111.196649 154.431769 111.156693 154.115763 111.114159 153.778777L110.072731 145.487871 108.613699 147.24623 107 145.566545 110.125575 142.283226 112.303811 142C112.303811 142.321251 112.351501 142.697574 112.403057 143.113234 112.439146 143.551185 112.486835 143.927508 112.524213 144.225157L113.682931 153.444413C113.724176 153.781399 113.770576 154.157722 113.823421 154.572071 113.878844 155.007399 113.922666 155.364054 114 155.655147L111.353894 156zM119.612055 146.830173C119.661811 147.248932 119.740911 147.748115 119.886352 148.323562 119.996071 148.925355 120.177235 149.473069 120.434947 149.988892 120.654385 150.535219 120.961853 150.980324 121.334387 151.311726 121.687784 151.666701 122.113902 151.798429 122.615292 151.729098 123.115406 151.659767 123.498146 151.415723 123.778823 150.973391 124.042914 150.553245 124.216423 150.03881 124.32359 149.450883 124.414172 148.885143 124.462652 148.304149 124.469031 147.687104 124.437136 147.095018 124.417999 146.587515 124.368243 146.168756 124.318487 145.751384 124.221526 145.253588 124.09267 144.655955 123.945953 144.080508 123.764789 143.531407 123.544075 142.987852 123.287639 142.469257 123.00186 142.042178 122.648463 141.68859 122.296341 141.354415 121.866396 141.2005 121.385419 141.267058 120.884029 141.336389 120.524253 141.601233 120.261438 142.018606 119.979486 142.462324 119.784288 142.957347 119.693706 143.521701 119.567402 144.113787 119.518921 144.69478 119.530403 145.28964 119.524024 145.906685 119.563574 146.411415 119.612055 146.830173M117.089795 147.179601C116.996662 146.383682 116.976249 145.535071 117.027281 144.637929 117.060452 143.760199 117.237788 142.928228 117.533774 142.121215 117.815726 141.358575 118.245671 140.681905 118.821058 140.092592 119.38241 139.546264 120.163201 139.18297 121.125155 139.049854 122.08711 138.915352 122.906174 139.056787 123.595107 139.428401 124.270006 139.845774 124.842841 140.383782 125.31106 141.039653 125.765246 141.744055 126.127573 142.501149 126.38401 143.33728 126.641721 144.194211 126.815231 145.020636 126.90964 145.817942 127.002773 146.612474 127.024462 147.458312 126.972154 148.338815 126.921122 149.237344 126.747613 150.094275 126.464385 150.854142 126.168399 151.661154 125.73973 152.337824 125.177101 152.882765 124.600439 153.473465 123.838785 153.813187 122.876831 153.947689 121.913601 154.080804 121.076675 153.964328 120.401776 153.546956 119.712843 153.173955 119.141284 152.635947 118.687099 151.935705 118.217604 151.277061 117.852724 150.497781 117.615425 149.638077 117.358989 148.801946 117.18548 147.974134 117.089795 147.179601M132.353894 153C132.311361 152.501686 132.277849 152.084676 132.236605 151.747658 132.196649 151.431622 132.156693 151.115586 132.114159 150.778569L131.07402 142.486886 129.613699 144.24541 128 142.565568 131.125575 139.283252 133.303811 139C133.303811 139.321281 133.351501 139.69764 133.403057 140.113338 133.440435 140.55133 133.486835 140.927688 133.524213 141.225365L134.682931 150.445485C134.724176 150.782503 134.771865 151.158861 134.82471 151.573248 134.878844 152.008617 134.922666 152.365305 135 152.656426L132.353894 153zM154.612055 142.829792C154.661811 143.248574 154.740911 143.747783 154.886352 144.32326 154.996071 144.925085 155.177235 145.472829 155.434947 145.990065 155.654385 146.535035 155.961853 146.980164 156.334387 147.31297 156.687784 147.666577 157.115177 147.799699 157.615292 147.728978 158.115406 147.659643 158.498146 147.416972 158.778823 146.97323 159.042914 146.553062 159.216423 146.039986 159.322314 145.450642 159.414172 144.884871 159.462652 144.303847 159.469031 143.686769 159.437136 143.094651 159.417999 142.588508 159.368243 142.16834 159.318487 141.752332 159.221526 141.253123 159.09267 140.655458 158.945953 140.079981 158.764789 139.530851 158.544075 138.987267 158.287639 138.470031 158.00186 138.041543 157.647187 137.687936 157.296341 137.353743 156.866396 137.19982 156.385419 137.266381 155.884029 137.337103 155.524253 137.600574 155.261438 138.019355 154.979486 138.46171 154.784288 138.95676 154.69243 139.52253 154.567402 140.113261 154.518921 140.694286 154.530403 141.289177 154.524024 141.906255 154.563574 142.411011 154.612055 142.829792M152.089795 143.180626C151.996662 142.384664 151.976249 141.536008 152.027281 140.637431 152.060452 139.759655 152.236512 138.929026 152.532498 138.120584 152.815726 137.35929 153.244395 136.681197 153.821058 136.091853 154.38241 135.545496 155.163201 135.182182 156.125155 135.04906 157.085834 134.915937 157.906174 135.05738 158.595107 135.429014 159.270006 135.845021 159.842841 136.383058 160.31106 137.04035 160.765246 137.743404 161.127573 138.500538 161.38401 139.3381 161.640446 140.195076 161.815231 141.020158 161.90964 141.817507 162.002773 142.612082 162.024462 143.459351 161.972154 144.339901 161.921122 145.237091 161.747613 146.094067 161.464385 146.855361 161.168399 147.66103 160.73973 148.337736 160.177101 148.884093 159.600439 149.474824 158.838785 149.814564 157.876831 149.947686 156.913601 150.080809 156.076675 149.964326 155.401776 149.546932 154.712843 149.173911 154.141284 148.637261 153.685823 147.935595 153.217604 147.278303 152.852724 146.497595 152.615425 145.637845 152.358989 144.801669 152.184204 143.975201 152.089795 143.180626M167.353894 149C167.311361 148.501733 167.277849 148.084762 167.236605 147.747776 167.196649 147.431769 167.157982 147.115763 167.114159 146.778777L166.07402 138.487871 164.613699 140.244919 163 138.566545 166.125575 135.283226 168.303811 135C168.303811 135.321251 168.351501 135.697574 168.403057 136.113234 168.440435 136.551185 168.486835 136.927508 168.524213 137.225157L169.682931 146.444413C169.725465 146.781399 169.771865 147.157722 169.823421 147.572071 169.878844 148.007399 169.923955 148.364054 170 148.655147L167.353894 149zM175.612143 140.830282C175.661901 141.249046 175.741004 141.748236 175.88645 142.323691 175.996172 142.925492 176.177342 143.473214 176.435063 143.989043 176.654508 144.533992 176.961987 144.98049 177.334534 145.311896 177.687943 145.666876 178.114075 145.798606 178.615482 145.729274 179.115613 145.658556 179.498366 145.415894 179.779052 144.97217 180.043152 144.553405 180.216667 144.038962 180.323838 143.449641 180.414423 142.885279 180.462905 142.304278 180.469284 141.687224 180.437388 141.09513 180.41825 140.58762 180.368492 140.168855 180.318735 139.751477 180.22177 139.253674 180.09291 138.656033 179.946188 138.080578 179.765018 137.53147 179.544297 136.987907 179.289128 136.469305 179.003339 136.04222 178.648654 135.687241 178.296521 135.354448 177.866561 135.199144 177.385567 135.267089 176.88416 135.336421 176.524372 135.601269 176.261548 136.018647 175.979586 136.462371 175.784382 136.956015 175.693797 137.521763 175.567489 138.113858 175.519007 138.694859 175.530489 139.289727 175.52411 139.906781 175.563661 140.411517 175.612143 140.830282M173.089798 141.179714C172.996661 140.383784 172.976248 139.535162 173.027282 138.638007 173.061729 137.760265 173.237796 136.928282 173.533792 136.121259 173.815754 135.358608 174.245713 134.681928 174.821119 134.092607 175.382491 133.544885 176.163308 133.181586 177.125295 133.049855 178.087282 132.915351 178.906374 133.056788 179.595331 133.428407 180.270252 133.845785 180.843107 134.382414 181.311342 135.039681 181.765543 135.742706 182.127882 136.501197 182.383051 137.33734 182.642048 138.194283 182.815563 139.019332 182.909975 139.816649 183.003112 140.611193 183.024801 141.458429 182.971216 142.338944 182.921458 143.237485 182.747943 144.093041 182.464705 144.854306 182.168709 145.659942 181.740026 146.338008 181.177378 146.882957 180.600696 147.473665 179.839017 147.813391 178.87703 147.947895 177.913767 148.081013 177.076813 147.963148 176.401891 147.547157 175.712935 147.174151 175.141356 146.636136 174.687156 145.935883 174.217645 145.27723 173.852753 144.49794 173.615446 143.636837 173.359001 142.800694 173.185486 141.974258 173.089798 141.179714M188.355183 145C188.311361 144.501686 188.277849 144.084676 188.236605 143.747658 188.196649 143.431622 188.156693 143.115586 188.114159 142.778569L187.07402 134.486886 185.613699 136.24541 184 134.565568 187.125575 131.283252 189.303811 131C189.3051 131.321281 189.351501 131.69764 189.404345 132.113338 189.440435 132.550019 189.486835 132.926377 189.524213 133.224054L190.682931 142.444174C190.724176 142.781191 190.771865 143.15755 190.82471 143.571937 190.878844 144.007306 190.922666 144.363994 191 144.656426L188.355183 145zM209.612658 135.829792C209.661139 136.248574 209.74024 136.747783 209.886959 137.32326 209.99668 137.925085 210.177846 138.472829 210.435562 138.990065 210.655003 139.535035 210.962476 139.980164 211.333739 140.31297 211.688417 140.666577 212.114541 140.799699 212.615939 140.728978 213.11606 140.659643 213.49753 140.415585 213.779486 139.97323 214.042305 139.553062 214.215817 139.039986 214.322986 138.450642 214.414845 137.884871 214.463326 137.303847 214.468429 136.686769 214.43781 136.094651 214.418672 135.587121 214.368915 135.16834 214.317883 134.750946 214.22092 134.253123 214.093338 133.655458 213.946619 133.079981 213.764177 132.530851 213.54346 131.987267 213.288296 131.470031 213.002512 131.041543 212.647834 130.687936 212.296983 130.353743 211.867032 130.19982 211.386048 130.266381 210.884651 130.337103 210.524869 130.600574 210.260775 131.019355 209.980094 131.46171 209.783618 131.95676 209.693035 132.52253 209.568004 133.113261 209.518247 133.694286 209.52973 134.289177 209.524626 134.906255 209.564177 135.411011 209.612658 135.829792M207.090361 136.180626C206.997227 135.384664 206.975538 134.536008 207.027846 133.637431 207.061018 132.759655 207.237081 131.929026 207.533071 131.120584 207.815027 130.357903 208.244979 129.681197 208.820374 129.091853 209.381734 128.545496 210.162536 128.182182 211.125781 128.04906 212.086473 127.915937 212.90555 128.05738 213.595768 128.429014 214.270677 128.845021 214.84352 129.383058 215.311746 130.038964 215.765938 130.743404 216.128271 131.500538 216.384711 132.336714 216.641151 133.195076 216.815938 134.020158 216.909073 134.817507 217.002208 135.612082 217.025173 136.459351 216.971588 137.338514 216.920556 138.237091 216.747044 139.094067 216.465088 139.853975 216.169098 140.66103 215.739146 141.337736 215.17651 141.882706 214.601115 142.474824 213.83945 142.814564 212.876206 142.947686 211.914237 143.080809 211.077299 142.964326 210.402391 142.546932 209.713448 142.173911 209.140604 141.637261 208.686412 140.935595 208.218186 140.278303 207.853302 139.497595 207.614724 138.637845 207.358284 137.801669 207.184772 136.975201 207.090361 136.180626M222.355183 141C222.31265 140.500421 222.279138 140.084762 222.236605 139.747776 222.197938 139.431769 222.157982 139.115763 222.115448 138.778777L221.07402 130.487871 219.614988 132.244919 218 130.566545 221.126864 127.283226 223.303811 127C223.3051 127.321251 223.35279 127.697574 223.404345 128.113234 223.440435 128.551185 223.488124 128.927508 223.525502 129.225157L224.68422 138.444413C224.725465 138.781399 224.771865 139.157722 224.82471 139.572071 224.880133 140.007399 224.923955 140.364054 225 140.655147L222.355183 141zM231.612143 133.830282C231.661901 134.24766 231.741004 134.748236 231.88645 135.323691 231.996172 135.925492 232.177342 136.473214 232.435063 136.989043 232.654508 137.533992 232.961987 137.98049 233.333258 138.311896 233.687943 138.665489 234.114075 138.798606 234.615482 138.729274 235.115613 138.658556 235.498366 138.415894 235.779052 137.97217 236.043152 137.553405 236.216667 137.038962 236.322562 136.449641 236.414423 135.883893 236.462905 135.304278 236.469284 134.687224 236.437388 134.09513 236.41825 133.58762 236.368492 133.168855 236.318735 132.751477 236.220495 132.253674 236.09291 131.656033 235.946188 131.080578 235.765018 130.53147 235.544297 129.987907 235.287852 129.469305 235.002063 129.04222 234.647378 128.687241 234.296521 128.354448 233.866561 128.200531 233.385567 128.267089 232.88416 128.336421 232.524372 128.601269 232.260272 129.018647 231.979586 129.462371 231.784382 129.956015 231.693797 130.521763 231.567489 131.113858 231.519007 131.694859 231.530489 132.289727 231.52411 132.906781 231.563661 133.41013 231.612143 133.830282M229.089798 134.179714C228.996661 133.383784 228.976248 132.535162 229.027282 131.63662 229.060454 130.760265 229.23652 129.928282 229.532516 129.121259 229.815754 128.358608 230.244438 127.681928 230.821119 127.092607 231.382491 126.546271 232.162032 126.182972 233.125295 126.049855 234.086006 125.915351 234.906374 126.056788 235.595331 126.428407 236.270252 126.845785 236.843107 127.383801 237.311342 128.039681 237.764267 128.744093 238.127882 129.501197 238.383051 130.33734 238.642048 131.194283 238.815563 132.019332 238.909975 132.816649 239.003112 133.611193 239.024801 134.458429 238.971216 135.338944 238.921458 136.237485 238.746667 137.093041 238.464705 137.854306 238.168709 138.659942 237.73875 139.338008 237.176102 139.882957 236.600696 140.473665 235.839017 140.813391 234.87703 140.947895 233.913767 141.081013 233.076813 140.963148 232.401891 140.547157 231.712935 140.174151 231.141356 139.636136 230.68588 138.934497 230.217645 138.27723 229.852753 137.49794 229.615446 136.636837 229.359001 135.800694 229.185486 134.974258 229.089798 134.179714M243.353894 138C243.311361 137.501686 243.277849 137.084676 243.235316 136.747658 243.196649 136.431622 243.156693 136.115586 243.112871 135.778569L242.072731 127.486886 240.613699 129.24541 239 127.565568 242.125575 124.283252 244.302523 124C244.303811 124.321281 244.351501 124.69764 244.403057 125.113338 244.439146 125.55133 244.486835 125.927688 244.522924 126.225365L245.681642 135.444174C245.724176 135.781191 245.771865 136.15755 245.823421 136.571937 245.877555 137.007306 245.922666 137.363994 246 137.655114L243.353894 138z"/>
      <path fill="#0048FA" d="M208,109.515871 C205.186785,111.79439 201.72457,113.337903 197.8862,113.832362 C186.760489,115.267628 176.588412,107.328225 175.16591,96.0919843 C173.744733,84.8650984 181.610875,74.6017388 192.73791,73.1678085 C196.574955,72.6733498 200.310015,73.2894186 203.601371,74.7808131 C199.475587,79.6799636 197.332563,86.2509192 198.204077,93.1212228 C199.075591,100.00489 202.785486,105.819458 208,109.515871"/>
      <path stroke="#121212" d="M208,109.515871 C205.186785,111.79439 201.72457,113.337903 197.8862,113.832362 C186.760489,115.267628 176.588412,107.328225 175.16591,96.0919843 C173.744733,84.8650984 181.610875,74.6017388 192.73791,73.1678085 C196.574955,72.6733498 200.310015,73.2894186 203.601371,74.7808131 C199.475587,79.6799636 197.332563,86.2509192 198.204077,93.1212228 C199.075591,100.00489 202.785486,105.819458 208,109.515871 Z"/>
      <path fill="#0048FA" d="M241.832647,88.9021117 C243.266594,100.131515 235.327098,110.397405 224.097409,111.832652 C212.867719,113.266562 202.602903,105.327268 201.16762,94.0978655 C199.732337,82.8684625 207.673169,72.6039088 218.902859,71.1673257 C230.131212,69.7334153 240.3987,77.6740451 241.832647,88.9021117"/>
      <path stroke="#121212" d="M241.832647,88.9021117 C243.266594,100.131515 235.327098,110.397405 224.097409,111.832652 C212.867719,113.266562 202.602903,105.327268 201.16762,94.0978655 C199.732337,82.8684625 207.673169,72.6039088 218.902859,71.1673257 C230.131212,69.7334153 240.3987,77.6740451 241.832647,88.9021117 Z"/>
      <path fill="#0A0A0A" d="M358.310214,120.575861 C355.889864,118.385204 353.950903,118.550235 352.210397,109.341754 C351.234212,104.201827 347.081402,102.638022 343.313434,101.842145 C341.343632,101.408272 339.49183,101.193998 338.223326,100.800052 C334.529108,99.6328549 336.206591,95 336.206591,95 C331.00921,97.0788622 333.251217,102.500939 333.251217,102.500939 C333.251217,102.500939 328.677361,100.730846 324.720324,105.736352 C321.246017,110.128314 324.108867,115.871138 324.108867,115.871138 L333.251217,137.680558 L336.962867,146 C336.962867,146 337.257868,145.89619 337.783506,145.689901 C340.615516,144.609212 350.114549,140.821477 355.703477,136.766232 C362.322228,131.972338 362.192159,124.078784 358.310214,120.575861"/>
      <polygon fill="#FFF" points="324 143.386 329.252 156 343 149.118 337.947 141"/>
      <polygon stroke="#171717" points="324 143.386 329.252 156 343 149.118 337.947 141"/>
      <path fill="#FFF" d="M326.835346,113 C326.835346,113 322.60144,115.180548 317.611292,124.784895 C313.79345,132.136188 311.901538,140.196428 317.587741,142.887203 C322.161825,145.051638 329.856387,145.304066 331.597836,144.745502 C333.975155,143.982848 340.451619,139.586841 340.451619,139.586841 C340.451619,139.586841 345.432607,139.378723 346.713508,135.065964 C347.995717,130.753205 344.711692,130.389333 342.060921,132.278515 C339.410151,134.169039 338.16196,136.798049 338.16196,136.798049 L334.843917,136.620813 L337.221237,130.974751 C337.221237,130.974751 335.573991,128.324257 335.973046,125.229329 C336.530415,120.9112 335.901085,117.874008 332.450897,117.261736 C328.353062,116.532649 326.835346,113 326.835346,113"/>
      <path stroke="#171717" d="M326.835346,113 C326.835346,113 322.60144,115.180548 317.611292,124.784895 C313.79345,132.136188 311.901538,140.196428 317.587741,142.887203 C322.161825,145.051638 329.856387,145.304066 331.597836,144.745502 C333.975155,143.982848 340.451619,139.586841 340.451619,139.586841 C340.451619,139.586841 345.432607,139.378723 346.713508,135.065964 C347.995717,130.753205 344.711692,130.389333 342.060921,132.278515 C339.410151,134.169039 338.16196,136.798049 338.16196,136.798049 L334.843917,136.620813 L337.221237,130.974751 C337.221237,130.974751 335.573991,128.324257 335.973046,125.229329 C336.530415,120.9112 335.901085,117.874008 332.450897,117.261736 C328.353062,116.532649 326.835346,113 326.835346,113 Z"/>
      <path fill="#394BA6" d="M367,159.627994 C364.538127,156.13013 361.644765,153.79028 358.641545,152.401987 C356.182319,151.24662 353.626472,150.752975 351.159305,150.772826 C340.983564,150.887966 316.666614,159.854303 307.999763,165.903769 C304.449901,168.389198 302.702766,173.160216 302.050237,179.136891 C301.773607,181.763929 301.032398,184.758884 300,188 C300.010589,182.669165 300.296484,177.61493 301.121079,173.264768 C302.250099,167.417789 304.342691,162.858523 308.015646,160.689397 C316.959127,155.427381 335.963196,146.991745 352.170525,149.433501 C354.576808,149.796124 357.02015,150.300357 359.328487,151.635712 C362.179494,153.279431 364.842552,155.876029 367,159.627994"/>
      <path fill="#FFF" d="M199.076632,178.824607 C199.071205,178.755514 199.071205,178.698858 199.063065,178.62562 C199.063065,178.62562 194.596797,169.307787 193.269941,169.014834 C191.941728,168.721882 192.49662,172.821839 194.807086,176.539023 C194.897985,176.686881 194.988884,176.826448 195.08114,176.966015 L190.157663,174.677667 C190.157663,174.677667 181.915689,172.184805 178.120989,172.205532 C174.326289,172.224878 176.682883,173.728334 178.495439,174.039251 C180.307995,174.348786 185.744306,176.172832 185.744306,176.172832 L189.803563,178.059061 L189.803563,178.064588 C188.410229,177.654178 181.436773,175.651873 178.03009,175.669837 C174.23539,175.689183 176.591984,177.194021 178.405897,177.504938 C180.218453,177.814473 185.652051,179.637136 185.652051,179.637136 L189.347711,181.354779 C187.166132,180.7288 181.204776,179.106505 178.139983,179.123087 C174.34664,179.142433 176.703234,180.647271 178.51579,180.956806 C180.328346,181.267723 185.7633,183.090386 185.7633,183.090386 L189.114358,184.647735 L189.098078,184.819084 C186.683145,184.202778 183.517956,183.50356 181.606361,183.513233 C178.196965,183.531198 180.314779,184.884031 181.94418,185.161784 C183.572224,185.439536 188.457714,187.078414 188.457714,187.078414 L188.848444,187.20278 C188.849801,187.20278 196.846212,190.838435 203.487276,189.820009 L205,181.577258 L199.076632,178.824607 Z"/>
      <path stroke="#171717" d="M199.076632,178.824607 C199.071205,178.755514 199.071205,178.698858 199.063065,178.62562 C199.063065,178.62562 194.596797,169.307787 193.269941,169.014834 C191.941728,168.721882 192.49662,172.821839 194.807086,176.539023 C194.897985,176.686881 194.988884,176.826448 195.08114,176.966015 L190.157663,174.677667 C190.157663,174.677667 181.915689,172.184805 178.120989,172.205532 C174.326289,172.224878 176.682883,173.728334 178.495439,174.039251 C180.307995,174.348786 185.744306,176.172832 185.744306,176.172832 L189.803563,178.059061 L189.803563,178.064588 C188.410229,177.654178 181.436773,175.651873 178.03009,175.669837 C174.23539,175.689183 176.591984,177.194021 178.405897,177.504938 C180.218453,177.814473 185.652051,179.637136 185.652051,179.637136 L189.347711,181.354779 C187.166132,180.7288 181.204776,179.106505 178.139983,179.123087 C174.34664,179.142433 176.703234,180.647271 178.51579,180.956806 C180.328346,181.267723 185.7633,183.090386 185.7633,183.090386 L189.114358,184.647735 L189.098078,184.819084 C186.683145,184.202778 183.517956,183.50356 181.606361,183.513233 C178.196965,183.531198 180.314779,184.884031 181.94418,185.161784 C183.572224,185.439536 188.457714,187.078414 188.457714,187.078414 L188.848444,187.20278 C188.849801,187.20278 196.846212,190.838435 203.487276,189.820009 L205,181.577258 L199.076632,178.824607 Z"/>
      <path fill="#394BA6" d="M318.102407,197.794722 C318.929098,192.961737 319.180149,188.099725 318.874577,183.347224 C317.754994,178.094667 315.733911,173.187795 312.254707,169 C309.687146,170.407806 305.440843,173.017592 301.075355,176.052226 C298.962981,187.747444 300.494643,203.984057 301.190737,217 C309.541334,216.720286 316.653161,206.992303 318.102407,197.794722"/>
      <path fill="#0A0A0A" d="M361.568549,319.035436 C360.200336,317.116982 359.521543,314.676643 359.364796,311.774331 C358.891899,303.566647 362.427999,291.765688 365.337113,278.517566 C365.335784,278.518897 365.334456,278.518897 365.331799,278.518897 C367.649791,267.957412 369.563961,256.474641 368.708496,245.1503 C366.406444,214.624104 350.624172,226.12285 350.624172,226.12285 L330.053154,241.248155 L329.001091,249.245489 L299.191314,262.054269 C299.191314,262.054269 298.124639,264.591795 296.526619,268.781508 C291.752485,281.298726 282.182963,308.496583 282.002306,326.247282 C281.759216,349.922424 300.815901,414.625338 300.815901,414.625338 C300.815901,414.625338 317.084353,417.210792 322.452265,408.798082 C322.452265,408.798082 310.797215,344.410694 313.837836,330.713913 C314.982884,325.53768 320.127631,316.777491 326.223486,307.080042 C326.762801,310.730564 327.401743,314.430346 328.145626,317.741378 L328.145626,317.740047 C328.800509,320.641027 329.527123,323.237132 330.325468,325.239461 C334.61475,335.87417 375.330382,394.882961 375.330382,394.882961 C375.330382,394.882961 377.91139,394.299836 381.072892,392.75815 C385.338263,390.670615 390.654369,386.796428 392,380.167708 C392,380.167708 369.927933,330.703262 361.568549,319.035436"/>
      <path fill="#FFF" d="M269.653232,90.9184752 C269.151531,89.4436913 263.829538,82 263.829538,82 L265.419138,94.8913625 C264.68111,94.2264785 263.706753,93.4562527 262.856502,93.1757975 C261.251058,92.6463528 261.451739,89.8595858 258.742553,89.2631055 C256.033367,88.6679933 257.09222,90.5518314 257.889661,91.3152167 C260.498507,93.8092158 260.347996,94.9542939 261.552079,98.905292 C262.754841,102.85629 266.542685,104 266.542685,104 L267.746768,104 C267.746768,104 271.056675,95.0568994 269.653232,90.9184752"/>
      <path stroke="#171717" d="M269.653232,90.9184752 C269.151531,89.4436913 263.829538,82 263.829538,82 L265.419138,94.8913625 C264.68111,94.2264785 263.706753,93.4562527 262.856502,93.1757975 C261.251058,92.6463528 261.451739,89.8595858 258.742553,89.2631055 C256.033367,88.6679933 257.09222,90.5518314 257.889661,91.3152167 C260.498507,93.8092158 260.347996,94.9542939 261.552079,98.905292 C262.754841,102.85629 266.542685,104 266.542685,104 L267.746768,104 C267.746768,104 271.056675,95.0568994 269.653232,90.9184752 Z"/>
      <path fill="#FFF" d="M370.980153,177.484009 C371.243187,168.047738 368.867945,161.10648 365.271376,156.209748 C363.189569,153.312227 360.668931,151.181069 357.915659,149.585699 C355.610471,148.24223 353.171784,147.649131 350.767462,147.367909 C331.818395,145.158115 315.604095,153.405523 306.672814,158.702097 C303.004869,160.889233 300.915132,165.479419 299.787652,171.367759 C296.608766,188.229097 301.36586,215.722234 299.914543,228.137329 C297.960949,244.897373 288,258.610622 288,258.610622 C288,258.610622 288.02247,258.641276 288.097812,258.693256 C289.172421,259.506268 299.816731,267.083274 325.518782,267 C333.835435,266.980648 341.277067,265.487905 347.604438,263.419389 L349.961175,236.885872 L354.650858,260.711125 C360.769387,258.014857 365.314995,255.064023 367.938732,253.164774 C369.641187,251.921265 370.532068,251.132243 370.532068,251.132243 L368.209697,225.919539 C365.629579,206.727122 371.280197,204.590633 370.980153,177.484009"/>
      <path stroke="#171717" d="M370.980153,177.484009 C371.243187,168.047738 368.867945,161.10648 365.271376,156.209748 C363.189569,153.312227 360.668931,151.181069 357.915659,149.585699 C355.610471,148.24223 353.171784,147.649131 350.767462,147.367909 C331.818395,145.158115 315.604095,153.405523 306.672814,158.702097 C303.004869,160.889233 300.915132,165.479419 299.787652,171.367759 C296.608766,188.229097 301.36586,215.722234 299.914543,228.137329 C297.960949,244.897373 288,258.610622 288,258.610622 C288,258.610622 288.02247,258.641276 288.097812,258.693256 C289.172421,259.506268 299.816731,267.083274 325.518782,267 C333.835435,266.980648 341.277067,265.487905 347.604438,263.419389 L349.961175,236.885872 L354.650858,260.711125 C360.769387,258.014857 365.314995,255.064023 367.938732,253.164774 C369.641187,251.921265 370.532068,251.132243 370.532068,251.132243 L368.209697,225.919539 C365.629579,206.727122 371.280197,204.590633 370.980153,177.484009 Z"/>
      <path fill="#FFF" d="M316.916819,176.799047 C316.647165,173.403217 315.926765,170.294152 314.799241,167.737277 C314.808494,167.746613 314.817747,167.754616 314.826999,167.763952 C314.74108,167.566552 314.64723,167.379821 314.557345,167.190423 C314.513725,167.101059 314.472748,167.007693 314.429127,166.919663 C314.242749,166.546202 314.044474,166.19008 313.838268,165.845962 C313.773498,165.739259 313.707406,165.636557 313.641314,165.532522 C313.462867,165.251092 313.27781,164.978999 313.086144,164.71891 C313.033271,164.65222 312.985685,164.578862 312.934133,164.510838 C312.700169,164.209402 312.452986,163.927972 312.200515,163.658546 C312.125171,163.581187 312.048504,163.505161 311.97316,163.430468 C311.740517,163.198389 311.499943,162.980981 311.251439,162.779579 C311.20914,162.7449 311.168163,162.70622 311.124542,162.671542 C310.836383,162.447465 310.536326,162.250064 310.227017,162.068669 C310.151673,162.02332 310.072363,161.980638 309.994374,161.936623 C309.694318,161.772567 309.387653,161.62585 309.069091,161.503141 C309.045298,161.493805 309.024148,161.483135 309.001677,161.475132 C308.659322,161.347088 308.302427,161.252389 307.940244,161.175029 C307.859613,161.156356 307.778981,161.143018 307.697027,161.128346 C307.332201,161.062991 306.959444,161.016308 306.572146,161.00297 L306.561572,161.00297 C306.171631,160.990966 305.768471,161.016308 305.358703,161.061657 C305.264853,161.072327 305.168359,161.084331 305.073187,161.099003 C304.66474,161.155022 304.251006,161.232382 303.824054,161.347088 C303.817444,161.349756 303.810835,161.349756 303.804226,161.351089 C296.141555,163.431802 269.782864,185.261945 259.837385,188.800491 C259.789799,188.81783 259.736926,188.839171 259.690661,188.85651 C259.54526,188.90586 259.41572,188.937871 259.278249,188.979219 C259.114342,189.028569 258.945147,189.087256 258.791814,189.123268 C258.489114,189.19796 258.15469,189.256647 257.800439,189.304663 C257.688083,189.320669 257.565152,189.330005 257.447509,189.34201 C257.195039,189.370019 256.939925,189.394027 256.667627,189.410033 C256.516938,189.419369 256.358318,189.423371 256.199698,189.428706 C255.940618,189.438042 255.677573,189.443378 255.402632,189.443378 C255.225506,189.443378 255.044415,189.442044 254.862002,189.438042 C254.585739,189.432707 254.302866,189.422037 254.013384,189.408699 C253.817753,189.399363 253.619478,189.390026 253.418559,189.378022 C253.122468,189.359349 252.818447,189.335341 252.510459,189.309999 C252.300288,189.292659 252.09276,189.276654 251.875979,189.256647 C251.553451,189.224636 251.220349,189.18729 250.885925,189.149944 C250.670466,189.124602 250.461617,189.104595 250.242192,189.076585 C249.831102,189.025901 249.408115,188.967215 248.981163,188.90586 C248.555532,188.84584 248.121971,188.780484 247.6818,188.711127 C247.412146,188.668446 247.145135,188.628432 246.871516,188.583083 C246.501402,188.521729 246.124679,188.455039 245.749279,188.38835 C245.525889,188.34967 245.303821,188.31099 245.077787,188.270976 C244.670662,188.19495 244.255606,188.116256 243.841872,188.037563 C243.651528,187.998883 243.462506,187.964204 243.27084,187.926858 C242.816129,187.83616 242.360096,187.744129 241.900098,187.64943 C241.761306,187.620086 241.621191,187.592077 241.481077,187.5614 C240.965561,187.453363 240.447403,187.343992 239.9266,187.229286 C239.889589,187.221283 239.852577,187.21328 239.815566,187.205278 C228.245553,184.663074 215.397327,180.680376 210.747115,179.202537 C210.755046,179.205204 210.762977,179.209206 210.770908,179.213207 C209.601085,178.839746 208.933559,178.619671 208.933559,178.619671 C198.736932,184.473676 204.77507,197.978301 204.77507,197.978301 C219.308634,207.749647 253.897063,218.724073 263.230533,217.962479 C272.56268,217.202218 293.645932,207.684292 303.907329,201.11004 C312.825743,195.394749 317.707276,186.741119 316.916819,176.799047"/>
      <path stroke="#171717" d="M316.916819,176.799047 C316.647165,173.403217 315.926765,170.294152 314.799241,167.737277 C314.808494,167.746613 314.817747,167.754616 314.826999,167.763952 C314.74108,167.566552 314.64723,167.379821 314.557345,167.190423 C314.513725,167.101059 314.472748,167.007693 314.429127,166.919663 C314.242749,166.546202 314.044474,166.19008 313.838268,165.845962 C313.773498,165.739259 313.707406,165.636557 313.641314,165.532522 C313.462867,165.251092 313.27781,164.978999 313.086144,164.71891 C313.033271,164.65222 312.985685,164.578862 312.934133,164.510838 C312.700169,164.209402 312.452986,163.927972 312.200515,163.658546 C312.125171,163.581187 312.048504,163.505161 311.97316,163.430468 C311.740517,163.198389 311.499943,162.980981 311.251439,162.779579 C311.20914,162.7449 311.168163,162.70622 311.124542,162.671542 C310.836383,162.447465 310.536326,162.250064 310.227017,162.068669 C310.151673,162.02332 310.072363,161.980638 309.994374,161.936623 C309.694318,161.772567 309.387653,161.62585 309.069091,161.503141 C309.045298,161.493805 309.024148,161.483135 309.001677,161.475132 C308.659322,161.347088 308.302427,161.252389 307.940244,161.175029 C307.859613,161.156356 307.778981,161.143018 307.697027,161.128346 C307.332201,161.062991 306.959444,161.016308 306.572146,161.00297 L306.561572,161.00297 C306.171631,160.990966 305.768471,161.016308 305.358703,161.061657 C305.264853,161.072327 305.168359,161.084331 305.073187,161.099003 C304.66474,161.155022 304.251006,161.232382 303.824054,161.347088 C303.817444,161.349756 303.810835,161.349756 303.804226,161.351089 C296.141555,163.431802 269.782864,185.261945 259.837385,188.800491 C259.789799,188.81783 259.736926,188.839171 259.690661,188.85651 C259.54526,188.90586 259.41572,188.937871 259.278249,188.979219 C259.114342,189.028569 258.945147,189.087256 258.791814,189.123268 C258.489114,189.19796 258.15469,189.256647 257.800439,189.304663 C257.688083,189.320669 257.565152,189.330005 257.447509,189.34201 C257.195039,189.370019 256.939925,189.394027 256.667627,189.410033 C256.516938,189.419369 256.358318,189.423371 256.199698,189.428706 C255.940618,189.438042 255.677573,189.443378 255.402632,189.443378 C255.225506,189.443378 255.044415,189.442044 254.862002,189.438042 C254.585739,189.432707 254.302866,189.422037 254.013384,189.408699 C253.817753,189.399363 253.619478,189.390026 253.418559,189.378022 C253.122468,189.359349 252.818447,189.335341 252.510459,189.309999 C252.300288,189.292659 252.09276,189.276654 251.875979,189.256647 C251.553451,189.224636 251.220349,189.18729 250.885925,189.149944 C250.670466,189.124602 250.461617,189.104595 250.242192,189.076585 C249.831102,189.025901 249.408115,188.967215 248.981163,188.90586 C248.555532,188.84584 248.121971,188.780484 247.6818,188.711127 C247.412146,188.668446 247.145135,188.628432 246.871516,188.583083 C246.501402,188.521729 246.124679,188.455039 245.749279,188.38835 C245.525889,188.34967 245.303821,188.31099 245.077787,188.270976 C244.670662,188.19495 244.255606,188.116256 243.841872,188.037563 C243.651528,187.998883 243.462506,187.964204 243.27084,187.926858 C242.816129,187.83616 242.360096,187.744129 241.900098,187.64943 C241.761306,187.620086 241.621191,187.592077 241.481077,187.5614 C240.965561,187.453363 240.447403,187.343992 239.9266,187.229286 C239.889589,187.221283 239.852577,187.21328 239.815566,187.205278 C228.245553,184.663074 215.397327,180.680376 210.747115,179.202537 C210.755046,179.205204 210.762977,179.209206 210.770908,179.213207 C209.601085,178.839746 208.933559,178.619671 208.933559,178.619671 C198.736932,184.473676 204.77507,197.978301 204.77507,197.978301 C219.308634,207.749647 253.897063,218.724073 263.230533,217.962479 C272.56268,217.202218 293.645932,207.684292 303.907329,201.11004 C312.825743,195.394749 317.707276,186.741119 316.916819,176.799047 Z"/>
      <path fill="#4D235F" d="M343,101.755781 L340,101.265781 C341.029886,101.176781 342.070389,101.367781 343,101.755781"/>
    </g>
  </g>
</svg>
