<svg xmlns="http://www.w3.org/2000/svg" xmlns:xlink="http://www.w3.org/1999/xlink" width="565" height="416" viewBox="0 0 565 416">
  <defs>
    <polygon id="main-service1-a" points=".559 .482 329.623 .482 329.623 259.322 .559 259.322"/>
    <polygon id="main-service1-c" points=".559 .482 329.623 .482 329.623 259.322 .559 259.322"/>
    <polygon id="main-service1-e" points="0 .445 113.146 .445 113.146 142.237 0 142.237"/>
  </defs>
  <g fill="none" fill-rule="evenodd">
    <path fill="#F8F8F8" d="M260.239662,86.6420182 C194.782301,111.852002 142.231315,31.1387008 44.709758,125.712703 C-67.9221937,234.941678 43.8271416,422.450705 250.563664,415.829239 C382.582917,411.6032 514.564344,356.420114 556.072537,216.575052 C597.58073,76.7274696 485.798612,-13.2044457 396.813217,1.58668917 C306.872075,16.5341572 320.542543,63.4164569 260.239662,86.6420182" transform="matrix(1 0 0 -1 0 416)"/>
    <g transform="translate(45 21)">
      <g transform="translate(52)">
        <mask id="main-service1-b" fill="#fff">
          <use xlink:href="#main-service1-a"/>
        </mask>
        <path fill="#FFF" d="M219.338842,257.062325 C210.628579,257.062325 202.982132,250.893825 201.157362,242.392908 L194.929697,213.387742 L318.628678,213.387742 C324.691342,213.387742 329.623974,208.465075 329.623974,202.414658 L329.623974,11.4544083 C329.623974,5.40399167 324.691342,0.481325 318.628678,0.481325 L11.5539079,0.481325 C5.49124342,0.481325 0.558611842,5.40399167 0.558611842,11.4544083 L0.558611842,202.414658 C0.558611842,208.465075 5.49124342,213.387742 11.5539079,213.387742 L135.252888,213.387742 L129.024138,242.393992 C127.200454,250.893825 119.554007,257.062325 110.843743,257.062325 L77.9664079,257.062325 C77.3411447,257.062325 76.8342039,257.569325 76.8342039,258.192242 C76.8342039,258.815158 77.3411447,259.322158 77.9664079,259.322158 L224.564566,259.322158 L219.338842,257.062325 Z" mask="url(#main-service1-b)"/>
      </g>
      <path fill="#F7F7F7" d="M361.734651,11 L343.202867,11 L73.2653486,11 C68.1696243,11 64,15.0294278 64,19.9562107 L64,174 L352.469303,174 L371,174 L371,19.9562107 C371,15.0294278 366.830376,11 361.734651,11"/>
      <g transform="translate(52)">
        <mask id="main-service1-d" fill="#fff">
          <use xlink:href="#main-service1-c"/>
        </mask>
        <path fill="#121212" d="M11.5537993,211.127475 C6.73949013,211.127475 2.82291118,207.218808 2.82291118,202.414225 L2.82291118,183.857808 L327.359457,183.857808 L327.359457,202.414225 C327.359457,207.218808 323.441793,211.127475 318.628569,211.127475 L11.5537993,211.127475 Z M198.943865,242.868058 C199.577812,245.822308 200.832681,248.552308 202.675905,250.982225 L207.28722,257.061892 L122.894062,257.061892 L127.505378,250.982225 C129.348602,248.553392 130.605641,245.822308 131.240674,242.866975 L137.570378,213.387308 L192.613076,213.387308 L198.943865,242.868058 Z M2.82291118,11.4550583 C2.82291118,6.650475 6.73949013,2.74180833 11.5537993,2.74180833 L318.628569,2.74180833 C323.441793,2.74180833 327.359457,6.650475 327.359457,11.4550583 L327.359457,181.597975 L2.82291118,181.597975 L2.82291118,11.4550583 Z M219.338734,257.061892 C210.62847,257.061892 202.982023,250.893392 201.157253,242.392475 L194.929589,213.387308 L318.628569,213.387308 C324.691234,213.387308 329.623865,208.464642 329.623865,202.414225 L329.623865,11.4550583 C329.623865,5.40464167 324.691234,0.481975 318.628569,0.481975 L11.5537993,0.481975 C5.49113487,0.481975 0.558503289,5.40464167 0.558503289,11.4550583 L0.558503289,202.414225 C0.558503289,208.464642 5.49113487,213.387308 11.5537993,213.387308 L135.25278,213.387308 L129.02403,242.393558 C127.200345,250.893392 119.553898,257.061892 110.843635,257.061892 L77.9662993,257.061892 C77.3410362,257.061892 76.8340954,257.568892 76.8340954,258.191808 C76.8340954,258.815808 77.3410362,259.321725 77.9662993,259.321725 L224.565543,259.321725 L219.338734,257.061892 Z" mask="url(#main-service1-d)"/>
      </g>
      <path fill="#0048FA" d="M212.384558,108.404893 L200.43253,96.4528656 L205.408459,91.478026 L212.384558,98.4563029 L229.312514,81.527258 L234.286265,86.5010088 L212.384558,108.404893 Z M242.322879,46 L189.67821,46 C189.665144,59.6233734 178.623373,70.6640549 165,70.6771208 L165,70.9558599 C165,75.2186082 166.020229,128.274853 215.999456,148 C265.98086,128.274853 267,75.2186082 267,70.9558599 L267,70.6771208 C253.376627,70.6640549 242.335945,59.6233734 242.322879,46 L242.322879,46 Z"/>
      <path stroke="#121212" stroke-width="2" d="M212.384558,108.404893 L200.43253,96.4528656 L205.408459,91.478026 L212.384558,98.4563029 L229.312514,81.527258 L234.286265,86.5010088 L212.384558,108.404893 Z M242.322879,46 L189.67821,46 C189.665144,59.6233734 178.623373,70.6640549 165,70.6771208 L165,70.9558599 C165,75.2186082 166.020229,128.274853 215.999456,148 C265.98086,128.274853 267,75.2186082 267,70.9558599 L267,70.6771208 C253.376627,70.6640549 242.335945,59.6233734 242.322879,46 Z"/>
      <path fill="#FFF" d="M189.024105,357.432085 C189.024105,357.432085 165.458389,258.693948 162.67128,250.696975 C162.074817,249.000746 159.623896,247.22618 156.012583,245.46467 C147.770547,241.405254 133.477121,237.325166 121.363498,233.974053 L121.352653,233.964261 C117.953898,233.025297 114.669012,232.14835 111.594516,231.3443 C108.960318,230.653405 106.498552,230.021264 104.288385,229.466372 C103.720119,229.322753 103.170288,229.184574 102.636725,229.050747 C102.437181,229.000698 102.236552,228.949561 102.041346,228.901687 C101.352702,228.730868 100.694424,228.567664 100.074102,228.414253 C99.5004131,228.27281 98.9581739,228.142247 98.4376243,228.012772 C97.9279194,227.892002 97.4507489,227.772319 97.0061128,227.663517 C94.8046216,227.130385 93.5357819,226.837707 93.5357819,226.837707 C88.0374764,221.603226 60.8496029,221.723996 40.4505642,227.196755 C27.7621669,230.602268 17.6873626,236.085907 17.1115046,243.668343 C15.5943193,263.417058 30.0612611,267.648382 30.0612611,267.648382 L103.534673,267.648382 L111.147711,267.648382 C97.0278024,286.253585 97.949609,360.086862 97.949609,360.086862 L97.1590242,361.607919 C107.174182,364.584752 101.816859,379.356847 106.481201,386.843537 C107.116705,387.481119 108.929953,388.536502 109.70427,389 C106.272981,380.905105 107.734858,367.120935 108.059117,363.570714 C111.008898,355.781553 132.639904,298.31215 139.203167,270.41305 L139.214012,270.41305 C140.146664,271.521746 140.417783,272.522727 140.417783,272.522727 C141.170411,303.342082 174.16892,353.181177 178.38971,359.428608 C178.38971,359.428608 178.755179,359.96718 178.808318,360.043341 L178.830008,360.065102 C178.840853,360.07707 178.840853,360.086862 178.840853,360.086862 L179.821221,359.832265 C186.810685,362.126906 189.457896,371.803788 195.96802,376.70207 C197.645708,377.711756 199.322312,378.014226 201,377.910864 C193.905342,370.910521 189.024105,357.432085 189.024105,357.432085"/>
      <path stroke="#171717" d="M189.024105,357.432085 C189.024105,357.432085 165.458389,258.693948 162.67128,250.696975 C162.074817,249.000746 159.623896,247.22618 156.012583,245.46467 C147.770547,241.405254 133.477121,237.325166 121.363498,233.974053 L121.352653,233.964261 C117.953898,233.025297 114.669012,232.14835 111.594516,231.3443 C108.960318,230.653405 106.498552,230.021264 104.288385,229.466372 C103.720119,229.322753 103.170288,229.184574 102.636725,229.050747 C102.437181,229.000698 102.236552,228.949561 102.041346,228.901687 C101.352702,228.730868 100.694424,228.567664 100.074102,228.414253 C99.5004131,228.27281 98.9581739,228.142247 98.4376243,228.012772 C97.9279194,227.892002 97.4507489,227.772319 97.0061128,227.663517 C94.8046216,227.130385 93.5357819,226.837707 93.5357819,226.837707 C88.0374764,221.603226 60.8496029,221.723996 40.4505642,227.196755 C27.7621669,230.602268 17.6873626,236.085907 17.1115046,243.668343 C15.5943193,263.417058 30.0612611,267.648382 30.0612611,267.648382 L103.534673,267.648382 L111.147711,267.648382 C97.0278024,286.253585 97.949609,360.086862 97.949609,360.086862 L97.1590242,361.607919 C107.174182,364.584752 101.816859,379.356847 106.481201,386.843537 C107.116705,387.481119 108.929953,388.536502 109.70427,389 C106.272981,380.905105 107.734858,367.120935 108.059117,363.570714 C111.008898,355.781553 132.639904,298.31215 139.203167,270.41305 L139.214012,270.41305 C140.146664,271.521746 140.417783,272.522727 140.417783,272.522727 C141.170411,303.342082 174.16892,353.181177 178.38971,359.428608 C178.38971,359.428608 178.755179,359.96718 178.808318,360.043341 L178.830008,360.065102 C178.840853,360.07707 178.840853,360.086862 178.840853,360.086862 L179.821221,359.832265 C186.810685,362.126906 189.457896,371.803788 195.96802,376.70207 C197.645708,377.711756 199.322312,378.014226 201,377.910864 C193.905342,370.910521 189.024105,357.432085 189.024105,357.432085 Z"/>
      <path fill="#00388B" d="M28.4318304,265.830635 C28.4318304,265.830635 47.9164642,266.844085 70,268 L29.2118301,268 C29.2118301,268 14.5761395,263.801577 16.1131009,244.212536 C16.1668562,243.457036 16.3215397,242.712329 16.5727632,242 C14.3457598,260.984641 28.4318304,265.830635 28.4318304,265.830635"/>
      <path stroke="#171717" d="M28.4318304,265.830635 C28.4318304,265.830635 47.9164642,266.844085 70,268 L29.2118301,268 C29.2118301,268 14.5761395,263.801577 16.1131009,244.212536 C16.1668562,243.457036 16.3215397,242.712329 16.5727632,242 C14.3457598,260.984641 28.4318304,265.830635 28.4318304,265.830635 Z"/>
      <path fill="#00388B" d="M71,224.030191 C61.2186613,224.199057 49.8929006,225.558475 40.1115619,228.097825 C28.578783,231.082173 19.2016227,235.712691 17,242 C17.0109533,241.80777 17.0438134,241.607043 17.0657201,241.404193 C18.040568,234.034659 28.4900609,229.212973 41.4807302,226.557859 C50.8567951,224.634495 61.5801217,223.828403 71,224.030191"/>
      <path stroke="#171717" d="M71,224.030191 C61.2186613,224.199057 49.8929006,225.558475 40.1115619,228.097825 C28.578783,231.082173 19.2016227,235.712691 17,242 C17.0109533,241.80777 17.0438134,241.607043 17.0657201,241.404193 C18.040568,234.034659 28.4900609,229.212973 41.4807302,226.557859 C50.8567951,224.634495 61.5801217,223.828403 71,224.030191 Z"/>
      <path fill="#0A0A0A" d="M120.342976,234.069887 C105.562774,229.928705 92.5175924,226.864011 92.5175924,226.864011 C91.4451332,225.831462 89.5246829,224.996635 86.9872162,224.381499 C82.8491935,223.365427 77.0455516,222.916158 70.5381423,223.012822 C70.2833112,223.016118 70.0339021,223.015019 69.7758179,223.019413 C69.8224465,223.020511 69.8679908,223.022708 69.9146195,223.023807 C60.2440518,223.219332 49.0911264,224.615471 39.4476683,227.2276 C26.7494908,230.664671 16.6863748,236.200893 16.1116494,243.857136 C14.5935069,263.795223 29.0592361,268.067121 29.0592361,268.067121 L110.138889,268.067121 L118.727238,268.067121 L131.457947,268.067121 C132.520647,268.067121 137.354847,270.792392 138.157293,271 C138.157293,271 150.781733,264.057754 155,245.670688 C146.748896,241.572346 132.455584,237.453134 120.342976,234.069887"/>
      <path fill="#0E1C63" d="M104,101.583205 L84.659999,129 L82,125.071228 C82.1949795,124.973606 82.301728,124.929133 82.301728,124.929133 C83.9062237,124.196963 85.4584344,123.004881 86.6457395,121.124017 C90.7174333,114.651632 88.358073,113.176444 84.8114076,111.411642 C81.263653,109.644671 82.4433332,104.646389 85.1033322,104.347013 C87.7644205,104.055229 90.1314057,110.236916 90.1314057,110.236916 C90.1314057,110.236916 92.1977521,109.945132 92.490766,102.581126 C92.7914047,95.2257977 99.9827697,93 99.9827697,93 C99.9827697,93 102.324702,96.0469131 104,101.583205"/>
      <path stroke="#171717" d="M104,101.583205 L84.659999,129 L82,125.071228 C82.1949795,124.973606 82.301728,124.929133 82.301728,124.929133 C83.9062237,124.196963 85.4584344,123.004881 86.6457395,121.124017 C90.7174333,114.651632 88.358073,113.176444 84.8114076,111.411642 C81.263653,109.644671 82.4433332,104.646389 85.1033322,104.347013 C87.7644205,104.055229 90.1314057,110.236916 90.1314057,110.236916 C90.1314057,110.236916 92.1977521,109.945132 92.490766,102.581126 C92.7914047,95.2257977 99.9827697,93 99.9827697,93 C99.9827697,93 102.324702,96.0469131 104,101.583205 Z"/>
      <path fill="#FFF" d="M104.862501,116.678331 C103.691302,131.561602 96.6478865,130.071082 90.485844,127.990495 L87.9336466,135 C84.5087276,134.856322 81.1367991,134.83987 78.0546963,134.883742 C77.7637891,132.276701 78.5921718,129.303337 81.5326059,125.429519 C81.7261836,125.330809 81.8321647,125.285841 81.8321647,125.285841 C83.4251251,124.544419 84.9661765,123.339061 86.1449456,121.437249 C90.1873666,114.892777 87.8449686,113.402256 84.3238014,111.616702 C80.8015528,109.830052 81.9727518,104.776101 84.6136272,104.47339 C87.255584,104.179454 89.6055522,110.428892 89.6055522,110.428892 C89.6055522,110.428892 91.657043,110.133859 91.9479502,102.687836 C92.2464275,95.2505876 99.3871729,93 99.3871729,93 C99.3871729,93 101.711186,96.0808482 103.37444,101.678801 C104.519685,105.544942 105.337253,110.597796 104.862501,116.678331"/>
      <path stroke="#171717" d="M104.862501,116.678331 C103.691302,131.561602 96.6478865,130.071082 90.485844,127.990495 L87.9336466,135 C84.5087276,134.856322 81.1367991,134.83987 78.0546963,134.883742 C77.7637891,132.276701 78.5921718,129.303337 81.5326059,125.429519 C81.7261836,125.330809 81.8321647,125.285841 81.8321647,125.285841 C83.4251251,124.544419 84.9661765,123.339061 86.1449456,121.437249 C90.1873666,114.892777 87.8449686,113.402256 84.3238014,111.616702 C80.8015528,109.830052 81.9727518,104.776101 84.6136272,104.47339 C87.255584,104.179454 89.6055522,110.428892 89.6055522,110.428892 C89.6055522,110.428892 91.657043,110.133859 91.9479502,102.687836 C92.2464275,95.2505876 99.3871729,93 99.3871729,93 C99.3871729,93 101.711186,96.0808482 103.37444,101.678801 C104.519685,105.544942 105.337253,110.597796 104.862501,116.678331 Z"/>
      <path fill="#F7F7F7" d="M112.807477,286 L22.1925227,286 C18.7722658,286 16,283.328849 16,280.033341 L16,273.966659 C16,270.671151 18.7722658,268 22.1925227,268 L112.807477,268 C116.227734,268 119,270.671151 119,273.966659 L119,280.033341 C119,283.328849 116.227734,286 112.807477,286"/>
      <path stroke="#171717" d="M112.807477,286 L22.1925227,286 C18.7722658,286 16,283.328849 16,280.033341 L16,273.966659 C16,270.671151 18.7722658,268 22.1925227,268 L112.807477,268 C116.227734,268 119,270.671151 119,273.966659 L119,280.033341 C119,283.328849 116.227734,286 112.807477,286 Z"/>
      <path fill="#0A0A0A" d="M206.758473 380.69072C205.110603 379.971367 203.503681 378.788431 201.970908 377.336937 200.259956 377.437113 198.547898 377.141912 196.836947 376.15187 189.720894 371.014092 187.38466 361.275652 179.117643 360L178.788955 360.080994 176 368.269894C176 368.269894 175.883879 371.613019 184.406542 373.032542L191.379831 381.168157C191.379831 381.168157 193.116236 385.22957 198.325453 384.989785 203.534669 384.752133 207.379329 384.452669 207.379329 384.452669 207.379329 384.452669 211.409915 382.720893 206.758473 380.69072M110.381997 388.255918C109.625979 387.782206 108.902694 387.243998 108.283942 386.592366 103.742556 378.941807 107.033768 363.042432 97.282617 360L92.2016708 364.988432C92.2016708 364.988432 90.5059104 367.988607 96.9489555 373.416279L98.8875708 384.233814C98.8875708 384.233814 98.3976376 388.786342 102.866167 391.093742 107.332585 393.40003 110.688205 394.991302 110.688205 394.991302 110.688205 394.991302 114.885371 395.36271 111.969001 391.251646 111.353417 390.384286 110.830751 389.367918 110.381997 388.255918"/>
      <polygon fill="#0A0A0A" points="178 371 183.416 385 186 385 183.181 372.679"/>
      <polygon fill="#0A0A0A" points="91 369 91 386.275 93.05 387 95 372.444"/>
      <path fill="#FFF" d="M194.539849,127.834076 C194.822908,127.433528 194.794497,127.056417 194.350441,126.606866 C193.966365,126.216971 193.529675,126.211645 193.182428,126.303259 C193.504421,125.885667 193.489689,125.495772 193.027745,125.028112 C192.498456,124.492273 191.873411,124.677632 191.517745,124.8566 C191.929181,124.396397 191.947069,123.982 191.446191,123.474924 C190.659097,122.679155 189.649976,123.474924 189.649976,123.474924 L183.841475,126.966933 L188.133662,120.51982 L193.853772,116.118057 C196.442343,112.505672 192.480567,114.608547 192.480567,114.608547 L186.000722,118.246499 L179.686083,126.073157 L179.594536,126.020958 L179.5314,126.262778 L179.488257,126.316043 L179.514564,126.332022 L176,139.862223 C176,139.862223 178.773769,147.083798 183.386897,144.403538 C190.049836,140.530157 191.46408,132.756763 191.46408,132.756763 L194.1221,130.105266 L194.495654,133.552532 C195.206985,134.840463 195.880434,133.552532 195.880434,133.552532 C195.880434,133.552532 196.592817,128.173902 194.539849,127.834076"/>
      <path stroke="#171717" d="M194.539849,127.834076 C194.822908,127.433528 194.794497,127.056417 194.350441,126.606866 C193.966365,126.216971 193.529675,126.211645 193.182428,126.303259 C193.504421,125.885667 193.489689,125.495772 193.027745,125.028112 C192.498456,124.492273 191.873411,124.677632 191.517745,124.8566 C191.929181,124.396397 191.947069,123.982 191.446191,123.474924 C190.659097,122.679155 189.649976,123.474924 189.649976,123.474924 L183.841475,126.966933 L188.133662,120.51982 L193.853772,116.118057 C196.442343,112.505672 192.480567,114.608547 192.480567,114.608547 L186.000722,118.246499 L179.686083,126.073157 L179.594536,126.020958 L179.5314,126.262778 L179.488257,126.316043 L179.514564,126.332022 L176,139.862223 C176,139.862223 178.773769,147.083798 183.386897,144.403538 C190.049836,140.530157 191.46408,132.756763 191.46408,132.756763 L194.1221,130.105266 L194.495654,133.552532 C195.206985,134.840463 195.880434,133.552532 195.880434,133.552532 C195.880434,133.552532 196.592817,128.173902 194.539849,127.834076 Z"/>
      <path fill="#FFF" d="M176.059683,140.627577 L176.059683,140.615655 L175.864148,140.540869 C165.077107,166.04269 151.259267,180.38306 148.391413,183.190222 C148.043795,183.525131 147.859122,183.698546 147.859122,183.698546 C147.859122,183.698546 147.663587,183.384231 147.295328,182.821715 L147.295328,182.810876 C147.000939,182.366499 146.609868,181.758461 146.121029,181.02253 C145.958083,180.761323 145.77341,180.480606 145.567012,180.176046 C145.52356,180.112099 145.49097,180.045984 145.447518,179.982037 C145.122712,179.493222 144.774007,178.97406 144.404662,178.409376 C144.013591,177.824099 143.589931,177.18463 143.144545,176.523484 C142.851241,176.08019 142.536212,175.624975 142.221183,175.148083 C141.906153,174.670106 141.580261,174.183459 141.243505,173.695728 C140.743803,172.946791 140.211512,172.167505 139.657495,171.375214 C139.483686,171.116174 139.299013,170.845213 139.114341,170.574251 C138.886216,170.237175 138.647229,169.891428 138.408241,169.544597 C138.256158,169.349505 138.125801,169.143574 137.984581,168.936559 C137.213302,167.83212 136.420297,166.70492 135.605566,165.556043 C135.41003,165.273159 135.203631,164.981604 134.997233,164.699804 C134.595299,164.125365 134.182502,163.549843 133.758842,162.964566 C133.139646,162.098573 132.509587,161.231496 131.868665,160.364419 C131.662267,160.070696 131.445005,159.779142 131.227743,159.496258 C130.804083,158.922903 130.36956,158.348465 129.9459,157.783781 C129.826406,157.622288 129.706912,157.458627 129.598281,157.307972 C129.131169,156.689096 128.664056,156.072387 128.196944,155.46435 C127.708105,154.835719 127.230129,154.21901 126.752154,153.610972 C126.112318,152.808926 125.481173,152.018802 124.861977,151.26011 C124.438317,150.750702 124.02552,150.252133 123.623586,149.764402 C123.417187,149.525956 123.221652,149.275587 123.015253,149.049063 C122.808855,148.810617 122.613319,148.571087 122.406921,148.343479 C121.809451,147.660656 121.223931,147.000594 120.647101,146.382801 C120.277757,145.97094 119.908412,145.579671 119.539067,145.211163 C118.615705,144.258462 117.746659,143.422817 116.921064,142.729155 C116.768981,142.599094 116.607121,142.469032 116.443089,142.338971 C115.660947,141.711424 114.93312,141.223693 114.292198,140.909377 C113.966306,140.649254 113.619774,140.410808 113.249343,140.194039 C108.208872,137.190701 100.040921,135.825054 91.8273445,135.293969 C90.8605302,135.230023 89.8937159,135.17583 88.9377647,135.132476 C88.6227353,135.121638 88.3077059,135.109716 87.9926765,135.098877 C84.8858351,134.991576 81.833309,134.980738 79.0197707,135.023008 C70.8507329,135.164992 64.6696392,135.7817 64.6696392,135.7817 C64.6696392,135.7817 28.4195341,194.017847 25.7689421,209.851758 C23.107487,225.686753 16.0356205,223.422598 15.0905323,228.419129 C14.384432,232.146477 18.0344276,231.638153 18.2299631,233.425415 C18.3060047,234.043208 17.9692491,234.933046 16.9155301,236.362639 C12.798422,241.944448 16.9155301,244.015678 16.9155301,244.015678 C21.8365064,244.383102 22.3796605,250.919779 36.3713102,249.890125 C45.202996,249.239817 50.5259063,247.547933 66.1470184,234.595969 C81.7789936,221.655928 93.478533,227.248575 93.478533,227.248575 C92.5117187,220.191652 89.4374665,224.602906 86.7868744,216.658313 C84.1254193,208.724558 90.3173761,201.950518 102.70129,191.069785 C105.188936,188.880415 107.633129,185.845646 109.860061,182.323145 C111.304851,184.165684 112.966902,185.8554 114.7919,187.361947 C133.422086,202.688618 146.805403,213.938942 161.046904,200.758287 C168.368621,193.984248 174.245549,180.403653 178.351794,168.265658 C182.653574,155.48711 185,144.290978 185,144.290978 L176.059683,140.627577 Z"/>
      <path stroke="#171717" d="M176.059683,140.627577 L176.059683,140.615655 L175.864148,140.540869 C165.077107,166.04269 151.259267,180.38306 148.391413,183.190222 C148.043795,183.525131 147.859122,183.698546 147.859122,183.698546 C147.859122,183.698546 147.663587,183.384231 147.295328,182.821715 L147.295328,182.810876 C147.000939,182.366499 146.609868,181.758461 146.121029,181.02253 C145.958083,180.761323 145.77341,180.480606 145.567012,180.176046 C145.52356,180.112099 145.49097,180.045984 145.447518,179.982037 C145.122712,179.493222 144.774007,178.97406 144.404662,178.409376 C144.013591,177.824099 143.589931,177.18463 143.144545,176.523484 C142.851241,176.08019 142.536212,175.624975 142.221183,175.148083 C141.906153,174.670106 141.580261,174.183459 141.243505,173.695728 C140.743803,172.946791 140.211512,172.167505 139.657495,171.375214 C139.483686,171.116174 139.299013,170.845213 139.114341,170.574251 C138.886216,170.237175 138.647229,169.891428 138.408241,169.544597 C138.256158,169.349505 138.125801,169.143574 137.984581,168.936559 C137.213302,167.83212 136.420297,166.70492 135.605566,165.556043 C135.41003,165.273159 135.203631,164.981604 134.997233,164.699804 C134.595299,164.125365 134.182502,163.549843 133.758842,162.964566 C133.139646,162.098573 132.509587,161.231496 131.868665,160.364419 C131.662267,160.070696 131.445005,159.779142 131.227743,159.496258 C130.804083,158.922903 130.36956,158.348465 129.9459,157.783781 C129.826406,157.622288 129.706912,157.458627 129.598281,157.307972 C129.131169,156.689096 128.664056,156.072387 128.196944,155.46435 C127.708105,154.835719 127.230129,154.21901 126.752154,153.610972 C126.112318,152.808926 125.481173,152.018802 124.861977,151.26011 C124.438317,150.750702 124.02552,150.252133 123.623586,149.764402 C123.417187,149.525956 123.221652,149.275587 123.015253,149.049063 C122.808855,148.810617 122.613319,148.571087 122.406921,148.343479 C121.809451,147.660656 121.223931,147.000594 120.647101,146.382801 C120.277757,145.97094 119.908412,145.579671 119.539067,145.211163 C118.615705,144.258462 117.746659,143.422817 116.921064,142.729155 C116.768981,142.599094 116.607121,142.469032 116.443089,142.338971 C115.660947,141.711424 114.93312,141.223693 114.292198,140.909377 C113.966306,140.649254 113.619774,140.410808 113.249343,140.194039 C108.208872,137.190701 100.040921,135.825054 91.8273445,135.293969 C90.8605302,135.230023 89.8937159,135.17583 88.9377647,135.132476 C88.6227353,135.121638 88.3077059,135.109716 87.9926765,135.098877 C84.8858351,134.991576 81.833309,134.980738 79.0197707,135.023008 C70.8507329,135.164992 64.6696392,135.7817 64.6696392,135.7817 C64.6696392,135.7817 28.4195341,194.017847 25.7689421,209.851758 C23.107487,225.686753 16.0356205,223.422598 15.0905323,228.419129 C14.384432,232.146477 18.0344276,231.638153 18.2299631,233.425415 C18.3060047,234.043208 17.9692491,234.933046 16.9155301,236.362639 C12.798422,241.944448 16.9155301,244.015678 16.9155301,244.015678 C21.8365064,244.383102 22.3796605,250.919779 36.3713102,249.890125 C45.202996,249.239817 50.5259063,247.547933 66.1470184,234.595969 C81.7789936,221.655928 93.478533,227.248575 93.478533,227.248575 C92.5117187,220.191652 89.4374665,224.602906 86.7868744,216.658313 C84.1254193,208.724558 90.3173761,201.950518 102.70129,191.069785 C105.188936,188.880415 107.633129,185.845646 109.860061,182.323145 C111.304851,184.165684 112.966902,185.8554 114.7919,187.361947 C133.422086,202.688618 146.805403,213.938942 161.046904,200.758287 C168.368621,193.984248 174.245549,180.403653 178.351794,168.265658 C182.653574,155.48711 185,144.290978 185,144.290978 L176.059683,140.627577 Z"/>
      <g transform="translate(0 78)">
        <mask id="main-service1-f" fill="#fff">
          <use xlink:href="#main-service1-e"/>
        </mask>
        <path fill="#0A0A0A" d="M104.355709,23.9900917 L104.355709,23.9998417 C102.68588,18.469425 100.351594,15.427425 100.351594,15.427425 C100.351594,15.427425 93.1837086,17.6493417 92.8840514,24.9965083 C92.5919943,32.3512583 90.5323943,32.6415917 90.5323943,32.6415917 C90.5323943,32.6415917 88.1731371,26.4687583 85.5207371,26.760175 C82.8694229,27.059175 81.6935943,32.0500917 85.2297657,33.8148417 C88.7648514,35.5785083 91.1165086,37.0518417 87.0581086,43.5150083 C85.87468,45.3945917 84.3275371,46.5840917 82.72828,47.316425 C82.72828,47.316425 82.62188,47.3608417 82.4275371,47.4583417 C76.6993086,54.866175 78.9619371,58.957925 81.8792514,63.5090083 C84.3535943,67.3895083 87.2969657,71.6047583 86.1841086,78.5012583 C83.7531943,93.4935083 73.8102229,92.1707583 67.6227371,99.225425 C61.4363371,106.281175 80.1453657,114.504758 66.7400514,125.683675 C50.6085086,139.132175 42.6545657,125.462675 37.7927371,127.006425 C32.9319943,128.550175 34.9210229,137.368508 24.31468,141.292342 C13.7083371,145.217258 -2.86400571,136.707675 0.423537143,119.660342 C3.39405143,104.270508 18.34868,104.517508 14.3706229,100.549258 C10.3936514,96.579925 4.20725143,88.201425 13.2664514,80.264925 C22.3256514,72.3273417 32.18068,73.7205083 34.2587371,69.9732583 C37.7221657,63.7300083 26.0116514,59.0987583 33.37388,48.957675 C39.7557086,40.172925 52.8537657,40.4990083 55.4703371,35.401925 C59.29748,27.9410083 50.72468,16.5205083 63.8661657,8.83100833 C76.6830229,1.33434167 79.3343371,6.84634167 90.8863371,6.405425 C102.437251,5.963425 106.971194,-4.04549167 111.373766,2.87809167 C117.886966,13.1340083 104.355709,23.9900917 104.355709,23.9900917" mask="url(#main-service1-f)"/>
      </g>
      <g transform="translate(106 168)">
        <path fill="#FFF" d="M4.0956,14.0051786 C4.0956,14.0051786 1.1296,7.51553571 0.6196,0.628392857"/>
        <path stroke="#171717" stroke-linecap="round" d="M4.0956,14.0051786 C4.0956,14.0051786 1.1296,7.51553571 0.6196,0.628392857"/>
      </g>
    </g>
  </g>
</svg>
