<svg height="72" viewBox="0 0 110 72" width="110" xmlns="http://www.w3.org/2000/svg" xmlns:xlink="http://www.w3.org/1999/xlink"><mask id="a" fill="#fff"><path d="m0 0h74.763v42.498h-74.763z" fill="#fff" fill-rule="evenodd"/></mask><g fill="#0049f8" fill-rule="evenodd"><path d="m14.73 39.411-11.67-4.01 11.041-32.334 11.356 3.898.27.135.044.023-11.041 32.287zm59.134-25.37-27.716-9.6c-2.625-.9-5.565-.72-8.079.497l-1.391.676c-1.885.923-4.107 1.058-6.082.337l-2.379-.856c-.112-.068-.224-.135-.336-.18l-14.183-4.845c-.337-.112-.719-.09-1.033.068s-.56.428-.673.766l-11.917 34.902c-.247.699.135 1.465.83 1.713l14.206 4.89c.157.067.292.09.45.09.201 0 .403-.046.583-.136.314-.158.56-.428.673-.766l11.468-33.573 1.436.519c2.648.946 5.633.766 8.169-.474l1.391-.676c1.863-.923 4.062-1.059 6.015-.383l26.683 9.238c-.202 1.172-.763 3.11-2.222 4.124-1.301.901-3.187.946-5.565.112l-11.648-3.988c-.359-.112-.74-.09-1.077.09-.336.18-.56.496-.673.857-.023.067-1.75 6.466-7.137 9.35-3.41 1.848-7.63 1.916-12.545.226-.695-.248-1.458.135-1.705.833-.247.699.134 1.465.83 1.713 2.626.901 5.117 1.352 7.428 1.352 2.649 0 5.072-.586 7.272-1.78 4.802-2.591 7.114-7.323 7.989-9.667l10.346 3.56c3.254 1.127 5.924.97 7.989-.45 3.321-2.298 3.478-7.03 3.5-7.233.023-.586-.358-1.126-.897-1.307z" mask="url(#a)"/><path d="m95.764 39.869-14.935-30.5 11.06-5.393 14.913 30.5zm14.106-5.46-16.166-32.827c-.157-.313-.426-.56-.762-.671-.336-.112-.716-.09-1.03.067l-13.457 6.578c-.671.336-.94 1.12-.627 1.79l15.674 32-5.262 4.81c-4.456 4.096-9.494 7.52-14.935 10.182l-25.771 12.598c-.717.358-1.523.403-2.284.135-.762-.269-1.366-.806-1.724-1.522-.359-.716-.403-1.522-.135-2.282.269-.761.806-1.365 1.523-1.724l14.397-7.048c.672-.336.94-1.12.627-1.79-.336-.672-1.142-.94-1.791-.627l-14.084 6.892-7.098 3.469c-1.478.716-3.291.111-4.008-1.365-.716-1.477-.112-3.267 1.366-4.006l20.69-10.114c.67-.336.94-1.119.626-1.79-.336-.671-1.142-.94-1.791-.627l-15.316 7.496-5.373 2.618-2.53 1.231c-1.478.716-3.292.112-4.009-1.365-.716-1.477-.112-3.29 1.366-4.005l2.553-1.253 18.517-9.063c.672-.336.94-1.119.627-1.79-.336-.672-1.142-.94-1.791-.627l-11.89 5.818-6.627 3.245c-.717.358-1.523.403-2.284.134-.762-.268-1.366-.805-1.724-1.522-.359-.716-.403-1.52-.135-2.282.269-.76.806-1.365 1.523-1.723l9.83-4.811c.671-.336.94-1.119.626-1.79-.336-.671-1.142-.94-1.79-.627l-9.83 4.811c-1.366.672-2.396 1.835-2.889 3.267s-.403 2.977.269 4.341c.515 1.075 1.366 1.925 2.396 2.484-1.702 1.679-2.217 4.297-1.12 6.534.985 2.014 3 3.178 5.105 3.178.246 0 .493-.022.739-.045-.18 1.119-.045 2.305.493 3.424.985 2.014 3 3.177 5.105 3.177.828 0 1.68-.179 2.485-.581l2.44-1.209c-.111 1.052.068 2.104.56 3.066.672 1.365 1.837 2.394 3.27 2.887.604.2 1.231.313 1.858.313.85 0 1.702-.201 2.485-.582l25.773-12.598c5.688-2.775 10.905-6.355 15.562-10.63l5.844-5.37 13.278-6.489c.672-.336.94-1.119.627-1.79z"/></g></svg>