<svg height="71" viewBox="0 0 85 71" width="85" xmlns="http://www.w3.org/2000/svg" xmlns:xlink="http://www.w3.org/1999/xlink"><mask id="a" fill="#fff"><path d="m0 71h85v-71h-85z" fill="#fff" fill-rule="evenodd"/></mask><g fill="#0049f8" fill-rule="evenodd"><path d="m70.46 20.47c-4.979 0-9.01-4.03-9.01-9.01 0-4.979 4.11-8.93 9.01-8.93 4.98 0 9.01 4.03 9.01 9.01 0 4.979-4.03 8.93-9.01 8.93m0-20.47c-6.402 0-11.46 5.137-11.46 11.54 0 6.402 5.137 11.46 11.46 11.46 6.324 0 11.54-5.137 11.54-11.54 0-6.402-5.137-11.46-11.54-11.46"/><path d="m70.5 10.74c-1.01 0-1.833-.68-1.833-1.515s.822-1.515 1.833-1.515c1.01 0 1.833.68 1.833 1.515 0 .44.373.796.833.796s.834-.357.834-.796c0-1.457-1.138-2.683-2.667-3.016v-.414c0-.439-.373-.795-.833-.795s-.833.356-.833.795v.414c-1.53.333-2.667 1.559-2.667 3.016 0 1.712 1.57 3.106 3.5 3.106 1.01 0 1.833.679 1.833 1.514s-.822 1.515-1.833 1.515c-1.01 0-1.833-.68-1.833-1.515 0-.44-.373-.795-.834-.795-.46 0-.833.356-.833.795 0 1.458 1.138 2.683 2.667 3.016v.344c0 .439.373.795.833.795s.833-.356.833-.795v-.344c1.53-.333 2.667-1.558 2.667-3.016 0-1.712-1.57-3.105-3.5-3.105m-5.748 13.753c-.397-.563-1.27-.644-1.824-.242l-12.852 10.38-16.579-7c-.397-.16-.873-.08-1.19.161l-17.77 12.874c-.555.403-.713 1.207-.317 1.77.238.403.635.564 1.032.564.238 0 .476-.08.714-.241l17.214-12.473 16.658 7c.397.162.952.081 1.27-.16l13.406-10.782c.555-.403.635-1.288.238-1.851"/><path d="m66.07 68.432h9.22v-35.864h-9.22zm-18.763 0h9.22v-23.027h-9.22zm-18.682 0h9.22v-24.952h-9.22v24.953zm-18.763 0h9.221v-17.41h-9.22v17.41zm73.928 0h-5.934v-37.148c0-.722-.561-1.284-1.283-1.284h-11.786c-.722 0-1.283.562-1.283 1.284v37.148h-4.33v-24.31c0-.723-.561-1.284-1.283-1.284h-11.867c-.721 0-1.283.561-1.283 1.283v24.311h-4.33v-26.236c0-.722-.56-1.284-1.282-1.284h-11.787c-.722 0-1.283.562-1.283 1.284v26.236h-4.33v-18.694c0-.723-.561-1.284-1.283-1.284h-11.866c-.721 0-1.282.561-1.282 1.284v18.694h-6.015c-.723 0-1.283.562-1.283 1.284s.561 1.284 1.283 1.284h82.426c.722 0 1.283-.562 1.283-1.284.08-.722-.48-1.284-1.202-1.284z" mask="url(#a)"/></g></svg>