<svg height="26" viewBox="0 0 120 26" width="120" xmlns="http://www.w3.org/2000/svg" xmlns:xlink="http://www.w3.org/1999/xlink"><mask id="a" fill="#fff"><path d="m0 .609h22.604v24.669h-22.604z" fill="#fff" fill-rule="evenodd"/></mask><mask id="b" fill="#fff"><path d="m.116.184h10.451v14.484h-10.451z" fill="#fff" fill-rule="evenodd"/></mask><g fill="#0049f8" fill-rule="evenodd"><path d="m17.087 13.661h-9.119c.078.97.46 1.79 1.15 2.462.843.745 1.839 1.044 2.988 1.044 1.226 0 2.452-.15 3.678-.522l.384-.075.459 1.939-.307.15c-1.149.447-2.605.67-4.214.67-2.068 0-3.754-.522-5.057-1.64-1.303-1.12-1.915-2.61-1.915-4.476 0-1.79.536-3.281 1.686-4.325 1.226-1.12 2.681-1.64 4.52-1.64 1.609 0 2.988.52 4.138 1.49 1.072 1.045 1.609 2.387 1.609 4.103zm5.489-6.159c-.004-.02-.012-.041-.017-.062-.133-.573-.578-1.148-1.029-1.461l-9.194-5.147c-.536-.298-1.533-.298-2.145 0l-9.118 5.148c-.613.372-1.073 1.118-1.073 1.789v10.293c0 .67.46 1.491 1.073 1.79l9.118 5.146c.612.373 1.609.373 2.145 0l9.194-5.147c.537-.298 1.074-1.118 1.074-1.79v-10.291c0-.089-.01-.177-.028-.267z" mask="url(#a)"/><path d="m11.266 10c-.987 0-1.67.194-2.355.645-.455.387-.759.839-.91 1.355h6c-.077-.516-.38-.968-.836-1.29-.531-.452-1.215-.71-1.899-.71m20.514.632c.755 0 1.734.155 2.713.465l.528.154.98-2.477-.679-.155c-1.13-.387-2.336-.619-3.616-.619-1.96 0-3.542.541-4.823 1.626-1.205 1.083-1.883 2.554-1.883 4.412 0 1.781.603 3.252 1.883 4.337 1.205 1.083 2.863 1.625 4.898 1.625 1.281 0 2.561-.232 3.616-.62l.528-.232-.603-2.477-.602.232c-1.055.31-2.035.465-2.94.465-1.13 0-1.958-.31-2.636-1.007-.678-.62-.98-1.394-.98-2.323 0-1.083.302-1.858.904-2.477.678-.62 1.508-.929 2.713-.929m15.295 5.808c-.529.618-1.208.928-2.114.928-.83 0-1.51-.31-2.037-.929-.529-.62-.755-1.472-.755-2.4 0-1.084.226-1.858.755-2.477.453-.62 1.132-.93 2.037-.93.906 0 1.585.31 2.114.93.528.619.755 1.47.755 2.477 0 .928-.227 1.703-.755 2.4m-2.114-8.439c-1.736 0-3.245.542-4.302 1.703-1.132 1.084-1.66 2.555-1.66 4.258 0 1.859.528 3.252 1.66 4.414 1.057 1.083 2.491 1.625 4.302 1.625 1.812 0 3.32-.542 4.378-1.625 1.132-1.162 1.66-2.633 1.66-4.415 0-1.703-.528-3.174-1.66-4.258-1.057-1.082-2.566-1.702-4.378-1.702m15.225 0c-1.151 0-2.23.362-3.237 1.013v-.796h-2.95v10.783h2.95v-7.237c1.006-.868 1.87-1.303 2.733-1.303.504 0 .864.145 1.08.363.215.288.287.796.287 1.447v6.73h2.95v-7.165c0-1.23-.36-2.17-1.008-2.822-.646-.65-1.582-1.013-2.805-1.013m17.378 9.38-.217-.674-.652.225c-.797.374-1.667.524-2.537.524-.435 0-.652-.224-.796-.3-.218-.224-.29-.523-.29-.973v-5.017h3.912v-2.545h-3.912v-2.62h-2.898v2.62h-2.175v2.545h2.175v5.391c0 1.049.289 1.872.869 2.471.652.599 1.594.973 2.825.973 1.16 0 2.392-.224 3.624-.748l.507-.225zm6.735-5.2c.146-.386.367-.618.66-.928.44-.388 1.027-.62 1.833-.62.513 0 .953.232 1.467.697.22.233.44.542.513.852h-4.473zm2.42-4.18c-1.687 0-3.081.542-4.107 1.626-1.1 1.084-1.613 2.555-1.613 4.335 0 1.859.586 3.33 1.76 4.414 1.172 1.084 2.712 1.625 4.62 1.625 1.393 0 2.64-.232 3.74-.62l.513-.232-.146-.54-.294-1.24-.147-.62-.586.155c-1.1.31-2.126.465-3.08.465s-1.76-.31-2.347-.929c-.513-.465-.807-1.084-.88-1.703h7.847v-1.161c0-1.626-.513-3.02-1.54-4.026-1.027-1.007-2.273-1.549-3.74-1.549zm20.28 0h-3.566l-.149.222-2.748 3.248-2.674-3.175-.149-.295h-3.714l4.68 5.464-4.68 5.536h3.566l.148-.222 2.749-3.248 2.674 3.248.222.222h3.566l-4.679-5.536z"/><path d="m10.415 13.119-.53-1.86-.605.234c-.91.387-1.818.542-2.727.542-.455 0-.681-.232-.833-.31-.151-.232-.302-.542-.302-1.007v-5.19h4.089v-2.633h-4.09v-2.71h-3.028v2.71h-2.273v2.633h2.272v5.577c0 1.085.303 1.937.909 2.557.681.619 1.665 1.006 2.953 1.006 1.212 0 2.5-.232 3.786-.774l.531-.232z" mask="url(#b)" transform="translate(109 5)"/></g></svg>