<svg xmlns="http://www.w3.org/2000/svg" width="105" height="69" viewBox="0 0 105 69">
    <path fill="#0049F8" d="M105 17.81c-.002-1.59-.471-3.202-1.508-4.53l-8.32-10.614C93.78.902 91.66.003 89.54 0c-1.261 0-2.545.322-3.68 1.028L77.748 6.06c-.853.542-2.316.914-3.728.905-1.098.005-2.159-.214-2.859-.56L63.217 2.57c-1.281-.615-2.71-.867-4.146-.87-2.063.01-4.152.516-5.83 1.676l-.928.648c-.74-.369-1.873-.93-3.155-1.567-1.538-.752-3.347-1.055-5.174-1.06-1.65.004-3.3.258-4.749.868l-5.41 2.302c-.881.38-2.282.629-3.673.623-1.391.006-2.79-.243-3.67-.623l-5.416-2.304c-.988-.42-2.044-.6-3.09-.6-1.205 0-2.403.238-3.516.687-1.112.452-2.144 1.12-2.966 2.036l-9.86 11.01C.54 16.61-.003 18.143 0 19.651c-.002 1.799.77 3.603 2.259 4.868l9.197 7.823-4.363 4.539c-1.203 1.251-1.802 2.874-1.802 4.478-.002 1.707.678 3.431 2.025 4.7l.885.839c.834.789 1.837 1.29 2.885 1.558-.526.965-.813 2.022-.811 3.082-.002 1.709.678 3.43 2.022 4.702l-.002-.002.888.842c1.264 1.195 2.902 1.79 4.516 1.789.867 0 1.736-.173 2.552-.513.286 1.158.878 2.26 1.809 3.14l.887.842c1.264 1.195 2.9 1.79 4.516 1.788 1.264.002 2.533-.37 3.626-1.09.32 1.025.868 1.997 1.702 2.787l.887.842c1.261 1.194 2.9 1.79 4.514 1.788 1.72.001 3.455-.672 4.738-2.007l3.856-4.015 5.239 4.835c1.254 1.16 2.864 1.736 4.453 1.733 1.745.004 3.506-.694 4.791-2.065l.837-.893c.722-.774 1.193-1.689 1.466-2.644l2.03 1.868c1.256 1.155 2.863 1.73 4.45 1.728 1.748.002 3.514-.696 4.8-2.068l.832-.893c.96-1.023 1.5-2.29 1.668-3.584.535.137 1.078.23 1.626.23 1.748 0 3.509-.696 4.796-2.067l.834-.893c1.166-1.245 1.746-2.843 1.743-4.418 0-.489-.07-.975-.179-1.456 1.45-.192 2.855-.836 3.924-1.98l.837-.894c1.165-1.246 1.743-2.843 1.743-4.42.002-1.734-.7-3.484-2.083-4.759l-1.564-1.44 14.117-15.562c1.267-1.401 1.852-3.205 1.854-4.98zM12.718 45.145c-.748-.003-1.48-.27-2.051-.81l-.887-.838c-.613-.578-.916-1.347-.919-2.137.003-.741.269-1.465.817-2.035l8.936-9.298c.582-.605 1.36-.908 2.156-.91.746.002 1.475.27 2.051.81l.883.84s.914 1.348.916 2.14c-.002.592-.181 1.169-.528 1.668l-9.645 10.021c-.511.36-1.115.546-1.73.549zm7.137 9.274c-.581.603-1.357.905-2.154.907-.748 0-1.477-.269-2.05-.809l-.888-.84-.003-.002c-.608-.576-.914-1.348-.914-2.138 0-.74.269-1.464.814-2.034 0 0 11.912-12.363 12.012-12.482.57-.546 1.303-.828 2.06-.83.749.002 1.478.268 2.052.81l.887.842c.611.575.914 1.346.917 2.137-.003.741-.271 1.466-.816 2.036L19.855 54.42zm9.763 5.256c-.58.605-1.355.907-2.152.91-.748-.002-1.477-.27-2.051-.81l-.89-.842c-.611-.577-.917-1.347-.917-2.138 0-.66.226-1.302.657-1.836l8.296-8.633c.56-.503 1.261-.769 1.988-.769.748.002 1.477.268 2.051.81l.89.842c.609.575.914 1.346.917 2.136-.003.742-.274 1.467-.817 2.035l-7.972 8.295zm15.763-.91l-5.034 5.237c-.58.604-1.357.907-2.154.909-.748-.001-1.477-.269-2.05-.81l-.888-.841c-.609-.576-.914-1.348-.917-2.138.003-.742.271-1.467.817-2.034l5.031-5.238c.582-.604 1.36-.908 2.156-.909.746.001 1.477.268 2.051.81l.89.841c.609.576.912 1.347.914 2.137-.003.742-.271 1.466-.816 2.035zm43.73-14.21c0 .728-.262 1.44-.792 2.007l-.834.892c-.582.62-1.372.935-2.181.936-.734-.001-1.452-.258-2.022-.784L69.227 34.648l-2.43 2.595L81.84 51.138c.627.578.942 1.363.946 2.165-.004.73-.263 1.442-.792 2.008l-.831.893c-.583.62-1.373.933-2.181.936-.734-.002-1.455-.26-2.02-.783l-14.06-12.96-2.427 2.595L72.95 57.496c.602.574.91 1.34.91 2.124 0 .728-.26 1.44-.788 2.006l-.834.892c-.58.621-1.372.935-2.183.937-.736-.002-1.454-.26-2.022-.782L55.582 51.21h-.002l-.002-.002-2.424 2.599.003.002.046.044 6.237 5.739c.552.566.839 1.292.84 2.042-.001.725-.258 1.434-.787 1.999l-.834.893c-.582.621-1.37.933-2.176.935-.734-.002-1.452-.259-2.02-.783l-5.43-5.013c.473-.925.736-1.928.736-2.934.003-1.707-.677-3.428-2.022-4.7l-.89-.842c-1.261-1.193-2.897-1.79-4.511-1.787-.126 0-.252.029-.375.036 0-.03.007-.06.007-.09.003-1.708-2.022-4.703-2.022-4.703l-.888-.84c-.944-.892-2.095-1.448-3.293-1.672.247-.697.387-1.423.387-2.15 0-1.707-.678-3.43-2.022-4.7l-.888-.842c-1.264-1.194-2.9-1.79-4.514-1.789-.188 0-.374.038-.562.055-.051-1.64-.713-3.277-2.002-4.498v-.001l-.885-.839c-1.264-1.195-2.9-1.791-4.514-1.79-1.721-.001-3.455.672-4.737 2.007l-2.11 2.195-9.344-7.947c-.672-.573-1.007-1.365-1.01-2.179.003-.682.235-1.35.732-1.903l9.86-11.01c.39-.438.97-.834 1.647-1.109.678-.274 1.448-.425 2.167-.424.627 0 1.215.113 1.685.315l5.413 2.303c1.526.641 3.298.904 5.078.91 1.783-.006 3.552-.27 5.078-.91l5.411-2.302c.834-.363 2.093-.588 3.344-.583 1.384-.008 2.77.277 3.575.686l1.445.719-5.519 3.867c-1.773 1.244-2.728 3.22-2.726 5.216-.002 1.32.418 2.664 1.272 3.805l-.002-.002.728.976c1.385 1.835 3.543 2.778 5.7 2.782 1.218 0 2.46-.306 3.565-.968l3.3-1.976c.673-.41 1.69-.67 2.74-.665 1.236-.007 2.48.357 3.228.905l9.13 6.526c2.032 1.452 5.342 4.144 7.176 5.838l10.567 9.741c.626.579.94 1.36.943 2.163zm11.385-24.134l-14.078 15.52-6.391-5.89c-2.002-1.844-5.304-4.53-7.518-6.116l-9.128-6.527c-1.547-1.093-3.442-1.565-5.315-1.572-1.594.005-3.2.351-4.586 1.174l-3.298 1.976c-.506.303-1.102.458-1.722.46-1.107.003-2.215-.512-2.833-1.351l-.727-.975-.002-.003c-.387-.52-.567-1.103-.57-1.693.005-.892.418-1.758 1.217-2.32l9.758-6.836c.844-.609 2.344-1.036 3.77-1.025.99-.005 1.937.193 2.584.512l7.944 3.837c1.354.648 2.883.913 4.42.917 1.976-.01 3.973-.438 5.619-1.445l8.115-5.033c.517-.323 1.139-.49 1.787-.49 1.095-.001 2.193.493 2.815 1.301l8.32 10.614c.479.607.757 1.465.757 2.354.001.994-.351 1.972-.938 2.61z"/>
</svg>
