<svg height="114" viewBox="0 0 114 114" width="114" xmlns="http://www.w3.org/2000/svg" xmlns:xlink="http://www.w3.org/1999/xlink"><mask id="a" fill="#fff"><path d="m0 .175h113.825v113.554h-113.825z" fill="#fff" fill-rule="evenodd"/></mask><g fill="#0049f8" fill-rule="evenodd"><path d="m56.913 110.105c-29.38 0-53.28-23.845-53.28-53.153 0-29.31 23.9-53.153 53.28-53.153 29.378 0 53.28 23.844 53.28 53.153 0 29.308-23.902 53.153-53.28 53.153m40.243-93.301c-10.75-10.724-25.041-16.63-40.243-16.63s-29.494 5.906-40.244 16.63c-10.749 10.724-16.669 24.982-16.669 40.148 0 15.165 5.92 29.423 16.67 40.147s25.042 16.63 40.244 16.63 29.493-5.906 40.243-16.63 16.67-24.982 16.67-40.147c0-15.166-5.92-29.424-16.67-40.148" mask="url(#a)" transform="translate(0 .097)"/><path d="m58.512 98.668h-3.199v-19.73l3.199-1.371zm-8.352 2.036c0 1.124.914 2.036 2.041 2.036h9.423c1.127 0 2.04-.912 2.04-2.036 0-.775-.433-1.448-1.071-1.792v-24.436c0-.685-.345-1.323-.918-1.7s-1.298-.441-1.928-.17l-7.262 3.114-.015.007-1.075.46c-1.035.444-1.514 1.642-1.069 2.674.19.44.515.776.906.986v19.065c-.638.344-1.072 1.017-1.072 1.792zm6.753-78.922c1.468 0 6.26.335 6.26 4.644 0 1.479-1.475 4.72-3.354 8.16-1.207 1.388-2.272 2.906-3.179 4.538-2.922-4.768-5.988-10.564-5.988-12.698 0-4.31 4.792-4.644 6.26-4.644m19.328 26.148c2.629-.852 4.468-2.628 5.318-5.136.033-.1.063-.2.093-.3 5.369 2.567 9.74 6.57 12.185 11.174-4.853 2.388-10.86 3.022-16.938 1.792-.072-1.563-.625-3.083-1.649-4.488-.636-.874-1.757-1.79-3.136-2.698.363.017.718.026 1.06.026 1.208 0 2.264-.11 3.067-.37m-6.62 12.864c-1.508 1.093-3.092 1.695-4.46 1.695-1.376 0-2.47-.582-3.342-1.78-1.295-1.78-2.249-8.622-2.677-14.303 5.284 2.16 11.511 5.18 12.808 6.96.86 1.181 1.083 2.381.681 3.668-.41 1.315-1.48 2.65-3.01 3.76m-17.611-.085c-.873 1.198-1.966 1.78-3.343 1.78-1.367 0-2.95-.602-4.458-1.695-1.53-1.11-2.6-2.445-3.01-3.76-.403-1.287-.18-2.487.68-3.668 1.296-1.779 7.524-4.798 12.808-6.96-.428 5.681-1.382 12.524-2.677 14.303m-32.018-7.04c2.444-4.603 6.815-8.608 12.184-11.175.03.101.06.202.094.3.85 2.509 2.689 4.285 5.317 5.137.797.258 1.794.383 3.05.383.339 0 .694-.01 1.06-.028-1.371.904-2.486 1.817-3.12 2.686-1.023 1.406-1.576 2.925-1.648 4.49-6.079 1.23-12.085.595-16.937-1.793m16.364-16.986c.97-2.976 2.8-4.752 4.897-4.752.466 0 .959.083 1.465.247 2.095.679 6.893 5.65 10.586 9.994-3.48.845-9.134 2.07-12.668 2.07-1.06 0-1.575-.115-1.788-.184-1.392-.451-2.28-1.291-2.712-2.568-.443-1.305-.365-3.012.22-4.807m41.012-8.989c-2.749-2.194-7.317-.369-7.317-.369-1.115.45-2.187.968-3.214 1.547.265-.916.42-1.75.42-2.447 0-5.213-4.156-8.715-10.342-8.715s-10.342 3.502-10.342 8.715c0 1.08.367 2.48.95 4.024-1.293-1.03-2.514-1.81-3.543-2.144-.915-.296-1.832-.446-2.727-.446-3.954 0-7.236 2.828-8.778 7.566-.305.933-.508 1.853-.616 2.747-7.658 3.23-13.601 8.85-16.413 15.573-.388.928-.04 2 .821 2.523 4.216 2.562 9.31 3.879 14.676 3.879 2.244 0 4.536-.235 6.83-.7.816 1.717 2.192 3.303 4.037 4.64 2.232 1.618 4.603 2.473 6.858 2.473 2.66 0 5.02-1.228 6.644-3.459.636-.874 1.165-2.22 1.603-3.808.439 1.589.967 2.934 1.603 3.808 1.625 2.23 3.984 3.459 6.644 3.459 2.255 0 4.626-.855 6.858-2.472 1.845-1.338 3.221-2.924 4.037-4.642 2.294.466 4.586.7 6.83.7 5.366 0 10.46-1.317 14.676-3.879.86-.523 1.21-1.594.822-2.522-2.812-6.724-8.755-12.342-16.414-15.573-.107-.894-.311-1.814-.615-2.747-.217-.665-1.154-5.47-3.988-7.73m-.45 7.603c.21.432.398.897.556 1.385.585 1.794.663 3.502.22 4.807-.432 1.277-1.32 2.117-2.712 2.568-2.143.694-9.218-.585-14.83-1.97.884-1.407 1.986-3.228 3.06-5.171 2.275-2.51 5.11-4.5 8.373-5.819 0 0 3.479-1.531 5.333 4.2"/></g></svg>