<svg height="75" viewBox="0 0 89 75" width="89" xmlns="http://www.w3.org/2000/svg"><g fill="#0049f8" fill-rule="evenodd" transform="translate(1)"><path d="m71.959 21.36c-5.196 0-9.402-4.205-9.402-9.401s4.288-9.32 9.402-9.32c5.196 0 9.402 4.206 9.402 9.402s-4.206 9.32-9.402 9.32m0-21.361c-6.68 0-11.959 5.36-11.959 12.041 0 6.68 5.36 11.959 11.959 11.959 6.598 0 12.041-5.36 12.041-12.041 0-6.68-5.36-11.959-12.041-11.959"/><path d="m72.5 11.74c-1.01 0-1.833-.68-1.833-1.515s.822-1.515 1.833-1.515c1.01 0 1.833.68 1.833 1.515 0 .44.373.796.833.796s.834-.357.834-.796c0-1.457-1.138-2.683-2.667-3.016v-.414c0-.439-.373-.795-.833-.795s-.833.356-.833.795v.414c-1.53.333-2.667 1.559-2.667 3.016 0 1.712 1.57 3.106 3.5 3.106 1.01 0 1.833.679 1.833 1.514s-.822 1.515-1.833 1.515c-1.01 0-1.833-.68-1.833-1.515 0-.44-.373-.795-.834-.795-.46 0-.833.356-.833.795 0 1.458 1.138 2.683 2.667 3.016v.344c0 .439.373.795.833.795s.833-.356.833-.795v-.344c1.53-.333 2.667-1.558 2.667-3.016 0-1.712-1.57-3.105-3.5-3.105m-6.753 13.779c-.404-.593-1.294-.678-1.86-.254l-13.103 10.925-16.905-7.369c-.404-.17-.89-.085-1.213.17l-18.118 13.553c-.566.423-.728 1.27-.323 1.863.242.424.647.593 1.051.593.243 0 .485-.085.728-.254l17.552-13.129 16.985 7.37c.405.169.97.084 1.294-.17l13.67-11.35c.566-.424.647-1.355.242-1.948"/><path d="m67.624 71.37h9.438v-36.74h-9.438zm-19.204 0h9.438v-23.59h-9.438zm-19.122 0h9.438v-25.562h-9.438zm-19.204 0h9.438v-17.836h-9.438zm75.667 0h-6.073v-38.055c0-.74-.574-1.315-1.313-1.315h-12.064c-.739 0-1.313.575-1.313 1.315v38.055h-4.432v-24.904c0-.74-.574-1.315-1.313-1.315h-12.146c-.739 0-1.313.575-1.313 1.315v24.904h-4.432v-26.877c0-.74-.574-1.315-1.313-1.315h-12.064c-.738 0-1.313.575-1.313 1.315v26.877h-4.432v-19.15c0-.74-.574-1.316-1.313-1.316h-12.146c-.738 0-1.313.575-1.313 1.315v19.15h-6.155c-.739.001-1.313.577-1.313 1.317 0 .739.574 1.314 1.313 1.314h84.367c.739 0 1.313-.575 1.313-1.315.082-.74-.492-1.315-1.23-1.315z" stroke="#0049f8" stroke-width=".5"/></g></svg>