<svg height="60" viewBox="0 0 63 60" width="63" xmlns="http://www.w3.org/2000/svg"><g fill="#0049f8"><path d="m53.813 51.667c-.216 0-.431-.037-.636-.104l-51.843-17.438c-.746-.253-1.266-.914-1.329-1.687-.057-.772.355-1.506 1.05-1.865l59.063-30.355c.659-.334 1.454-.282 2.053.14.603.423.916 1.141.808 1.864l-7.219 47.794c-.086.568-.425 1.07-.926 1.37-.31.185-.664.28-1.021.28zm-46.867-19.75 45.264 15.225 6.303-41.727-51.568 26.5z"/><path d="m24.663 60c-.206 0-.415-.031-.616-.097-.817-.266-1.367-1.014-1.367-1.86v-17.607c0-.493.19-.973.531-1.335l36.354-38.478c.745-.793 2.005-.833 2.805-.097.801.736.843 1.975.098 2.768l-35.822 37.91v10.874l6.617-8.888c.648-.866 1.89-1.059 2.774-.417.883.639 1.07 1.865.423 2.736l-10.198 13.695c-.383.51-.98.796-1.6.796z"/></g></svg>