<svg height="91" viewBox="0 0 75 91" width="75" xmlns="http://www.w3.org/2000/svg"><g fill="#0049f8"><path d="m73.214 10.664c-4.923 0-8.928-3.987-8.928-8.887 0-.981-.8-1.777-1.786-1.777h-50c-.986 0-1.786.796-1.786 1.777 0 4.9-4.005 8.887-8.928 8.887-.986 0-1.786.796-1.786 1.777v29.005c0 22.604 14.803 42.858 36.987 49.48.167.049.34.074.513.074s.346-.025.513-.075c21.704-6.48 36.987-26.38 36.987-49.48v-29.003c0-.981-.8-1.777-1.786-1.777zm-1.784 30.782c0 21.23-13.611 39.615-33.929 45.918-20.157-6.252-33.93-24.804-33.93-45.918v-27.354c5.467-.781 9.802-5.097 10.588-10.537h46.681c.786 5.44 5.121 9.756 10.588 10.537v27.354z"/><path d="m66.943 18.155c-3.68-1.593-6.594-4.473-8.206-8.11-.281-.635-.915-1.045-1.616-1.045h-12.066c-.974 0-1.764.781-1.764 1.744s.79 1.744 1.764 1.744h10.95c1.864 3.608 4.816 6.525 8.466 8.368v21.84c0 17.07-10.368 30.81-26.471 36.705-16.103-5.896-26.47-19.635-26.47-36.704v-21.84c3.649-1.844 6.6-4.761 8.465-8.369h26.802c.975 0 1.765-.78 1.765-1.744 0-.963-.79-1.744-1.765-1.744h-27.917c-.7 0-1.335.41-1.616 1.044-1.612 3.638-4.526 6.518-8.206 8.111-.642.279-1.057.906-1.057 1.598v22.944c0 18.7 11.702 34.009 29.411 40.203.19.067.39.1.589.1.2 0 .398-.033.589-.1 17.693-6.189 29.41-21.488 29.41-40.203v-22.944c0-.693-.415-1.32-1.057-1.598z"/><path d="m38.5 27c-9.098 0-16.5 7.402-16.5 16.5s7.402 16.5 16.5 16.5 16.5-7.402 16.5-16.5-7.402-16.5-16.5-16.5zm0 29.333c-7.076 0-12.833-5.757-12.833-12.833s5.757-12.833 12.833-12.833 12.833 5.757 12.833 12.833-5.757 12.833-12.833 12.833z"/><path d="m46.447 38.502c-.738-.67-1.934-.67-2.672 0l-8.108 7.36-2.442-2.217c-.738-.67-1.934-.67-2.672 0-.737.67-.737 1.755 0 2.424l3.778 3.43c.369.334.852.501 1.336.501.483 0 .967-.167 1.335-.502l9.445-8.572c.737-.669.737-1.754 0-2.424z"/></g></svg>