<svg xmlns="http://www.w3.org/2000/svg" width="80" height="84" viewBox="0 0 80 84">
    <path fill="#0049F8" stroke="#F6F9FB" stroke-width="2" d="M74.465 24.555c-2.824-3.55-7.325-5.9-12.378-6.552C60.485 8.143 51.923 3 43.692 3H23.81c-2.764 0-5.472.964-7.624 2.713-2.153 1.75-3.664 4.215-4.253 6.931L3.278 51.946c-.78 3.605.1 7.34 2.416 10.246 2.359 2.959 5.86 4.656 9.605 4.656h3.304l-.107.48c-.778 3.482.043 7.079 2.25 9.867 2.208 2.788 5.502 4.387 9.038 4.387 5.36 0 9.984-3.674 11.245-8.934l2.007-8.364c.331-1.382 1.546-2.347 2.954-2.347h5.075c7.353 0 14.063-2.596 18.894-7.308 1.208-1.178 1.241-3.122.074-4.34-1.166-1.22-3.09-1.254-4.298-.076-3.745 3.653-8.818 5.584-14.67 5.584H45.99c-4.224 0-7.869 2.896-8.863 7.042l-2.007 8.364c-.598 2.496-2.793 4.24-5.336 4.24-1.678 0-3.241-.759-4.29-2.082-1.047-1.323-1.436-3.03-1.067-4.683l4.83-21.63h6.331c4.951 0 9.328-.846 13.008-2.515 3.93-1.782 7.094-4.504 9.404-8.088.916-1.421.517-3.323-.89-4.247-1.407-.925-3.29-.523-4.206.898-3.341 5.185-9.167 7.814-17.316 7.814h-4.96l2.701-12.094c.63-2.82 3.069-4.79 5.931-4.79h21.098c.088 0 .175-.003.261-.01 3.797.318 7.138 1.91 9.106 4.384 2.133 2.68 2.719 6.37 1.743 10.966-.352 1.657.694 3.29 2.336 3.645 1.641.355 3.257-.7 3.61-2.359 1.715-8.084-.657-13.215-2.949-16.097zM39.26 17.888c-2.75 0-5.446.955-7.594 2.688-2.147 1.734-3.663 4.18-4.268 6.89-.168.373-7.417 32.807-7.424 33.243H15.3c-1.896 0-3.67-.863-4.868-2.366-1.157-1.45-1.599-3.305-1.215-5.075l8.655-39.302c.606-2.797 3.104-4.827 5.94-4.827h19.88c5.074 0 10.614 2.759 12.162 8.749H39.26z"/>
</svg>
