<svg xmlns="http://www.w3.org/2000/svg" xmlns:xlink="http://www.w3.org/1999/xlink" width="54" height="99" viewBox="0 0 54 99">
    <defs>
        <path id="prefix__a" d="M0 0L54.001 0 54.001 98.043 0 98.043z"/>
    </defs>
    <g fill="none" fill-rule="evenodd">
        <mask id="prefix__b" fill="#fff">
            <use xlink:href="#prefix__a"/>
        </mask>
        <path fill="#0049F8" stroke="#F8F8F8" stroke-width=".5" d="M50.17 62.186c0 2.368-.558 4.737-1.616 6.851l-2.106 4.212c-1.323 2.643-2.022 5.605-2.022 8.565v12.399H13.788v-9.337c0-5.192-1.945-9.996-5.476-13.527-3.588-3.588-5.162-8.706-4.206-13.705l2.806-15.352c.433-1.643 1.928-2.845 3.701-2.845h12.75c2.129 0 3.83 1.732 3.83 3.83 0 2.161-1.754 3.83-3.83 3.83h-5.745c-.616 0-1.194.295-1.554.794-.36.5-.458 1.142-.263 1.726 1.25 3.75-.784 7.818-4.533 9.067-1.004.334-1.546 1.419-1.212 2.422.334 1.003 1.418 1.546 2.422 1.211 4.919-1.639 7.913-6.44 7.48-11.393l3.164.002c-.073 3.353 2.12 6.598 5.677 7.548 2.128.57 4.358.214 6.22-1.019 1.022 2.054 2.81 3.44 4.877 3.993 4.096 1.098 8.293-1.352 9.382-5.415l.893-3.332v9.475zM8.045 36.058V7.66c0-2.112 1.718-3.83 3.83-3.83 2.111 0 3.83 1.718 3.83 3.83v25.715l-.601 2.242h-4.49c-.89 0-1.756.153-2.57.441zm12.4-5.583c.547-2.04 2.652-3.253 4.693-2.707 2.043.546 3.255 2.644 2.707 4.69l-1.062 3.961c-1.045-.521-2.21-.802-3.42-.802h-4.294l1.376-5.142zm10.578 12.802c0-1.374-.376-2.727-1.069-3.899l1.59-5.929c.547-2.043 2.644-3.256 4.691-2.707 2.044.546 3.255 2.643 2.707 4.69l-4.46 16.646c-.545 2.033-2.636 3.26-4.691 2.707-2.044-.546-3.255-2.643-2.707-4.69l.039-.145c2.398-1.343 3.9-3.865 3.9-6.673h0zm11.618-6.854c.546-2.04 2.651-3.254 4.692-2.71 2.032.545 3.26 2.64 2.707 4.693L45.58 55.05c-.546 2.04-2.65 3.254-4.692 2.708-2.044-.547-3.255-2.644-2.707-4.69l4.46-16.646zm5.682-6.41c-2.207-.589-4.45-.147-6.218 1.026-1.001-2.013-2.764-3.431-4.88-3.997-2.067-.554-4.306-.248-6.22 1.02-1.026-2.063-2.817-3.443-4.877-3.994-2.365-.634-4.774-.081-6.594 1.29V7.66c0-4.224-3.436-7.66-7.66-7.66-4.223 0-7.66 3.436-7.66 7.66v31.41c-.473.718-.82 1.505-1.03 2.35-.01.04-.018.078-.026.118L.341 56.94c-1.19 6.232.777 12.63 5.263 17.117 2.808 2.808 4.354 6.65 4.354 10.819v11.252c0 1.057.858 1.915 1.915 1.915h34.468c1.058 0 1.915-.858 1.915-1.915V81.814c0-2.368.56-4.737 1.617-6.851l2.106-4.212c1.323-2.643 2.022-5.605 2.022-8.565V37.41c0-3.458-2.335-6.5-5.679-7.395h0z" mask="url(#prefix__b)"/>
    </g>
</svg>
