<svg height="54" viewBox="0 0 99 54" width="99" xmlns="http://www.w3.org/2000/svg"><g fill="#0049f8" fill-rule="evenodd"><path d="m4.125 49.5h90.75v-45.375h-90.75zm92.813 4.125c1.138 0 2.062-.924 2.062-2.063v-49.5c0-1.137-.924-2.062-2.063-2.062h-94.873c-1.141 0-2.064.924-2.064 2.063v49.5c0 1.138.924 2.062 2.063 2.062h94.874z"/><path d="m47.438 22.688h-6.188v4.125h6.188v4.125h-6.188v4.125h6.188v8.25h4.125v-8.25h6.187v-4.125h-6.187v-4.125h6.187v-4.125h-6.187v-1.209l7.645-7.646-2.916-2.916-6.792 6.792-6.792-6.792-2.916 2.916 7.646 7.646zm-37.125 14.437c3.41 0 6.187 2.776 6.187 6.188 0 1.138.924 2.062 2.063 2.062h18.562v-4.125h-16.708c-.821-4.034-4.008-7.22-8.042-8.042v-12.79c4.034-.82 7.22-4.007 8.042-8.04h16.708v-4.128h-18.563c-1.138 0-2.062.924-2.062 2.063 0 3.41-2.776 6.187-6.188 6.187-1.138 0-2.062.924-2.062 2.063v16.5c0 1.138.924 2.062 2.063 2.062m72.187 6.188c0-3.412 2.776-6.188 6.188-6.188 1.138 0 2.062-.924 2.062-2.063v-16.5c0-1.138-.924-2.062-2.063-2.062-3.41 0-6.187-2.776-6.187-6.188 0-1.138-.924-2.062-2.063-2.062h-18.561v4.125h16.708c.821 4.034 4.008 7.22 8.042 8.042v12.79c-4.034.82-7.22 4.007-8.042 8.04h-16.709v4.126h18.563c1.138.002 2.062-.922 2.062-2.06"/></g></svg>