<svg height="93" viewBox="0 0 90 93" width="90" xmlns="http://www.w3.org/2000/svg"><g fill="#0049f8" stroke="#0049f8"><path d="m8.389 81.986c.751 0 1.36-.61 1.36-1.361v-14.015l1.802-.483.13-.038 3.835 12.67c.178.588.718.967 1.302.967.13 0 .263-.018.395-.058.719-.218 1.126-.977.908-1.697l-3.962-13.091c2.385-1.7 4.02-4.625 4.02-7.596v-6.023c0-2.051-.82-3.856-2.248-4.953-1.396-1.071-3.202-1.383-5.085-.879l-2.81.753c-.594.16-1.008.698-1.008 1.314v33.13c0 .75.61 1.36 1.36 1.36zm1.36-33.446 1.802-.482c1.046-.28 2.013-.135 2.723.41.763.585 1.184 1.577 1.184 2.793v6.023c0 2.7-2.112 5.545-4.612 6.215l-1.097.294zm13.148 27.787c.781.6 1.717.907 2.72.907.452 0 .918-.062 1.389-.189 2.929-.785 5.223-3.842 5.223-6.96v-28.613c0-.752-.61-1.361-1.36-1.361-.752 0-1.362.61-1.362 1.36v28.612c0 1.883-1.468 3.867-3.206 4.332-.68.183-1.3.094-1.747-.248-.487-.374-.755-1.022-.755-1.825v-28.61c0-.752-.609-1.361-1.36-1.361-.752 0-1.361.61-1.361 1.36v28.612c0 1.645.663 3.097 1.819 3.984zm17.454-5.675c-.358.096-.672.026-.99-.218-.698-.535-1.512-2.056-1.512-4.585 0-.752-.61-1.361-1.36-1.361-.752 0-1.362.61-1.362 1.36 0 2.986.964 5.508 2.577 6.746.706.542 1.516.82 2.35.82.331 0 .667-.044 1.001-.133 2.978-.798 5.224-4.964 5.224-9.691 0-5.555-1.882-7.707-4.92-9.38-2.055-1.132-3.51-2.297-3.51-6.996 0-3.656 1.69-6.656 3.206-7.062.358-.096.673-.027.99.218.698.534 1.512 2.056 1.512 4.585 0 .752.61 1.36 1.361 1.36.752 0 1.361-.608 1.361-1.36 0-2.986-.963-5.507-2.576-6.745-.988-.757-2.178-1.002-3.352-.687-2.978.798-5.224 4.964-5.224 9.69 0 5.555 1.883 7.708 4.92 9.38 2.055 1.133 3.51 2.298 3.51 6.997 0 3.655-1.69 6.655-3.206 7.062zm14.049-3.765c-.357.096-.672.027-.99-.217-.697-.535-1.511-2.057-1.511-4.586 0-.751-.61-1.36-1.36-1.36-.752 0-1.362.609-1.362 1.36 0 2.986.963 5.507 2.576 6.745.707.542 1.516.821 2.35.821.332 0 .668-.044 1.002-.134 2.978-.798 5.224-4.964 5.224-9.69 0-5.555-1.883-7.708-4.92-9.38-2.055-1.133-3.51-2.297-3.51-6.997 0-3.655 1.69-6.655 3.206-7.061.358-.097.672-.027.99.217.698.535 1.512 2.057 1.512 4.586 0 .751.61 1.36 1.36 1.36.752 0 1.362-.609 1.362-1.36 0-2.986-.963-5.507-2.577-6.745-.987-.758-2.178-1.002-3.351-.687-2.978.797-5.224 4.964-5.224 9.69 0 5.555 1.882 7.708 4.92 9.38 2.055 1.133 3.51 2.297 3.51 6.997 0 3.655-1.69 6.655-3.206 7.061zm11.124-.211c.752 0 1.361-.609 1.361-1.36v-33.13c0-.75-.61-1.36-1.36-1.36-.752 0-1.362.61-1.362 1.36v33.13c0 .751.61 1.36 1.361 1.36zm5.976-1.636c.038.004.076.005.114.005.7 0 1.296-.538 1.355-1.248l.56-6.747 6.064-1.625.498 5.742c.065.748.727 1.304 1.474 1.238.749-.065 1.303-.725 1.238-1.474l-2.62-30.177c-.087-1.015-.558-1.87-1.325-2.407-.76-.533-1.712-.683-2.68-.424-1.758.47-3.146 2.181-3.303 4.068l-2.619 31.58c-.062.75.495 1.407 1.244 1.47zm4.088-32.825c.06-.73.653-1.491 1.294-1.663.103-.027.293-.06.414.024.095.066.16.217.177.413l1.881 21.682-5.587 1.497z"/><path d="m89.465 15.923c-.146-.112-.311-.19-.485-.235v-.002l-27.966-7.314 16.08-5.147v5.408c0 .752.61 1.361 1.361 1.361.752 0 1.361-.609 1.361-1.36v-7.274c0-.435-.207-.843-.558-1.1-.351-.256-.803-.329-1.217-.196l-19.797 6.336c-1.776.568-2.969 2.203-2.969 4.067v8.348c0 .752.61 1.361 1.361 1.361.752 0 1.361-.609 1.361-1.36v-8.35c0-.023.005-.045.006-.068l25.311 6.62-79.066 21.144c-2.5.669-4.245 2.943-4.245 5.53v47.85c0 .422.197.821.532 1.079.24.184.532.281.829.281.117 0 .235-.015.351-.046l84.036-22.475c2.5-.669 4.246-2.943 4.246-5.53v-47.85c0-.422-.197-.821-.532-1.079zm-2.19 48.929c0 1.357-.915 2.55-2.227 2.9l-82.323 22.018v-46.077c0-1.357.915-2.55 2.227-2.9l82.323-22.018z"/></g></svg>