<svg height="75" viewBox="0 0 75 75" width="75" xmlns="http://www.w3.org/2000/svg"><g fill="#0049f8"><path d="m3.323 3.323h13.766v-3.323h-17.089v17.089h3.323zm54.588-3.323v3.323h13.766v13.766h3.323v-17.089zm13.766 71.677h-13.766v3.323h17.089v-17.089h-3.323zm-68.354-13.766h-3.323v17.089h17.089v-3.323h-13.766z"/><path d="m8.544 8.544v21.836h22.152v-13.102h4.43v-4.367h-4.43v-4.367zm17.722 17.469h-13.291v-13.103h13.29v13.102zm40.19 39.493v-22.152h-8.861v-4.43h-4.43v4.43h-13.292v4.43h4.43v4.431h-4.43v4.43h4.43v8.861zm-17.722-17.721h13.291v13.29h-13.29v-13.29zm-26.22-8.318h8.679v-4.34h-21.699v4.34h8.68v4.34h-4.34v4.339h4.34v8.68h-4.34v4.34h4.34v4.34h21.699v-4.34h-4.34v-4.34h-4.34v4.34h-8.679v-4.34h4.34v-4.34h-4.34z"/><path d="m18.038 17.089h4.747v4.746h-4.747zm34.177 0h4.747v4.746h-4.747z"/><path d="m56.772 30.696h8.734v-22.152h-21.835v22.152h8.734v4.43h4.367zm-8.734-4.43v-13.291h13.101v13.29h-13.101zm17.468 13.607v-4.746h-8.544v4.746zm-13.291 12.342h4.747v4.747h-4.747zm-17.088-3.797h4.746v4.747h-4.746zm-8.545 3.797h4.747v-8.544h-4.747zm3.798-13.291h4.747v4.747h-4.747zm-17.089 9.494h-4.747v8.544h4.747zm-4.747 13.291h4.747v4.747h-4.747zm26.583-53.165h4.746v4.747h-4.746zm0 18.038h4.746v-8.544h-4.746z"/><path d="m39.399 34.652v-4.272h-4.272v8.544h17.088v-4.272z"/></g></svg>