<svg height="78" viewBox="0 0 47 78" width="47" xmlns="http://www.w3.org/2000/svg"><g fill="#0049f8" stroke="#0049f8" stroke-width=".3"><path d="m39.126 0h-31.252c-4.306 0-7.813 3.492-7.813 7.78v62.238c0 4.291 3.507 7.78 7.813 7.78h31.252c4.31 0 7.813-3.489 7.813-7.78v-62.238c0-4.288-3.503-7.78-7.813-7.78zm4.688 70.018c0 2.573-2.103 4.668-4.688 4.668h-31.252c-2.585 0-4.688-2.095-4.688-4.668v-62.238c0-2.574 2.103-4.668 4.688-4.668h31.252c2.585 0 4.688 2.094 4.688 4.668z"/><path d="m26.625 6.224h-6.25c-.863 0-1.563.697-1.563 1.556s.7 1.556 1.563 1.556h6.25c.863 0 1.563-.697 1.563-1.556 0-.86-.7-1.556-1.563-1.556zm18.751 6.224h-43.752c-.863 0-1.563.697-1.563 1.556 0 .858.7 1.555 1.563 1.555h43.752c.863 0 1.563-.697 1.563-1.555 0-.86-.7-1.556-1.563-1.556zm0 49.79h-43.752c-.863 0-1.563.697-1.563 1.556s.7 1.556 1.563 1.556h43.752c.863 0 1.563-.697 1.563-1.556s-.7-1.556-1.563-1.556z"/></g></svg>