<svg height="75" viewBox="0 0 93 75" width="93" xmlns="http://www.w3.org/2000/svg" xmlns:xlink="http://www.w3.org/1999/xlink"><mask id="a" fill="#fff"><path d="m0 .149h92.917v73.851h-92.917z" fill="#fff" fill-rule="evenodd"/></mask><path d="m65.377 71.105h-60.06c-1.33 0-2.411-1.078-2.411-2.402v-17.863h66.829v17.863c0 1.324-1.081 2.402-2.41 2.402zm-55.203-39.082-1.514 1.732c-1.014 1.161-1.504 2.645-1.376 4.18.038.46.146.899.288 1.325h-4.666v-4.836c0-1.324 1.081-2.401 2.41-2.401zm5.836 10.132h53.725v5.79h-66.83v-5.79h6.891c.927.614 1.989.935 3.066.935 1.092 0 2.182-.33 3.148-.935zm17.135-18.004c2.296-2.459 5.546-3.868 8.919-3.868h7.897c1.279 0 2.32 1.036 2.32 2.311 0 1.276-1.04 2.313-2.32 2.313h-8.464c-1.6 0-3.084.29-4.41.86-2.018.873-3.267 2.079-3.97 3.36h-4.623zm33.168 13.674c1.16 0 2.302-.115 3.422-.31v1.745h-50.71l6.764-7.237h6.599c.004.385.033.762.107 1.12.575 2.757 2.944 4.682 5.765 4.682zm6.328 30.878v-31.931c2.82-.953 5.41-2.526 7.576-4.686.07-.07.134-.15.19-.233l5.245-8.02 6.535-3.742c.696-.4.936-1.284.536-1.977-.401-.694-1.29-.931-1.983-.534l-6.84 3.917c-.2.114-.369.273-.493.465l-5.35 8.181c-3.153 3.087-7.317 4.787-11.745 4.787h-28.052c-1.666 0-2.682-1.231-2.92-2.376-.343-1.652.742-3.196 2.903-4.13.96-.414 2.052-.623 3.254-.623h8.464c2.881 0 5.225-2.336 5.225-5.207 0-2.872-2.344-5.207-5.225-5.207h-7.897c-4.176 0-8.202 1.746-11.045 4.79l-15.9 17.014c-1.062 1.139-2.825 1.326-3.93.417-.589-.483-.948-1.161-1.009-1.91-.062-.75.176-1.475.672-2.042l17.07-19.541c2.437-2.788 5.962-4.387 9.674-4.387h24.194c2.587 0 5.193-.58 7.538-1.675 1.71-.8 7.03-5.88 8.619-7.418.576-.557.59-1.474.03-2.047-.557-.574-1.477-.586-2.052-.03-3.092 2.99-6.965 6.469-7.83 6.874-1.961.916-4.14 1.401-6.304 1.401h-24.195c-4.551 0-8.876 1.961-11.864 5.382l-13.029 14.912h-7.387c-2.93 0-5.316 2.376-5.316 5.297v34.28c0 2.919 2.385 5.296 5.316 5.296h62.008c2.845 0 4.712-2.895 4.712-2.895.373-.724.605-1.533.605-2.402z" fill="#0049f8" fill-rule="evenodd" mask="url(#a)"/></svg>