<svg height="64" viewBox="0 0 89 64" width="89" xmlns="http://www.w3.org/2000/svg"><g fill="none" fill-rule="evenodd" transform="translate(2 2)"><path d="m.4 59.366h84.467v-58.963h-84.467z" stroke="#0049f8" stroke-linecap="round" stroke-linejoin="round" stroke-width="3.5"/><path d="m18.465 12.767 3.416 6.942 7.64 1.111-5.529 5.404 1.304 7.63-6.831-3.603-6.833 3.603 1.304-7.63-5.528-5.404 7.64-1.111zm13.259-6.337.883 1.796 1.978.288-1.429 1.399.336 1.974-1.768-.933-1.769.933.34-1.974-1.432-1.399 1.978-.288zm7.136 9.512.883 1.796 1.976.288-1.429 1.398.337 1.975-1.767-.933-1.77.933.338-1.975-1.43-1.398 1.977-.288zm-.001 9.643.884 1.796 1.976.288-1.429 1.398.337 1.975-1.768-.934-1.769.934.338-1.975-1.43-1.398 1.977-.288zm-7.135 9.829.883 1.797 1.978.288-1.429 1.398.336 1.975-1.768-.934-1.769.934.34-1.975-1.432-1.398 1.978-.288z" fill="#0049f8"/></g></svg>