<svg xmlns="http://www.w3.org/2000/svg" width="90" height="90" viewBox="0 0 90 90">
    <path fill="#0049F8" d="M45 0C20.147 0 0 20.147 0 45s20.147 45 45 45 45-20.147 45-45C89.972 20.16 69.84.028 45 0zm38.919 60.765L71.12 62.973c1.465-5.372 2.256-10.906 2.355-16.473h13.487c-.17 4.897-1.2 9.726-3.044 14.265zM3.037 46.5h13.487c.099 5.567.89 11.1 2.355 16.473L6.08 60.765c-1.844-4.54-2.874-9.368-3.044-14.265zm3.044-17.265l12.798-2.208C17.414 32.4 16.623 37.933 16.524 43.5H3.037c.17-4.897 1.2-9.726 3.044-14.265zm40.419-5.15c5.39.068 10.767.559 16.08 1.468l5.295.913c1.627 5.536 2.502 11.265 2.602 17.034H46.5V24.084zm16.592-1.49c-5.483-.936-11.03-1.442-16.592-1.51v-18c8.6.825 16.07 8.699 20.303 20.158l-3.711-.647zM43.5 21.086c-5.561.068-11.108.574-16.59 1.51l-3.713.643C27.431 11.777 34.901 3.9 43.5 3.078v18.006zm-16.079 4.468c5.313-.91 10.69-1.4 16.079-1.469V43.5H19.523c.1-5.77.975-11.498 2.602-17.034l5.296-.913zM19.523 46.5H43.5v19.416c-5.39-.07-10.767-.56-16.08-1.469l-5.295-.913c-1.627-5.536-2.502-11.265-2.602-17.034zm7.385 20.904c5.483.938 11.03 1.447 16.592 1.52v18c-8.6-.827-16.07-8.7-20.303-20.16l3.711.64zm19.592 1.52c5.561-.073 11.108-.582 16.59-1.52l3.713-.642C62.569 78.223 55.099 86.1 46.5 86.922V68.924zm16.079-4.477c-5.313.91-10.69 1.4-16.079 1.469V46.5h23.977c-.1 5.77-.975 11.498-2.602 17.034l-5.296.913zM73.476 43.5c-.099-5.567-.89-11.1-2.355-16.473l12.798 2.208c1.844 4.54 2.874 9.368 3.044 14.265H73.476zM82.4 25.93l-12.267-2.117C67.928 16.617 63.803 10.16 58.2 5.137 68.677 8.634 77.366 16.097 82.4 25.93zm-50.6-20.793c-5.604 5.024-9.73 11.48-11.935 18.675L7.6 25.93C12.634 16.098 21.323 8.634 31.8 5.137zM7.598 64.071l12.267 2.117c2.206 7.194 6.331 13.651 11.934 18.675C21.323 81.366 12.634 73.903 7.6 64.07zm50.6 20.792c5.604-5.024 9.73-11.48 11.935-18.675L82.4 64.07C77.366 73.902 68.677 81.366 58.2 84.863z"/>
</svg>
