<svg height="50" viewBox="0 0 54 50" width="54" xmlns="http://www.w3.org/2000/svg" xmlns:xlink="http://www.w3.org/1999/xlink"><mask id="a" fill="#fff"><path d="m0 .13h53.92v12.304h-53.92z" fill="#fff" fill-rule="evenodd"/></mask><g fill="#b5c1c9" fill-rule="evenodd"><path d="m26.048 7.587c.447.222.894-.074 1.417 0 1.154.074 2.197.74 2.83 1.774.111.186.337.112.484.073.708-.405 1.416-.849 2.2-1.107.11 0 .26.11.297.221.036.221-.111.407-.297.444-2.685 1.478-5.404 2.993-8.16 4.325-.374.185-.56-.331-.747-.554-.558-.888-.633-2.293-.074-3.216.112-.443.82-.74.596-1.295-.075-.295-.112-.702.113-.923.223-.185.558-.297.855-.185.187.073.373.222.486.443m3.95 4.584c.372.407.334 1.034.484 1.515.408 2.59.37 5.361.26 7.985.373.37 1.045.222 1.49.112.821-.296 1.231-1.182 1.231-1.996-.112-.628-.373-1.22-.747-1.738 0-.37.449-.556.708-.775.449-.186.786-.779 1.343-.63 1.416 1.11 1.863 3.069 1.34 4.768-.445 1.407-1.862 2.663-3.278 3.033-.113.037-.15.22-.075.332 1.155 1.553 2.087 3.179 2.72 4.953.038.147-.15.296-.26.333-.634.185-1.155.556-1.826.63-.372-.445-.521-1-.818-1.48-.746-1.406-1.604-2.735-2.723-3.956-.073 0-.148-.074-.223 0-.557 1.59-1.117 3.143-2.122 4.511-.15.072-.337.038-.45-.038l-1.565-1.108v-.297c1.903-4.177 3.54-9.129 2.237-14.01l-.187-.112c-.485-.11-1.265.37-1.452-.257-.113-.334.11-.703.41-.813l1.788-.924c.52-.075 1.156-.075 1.715-.038m-6.408 5.176.185.629c.297 2.365.522 4.731.744 7.134 0 .11-.074.184-.15.22-.594.113-1.23.187-1.825.113l-.112-.186-.67-5.84c-.074-.333-.299-.666-.632-.776-.373-.075-.71-.112-1.007.11-.523.408-.484 1.073-.373 1.665.111 1.737.41 3.437.41 5.138-.41.332-1.117.295-1.715.258l-.149-.295c-.26-2.256-.372-4.549-.709-6.766-.11-.297-.558-.073-.669-.406-.076-.556-.111-1.11-.076-1.7.225-.26.522.147.71-.15.557-.073 1.08-.036 1.64-.148.259.075.259.705.595.408.595-.665 1.453-.925 2.31-.702.598.148 1.268.665 1.492 1.294m17.326.073c.187.11.111.406.075.556-.485 1.848-.93 3.732-1.305 5.618.037.37.187.703.486.888.297.11.709.22 1.005.072.448-.295.635-.738.71-1.218.483-1.777.855-3.512 1.413-5.248.561-.076 1.12.22 1.679.366.112.112.075.37.036.518-.595 2.034-.967 4.14-1.565 6.174-.297.554.635.482.373 1l-.373 1.403c-.15.222-.485.038-.708 0-.597-.184-1.192-.26-1.715-.517-.073-.26.186-.554-.073-.702-.672.33-1.454.629-2.273.33-.636-.218-1.23-.81-1.38-1.44-.074-.406-.148-.96.039-1.33.595-2.291 1.08-4.584 1.713-6.802.15-.222.447-.074.633-.074zm-27.24.185 1.642 6.47c.148.48.782-.038.817.517.112.518.375 1.071.263 1.626-.71.334-1.492.408-2.273.59-.3 0-.186-.516-.522-.366-.523.664-1.193 1.145-2.05 1.108-.708 0-1.34-.296-1.79-.89-.558-.848-.595-1.92-.931-2.844-.333-1.59-.82-3.143-1.192-4.732-.075-.222.151-.37.299-.406.522-.15 1.045-.333 1.602-.333l.112.221c.56 1.886.968 3.81 1.565 5.657.185.369.595.665 1.043.628.41 0 .744-.369.895-.703.075-.812-.26-1.589-.41-2.365-.336-1.331-.67-2.66-.933-3.994.448-.296 1.008-.33 1.53-.48.22-.073.26.184.333.296m38.42 3.55c.147.185.26.516.52.553.224-.149.375-.627.71-.368.187.11.519.147.595.407-.298.774-.485 1.59-.858 2.328-.223.222-.482-.038-.708-.038-1.004-.184-.595-1.773-1.862-1.588-.26.036-.56.258-.67.517-.15 1.109 1.044 1.774 1.565 2.625.558.851.633 2.18.038 3.031-.635.887-1.679 1.293-2.76 1.109-.856-.147-1.601-.889-1.974-1.627-.371-.036-.299.666-.747.482-.258-.112-.632-.15-.67-.482.187-.739.523-1.443.821-2.18.371-.26.782.184 1.155.33.187.519.372 1.26 1.045 1.37.295-.038.595 0 .78-.259.225-.186.225-.481.299-.74-.187-.59-.858-.997-1.192-1.515-.82-.925-1.118-2.29-.709-3.475.262-.924 1.267-1.48 2.124-1.665 1.007-.073 1.938.335 2.498 1.185m-47.027-.703.746 1.662c-.037.407-.522.407-.746.593-.67.222-1.34-.593-2.011 0-.225.222-.335.554-.225.849.112.37.485.629.82.666 1.156-.037 2.534-.22 3.392.666.706.74.931 1.81.67 2.808-.187.704-.782 1.407-1.453 1.738-.597.222-1.341.187-1.974 0-.56.15.297.778-.3.961-.222.074-.485.298-.744.186-.41-.704-.671-1.442-.932-2.219.112-.369.558-.406.895-.555.596.149 1.378.667 1.935.076.19-.222.299-.556.19-.888-.523-.924-1.865-.48-2.76-.74-1.118-.22-2.161-1.22-2.347-2.328-.074-1.072.298-2.144 1.229-2.772.673-.444 1.604-.482 2.387-.222.221-.185-.075-.444.11-.628.298-.185 1.118-.63 1.118.147m19.75 8.651c.893.553 1.79 1.109 2.61 1.811l-.076.184c-.71.74-1.64 1.294-2.2 2.145-.038.184.037.407.15.554.746.592 1.825.295 2.61.812.482.261 1.228.555 1.266 1.223-.038.737-.3 1.477-1.007 1.772-1.23.11-2.199-.627-3.094-1.442-.707-.59-1.043-1.33-1.6-1.995-.187-.148-.485-.148-.672-.075-.26.148-.595.517-.896.186-.334-.186-.743-.371-.93-.703.076-.48.298-.923.746-1.22.523-.406 1.342-.295 1.64-1.072l1.117-2.107c.074-.11.262-.149.336-.073m11.663 1.627.3 2.328c.109.296.259.554.558.665 1.34.221 1.675-1.554 2.832-1.848.483.146 1.005-.408 1.378.109.521.445.82 1.037.67 1.665-.296.776-1.155 1.147-1.861 1.441-.97.334-2.088.481-3.132.297-.336.037-.596.294-.709.592-.111.22 0 .517-.074.738-.41.26-.855.444-1.34.553-.523-.368-.747-.96-.634-1.589.074-.479.408-1.072.074-1.552-.484-.775-.969-1.59-1.304-2.438 0-.148.185-.187.298-.297l2.57-.998c.263-.074.336.148.374.334"/><path d="m26.954 4.793c15.528 0 26.966 7.64 26.966 7.64v-12.303h-53.92v12.304s13.167-7.64 26.954-7.64" mask="url(#a)" transform="translate(0 .181)"/><path d="m39.127 45.162c-.036.071-.07.36-.42.994-.017.027-.004.069.027.085l.863.433c.033.016.054.057.047.092l-.24 1.17c-.007.035-.038.05-.068.033l-1.46-.75c-.034-.016-.086-.008-.117.013-.363.233-.932.677-2.176.716-1.42.006-2.174-.713-2.174-.713-.025-.021-.04-.07-.032-.105l.245-1.13c.007-.033.029-.038.056-.014.63.585 1.392.746 1.861.738 0 0 .107-.001.121-.003 1.352-.057 1.904-.906 2.154-1.602l.079-.236c.068-.206.462-2.185.462-2.185.007-.034-.016-.062-.05-.062h-4.621c-.034 0-.058-.027-.05-.06l.225-1.124c.008-.035.041-.062.077-.062h5.495l.466-.003c.034 0 .057.03.05.061 0 0-.696 3.352-.784 3.595-.046.127-.036.12-.036.12zm-7.206 1.597c-.278.334-1.245 1.216-2.743 1.188-1.655-.03-2.405-.737-2.405-.737-.025-.024-.04-.071-.033-.106l.244-1.166c.008-.034.036-.04.06-.018 0 0 .868.741 2.099.76.056 0 .092-.003.124-.006.616-.005 1.688-.293 2.186-1.558l.033-.114.493-2.3c.009-.035-.013-.063-.05-.063h-2.267c-.038 0-.08.025-.096.055l-.033.062c-.444.755-1.327 1.402-2.718 1.27-.033-.001-.056-.009-.049-.041l.23-1.15c.004-.034.042-.062.072-.062 1.151.048 1.456-.814 1.591-1.322.019-.035.033-.054.06-.054.025 0 .047-.002.047-.005 0-.002.032-.003.066-.003h4.666c.035-.003.056.026.05.058l-.755 3.543c-.005.087-.142.92-.872 1.769zm-6.56-.004c-.352.426-1.327 1.214-2.785 1.214-1.25-.052-1.943-.582-1.943-.582-.027-.019-.044-.06-.039-.093l.272-1.29c.008-.035.031-.039.053-.014 0 0 .567.679 1.674.69 1.128-.003 1.996-.663 2.303-1.689l.788-3.54c-.003-.035.03-.062.067-.062l1.19-.003c.034 0 .056.028.05.061l-.756 3.541c-.04.263-.297 1.135-.874 1.767zm-5.437-2.874-.246 1.19c-.099.505-.37 1.341-.808 1.81-.185.212-1.052 1.073-2.409 1.073-1.245.017-2.031-.698-2.031-.698-.025-.026-.038-.075-.033-.11l.257-1.234c.007-.032.03-.037.05-.01 0 0 .57.779 1.775.808 1.738-.086 1.908-1.693 1.908-1.693l.257-1.136c.009-.034-.013-.062-.05-.062h-2.657c-.035 0-.071.028-.077.062l-.25 1.215c-.006.035-.043.062-.076.062h-1.194c-.034 0-.057-.027-.051-.062l.25-1.215c.008-.034-.016-.062-.05-.062h-.817c-.036 0-.059-.028-.053-.063l.227-1.124c.008-.035.043-.064.08-.064h.82c.034 0 .069-.026.076-.06l.212-1.035c.006-.034.04-.062.077-.062h1.195c.035 0 .057.028.05.062l-.212 1.035c-.01.034.016.06.051.06h2.65c.037 0 .07-.026.079-.06l.213-1.034c.007-.032.043-.063.078-.063l1.164-.002c.035 0 .057.028.05.061l-.22 1.038c-.007.034.017.06.052.06h.844c.036 0 .059.03.05.063l-.237 1.125c-.008.035-.041.063-.078.063h-.837c-.035 0-.07.028-.078.062zm2.594-2.38c.598 0 1.081.5 1.081 1.115 0 .618-.483 1.116-1.08 1.116-.599 0-1.081-.498-1.081-1.116 0-.615.482-1.116 1.08-1.116zm-22.497 8.202h53.832v-9.992h-53.832z"/></g></svg>