<svg height="99" viewBox="0 0 158 99" width="158" xmlns="http://www.w3.org/2000/svg" xmlns:xlink="http://www.w3.org/1999/xlink"><mask id="a" fill="#fff"><path d="m.304.374h77.628v98.202h-77.628z" fill="#fff" fill-rule="evenodd"/></mask><g fill="none" fill-rule="evenodd"><path d="m247 4554h415v236h-415z" stroke="#ddd" transform="translate(-376 -4622)"/><g fill="#b5c1c9"><path d="m123.208 40.12c.095-1.576-.373-2.5-1.262-2.5-1.4 0-1.942 1.928-2.413 4.208-.163.812-.294 1.551-.287 2.268.029 1.444.895 1.444 1.033 1.444.497 0 1.356-.362 1.716-.938.193-.288.366-.72.517-1.182.15-.673.304-1.345.441-2.021.098-.47.18-.887.255-1.278m-14.899-4.071c1.398-.63 2.491-1.931 2.858-3.484.41-1.694-.175-2.995-1.585-3.5l-3.663-.291-.695-.065-.023.27-.059.36c.008-.028-1.726 6.937-1.726 6.937l-.07.353h.941c1.457 0 2.866-.047 4.022-.58m-14.48 24.859.574-1.4h-7.925l-.682 1.685-.337 1.066c.405-.24 1.829-1.016 4.039-1.295.597-.086 4.331-.056 4.331-.056m-.917 3.521.497-1.162h-7.58l-.37 1.174h6.429c.79-.072.957.014 1.024-.012"/><path d="m54.908 54.822-.2.23h.029l-1.91 3.282c-.6 1.125-1.723 1.957-3.504 1.965l-3.039-.051.885-2.95h.594c.31 0 .536-.015.703-.103.157-.05.27-.175.394-.354l1.075-1.705-.011-.022c1.526-2.304 1.902-3.293 3.49-5.918-.284-2.936-.412-3.881-.645-5.81-.138-1.146-.32-2.321-.459-3.482-.295-2.373-.222-2.041-.514-3.542l-.018-.033c.018-.095.018-.179.04-.259l.183-.164c2.35-.303 2.408-.38 4.954-.873l.208.22.343 6.55c.007.145.007.23.014.368 1.352-3.023 1.3-2.19 2.962-6.032l.008.037c.01-.037.018-.08.025-.106l.164-.164c2.23-.303 2.67-.38 5.097-.873l.19.22s-9.772 16.797-11.058 19.568zm-3.122 9.42h-4.96l-.775 2.479h4.977l-.828 2.709h-5.374l-.955 1.14h2.179l.535 3.413c.055.343.055.562.172.708.109.124.765.186 1.144.186h.663l-1.01 3.32h-1.679c-.255 0-.641-.02-1.18-.041-.496-.044-.853-.34-1.195-.511-.31-.146-.766-.519-.878-1.154l-.525-3.41-2.445 3.355c-.772 1.063-1.825 1.873-3.603 1.873h-3.414l.896-2.968h1.305c.382 0 .71-.15.958-.274.248-.102.473-.237.721-.606l3.57-5.031h-4.71l.805-2.71h5.385l.765-2.478h-5.316l.908-3.056h14.784l-.921 3.056zm-20.45 14.042h-4.54l.31-1.012h-9.211l.922-3.019h.936l4.831-16.05.962-3.235h4.627l-.484 1.628s1.231-.887 2.4-1.19c.97-.255 5.742-.372 7.342-.409l-.004-.01h4.944l.051 1.843c-.036.314.237.46.813.46h1.002l-.918 3.045h-2.667c-2.31.164-3.188-.832-3.13-1.95l-.047-1.814-.503 1.632h-1.585l-4.766 15.81h1.287l-.999 3.26h-1.275l-.299 1.01zm-14.81-8.441c-.172.602-.321 1.051-.777 1.442-.477.405-1.035.828-2.343.828l-2.419.103-.018 2.176c-.026.61.142.551.237.65.11.11.207.15.317.197l.765-.048 2.31-.124-.958 3.173h-2.653c-1.85 0-3.228-.044-3.676-.398-.448-.281-.506-.639-.5-1.249l.172-8.485h4.23l-.062 1.735h1.02c.346 0 .583-.033.729-.128.127-.095.222-.223.28-.438l.427-1.359h3.323l-.405 1.925zm-1.396-20.813 3.814-15.747c0-.01 1.523-7.086 1.523-7.086s.113-.552.171-.862c.7.088 2.405.102 6.657.047l1.64-.01c3.319.01 6.197.05 7.643 2.077.569.76.765 1.734.765 2.72 0 .748-.113 1.497-.266 2.129-.586 2.57-1.905 4.684-3.833 6.119-2.834 2.088-6.448 2.088-9.65 2.088h-.34c-.23.128-.459.45-.459.45-.043.109-.78 3.19-.78 3.19-.007 0-.866 4.206-1.012 4.911-.638-.07-2.16-.07-5.873-.026zm27.019-13.593c.823.318 1.352.826 1.72 1.42.025-.182.047-.368.072-.554l.179-.146c2.36-.336 3.013-.431 5.469-.888l.072.205c-.451 1.866-.892 3.72-1.333 5.59-.9 3.914-1.228 5.896-1.57 7.94l-.219.165c-2.375-.018-3.057-.018-5.246.077l-.139-.18c.07-.277.146-.558.215-.839-.805.68-1.668 1.15-2.605 1.198-.885.047-1.756-.077-2.729-.49-3.05-1.19-2.557-4.53-2.127-6.36.408-1.814 1.122-3.702 2.608-5.082 2.12-1.931 4.584-2.468 5.633-2.056zm27.934-35.063h-39.101c-5.469 0-10.926 4.457-12.202 9.949l-5.836 25.104c.444.234.823.607 1.056 1.18.456 1.11.146 2.483-.47 5.184l-.31 1.38c-.648 3.005-.743 3.553-1.089 5.62l-.24.175c-.864-.011-1.48-.019-2.092-.011l-1.402 6.031h.186l-.638 2.198s1.377-1.102 2.343-1.5c.958-.354 3.126-.676 3.126-.676l7.053-.04-2.4 8.018c-.409 1.369-.882 2.256-1.174 2.665-.266.405-.58.76-1.188 1.095-.594.322-1.133.5-1.636.552-.462.036-1.176.047-2.17.062h-6.378l-1.801 7.755 2.973-.285-1.028 3.48h-2.685l-2.406 10.34c-1.282 5.469 2.114 9.926 7.582 9.926h39.086c5.465 0 10.93-4.457 12.216-9.927l18.203-78.326c1.286-5.492-2.11-9.95-7.578-9.95z" mask="url(#a)" transform="translate(79.497)"/><path d="m107.568 59.4-1.241 2.97s1.396-.454 2.15-.607c.768-.148 1.92-.196 1.92-.196l.899-2.167zm-2.235 13.818h3.09l.885-2.886h-3.08zm0-4.908s1.406-.674 2.158-.89c.76-.162 1.913-.3 1.913-.3l.898-2.77h-3.698l-1.27 3.96zm-32.148 7.41 2.525-.35-1.015 3.4h-5.693c-.463 0-.802-.07-1.297-.179-.477-.124-.694-.339-.907-.667-.202-.331-.527-.612-.31-1.333l1.643-5.459h-2.81l.932-3.119h2.817l.748-2.54h-2.807l.896-2.969h12.369l-.918 2.97h-4.942l-.773 2.54h5.058l-.925 3.067h-5.05l-1.232 4.125c-.148.452 1.203.514 1.69.514zm-9.085-32.874c.422-1.818 1.109-3.717 2.604-5.112 2.08-1.935 4.75-2.048 5.867-2.048 1.86 0 3.655.423 4.667 1.73.672.864 1.199 2.27.52 5.295-.213.911-.817 3.13-2.139 4.617-1.72 1.836-3.998 2.456-6.224 2.456-.87 0-2.221-.11-3.16-.518-3.038-1.242-2.554-4.573-2.135-6.42zm-1.723-5.43c-1.293.912-3.23 1.105-4.313.467-1.091-.663-.947-1.92.35-2.806 1.3-.907 3.23-1.115 4.328-.459 1.087.645.924 1.895-.365 2.799zm-.257 4.03c-.213.948-.444 1.877-.65 2.806-.433 1.983-.614 2.722-.715 3.262-.105.499-.13.772-.3 1.796l-.112.091-.101.088c-1.178-.008-1.94-.033-2.673-.008-.733.008-1.452.048-2.543.095l-.062-.095-.065-.102c.297-1.137.455-1.53.604-1.938.151-.405.292-.806.556-1.964.343-1.505.553-2.555.69-3.48.162-.893.25-1.654.368-2.532l.087-.066.094-.084c1.167-.164 1.91-.277 2.67-.4.769-.103 1.542-.26 2.752-.493l.04.106.036.11c-.224.932-.455 1.861-.676 2.809zm19.174 15.709-.917 3.112h-6.929l-.751.652c-.325.317-.433.186-.852.415-.39.194-1.214.59-2.28.59h-2.218l.892-2.984h.669c.563 0 .95-.054 1.145-.174.22-.146.47-.463.74-.973l1.28-2.336h5.038l-.885 1.698zm-3.493 21.272c-.303-.273-.776-.641-.766-1.009.033-.343.177-.911.394-1.698l6.047-20.227h1.456l1.369-5.92c-.05 0-.09.003-.134.003l-.086-.175c.195-.878.419-1.734.617-2.62l.268-1.199c.43-1.862.838-4.022.88-4.69.04-.393.178-1.384-.938-1.384-.488 0-.976.233-1.478.467-.267.99-.83 3.775-1.105 5.039-.542 2.67-.585 2.98-.83 4.296l-.174.179c-2.005-.033-2.695-.033-5.01.087l-.102-.197c.38-1.585.766-3.188 1.135-4.77.971-4.306 1.192-5.953 1.463-8.14l.173-.127c2.254-.32 2.814-.386 5.249-.89l.191.234-.354 1.37c.405-.251.816-.5 1.225-.714.744-.372 1.55-.572 2.218-.667l5.718-24.756c1.26-5.479 6.672-9.929 12.093-9.929h-40.135c-5.415 0-10.82 4.449-12.101 9.93l-5.795 25.108c.918-.317 1.825-.43 2.374-.43 1.073 0 2.243.303 2.73 1.553.463 1.111.156 2.481-.45 5.174l-.315 1.377c-.625 2.999-.73 3.55-1.08 5.608l-.228.179c-1.943-.033-2.64-.033-4.92.087l-.083-.175c.199-.878.408-1.734.607-2.62l.278-1.199c.423-1.862.831-4.022.878-4.69.043-.345.148-1.158-.607-1.344l-11.436 49.542c-1.272 5.457 2.08 9.91 7.502 9.91h40.15c-5.421 0-8.784-4.453-7.516-9.911l2.395-10.363c-.127-.007-.25-.014-.354-.025-.513-.04-1.048 0-1.413-.274z"/><path d="m69.686 45.54c.535 0 1.02-.362 1.428-.961.588-.808 1.02-2.708 1.12-3.224.524-2.299.44-3.735-.748-3.735-1.516 0-2.112 1.926-2.611 4.221-.178.797-.316 1.528-.309 2.248.014 1.451.96 1.451 1.12 1.451m-32.304-4.66c-.713 2.489-1.514 5.287-4.566 7.076-1.763 1.072-4.367 1.655-7.144 1.655-2.152 0-5.965-.343-7.302-2.66-.415-.73-.628-1.593-.628-2.653l.489-3.568.25-1.09 2.934-12.858s.136-.704.177-.831c.07.09 1.057.138 6.648.09-.008.04-.015.085-.044.172-.515 1.509-3.383 12.918-3.383 12.918 0 .018-.547 3.41-.547 3.41l.029.576c.176 1.68 1.227 2.565 3.026 2.565 1.113 0 2.08-.324 2.91-1.005 1.454-1.163 1.88-2.97 2.471-5.503.008-.01 2.744-12.527 2.891-13.223.382.09 1.576.13 5.634.09-.029.04-.036.085-.055.172-.5 1.541-3.46 13.388-3.46 13.388zm1.583 8.698-.11-.2c.393-1.586.782-3.185 1.16-4.77.985-4.304 1.223-5.951 1.488-8.141l.19-.124c2.12-.299 2.774-.382 4.809-.787l5.788-24.64c1.3-5.48 6.795-9.926 12.301-9.926h-33.663c-5.51 0-11.015 4.446-12.297 9.926l-18.361 78.173c-1.286 5.461 2.145 9.911 7.643 9.911h33.657c-5.513 0-8.925-4.45-7.629-9.911l9.296-39.613c-1.454-.018-2.273-.004-4.271.102zm80.995 5.711-.435.009.035 1.283z"/></g></g></svg>