<svg height="47" viewBox="0 0 224 47" width="224" xmlns="http://www.w3.org/2000/svg" xmlns:xlink="http://www.w3.org/1999/xlink"><mask id="a" fill="#fff"><path d="m.502.393h32.906v35.607h-32.906z" fill="#fff" fill-rule="evenodd"/></mask><mask id="b" fill="#fff"><path d="m0 .146h124.42v35.501h-124.42z" fill="#fff" fill-rule="evenodd"/></mask><g fill="#b5c1c9" fill-rule="evenodd"><path d="m133.14 4.16v12.483h12.251c6.185 0 9.272-2.155 9.272-6.463 0-4.014-3.01-6.02-9.027-6.02zm0 16.641v15.199h-6.14v-36h20.49c4.123 0 7.415.941 9.851 2.837 2.443 1.875 3.659 4.313 3.659 7.292 0 2.87-1.028 5.28-3.068 7.216-2.416 2.303-5.9 3.456-10.443 3.456h-14.348zm51.797 5.629v-4.197c-.962.554-4.268 1.089-9.956 1.617-5.155.48-7.717 1.867-7.717 4.146 0 2.965 2.172 4.444 6.549 4.444 2.89 0 5.46-.586 7.728-1.767 2.256-1.166 3.396-2.589 3.396-4.243m-16.576-8.934h-5.567c.258-5.667 5.19-8.496 14.842-8.496 2.881 0 5.48.376 7.775 1.129 3.748 1.204 5.607 3.218 5.607 6.03v14.758c0 1.015.66 1.523 1.963 1.523.424 0 1.1-.097 2.019-.293v3.132c-1.73.321-2.831.483-3.28.483-2.449 0-4.156-.408-5.14-1.225-.748-.582-1.17-1.476-1.266-2.683-3.601 2.77-7.95 4.146-13.028 4.146-3.323 0-6.043-.683-8.133-2.045-2.116-1.37-3.153-3.14-3.153-5.33 0-4.677 3.645-7.346 10.962-8.005l9.96-.884c2.115-.187 3.171-1.198 3.171-3.022 0-2.77-2.818-4.143-8.48-4.143-3.021 0-5.22.563-6.57 1.698-.832.758-1.399 1.83-1.682 3.227"/><path d="m17.115 20.979 9.625-20.586h6.668c-2.79 5.506-7.113 13.763-12.972 24.778-2.066 3.747-3.554 6.19-4.44 7.355-1.162 1.513-2.431 2.496-3.8 2.95-1.09.347-3.037.524-5.825.524-.43 0-1.267-.13-2.536-.376v-3.87c1.126.29 2.352.442 3.653.442 1.515 0 2.604-.33 3.27-.977.576-.548 1.615-2.176 3.134-4.876l-13.39-25.95h6.868l9.58 20.586" mask="url(#a)" transform="translate(190 11)"/><path d="m76.677 23.275-4.107 4.83h-11.98v-15.903l4.007-4.572h12.08zm23.258 3.125v-21.65s.015-4.604-4.535-4.604h-33.706c-1.359 0-2.5.52-3.43 1.572l-5.605 6.56c-.732.909-1.107 1.801-1.107 3.031v16.796l1.416 2.911h-1.416l-1.416-2.893h-1.424c-2.448 0-2.448-2.482-2.448-2.482v-14.332c0-1.23-.355-1.755-1.124-3.03l-4.336-6.561c-.95-1.273-2.094-1.572-3.444-1.572h-32.812l-.562.041c-2.436.226-3.385 1.883-3.749 3.146-.131.388-.197.783-.223 1.189l-.014.228v26.304c0 2.548 2.039 4.593 4.548 4.593 2.502 0 4.533-2.045 4.539-4.593v-21.752h9.466v21.752c.014 2.548 2.042 4.593 4.55 4.593 2.506 0 4.533-2.045 4.542-4.593v-21.702h6.383l3.098 4.66v17.042c.06 1.237.489 2.287 1.252 3.174.779.897 1.894 1.346 3.339 1.372h33.67c1.348 0 2.486-.516 3.435-1.571l5.598-6.544c.738-.926 1.106-1.937 1.106-3.047v-16.808h.009l-1.333-2.73h1.43l1.322 2.729h1.415s2.443 0 2.443 2.488v20.936s.014 4.593 4.55 4.593h18.813c1.353 0 2.648-.563 3.59-1.618l6.655-7.629h-24.485z" mask="url(#b)"/></g></svg>