<svg height="54" viewBox="0 0 54 54" width="54" xmlns="http://www.w3.org/2000/svg" xmlns:xlink="http://www.w3.org/1999/xlink"><mask id="a" fill="#fff"><path d="m0 0h54v54h-54z" fill="#fff" fill-rule="evenodd"/></mask><path d="m45.723 39.273-11.733-13.198 5.786-7.807c1.928-2.575 1.365-5.875-1.126-7.725-2.41-1.851-5.785-1.45-7.633 1.126l-6.51 8.692v-5.634c0-3.138-2.41-5.472-5.463-5.472-3.054 0-5.545 2.334-5.545 5.472v24.546c0 3.139 2.491 5.472 5.545 5.472 3.053 0 5.464-2.253 5.464-5.472v-7.323l13.098 14.727c-3.134 1.77-6.75 2.737-10.607 2.737-12.295 0-22.34-10.06-22.34-22.454.001-12.313 10.047-22.373 22.341-22.373 12.375 0 22.34 10.06 22.34 22.373 0 4.587-1.367 8.772-3.617 12.313zm-45.723 14.727h54v-54h-54z" fill="#b5c1c9" fill-rule="evenodd" mask="url(#a)"/></svg>