<svg height="32" viewBox="0 0 110 32" width="110" xmlns="http://www.w3.org/2000/svg" xmlns:xlink="http://www.w3.org/1999/xlink"><mask id="a" fill="#fff"><path d="m.046.291h22.237v17.378h-22.237z" fill="#fff" fill-rule="evenodd"/></mask><mask id="b" fill="#fff"><path d="m0 .383h107.853v8.374h-107.853z" fill="#fff" fill-rule="evenodd"/></mask><g fill="#b5c1c9" fill-rule="evenodd"><path d="m15.128.291c-.838 2.134-1.719 4.275-2.659 6.437l-1.24 2.86-1.261-2.86c-.96-2.161-1.86-4.303-2.722-6.437h-6.996v.569c.783 0 1.426.643 1.426 1.435-.107 1.476-.242 2.953-.395 4.434l-.453 4.5c-.214 2.156-.475 4.304-.782 6.44h2.24c.135-2.136.312-4.284.527-6.44l.687-6.788c.988 2.068 1.948 4.139 2.87 6.221l.242.574c.96 2.147 1.863 4.295 2.73 6.432h.671c.843-2.137 1.733-4.285 2.66-6.442l.414-.918c.894-2.09 1.826-4.154 2.808-6.217l.713 7.144c.219 2.148.392 4.296.531 6.433h5.143c-.298-2.137-.56-4.285-.774-6.442l-.452-4.5c-.237-2.16-.409-4.302-.544-6.436h-5.385" mask="url(#a)" transform="translate(6.672 .126)"/><path d="m44.828 16.058c.57-1.066 1.17-2.142 1.808-3.214l6.224-10.377v-.448h-13.713v3.2l.55.01c0-.764.595-1.398 1.335-1.454.425-.01.844-.033 1.272-.033h4.43c-.555 1.053-1.141 2.11-1.77 3.164l-6.274 10.443v.446h14.807v-1.857c-1.048.082-2.1.12-3.153.12zm25.372 1.737c.046-.01.09-.01.146-.014-.1-1.066-.146-2.128-.146-3.2v-3.911h6.14v3.911c0 1.072-.041 2.148-.13 3.214h4.723c-.088-1.066-.116-2.142-.116-3.214v-9.334c0-1.085.028-2.151.116-3.228h-6.013v.504h.138c.667 0 1.203.54 1.25 1.205.016.504.033 1.007.033 1.519v3.685h-6.142v-3.685c0-1.085.047-2.151.129-3.228h-6.01v.504h.122c.67 0 1.214.526 1.267 1.192.008.512.017 1.02.017 1.532v10.918c-.613.08-1.244.107-1.896.107-.693 0-1.368-.046-2.036-.168-1.89-.35-2.188-2.11-2.188-3.223v-7.731c0-1.045.042-2.083.116-3.131h-6.003v.504h.12c.666 0 1.216.526 1.267 1.192.005.512.02 1.02.02 1.532v6.88c0 1.56.492 4.975 4.695 5.59 1.303.186 2.654.294 4.01.294 2.137 0 4.271-.075 6.37-.216m26.449-7.885c-.005-2.926-1.233-6.372-4.717-6.372-3.503 0-4.724 3.446-4.733 6.371.01 2.93 1.23 6.363 4.733 6.363 3.484 0 4.712-3.433 4.717-6.363m4.496 0c0 5.371-4.64 8.101-9.213 8.101-4.58 0-9.219-2.73-9.219-8.1 0-5.375 4.64-8.1 9.219-8.1 4.574 0 9.213 2.725 9.213 8.1m-64.588-4.663c0-1.085.042-2.151.13-3.228h-6.175v.558h.14c.786 0 1.42.662 1.42 1.459.014.4.019.811.019 1.21v9.335c0 1.072-.047 2.148-.126 3.214h4.723c-.088-1.066-.131-2.142-.131-3.214z"/><path d="m107.637 8.753c-17.43-3.079-35.374-4.704-53.711-4.704-18.32 0-36.271 1.625-53.706 4.704-.089.019-.186-.032-.214-.13-.024-.094.028-.204.135-.223 17.005-5.217 35.064-8.017 53.785-8.017 18.73 0 36.788 2.8 53.799 8.017.103.019.153.13.115.223-.012.098-.106.148-.203.13" mask="url(#b)" transform="translate(0 21.81)"/></g></svg>