<svg height="55" viewBox="0 0 211 55" width="211" xmlns="http://www.w3.org/2000/svg" xmlns:xlink="http://www.w3.org/1999/xlink"><mask id="a" fill="#fff"><path d="m0 .454h54v54.002h-54z" fill="#fff" fill-rule="evenodd"/></mask><g fill="none" fill-rule="evenodd"><path d="m247 4840h415v236h-415z" stroke="#ddd" transform="translate(-349 -4931)"/><g fill="#b5c1c9"><path d="m45.374.454h-36.748c-4.769 0-8.626 3.857-8.626 8.626v36.68c0 4.838 3.857 8.696 8.626 8.696h36.678c4.839 0 8.696-3.858 8.696-8.627v-.56s-13.956-5.822-21.04-9.258c-4.768 5.75-10.87 9.327-17.18 9.327-10.73 0-14.377-9.397-9.328-15.57 1.123-1.331 3.016-2.664 5.89-3.365 4.56-1.122 11.853.701 18.655 2.946 1.192-2.245 2.245-4.77 3.016-7.435h-21.039v-2.104h10.87v-3.857h-13.044v-2.103h13.114v-5.47s0-.912.912-.912h5.33v6.382h12.974v2.104h-12.974v3.857h10.59c-.983 4.138-2.525 7.995-4.489 11.362 3.226 1.192 6.101 2.244 8.275 3.016 7.715 2.593 9.468 2.734 9.468 2.734v-27.843c0-4.77-3.857-8.626-8.626-8.626" mask="url(#a)"/><path d="m8.043 31.086c-4.306 3.843-1.722 10.914 6.962 10.914 5.025 0 10.048-3.306 13.995-8.609-5.598-2.844-10.406-4.841-15.502-4.303-1.435.076-4.02.691-5.455 1.998m163.832-12.665h7.099l7.03 14.148 5.776-13.286c.14-.288.279-.503.557-.647.279-.144.557-.215.835-.215h3.828l-11.135 25.569c-2.714 6.966-9.187 5.96-10.37 5.96v-3.878c.904 0 3.897.072 5.22-1.508.277-.36.625-1.005.765-1.437.208-.43.347-.789.557-1.148l.765-1.868-10.927-21.689zm-7.436.72c-3.321-.912-7.581-1.123-13.357.352.216.562.434 1.546.65 2.108 9.169-1.546 10.902-.352 10.902 3.512v1.195c-1.66-.141-3.682-.352-5.27-.422-6.282-.07-8.52 4.707-8.52 7.798 0 5.34 5.198 10.327 13.79 6.604v.843h7.147v-16.228c0-3.162-2.815-5.059-5.342-5.761zm-9.314 15.087c0-2.849 2.208-5.021 4.949-5.247 1.752-.15 2.817.226 3.426.6v8.47c-.913.898-2.055 1.423-3.426 1.423-2.741-.075-4.949-2.399-4.949-5.246zm-31.406-13.988c0-.35.143-.7.36-.91.289-.28.578-.42.939-.42h5.631v1.75c.794-.63 1.733-1.19 2.744-1.61 1.01-.42 2.238-.63 3.61-.63 1.444 0 2.816.28 3.971.84 1.227.56 2.238 1.33 3.104 2.241.868.98 1.517 2.1 1.95 3.361.433 1.26.722 2.59.722 4.061 0 1.82-.289 3.5-.794 5.041-.578 1.54-1.3 2.872-2.383 3.992-1.011 1.12-2.238 2.03-3.682 2.66s-3.105.98-4.909.98c-.94 0-1.734 0-2.384-.07-.65-.069-1.3-.21-1.949-.49v8.964h-6.93v-29.759zm6.281 15.287c0 .564.071 1.058.282 1.55.21.494.493.917.844 1.27.352.352.844.633 1.337.845.493.211 1.126.282 1.69.282.562 0 1.125-.211 1.618-.564.493-.422.985-.916 1.337-1.621.351-.704.704-1.55.915-2.536.211-.987.352-2.044.352-3.172 0-1.48-.07-2.748-.282-3.876-.21-1.127-.493-2.043-.844-2.818-.352-.776-.774-1.34-1.267-1.691-.493-.353-1.055-.564-1.619-.564-.421 0-.844.07-1.266.21-.423.142-.774.354-1.127.635-.352.282-.703.564-1.055.916-.352.353-.633.705-.915 1.128zm-18.844-15.803c0-.362.125-.652.373-.941.249-.29.56-.362.871-.362h5.037v23.159h-6.219v-21.856zm-6.343 21.855h-6.22v-30.257c0-.367.125-.661.374-.955.248-.293.56-.367.87-.367h5.038v31.579zm-17.805 0h7.398l-13.819-31.579h-2.024c-.349 0-.627.074-.907.294-.279.22-.489.44-.628.734l-14.028 30.55h4.955l2.513-5.14h14.237l2.303 5.14zm-9.212-21.053 6.141 12.632h-12.561l6.421-12.632zm39.204-8.526c0 1.667-1.98 3-4.5 3s-4.5-1.333-4.5-3 1.98-3 4.5-3 4.5 1.333 4.5 3m93.25 0-1.5 2.467-1.5-2.467h-.75v4h.75v-2.666l1.2 1.933h.6l1.2-1.933v2.666h.75v-4zm-8.25 0v.533h1.745v3.467h1.01v-3.467h1.745v-.533z"/></g></g></svg>