<svg height="55" viewBox="0 0 54 55" width="54" xmlns="http://www.w3.org/2000/svg" xmlns:xlink="http://www.w3.org/1999/xlink"><mask id="a" fill="#fff"><path d="m0 .099h53.959v38.402h-53.959z" fill="#fff" fill-rule="evenodd"/></mask><g fill="#b5c1c9" fill-rule="evenodd"><path d="m27.922 45.976h.245v5.979c0 2.047-1.146 2.948-3.603 2.948-2.047 0-3.274-1.146-3.274-3.276v-5.65h1.8v5.978c0 .573.328 1.146.574 1.474.327.328.655.328.9.328.656 0 .9 0 1.228-.328s.328-.901.328-1.474v-5.979zm2.375 0v8.681h2.047v-3.603h3.355v-1.146h-3.355v-2.703h3.355v-1.229zm13.756 2.375c0-1.719-.901-2.62-3.276-2.62-3.359 0-3.604 1.72-3.604 4.422 0 3.276 0 4.75 3.604 4.75 1.474 0 2.7-.246 3.276-.246v-4.75h-3.276v1.147h1.474v2.703h-1.474c-1.557 0-1.557-1.229-1.557-3.603 0-1.802 0-3.277 1.557-3.277 1.146 0 1.474.901 1.474 1.475h1.802zm-29.643 3.932c0-.656-1.474-6.306-1.474-6.306h-3.028v8.68h1.8v-7.206c.328 1.228 2.13 7.206 2.13 7.206h1.474s1.474-5.978 1.802-7.206v7.206h2.128v-8.68h-3.029s-1.474 5.65-1.802 6.306zm12.694-40.857c-4.34 0-7.78 3.518-7.78 7.94 0 4.342 3.44 7.943 7.78 7.943 4.256 0 7.694-3.601 7.694-7.943 0-4.422-3.438-7.94-7.694-7.94"/><path d="m34.88.1c-2.783 0-5.484.655-7.86 1.884-2.455-1.229-4.91-1.885-7.613-1.885-10.563.001-19.407 8.844-19.407 19.078 0 10.563 8.844 19.324 19.406 19.324 2.703 0 5.158-.573 7.615-1.802 2.375 1.23 5.076 1.802 7.86 1.802 10.562 0 19.078-8.76 19.078-19.324 0-10.234-8.515-19.077-19.078-19.077m-7.86 36.273c-9.417 0-17.277-7.533-17.277-17.194 0-9.334 7.86-17.194 17.277-17.194 9.662 0 17.194 7.86 17.194 17.194 0 9.661-7.532 17.194-17.194 17.194" mask="url(#a)" transform="translate(0 .026)"/></g></svg>