<svg height="30" viewBox="0 0 90 30" width="90" xmlns="http://www.w3.org/2000/svg" xmlns:xlink="http://www.w3.org/1999/xlink"><mask id="a" fill="#fff"><path d="m.021.17h29.734v28.667h-29.734z" fill="#fff" fill-rule="evenodd"/></mask><mask id="b" fill="#fff"><path d="m0 29.77h90v-29.77h-90z" fill="#fff" fill-rule="evenodd"/></mask><g fill="#b5c1c9" fill-rule="evenodd"><path d="m45.363 10.112h-2.024v4.565h2.024c1.252 0 2.271-1.018 2.271-2.272 0-1.262-1.02-2.293-2.271-2.293"/><path d="m48.436 22.593s-3.462-4.807-3.59-4.982h-1.507v4.982h-2.93v-15.411h4.954c2.87 0 5.204 2.343 5.204 5.223 0 1.87-1.022 3.596-2.615 4.49.261.368 4.081 5.698 4.081 5.698zm-3.306-22.063c-7.925 0-14.354 6.428-14.354 14.355 0 7.93 6.43 14.36 14.354 14.36 7.935 0 14.36-6.43 14.36-14.36 0-7.927-6.424-14.355-14.36-14.355z"/><path d="m29.755 3.172v-3.002h-29.662v3.002h12.911v4.403c0 1.152-.022 1.769-.075 2.599h-11.915v3.031h11.454c-.848 3.457-3.53 8.893-11.982 11.89l-.465.166v3.519l.95-.363c8.924-3.425 12.272-7.283 13.873-12.182 1.925 4.99 6.51 8.994 13.937 12.187l.974.415v-3.635l-.483-.158c-6.989-2.276-11.155-7.56-12.294-11.839h11.76v-3.031h-12.438c-.079-.6-.144-1.334-.144-2.6v-4.401h13.598" mask="url(#a)" transform="translate(60.245 .933)"/><path d="m.702.97v3.28l6.039 3.282v-3.282z"/><path d="m11.451 13.07h6.771v-2.825h-6.77v2.826zm0-5.548h6.771v-2.486h-6.77v2.486zm17.558 9.465v-3.21l-6.051-3.29v3.28l5.926 3.22h-12.56v-1.132h4.925v-13.574h-5.249l.7-2.281h-3.229l-.698 2.281h-4.321v2.9l-.002-.003v3.282h.002v1.106l-.002.002v3.278h.002v3.01h4.839v1.13h-12.46l5.91-3.21v-3.28l-6.031 3.277v6.151h10.125c-2.151 2.052-5.477 4.467-10.364 6.159l-.471.164v3.094l.937-.339c5.296-1.908 9.44-4.373 12.354-7.336v8.104h3.034v-8.102c2.952 3.013 7.117 5.46 12.42 7.282l.926.317v-3.086l-.48-.156c-4.9-1.63-8.247-4.042-10.411-6.101h10.232v-2.937z" mask="url(#b)"/><path d="m29.009 4.25v-3.28l-1.031.561-5.02 2.726v3.282z" mask="url(#b)"/></g></svg>