<svg height="45" viewBox="0 0 162 45" width="162" xmlns="http://www.w3.org/2000/svg"><g fill="#b5c1c9" fill-rule="evenodd"><path d="m2.149 36.957h-.105l-.306.027-.385.092-.318.146-.292.2-.225.239-.16.291-.106.318-.039.279v.093.053l.013.173.039.225.067.226.106.238.159.253.212.252.265.279.253.225.079.066.412.332.066.066.199.173.226.199.172.199.133.173.106.185.067.173.026.186.013.159v.053.053l-.013.159-.066.199-.093.185-.133.173-.173.146-.212.107-.252.079-.212.027h-.067-.039l-.106-.014-.173-.013-.186-.04-.185-.079-.186-.106-.173-.147-.132-.212-.067-.186-.013-.066-.013-.026-.014-.146v-.106-.04-.014-.013l-.013-.027v-.026l-.013-.026-.013-.027-.014-.013-.039-.013-.027-.014h-.013-.013l-.027.014-.04.013-.013.026-.026.027v.039l-.014.027v.04l-.013.013v.014.013.039.04.014.04l-.013.119-.014.199-.013.225v.2.066.04.119l.027.106.052.067.067.053.027.012.066.028.199.079.305.08.318.053.266.013h.079.107l.292-.026.371-.08.332-.119.226-.12.079-.04.053-.039.146-.134.172-.185.134-.199.105-.199.08-.199.053-.213.04-.198.013-.133v-.053-.066l-.013-.187-.04-.252-.079-.251-.12-.252-.186-.266-.225-.279-.306-.291-.278-.239-.106-.067-.252-.199-.067-.066-.225-.186-.239-.212-.186-.186-.133-.173-.106-.159-.066-.159-.04-.159-.013-.12v-.04-.052l.026-.16.053-.186.093-.159.12-.146.159-.119.172-.08.2-.052.172-.014h.053.067l.185.014.212.026.186.066.133.067.106.066.08.066.066.066.026.054v.013l.014.013.026.08.04.106.027.119v.08l.013.026v.027.027l.013.026.013.026.014.027.026.027.027.013h.027.013.013.026l.04-.027.014-.04.026-.04v-.039l.013-.04v-.053-.026-.014-.079-.239l.014-.252.013-.186v-.093-.026l.013-.067v-.013l-.013-.04-.027-.053-.053-.013-.052-.013h-.014-.013-.04l-.053-.014-.093-.013-.079-.013h-.027l-.067-.014-.332-.052-.344-.027zm9.266.003h-.014-.026l-.053.014-.04.052-.039.054-.027.053v.013l-.013.013-.014.04-.026.08-.054.106-.052.119-.067.146-.066.159-.08.186-.092.199-.094.213-.092.238-.106.226-.106.252-.107.252-.106.252-.119.252-.107.266-.119.252-.106.239-.106.252-.106.239-.093.225-.093.213-.093.198-.079.186-.08.173-.053.146-.067.119-.04.106-.026.08-.026.04v.013l-.014.013v-.013l-.026-.053-.04-.08-.04-.093-.053-.132-.066-.146-.08-.173-.093-.172-.079-.212-.107-.213-.105-.225-.107-.239-.106-.252-.119-.253-.107-.251-.119-.253-.12-.265-.119-.252-.106-.252-.119-.239-.107-.239-.093-.225-.105-.213-.08-.212-.093-.173-.066-.172-.067-.146-.066-.133-.04-.092-.039-.08-.014-.04-.013-.013v-.014l-.027-.053-.04-.052-.04-.04-.052-.014h-.027-.04l-.026.026-.027.028-.026.026-.014.04v.026l-.013.04v.027.013l-.013.053-.014.185-.039.293-.027.371-.053.451-.053.491-.053.544-.053.544-.053.544-.067.531-.039.504-.054.438-.039.385-.027.278-.027.2v.066.026l-.013.08-.013.119-.013.106-.027.094-.039.079-.04.066-.054.054-.053.026h-.026-.013l-.066.013h-.054l-.053.014h-.04-.013-.013-.04l-.053.026-.027.04-.013.026v.014.026l.013.014v.026l.027.027.027.013.026.026h.053l.04.013h.026.027.093l.146-.013h.146l.066-.013h.027.026.04.053.027.026.04.066.067.013.027.079l.16.013h.172l.133.013h.04.026.04l.026-.013.04-.013.027-.013.026-.027.027-.026v-.04-.013-.014l-.013-.026-.027-.04-.04-.026h-.04-.013-.013l-.053-.014h-.066l-.08-.013-.067-.013h-.013l-.026-.013-.053-.014-.04-.053-.04-.066-.013-.054v-.026-.053-.172-.186l.013-.04v-.04l.013-.133.014-.185.013-.252.026-.305.027-.332.026-.358.027-.372.026-.371.04-.359.027-.331.013-.292.027-.266.013-.186.013-.132v-.04l.027.053.066.146.093.212.132.292.147.332.172.385.185.411.187.411.185.425.186.398.173.385.159.331.132.293.093.225.067.132.026.054.027.053.079.159.067.133.066.053.04.013h.013.026l.053-.013.054-.053.066-.119.066-.147.014-.039.026-.054.066-.146.094-.225.132-.305.159-.345.173-.385.172-.424.199-.425.186-.425.186-.424.159-.385.16-.345.132-.305.093-.226.066-.146.027-.053v.053l.013.146.013.212.027.279.026.345.04.371.026.399.04.411.04.411.027.399.04.371.026.332.027.292.013.212.013.145.014.054v.013.053.054.012.014.04.053.04l-.014.026h-.013l-.027.013-.026.027-.013.039v.028.012.027l.013.04.026.013.04.027.04.013.053.013h.053l.053.013h.013.027.119l.186.013h.199.226.199.186.159.066.027.026l.053-.013.053-.013.04-.013.04-.027.014-.026.012-.013v-.027-.013-.014-.012l-.012-.04-.04-.027-.054-.013h-.026-.013-.067l-.119-.014-.146-.026-.133-.027-.039-.013-.027-.013-.079-.04-.093-.093-.067-.106-.053-.133-.027-.132-.026-.133-.026-.133v-.08l-.014-.04-.557-5.506v-.013-.026l-.014-.054v-.053l-.013-.053-.026-.039-.027-.028-.04-.026zm4.675.122h-.344l-.252.014h-.04l-.344.013h-.107l-.052-.013h-.133l-.226-.014h-.585l-.04.014-.026.013-.026.027-.014.04-.013.026v.026l.013.04.027.04.04.027.04.013h.252l.04.013h.013l.04.013.119.04.093.08.066.133.013.132.014.053v.226l.013.146v4.285l-.013.452-.027.252v.093l-.013.04-.027.133-.04.132-.052.093-.054.026-.026.014h-.027l-.12.026h-.132l-.04.014-.04.026-.026.04-.013.04v.013l.013.04.013.026.027.027.04.026h.026l.04.013h.213l.172-.013h.185l.12-.013h.24l.358.013h.053l.186.013.252.014.212.013h.213l.212-.013.265-.04.252-.053.226-.066.213-.094.198-.105.173-.133.159-.133.133-.145.12-.16.106-.173.092-.172.066-.173.04-.185.027-.186.013-.146v-.146l-.04-.292-.106-.345-.172-.305-.2-.252-.238-.225-.253-.173-.251-.133-.186-.08-.066-.013.053-.027.119-.105.146-.146.133-.173.119-.185.093-.213.08-.226.04-.252.012-.199v-.173l-.013-.105-.026-.106-.04-.12-.053-.12-.067-.119-.08-.106-.092-.12-.12-.105-.132-.093-.159-.08-.173-.08-.186-.066-.225-.04-.239-.026-.2-.014h-.065zm-.57 2.867v-2.415l.014-.014h.013l.027-.012h.04l.185-.027.146-.013h.132l.213.026.252.106.186.146.159.185.12.226.079.252.04.266.026.199v.132l-.026.173-.054.226-.106.212-.092.146-.04.04-.014.013-.04.053-.066.053-.066.04-.066.026-.094.014-.119.013h-.504l-.16-.013-.105-.014h-.04l-.013-.013h-.013zm.2 3.476-.054-.04-.04-.053-.04-.053-.012-.067-.014-.092-.013-.12-.013-.093v-.345l-.014-.225v-1.95h.265l.2.013h.225l.04.013.119.013.173.04.172.066.16.093.053.027.066.053.186.159.199.24.145.238.107.252.066.24.053.21.013.2v.358l-.04.173-.053.159-.066.146-.092.106-.093.106-.093.08-.106.067-.12.052-.093.04-.106.027-.092.013-.08.013-.08.013h-.292l-.106-.013-.12-.013-.12-.027-.105-.026-.08-.04-.026-.013h-.014l-.066-.04zm7.941-6.482h-.159-.053-.107l-.304.026-.385.053-.358.093-.332.106-.305.146-.279.186-.265.199-.173.172-.053.067-.066.08-.173.225-.199.319-.146.331-.119.332-.093.332-.053.319-.027.305-.013.198v.08.106l.026.305.067.385.093.371.119.345.146.332.186.293.225.278.173.199.066.053.066.066.213.159.305.2.305.159.345.133.358.092.385.067.411.026.332.014h.107l.106-.014.292-.013.424-.053.385-.066.239-.08.079-.04h.014l.039-.027.054-.026.039-.026.027-.027.013-.039.027-.04.013-.054.013-.039.014-.027v-.027l.026-.106.026-.173.027-.185.027-.186.013-.172.013-.146.014-.106v-.053-.014-.013-.04l-.014-.053-.013-.027-.027-.026-.013-.013-.027-.013h-.013-.013-.013-.027l-.039.013-.014.026-.026.027-.014.026v.027l-.013.04v.013.013l-.013.04-.027.119-.053.2-.079.198-.08.133-.027.04-.026.027-.093.093-.146.106-.146.079-.173.053-.185.053-.186.027-.212.013-.172.014h-.054-.079l-.226-.014-.292-.04-.292-.066-.278-.107-.265-.132-.253-.159-.239-.186-.172-.159-.053-.053-.054-.053-.132-.173-.172-.252-.146-.265-.133-.279-.093-.292-.079-.292-.054-.305-.013-.239v-.066l-.013-.08v-.211l.013-.306.027-.292.053-.305.093-.292.119-.292.159-.279.159-.212.053-.053.04-.04.119-.119.173-.133.212-.119.213-.093.239-.067.265-.066.292-.027.225-.026h.08.066l.199.014.266.012.239.054.225.053.199.066.173.08.145.093.093.053.027.026.04.04.093.12.106.198.08.239.026.2.013.066v.013.027.039l.014.04.013.04.013.04.027.026.026.014.04.013.013-.013h.027l.04-.014.026-.039.014-.027.013-.04v-.04-.039-.04-.319-.052-.266-.252-.04-.053l.013-.186.013-.132v-.014-.12-.012-.054l-.039-.053-.054-.026-.053-.013h-.026-.053l-.332-.04-.345-.053-.08-.014h-.027l-.092-.026-.292-.027-.345-.026zm-22.325-19.903v17.05l7.006-2.959v-17.05zm22.818-17.04-7.005 2.959v17.05l7.005-2.959zm-14.911 13.696v17.05l7.006-10.363v-17.036zm61.844 8.452v5.772h-5.759v-.027l.013-.093v-.146l.014-.185.013-.199v-.372l.013-.159v-4.591zm0-4.684v2.853h-5.707v-2.853h-2.8v2.853h-3.66v1.831h3.662v4.127l-.014.199v.239l-.013.252-.013.265-.026.252-.014.239-.013.146-.013.053h-3.556v1.818h3.237l-.027.093-.066.292-.133.358-.132.371-.16.345-.185.345-.173.319-.199.318-.199.292-.212.279-.2.279-.211.239-.2.238-.185.212-.186.2-.16.172-.118.12-.04.026.915 1.778.04-.04.146-.093.252-.172.279-.2.305-.252.345-.291.345-.332.372-.359.371-.384.372-.425.358-.464.331-.478.319-.504.292-.544.252-.557.199-.584.12-.451.026-.146h6.077v5.864h2.734v-5.864h3.356v-1.818h-3.356v-5.772h3.356v-1.83h-3.356v-2.854zm79.908 2.602h10.416v-1.911h-10.416zm-.579 3.612v1.831h6.277v7.298.053l-.014.132-.053.16-.08.132-.092.12-.133.08-.146.066-.16.04-.132.013h-.04-2.72l.319 1.831h3.529.067l.212-.013.265-.014.252-.039.239-.054.212-.066.199-.092.173-.094.146-.132.146-.146.119-.159.106-.186.08-.212.066-.226.04-.266.026-.278.014-.226v-.079-7.643h2.667v-1.831zm-7.561 3.598.862 1.286.16-.092.729-.451.717-.491.132-.093v8.173h2.508v-10.283l.159-.159.492-.491.57-.624.491-.597.318-.398.106-.146-1.884-1.406-.066.093-.186.291-.265.385-.292.398-.319.385-.318.398-.332.398-.345.398-.345.385-.358.372-.358.371-.372.358-.358.346-.372.331-.358.305-.358.292-.265.213zm6.839-8.681-1.923-1.539-.066.092-.2.279-.278.372-.292.384-.292.359-.319.371-.305.345-.318.345-.319.332-.305.318-.319.305-.291.279-.293.265-.265.253-.252.212-.238.199-.16.133-.053.04.968 1.34.067-.04.199-.093.306-.173.331-.199.345-.226.372-.251.371-.279.385-.292.385-.318.398-.319.385-.345.371-.358.358-.345.346-.372.331-.358.292-.358.212-.265zm-56.162 14.665v-5.069h4.538v-1.764h-4.538v-4.339h4.989v-1.778h-5.639.027l1.486-.955-.053-.04-.133-.146-.199-.199-.212-.199-.226-.199-.225-.212-.239-.213-.239-.199-.239-.199-.238-.186-.226-.185-.226-.173-.199-.159-.186-.146-.172-.119-.146-.107-.093-.066-.04-.013-2.003 1.274.079.053.199.172.332.279.345.305.372.332.371.345.358.332.345.331.226.226.08.066h-5.919v1.778h5.003v4.339h-4.565v1.764h4.565v5.069h-5.44v1.778h13.521v-1.778zm-7.423-15.341-2.495-1.022-.027.067-.052.172-.094.306-.132.371-.146.438-.186.491-.199.544-.226.57-.251.611-.279.624-.305.65-.332.65-.358.65-.372.637-.411.623-.425.598-.331.424-.12.146.863 1.447.106-.08.318-.279.425-.411.425-.451.318-.372.106-.119v10.402h2.507v-13.813l.04-.052.08-.173.133-.252.133-.265.132-.279.133-.279.12-.278.132-.279.12-.278.119-.266.106-.265.106-.252.093-.239.08-.213.053-.185.053-.173.027-.106zm-46.652 9.934h15.033v-2.229h-15.033zm-.822-6.631h16.666v-2.229h-16.666zm-.724 13.816h18.112v-2.242h-18.112zm70.633-9.26h5.626l-.04.146-.12.464-.185.598-.225.583-.266.57-.305.572-.358.53-.399.531-.331.398-.12.12-.145-.106-.439-.346-.543-.49-.491-.531-.451-.557-.399-.57-.344-.611-.266-.637-.159-.491zm10.88 7.63-.132-.04-.412-.093-.61-.172-.65-.186-.703-.213-.744-.251-.769-.28-.783-.331-.61-.279-.2-.093.08-.092.253-.265.331-.386.319-.397.305-.425.279-.425.278-.451.252-.464.252-.478.213-.478.212-.49.186-.505.172-.504.146-.505.12-.517.106-.504.066-.385.013-.132h-9.128l.052-.213.213-1.048.186-1.101.026-.213h10.589v-1.857h-10.376l.026-.226.093-1.14.066-1.195.014-.239h-2.893v.053l-.013.16v.278l-.026.332-.014.372-.026.397-.027.412-.027.398-.026.305-.014.093h-4.882v1.857h4.67l-.013.173-.08.53-.119.717-.146.73-.16.756-.185.757-.212.77-.252.769-.266.796-.305.782-.332.797-.385.796-.411.81-.451.795-.49.797-.545.796-.438.584-.146.199.942 1.565.027-.013.066-.053.146-.133.2-.199.251-.265.292-.332.332-.398.358-.451.385-.504.411-.558.411-.623.426-.664.437-.716.425-.77.411-.81.411-.848.292-.677.093-.225.04.172.186.478.278.636.319.598.371.57.398.544.438.518.451.49.372.359.12.106-.133.093-.398.265-.584.332-.61.332-.65.318-.704.292-.743.279-.796.265-.624.199-.212.053.862 1.526.067-.013.186-.053.278-.067.305-.08.332-.106.358-.106.372-.132.398-.133.424-.159.425-.173.438-.186.438-.198.464-.213.451-.225.451-.253.451-.265.346-.199.106-.08.106.067.318.199.425.252.424.239.438.225.425.2.438.199.411.185.425.173.398.159.398.146.371.132.372.12.345.106.318.093.292.08.2.053.065.026zm4.586-11.086.107-.092.305-.305.398-.398.358-.399.332-.384.292-.359.266-.345.211-.318.133-.212.04-.08.04.08.16.225.225.318.265.359.292.358.332.385.358.384.371.399.306.292.106.092h-4.896zm5.122 1.593v-1.38l.054.04.557.477.066.04.823-1.778-.053-.053-.16-.16-.212-.225-.212-.238-.212-.253-.226-.265-.199-.265-.2-.266-.198-.265-.186-.266-.172-.252-.16-.265-.159-.239-.132-.225-.12-.226-.093-.2-.066-.132-.014-.04h-2.892l-.027.067-.08.185-.132.266-.146.278-.159.306-.186.292-.199.318-.212.305-.226.319-.225.305-.253.318-.251.306-.266.292-.266.291-.264.279-.28.265-.212.173-.066.066.716 1.659.094-.067.451-.331.45-.345.08-.08v.969h1.818v1.751h-2.985v1.592h2.985v5.865l-.08.013-.251.04-.372.066-.398.067-.411.053-.438.066-.425.067-.424.053-.32.04h-.105l.584 2.017.132-.027.399-.093.543-.133.571-.132.57-.133.571-.146.57-.146.558-.133.544-.145.531-.133.504-.146.464-.12.438-.133.385-.106.345-.106.292-.106.16-.053.065-.026v-1.566l-.08.027-.211.052-.332.093-.345.093-.372.093-.371.08-.385.093-.371.08-.266.052-.08.014v-5.44h2.813v-1.593h-2.813v-1.751z"/><path d="m124.095 28.396h-1.832l.531 3.49h1.672zm9.135-3.151h4.06v-2.19h-4.06zm0-3.715h4.06v-2.163h-4.06zm4.618 9.262.026-.014.08-.04.12-.079.145-.093.16-.12.172-.118.186-.133.199-.133.185-.16.2-.145.199-.146.185-.16.186-.145.172-.146.146-.146.146-.133.08-.093.04-.026-1.5-1.354-.053.067-.159.172-.252.266-.279.291-.291.292-.292.279-.292.265-.253.213-.145.133-.053.039-.107-.146-.265-.49-.319-.65-.278-.677-.16-.505-.052-.173h3.808v-8.97h-8.545v17.82l.08-.012.238-.04.332-.08.345-.093.358-.092.358-.12.372-.12.371-.132.359-.133.345-.146.345-.133.318-.145.305-.146.279-.133.252-.12.213-.119.145-.093.04-.026v-1.685l-.053.026-.172.08-.319.132-.371.146-.398.146-.412.133-.411.133-.372.106-.225.053-.08.027v-6.264h.796l.027.146.093.439.172.583.2.61.225.611.265.61.292.61.319.598.331.597.372.597.37.57.4.558.41.531.425.518.438.477.438.464.331.319.12.106 1.646-1.898-.08-.053-.252-.199-.359-.305-.371-.332-.398-.371-.398-.398-.398-.438-.399-.451-.304-.372zm-8.235.36.464-2.747h-1.765l-.331 2.747z"/></g></svg>