<svg height="51" viewBox="0 0 155 51" width="155" xmlns="http://www.w3.org/2000/svg" xmlns:xlink="http://www.w3.org/1999/xlink"><mask id="a" fill="#fff"><path d="m0 .289h55.651v50.282h-55.651z" fill="#fff" fill-rule="evenodd"/></mask><g fill="#b5c1c9" fill-rule="evenodd"><path d="m51.856 32.657c-.246 1.052-.94 4.343-4.083 4.343-.615 0-1.31-.103-1.773-.39l.618-2.528c.197.407.615.713 1.138.713 1.174 0 1.404-1.289 1.62-2.138l2.126-8.657h2.498zm5.674 3.196h-.049c-.503.652-1.137 1.147-1.935 1.147-2.015 0-1.61-3.119-1.252-4.509.374-1.49 1.45-4.491 3.544-4.491.83 0 1.252.532 1.35 1.235h.048l.26-1.064h2.504l-2.244 8.657h-2.486zm1.04-3.395c.132-.481.555-2.315-.291-2.315-.847 0-1.367 1.817-1.481 2.315-.146.549-.569 2.331.309 2.331.797 0 1.349-1.867 1.463-2.331zm7.897-3.233h.035c.465-.698 1.153-1.225 1.957-1.225 2.066 0 1.587 2.978 1.2 4.457-.352 1.379-1.505 4.473-3.51 4.473-.804 0-1.187-.49-1.33-1.138h-.035l-1.33 5.208h-2.454l3.288-12.83h2.453zm.757 3.199c.112-.495.513-2.298-.291-2.298-.832 0-1.345 1.82-1.458 2.298-.113.46-.547 2.313.257 2.313.882 0 1.348-1.77 1.492-2.313zm7.306 3.429h-.032c-.506.652-1.138 1.147-1.936 1.147-2.032 0-1.626-3.119-1.269-4.509.392-1.49 1.464-4.491 3.545-4.491.829 0 1.252.532 1.367 1.235h.03l.278-1.064h2.487l-2.227 8.657h-2.503zm1.057-3.395c.115-.481.538-2.315-.308-2.315-.83 0-1.35 1.817-1.482 2.315-.145.549-.569 2.331.31 2.331.797 0 1.348-1.867 1.48-2.331zm8.743-2.918h.03c.545-.84 1.461-1.54 2.422-1.54 1.813 0 1.153 2.027.835 3.303l-1.43 5.697h-2.452l1.204-4.84c.112-.456.592-1.677-.192-1.677-.547 0-.803.576-.917 1.012l-1.36 5.505h-2.47l2.213-8.825h2.452zm13.218-5.54 1.153 7.653 1.805-7.653h2.494l-3.158 13h-2.373l-1.17-7.846-1.804 7.846h-2.495l3.159-13zm11.862 9.144h-3.922c-.148.636-.534 2.005.42 2.005.627 0 .92-.481 1.047-.992h2.1c-.616 1.59-1.728 2.843-3.536 2.843-2.504 0-2.841-2.177-2.294-4.32.534-2.076 1.97-4.68 4.553-4.68 1.633 0 2.78 1.427 1.939 4.148l-.306.996zm-1.663-1.696c.145-.568.29-1.598-.485-1.598-.758 0-1.161 1-1.306 1.545l-.065.259h1.808zm12.253 5.552 3.25-13h2.52c1.002 0 1.857.034 2.507.707.697.687.873 1.844.602 2.93-.284 1.158-.934 2.034-2.06 2.69.934.518 1.126 1.899.839 3.015-.633 2.572-2.807 3.658-5.152 3.658zm3.995-5.67-.887 3.514c1.029.051 1.824-.706 2.095-1.792.253-1.019-.193-1.76-1.208-1.723zm1.285-5.175-.791 3.174c.967 0 1.694-.656 1.948-1.64.24-.948-.16-1.584-1.157-1.534zm7.238 9.698h-.03c-.505.652-1.14 1.147-1.94 1.147-2.018 0-1.612-3.119-1.254-4.509.375-1.49 1.453-4.491 3.551-4.491.83 0 1.254.532 1.352 1.235h.048l.26-1.064h2.495l-2.234 8.657h-2.49zm1.06-3.395c.132-.481.556-2.315-.31-2.315-.83 0-1.351 1.817-1.48 2.315-.131.549-.555 2.331.324 2.331.799 0 1.351-1.867 1.466-2.331zm8.752-2.918h.03c.53-.84 1.461-1.54 2.422-1.54 1.813 0 1.153 2.027.835 3.303l-1.43 5.697h-2.452l1.204-4.84c.113-.456.591-1.677-.192-1.677-.564 0-.803.576-.916 1.012l-1.379 5.505h-2.452l2.196-8.825h2.47zm9.837-6.54-2.157 8.311 2.225-3.075h2.765l-3.197 4.025 1.358 4.739h-2.783l-.781-4.062-1.062 4.062h-2.535l3.632-14zm-36.811 4h-2.593l-.441 1.544h-.897l-.528 1.946h.901l-1.798 6.51h2.594l1.797-6.51h1.067l.542-1.946h-1.067z"/><path d="m55.448 13.318c-.434-.166-1.459 1.481-2.289 3.68-.051.137-.1.272-.147.406l-17.502 9.046c-1.025-2.074-4.182-3.59-7.93-3.59-.125 0-.256.004-.382.011l-2.323-7.178c.96-.887 1.937-1.843 2.931-2.858 5.75-5.88 9.624-11.43 8.647-12.4-.977-.97-6.419 3.01-12.17 8.89-5.748 5.877-9.626 11.43-8.649 12.4.608.608 2.996-.742 6.119-3.289l2.996 4.729c-2.275.503-4.086 1.604-4.933 2.992l-17.936-6.889c0-.059-.017-.117-.034-.176-.256-1.122-.847-1.94-1.329-1.826-.479.11-.656 1.108-.4 2.23.24 1.118.848 1.94 1.33 1.825.368-.086.56-.72.512-1.528l17.344 8.027v.1c0 2.789 3.7 5.053 8.278 5.053.096 0 .177-.003.256-.003l-1.824 3.15c-1.36.007-2.388.384-2.515 1.043-.064.307.08.634.37.959l-11.853 10.778c-.225-.18-.495-.345-.8-.48-1.01-.441-2.019-.383-2.227.128-.225.514.417 1.287 1.442 1.726 1.008.441 2.02.386 2.224-.128.113-.256 0-.577-.256-.887l12.606-10.312c.608.324 1.377.604 2.224.787.882.186 1.715.238 2.42.183l9.927 6.174c-.622.428-.977.918-.865 1.297.209.608 1.524.715 2.949.242 1.424-.473 2.418-1.35 2.21-1.957-.195-.604-1.507-.71-2.931-.238-.321.107-.642.238-.912.383l-8.907-6.275c.304-.165.5-.382.547-.641.208-.942-1.476-2.092-3.734-2.572-.144-.03-.27-.058-.414-.082l3.54-3.738c2.753-.78 4.707-2.46 4.803-4.424l16.894-9.902c-.513 1.667-.64 2.969-.287 3.107.447.165 1.459-1.481 2.289-3.683.816-2.198 1.138-4.12.69-4.29" mask="url(#a)"/><path d="m10.546 49.732c-.745-.303-1.545-1.037-1.545-1.415 0-.689 1.249-.789 2.428-.193l.642.323 5.697-5.108c3.132-2.81 5.819-5.226 5.974-5.371l.276-.265-.207-.457c-.197-.434-.197-.475-.014-.758.248-.375.825-.616 1.707-.716l.69-.076.945-1.597.945-1.597-1.093-.083c-2.66-.193-4.926-1.03-6.253-2.3-.724-.695-.973-1.122-1.217-2.107l-.18-.723-8.715-3.983c-4.794-2.193-8.744-3.986-8.77-3.986-.032 0-.06.193-.06.43 0 .234-.065.555-.145.71-.486.96-1.527-.369-1.641-2.097-.128-1.952 1.031-1.894 1.604.08l.13.45 8.971 3.408c4.936 1.873 9.033 3.408 9.105 3.408.07 0 .314-.227.542-.502.745-.91 2.793-2.055 4.1-2.296.235-.042.429-.124.429-.176 0-.09-2.78-4.5-2.96-4.7-.045-.044-.772.431-1.617 1.058-1.614 1.198-3.56 2.282-4.094 2.282-1.238 0-.5-1.924 2.031-5.305 4.453-5.945 12.485-13.505 16.559-15.578 1.87-.953 2.411-.516 1.563 1.26-1.3 2.724-5.139 7.42-9.581 11.715-.983.95-1.787 1.787-1.787 1.86 0 .075.517 1.714 1.145 3.645l1.145 3.511 1.287.07c2.583.137 4.749.96 6.125 2.323.434.427.838.874.904.995.103.2.827-.148 8.957-4.3l8.84-4.513.579-1.294c.824-1.839 1.655-3.026 1.927-2.754.29.289-.182 2.582-.903 4.392-.704 1.773-1.694 3.402-2.063 3.402-.238 0-.206-1.237.06-2.255.117-.455.179-.823.14-.823-.041.004-3.907 2.224-8.59 4.937-8.44 4.892-8.516 4.94-8.582 5.336-.241 1.48-2.031 3.111-4.18 3.807-.52.169-.79.4-2.373 2.059-.983 1.025-1.786 1.89-1.786 1.92 0 .031.193.094.427.135.656.124 1.949.595 2.487.912 1.076.627 1.487 1.498.949 1.997-.152.145-.207.272-.142.334.059.058 2.086 1.477 4.504 3.157l4.394 3.057.749-.268c.99-.356 2.404-.445 2.807-.183 1.449.95-2.91 3.095-4.528 2.23-.338-.182-.259-.63.2-1.136.231-.254.396-.474.372-.495-.024-.018-2.255-1.391-4.96-3.047l-4.917-3.012-1.077-.09c-1.23-.096-2.32-.344-3.176-.723l-.597-.26-4.949 4.003c-2.721 2.2-5.6 4.533-6.401 5.184l-1.452 1.18.186.324c.49.847-.597 1.206-1.97.648h.004z"/></g></svg>