<svg height="22" viewBox="0 0 162 22" width="162" xmlns="http://www.w3.org/2000/svg" xmlns:xlink="http://www.w3.org/1999/xlink"><mask id="a" fill="#fff"><path d="m0 .244h18.34v21.647h-18.34z" fill="#fff" fill-rule="evenodd"/></mask><mask id="b" fill="#fff"><path d="m.081.082h18.204v18.125h-18.204z" fill="#fff" fill-rule="evenodd"/></mask><g fill="#b5c1c9" fill-rule="evenodd"><path d="m143.498 7.604s.135-.89.19-1.105c.324-1.886-2.028-2.318-3.622-2.318-1.379 0-4.109.35-4.379 2.318-.298 2.048-1.73 11.158-1.92 12.317-.242 1.509.541 2.425 3.65 2.425 3.216 0 4.19-1.185 4.352-2.237l1.162-7.654s.378-2.344 2.19-2.344h4.837l-1.46 8.705s-.512 3.072 2.812 3.072h5.298c2.46 0 3.136-.647 3.46-2.48.135-.808-.163-1.778-1.865-1.778-.73 0-.974-.297-.811-1.455.135-.89.973-6.064.973-6.064h1.973c1.595 0 2.514-4.286.54-4.286h-1.865s.217-1.32.352-2.237c.135-.916-1.245-1.723-3.947-1.723-3.54 0-4.46 1.401-4.54 1.94-.217 1.32-.325 2.021-.325 2.021h-3.108c-1.514-.027-3.433 1.429-3.947 2.884m-85.995-3.812c-6.15 0-9.361 2.512-9.361 9.426 0 5.753 2.937 8.022 9.361 8.022 8.84 0 8.813-5.888 8.813-6.077 0-1.053-1.51-1.89-3.926-1.89-2.388 0-3.541.81-3.541 1.593 0 2.134-2.636 1.89-2.636.297v-4.997c0-.972.769-1.377 1.29-1.377.77 0 1.346.837 1.346 1.27 0 .431 1.07 1.7 3.816 1.7 2.416 0 3.816-.944 3.816-2.052.027-3.62-3.514-5.915-8.978-5.915m-24.23 10.845c-1.898 0-3.369.51-3.77 1.315-.48 1.047-2.833 1.208-2.833-1.047v-1.208h8.635c1.336 0 2.138-.43 2.138-2.416 0-7.489-7.11-7.489-9.223-7.489-8.26 0-9.116 4.966-9.116 8.885 0 5.69 2.112 8.563 9.063 8.563 7.646 0 8.768-3.865 8.768-4.805.027-.993-1.55-1.798-3.662-1.798m-5.026-6.148c1.524 0 1.55 1.69 1.55 1.69h-3.127s.026-1.69 1.577-1.69"/><path d="m13.821 7.686c1.09 0 3.668.055 3.668-2.09 0-3.559-3.774-5.352-8.266-5.352-3.057 0-9.223.734-9.223 6.763 0 2.88 1.86 4.726 3.907 5.297 1.382.407 4.146 1.385 5.077 1.765 1.887.733 1.17 3.015-.266 3.015-.877 0-1.196-.435-1.648-2.01-.399-1.44-7.07-1.954-7.07.706 0 2.906 2.233 6.111 9.17 6.111 7.336 0 9.17-4.128 9.17-7.224 0-3.884-2.818-4.862-4.864-5.623-1.01-.38-4.094-1.44-4.944-1.738-.957-.326-.957-2.227.585-2.227.877 0 1.17 1.005 1.302 1.33.292.816 1.86 1.277 3.402 1.277" mask="url(#a)"/><path d="m125.466 4.552c-6.61 0-8.223 2.786-8.223 4.152 0 .868.602 1.893 2.486 1.893 2.295 0 3.497-1.735 5-1.735.956 0 1.256.526 1.256 1.078 0 .762-.464 1.077-2.786 1.077-4.808 0-7.677 1.314-8.469 5.415-.464 2.339.492 4.757 4.535 4.757 3.797 0 4.835-1.735 5.573-2.76l-.11.552c-.109.63-.41 2.26 3.388 2.26 3.06 0 3.906-1.34 4.07-2.313.3-2.076.847-5.414 1.448-8.91.82-5.098-3.961-5.466-8.168-5.466m-2.049 12.037c-.519 0-1.12-.157-1.12-1.025 0-1.76 2.677-1.366 3.17-1.918-.192 1.05-.41 2.943-2.05 2.943"/><path d="m17.504 13.044s-2.104 5.109-8.226 5.163c-5.799 0-9.198-4.701-9.198-8.995 0-4.701 3.857-9.13 9.278-9.13 5.502 0 8.926 4.918 8.926 8.315 0 3.532-3.613 4.81-6.472 4.049 3.21 0 3.722-2.853 3.722-3.968 0-1.467-1.43-3.206.296-4.674.324-.298.162-.38-.053-.298-.297.108-1.915.407-2.536 3.288-.296 1.331-.728 2.989-2.32 3.342 0 .027 1.457-.951 1.457-2.99 0-2.363-1.483-2.988-1.483-4.945 0-.924.62-1.386.62-1.386s.432-.353-.485-.19c-1.456.245-3.83 1.74-3.83 4.865 0 1.142.432 1.957.432 3.044 0 1.984-1.376 2.065-1.673 2.065-1.402 0-2.912-1.576-2.05-3.967 0 0-.296.163-.808.38-.594.272-.81.163-1.268.299-.458.163-.863.353-.944.57.162 0 .324.028.486.082.27.136.647.544.782.87.485 1.141.485 2.772.836 3.913.485 1.576 1.483 3.098 4.612 3.098 3.856 0 5.15-2.99 8.9-2.99.782.055.998.19.998.19" mask="url(#b)" transform="translate(66.481 3.793)"/><path d="m68.01 11.245c-.082 0-.136.054-.136.134s.054.134.135.134.135-.053.135-.134c0-.08-.054-.134-.135-.134m-24.834 9.996c3.235 0 4.202-1.215 4.202-1.971v-13.505c0-.756-.967-1.972-4.202-1.972-3.236 0-4.203 1.216-4.203 1.972v13.505c0 .756.967 1.971 4.203 1.971m43.601-14.822c.189-1.34 1.49-2.571 4.44-2.571 3.548 0 3.819 1.34 3.63 2.598.866-1.23 2.545-2.626 5.47-2.626 3.872 0 4.522 2.708 4.522 2.708s2.22-2.735 5.984-2.735c3.575 0 4.712 2.844 4.55 4.048-.298 1.996-1.435 9.572-1.68 10.994-.243 1.45-1.814 2.352-4.44 2.352-3.52 0-3.845-1.641-3.737-2.243.108-.601 1.218-7.548 1.327-8.368.054-.547-.081-1.122-.975-1.122-.812 0-1.11.903-1.165 1.204-.379 2.379-1.137 7.712-1.245 8.313-.109.602-.596 2.27-4.794 2.27-3.439 0-3.6-1.75-3.493-2.27.108-.492 1.138-7.657 1.273-8.313.054-.383-.027-1.204-1.002-1.204-1.002 0-1.164 1.204-1.164 1.204s-1.084 7.22-1.246 8.368c-.19 1.121-1.787 2.188-4.495 2.188-3.845 0-3.791-1.75-3.683-2.243.135-.492 1.706-10.966 1.923-12.552"/></g></svg>