<svg height="34" viewBox="0 0 144 34" width="144" xmlns="http://www.w3.org/2000/svg"><g fill="#b5c1c9" fill-rule="evenodd"><path d="m2.38 14.514c0-3.435 0-4.07-.043-4.79-.044-.769-.224-1.13-.962-1.29-.178-.044-.56-.068-.87-.068-.249 0-.382-.045-.382-.202 0-.159.157-.204.49-.204 1.187 0 2.598.068 3.045.068 1.095 0 1.967-.068 2.726-.068 4.05 0 4.764 2.19 4.764 3.389 0 1.852-1.052 2.96-2.282 3.956 1.836.633 4.072 2.236 4.072 4.88 0 2.417-1.857 4.926-5.97 4.926-.538 0-2.575-.134-3.245-.134-.512 0-1.923.065-2.816.065-.293 0-.447-.065-.447-.225 0-.113.088-.178.355-.178.338 0 .605-.046.806-.092.447-.092.559-.587.648-1.245.112-.947.112-2.732.112-4.813v-3.975zm2.685.382c0 .182.067.228.158.25.2.045.536.067 1.05.067.737 0 1.23-.09 1.612-.428.58-.475.916-1.29.916-2.395 0-1.515-.872-3.505-2.796-3.505-.314 0-.514 0-.739.047-.155.045-.2.135-.2.383v5.581zm2.952 1.81c-.468-.338-.982-.497-1.855-.544-.403-.023-.626-.023-.963-.023-.088 0-.134.048-.134.16v5.357c0 1.49.067 1.874.784 2.166.602.25 1.119.274 1.633.274 1.006 0 2.705-.544 2.705-2.896 0-1.4-.47-3.3-2.17-4.494z"/><path d="m17.245 19.147c-.113 0-.159.043-.201.181l-1.21 3.229c-.222.565-.334 1.108-.334 1.378 0 .409.2.704.894.704h.337c.268 0 .334.043.334.178 0 .181-.134.225-.381.225-.715 0-1.677-.065-2.37-.065-.246 0-1.476.065-2.639.065-.292 0-.424-.044-.424-.225 0-.135.088-.178.268-.178.199 0 .515-.024.693-.046 1.03-.138 1.455-.906 1.9-2.036l5.616-14.191c.266-.656.4-.902.624-.902.202 0 .337.204.561.722.536 1.243 4.114 10.463 5.545 13.898.849 2.034 1.498 2.35 1.969 2.463.334.068.67.092.938.092.179 0 .292.022.292.178 0 .181-.204.225-1.03.225-.804 0-2.437 0-4.226-.044-.402-.021-.672-.021-.672-.18 0-.136.088-.18.312-.203.159-.047.314-.25.204-.52l-1.79-4.791c-.046-.114-.112-.157-.222-.157zm4.56-1.13c.113 0 .136-.068.113-.137l-2.013-5.582c-.022-.09-.043-.203-.11-.203s-.115.114-.137.203l-2.055 5.559c-.025.092 0 .16.088.16z"/><path d="m32.137 21.97c.047 1.765.338 2.352.785 2.51.38.135.804.159 1.164.159.244 0 .38.043.38.178 0 .181-.202.225-.515.225-1.455 0-2.349-.065-2.774-.065-.201 0-1.253.065-2.416.065-.29 0-.492-.02-.492-.225 0-.135.135-.178.357-.178.292 0 .694-.024 1.007-.116.581-.179.671-.836.695-2.802l.2-13.38c0-.448.068-.765.293-.765.244 0 .444.293.825.7.27.296 3.668 3.977 6.933 7.254 1.522 1.537 4.541 4.79 4.92 5.153h.113l-.224-10.146c-.022-1.379-.224-1.809-.76-2.036-.335-.135-.873-.135-1.186-.135-.269 0-.359-.067-.359-.202 0-.182.246-.204.581-.204 1.165 0 2.238.068 2.705.068.25 0 1.098-.068 2.195-.068.29 0 .514.022.514.204 0 .135-.133.202-.404.202-.222 0-.401 0-.67.069-.626.18-.805.656-.826 1.921l-.249 14.259c0 .496-.088.7-.289.7-.245 0-.515-.25-.761-.498-1.407-1.354-4.27-4.315-6.597-6.644-2.437-2.441-4.92-5.264-5.321-5.693h-.07zm19.093-6.527 1.038.896 5.478-5.446c.581-.592.874-1.061.874-1.42 0-.444-.289-.749-.87-.909-.416-.113-.264-.538.207-.538h5.597c.512 0 .523.493.027.493h-.513c-.507 0-1.084.173-1.738.514-.654.34-1.25.794-1.797 1.352l-5.22 5.22 6.939 7.094c.822.854 1.53 1.57 2.729 1.734.603.083.628.55-.015.55h-2.725c-1.274 0-1.568-.451-2.458-1.36l-6.807-6.953-.532-.525c-.478-.162-.77-.352-.213-.702"/><path d="m49.456 14.514c0-3.435 0-4.07-.044-4.79-.045-.769-.269-1.152-.758-1.267-.248-.067-.54-.091-.807-.091-.224 0-.357-.045-.357-.226 0-.135.178-.18.537-.18.846 0 2.256.068 2.907.068.556 0 1.878-.068 2.729-.068.29 0 .467.045.467.18 0 .181-.135.226-.358.226-.224 0-.4.024-.67.069-.602.112-.782.497-.827 1.288-.046.722-.046 1.356-.046 4.79v3.976c0 2.194 0 3.979.091 4.952.067.61.222 1.014.896 1.106.311.046.804.092 1.138.092.247 0 .36.065.36.178 0 .16-.18.225-.426.225-1.476 0-2.886-.065-3.488-.065-.517 0-1.927.065-2.818.065-.292 0-.448-.065-.448-.225 0-.113.09-.178.357-.178.337 0 .605-.046.806-.092.446-.092.583-.476.649-1.13.11-.95.11-2.734.11-4.928zm60.314 4.633c-.11 0-.158.043-.201.181l-1.207 3.229c-.225.565-.337 1.108-.337 1.378 0 .409.2.704.897.704h.336c.266 0 .332.043.332.178 0 .181-.133.225-.378.225-.716 0-1.677-.065-2.372-.065-.244 0-1.477.065-2.638.065-.29 0-.425-.044-.425-.225 0-.135.089-.178.268-.178.201 0 .514-.024.694-.046 1.028-.138 1.453-.906 1.9-2.036l5.614-14.191c.27-.656.401-.902.625-.902.203 0 .336.204.56.722.536 1.243 4.117 10.463 5.545 13.898.852 2.034 1.499 2.35 1.969 2.463.337.068.67.092.94.092.179 0 .29.022.29.178 0 .181-.201.225-1.028.225-.805 0-2.438 0-4.227-.044-.401-.021-.673-.021-.673-.18 0-.136.091-.18.313-.203.16-.047.316-.25.204-.52l-1.79-4.791c-.044-.114-.114-.157-.226-.157zm4.563-1.13c.112 0 .133-.068.112-.137l-2.013-5.582c-.023-.09-.045-.203-.112-.203s-.112.114-.136.203l-2.056 5.559c-.021.092 0 .16.092.16zm-36.276-3.503c0-3.435 0-4.07-.046-4.79-.044-.769-.267-1.152-.757-1.267-.247-.067-.54-.091-.807-.091-.224 0-.357-.045-.357-.226 0-.135.178-.18.538-.18.846 0 2.256.068 2.906.068.557 0 1.88-.068 2.729-.068.29 0 .467.045.467.18 0 .181-.134.226-.357.226-.224 0-.4.024-.67.069-.604.112-.783.497-.828 1.288-.045.722-.045 1.356-.045 4.79v3.976c0 2.194 0 3.979.09 4.952.068.61.223 1.014.896 1.106.311.046.804.092 1.138.092.248 0 .359.065.359.178 0 .16-.18.225-.425.225-1.475 0-2.885-.065-3.487-.065-.517 0-1.927.065-2.819.065-.29 0-.448-.065-.448-.225 0-.113.09-.178.357-.178.338 0 .605-.046.806-.092.447-.092.583-.476.65-1.13.11-.95.11-2.734.11-4.928zm6.027 10.258c-.357-.157-.426-.27-.426-.769 0-1.242.089-2.599.113-2.958.024-.34.09-.587.268-.587.203 0 .225.203.225.381 0 .295.09.77.2 1.154.493 1.672 1.812 2.283 3.198 2.283 2.012 0 2.999-1.379 2.999-2.578 0-1.107-.336-2.167-2.193-3.614l-1.028-.815c-2.46-1.943-3.311-3.525-3.311-5.355 0-2.485 2.057-4.27 5.167-4.27 1.452 0 2.393.225 2.973.384.202.045.313.112.313.271 0 .295-.09.949-.09 2.71 0 .5-.066.677-.243.677-.157 0-.226-.132-.226-.404 0-.203-.111-.904-.58-1.491-.337-.43-.986-1.107-2.439-1.107-1.655 0-2.662.972-2.662 2.325 0 1.04.515 1.832 2.372 3.258l.625.473c2.684 2.1 3.668 3.616 3.668 5.762 0 1.311-.492 2.87-2.101 3.933-1.12.723-2.371.926-3.557.926-1.297 0-2.302-.16-3.265-.59"/><path d="m98 18.49c0 2.893 0 4.45.469 4.859.38.338.96.496 2.704.496 1.188 0 2.06-.023 2.618-.631.268-.294.537-.928.58-1.358.023-.2.07-.336.247-.336.157 0 .181.11.181.382 0 .25-.157 1.943-.336 2.6-.135.496-.246.609-1.41.609-3.22 0-4.697-.134-6.51-.134-.512 0-1.92.065-2.816.065-.29 0-.448-.065-.448-.225 0-.113.09-.178.359-.178.336 0 .605-.046.805-.092.447-.092.56-.587.648-1.245.112-.947.112-2.732.112-4.813v-3.975c0-3.435 0-4.07-.043-4.79-.044-.769-.224-1.13-.962-1.29-.179-.044-.45-.068-.738-.068-.246 0-.381-.045-.381-.202 0-.159.157-.204.492-.204 1.051 0 2.46.068 3.064.068.537 0 2.17-.068 3.042-.068.313 0 .47.045.47.204 0 .157-.135.202-.405.202-.245 0-.602.024-.871.069-.605.112-.783.497-.828 1.288-.043.722-.043 1.357-.043 4.79v3.976m26.764-10.439c.065-.382.201-.586.38-.586.18 0 .313.112.603.7l6.107 12.744 6.082-12.903c.157-.36.292-.541.492-.541.202 0 .335.226.401.7l2.037 13.966c.202 1.422.427 2.077 1.098 2.28.647.205 1.094.229 1.384.229.202 0 .359.022.359.157 0 .18-.27.246-.582.246-.56 0-3.646-.065-4.54-.134-.514-.045-.649-.112-.649-.247 0-.114.09-.181.247-.252.134-.043.2-.338.112-.968l-1.343-9.946h-.089l-4.876 10.26c-.514 1.062-.625 1.266-.827 1.266s-.425-.453-.783-1.13c-.536-1.04-2.304-4.498-2.573-5.131-.2-.474-1.542-3.32-2.325-5.016h-.09l-1.16 8.994c-.046.408-.07.703-.07 1.063 0 .427.291.634.67.722.405.092.717.116.941.116.179 0 .336.043.336.157 0 .202-.202.246-.538.246-.937 0-1.945-.065-2.345-.065-.427 0-1.5.065-2.216.065-.225 0-.404-.044-.404-.246 0-.114.133-.157.357-.157.182 0 .335 0 .672-.07.627-.134.807-1.017.92-1.785l2.212-14.734"/><path d="m92.801 32.407c-13.79-.189-25.028-7.836-25.076-16.84-.048-8.745 10.533-15.49 23.62-15.287 1.61.022 3.186.152 4.715.372-2.085-.38-4.264-.602-6.5-.638-13.895-.213-25.173 6.851-25.173 16.028 0 9.461 11.92 17.511 26.599 17.71 11.94.161 21.618-4.944 24.339-11.972-2.924 6.29-11.742 10.773-22.524 10.626"/></g></svg>