<svg height="32" viewBox="0 0 162 32" width="162" xmlns="http://www.w3.org/2000/svg"><path d="m7.806 29.642-.671.674c-.252.252-.588.42-.84.59-.335.168-.671.336-1.09.42-.337.085-.756.169-1.26.169-1.091 0-1.93-.421-2.686-1.18-.671-.84-1.091-1.851-1.091-3.115 0-1.01.168-1.853.504-2.442.335-.674.839-1.18 1.51-1.516.672-.337 1.511-.59 2.435-.758 1.007-.168 2.014-.252 3.021-.337v-.084c0-.758-.251-1.263-.755-1.6-.504-.252-1.26-.42-2.182-.42-.588 0-1.176.168-1.847.42-.672.253-1.175.421-1.427.59h-.168v-3.369c.336-.084 1.007-.252 1.847-.42.84-.17 1.678-.253 2.518-.253 2.014 0 3.441.42 4.365 1.178.923.758 1.343 2.022 1.343 3.622v9.431h-3.526zm0-2.19v-2.862c-.503.085-1.007.085-1.595.169-.587.084-1.007.168-1.259.337-.335.168-.587.337-.839.59-.168.252-.252.589-.252 1.01 0 .252 0 .505.084.673 0 .169.168.337.336.506.168.168.336.252.503.337.252.084.504.084 1.008.084.335 0 .755-.084 1.09-.253.337 0 .672-.253.924-.59m6.967-15.495h3.525v19.2h-3.525zm7.135 0h3.525v19.2h-3.525zm10.828 3.368h-3.777v-3.368h3.777zm-.168 15.748h-3.526v-13.81h3.526zm10.324-1.432-.671.674c-.252.252-.588.42-.84.59-.335.168-.671.336-1.09.42-.337.085-.756.169-1.26.169-1.091 0-1.93-.421-2.686-1.18-.671-.841-1.091-1.852-1.091-3.115 0-1.01.168-1.853.504-2.442.335-.674.839-1.18 1.51-1.516.672-.337 1.511-.59 2.435-.758 1.007-.168 2.014-.252 3.021-.337v-.084c0-.758-.251-1.263-.755-1.6-.504-.252-1.26-.42-2.182-.42-.588 0-1.176.168-1.847.42-.672.253-1.175.421-1.427.59h-.336v-3.369c.336-.084 1.007-.252 1.847-.42.84-.17 1.679-.253 2.518-.253 2.014 0 3.441.42 4.365 1.178.923.758 1.343 2.022 1.343 3.622v9.431h-3.526v-1.6zm0-2.19v-2.862c-.503.085-1.007.085-1.595.169-.587.084-1.007.168-1.259.337-.335.168-.587.337-.839.59-.168.252-.252.589-.252 1.01 0 .252 0 .505.084.673 0 .169.168.337.336.506.168.168.336.252.503.337.252.084.504.084 1.008.084.335 0 .755-.084 1.09-.253.337 0 .588-.253.924-.59m18.131 3.621h-3.526v-6.821c0-.59 0-1.095-.084-1.685-.083-.59-.083-.926-.251-1.263s-.336-.505-.588-.673c-.252-.169-.587-.169-1.091-.169-.336 0-.672.084-1.007.169-.336.168-.672.336-1.092.59v9.767h-3.524v-13.726h3.525v1.516c.588-.59 1.26-1.095 1.847-1.432.588-.336 1.26-.505 1.93-.505 1.176 0 2.1.421 2.77 1.347.672.843 1.008 2.19 1.008 3.874v9.01h.084zm9.233.421c-1.007 0-1.847-.169-2.686-.421-.84-.253-1.51-.758-2.098-1.348s-1.008-1.347-1.344-2.273c-.335-.927-.503-1.937-.503-3.2 0-1.264.168-2.442.503-3.369.336-.926.84-1.684 1.427-2.358.588-.59 1.26-1.01 2.099-1.263.755-.252 1.595-.42 2.434-.42.756 0 1.427.083 2.099.336.671.168 1.259.505 1.762.758v3.79h-.503l-.504-.506c-.168-.168-.42-.421-.755-.59-.252-.168-.588-.336-.924-.42-.336-.085-.671-.169-1.091-.169-.923 0-1.679.337-2.182 1.095-.504.758-.756 1.768-.756 3.031 0 1.348.252 2.358.756 3.032.503.674 1.259 1.01 2.182 1.01.42 0 .84-.084 1.175-.168.336-.168.672-.253.923-.42.252-.17.42-.338.588-.506l.504-.505h.503v3.789c-.587.337-1.175.59-1.762.758-.42.253-1.092.337-1.847.337m17.207-6.485h-8.142c.084 1.095.42 1.937 1.007 2.527.588.59 1.511.842 2.687.842.755 0 1.51-.168 2.182-.505.671-.337 1.259-.674 1.679-1.095h.42v3.537c-.84.42-1.595.673-2.267.842-.671.168-1.51.253-2.35.253-2.267 0-3.945-.59-5.12-1.853-1.176-1.263-1.763-3.032-1.763-5.305 0-2.274.587-4.127 1.679-5.39 1.09-1.347 2.686-2.02 4.616-2.02 1.763 0 3.19.589 4.03 1.683.923 1.18 1.342 2.78 1.342 4.885v1.6zm-3.525-2.61c0-.926-.168-1.6-.588-2.105-.335-.506-.923-.674-1.595-.674-.671 0-1.259.253-1.678.674-.42.42-.672 1.179-.756 2.105zm23.251 1.853c0 4.126-3.358 7.494-7.47 7.494-4.114 0-7.471-3.368-7.471-7.494 0-4.127 3.357-7.495 7.47-7.495s7.47 3.368 7.47 7.495m11.164 7.41v-8.337c0-.673-.084-1.263-.168-1.852-.083-.59-.335-1.095-.587-1.516s-.588-.758-1.091-1.01c-.42-.253-.924-.337-1.595-.337-.588 0-1.091.168-1.595.42-.504.253-.923.59-1.259 1.095-.336.421-.588 1.01-.84 1.6-.167.59-.251 1.263-.251 1.937v7.916h-1.679v-10.947-1.01-1.011-.758-.421h1.51v2.947h.085c.503-1.095 1.091-1.937 1.846-2.442.756-.505 1.595-.758 2.687-.758.839 0 1.51.168 2.098.421.588.337 1.007.674 1.343 1.263.336.505.588 1.095.755 1.853.168.673.252 1.431.252 2.19v8.757h-1.51zm5.792-20.21h1.679v20.211h-1.679zm5.876 0h1.8v2.19h-1.8zm0 6.063h1.8v14.147h-1.8zm14.773 14.147v-8.337c0-.673-.084-1.263-.168-1.852-.084-.59-.336-1.095-.588-1.516s-.587-.758-1.09-1.01c-.42-.253-.924-.337-1.596-.337-.587 0-1.09.168-1.595.42-.503.253-.923.59-1.259 1.095-.335.421-.587 1.01-.839 1.6-.168.59-.252 1.263-.252 1.937v7.916h-1.679v-10.947-1.01-1.011-.758-.421h1.511v2.947h.084c.504-1.095 1.091-1.937 1.847-2.442.755-.505 1.595-.758 2.686-.758.84 0 1.51.168 2.098.421.588.337 1.008.674 1.343 1.263.336.505.588 1.095.756 1.853.168.673.252 1.431.252 2.19v8.757zm6.715-6.653c0 .758.084 1.516.252 2.19.167.674.42 1.263.755 1.768.336.506.755.843 1.343 1.18.504.252 1.175.42 1.93.42.924 0 1.763-.252 2.35-.673.672-.506 1.092-1.095 1.344-1.937l1.51.337c-.167.42-.335.842-.587 1.263-.252.42-.587.842-1.007 1.179s-.923.674-1.511.926c-.588.253-1.343.337-2.182.337-.924 0-1.68-.168-2.435-.505s-1.343-.758-1.846-1.432c-.504-.674-.923-1.431-1.175-2.358-.252-.926-.42-2.02-.42-3.2 0-1.347.168-2.526.504-3.452.335-.927.755-1.685 1.343-2.274.587-.59 1.175-1.01 1.846-1.179.672-.253 1.427-.337 2.099-.337.923 0 1.762.169 2.518.505.671.337 1.259.843 1.763 1.516.42.674.755 1.432 1.007 2.274.252.926.336 1.853.336 2.947v.421h-9.737v.085zm4.113-6.315c-.504 0-1.008.084-1.511.252-.504.169-.923.421-1.26.842-.335.422-.67.927-.923 1.516-.251.59-.335 1.348-.42 2.274h8.059c-.084-.758-.168-1.432-.336-2.021-.168-.59-.42-1.095-.755-1.516-.336-.42-.756-.758-1.176-1.01-.503-.253-1.007-.337-1.678-.337m-57.33-5.474c-40.961-21.053-80.831-7.663-90.065-3.705h-8.226c4.28-5.896 64.296-19.874 98.291 3.704" fill="#b5c1c9"/></svg>