<svg height="32" viewBox="0 0 162 32" width="162" xmlns="http://www.w3.org/2000/svg" xmlns:xlink="http://www.w3.org/1999/xlink"><mask id="a" fill="#fff"><path d="m0 .169h31.519v31.519h-31.519z" fill="#fff" fill-rule="evenodd"/></mask><g fill="#b5c1c9" fill-rule="evenodd"><path d="m50.778 25.573 4.718-12.877 1.542 12.877h4.985l-2.7-18.915h-6.082l-4.028 11.365-4.028-11.365h-6.082l-2.7 18.915h4.984l1.543-12.877 4.718 12.877zm26.199-14.064 6.409 14.064-2.537 5.519h5.518l8.813-19.583h-5.697l-3.383 9.836-3.427-9.836zm68.405-6.409v20.459h5.162v-7.123l5.297 7.123h5.874l-5.83-7.522 5.311-6.528h-5.934l-4.718 6.142v-12.551z"/><g transform="translate(0 .187)"><path d="m101.262 22.125v-7.4c1.046-.352 4.836-1.298 4.836 3.51 0 4.899-3.888 4.146-4.836 3.89zm-5.252 2.537s2.73 1.021 6.557 1.021c3.828 0 8.813-1.187 8.813-7.774s-6.617-6.824-7.388-6.824c-1.458 0-2.39.396-2.73.571v-6.772h-5.252zm20.83-3.608c0-2.023 3.84-2.167 4.895-2.168v3.602c-1.099.13-4.896.444-4.896-1.434zm-2.642-6.171c7.536-2.225 7.537.445 7.537.801v.477c-6.099.05-9.732 1.794-9.732 4.953 0 3.204 3.382 4.598 7.862 4.598s6.765-1.038 6.765-1.038v-8.752c0-3.086-1.987-5.045-6.765-5.045-4.777 0-6.853 1.128-6.853 1.128zm-46.671 6.171c0-2.023 3.842-2.167 4.895-2.168v3.602c-1.098.13-4.895.444-4.895-1.434zm-2.64-6.171c7.535-2.225 7.535.445 7.535.801v.477c-6.098.05-9.731 1.794-9.731 4.953 0 3.204 3.382 4.598 7.862 4.598s6.765-1.038 6.765-1.038v-8.752c0-3.086-1.988-5.045-6.765-5.045s-6.854 1.128-6.854 1.128l1.187 2.878zm73.345 10.473h5.192v-8.9c0-4.629-3.323-5.608-7.418-5.608-4.094 0-7.388 1.127-7.388 1.127v13.381h5.193v-10.642c3.992-1.168 4.42.753 4.42 1.682v8.96z"/><path d="m15.76.17c-8.69 0-15.76 7.068-15.76 15.758s7.07 15.759 15.76 15.759 15.759-7.07 15.759-15.76-7.07-15.757-15.76-15.757m0 1.318c7.977 0 14.443 6.465 14.443 14.442 0 7.976-6.466 14.442-14.443 14.442-7.976 0-14.442-6.466-14.442-14.442 0-7.977 6.466-14.442 14.442-14.442" mask="url(#a)"/><path d="m8.972 10.41s.334-1.313.868-1.758 2.455-1.713 5.23-2.603c.33-.107.713.015.73.02l-.033.21c-.037.207-.193.34-.193.34.564.075.935-.326 1.038-.786.104-.46.46-2.281 1.039-2.254 1.617.074 2.774 5.296 2.655 5.533-.077.155-.712.03-.712.03 1.01 1.587 2.33 1.572 2.626 1.32.297-.252.134-1.068.134-1.068 3.174 1.884 2.996 4.124 2.996 4.124.95-3.709-1.246-5.296-1.246-5.296.86-.03 1.795.52 1.795.52-1.335-1.796-4.094-2.79-4.094-2.79s-3.22-3.575-4.258-3.441c-.86.11-1.352 1.689-1.593 2.77-.118-.01-.344-.019-.637.016-.228-.283-1.191-1.427-1.568-1.05-.144.144-.191 1.173-.204 1.607-1.56.62-4.213 1.786-4.75 2.642-.49.779-.602 1.358-.602 1.358s-3.182 2.047-3.96 4.272c0 0 2.136-2.492 4.74-3.716"/><path d="m19.209 8.756c-.045-1.647-.86-2.967-1.276-3.041-.416-.075-.55 1.498-.55 1.498 1.099.727 1.826 1.543 1.826 1.543m-7.819-.296c-.638.385-.356.711-.356.711s-.104-.326.683-.549c1.402-.396 2.67-.8 2.64-1.142-.03-.341-.979-.475-.979-.475.267.356-1.35 1.069-1.988 1.454"/><path d="m12.05 10.64c.193 0 .35-.156.35-.349 0-.104-.05-.195-.122-.26.23-.015.76.015.76.015-.06-.015-.194.134-.49.505-.297.37-.579.089-.579.089l-.005-.018c.029.008.056.018.087.018m-1.12 1.587s.4-.934.697-1.053c0 0 .519.133.801.03.282-.104.816-.816 1.024-.831 0 0-.55 2.388-2.775 2.344 0 0 1.603.905 2.419.267.815-.638.193-1.127 1.246-2.151s.356-1.069.311-1.054c-.044.015-.37-.089-.37-.089s.147-.192.444-.326c.297-.133 2.003-.905 2.033-1.365s-1.232-.979-1.87-.964c0 0 .579.237.55.564-.03.326-1.692 1.053-1.692 1.988 0 0-.593.044-1.023-.045s-.89-.044-1.365.267c-.475.312-.505-.386-.46-.475 0 0-.92.579.237 1.32 0 0-.475.49-.52.609-.044.119-.236.757.312.964m-1.468 3.056s-.022-.845-.801-.667c-1.31.3-1.758 2.626-1.758 2.626 1.468-2.715 2.559-1.959 2.559-1.959m.489 2.07c.713-1.157-.155-1.891-1.268-1.269-1.112.624-1.38 2.115-1.38 2.115 2.203-2.404 2.648-.846 2.648-.846m-2.848-2.159c.801-1.29 1.713-1.268 1.713-1.268-1.09-.8-1.713 1.268-1.713 1.268m13.352.668s-.801-.712-.712-2.025.334-3.294-1.892-4.673c0 0 .913 1.402.579 2.782s-1.449 3.735-1.358 4.517c.2 1.713 1.98 2.025 1.848 4.362 0 0 1.045-1.269.845-2.76-.2-1.49-1.513-2.136-.934-3.316 0 0 .667.98 1.624 1.113"/><path d="m10.34 22.716c-.2-.067-.377-.801-.377-.801.289.233.879.245.879.245-.279.267-.301.622-.501.556m2.222-2.344s.697.03.726-.09c.03-.118-.222-.934-.222-.934s.875.089.89.37c.015.283-.49.995-1.558 1.455 0 0 .193-.564.164-.801m-4.527-.755c.095-.056.186-.117.269-.18.216-.163.38-.241.489-.278-.023.312-.041.864.056 1.32 0 0-.575-.369-.814-.862m-2.787-2.85c-.341 0-.95-.905-1.053-1.083-.104-.178.578-.505.786-.564.208-.06.427-.01.46.089.03.089-.43.371-.49.475s.364.495.43.579c.119.148.208.504-.133.504m21.611-7.114s1.946 5.29-.25 10.096c0 0 .125-.699-.415-2.077-.579-1.476-.386-3.383-.148-3.739 0 0-1.069 1.069-1.01 2.849.06 1.78.535 6.794-3.085 8.663 0 0 1.373-2.507.86-5.444 0 0 .468.178.713.801 0 0 .979-2.581-.29-5.741 0 0 .713.133 1.158.512 0 0 .467-2.262-2.092-3.85-.646-.4-.557-.623-.557-.623s-.2.512.223 1.024 1.001 1.513.912 2.025c0 0-.69-.49-1.69-.356 0 0 1.913 1.624 1.624 5.117 0 0-.49-.534-1.736-.756 0 0 1.402 2.626.156 5.14 0 0-.09-.89-.49-1.446 0 0-.311 1.847-2.537 2.492 0 0 1.803-2.247-.334-3.382-2.136-1.135-3.938 1.38-4.294 3.583 0 0-2.47.178-2.715-.824-.245-1.001.467-1.424.467-1.424s.379.245 1.246-.156c.868-.4 2.693-1.49 2.515-2.87s-2.337-2.737-4.05-2.181c-1.714.556-2.693 2.07-3.583 2.047-.89-.022-1.98-1.38-1.825-2.092.156-.712.735-.912.935-2.114 0 0-.312.03-.52-.104-.207-.133-.756-.355-1.052-.281-.297.074-1.024.563-1.054.474s.075-.623.075-.623-.802.846-.683 1.187.816 1.187 1.543 1.662c0 0 .134 1.038 1.083 2.002.567.576 1.095.68 1.547.584.191.283.84 1.134 1.876 1.32 0 0-.18-1.194-.05-2.095.042-.02.08-.044.113-.076.163-.163 2.062-1.913 3.472-.222 0 0-.638.237-.89 1.038-.253.801-.401 2.79-2.493 1.513 0 0-.178 1.143.46 1.825 0 0-.09 1.217 1.29 1.885 1.38.667 2.345.162 3.235.607 0 0-.09-1.824.667-2.937s1.825-1.483 2.344-1.053c.52.43.846 2.062-1.157 3.753 0 0 2.3.297 3.872-.905 0 0-.195 2.12-1.782 3.916 5.75-1.235 10.045-6.349 10.045-12.468 0-2.282-.599-4.423-1.649-6.276"/><path d="m17.621 10.15s-1.498-.845-2.166.03c-.627.823-.22 2.236-.588 3.117l-.035-.031c-.83-.742-1.854.52-2.047.89s-.445.415-.445.415c-1.825.371-1.44-1.097-2.047-1.542-.608-.445-1.632.207-1.632.207 1.023-.193 1.26.52 1.231.801-.03.282.178 1.113.46 1.573s1.424.133 2.359.208c.934.074 1.468 1.216 1.468 1.216.564-1.365-.949-1.988-.949-1.988s.442-.838.964-.549c1.662.92 1.246 4.644 1.246 4.644 1.432-2.693.802-4.27.055-5.196.094-.84.519-3.483 2.126-3.795"/></g></g></svg>