<svg height="56" viewBox="0 0 54 56" width="54" xmlns="http://www.w3.org/2000/svg"><g fill="#b5c1c9" fill-rule="evenodd"><path d="m34.22 53.789.008.291.015.613h11.035c2.27 0 3.34-1.875 3.517-3.524l4.894-46.216c.25-2.327 1.129-4.895-5.048-4.895h-43.731c-5.193 0-4.812 2.327-4.593 4.436l4.895 45.909c.205 1.868.41 4.29 3.67 4.29h10.574c.015-.299.03-.605.037-.904h-10.595c-2.257-.052-2.558-1.365-2.777-3.4l-4.941-46.371c-.283-2.865 1.27-3.026 3.74-3.055l44.255.007c3.657.153 3.972.656 3.613 3.889l-4.91 46.347c-.212 1.379-.996 2.466-2.44 2.583h-11.216"/><path d="m38.09 43.705c0-.722-.594-1.314-1.32-1.314-.732 0-1.326.592-1.319 1.314 0 .73.587 1.313 1.32 1.313.725 0 1.318-.584 1.318-1.313"/><path d="m37.935 43.705c0 .65-.52 1.16-1.165 1.16-.644.007-1.165-.51-1.165-1.153-.007-.642.52-1.167 1.158-1.167.652 0 1.172.525 1.172 1.16"/><path d="m36.28 44.39h.183v-.62h.476c.308 0 .22.27.25.438l.029.183h.227c-.081-.124-.06-.154-.074-.343-.022-.256-.022-.278-.176-.372.147-.11.198-.175.19-.358-.014-.328-.234-.372-.46-.372h-.645v1.445"/><path d="m36.932 43.107c.11 0 .293.029.263.277-.014.19-.139.226-.263.226h-.47v-.503zm-25.866-7.508h2.184v1.627h-2.184v2.05h2.206v1.576h-4.667v-8.61h4.667v1.576h-2.206zm11.16 0h2.169v1.627h-2.169v2.05h2.191v1.576h-4.66v-8.61h4.66v1.576h-2.191zm13.152 0h2.177v1.627h-2.177v2.05h2.206v1.576h-4.675v-8.61h4.675v1.576h-2.206zm-16.464 3.677h-1.891v-7.034h-2.462v8.61h4.353zm11.489 1.576h-3.832l-1.363-8.61h2.675l.813 5.327c.073.481.432.481.527 0l1.077-5.327h1.81zm15.402-6.888v6.888h-2.447v-6.1c0-.605-.44-.926-.88-.941s-.879.284-.879.941v6.1h-2.499v-8.61h2.47l.396.613c.527-.613 1.01-.934 2.073-.934 1.26 0 1.766 1.146 1.766 2.043m-18.919-14.892h-17.402v-11.317h31.375c-5.737 2.948-10.397 6.72-13.973 11.317"/><path d="m35.356 31.28h-12.573c2.747-9.983 8.704-17.498 22.64-23.824v12.105c-5.245 1.583-8.345 5.589-10.067 11.718m-14.412 10.558h12.786c-.286 4.203-.293 8.93-.14 14.14h-13.51c.226-5.144.431-9.835.864-14.14"/></g></svg>