<svg height="31" viewBox="0 0 198 31" width="198" xmlns="http://www.w3.org/2000/svg" xmlns:xlink="http://www.w3.org/1999/xlink"><mask id="a" fill="#fff"><path d="m0 .099h197.645v23.056h-197.645z" fill="#fff" fill-rule="evenodd"/></mask><g fill="none" fill-rule="evenodd"><path d="m188.571 15.4v-15.268h1.949v9.605l.018-.022v-.039l2.09-2.486 2.186-2.64h1.948l-.019.023h.449l-4.329 5.144 4.782 5.683h-2.364l-4.743-5.641-.018-.022v5.663zm-185.642 1.649.009-.014.022.014c1.884-2.908 4-5.287 6.325-7.195-.971-.652-1.91-1.363-2.816-2.137-2.4 2.042-4.565 4.523-6.469 7.493zm9.343-9.323c.825-.506 1.673-.963 2.541-1.373-1.141-.609-2.246-1.311-3.31-2.11-.758.418-1.5.868-2.223 1.35.963.79 1.96 1.5 2.992 2.133zm7.12-3.054c1.923-.524 3.926-.864 6.004-1.036-2.624-.35-5.098-1.014-7.376-2.096-1.04.308-2.056.662-3.048 1.06 1.38.835 2.859 1.522 4.42 2.072zm6.004-1.103-.016-3.47h-.003l.02 3.47zm-12.903 19.61c3.577-4.877 7.99-6.937 12.902-7.797-2.561-.273-5.015-.748-7.35-1.445-3.244 1.54-6.09 3.922-8.397 7.444zm12.902-7.797.02-3.539-.02.003zm-17.7 4.702c1.908-3.104 4.365-5.49 7.247-7.234-1.189-.483-2.341-1.031-3.457-1.65-2.447 1.837-4.681 4.182-6.666 7.067l2.877 1.817zm11.67-9.313c1.915-.675 3.954-1.143 6.095-1.42v-.005c-2.664-.19-5.214-.726-7.625-1.629-1.04.388-2.054.845-3.04 1.372 1.466.692 2.99 1.25 4.57 1.682z" fill="#b5c1c9" mask="url(#a)" transform="translate(0 7.857)"/><path d="m12.474.158c3.577 4.877 7.99 6.937 12.902 7.797l.02 3.538c-6.356-.847-11.839-3.543-15.766-9.537zm-4.768 3.052c3.943 6.415 10.226 9.759 17.763 10.734v3.26c-8.193-.581-15.317-4.438-20.64-12.176l2.878-1.818zm-4.746 3.05c5.626 8.684 13.322 12.658 22.435 13.41v3.57c-10.545-1.128-19.28-5.652-25.364-15.143l2.93-1.838zm33.207 7.872h5.14v-6.181h4.164v15.275h-4.164v-6.072h-5.14v6.072h-4.165v-15.275h4.165zm52.147-6.181h4.523v12.318h6.728v3.051l-6.728-.001v.001h-4.523zm-29.202 4.438h3.802v1.77c.568-.724 1.066-1.083 1.669-1.35.466-.205 1.217-.438 2.052-.438 1.13 0 2.142.449 2.599.966.62.701.945 1.583.945 3.017v6.919l-3.908-.003v-5.984c0-.682-.178-1.73-.425-2.013-.25-.287-.595-.427-1.043-.427-.493 0-.896.194-1.202.574-.307.382-.407 1.042-.407 2.031v5.82h-4.082v-10.883m66.183.001h3.69v1.761c.551-.72 1.035-1.077 1.62-1.342.453-.206 1.18-.437 1.992-.437 1.096 0 2.078.447 2.522.962.601.697.917 1.54.917 2.967v6.914l-3.793.006v-5.957c0-.68-.173-1.722-.412-2.003-.242-.286-.578-.425-1.013-.425-.479 0-.87.192-1.166.57-.297.381-.696 1.038-.696 2.023v5.792h-3.661v-10.83m-14.243 6.44h-7.556c.067.645.232 1.123.49 1.439.364.453.842.678 1.427.678.37 0 .723-.097 1.056-.296.205-.124.423-.343.657-.658l.11-.348 3.804.008c-.019.192-.091.54-.213.728-.57 1.052-1.238 1.78-2.041 2.236-.803.455-1.954.683-3.456.683-1.302 0-2.326-.195-3.076-.585-.746-.39-1.365-1.012-1.855-1.862s-.737-1.848-.737-2.997c0-1.634.493-2.958 1.476-3.966.986-1.011 2.346-1.519 4.082-1.519 1.406 0 2.52.229 3.332.683.816.45 1.439 1.108 1.862 1.965.427.86.638 1.98.638 3.357zm-3.831-1.92c-.076-.775-.272-1.33-.588-1.662-.32-.336-.737-.504-1.256-.504-.6 0-1.077.255-1.438.759-.227.316-.372.783-.433 1.408h3.715zm55.131-2.016c1.407.337 2.63 2.337 2.63 3.674 0 1.445-.448 2.57-1.345 3.374-.894.802-1.872 1.203-3.496 1.203h-6.087v-15.267h5.757c1.558 0 2.735.323 3.535.968.8.642 1.2 1.596 1.2 2.857 0 .745-.175 1.372-.524 1.878-.35.51-.905.946-1.67 1.313zm-2.915-.679c1.04 0 1.821-.2 2.341-.602.524-.399.786-.998.786-1.792 0-.809-.234-1.396-.702-1.768-.469-.372-1.21-.556-2.227-.556h-3.43v4.718zm.302 7.103c1.024 0 1.783-.215 2.283-.645s.75-1.082.75-1.957c0-.835-.26-1.453-.788-1.851-.526-.399-1.34-.6-2.442-.6h-3.336v5.053zm19.451-7.356c.975-1.058 2.073-1.59 3.292-1.59 2.484 0 3.724 1.303 3.724 3.911v6.94h-1.96v-6.861c0-.868-.163-1.47-.485-1.852-.32-.379-.9-.771-1.634-.771-1 0-1.995.567-2.991 1.7l.055 7.784h-1.963v-10.61h1.963v1.349m-5.806 9.189c.018-.29-.007-1.812-.007-1.812-.614 1.602-2.116 2.253-3.82 2.253-1.024 0-1.843-.317-2.464-.946-.62-.63-.93-1.42-.93-2.373 0-2.471 2.072-3.709 6.212-3.709.163 0 .381.004.659.01v-.811c0-1.117-.593-2.132-2.043-2.132-1.409 0-2.015.729-2.205 1.846l-2.202-.022c.107-.895.669-1.785 1.44-2.363.773-.579 1.676-.72 3.14-.72.794 0 1.44.072 1.943.21.5.138.923.372 1.27.702.347.332.586.689.718 1.078.131.386.198 1.041.198 1.966v6.823zm-.21-5.279c-3.192 0-4.79.81-4.79 2.428 0 .484.163.897.484 1.238.322.342.807.515 1.458.515.94 0 1.65-.318 2.13-.951.478-.633.718-1.352.718-2.157zm-120.884-5.501c3.376 0 5.198 2.467 5.198 5.477s-1.822 5.425-5.198 5.425c-3.375 0-5.386-2.441-5.386-5.451s2.011-5.45 5.386-5.45zm-.047 2.232c1.183 0 2.224 1.204 2.224 3.219s-.959 3.18-2.142 3.18c-1.182 0-2.142-1.165-2.142-3.18s.877-3.22 2.06-3.22z" fill="#b5c1c9"/><path d="m52.291 12.371c3.376 0 5.198 2.467 5.198 5.477s-1.822 5.425-5.198 5.425c-3.375 0-5.386-2.441-5.386-5.451s2.011-5.45 5.386-5.45zm-.047 2.232c1.183 0 2.224 1.204 2.224 3.219s-.959 3.18-2.142 3.18c-1.182 0-2.142-1.165-2.142-3.18s.877-3.22 2.06-3.22z"/><path d="m118.19 12.371c3.375 0 5.198 2.467 5.198 5.477s-1.823 5.425-5.197 5.425c-3.376 0-5.388-2.441-5.388-5.451s2.012-5.45 5.388-5.45zm-.047 2.232c1.182 0 2.224 1.204 2.224 3.219s-.96 3.18-2.142 3.18c-1.183 0-2.142-1.165-2.142-3.18s.877-3.22 2.06-3.22z" fill="#b5c1c9"/><path d="m118.19 12.371c3.375 0 5.198 2.467 5.198 5.477s-1.823 5.425-5.197 5.425c-3.376 0-5.388-2.441-5.388-5.451s2.012-5.45 5.388-5.45zm-.047 2.232c1.182 0 2.224 1.204 2.224 3.219s-.96 3.18-2.142 3.18c-1.183 0-2.142-1.165-2.142-3.18s.877-3.22 2.06-3.22z"/><path d="m145.042 12.612h3.814v10.486l.01.493c0 .696-.144 1.36-.427 1.992-.284.632-.66 1.142-1.13 1.53-.471.394-1.069.675-1.79.847-.723.175-1.553.264-2.485.264-2.133 0-3.602-.335-4.397-1.006-.796-.668-1.195-1.564-1.195-2.684 0-.142-.008.056.005-.173h3.934c.1.378.288.727.492.872.302.214.677.325 1.13.325.588 0 1.025-.165 1.315-.493s.434-.9.434-1.717v-1.681c-.4.493-.8.853-1.199 1.078-.628.346-1.304.522-2.031.522-1.42 0-2.567-.65-3.441-1.946-.619-.92-.93-2.138-.93-3.648 0-1.731.4-3.048 1.2-3.955.801-.907 1.846-1.36 3.14-1.36.83 0 1.51.147 2.045.44.54.292 1.042.778 1.506 1.456zm-.408 6.457c.1-.316.148-.692.148-1.124v-.043-.02c0-1.729-.89-3.13-1.987-3.13-1.098 0-1.988 1.401-1.988 3.13s.89 3.131 1.988 3.131c.83 0 1.542-.804 1.84-1.944zm-65.362-6.459h3.813v10.487l.01.492c0 .696-.143 1.36-.426 1.992-.284.632-.66 1.142-1.13 1.531-.472.393-1.07.675-1.79.846-.723.175-1.553.264-2.485.264-2.134 0-3.602-.335-4.397-1.006-.796-.668-1.195-1.564-1.195-2.684 0-.142-.009.056.004-.172h3.934c.1.377.29.727.493.871.301.214.676.325 1.13.325.587 0 1.025-.164 1.314-.492.29-.329.434-.9.434-1.717v-1.682c-.4.493-.798.854-1.198 1.078-.628.346-1.304.522-2.032.522-1.42 0-2.567-.65-3.44-1.946-.619-.92-.93-2.138-.93-3.648 0-1.73.4-3.048 1.199-3.954.802-.907 1.847-1.36 3.14-1.36.83 0 1.51.146 2.046.438.54.293 1.041.779 1.505 1.457v-1.642zm-.408 6.457c.099-.316.148-.692.148-1.124v-.043-.02c0-1.729-.89-3.13-1.988-3.13-1.097 0-1.988 1.401-1.988 3.13 0 1.73.89 3.131 1.988 3.131.83 0 1.543-.803 1.84-1.944z" fill="#b5c1c9"/></g></svg>