<svg height="40" viewBox="0 0 162 40" width="162" xmlns="http://www.w3.org/2000/svg" xmlns:xlink="http://www.w3.org/1999/xlink"><mask id="a" fill="#fff"><path d="m0 39.487h162v-39.487h-162z" fill="#fff" fill-rule="evenodd"/></mask><g fill="#b5c1c9" fill-rule="evenodd"><path d="m118.682 8.624c1.098 1.13 2.314 2.152 3.562 3.002h-7.03c1.349-.937 2.419-1.85 3.468-3.002m2.078-2.342-.076-.1h-4.173l-.076.1c-.836 1.194-2.267 2.473-3.19 3.084l-.142.078v3.48l.387-.22c.292-.171.56-.336.817-.51v2.432h2.7v1.365h-3.863v3.004h3.864v6.947c-1.293.116-2.537.178-3.723.202h-.255l-.035 2.99h.26c3.331.033 7.838-.617 10.546-1.215l.214-.036.047-3.04-.304.072c-.804.176-1.92.39-3.244.58v-6.5h3.407v-3.004h-3.407v-1.365h2.75v-2.408c.193.12.345.215.537.315l.41.2v-3.495l-.117-.096c-.917-.527-2.236-1.55-3.334-2.86"/><path d="m113.285 19.851.011.27c.033 1.626.148 3.175.389 4.904l.032.237h2.677l-.02-.303c-.195-2.255-.228-3.28-.228-4.837v-.27h-2.861m7.989.041-.021.569c0 1.476-.02 2.101-.137 3.776l-.023.273 2.594.02.01-.226c.2-1.505.256-2.625.256-4.154v-.258zm10.058 5.399c-1.066.215-1.993.389-3.024.508v-7.325h.301c.516 2.526 1.549 4.805 2.98 6.766l-.257.05zm-3.024-14.388h4.634v-1.589h-4.634v1.59zm0 4.68h4.634v-1.849h-4.634v1.85zm5.28 3.795c-.15.431-.474 1.083-.806 1.642-.357-.825-.635-1.673-.772-2.546l4.43.008v-11.989h-11.7v22.693h.286c2.098-.143 5.09-.613 6.422-.97l.216-.066-.023-2.838c1.236 1.636 2.755 3.046 4.57 4.14l.389.252v-3.672l-.1-.068c-.774-.629-1.47-1.363-2.104-2.188.913-1.095 1.924-2.701 2.42-4.215l.085-.356h-3.238zm6.604-4.624c1.975-1.181 5.605-3.827 7.399-8.121l.17-.352h-3.519l-.061.152c-.98 2.081-3.247 4.085-4.281 4.84l-.106.05v3.667zm7.913-2.648h-3.395l-.065.163c-.83 1.98-3.377 4.61-4.834 5.7l-.093.09v4.017l.406-.31c.786-.571 1.625-1.195 2.443-1.916v9.336h3.548v-13.165c.777-1.075 1.431-2.263 1.846-3.566z"/><path d="m148.786 9.86h12.633v-3.192h-12.633zm13.214 6.55v-3.192h-13.93v3.192h7.779v9.668h-4.292l1.098 3.044h4.742c1.818 0 2.075-.94 2.075-1.742v-10.97zm-61.704-4.03v-3.496h-5.207c.184-.923.335-1.896.476-2.818l.02-.302h-4.033l-.046.225c-.158.999-.33 1.98-.476 2.895h-4.583v3.496h3.823c-1.073 4.441-2.42 8.192-4.017 12.085l-.15.369h4.343l.075-.177c1.268-3.096 2.744-7.525 3.837-12.277z" mask="url(#a)"/><path d="m101.406 23.37c-.047 1.934-.047 2.817-2.1 2.817-1 .011-1.795-.234-2.277-.7-.305-.314-.485-.73-.485-1.249 0-.589.212-1.095.593-1.454.563-.512 1.513-.814 2.59-.769.513.032 1.083.108 1.68.225v1.13m3.956-3.414v-7.618h4.59v-3.454h-8.547v10.01c-.724-.12-1.455-.194-2.11-.194-3.82 0-6.645 2.321-6.645 5.538-.035 1.235.453 2.291 1.374 3.205 1.303 1.301 3.626 2.11 5.827 2.055 5.087-.14 5.484-3.42 5.511-5.957 1.417.621 2.855 1.406 4.214 2.3l.4.27.029-3.885-.117-.09c-1.046-.684-2.702-1.497-4.526-2.18m-61.083 1.532c-.698-4.796-.652-10.249.065-15.006l.03-.3h-4.108l-.042.229c-.689 4.56-.748 10.24-.146 15.138l.029.218h4.228l-.056-.28m12.55-15.304h-3.977l.023.279c1.093 15.185 1 18.453-8.56 19.273l-.24.032v3.42h.26c4.848-.077 8.226-1.229 10.31-3.506 3.486-3.837 2.925-10.419 2.316-18.014zm23.896 3.871v-3.387h-16.766v3.433h9.491c-2.258 1.225-5.35 2.732-7.792 3.773h-5.239v3.482h9.208c-1.828 1.42-2.882 3.743-2.65 6.088.431 3.583 3.886 5.745 9.23 5.745h3.076v-3.498l-2.466-.009c-1.362 0-5.742-.254-5.742-3.571 0-1.85 1.939-4.755 7.209-4.755h5.859v-3.482h-10.594c2.342-1.066 4.592-2.3 7.043-3.744l.132-.075m-78.447 3.143c0-1.012.107-2.015.334-2.971v-.009c.668-2.911 2.978-6.84 7.202-6.84 5.884 0 4.914 9.496-3.602 7.56.872 1.656 3.624 6.7 4.776 8.594 3.063 5.138 8.902 6.47 12.343 4.385-2.182 1.579-4.89 2.54-7.796 2.54-7.3 0-13.257-5.94-13.257-13.259m19.008-12.228h-.05c-.07 0-.128.052-.128.126 0 .058.02.111.095.12 4.452 2.12 7.572 6.7 7.572 11.982 0 1.546-.268 3.042-.756 4.418-.923 2.744-4.095 3.378-6.19-.074-.368-.64-2.55-4.7-3.184-5.916 10.13-1.935 4.33-15.003-8.51-10.795-.138.032-.093.205.024.181 11.86-2.55 13.731 10.462 4.1 10.86 1.063 1.918 2.867 5.056 3.567 6.334 1.947 3.466 5.227 4.238 8.257 2.586.249-.144.476-.275.585-.432-.216.354-.476.685-.733 1.007-1.282 1.531-6.733 3.37-10.55-2.814-.869-1.42-3.02-5.24-3.87-6.916 7.6.076 8.86-9.332.828-9.993-3.54-.286-9.185 2.187-11.43 8.433-.605 1.67-.913 3.461-.913 5.335 0 8.605 6.933 15.55 15.535 15.55 8.571 0 15.54-6.945 15.54-15.55 0-6.547-4.056-12.154-9.789-14.442m-16.472 35.025c0 .414-.343.689-.966.689h-.518v-1.326h.605c.556 0 .88.228.88.637m-.099 1.064c.541-.13.874-.56.874-1.075 0-1.14-.913-1.29-1.82-1.29h-1.181v4.701h.742v-2.054h.365c.348 0 .54 0 .722.44l.742 1.615h.84l-.894-1.884c-.14-.262-.216-.374-.389-.452m2.141-2.367v4.702h2.67v-.649h-1.928v-1.454h1.765v-.674h-1.765v-1.259h1.928v-.666zm5.057 1.879c-.446-.186-.786-.363-.786-.72 0-.527.523-.565.775-.565.331 0 .502.038.867.182h.023l.086-.69h-.01c-.315-.117-.667-.175-.99-.175-.947 0-1.538.517-1.538 1.302 0 .808.591 1.098 1.127 1.343.477.216.874.398.874.85 0 .54-.514.715-.89.715-.349 0-.82-.155-.95-.22l-.03-.018-.086.706h.038c.27.102.616.206.961.206 1.095 0 1.742-.526 1.742-1.428 0-.894-.69-1.226-1.213-1.488m4.205 2.242c-1.122 0-1.51-.963-1.51-1.765 0-.574.192-1.077.503-1.39.271-.267.605-.372 1.007-.372.383 0 .709.105.955.371.32.314.514.817.514 1.39 0 .803-.386 1.766-1.469 1.766m0-4.21c-1.359 0-2.304.983-2.304 2.445 0 1.484.912 2.439 2.304 2.439 1.36 0 2.247-.955 2.247-2.44 0-1.461-.904-2.444-2.247-2.444m6.169.089v3.634c-.129-.216-2.002-3.634-2.002-3.634h-.932v4.702h.73v-3.714c.116.217 2.034 3.714 2.034 3.714h.934v-4.702zm4.611 2.924h-1.726c.038-.106.814-1.999.871-2.148.084.15.835 2.042.855 2.148zm-.47-2.924h-.75l-2.014 4.702h.784s.451-1.107.473-1.152h2.225c.022.045.482 1.152.482 1.152h.788l-1.987-4.702z" mask="url(#a)"/></g></svg>