<svg height="39" viewBox="0 0 106 39" width="106" xmlns="http://www.w3.org/2000/svg" xmlns:xlink="http://www.w3.org/1999/xlink"><mask id="a" fill="#fff"><path d="m.06.434h21.299v18.566h-21.299z" fill="#fff" fill-rule="evenodd"/></mask><g fill="#b5c1c9" fill-rule="evenodd"><path d="m2.487 28.414c2.185 3.762 5.522 6.674 9.527 8.252-2.548-1.578-4.976-3.459-7.16-5.703-.85-.791-1.578-1.639-2.367-2.549"/><g transform="translate(0 19)"><path d="m.485 4.195c.182.789.425 1.578.667 2.305 1.275 1.76 2.61 3.398 4.187 4.977 2.973 2.912 6.25 5.279 9.77 7.099.788.182 1.637.303 2.426.363-4.247-1.88-8.191-4.55-11.649-8.007-2.124-2.065-3.884-4.369-5.401-6.737" mask="url(#a)"/><path d="m0 .434c0 .605.06 1.213.121 1.759 1.638 2.973 3.762 5.764 6.25 8.252 3.883 3.883 8.373 6.735 13.166 8.555.608 0 1.215-.061 1.822-.121-5.28-1.76-10.255-4.732-14.503-8.981-2.852-2.851-5.097-6.066-6.856-9.464" mask="url(#a)"/></g><path d="m.182 16.399c-.061.486-.122.972-.122 1.457 1.699 3.822 4.187 7.402 7.342 10.558 4.49 4.49 9.83 7.523 15.534 9.162.485-.06.971-.181 1.456-.365-6.007-1.455-11.772-4.611-16.504-9.344-3.398-3.398-5.947-7.342-7.706-11.468"/><path d="m.728 13.73c-.122.425-.243.849-.303 1.274 1.699 4.49 4.368 8.738 8.009 12.379 4.915 4.914 10.922 8.068 17.293 9.404.364-.121.79-.303 1.213-.486-6.614-1.213-12.924-4.367-18.021-9.404-3.822-3.883-6.553-8.313-8.191-13.167"/><path d="m1.577 11.485c-.182.364-.303.728-.485 1.092 1.577 5.097 4.308 9.769 8.313 13.773 5.279 5.279 11.832 8.375 18.628 9.406.363-.182.667-.426 1.032-.608-6.978-.849-13.774-3.943-19.115-9.283-4.126-4.187-6.917-9.101-8.373-14.38"/><path d="m8.13 21.557c-1.092-.243-1.941-1.213-1.941-2.427v-.364c-1.699-2.913-2.913-6.068-3.641-9.283-.182.303-.364.606-.485.971 1.335 5.46 4.126 10.618 8.373 14.866 5.461 5.459 12.439 8.553 19.538 9.221.304-.242.607-.424.911-.668-7.282-.484-14.381-3.517-19.903-9.039-1.032-1.033-2.002-2.125-2.852-3.277"/><path d="m7.038 17.31c-1.638-3.034-2.791-6.25-3.337-9.587-.182.303-.364.546-.607.849.607 3.277 1.76 6.432 3.459 9.344.121-.242.303-.424.485-.606m2.731 4.004c-.182.122-.486.243-.728.243.728.97 1.577 1.881 2.427 2.791 5.642 5.584 12.863 8.556 20.205 8.859.243-.244.485-.484.789-.729-7.464-.121-14.805-3.033-20.448-8.677-.789-.787-1.517-1.637-2.245-2.487"/><path d="m29.55 31.568c1.152.122 2.366.182 3.58.182.181-.182.363-.424.546-.606-1.093.303-2.306.424-3.52.424zm-16.504-8.799c-.789-.787-1.578-1.638-2.246-2.486-.121.242-.243.424-.424.608.667.849 1.334 1.636 2.123 2.425 3.945 3.883 8.677 6.432 13.713 7.647-1.517-.486-2.852-1.154-4.065-2.065-3.337-1.394-6.432-3.457-9.101-6.129m-4.612-6.005c-1.881-3.277-3.034-6.918-3.459-10.558-.243.243-.424.485-.667.728.485 3.52 1.638 6.857 3.337 10.012.243-.121.485-.182.789-.182"/><path d="m19.963 26.775c-.243-.302-.486-.607-.729-.97-1.82-1.094-3.58-2.489-5.157-4.065-4.733-4.673-7.343-10.68-7.767-16.869-.243.243-.486.425-.728.668.425 3.944 1.638 7.766 3.701 11.286 1.032.303 1.821 1.213 1.821 2.305v.364c.728.971 1.516 1.881 2.427 2.791 2.063 2.063 4.369 3.762 6.856 5.035v-.06c-.121-.121-.242-.303-.424-.485"/><path d="m15.048 20.707c-4.672-4.671-7.16-10.739-7.342-16.928l-.729.546c.304 6.189 2.852 12.256 7.585 16.929 1.214 1.213 2.548 2.305 3.944 3.215-.182-.363-.364-.787-.546-1.274-.971-.728-1.941-1.578-2.912-2.488m10.072 4.672c1.397 1.094 3.216 1.82 5.158 1.82 1.031 0 2.002-.181 2.852-.484-2.731 0-5.4-.426-8.01-1.336"/><path d="m16.079 19.676c-4.672-4.611-6.978-10.74-6.978-16.868-.242.121-.485.303-.728.425.121 6.188 2.488 12.317 7.221 16.99.667.668 1.335 1.273 2.063 1.881-.122-.426-.183-.79-.243-1.153-.425-.426-.91-.789-1.335-1.275"/><path d="m17.293 18.887c-.061-.06-.122-.121-.183-.121-4.611-4.611-6.795-10.74-6.553-16.808-.242.122-.485.304-.728.425-.121 6.068 2.124 12.257 6.796 16.808.182.243.425.485.668.727zm5.946 4.127c.182.424.364.787.607 1.092 3.458 1.517 7.22 2.062 10.861 1.82.425-.242.789-.547 1.153-.85-4.247.547-8.677-.121-12.621-2.062"/><path d="m22.755 21.131c.059.365.12.668.181.973 4.247 2.183 9.101 2.912 13.714 2.123l.12-.121c.182-.243.364-.487.486-.79-4.855 1.032-10.073.303-14.501-2.185m-5.281-4.125c-4.004-4.429-5.824-10.133-5.4-15.715-.242.122-.546.243-.789.364-.303 5.825 1.699 11.771 6.068 16.322 0-.121 0-.242.061-.364 0-.182.06-.425.06-.607"/><path d="m13.591.806c-.303.06-.545.121-.788.243-.486 5.339 1.152 10.8 4.854 15.108.121-.243.182-.546.303-.85-3.459-4.125-4.914-9.404-4.369-14.501m10.74 19.538c-.546-.305-1.152-.608-1.698-.971v.91c4.61 2.67 9.95 3.459 14.986 2.244.122-.242.183-.484.244-.728v-.059c-3.945 1.029-8.192.787-12.015-.73h-1.517zm-1.698-1.76c.546.364 1.152.668 1.698.97v-.788c-.546-.303-1.092-.667-1.637-1.031-.061.303-.061.606-.061.849"/><path d="m28.093 21.01c3.216.849 6.674.849 9.89-.059 0-.244 0-.486.061-.789-.12.061-.242.061-.364.121 0 .242-.061.485-.061.727zm-13.045-20.568c-.243 0-.486.06-.728.121-.607 4.915.667 9.951 3.883 14.016.121-.243.242-.546.364-.788-2.973-3.884-4.126-8.738-3.519-13.349"/><path d="m19.416 12.456c-2.609-3.641-3.519-8.07-2.852-12.318-.242.061-.485.061-.788.122-.667 4.429.424 9.101 3.156 12.863.181-.182.302-.425.484-.667m18.628 6.553v-.304c-.181.061-.303.122-.485.182 0 .183.06.425.06.667.122-.06.305-.06.425-.12zm-15.23-2.063c.486.364 1.032.728 1.517 1.031v-.789h.182c-.545-.303-1.031-.607-1.517-.97zm15.23 1.031c0-.242-.061-.485-.061-.729-.242.062-.424.123-.667.183.061.243.122.485.122.728.181-.06.425-.121.606-.182"/><path d="m18.081.017c-.242 0-.546.061-.788.061-.729 4.065.121 8.312 2.548 11.832.182-.243.304-.425.485-.607-2.245-3.337-2.973-7.463-2.245-11.286m9.83 17.171c-1.516-.546-2.973-1.335-4.308-2.366-.121.182-.243.425-.364.668.85.667 1.759 1.213 2.731 1.698z"/><path d="m19.537.017h-.727c-.789 3.641-.061 7.524 2.062 10.801.183-.183.365-.364.548-.486-2.004-3.094-2.61-6.857-1.883-10.315m18.326 16.504c0-.242-.061-.547-.061-.789-.304.121-.546.182-.85.304.121.243.182.485.243.728.243-.122.485-.183.668-.243m-5.826.667v-.607c-2.67-.182-5.278-1.152-7.524-2.851l-.182.182c-.121.121-.242.243-.363.303 2.062 1.638 4.368 2.61 6.795 2.973z"/><path d="m20.994.078c-.242 0-.485 0-.728-.061-.729 3.337-.181 6.917 1.759 9.89.183-.121.365-.243.608-.364-1.821-2.852-2.367-6.25-1.639-9.465m16.625 14.987c0-.243-.06-.486-.121-.729-.364.122-.667.243-1.031.304.122.243.183.486.303.728.303-.121.546-.183.849-.303m-6.066 0c-2.003-.182-3.884-.91-5.583-2.124-.304.121-.546.243-.789.364 2.002 1.517 4.308 2.367 6.674 2.548-.06-.242-.182-.546-.302-.788m5.703-1.456c-.061-.183-.122-.425-.183-.668-.423.121-.849.303-1.273.425.121.182.242.425.363.667.365-.121.729-.242 1.093-.424m-7.524-.365c-.304-.121-.667-.242-.971-.364-.607-.182-1.275-.182-1.881-.121 1.274.789 2.73 1.274 4.126 1.517-.364-.425-.788-.789-1.274-1.032"/><path d="m22.45.32c-.242-.06-.485-.121-.728-.121-.728 3.034-.242 6.31 1.578 9.041.182-.121.424-.243.668-.304-1.7-2.548-2.246-5.703-1.518-8.616m14.381 11.954c-.121-.243-.181-.486-.303-.728-.486.242-1.032.424-1.578.485.182.243.304.485.485.667.486-.121.91-.242 1.396-.424"/><path d="m23.846.624-.728-.182c-.668 2.791-.182 5.824 1.577 8.312.243-.121.547-.121.789-.182-1.76-2.306-2.305-5.279-1.638-7.948"/><path d="m27.304 8.39c-2.001-2.002-2.669-4.793-2.062-7.341-.244-.061-.486-.183-.729-.243-.606 2.608 0 5.46 1.82 7.645.304 0 .607-.061.971-.061m7.16 3.034c.607-.061 1.214-.242 1.76-.485-.061-.243-.182-.485-.303-.668-.667.243-1.396.425-2.124.485.243.243.485.426.667.668"/><path d="m28.396 7.48c-1.637-1.577-2.184-3.822-1.759-5.886-.242-.121-.485-.243-.728-.303-.546 2.306.121 4.915 1.942 6.735.182.121.303.304.485.425.729.061 1.456.243 2.184.425-.788-.304-1.516-.789-2.124-1.396m7.161 2.184c-.122-.243-.242-.485-.364-.667-1.336.486-2.731.486-4.066.122.668.242 1.274.606 1.881 1.031.849 0 1.759-.182 2.549-.486"/><path d="m34.828 8.39c-.182-.243-.303-.424-.485-.667-1.699.485-3.58.06-4.915-1.274-1.153-1.153-1.637-2.731-1.456-4.248-.242-.121-.486-.243-.729-.303-.303 1.76.243 3.701 1.639 5.097 1.578 1.577 3.885 2.062 5.946 1.395"/><path d="m33.857 7.116c-.181-.182-.364-.425-.546-.667-1.031.121-2.063-.243-2.851-1.032-.668-.667-1.032-1.517-1.093-2.366-.242-.122-.485-.304-.728-.425-.061 1.153.365 2.427 1.274 3.337 1.093 1.092 2.549 1.456 3.944 1.153"/><path d="m32.705 5.782c-.789-.79-1.639-1.518-2.549-2.185.122.485.364.97.789 1.334.486.486 1.092.789 1.76.851m37.134 17.232c.304 1.697.971 2.972 2.549 3.459 1.881.545 4.247.424 5.4-1.094.424-.545.485-1.334.303-2.002-.303-1.031-1.213-1.273-3.033-1.637-1.578-.365-5.461-.789-7.524-2.367-1.639-1.274-2.489-3.701-1.639-6.371.972-2.852 3.884-4.126 6.069-4.43 4.064-.606 7.341.911 8.736 2.367 1.093 1.153 1.821 2.973 1.76 4.733h-4.49c-.061-.546-.121-1.093-.365-1.578-.545-1.214-1.82-1.942-3.215-1.942-1.578-.121-3.216.304-3.883 1.639-.243.485-.243 1.335.182 1.82.971 1.092 2.851 1.153 4.49 1.456 2.791.485 5.825.971 7.159 3.277 1.517 2.67.668 5.703-.302 6.916-.668.851-1.457 1.638-2.488 2.246-1.76.971-4.733 1.334-7.645.85-2.671-.424-4.491-1.76-5.522-3.399-.789-1.273-1.274-2.367-1.274-3.943zm-20.388-5.826h7.646c.121-1.759-1.214-3.701-2.973-4.247-1.638-.485-3.338-.182-4.733.971-1.274 1.153-1.699 3.58-1.699 5.097.06 2.85.607 4.854 2.245 6.067 1.092.789 3.58 1.821 5.764.244.971-.73 1.396-1.701 1.578-2.427h5.4c-.121 1.697-1.76 4.427-3.397 5.642-2.913 2.123-6.736 2.549-9.77 1.397-6.492-2.428-7.524-8.618-7.038-12.319.243-1.517.789-3.094 1.578-4.49 1.516-2.427 3.7-4.126 6.734-4.611 3.338-.486 6.615.545 8.737 2.912 1.215 1.396 2.368 3.702 2.791 5.582.244 1.275.487 2.609.365 4.004h-13.228zm49.453 6.796c-.547 1.457-2.064 2.305-3.883 2.489-.363.06-.786.119-1.209.058-1.214 0-2.246-.605-2.67-1.515-.486-.91-.182-1.821.121-2.368.728-1.273 2.002-1.517 3.763-1.88.544-.061 1.149-.182 1.814-.364 1.335-.302 1.64-.545 2.306-1.031 0 .486.061 3.943-.242 4.611zm5.461.789v-6.553c-.061-1.699-.061-3.398-.426-4.976-.363-1.577-1.759-4.187-6.25-4.732-.848-.061-1.757-.061-2.668-.061-1.517.061-3.094.303-4.367.789-2.67 1.092-4.006 3.701-4.006 6.432h4.854c-.121-1.396.911-2.67 1.881-3.035.425-.181 1.032-.303 1.638-.303 1.214-.059 2.427.243 3.276 1.032.546.546.728 1.274.546 2.063-.303 1.274-1.699 1.699-3.822 2.002v.001c-.728.121-1.575.181-2.484.303-2.548.303-6.189 1.577-7.039 5.279-.302 1.455-.061 4.125 2.185 5.884 1.517 1.153 3.641 1.7 5.279 1.639.729 0 1.456-.06 2.064-.181v-.002c1.696-.364 3.03-1.153 4.302-2.184.061.305.365 1.457.607 1.762h5.097c-.789-1.578-.667-3.885-.667-5.159z"/></g></svg>