<svg height="31" viewBox="0 0 180 31" width="180" xmlns="http://www.w3.org/2000/svg" xmlns:xlink="http://www.w3.org/1999/xlink"><mask id="a" fill="#fff"><path d="m.257.48h39.242v20.671h-39.242z" fill="#fff" fill-rule="evenodd"/></mask><mask id="b" fill="#fff"><path d="m0 29.521h180v-29.029h-180z" fill="#fff" fill-rule="evenodd"/></mask><g fill="#b5c1c9" fill-rule="evenodd"><path d="m33.62.48h-9.073l-2.71 13.187c-.927 4.558-3.803 5.758-7.273 5.758-3.154 0-6.142-1.67-5.363-5.758.167-.882.223-1.22.372-1.97h4.082c-.074.394-.223 1.05-.427 1.97-.297 1.407.315 2.288 1.855 2.288 1.56 0 2.339-.844 2.617-2.288l2.728-13.188h-9.538c-5.103 0-6.643 1.295-7.57 5.815l-3.064 14.857h18.445c4.528 0 6.995-2.645 7.663-5.815l.613-3.057h4.509c4.546 0 7.292-1.933 7.923-5.853.612-3.658-2.004-5.947-5.79-5.947m1.578 5.947c-.26 1.82-1.689 2.645-4.194 2.645h-3.358l1.113-5.44h3.433c2.542 0 3.21 1.294 3.006 2.795" mask="url(#a)" transform="translate(1.46 .012)"/><path d="m1.076 24.343h2.264c.538 0 1.447.207 1.447 1.182 0 .694-.538 1.22-1.336 1.313v.019c.594.075.984.431.984.994 0 1.107-.928 1.613-2.097 1.632l-2.338.038zm.483 4.202h.37c.688 0 1.151-.206 1.151-.712 0-.45-.334-.526-.946-.526h-.334zm.445-2.157h.52c.556 0 .909-.225.909-.581-.019-.432-.353-.488-.854-.488h-.352zm10.696-2.045h1.725l.836 5.178h-1.374l-.148-1.107h-1.985l-.613 1.107h-1.484zm.687 1.07h-.019l-1.076 2.026h1.317zm8.735-1.07h1.707l1.058 3.583.723-3.583h1.299l-1.095 5.178h-1.688l-1.077-3.602h-.018l-.705 3.602h-1.299zm10.925 0h1.373l-.445 2.101h.018l1.856-2.101h1.763l-2.431 2.514 1.521 2.664h-1.577l-1.28-2.364-.501 2.364h-1.373zm39.427-9.517c0-4.596-2.597-6.79-6.772-6.884-.037-1.05-.093-2.176-.149-3.377h-2.876c.055 1.332.111 2.551.148 3.696-2.95.75-5.288 2.739-6.587 5.083-.13.263-.26.507-.37.788l-.075-.037c.056-.394.074-.863.093-1.37.018-1.181.13-3.826.278-5.815h-2.746c-.223 4.108-.26 10.355-.093 13.863h2.728c0-4.558 2.69-8.967 6.865-10.28.149 4.502.186 7.39-.148 9.285-1.782-.262-3.044-.9-4.36-1.95v2.063c.964.807 2.245 1.407 3.766 1.744-.816 1.483-2.357 1.839-5.047 2.195v1.877c4.583-.282 6.903-1.07 7.979-3.771 4.991-.02 7.366-2.308 7.366-7.11m-6.828 5.084c.371-2.27.334-5.421.148-9.792 2.505.112 3.897 1.632 3.897 4.708 0 3.077-1.225 4.878-4.045 5.084m9.684-6.995c3.487-.975 6.828-1.82 10.743-1.82 4.083 0 7.033 1.595 7.033 5.91 0 5.533-3.897 8.441-14.66 8.441v-2.195c8.443-.037 11.635-2.288 11.635-6.246 0-2.683-1.522-3.677-4.064-3.677-3.414 0-5.288.544-10.688 2.176v-2.589zm1.836-7.149v2.157c4.23-.132 8.981-.019 13.435.619v-2.72c-4.342-.375-9.204-.338-13.435-.056m30.48 7.901c-2.82 0-4.824.92-6.476 2.308l1.652-5.553c3.748 0 7.645-.075 10.836-.263v-2.082c-3.061.15-6.698.263-10.224.282l1.225-4.108h-2.969l-1.225 4.108c-2.022-.02-3.97-.075-5.678-.15v2.026c1.54.074 3.266.131 5.085.168l-2.635 8.854h2.95c1.967-1.97 4.138-3.432 7.274-3.432 1.985 0 3.395 1.313 3.395 3.17 0 3.658-2.82 4.633-12.524 3.864v2.157c10.001.938 15.382.094 15.382-6.02 0-2.89-2.171-5.329-6.068-5.329m24.33 7.31c-2.19-1.125-4.175-2.063-6.03-2.72v-4.277h5.863v-2.007h-5.863v-3.808h-2.617v9.342c-.78-.15-1.559-.225-2.32-.225-3.284 0-4.75 1.932-4.75 3.958 0 2.682 2.171 3.902 4.955 3.902 3.34 0 4.732-1.05 4.732-3.47v-1.295c1.725.713 3.674 1.763 6.03 3.076zm-8.647.132c0 1.462-.668 2.157-2.096 2.157-1.504 0-2.413-.657-2.413-1.989s1.076-2.1 2.245-2.1c.743 0 1.485.093 2.264.28z"/><path d="m167.377 7.068h11.764v-2.064h-11.764zm12.623 4.609h-13.601v2.063h7.404v8.685c0 .77-.409 1.238-1.225 1.238h-2.431v2.045h4.193c1.522 0 2.394-.844 2.394-2.457v-9.511h3.266zm-16.74-1.4c-.539 2.757-2.487 5.196-4.547 6.133v2.102c1.058-.282 2.042-.732 2.95-1.313v8.572h2.728v-11.198c.91-1.257 1.54-2.72 1.8-4.296h-2.932zm2.612-5.809h-3.098c-.576 2.158-2.19 3.827-3.842 4.54v2.026c3.451-.638 6.068-3.114 6.94-6.566m-12.991 16.276c1.485-.807 2.58-2.082 3.1-4.09h-2.413c-.353 1.276-.91 2.083-1.633 2.702-.557-1.032-.984-2.25-1.225-3.64h4.843v-10.673h-10.057v18.14c-.37.018-.742.056-1.113.093v-1.332c-.854.17-1.893.338-3.025.488v-6.922h3.47v-1.763h-3.47v-1.95h2.264v-1.614c.39.244.78.469 1.206.619v-2.608c-1.447-.844-2.727-2.27-3.266-3.713h-2.653c-.575 1.819-2.376 4.089-3.804 4.876v1.895c.594-.225 1.188-.506 1.744-.863v1.407h2.06v1.951h-3.581v1.763h3.58v7.204c-1.28.15-2.578.262-3.803.356v2.382c3.507-.412 6.94-1.106 9.278-1.763v1.97c2.783-.45 4.88-.9 6.661-1.52v-1.725c-.909.168-1.967.337-3.117.487v-7.185h.947c.612 5.403 3.228 8.874 7.292 10.055v-2.457c-1.262-.6-2.376-1.445-3.285-2.57zm-12.265-14.124c.65 1.37 1.614 2.588 2.784 3.414h-5.975c1.261-.882 2.393-2.026 3.191-3.414zm7.31 2.87h5.197v-2.684h-5.196v2.684zm0 4.465h5.197v-2.72h-5.196v2.72z" mask="url(#b)"/><path d="m143.686 20.793c.353-1.145.594-2.364.78-3.884h-2.041c-.019 1.37-.056 2.552-.13 3.884zm-6.379-3.893h-1.578c.13 1.482.186 2.851.204 4.408h2.171c-.204-1.576-.5-3.151-.797-4.409" mask="url(#b)"/></g></svg>