<svg height="45" viewBox="0 0 72 45" width="72" xmlns="http://www.w3.org/2000/svg" xmlns:xlink="http://www.w3.org/1999/xlink"><mask id="a" fill="#fff"><path d="m0 .207h71.773v44.289h-71.773z" fill="#fff" fill-rule="evenodd"/></mask><g fill="#b5c1c9" fill-rule="evenodd"><path d="m66.102 20.452s.574-7.597-7.355-11.282c0 0-1.226-8.963-10.537-8.963 0 0-4.216-.06-6.513 2.333 0 0-.881.74-.268 1.958-.001 0 .881 1.442 2.643.42 0 0 2.184-1.371 4.1-1.294 0 0 7.165-.304 7.165 8.054 0 0 8.16 1.48 7.28 11.28 0 0 5.63.646 5.63 6.116 0 0-.037 5.05-5.401 5.697 0 0-.91.15-1.265.477 0 0-.554.404-.613 1.358v4.434h-49.922l.002-18.227c0-1.128-.675-2.057-2.055-2.057h-3.073l16.23-16.213 4.697 4.657c.714.707 1.873.707 2.589 0 .715-.71.715-1.859 0-2.57l-5.88-5.826c-.19-.188-.413-.325-.65-.414-.185-.08-.404-.145-.635-.145 0 0-.768-.113-1.455.57l-20.28 20.133c-.714.708-.714 1.857 0 2.567.399.395.936.568 1.457.523h5.374l.003 18.404c0 1.129.673 2.055 2.052 2.055l53.118-.004c1.046 0 2.037-.683 2.037-1.963l-.005-4.606s7.201-1.632 7.201-8.964c0 0-.037-6.229-5.67-8.508z" mask="url(#a)" transform="translate(0 .256)"/><path d="m36.847 23.029v-8.184c0-1.188-.974-2.152-2.173-2.152-1.2 0-2.173.964-2.173 2.152v8.184c0 1.189.973 2.154 2.173 2.154 1.199 0 2.173-.965 2.173-2.154zm12.412-8.184c0-1.188-.971-2.152-2.172-2.152-1.2 0-2.173.964-2.173 2.152v1.832l-2.41-3.12c-.008-.012-.017-.026-.027-.035-.399-.505-1.016-.83-1.713-.83-1.198 0-2.17.965-2.17 2.153v8.184c0 1.189.972 2.154 2.17 2.154 1.201 0 2.173-.965 2.173-2.154v-1.829l2.433 3.154c.735.937 2.1 1.11 3.049.382.564-.434.852-1.09.84-1.748zm6.169 8.184v-8.184c0-1.188-.973-2.152-2.174-2.152-1.198 0-2.171.964-2.171 2.152v8.184c0 1.189.973 2.154 2.171 2.154 1.201 0 2.174-.965 2.174-2.154zm-29.019 3.587c-1.021 0-1.849.82-1.849 1.833 0 1.012.828 1.83 1.849 1.83h.805v6.65c0 1.19.971 2.155 2.173 2.155 1.198 0 2.17-.966 2.17-2.154v-6.65h.378c1.02 0 1.848-.82 1.848-1.831 0-1.012-.828-1.833-1.848-1.833h-5.525z"/><path d="m39.82 26.358c3.739 0 6.77 2.947 6.77 6.58 0 3.635-3.031 6.582-6.77 6.582-3.74 0-6.772-2.947-6.772-6.581s3.032-6.58 6.772-6.58zm-.077 3.868c-1.512 0-2.737 1.215-2.737 2.713 0 1.497 1.225 2.711 2.737 2.711 1.51 0 2.736-1.214 2.736-2.711 0-1.498-1.226-2.713-2.736-2.713zm-12.481-16.995c-.115.076-.222.164-.324.264l-2.763 2.74-2.723-2.7c-.397-.512-1.02-.842-1.722-.842-.875 0-1.629.515-1.971 1.254-.009.013-.014.026-.02.04-.003.011-.01.02-.013.031-.14.326-.197.68-.167 1.029v7.982c0 1.189.973 2.154 2.171 2.154 1.201 0 2.173-.965 2.173-2.154v-2.957l2.119 2.1.153.152 2.35-2.329v3.034c0 1.189.97 2.154 2.17 2.154s2.173-.965 2.173-2.154v-8.184c0-1.188-.972-2.152-2.173-2.152-.55 0-1.05.203-1.433.538zm-7.264 13.112c-2.248 0-4.167 1.82-4.167 3.977 0 1.576 1.011 2.747 1.947 3.461.342.262.697.45.956.583 1.18.598 1.454.772 1.236 1.19-.177.338-.626.123-.855-.004-.23-.127-.88-.585-1.602-.585-.842 0-2.024.408-2.024 1.643 0 .78.428 1.338.964 1.738.903.67 1.83 1.188 3.491 1.188 2.4 0 4.498-2.001 4.393-4.43-.1-2.391-1.983-3.47-2.621-3.748-.375-.161-.907-.398-1.245-.641-.362-.26-.52-.534-.353-.761.419-.568 1.373.404 2.047.551.767.164 2.096-.245 2.041-1.661-.048-1.25-1.96-2.501-4.208-2.501zm33.845.337c2.259 0 4.089 1.816 4.089 4.056 0 2.241-1.83 4.056-4.089 4.056h-1.748v2.214c0 1.19-.973 2.155-2.172 2.155-1.201 0-2.171-.965-2.171-2.155l.01-9.16c0-.8.55-1.166 1.217-1.166zm-.29 3.099h-1.457v2.03h1.458c.565 0 1.024-.455 1.024-1.016 0-.56-.459-1.014-1.024-1.014z"/></g></svg>