<svg height="24" viewBox="0 0 144 24" width="144" xmlns="http://www.w3.org/2000/svg" xmlns:xlink="http://www.w3.org/1999/xlink"><mask id="a" fill="#fff"><path d="m.563.831h23.358v22.28h-23.358z" fill="#fff" fill-rule="evenodd"/></mask><mask id="b" fill="#fff"><path d="m.204.831h17.797v22.28h-17.797z" fill="#fff" fill-rule="evenodd"/></mask><g fill="#b5c1c9" fill-rule="evenodd"><path d="m7.608 5.136h-.223l-.074.076v.226l10.01 8.988c.075 0 .075.075.149.075h.074v-9.138s0-.076-.074-.151c0 0-.074-.076-.149-.076h-1.78c-.222 0-.37 0-.518-.076-.075 0-.149-.075-.223-.15l-.222-.227c0-.151-.075-.303-.075-.454v-2.567c0-.15.075-.226.075-.378.074-.075.074-.15.148-.226s.222-.151.297-.151c.074-.076.148-.076.296-.076h7.861c.074 0 .148 0 .148.076.149 0 .223.075.297.075.073.076.148.151.148.302.074.075.148.303.148.454v2.567c0 .075-.074.227-.074.378l-.149.15c0 .076-.073.152-.147.152-.074.075-.148.075-.223.151h-1.853c-.075.076-.224.076-.297.076-.074.075-.15.075-.15.15-.073.152-.073.227-.073.378v12.84c.074.075.149.15.223.15 0 .076.073.076.073.076h2.003c.074.076.149.076.223.151.074 0 .148.076.221.151 0 .076.075.076.075.152 0 .075.074.15.074.15v2.794c0 .152-.074.303-.149.454 0 .075-.073.15-.147.226-.074.077-.148.077-.223.077-.074.075-.222.075-.296.15h-.445l-7.268-.075h-.222c-.149-.075-.223-.152-.297-.227-.074 0-.148-.151-.148-.227-.074-.075-.149-.302-.149-.378l.075-2.869c0-.075.074-.151.074-.227l.148-.15c.074 0 .074-.076.148-.076.149-.076.297-.076.371-.076.371-.075 1.335 0 1.557 0l.074-.075c.075 0 .075-.076.075-.076v-.075l-.223-.227-9.788-8.761-.075-.076c-.074 0-.074.076-.147.076v8.836c0 .076.073.152.073.227.074.076.15.076.15.076h.074c.222 0 1.853 0 2.075.075.15 0 .298.076.372.076l.148.15c.074 0 .074.076.148.152.075.076.075.151.075.151 0 .076.074.151.074.227l-.074 2.794c0 .075 0 .15-.075.226 0 .076-.074.151-.148.227-.074.075-.148.152-.222.152-.075.075-.149.075-.298.075h-7.786c-.074 0-.222-.075-.37-.075l-.222-.228c-.074-.075-.149-.15-.149-.226-.074-.151-.074-.378-.074-.53v-2.341c0-.074 0-.225.074-.376 0-.076.075-.076.075-.152.074-.075.148-.15.222-.15.074-.076.148-.152.296-.152.074 0 .148-.075.297-.075h1.63c.075 0 .15 0 .15-.076.073-.075.073-.151.073-.302v-12.915c0-.075 0-.15-.074-.226-.074 0-.148 0-.222-.076h-1.409c-.148 0-.297 0-.445-.076-.074 0-.074 0-.148-.075-.074 0-.148-.076-.222-.076-.074-.15-.148-.226-.148-.302v-3.247c0-.075 0-.15.074-.15l.222-.227c.074-.075.222-.075.296-.075h.149l7.34-.078.074.076v-.076c.15 0 .297.076.446.076.074 0 .149 0 .223.075h.074c.074.076.222.151.222.302.075.075.149.152.149.227v2.72c0 .076 0 .227-.074.303 0 .075 0 .226-.075.302-.074 0-.074.075-.148.075l-.148.151c-.074.076-.149.076-.223.076h-1.705z" mask="url(#a)" transform="translate(119.564 .058)"/><path d="m103.072 17.958c0 .15.074.377.148.453 0 .076.074.227.149.302.074 0 .148.076.222.151s.223.075.297.15h.518l8.751.076h.223c.146-.075.37-.075.518-.151.074-.075.222-.15.297-.226.074-.075.074-.15.148-.15 0-.076.073-.228.073-.303.075-.076.075-.227.075-.302v-11.708c0-.151 0-.302-.075-.453 0-.076-.073-.227-.147-.303-.074-.074-.15-.15-.223-.15-.074-.075-.148-.15-.223-.15-.148 0-.223-.076-.297-.076h-9.194s-.37.075-.518.075c-.075 0-.149.076-.223.076l-.222.225c-.075.076-.149.152-.223.303 0 0 0 .15-.074.226v11.934zm11.79-16.993c.223 0 .445.075.667.075.074.075.223.075.371.151.223.076.37.226.593.303l.446.452c.074.076.074.076.074.151.074.076.148.076.148.151.148.227.222.378.296.605.074.15.148.302.148.453.075.226.075.453.075.755v15.86c0 .302 0 .605-.075.831-.074.226-.074.453-.222.604-.074.227-.148.378-.222.529-.074.075-.148.075-.148.15-.074.076-.074.076-.074.152-.075.076-.223.151-.297.227-.074.075-.149.15-.223.15-.148.152-.37.227-.519.302-.148.076-.297.152-.445.152-.222.075-.593.075-.964.075h-11.864c-.149 0-.371 0-.593-.075-.148-.076-.297-.076-.445-.152-.148-.075-.297-.15-.37-.226-.075-.075-.15-.15-.223-.15-.075-.076-.223-.152-.297-.227-.074-.152-.223-.303-.297-.454-.148-.226-.222-.378-.296-.529-.075-.15-.075-.377-.148-.528v-17.145c0-.225.073-.603.073-.754.075-.076.223-.378.371-.605.074-.15.223-.377.371-.529.148-.075.223-.225.37-.302.15-.074.372-.226.52-.302.149-.075.371-.075.519-.15z"/><path d="m18 7.477c0 .076 0 .151-.074.227 0 .15-.074.226-.148.302-.074.151-.223.227-.297.302-.148 0-.296.076-.444.076h-1.335c-.074-.076-.223-.076-.297-.151-.074 0-.148-.076-.223-.076l-.147-.151c-.074-.076-.148-.151-.148-.227 0-.15-.075-.302-.075-.453v-1.36c0-.075-.074-.226-.074-.377-.074-.075-.148-.151-.222-.302-.074-.076-.223-.076-.297-.151-.148 0-.37-.076-.52-.076h-9.193c-.149 0-.297.076-.371.076-.149.075-.223.15-.297.226-.073.076-.147.227-.222.378v3.55c0 .075.075.226.075.302.074.075.074.152.147.226.074.076.148.076.223.152.074 0 .074.076.148.076h.222l10.53.075h.668c.148.075.593.15.593.226.223.075.37.15.593.303.149.074.296.302.445.453l.222.226c.074.152.149.226.223.378.074.15.148.303.148.453.074.15.074.302.149.453v7.779c0 .15-.075.378-.075.529-.074.226-.148.377-.222.529l-.223.453c-.148.15-.222.301-.37.452-.148.076-.297.227-.445.303l-.445.226c-.223.077-.445.151-.668.227h-12.829c-.074 0-.148 0-.297-.076-.148-.074-.37-.074-.518-.15-.222-.076-.37-.227-.52-.379-.222-.075-.296-.226-.444-.377-.074 0-.223-.151-.223-.226-.074-.151-.222-.378-.297-.605-.074-.15-.074-.302-.148-.453 0-.151-.074-.378-.074-.529v-3.776c0-.302.074-.603.074-.83 0-.151.074-.227.074-.302.074-.076.074-.151.149-.227.074 0 .074-.075.148-.151s.223-.076.297-.076h1.557c.148 0 .296 0 .445.076.074 0 .148.076.222.076l.223.226c.074.151.074.227.148.378v2.039c0 .151 0 .302.074.377 0 .151.075.227.149.302.073.076.073.151.147.227.074 0 .149.075.223.075.148.076.222.076.37.076 0 0 9.047.076 9.27.076.148 0 .297-.076.37-.076.075-.076.15-.076.223-.151.075-.076.149-.151.223-.151 0-.076.074-.151.074-.227.074-.151.148-.226.148-.377v-4.002c-.074-.076-.074-.152-.074-.303l-.148-.15c-.074-.076-.223-.303-.371-.303h-11.123c-.222 0-.445 0-.668-.076-.222-.075-.37-.075-.592-.15-.074-.076-.148-.152-.297-.227-.074-.076-.222-.151-.297-.227-.148-.076-.222-.226-.296-.302l-.297-.302c-.074-.15-.148-.303-.223-.53-.074-.15-.074-.302-.148-.528-.074-.15-.074-.302-.074-.453v-6.721c0-.227.074-.454.074-.68.074-.152.148-.377.223-.528l.222-.454.223-.226.445-.454c.074-.075.52-.302.592-.302.149-.076.297-.151.445-.151h12.829c.222 0 .445.075.667.075.074.076.223.152.371.152l.445.226.445.454c.148.075.222.226.296.377.074.076.149.151.223.303l.222.679c.075.226.075.453.075.68v3.7z" mask="url(#b)" transform="translate(78.545 .058)"/><path d="m59.025 9.725c-.074-.151-.222-.378-.297-.529h-.074c-.074.076-.148.151-.148.227l-4.301 9.214c-.074.076-.074.076 0 .151.075.076.075.076.148.076.149.075.223 0 .371 0l1.557.075c.149 0 .223.076.297.151.074 0 .074.076.148.076.074.151.149.227.149.302v2.87c0 .075 0 .226-.075.302 0 .075-.074.15-.148.226s-.148.152-.297.227h-.295c-.075.076-.149.076-.297.076l-7.638-.076c-.074 0-.223 0-.297-.075-.074 0-.148-.076-.222-.076 0-.076-.075-.151-.148-.227-.074-.075-.074-.226-.148-.302l.074-2.794c0-.15 0-.226.074-.302 0-.075.073-.151.148-.227.074-.075.148-.075.222-.15.074 0 .148-.076.297-.076h1.853c.075-.076.075-.151.075-.151v-.151c-.149-.226-.223-.453-.297-.68-.074-.075-.074-.15-.149-.226l-6.006-11.934c-.074-.075-.074-.15-.148-.226 0-.076-.074-.227-.223-.227-.074-.075-.148-.075-.222-.075-.073-.076-.148-.076-.222-.076h-1.335c-.074 0-.148 0-.297-.076-.074 0-.147-.075-.222-.15-.074 0-.074-.075-.148-.075 0-.076-.075-.151-.075-.227-.074-.151-.074-.227-.074-.378v-2.568c0-.075 0-.226.074-.302.075-.151.15-.227.223-.227 0-.075.075-.15.148-.15.074 0 .148-.075.223-.075l8.157.075h.222c.074.075.148.075.222.15l.074.076c.075.075.149.227.149.302 0 .151.074.227.074.302l-.074 2.795c0 .076-.074.151-.074.227l-.149.15c-.074.075-.148.075-.222.151-.075 0-.148 0-.222.076h-2.15c-.075.075-.075.075-.075.15 0 0-.074.076 0 .152l4.597 9.138c0 .076.074.152.148.227h.075c.074 0 .148-.075.148-.151l4.227-9.139c.074 0 .074-.075.074-.15.074-.076.074-.152 0-.152 0-.075 0-.151-.074-.151h-1.855c-.073-.076-.147-.076-.222-.076l-.148-.15s-.074 0-.074-.075c-.073-.076-.073-.151-.148-.227 0-.076-.075-.151-.075-.227v-2.793c.075-.076.075-.151.15-.227 0-.076 0-.151.073-.151.074-.076.15-.151.222-.226.075 0 .223-.075.297-.075h8.083c.074 0 .222.075.37.075 0 .075.075.075.075.075l.148.15c.074.076.074.152.148.228v3.021c0 .075 0 .151-.074.302 0 .076-.074.076-.148.151l-.223.226c-.148 0-.222.076-.37.076h-1.779c0 .075-.075.075-.075.075v.151c0 .076.075.227.148.378l4.227 9.063v.076h.148c.074-.076.074-.151.148-.227l4.672-9.214c.074-.076.074-.151 0-.227 0-.075-.074-.075-.148-.075h-.445l-1.26-.076c-.075 0-.15.076-.15 0h-.37c-.074-.076-.148-.151-.223-.151-.073-.075-.148-.15-.148-.226l-.147-.151v-2.947c0-.075.073-.226.073-.302.074-.076.15-.151.222-.227.075-.075.149-.15.223-.15.074-.075.223-.075.297-.075h7.86c.148 0 .222 0 .37.075.075 0 .149.075.223.15.074.076.148.151.148.227.075 0 .075.076.075.151.074.076.074.151.074.227v2.643c0 .151 0 .303-.074.378 0 .076-.149.151-.149.226-.074 0-.074.075-.148.075 0 .076-.074.076-.149.076-.074.076-.148.076-.295.076h-1.707c-.074 0-.148.075-.148.075-.073.076-.222.151-.222.227l-6.526 12.764c0 .15-.074.302-.147.377 0 .076 0 .076.073.076 0 .075 0 .075.074.075.075.076.148.076.223.076h1.483c.149 0 .297.075.37.075.075.076.223.076.223.151.148.076.222.227.297.303v2.945c0 .075 0 .226-.075.302 0 .075-.074.15-.148.226l-.222.227c-.148 0-.223.076-.37.076h-7.862c-.149-.076-.297-.076-.444-.15 0 0-.075 0-.15-.077-.073-.076-.073-.151-.147-.227-.075-.075-.075-.15-.075-.226-.074-.151-.074-.377-.074-.604v-2.19c0-.076.074-.227.074-.378.075-.075.075-.151.15-.151.072-.076.072-.151.147-.151.148-.076.222-.076.37-.151l1.78.075c0-.075.074-.075.074-.075.074 0 .074-.076.074-.076v-.302l-4.078-8.76zm-29.365 3.173v.302c.075.076.15.076.15.151h4.448c.075 0 .223-.075.297-.075s.148-.152.148-.152v-.226l-2.298-4.08s-.074-.075-.149-.075h-.148l-.148.076zm-2.965 5.664c0 .075-.075.15 0 .15 0 .076.075.076.075.152h1.63c.222 0 .518.076.592.076s.149 0 .223.075c.148.076.222.151.296.227 0 0 .075.075.075.226.074.076.074.152.074.302v2.643c0 .076-.074.227-.074.303 0 .075-.075.075-.075.075l-.222.228c-.074 0-.148.074-.223.074-.074 0-.148.076-.222.076l-8.157-.076c-.074 0-.222-.074-.296-.15-.075-.076-.075-.076-.075-.152-.074-.075-.147-.151-.147-.227v-3.02c0-.076 0-.151.073-.227 0-.075.074-.15.149-.226.074-.076.148-.076.222-.151.074 0 .223-.076.297-.076h1.631c0-.076.074-.076.148-.076.075-.075.149-.15.149-.226l7.193-13.217v-.076h-1.854c-.148 0-.297-.15-.37-.226-.075-.076-.15-.151-.15-.227-.073-.076-.073-.151-.148-.227v-2.869c0-.076.075-.151.075-.227s.074-.15.074-.15l.222-.227c.075-.076.075-.076.149-.076.148-.076.222-.076.296-.076h8.009c.074 0 .222 0 .37.076l.223.227c.074.075.148.15.148.226v3.097c-.074.076-.074.227-.074.303l-.222.226c-.074.076-.149.076-.297.151h-2.075c0 .076-.074.076-.074.076v.227l7.415 13.216c.148.076.296.076.37.076h1.335c.149 0 .223.076.371.076.074 0 .148 0 .222.075l.223.227c.074 0 .074.075.148.15 0 .152.074.228.074.378v2.492c0 .151-.074.227-.074.378 0 .076-.074.151-.148.227-.075.075-.149.152-.223.152-.074.074-.148.074-.296.15h-8.083c-.074 0-.148 0-.223-.076-.074 0-.147-.074-.221-.074-.074-.077-.149-.152-.149-.228-.074 0-.074-.075-.148-.151 0-.076 0-.227-.074-.302l.074-2.644c0-.074 0-.226.074-.301 0-.076.074-.151.074-.151l.223-.227c.073-.075.147-.075.222-.075.074-.076.148-.076.222-.076h1.705c.075 0 .149 0 .149-.076.074 0 .074 0 .074-.075v-.076l-1.038-1.963c-.074-.076-.148-.227-.222-.302h-.223l-8.008-.076c-.074.076-.148.076-.222.151l-.223.227-1.038 1.888zm-17.055-14.35c0 .076-.074.227-.074.302v.151l-.297.303c-.149.075-.297.15-.371.15h-1.928c-.074 0-.148 0-.223.075-.073 0-.073.076-.147.152-.074 0-.074.075-.074.075v13.218c0 .075 0 .15.074.226 0 .075 0 .075.074.15h7.934c.074-.075.149-.075.149-.15.074-.076.074-.151.074-.226.074-.378 0-3.097 0-3.475 0-.075.074-.15.074-.15.074-.152.074-.227.148-.302.074-.076.149-.076.223-.151.073 0 .221-.076.296-.076h1.705c.075 0 .148 0 .297.076l.075.075c.073.076.147.151.222.226 0 .076.074.151.074.227v7.25c0 .076 0 .151-.074.226 0 .076 0 .151-.075.151 0 .151-.074.227-.147.303-.075 0-.224.075-.297.075-.075.076-.148.076-.223.076h-16.089c-.075-.076-.223-.076-.298-.076-.074-.075-.222-.151-.296-.151 0 0 0-.076-.075-.076-.074-.075-.074-.15-.148-.302 0-.075-.073-.226-.073-.377v-2.341c0-.076.073-.227.073-.302.074-.076.074-.076.074-.151.074-.076.149-.152.223-.152.074-.075.222-.075.297-.15h1.778c.074 0 .148 0 .223-.076.074 0 .074-.076.148-.151 0-.076.074-.076.074-.151v-13.217c0-.076 0-.151-.074-.151 0 0 0-.076-.074-.076-.074-.076-.149-.15-.223-.15h-1.853c-.149 0-.297 0-.371-.076-.075-.075-.149-.075-.223-.15-.072-.077-.147-.153-.147-.229-.075-.149-.075-.224-.075-.376v-2.871c.075-.075.149-.15.149-.225.073-.077.147-.151.221-.227h.15c.073-.076.22-.076.296-.076h8.082c.074 0 .148.076.222.076.075.076.149.076.149.076.148.074.222.15.222.3.075.076.075.152.149.228z"/></g></svg>