<svg height="46" viewBox="0 0 56 46" width="56" xmlns="http://www.w3.org/2000/svg"><g fill="#bbb"><path d="m45.705 5.454c-3.832-1.168-7.28-2.727-10.346-3.896-6.899-3.116-9.964-1.558-16.095 4.676-2.682 2.727-4.598 6.623-4.215 8.182 0 .39 0 .39.766.779 1.916.78 4.599 1.169 7.281-3.117.383-.39.767-.78 1.533-.78 1.15 0 1.533-.389 2.682-.779.767-.39 1.533-.779 2.683-1.168h.766c.383 0 1.15.39 1.533.39 1.916 1.947 5.365 4.675 8.814 7.791 5.365 4.286 10.73 8.962 13.412 12.468h.383c3.462-9.198-1.718-21.49-9.197-24.546z"/><path d="m51.67 33.782c-1.544-3.437-8.103-8.4-13.89-12.982-3.087-2.673-6.174-4.964-8.49-6.873-.385.382-1.157.382-1.157.764-1.157.382-1.543.764-3.087.764-3.086 3.818-6.945 5.345-11.19 3.818-1.929-.382-3.086-1.91-3.472-3.437-.772-3.818 2.701-9.163 5.402-11.836h-7.716c-8.424 8.52-9.826 18.519-6.173 22.91 1.543 1.526 3.086 3.435 4.244 4.2 7.331 6.108 15.82 12.217 17.363 13.363 1.158.763 3.473 1.527 4.63 1.527h1.158l-6.174-6.11c-.772-.763-.772-1.908 0-2.672.772-.763 1.93-.764 2.701 0l7.717 7.637c.772.763 1.543.381 2.315.381 1.158-.381 1.543-1.145 1.93-2.29l-8.875-8.782c-.772-.764-.772-1.91 0-2.673.772-.764 1.93-.764 2.7 0l9.647 9.545c.386.382 1.93.382 3.087 0 .386-.382 1.157-.763 1.543-1.527l-10.805-10.691c-.771-.764-.771-1.91 0-2.673.772-.763 1.93-.763 2.701 0l11.19 11.073c.772.382 1.543 0 2.315-.382.386-.382 1.158-1.527.386-3.054z"/></g></svg>