<svg height="54" viewBox="0 0 34 54" width="34" xmlns="http://www.w3.org/2000/svg"><g fill="#bbb"><path d="m30.02 10.336v3.305c0 2.612-2.125 4.737-4.736 4.737h-16.914c-2.612 0-4.737-2.125-4.737-4.737v-3.305c-2.079.59-3.607 2.506-3.607 4.772v33.824c0 2.736 2.226 4.962 4.962 4.962h23.677c2.736 0 4.961-2.226 4.961-4.962v-33.824c0-2.267-1.527-4.181-3.607-4.772zm-19.957 35.101c-.872 0-1.58-.707-1.58-1.579 0-.871.708-1.579 1.58-1.579.871 0 1.578.708 1.578 1.58 0 .871-.707 1.578-1.578 1.578zm0-6.765c-.872 0-1.58-.707-1.58-1.579 0-.871.708-1.578 1.58-1.578.871 0 1.578.707 1.578 1.578 0 .872-.707 1.58-1.578 1.58zm6.764 6.765c-.871 0-1.578-.707-1.578-1.579 0-.871.707-1.579 1.578-1.579.872 0 1.58.708 1.58 1.58 0 .871-.708 1.578-1.58 1.578zm0-6.765c-.871 0-1.578-.707-1.578-1.579 0-.871.707-1.578 1.578-1.578.872 0 1.58.707 1.58 1.578 0 .872-.708 1.58-1.58 1.58zm6.765 6.765c-.871 0-1.579-.707-1.579-1.579 0-.871.708-1.579 1.58-1.579.87 0 1.578.708 1.578 1.58 0 .871-.707 1.578-1.579 1.578zm0-6.765c-.871 0-1.579-.707-1.579-1.579 0-.871.708-1.578 1.58-1.578.87 0 1.578.707 1.578 1.578 0 .872-.707 1.58-1.579 1.58zm3.27-8.343c0 .872-.706 1.579-1.578 1.579h-16.914c-.872 0-1.579-.707-1.579-1.58v-6.764c0-.872.707-1.58 1.58-1.58h16.912c.872 0 1.579.708 1.579 1.58z"/><path d="m9.95 25.143h13.755v3.607h-13.755zm-1.579-9.923h16.913c.872 0 1.579-.707 1.579-1.58v-3.718c0-5.193 4.01-9.467 9.098-9.888l-20.081-.034c-5.081.426-9.087 4.697-9.087 9.887v3.754c0 .872.707 1.579 1.58 1.579z"/></g></svg>