<svg xmlns="http://www.w3.org/2000/svg" xmlns:xlink="http://www.w3.org/1999/xlink" width="64" height="44" viewBox="0 0 64 44">
  <defs>
    <polygon id="step-barcode-a" points="0 0 72.593 0 72.593 44 0 44"/>
  </defs>
  <g fill="none" fill-rule="evenodd" transform="translate(-869 -8969)">
    <rect width="1800" height="17640" fill="#FFF"/>
    <g transform="translate(864 8969)">
      <mask id="step-barcode-b" fill="#fff">
        <use xlink:href="#step-barcode-a"/>
      </mask>
      <path fill="#D5DBE8" d="M58.9407407,31.7777778 C58.9407407,33.1271111 57.8456296,34.2222222 56.4962963,34.2222222 C55.146963,34.2222222 54.0518519,33.1271111 54.0518519,31.7777778 L54.0518519,12.2222222 C54.0518519,10.8728889 55.146963,9.77777778 56.4962963,9.77777778 C57.8456296,9.77777778 58.9407407,10.8728889 58.9407407,12.2222222 L58.9407407,31.7777778 Z M49.162963,22 C49.162963,23.3493333 48.0678519,24.4444444 46.7185185,24.4444444 C45.3691852,24.4444444 44.2740741,23.3493333 44.2740741,22 L44.2740741,12.2222222 C44.2740741,10.8728889 45.3691852,9.77777778 46.7185185,9.77777778 C48.0678519,9.77777778 49.162963,10.8728889 49.162963,12.2222222 L49.162963,22 Z M46.7185185,34.2222222 C45.3691852,34.2222222 44.2740741,33.1271111 44.2740741,31.7777778 C44.2740741,30.4284444 45.3691852,29.3333333 46.7185185,29.3333333 C48.0678519,29.3333333 49.162963,30.4284444 49.162963,31.7777778 C49.162963,33.1271111 48.0678519,34.2222222 46.7185185,34.2222222 L46.7185185,34.2222222 Z M39.3851852,31.7777778 C39.3851852,33.1271111 38.2900741,34.2222222 36.9407407,34.2222222 C35.5914074,34.2222222 34.4962963,33.1271111 34.4962963,31.7777778 L34.4962963,12.2222222 C34.4962963,10.8728889 35.5914074,9.77777778 36.9407407,9.77777778 C38.2900741,9.77777778 39.3851852,10.8728889 39.3851852,12.2222222 L39.3851852,31.7777778 Z M29.6074074,22 C29.6074074,23.3493333 28.5122963,24.4444444 27.162963,24.4444444 C25.8136296,24.4444444 24.7185185,23.3493333 24.7185185,22 L24.7185185,12.2222222 C24.7185185,10.8728889 25.8136296,9.77777778 27.162963,9.77777778 C28.5122963,9.77777778 29.6074074,10.8728889 29.6074074,12.2222222 L29.6074074,22 Z M27.162963,34.2222222 C25.8136296,34.2222222 24.7185185,33.1271111 24.7185185,31.7777778 C24.7185185,30.4284444 25.8136296,29.3333333 27.162963,29.3333333 C28.5122963,29.3333333 29.6074074,30.4284444 29.6074074,31.7777778 C29.6074074,33.1271111 28.5122963,34.2222222 27.162963,34.2222222 L27.162963,34.2222222 Z M19.8296296,31.7777778 C19.8296296,33.1271111 18.7345185,34.2222222 17.3851852,34.2222222 C16.0358519,34.2222222 14.9407407,33.1271111 14.9407407,31.7777778 L14.9407407,12.2222222 C14.9407407,10.8728889 16.0358519,9.77777778 17.3851852,9.77777778 C18.7345185,9.77777778 19.8296296,10.8728889 19.8296296,12.2222222 L19.8296296,31.7777778 Z M66.437037,0 L7.44444444,0 C6.09511111,0 5,1.09511111 5,2.44444444 L5,41.5555556 C5,42.9048889 6.09511111,44 7.44444444,44 L66.437037,44 C67.7863704,44 68.8814815,42.9048889 68.8814815,41.5555556 L68.8814815,2.44444444 C68.8814815,1.09511111 67.7863704,0 66.437037,0 L66.437037,0 Z" mask="url(#step-barcode-b)"/>
    </g>
  </g>
</svg>
