<svg height="49" viewBox="0 0 47 49" width="47" xmlns="http://www.w3.org/2000/svg"><g fill="#d5dbe8"><path d="m37.421 0h-35.93c-.824 0-1.491.667-1.491 1.491v39.3c0 4.26 3.465 7.725 7.725 7.725h29.697c.823 0 1.49-.667 1.49-1.49v-45.536c0-.824-.667-1.491-1.49-1.491zm-20.85 10.14c.427-.19.906-.307 1.396-.375.02-.807.678-1.455 1.49-1.455.823 0 1.49.668 1.49 1.49v.011c1.16.183 2.266.594 3.225 1.203.695.44.901 1.362.46 2.057-.44.695-1.362.901-2.057.46-.489-.31-1.042-.538-1.628-.68v3.83l.694.325.03.014c1.057.524 3.256 1.614 3.455 3.955.148 1.727-.97 3.39-2.784 4.143-.427.189-.906.306-1.395.375v.187c0 .823-.667 1.49-1.49 1.49-.824 0-1.492-.667-1.492-1.49v-.234c-1.16-.183-2.266-.593-3.225-1.202-.695-.441-.9-1.363-.46-2.058.441-.695 1.362-.901 2.058-.46.488.31 1.041.539 1.627.68v-3.829l-.694-.325-.03-.015c-1.057-.523-3.255-1.613-3.455-3.954-.148-1.727.97-3.39 2.784-4.143zm12.913 30.066h-20.056c-.823 0-1.49-.667-1.49-1.491 0-.823.667-1.49 1.49-1.49h20.056c.823 0 1.49.667 1.49 1.49 0 .824-.667 1.49-1.49 1.49zm0-7.125h-20.056c-.823 0-1.49-.667-1.49-1.49 0-.824.667-1.492 1.49-1.492h20.056c.823 0 1.49.668 1.49 1.491 0 .824-.667 1.491-1.49 1.491z"/><path d="m17.965 15.249v-2.45c-.072.021-.138.044-.194.07-.015.007-.03.014-.047.02-.606.249-1.003.717-.967 1.14.033.384.402.762 1.208 1.22zm3.223 7.119c.606-.248 1.004-.717.968-1.14-.033-.383-.403-.761-1.209-1.22v2.45c.073-.021.138-.044.194-.07zm24.32 8.907h-3.608v16.766c.962-.32 1.849-.794 2.613-1.41 1.603-1.291 2.485-3.037 2.485-4.915v-8.95c0-.823-.667-1.491-1.49-1.491z"/></g></svg>