<svg height="54" viewBox="0 0 54 54" width="54" xmlns="http://www.w3.org/2000/svg"><path d="m919.12 6957h-34.316c-.587.007-1.152.224-1.593.613 3.568 1.255 6.095 4.45 6.495 8.21.038.327.038.656 0 .981v41.668c-.002.958.553 1.829 1.422 2.23.87.402 1.896.258 2.623-.367l6.985-5.98 6.986 5.98c.917.785 2.269.785 3.186 0l6.986-5.98 6.985 5.98c.444.38 1.01.588 1.593.588.355-.002.705-.077 1.03-.22.869-.402 1.424-1.273 1.421-2.23v-41.669c0-5.414-4.39-9.804-9.804-9.804zm-2.452 34.315h-14.706c-1.354 0-2.451-1.097-2.451-2.451s1.097-2.451 2.45-2.451h14.707c1.354 0 2.451 1.097 2.451 2.45 0 1.355-1.097 2.452-2.45 2.452zm0-9.804h-14.706c-1.354 0-2.451-1.098-2.451-2.451 0-1.354 1.097-2.451 2.45-2.451h14.707c1.354 0 2.451 1.097 2.451 2.45 0 1.354-1.097 2.452-2.45 2.452zm0-9.805h-14.706c-1.354 0-2.451-1.097-2.451-2.45 0-1.354 1.097-2.452 2.45-2.452h14.707c1.354 0 2.451 1.098 2.451 2.451 0 1.354-1.097 2.451-2.45 2.451zm-31.864-4.902v19.609h-7.353c-1.354 0-2.451-1.098-2.451-2.451v-17.158-.98c.27-2.708 2.685-4.683 5.392-4.412 2.708.27 4.683 2.685 4.412 5.392z" fill="#d5dbe8" transform="translate(-875 -6958)"/></svg>