<svg height="53" viewBox="0 0 60 53" width="60" xmlns="http://www.w3.org/2000/svg" xmlns:xlink="http://www.w3.org/1999/xlink"><mask id="a" fill="#fff"><path d="m0 0h60v53h-60z" fill="#fff" fill-rule="evenodd"/></mask><path d="m21.821 33.525c-.27.137-.575.217-.9.217-.75 0-1.402-.413-1.744-1.025l-.131-.287-5.462-11.999c-.059-.13-.096-.278-.096-.422 0-.553.448-1.001 1-1.001.225 0 .432.074.6.199l6.444 4.594c.471.308 1.033.49 1.639.49.36 0 .704-.068 1.025-.185l30.31-13.506c-5.435-6.41-14.382-10.6-24.508-10.6-16.567 0-29.998 11.206-29.998 25.03 0 7.542 4.041 14.33 10.365 18.919.508.363.84.959.84 1.631 0 .223-.048.426-.105.638-.506 1.886-1.314 4.907-1.351 5.05-.064.236-.162.483-.162.73 0 .554.447 1.002 1 1.002.217 0 .395-.08.577-.186l6.568-3.797c.494-.285 1.017-.462 1.593-.462.307 0 .603.047.882.133 3.064.882 6.37 1.372 9.792 1.372 16.568 0 30.001-11.206 30.001-25.03 0-4.187-1.24-8.13-3.418-11.599l-34.542 19.969-.219.126z" fill="#d5dbe8" fill-rule="evenodd" mask="url(#a)"/></svg>