<svg height="30" viewBox="0 0 72 30" width="72" xmlns="http://www.w3.org/2000/svg"><path d="m1100 6033.047h-60c-3.31 0-6 2.69-6 6v18c0 3.309 2.69 6 6 6h60c3.31 0 6-2.691 6-6v-18c0-3.31-2.69-6-6-6zm-47.853 15.95c.717.415.963 1.332.549 2.05-.278.482-.782.75-1.301.75-.255 0-.513-.065-.749-.2l-1.646-.952v1.902c0 .829-.67 1.5-1.5 1.5s-1.5-.671-1.5-1.5v-1.902l-1.646.951c-.236.136-.494.2-.749.2-.519 0-1.023-.267-1.3-.75-.415-.717-.17-1.634.548-2.049l1.647-.95-1.647-.95c-.717-.415-.963-1.332-.549-2.05.415-.72 1.333-.963 2.05-.55l1.646.951v-1.901c0-.83.67-1.5 1.5-1.5s1.5.67 1.5 1.5v1.901l1.646-.95c.712-.414 1.634-.172 2.05.549.414.718.168 1.635-.55 2.05l-1.646.95zm15 0c.717.415.963 1.332.549 2.05-.279.482-.783.75-1.301.75-.255 0-.513-.065-.749-.2l-1.646-.952v1.902c0 .829-.671 1.5-1.5 1.5-.83 0-1.5-.671-1.5-1.5v-1.902l-1.647.951c-.235.136-.493.2-.748.2-.519 0-1.023-.267-1.3-.75-.415-.717-.17-1.634.548-2.049l1.647-.95-1.647-.95c-.717-.415-.963-1.332-.549-2.05.413-.72 1.332-.963 2.05-.55l1.646.951v-1.901c0-.83.67-1.5 1.5-1.5.829 0 1.5.67 1.5 1.5v1.901l1.646-.95c.714-.414 1.632-.172 2.05.549.414.718.168 1.635-.55 2.05l-1.646.95 1.646.95zm15 0c.717.415.963 1.332.549 2.05-.279.482-.783.75-1.301.75-.255 0-.513-.065-.749-.2l-1.646-.952v1.902c0 .829-.67 1.5-1.5 1.5s-1.5-.671-1.5-1.5v-1.902l-1.647.951c-.235.136-.493.2-.748.2-.519 0-1.023-.267-1.3-.75-.415-.717-.17-1.634.548-2.049l1.647-.95-1.647-.95c-.717-.415-.963-1.332-.549-2.05.415-.72 1.333-.963 2.05-.55l1.646.951v-1.901c0-.83.67-1.5 1.5-1.5s1.5.67 1.5 1.5v1.901l1.646-.95c.712-.414 1.634-.172 2.05.549.414.718.168 1.635-.55 2.05l-1.646.95 1.646.95zm15 0c.717.415.963 1.332.549 2.05-.278.482-.782.75-1.301.75-.255 0-.513-.065-.749-.2l-1.646-.952v1.902c0 .829-.67 1.5-1.5 1.5s-1.5-.671-1.5-1.5v-1.902l-1.646.951c-.236.136-.494.2-.749.2-.519 0-1.023-.267-1.3-.75-.415-.717-.17-1.634.548-2.049l1.647-.95-1.647-.95c-.717-.415-.963-1.332-.549-2.05.416-.72 1.33-.963 2.05-.55l1.646.951v-1.901c0-.83.67-1.5 1.5-1.5s1.5.67 1.5 1.5v1.901l1.646-.95c.714-.414 1.635-.172 2.05.549.414.718.168 1.635-.55 2.05l-1.646.95z" fill="#d5dbe8" transform="translate(-1034 -6033)"/></svg>