<svg height="27" viewBox="0 0 65 27" width="65" xmlns="http://www.w3.org/2000/svg"><path d="m7.893 0c-4.353 0-7.893 3.613-7.893 8.055v10.819c0 4.441 3.54 8.055 7.893 8.055 4.352 0 7.893-3.614 7.893-8.055v-10.82c0-4.439-3.541-8.054-7.893-8.054zm1.296 18.874c0 .73-.582 1.322-1.296 1.322-.715 0-1.296-.593-1.296-1.322v-10.82c0-.729.581-1.322 1.296-1.322.714 0 1.296.593 1.296 1.322zm13.561-18.874c-1.795 0-3.25 1.507-3.25 3.366v20.197c0 1.859 1.455 3.366 3.25 3.366s3.25-1.507 3.25-3.366v-20.197c0-1.859-1.455-3.366-3.25-3.366zm34.357 0c-4.352 0-7.893 3.613-7.893 8.055v10.819c0 4.441 3.54 8.055 7.893 8.055 4.352 0 7.893-3.614 7.893-8.055v-10.82c0-4.439-3.54-8.054-7.893-8.054zm1.296 18.874c0 .73-.581 1.322-1.296 1.322-.714 0-1.296-.593-1.296-1.322v-10.82c0-.729.582-1.322 1.296-1.322.715 0 1.296.593 1.296 1.322zm-20.796-18.874c-4.352 0-7.893 3.613-7.893 8.055v10.819c0 4.441 3.541 8.055 7.893 8.055s7.893-3.614 7.893-8.055v-10.82c0-4.439-3.54-8.054-7.893-8.054zm1.296 18.874c0 .73-.581 1.322-1.296 1.322-.714 0-1.296-.593-1.296-1.322v-10.82c0-.729.582-1.322 1.296-1.322.715 0 1.296.593 1.296 1.322z" fill="#bbb" stroke="#fff"/></svg>