<svg height="53" viewBox="0 0 53 53" width="53" xmlns="http://www.w3.org/2000/svg"><g fill="none" fill-rule="evenodd"><path d="m38.49 36.085c0 1.327-1.079 2.406-2.405 2.406h-19.245c-1.326 0-2.406-1.079-2.406-2.406 0-1.33-1.077-2.406-2.406-2.406-1.328 0-2.405 1.076-2.405 2.406 0 3.98 3.237 7.217 7.217 7.217h19.245c3.98 0 7.217-3.237 7.217-7.217 0-1.33-1.077-2.406-2.406-2.406-1.328 0-2.405 1.076-2.405 2.406zm-2.405-26.462h-19.245c-3.98 0-7.217 3.237-7.217 7.217 0 1.33 1.077 2.405 2.405 2.405 1.329 0 2.406-1.076 2.406-2.405 0-1.328 1.08-2.406 2.406-2.406h19.245c1.326 0 2.406 1.078 2.406 2.406 0 1.33 1.077 2.405 2.405 2.405 1.329 0 2.406-1.076 2.406-2.405 0-3.98-3.237-7.217-7.217-7.217zm-33.679 2.405c1.328 0 2.405-1.076 2.405-2.405v-2.406c0-1.327 1.08-2.406 2.406-2.406h2.406c1.328 0 2.405-1.076 2.405-2.405 0-1.33-1.077-2.406-2.405-2.406h-2.406c-3.98 0-7.217 3.237-7.217 7.217v2.406c0 1.33 1.077 2.405 2.406 2.405zm43.302-12.028h-2.406c-1.328 0-2.406 1.076-2.406 2.406s1.078 2.405 2.406 2.405h2.406c1.326 0 2.405 1.079 2.405 2.406v2.406c0 1.33 1.078 2.405 2.406 2.405 1.329 0 2.406-1.076 2.406-2.405v-2.406c0-3.98-3.237-7.217-7.217-7.217zm-38.491 52.925h2.406c1.328 0 2.405-1.076 2.405-2.406s-1.077-2.406-2.405-2.406h-2.406c-1.326 0-2.406-1.078-2.406-2.405v-2.406c0-1.33-1.077-2.406-2.405-2.406-1.329 0-2.406 1.076-2.406 2.406v2.406c0 3.98 3.237 7.217 7.217 7.217zm43.303-12.029c-1.33 0-2.407 1.076-2.407 2.406v2.406c0 1.327-1.079 2.405-2.405 2.405h-2.406c-1.328 0-2.406 1.076-2.406 2.406s1.078 2.406 2.406 2.406h2.406c3.98 0 7.217-3.237 7.217-7.217v-2.406c0-1.33-1.077-2.406-2.406-2.406zm-2.407-14.434c0-1.33-1.077-2.405-2.405-2.405h-38.491c-1.329 0-2.406 1.076-2.406 2.405 0 1.33 1.077 2.406 2.406 2.406h38.49c1.33 0 2.406-1.076 2.406-2.406z" fill="#d5dbe8" fill-rule="nonzero"/><path d="m0 0h206v30h-206z" transform="translate(-77 52)"/></g></svg>