<svg height="51" viewBox="0 0 53 51" width="53" xmlns="http://www.w3.org/2000/svg"><path d="m26.5 0c14.336 0 26 11.44 26 25.5s-11.664 25.5-26 25.5-26-11.44-26-25.5 11.664-25.5 26-25.5zm-10.516 32.809c-.423.415-.423 1.087 0 1.502l1.532 1.503c.423.414 1.109.414 1.532 0l7.452-7.31 7.452 7.31c.423.415 1.109.415 1.532 0l1.532-1.503c.423-.415.423-1.087 0-1.502l-7.452-7.31 7.452-7.308c.423-.415.423-1.087 0-1.502l-1.532-1.503c-.423-.415-1.109-.415-1.532 0l-7.452 7.309-7.452-7.309c-.423-.415-1.109-.415-1.532 0l-1.532 1.503c-.423.414-.423 1.087 0 1.502l7.452 7.309z" fill="#bbb"/></svg>