<svg xmlns="http://www.w3.org/2000/svg" xmlns:xlink="http://www.w3.org/1999/xlink" width="133" height="83" viewBox="0 0 133 83">
  <defs>
    <polygon id="to-use_payment-info_img_015-a" points=".478 .083 66.752 .083 66.752 82 .478 82"/>
  </defs>
  <g fill="none" fill-rule="evenodd" transform="translate(-388 -4900)">
    <rect width="1800" height="17640" fill="#FFF"/>
    <g transform="translate(247 4824)">
      <g transform="translate(141 76)">
        <path fill="#B5C1C9" d="M26.0837545,0 L59.3283628,0 C63.9690243,0 66.8551686,3.72295873 65.7725387,8.30521963 L50.2951534,73.7070928 C49.2026199,78.2744762 44.5562247,82 39.9124357,82 L6.67147618,82 C2.03706968,82 -0.855850809,78.2744762 0.227300323,73.7070928 L15.7109405,8.30521963 C16.7935704,3.72295873 21.4373594,0 26.0837545,0"/>
        <path fill="#98ADB9" d="M56.0057385,0 L94.1246432,0 C98.7512587,0 96.6645522,3.72295873 95.5762425,8.30521963 L80.1465681,73.7070928 C79.0639754,78.2744762 79.4012786,82 74.765308,82 L36.6464033,82 C32.0109524,82 29.1415361,78.2744762 30.2308852,73.7070928 L45.6600399,8.30521963 C46.7556258,3.72295873 51.3760046,0 56.0057385,0"/>
        <g transform="translate(66)">
          <mask id="to-use_payment-info_img_015-b" fill="#fff">
            <use xlink:href="#to-use_payment-info_img_015-a"/>
          </mask>
          <path fill="#879FAC" d="M26.6680938,0.0825125 L60.0518906,0.0825125 C64.7183359,0.0825125 67.6166094,3.801725 66.5210547,8.379375 L50.9807188,73.7154375 C49.8841172,78.278225 45.2150547,82 40.5491328,82 L7.18051563,82 C2.51145313,82 -0.384726562,78.278225 0.708734375,73.7154375 L16.2516875,8.379375 C17.3388672,3.801725 21.9985078,0.0825125 26.6680938,0.0825125" mask="url(#to-use_payment-info_img_015-b)"/>
        </g>
        <path fill="#FEFEFE" d="M77.1455709,58.4970656 C77.0955567,58.6741516 77.0163675,58.7823424 76.9053984,58.8629752 C76.7824468,58.9405461 76.5829108,58.9686144 76.2859513,58.9686144 L75.4211219,58.9686144 L75.4726991,57.5269201 L71.8784473,57.5269201 L71.7320515,64.5741261 C71.7268416,65.082419 71.7768559,65.3768819 72.1566514,65.6126563 C72.536447,65.9071192 73.7065716,65.9443736 75.2820199,65.9443736 L77.5342232,65.9443736 L78.3479964,63.3064557 L76.3870218,63.4120949 L75.7347528,63.4493493 C75.645665,63.4120949 75.560745,63.3773922 75.4659264,63.2850217 C75.3830903,63.2048992 75.2445092,63.2538913 75.2669114,62.7455984 L75.2820199,60.9390151 L77.3383341,60.8558306 C78.4490668,60.8558306 78.92316,60.5021689 79.3279627,60.164838 C79.715052,59.8423067 79.8411296,59.4707834 79.9870044,58.9686144 L80.3318942,57.3692268 L77.5060902,57.3692268 L77.1455709,58.4970656 Z M72.5458247,49.3799439 L78.6611063,49.3799439 L78.2213979,50.8058178 C78.2213979,50.8058178 75.3388069,50.7777494 74.8772172,50.8609339 C72.846431,51.2054095 71.660156,52.2684358 71.660156,52.2684358 L72.5458247,49.3799439 Z M71.3308957,53.3498341 L77.3951211,53.3498341 L77.0101157,54.5332993 C76.9559336,54.5613677 76.8262092,54.4746109 76.2088461,54.5460577 L70.9578729,54.5460577 L71.3308957,53.3498341 Z M68.5347876,63.08395 C68.4331962,62.9410564 68.5061336,62.6899719 68.6608651,62.1658586 L70.2837227,56.903802 L76.0572404,56.903802 C76.8986257,56.8920643 77.5060902,56.882368 77.9015152,56.8548099 C78.3261152,56.8109212 78.7877048,56.6624139 79.290452,56.3965297 C79.8098707,56.1168665 80.0755713,55.822914 80.3001143,55.4850727 C80.5501855,55.1477418 80.9518623,54.4097984 81.2967521,53.2722633 L83.3369159,46.6129115 L77.3456279,46.6465935 C77.3456279,46.6465935 75.5003111,46.9134983 74.6881009,47.2079612 C73.8685969,47.5361061 72.6974303,48.4531768 72.6974303,48.4531768 L73.2382092,46.6277112 L69.5371561,46.6277112 L64.3554734,63.4621077 C64.1715669,64.1153355 64.0486153,64.5894361 64.0198013,64.8747129 C64.0105836,65.1819342 64.4153863,65.4855831 64.6774401,65.7152335 C64.9879451,65.9443736 65.4464088,65.9071192 65.8861173,65.9443736 C66.3482279,65.9780556 67.0062277,65.9994897 67.9137776,65.9994897 L70.7583369,65.9994897 L71.631502,63.1120184 L69.0849441,63.3477928 C68.8129917,63.3477928 68.6160607,63.2048992 68.5347876,63.08395 L68.5347876,63.08395 Z M59.7682307,46.5970911 L58.6705226,48.5399337 C58.4355599,48.9645318 58.2240414,49.2278643 58.0338831,49.3493238 C57.866127,49.4513907 57.5342618,49.4942587 57.0533958,49.4942587 L56.4803161,49.4942587 L55.7149941,51.9795866 L57.6170978,51.9795866 C58.5314205,51.9795866 59.2331827,51.6514417 59.5686948,51.4876244 C59.929214,51.2988007 60.0240327,51.4059709 60.3022368,51.1431488 L60.9446071,50.5976014 L66.882755,50.5976014 L67.6704792,48.0102067 L63.3239299,48.0102067 L64.0830001,46.5970911 L59.7682307,46.5970911 Z M59.2712143,63.0344476 L60.3246391,59.6004083 L64.6550378,59.6004083 L65.4464088,57.0466956 L61.1123632,57.0466956 L61.7740098,54.9334014 L66.0095899,54.9334014 L66.7941882,52.4608318 L56.1958601,52.4608318 L55.4274123,54.9334014 L57.8353891,54.9334014 L57.1930188,57.0466956 L54.7787903,57.0466956 L53.9785626,59.644297 L56.3854974,59.644297 L54.9814521,64.1867823 C54.7918148,64.7879561 55.070019,65.0176065 55.2466317,65.2967594 C55.4274123,65.5687675 55.6107978,65.7489155 56.0218523,65.8514927 C56.4464523,65.9443736 56.73716,65.9994897 57.132064,65.9994897 L62.0141823,65.9994897 L62.8842215,63.1707068 L60.7200641,63.4621077 C60.3022368,63.4621077 59.1446158,63.4126053 59.2712143,63.0344476 L59.2712143,63.0344476 Z M97.3992504,54.3169176 L101.913556,54.3169176 L101.264934,56.3745854 L96.6912364,56.3745854 L96.0040617,58.6246491 L100.006763,58.6246491 L96.9756924,62.8042868 C96.7636529,63.111508 96.5734946,63.2202092 96.3619761,63.3069661 C96.1499366,63.4126053 95.8712114,63.5361061 95.5487238,63.5361061 L94.4385121,63.5361061 L93.6757951,66 L96.5797464,66 C98.0895509,66 98.9809504,65.3273794 99.6394711,64.4445011 L101.717667,61.658076 L102.163627,64.4873692 C102.258966,65.0170962 102.647619,65.3273794 102.910714,65.4478183 C103.201422,65.5907119 103.502028,65.8361827 103.926107,65.8724164 C104.381445,65.8912988 104.710185,65.9071192 104.928997,65.9071192 L106.355965,65.9071192 L107.21298,63.1487624 L106.65032,63.1487624 C106.326791,63.1487624 105.770382,63.096198 105.676085,62.9966828 C105.580745,62.8762439 105.580745,62.6904823 105.529689,62.4077571 L105.076956,59.5723399 L103.223303,59.5723399 L104.036556,58.6246491 L108.601917,58.6246491 L109.3042,56.3745854 L105.076956,56.3745854 L105.735476,54.3169176 L109.949696,54.3169176 L110.731169,51.7790253 L98.1682192,51.7790253 L97.3992504,54.3169176 Z M89.8570002,62.4613422 L86.72538,62.4613422 L87.6334509,59.5136514 L90.7551724,59.5136514 L89.8570002,62.4613422 Z M91.6064563,56.7619291 C91.6064563,56.7619291 90.625969,56.882368 89.9804728,57.0252615 C89.3443543,57.2140852 88.1523485,57.8086246 88.1523485,57.8086246 L89.2276545,54.3169176 L92.3665684,54.3169176 L91.6064563,56.7619291 Z M91.5470644,51.9678489 C90.9177187,52.1383006 89.7465521,52.6557795 89.7465521,52.6557795 L90.7879943,49.2998214 L93.9102368,49.2998214 L93.1563765,51.7448329 C93.1563765,51.7448329 92.1920396,51.8004593 91.5470644,51.9678489 L91.5470644,51.9678489 Z M94.7578738,62.4302118 L93.6627706,62.4302118 L97.7154862,49.2998214 L99.0596186,49.2998214 L99.4868235,47.9469252 L99.5279811,49.4508803 C99.4779668,50.3812197 100.224533,51.2054095 102.186029,51.06864 L104.454904,51.06864 L105.235334,48.540444 L104.381445,48.540444 C103.891202,48.540444 103.663012,48.4189844 103.691666,48.158714 L103.650508,46.6282215 L99.4498338,46.6282215 L99.4498338,46.6363868 C98.0911139,46.6639449 94.0352724,46.7644807 93.2142054,46.9783108 C92.2206936,47.2288849 91.1735206,47.9668283 91.1735206,47.9668283 L91.5845751,46.6124011 L87.6553321,46.6124011 L86.8363491,49.2998214 L82.7294514,62.6312835 L81.9323496,62.6312835 L81.1508772,65.1411074 L88.9775833,65.1411074 L88.7155296,65.9780556 L92.5718352,65.9780556 L92.8281581,65.1411074 L93.9102368,65.1411074 L94.7578738,62.4302118 Z M122,30.2347538 L121.838496,30.0546058 C119.77593,30.4638939 119.402386,30.5287063 117.507576,30.7792804 L117.367953,30.91605 C117.361701,30.9385047 117.35597,30.9721868 117.346072,31.0033172 L117.33982,30.9721868 C115.929002,34.1607553 115.970159,33.4728247 114.821395,35.983159 C114.815664,35.8688441 114.815664,35.7973973 114.808891,35.6759377 L114.52131,30.2347538 L114.34105,30.0546058 C112.180018,30.4638939 112.128962,30.5287063 110.133082,30.7792804 L109.97835,30.91605 C109.956469,30.9808625 109.956469,31.0523093 109.942924,31.1303904 L109.956469,31.1579485 C110.205498,32.4067364 110.145585,32.1280939 110.395657,34.0990048 C110.512356,35.065578 110.66813,36.0387854 110.784309,36.9936208 C110.98124,38.5924981 111.091167,39.3794335 111.33186,41.8188313 C109.984081,43.9974483 109.66524,44.8216382 108.367996,46.7333503 L108.376332,46.7522327 L107.463051,48.1679 C107.358855,48.3174279 107.264036,48.4194948 107.131186,48.4628732 C106.985311,48.5338096 106.795674,48.546568 106.532578,48.546568 L106.026705,48.546568 L105.273887,50.9977035 L107.854829,51.0415922 C109.370365,51.0349579 110.32324,50.3409033 110.835365,49.4075019 L112.458223,46.6838479 L112.432694,46.6838479 L112.603576,46.4919622 C113.695033,44.189334 122,30.2347538 122,30.2347538 L122,30.2347538 Z M99.1362029,36.4138811 C99.5821631,34.5424853 100.09533,32.9589181 101.423833,32.9589181 C102.263134,32.9589181 102.705448,33.7182955 102.615839,35.0125032 C102.544464,35.3355448 102.467359,35.6759377 102.376187,36.0607298 C102.243337,36.6169941 102.098504,37.1686655 101.958881,37.7208472 C101.816132,38.0979842 101.649939,38.4541975 101.468116,38.6915029 C101.125832,39.1661138 100.3131,39.4600663 99.8447378,39.4600663 C99.7118875,39.4600663 98.8923835,39.4600663 98.8642505,38.2766012 C98.8579988,37.6871651 98.9814714,37.0803776 99.1362029,36.4138811 L99.1362029,36.4138811 Z M94.7583948,36.3210003 C94.3942287,37.8392447 93.9764015,40.6129115 96.5672428,41.6014289 C97.3929986,41.9459046 98.1333134,42.0484818 98.8856108,42.010717 C99.6806287,41.9688696 100.416776,41.5784639 101.09874,41.0170962 C101.036744,41.2477673 100.975268,41.4784384 100.913792,41.7101301 L101.031534,41.8586374 C102.895085,41.7815769 103.473374,41.7815769 105.492178,41.7963766 L105.675564,41.6601174 C105.969918,39.9627456 106.247601,38.3138556 107.013965,35.0660883 C107.387509,33.5105894 107.760011,31.9698903 108.142932,30.4200051 L108.083019,30.2495535 C105.998572,30.6282215 105.441643,30.7088543 103.435864,30.9874968 L103.283737,31.1089564 C103.263419,31.2666497 103.24258,31.4182189 103.223303,31.5697882 C102.911235,31.076295 102.459544,30.6547589 101.76195,30.3924471 C100.87003,30.0489921 98.7762046,30.4914519 96.9756924,32.0974738 C95.7107491,33.2436846 95.1032846,34.8144935 94.7583948,36.3210003 L94.7583948,36.3210003 Z M86.1903319,31.2666497 C86.1903319,31.2666497 87.5667652,25.4029089 87.5599925,25.4248533 L87.6047969,25.1242664 L87.6240732,24.8951263 L88.1742297,24.9507527 C88.1742297,24.9507527 91.0120163,25.1895892 91.078181,25.1957132 C92.1988124,25.6203113 92.659881,26.714468 92.3373935,28.1423833 C92.0440808,29.447308 91.1792514,30.5445267 90.0695607,31.074764 C89.1547171,31.5238581 88.0346067,31.5606022 86.8806325,31.5606022 L86.1340659,31.5606022 L86.1903319,31.2666497 Z M83.7927748,41.7034958 C83.9157264,41.1150804 84.6466635,37.625925 84.6534363,37.625925 C84.6534363,37.625925 85.2760093,35.065578 85.3145619,34.9726971 C85.3145619,34.9726971 85.510451,34.7063026 85.7063401,34.6006634 L85.9944429,34.6006634 C88.7150086,34.6006634 91.7872369,34.6006634 94.1952137,32.8655269 C95.8331798,31.6759377 96.9532901,29.9183465 97.4529115,27.7825976 C97.5826359,27.259505 97.6779755,26.6363868 97.6779755,26.013779 C97.6779755,25.1957132 97.5107404,24.3868334 97.0262276,23.7540189 C95.798274,22.0719571 93.3533075,22.0403164 90.5306294,22.0280684 C90.5217727,22.0280684 89.1390876,22.0403164 89.1390876,22.0403164 C85.5266014,22.0842052 84.0777517,22.0719571 83.4822697,22 C83.4317345,22.2582291 83.3374369,22.7165093 83.3374369,22.7165093 C83.3374369,22.7165093 82.0427977,28.5919878 82.0427977,28.6016841 C82.0427977,28.6016841 78.9460832,41.0936463 78.8002084,41.6820618 C81.9547518,41.6448073 83.248349,41.6448073 83.7927748,41.7034958 L83.7927748,41.7034958 Z M69.4048268,41.6294973 L69.5533065,41.48099 C69.7648251,40.3837714 69.7992098,40.1260526 70.2675723,37.9045675 C70.501493,36.8512376 70.9860059,34.5363613 71.2136748,33.7121715 C71.6445266,33.5156928 72.0613118,33.3238071 72.47966,33.3238071 C73.4377451,33.3238071 73.3210452,34.1485073 73.2830136,34.4766522 C73.2481078,35.0288339 72.8969662,36.8292932 72.5296742,38.3750957 L72.3020053,39.3733095 C72.1279975,40.1112529 71.9383602,40.8267415 71.7711251,41.5580505 L71.8435415,41.7040061 C73.8019112,41.6019393 74.374991,41.6019393 76.0509887,41.6294973 L76.2536505,41.48099 C76.5480051,39.7667772 76.6271943,39.3079867 77.1778718,36.8139832 L77.4399255,35.6667517 C77.964554,33.4233223 78.2307755,32.2862975 77.8421233,31.3595305 C77.4117925,30.3215106 76.4026512,30.0704261 75.4945803,30.0704261 C74.8933676,30.0704261 73.7894077,30.2122991 72.8083994,30.6869099 C72.4577788,30.8670579 72.1061162,31.0742536 71.7612264,31.2819597 L72.0613118,30.1418729 L71.9008495,29.9489666 C69.8091085,30.364889 69.3313684,30.4205154 67.4016527,30.6869099 L67.2536939,30.7925491 C67.0192522,32.6149528 66.8285729,33.9841796 65.9970864,37.5667262 C65.6803296,38.886961 65.3515902,40.2199541 65.0228508,41.5366165 L65.1108967,41.7040061 C67.0947945,41.6019393 67.6866296,41.6019393 69.4048268,41.6294973 L69.4048268,41.6294973 Z M57.3222223,36.2122991 C57.7619307,34.3067109 58.2813493,32.7073233 59.6062055,32.7073233 C60.6445217,32.7073233 60.7200641,33.8974228 60.2579534,35.809135 C60.1756383,36.2337331 59.7968847,37.8116867 59.2837179,38.4837969 C58.9258035,38.9793315 58.5022455,39.2804287 58.0344041,39.2804287 C57.894781,39.2804287 57.0664203,39.2804287 57.0533958,38.0750191 C57.047144,37.4799694 57.1711376,36.8721613 57.3222223,36.2122991 L57.3222223,36.2122991 Z M57.471223,41.8744578 C59.3785365,41.8744578 61.3337803,41.3595305 62.8055533,39.8315897 C63.9376462,38.5924981 64.4570648,36.7486604 64.6362825,35.989283 C65.2218658,33.4728247 64.7660069,32.2980352 64.1934482,31.5825466 C63.3239299,30.4919622 61.7865133,30.1418729 60.1917888,30.1418729 C59.2331827,30.1418729 56.9491995,30.2347538 55.1648376,31.8458791 C53.8837439,33.0084205 53.2913879,34.5853534 52.9345155,36.0974738 C52.5739963,37.638173 52.1592949,40.4118398 54.7631608,41.4437356 C55.5665144,41.7815769 56.7246564,41.8744578 57.471223,41.8744578 L57.471223,41.8744578 Z M51.7701217,29.25185 C50.8271451,28.706813 49.1730286,28.8798163 48.05917,29.6325593 C46.9489583,30.3705027 46.8223598,31.4177086 47.7622105,31.9704006 C48.6885157,32.5001276 50.349405,32.3424343 51.4533649,31.5830569 C52.5614927,30.8292932 52.7000738,29.7912733 51.7701217,29.25185 L51.7701217,29.25185 Z M51.7482405,32.4189844 C50.7104452,32.6144425 50.0487986,32.7445777 49.3913199,32.8287829 C48.7395719,32.9308497 48.1034534,33.0237305 47.1010849,33.1605001 L47.0213747,33.2309263 L46.9489583,33.287063 C46.844241,34.0188824 46.7713036,34.6506762 46.6327225,35.3942332 C46.5155016,36.1627966 46.334721,37.0364889 46.0408874,38.2914009 C45.8132185,39.2523603 45.6954766,39.5871396 45.5662732,39.9249809 C45.4396747,40.2633325 45.3005726,40.5914774 45.0447706,41.5366165 L45.1046835,41.6238836 L45.1546978,41.7034958 C46.0919436,41.6601174 46.7046179,41.628987 47.3350056,41.6238836 C47.9643514,41.6014289 48.6160993,41.6238836 49.6252406,41.628987 L49.7138075,41.5585609 L49.8081051,41.48099 C49.95398,40.6287318 49.9758612,40.3995917 50.06547,39.9836693 C50.1535159,39.5381475 50.3056425,38.920643 50.6791863,37.2722633 C50.8557991,36.4980862 51.0527301,35.7259505 51.2355946,34.935953 C51.4257529,34.1490176 51.6247678,33.3738199 51.8144051,32.5991324 L51.7862721,32.5057413 L51.7482405,32.4189844 Z M42.2726277,30.0704261 C41.671936,30.0704261 40.5737068,30.2133197 39.5874887,30.6863996 C39.2295744,30.8665476 38.8909364,31.074764 38.533543,31.2814493 L38.8560306,30.1413626 L38.6794179,29.9499872 C36.5876769,30.364889 36.1193144,30.4200051 34.1869938,30.6863996 L34.0249685,30.7920388 C33.8004255,32.6144425 33.6014105,33.98469 32.7699239,37.5667262 C32.4531671,38.8864506 32.1244278,40.2194437 31.7946464,41.5366165 L31.8837343,41.7040061 C33.8639852,41.6014289 34.464677,41.6014289 36.1860001,41.628987 L36.3251021,41.48099 C36.5439144,40.3837714 36.5720474,40.1265629 37.0565603,37.9045675 C37.2842292,36.8507272 37.7583224,34.535851 37.9927641,33.7116611 C38.4225739,33.5167134 38.8471739,33.3243174 39.2519766,33.3243174 C40.2168345,33.3243174 40.0990926,34.1490176 40.0621029,34.4771625 C40.0204244,35.0288339 39.6692828,36.8292932 39.3087636,38.375606 L39.0680701,39.3738199 C38.900314,40.1107425 38.7169285,40.8272518 38.5491725,41.5580505 L38.6221099,41.7040061 C40.5737068,41.6014289 41.1691888,41.6014289 42.8358088,41.628987 L43.0322189,41.48099 C43.3333462,39.7672876 43.4213921,39.3084971 43.9559192,36.8134728 L44.2247457,35.6672621 C44.7472902,33.4238326 45.0093439,32.2862975 44.6144399,31.3595305 C44.1966127,30.3210003 43.1937231,30.0704261 42.2726277,30.0704261 L42.2726277,30.0704261 Z M33.7910478,22.1148252 C30.3744507,22.1490176 29.3653094,22.1148252 29.0428218,22.0403164 C28.9188282,22.6169941 26.6129638,33.0359786 26.606712,33.0446542 C26.1102165,35.1528451 25.7491763,36.6552692 24.5222647,37.625925 C23.8257124,38.1898443 23.0124601,38.4618525 22.0694835,38.4618525 C20.5544691,38.4618525 19.6714053,37.7249298 19.5234466,36.3271243 L19.4947926,35.8468997 C19.4947926,35.8468997 19.9569032,33.0232202 19.9569032,33.0079102 C19.9569032,33.0079102 22.3768626,23.5131411 22.8097983,22.2577188 C22.8327215,22.1867823 22.8389733,22.1490176 22.8447041,22.1148252 C18.1339887,22.155652 17.2993763,22.1148252 17.2420683,22.0403164 C17.2102884,22.1428936 17.0935885,22.731309 17.0935885,22.731309 L14.622573,33.4330186 L14.4105335,34.340393 L14,37.3090074 C14,38.1898443 14.1766128,38.908395 14.5277543,39.5162031 C15.6535955,41.4432253 18.8649259,41.7320745 20.6815886,41.7320745 C23.0218378,41.7320745 25.2177751,41.2447053 26.7015306,40.355703 C29.2767425,38.8650166 29.9508927,36.5348303 30.5515844,34.4644042 L30.8303095,33.4018882 C30.8303095,33.4018882 33.3232064,23.5406992 33.7467644,22.2577188 C33.7629148,22.1867823 33.7691666,22.1490176 33.7910478,22.1148252 L33.7910478,22.1148252 Z"/>
      </g>
      <rect width="415" height="236" stroke="#DDD" transform="translate(0 1)"/>
    </g>
  </g>
</svg>
