<svg height="54" viewBox="0 0 54 54" width="54" xmlns="http://www.w3.org/2000/svg"><g fill="#d5dbe8"><path d="m0 0h15.734v15.734h-15.734zm0 38.215h15.734v15.734h-15.734zm38.215-38.215h15.734v15.734h-15.734zm11.236 20.23v13.487h-11.238v4.496h15.734v-17.983zm-11.238 22.478v11.239h4.495v-6.743h6.743v6.743h4.496v-11.239zm-17.983-42.708v4.496h8.991v11.238h4.496v-15.734z"/><path d="m29.221 20.23v8.991h-8.991v13.487h8.991v11.239h4.496v-15.734h-8.991v-4.496h8.991v-8.991h4.496v4.495h4.495v-8.991z"/><path d="m20.23 47.204h4.496v6.743h-4.496zm-11.239-17.985h6.743v4.496h-6.743z"/><path d="m20.23 8.991v11.239h-20.23v13.487h4.496v-8.991h20.23v-15.735z"/></g></svg>