<svg height="54" viewBox="0 0 59 54" width="59" xmlns="http://www.w3.org/2000/svg"><g fill="#d5dbe8"><path d="m54.083 15h-14.75c-2.703 0-4.916 2.195-4.916 4.875v19.5h-12.29l-2.46-2.438h-19.667c0 4.037 3.301 7.313 7.375 7.313h27.042v4.875c0 2.68 2.213 4.875 4.916 4.875h14.75c2.704 0 4.917-2.195 4.917-4.875v-29.25c0-2.68-2.213-4.875-4.917-4.875zm-7.375 34.125c-1.358 0-2.458-1.09-2.458-2.437 0-1.348 1.1-2.438 2.458-2.438 1.36 0 2.459 1.09 2.459 2.438 0 1.347-1.1 2.437-2.459 2.437z"/><path d="m46.65 0h-34.3c-4.058 0-7.35 3.306-7.35 7.385v24.615h24.5v-12.308c0-5.43 4.395-9.846 9.8-9.846h14.7v-2.461c0-4.078-3.29-7.385-7.35-7.385z"/></g></svg>