<svg height="36" viewBox="0 0 121 36" width="121" xmlns="http://www.w3.org/2000/svg" xmlns:xlink="http://www.w3.org/1999/xlink"><mask id="a" fill="#fff"><path d="m.041.295h14.467v12.611h-14.467z" fill="#fff" fill-rule="evenodd"/></mask><g fill="#d5dbe8" fill-rule="evenodd"><g><path d="m20.393 25.26c0-.484-.396-.88-.88-.88-.488 0-.884.396-.879.88 0 .488.391.879.88.879.483 0 .879-.39.879-.88"/><path d="m20.29 25.26c0 .434-.346.776-.776.776-.43.005-.777-.342-.777-.771-.005-.43.347-.782.772-.782.435 0 .781.352.781.777"/><path d="m19.186 25.719h.123v-.415h.317c.205 0 .146.18.166.293l.02.122h.151c-.054-.083-.04-.103-.049-.23-.014-.17-.014-.185-.117-.249.098-.073.132-.117.127-.24-.01-.219-.156-.248-.308-.248h-.43z"/><path d="m19.621 24.86c.073 0 .196.019.176.185-.01.127-.093.151-.176.151h-.312v-.337h.312m-17.243-5.026h1.455v1.089h-1.455v1.373h1.47v1.055h-3.112v-5.764h3.112v1.055h-1.47zm7.439 0h1.446v1.089h-1.446v1.373h1.461v1.055h-3.107v-5.764h3.107v1.055h-1.461zm8.769 0h1.45v1.089h-1.45v1.373h1.47v1.055h-3.117v-5.764h3.117v1.055h-1.47zm-10.977 2.462h-1.26v-4.709h-1.641v5.764h2.901zm7.66 1.055h-2.555l-.909-5.764h1.783l.542 3.566c.05.322.289.322.352 0l.718-3.566h1.207zm10.268-4.612v4.612h-1.632v-4.084c0-.405-.293-.62-.586-.63s-.586.19-.586.63v4.084h-1.666v-5.764h1.646l.264.41c.352-.41.674-.625 1.382-.625.84 0 1.178.767 1.178 1.367m-12.613-9.97h-11.601v-7.576h20.916c-3.825 1.973-6.931 4.499-9.315 7.576"/><path d="m18.57 16.94h-8.38c1.83-6.681 5.802-11.712 15.093-15.947v8.104c-3.498 1.06-5.564 3.742-6.712 7.845m-9.609 7.068h8.524c-.19 2.813-.195 5.978-.092 9.466h-9.008c.151-3.444.288-6.585.576-9.467"/></g><path d="m1.69 19.3c1.483 2.555 3.75 4.533 6.47 5.605-1.73-1.072-3.38-2.35-4.863-3.874-.577-.537-1.072-1.113-1.608-1.73" transform="translate(48 4)"/><g transform="translate(48 16.906)"><path d="m.33 2.85c.123.535.288 1.071.452 1.565.867 1.196 1.773 2.308 2.844 3.38 2.02 1.979 4.246 3.586 6.637 4.823.535.123 1.112.205 1.648.246-2.885-1.277-5.564-3.09-7.913-5.438-1.443-1.403-2.638-2.968-3.669-4.577" mask="url(#a)"/><path d="m0 .295c0 .41.04.824.082 1.195 1.113 2.019 2.556 3.915 4.245 5.605 2.638 2.637 5.688 4.574 8.943 5.81.413 0 .826-.04 1.238-.082-3.586-1.195-6.966-3.214-9.851-6.1-1.937-1.936-3.462-4.12-4.657-6.428" mask="url(#a)"/></g><g transform="translate(48 4)"><path d="m.124 11.139c-.042.33-.083.66-.083.99 1.154 2.596 2.844 5.027 4.987 7.171 3.05 3.05 6.677 5.11 10.551 6.223.33-.04.66-.123.99-.248-4.081-.988-7.997-3.132-11.211-6.346-2.308-2.309-4.04-4.987-5.234-7.79"/><path d="m.494 9.326c-.082.289-.165.577-.205.865 1.154 3.05 2.967 5.936 5.44 8.409 3.338 3.338 7.418 5.48 11.746 6.387.247-.082.537-.205.824-.33-4.493-.824-8.779-2.966-12.24-6.387-2.597-2.638-4.452-5.647-5.565-8.944"/><path d="m1.071 7.801c-.123.247-.206.495-.33.742 1.072 3.462 2.927 6.635 5.647 9.355 3.586 3.586 8.037 5.689 12.653 6.39.247-.125.453-.29.701-.414-4.74-.577-9.356-2.678-12.984-6.305-2.802-2.844-4.698-6.182-5.687-9.769"/><path d="m5.522 14.642c-.741-.165-1.318-.823-1.318-1.648v-.247c-1.154-1.979-1.979-4.122-2.474-6.307-.124.206-.248.412-.33.66.907 3.709 2.803 7.212 5.688 10.097 3.709 3.708 8.449 5.81 13.27 6.264.207-.165.413-.288.62-.454-4.947-.329-9.769-2.389-13.52-6.14-.7-.701-1.36-1.443-1.937-2.226"/><path d="m4.78 11.758c-1.111-2.061-1.894-4.246-2.265-6.512-.124.206-.247.37-.412.576.412 2.226 1.195 4.37 2.35 6.347.081-.164.205-.288.329-.411m1.854 2.719c-.124.083-.33.165-.495.165.495.66 1.071 1.278 1.649 1.896 3.832 3.793 8.737 5.812 13.724 6.018.165-.166.33-.33.536-.495-5.07-.083-10.057-2.06-13.89-5.894-.535-.535-1.03-1.112-1.524-1.69"/><path d="m20.072 21.442c.782.083 1.607.124 2.431.124.123-.124.247-.288.371-.412-.742.206-1.566.288-2.39.288zm-11.211-5.976c-.535-.535-1.071-1.113-1.525-1.689-.082.165-.165.288-.288.413.453.577.906 1.111 1.442 1.647 2.68 2.638 5.894 4.37 9.314 5.194-1.03-.33-1.937-.783-2.76-1.402-2.267-.947-4.37-2.348-6.183-4.163m-3.132-4.079c-1.278-2.226-2.061-4.7-2.35-7.172-.165.165-.288.33-.453.495.33 2.39 1.113 4.657 2.267 6.8.165-.082.33-.123.536-.123"/><path d="m13.56 18.187c-.165-.205-.33-.413-.495-.66-1.237-.742-2.432-1.69-3.503-2.76-3.215-3.174-4.988-7.255-5.276-11.458-.165.165-.33.288-.494.453.288 2.68 1.112 5.275 2.513 7.666.701.206 1.237.824 1.237 1.566v.247c.495.66 1.03 1.278 1.649 1.896 1.401 1.401 2.967 2.555 4.657 3.42v-.04c-.082-.083-.165-.207-.288-.33"/><path d="m10.221 14.065c-3.173-3.173-4.863-7.294-4.987-11.498l-.495.37c.207 4.205 1.937 8.326 5.152 11.5.825.824 1.73 1.565 2.68 2.183-.125-.246-.248-.534-.372-.865-.66-.494-1.318-1.072-1.978-1.69m6.842 3.174c.949.743 2.184 1.236 3.503 1.236.7 0 1.36-.123 1.937-.329-1.855 0-3.668-.29-5.44-.907"/><path d="m10.922 13.365c-3.174-3.132-4.74-7.295-4.74-11.458-.165.083-.33.206-.495.289.083 4.203 1.69 8.366 4.905 11.54.453.454.907.865 1.401 1.278-.082-.29-.124-.537-.165-.783-.288-.29-.618-.536-.906-.866"/><path d="m11.746 12.829c-.041-.04-.083-.082-.124-.082-3.132-3.132-4.616-7.295-4.452-11.417-.165.083-.33.206-.495.289-.082 4.121 1.443 8.325 4.616 11.416.124.165.29.33.454.494v-.7m4.04 2.803c.124.288.247.535.412.742 2.35 1.03 4.904 1.4 7.378 1.236.288-.164.535-.371.783-.577-2.885.371-5.894-.082-8.573-1.4"/><path d="m15.456 14.353c.04.248.082.454.123.661 2.885 1.483 6.182 1.978 9.315 1.442l.082-.082c.123-.165.247-.33.33-.537-3.298.701-6.842.206-9.85-1.484m-3.586-2.802c-2.72-3.008-3.958-6.883-3.67-10.674-.164.083-.37.165-.536.247-.204 3.957 1.156 7.996 4.123 11.087 0-.082 0-.165.041-.247 0-.124.041-.29.041-.413"/><path d="m9.232.547c-.206.041-.37.083-.536.166-.33 3.626.783 7.335 3.297 10.262.083-.165.124-.371.206-.578-2.349-2.802-3.338-6.387-2.967-9.85m7.295 13.272c-.371-.208-.783-.413-1.154-.66v.618c3.132 1.814 6.759 2.35 10.18 1.524.082-.164.124-.328.165-.494v-.04c-2.68.699-5.564.534-8.16-.496h-1.031zm-1.154-1.196c.371.247.783.454 1.154.659v-.535c-.371-.206-.742-.453-1.112-.7-.042.205-.042.411-.042.576"/><path d="m19.082 14.27c2.184.578 4.533.578 6.718-.04 0-.165 0-.33.041-.535-.081.041-.164.041-.247.082 0 .165-.041.33-.041.494h-6.471m-8.861-13.971c-.165 0-.33.041-.494.082-.413 3.339.453 6.76 2.637 9.52.082-.164.165-.37.248-.535-2.02-2.637-2.803-5.935-2.39-9.067"/><path d="m13.188 8.46c-1.772-2.472-2.39-5.48-1.937-8.366-.164.041-.33.041-.535.083-.453 3.008.288 6.181 2.143 8.737.123-.124.206-.289.33-.453m12.652 4.451v-.207c-.123.042-.206.083-.33.124 0 .124.042.289.042.453.082-.04.207-.04.288-.082zm-10.345-1.402c.33.248.701.495 1.03.7v-.535h.124c-.37-.206-.7-.412-1.03-.659-.04.164-.082.33-.124.494m10.345.7c0-.164-.041-.329-.041-.494-.165.042-.288.083-.453.124.041.165.083.33.083.494.123-.04.288-.082.411-.123"/><path d="m12.281.012c-.164 0-.37.041-.535.041-.495 2.761.082 5.646 1.73 8.037.125-.165.207-.289.33-.412-1.525-2.267-2.02-5.07-1.525-7.666m6.677 11.663c-1.03-.371-2.019-.907-2.926-1.607-.082.123-.165.288-.247.454.577.453 1.195.823 1.855 1.153z"/><path d="m13.27.012h-.493c-.536 2.473-.042 5.11 1.4 7.336.125-.124.248-.247.372-.33-1.359-2.102-1.772-4.658-1.279-7.006m12.448 11.21c0-.165-.041-.372-.041-.536-.207.082-.371.124-.578.206.083.165.124.33.166.495.165-.083.329-.124.453-.165m-3.957.453v-.412c-1.814-.124-3.585-.783-5.11-1.937l-.124.124c-.082.082-.165.165-.247.205 1.4 1.113 2.967 1.773 4.616 2.02z"/><path d="m14.26.053c-.164 0-.33 0-.494-.041-.496 2.266-.123 4.698 1.194 6.717.125-.082.248-.165.413-.247-1.237-1.937-1.607-4.245-1.113-6.429m11.293 10.18c0-.165-.041-.33-.083-.495-.247.083-.453.165-.7.206.083.165.124.33.206.495.206-.083.37-.125.577-.206m-4.121 0c-1.36-.124-2.638-.618-3.792-1.443-.206.082-.37.165-.536.247 1.36 1.03 2.926 1.608 4.533 1.731-.04-.164-.123-.37-.205-.535m3.874-.989c-.041-.124-.083-.289-.124-.454-.288.082-.577.206-.865.289.082.123.164.288.247.453.247-.082.495-.165.742-.288m-5.111-.248c-.206-.082-.453-.164-.66-.247-.412-.124-.865-.124-1.277-.083.865.536 1.854.866 2.803 1.03-.248-.288-.536-.535-.866-.7"/><path d="m15.25.217c-.165-.04-.33-.082-.495-.082-.495 2.061-.165 4.286 1.071 6.141.124-.082.288-.165.454-.206-1.155-1.731-1.525-3.874-1.03-5.853m9.767 8.12c-.082-.165-.123-.33-.206-.494-.33.164-.7.288-1.071.329.123.165.206.33.33.453.33-.082.617-.164.947-.288"/><path d="m16.197.424-.494-.124c-.454 1.896-.124 3.956 1.071 5.646.165-.082.372-.082.536-.124-1.196-1.566-1.566-3.585-1.113-5.398"/><path d="m18.546 5.699c-1.36-1.36-1.813-3.256-1.4-4.986-.166-.042-.33-.125-.496-.166-.411 1.772 0 3.71 1.237 5.193.206 0 .412-.041.66-.041m4.863 2.061c.412-.042.824-.165 1.195-.33-.041-.165-.124-.33-.206-.453-.453.165-.948.288-1.443.329.166.165.33.29.454.454"/><path d="m19.288 5.08c-1.112-1.07-1.484-2.595-1.195-3.997-.163-.083-.33-.165-.493-.206-.371 1.566.082 3.338 1.319 4.575.123.082.205.206.33.288.494.042.988.165 1.483.289-.536-.207-1.03-.536-1.443-.948m4.863 1.483c-.083-.165-.164-.33-.247-.453-.908.33-1.855.33-2.762.083.454.164.865.412 1.278.7.576 0 1.194-.123 1.73-.33"/><path d="m23.657 5.699c-.124-.165-.206-.288-.33-.453-1.154.33-2.431.04-3.338-.866-.783-.783-1.112-1.855-.99-2.885-.164-.082-.33-.165-.494-.206-.206 1.196.165 2.514 1.113 3.462 1.072 1.071 2.639 1.4 4.039.948"/><path d="m22.997 4.834c-.123-.124-.247-.29-.37-.454-.701.083-1.402-.165-1.937-.7-.454-.454-.701-1.03-.743-1.608-.164-.082-.329-.206-.494-.288-.042.783.248 1.648.865 2.266.743.742 1.732.99 2.68.784"/><path d="m22.215 3.927c-.536-.536-1.114-1.03-1.732-1.484.083.33.248.66.536.906.33.33.742.536 1.196.578m25.223 11.705c.206 1.153.66 2.019 1.731 2.35 1.278.37 2.885.288 3.668-.743.288-.37.33-.907.206-1.36-.206-.7-.824-.865-2.06-1.112-1.072-.248-3.71-.536-5.11-1.608-1.114-.865-1.691-2.514-1.114-4.327.66-1.938 2.638-2.803 4.122-3.01 2.76-.411 4.987.62 5.934 1.608.743.783 1.237 2.02 1.196 3.215h-3.05c-.042-.37-.082-.742-.248-1.072-.37-.824-1.236-1.319-2.184-1.319-1.072-.082-2.184.207-2.637 1.113-.166.33-.166.907.123 1.237.66.741 1.937.783 3.05.989 1.896.33 3.957.66 4.863 2.226 1.03 1.813.453 3.873-.205 4.697-.454.578-.99 1.113-1.69 1.526-1.196.66-3.215.906-5.193.577-1.814-.288-3.05-1.195-3.751-2.309-.536-.864-.865-1.607-.865-2.678zm-13.848-3.957h5.193c.082-1.195-.825-2.514-2.02-2.885-1.112-.33-2.267-.124-3.214.66-.866.783-1.154 2.431-1.154 3.462.04 1.936.412 3.297 1.524 4.12.742.537 2.432 1.238 3.916.166.66-.495.948-1.155 1.071-1.648h3.668c-.082 1.153-1.195 3.007-2.307 3.832-1.979 1.442-4.575 1.732-6.636.95-4.41-1.65-5.11-5.855-4.78-8.368.164-1.03.535-2.102 1.071-3.05 1.03-1.649 2.513-2.803 4.574-3.132 2.267-.33 4.493.37 5.935 1.978.825.948 1.608 2.514 1.895 3.791.166.866.331 1.772.248 2.72h-8.984zm33.59 4.616c-.371.99-1.402 1.566-2.637 1.69-.247.041-.534.081-.822.04-.824 0-1.525-.41-1.813-1.029-.33-.618-.124-1.237.082-1.608.494-.865 1.36-1.03 2.556-1.277.37-.042.78-.124 1.232-.248.907-.205 1.114-.37 1.566-.7 0 .33.042 2.678-.164 3.132zm3.71.536v-4.451c-.042-1.154-.042-2.308-.29-3.38-.246-1.071-1.195-2.844-4.245-3.214-.576-.042-1.194-.042-1.812-.042-1.03.042-2.102.206-2.967.536-1.813.742-2.72 2.514-2.72 4.37h3.296c-.082-.95.62-1.814 1.278-2.062.289-.123.7-.206 1.113-.206.824-.04 1.648.165 2.225.7.37.372.494.866.37 1.402-.205.865-1.153 1.154-2.595 1.36-.495.083-1.07.124-1.688.206-1.73.206-4.204 1.072-4.78 3.586-.206.988-.042 2.802 1.483 3.997 1.03.783 2.473 1.155 3.586 1.113.495 0 .989-.04 1.402-.123v-.001c1.152-.247 2.058-.783 2.922-1.484.042.208.248.99.412 1.197h3.462c-.535-1.072-.453-2.639-.453-3.504z"/></g></g></svg>