<svg height="42" viewBox="0 0 72 42" width="72" xmlns="http://www.w3.org/2000/svg"><g fill="#bbb" fill-rule="evenodd"><path d="m31.841 38.07c.163.143.335.28.503.42-3.3 2.217-7.262 3.51-11.525 3.51-11.498 0-20.819-9.402-20.819-21s9.32-21 20.82-21c4.262 0 8.225 1.293 11.524 3.51-.168.14-.339.277-.503.42-4.904 4.304-7.717 10.526-7.717 17.07s2.813 12.766 7.717 17.07m19.258-38.07c-4.263 0-8.225 1.293-11.526 3.51.17.14.34.276.504.42 4.905 4.304 7.718 10.526 7.718 17.07s-2.813 12.765-7.718 17.07c-.162.142-.335.28-.504.42 3.3 2.217 7.263 3.51 11.527 3.51 11.498 0 20.819-9.402 20.819-21s-9.32-21-20.82-21"/><path d="m35.959 4.498c-.268.213-.531.432-.788.657-4.387 3.85-7.164 9.519-7.164 15.845s2.777 11.994 7.164 15.844c.257.226.52.445.788.658.268-.213.53-.432.788-.658 4.387-3.85 7.164-9.518 7.164-15.844s-2.777-11.994-7.164-15.845c-.257-.225-.52-.444-.788-.657"/></g></svg>