<svg height="55" viewBox="0 0 67 55" width="67" xmlns="http://www.w3.org/2000/svg" xmlns:xlink="http://www.w3.org/1999/xlink"><mask id="a" fill="#fff"><path d="m0 0h67v20.938h-67z" fill="#fff" fill-rule="evenodd"/></mask><mask id="b" fill="#fff"><path d="m0 54.961h67v-54.961h-67z" fill="#fff" fill-rule="evenodd"/></mask><g fill="#d5dbe8" fill-rule="evenodd"><path d="m45.277 15.049h-23.554c-1.084 0-1.963-.879-1.963-1.963s.879-1.963 1.963-1.963h23.554c1.084 0 1.963.879 1.963 1.963s-.879 1.963-1.963 1.963m20.512-1.813-31.537-13.086c-.481-.2-1.023-.2-1.504 0l-31.538 13.086c-.732.304-1.21 1.02-1.21 1.813v3.926c0 1.084.879 1.962 1.963 1.962h63.074c1.084 0 1.963-.878 1.963-1.962v-3.926c0-.794-.478-1.51-1.21-1.813" mask="url(#a)"/><path d="m3.73 51.035v3.926h15.048v-3.926c0-1.084-.879-1.963-1.963-1.963h-11.123c-1.084 0-1.963.879-1.963 1.963"/><path d="m6.347 45.146h9.814v-20.283h-9.814zm44.492 0h9.814v-20.283h-9.814zm-2.617 5.889v3.926h15.048v-3.926c0-1.084-.88-1.963-1.963-1.963h-11.122c-1.084 0-1.963.879-1.963 1.963" mask="url(#b)"/></g></svg>