<svg height="38" viewBox="0 0 52 38" width="52" xmlns="http://www.w3.org/2000/svg"><path d="m33.263 22.208-2.05 2.075c-2.67 2.704-7.204 2.704-9.875 0l-2.05-2.075-14.626 14.805c.885.472 1.91.708 2.98.708h37.268c1.077 0 2.1-.261 2.888-.66.046 0 .046-.048.093-.048zm-31.909-18.153c-.464.896-.698 1.933-.698 3.018v23.575c0 1.084.233 2.122.698 3.018l14.627-14.806zm43.555-4.055h-37.266c-1.071 0-2.096.236-2.981.707l19.984 20.228c.885.896 2.375.896 3.26 0l19.984-20.228c-.885-.471-1.91-.707-2.981-.707zm6.288 4.055-14.627 14.805 14.626 14.806c.197-.2.699-1.6.699-3.018v-23.575c0-1.085-.233-2.122-.7-3.018z" fill="#d5dbe8"/></svg>