<svg height="30" viewBox="0 0 144 30" width="144" xmlns="http://www.w3.org/2000/svg" xmlns:xlink="http://www.w3.org/1999/xlink"><mask id="a" fill="#fff"><path d="m.323.251h21.154v22.728h-21.154z" fill="#fff" fill-rule="evenodd"/></mask><mask id="b" fill="#fff"><path d="m0 .093h79.985v22.66h-79.985z" fill="#fff" fill-rule="evenodd"/></mask><g fill="#d5dbe8" fill-rule="evenodd"><path d="m85.59 2.656v7.967h7.876c3.975 0 5.96-1.376 5.96-4.125 0-2.562-1.934-3.842-5.803-3.842zm0 10.621v9.702h-3.947v-22.979h13.172c2.65 0 4.767.6 6.333 1.81 1.57 1.198 2.352 2.754 2.352 4.655 0 1.832-.66 3.37-1.972 4.606-1.554 1.47-3.793 2.206-6.713 2.206zm33.298 3.593v-2.679c-.618.354-2.743.695-6.4 1.033-3.314.306-4.961 1.191-4.961 2.646 0 1.892 1.396 2.836 4.21 2.836 1.858 0 3.51-.374 4.968-1.127 1.45-.745 2.183-1.653 2.183-2.709m-10.656-5.703h-3.579c.166-3.616 3.337-5.422 9.542-5.422 1.852 0 3.522.24 4.998.72 2.41.769 3.604 2.054 3.604 3.85v9.42c0 .647.425.971 1.262.971.273 0 .707-.062 1.298-.186v1.998c-1.111.206-1.82.309-2.109.309-1.574 0-2.671-.26-3.304-.782-.48-.372-.751-.942-.813-1.713-2.315 1.768-5.111 2.647-8.376 2.647-2.136 0-3.885-.437-5.228-1.306-1.36-.875-2.027-2.004-2.027-3.402 0-2.985 2.343-4.689 7.047-5.109l6.403-.565c1.36-.119 2.038-.764 2.038-1.929 0-1.768-1.811-2.644-5.45-2.644-1.943 0-3.357.36-4.225 1.084-.534.484-.899 1.168-1.08 2.06"/><path d="m11.003 13.39 6.187-13.14h4.287c-1.794 3.515-4.573 8.786-8.34 15.816-1.328 2.392-2.284 3.951-2.854 4.695-.747.966-1.563 1.594-2.443 1.884-.7.22-1.952.334-3.745.334-.276 0-.814-.084-1.63-.24v-2.471c.724.185 1.512.283 2.349.283.974 0 1.674-.21 2.102-.624.37-.35 1.038-1.39 2.014-3.113l-8.607-16.563h4.415l6.158 13.14" mask="url(#a)" transform="translate(122.143 7.021)"/><path d="m49.293 14.856-2.64 3.083h-7.703v-10.149l2.575-2.919h7.767v9.986zm14.951 1.995v-13.82s.01-2.938-2.916-2.938h-21.668c-.873 0-1.607.332-2.204 1.004l-3.604 4.187c-.47.58-.711 1.15-.711 1.935v10.72l.91 1.859h-.91l-.91-1.847h-.916c-1.574 0-1.574-1.585-1.574-1.585v-9.146c0-.785-.228-1.12-.723-1.935l-2.787-4.187c-.61-.814-1.346-1.005-2.213-1.005h-21.095l-.36.027c-1.566.144-2.177 1.2-2.41 2.007-.085.248-.127.5-.144.76l-.009.144v16.79c0 1.626 1.31 2.931 2.923 2.931 1.609 0 2.915-1.305 2.918-2.932v-13.882h6.086v13.882c.01 1.627 1.313 2.932 2.925 2.932 1.61 0 2.914-1.305 2.92-2.932v-13.85h4.103l1.992 2.974v10.878c.038.79.314 1.46.805 2.027.5.572 1.217.859 2.146.875h21.646c.866 0 1.597-.33 2.208-1.003l3.598-4.177c.474-.59.711-1.236.711-1.945v-10.729h.006l-.857-1.742h.92l.849 1.742h.91s1.57 0 1.57 1.588v13.363s.01 2.932 2.925 2.932h12.094c.87 0 1.703-.36 2.308-1.033l4.279-4.869h-15.74z" mask="url(#b)"/></g></svg>