<svg height="42" viewBox="0 0 72 42" width="72" xmlns="http://www.w3.org/2000/svg"><g fill="#d5dbe8" fill-rule="evenodd"><path d="m31.841 37.742c.163.142.335.278.503.417-3.3 2.198-7.262 3.48-11.525 3.48-11.498-.001-20.819-9.323-20.819-20.821 0-11.497 9.32-20.818 20.82-20.818 4.262 0 8.225 1.282 11.524 3.48-.168.138-.339.274-.503.416-4.904 4.268-7.717 10.436-7.717 16.923 0 6.488 2.813 12.656 7.717 16.923m19.258-37.742c-4.263 0-8.225 1.282-11.526 3.48.17.138.34.274.504.416 4.905 4.267 7.718 10.436 7.718 16.923 0 6.488-2.813 12.656-7.718 16.923-.162.142-.335.279-.504.417 3.3 2.198 7.263 3.48 11.526 3.48 11.498 0 20.819-9.322 20.819-20.82s-9.32-20.819-20.82-20.819"/><path d="m35.959 4.46c-.268.21-.531.428-.788.65-4.387 3.818-7.164 9.438-7.164 15.71 0 6.27 2.777 11.89 7.164 15.707.257.224.52.441.788.652.268-.21.53-.428.788-.652 4.387-3.817 7.164-9.436 7.164-15.707 0-6.272-2.777-11.892-7.164-15.71-.257-.222-.52-.44-.788-.65"/></g></svg>