<svg xmlns="http://www.w3.org/2000/svg" xmlns:xlink="http://www.w3.org/1999/xlink" width="72" height="26" viewBox="0 0 72 26">
  <defs>
    <polygon id="step-7-a" points=".041 .295 14.508 .295 14.508 12.906 .041 12.906"/>
    <polygon id="step-7-c" points=".041 .295 14.508 .295 14.508 12.906 .041 12.906"/>
  </defs>
  <g fill="none" fill-rule="evenodd">
    <path fill="#D5DBE8" d="M1.69,19.3 C3.173,21.855 5.44,23.833 8.16,24.905 C6.43,23.833 4.78,22.555 3.297,21.031 C2.72,20.494 2.225,19.918 1.689,19.301"/>
    <g transform="translate(0 12.906)">
      <mask id="step-7-b" fill="#fff">
        <use xlink:href="#step-7-a"/>
      </mask>
      <path fill="#D5DBE8" d="M0.33,2.85 C0.453,3.385 0.618,3.921 0.782,4.415 C1.649,5.611 2.555,6.723 3.626,7.795 C5.646,9.774 7.872,11.381 10.263,12.618 C10.798,12.741 11.375,12.823 11.911,12.864 C9.026,11.587 6.347,9.774 3.998,7.426 C2.555,6.023 1.36,4.458 0.329,2.849" mask="url(#step-7-b)"/>
      <mask id="step-7-d" fill="#fff">
        <use xlink:href="#step-7-c"/>
      </mask>
      <path fill="#D5DBE8" d="M-1.77635684e-15,0.295 C-1.77635684e-15,0.705 0.04,1.119 0.082,1.49 C1.195,3.509 2.638,5.405 4.327,7.095 C6.965,9.732 10.015,11.669 13.27,12.905 C13.683,12.905 14.096,12.865 14.508,12.823 C10.922,11.628 7.542,9.609 4.657,6.723 C2.72,4.787 1.195,2.603 -1.77635684e-15,0.295" mask="url(#step-7-d)"/>
    </g>
    <g fill="#D5DBE8">
      <path d="M0.124,11.139 C0.082,11.469 0.041,11.799 0.041,12.129 C1.195,14.725 2.885,17.156 5.028,19.3 C8.078,22.35 11.705,24.41 15.579,25.523 C15.909,25.483 16.239,25.4 16.569,25.275 C12.488,24.287 8.572,22.143 5.358,18.929 C3.05,16.62 1.318,13.942 0.124,11.139"/>
      <path d="M0.494,9.326 C0.412,9.615 0.329,9.903 0.289,10.191 C1.443,13.241 3.256,16.127 5.729,18.6 C9.067,21.938 13.147,24.08 17.475,24.987 C17.722,24.905 18.012,24.782 18.299,24.657 C13.806,23.833 9.52,21.691 6.059,18.27 C3.462,15.632 1.607,12.623 0.494,9.326"/>
      <path d="M1.071,7.801 C0.948,8.048 0.865,8.296 0.741,8.543 C1.813,12.005 3.668,15.178 6.388,17.898 C9.974,21.484 14.425,23.587 19.041,24.288 C19.288,24.163 19.494,23.998 19.742,23.874 C15.002,23.297 10.386,21.196 6.758,17.569 C3.956,14.725 2.06,11.387 1.071,7.8"/>
      <path d="M5.522,14.642 C4.781,14.477 4.204,13.819 4.204,12.994 L4.204,12.747 C3.05,10.768 2.225,8.625 1.73,6.44 C1.606,6.646 1.482,6.852 1.4,7.1 C2.307,10.809 4.203,14.312 7.088,17.197 C10.797,20.905 15.537,23.007 20.358,23.461 C20.565,23.296 20.771,23.173 20.978,23.007 C16.031,22.678 11.209,20.618 7.458,16.867 C6.758,16.166 6.098,15.424 5.521,14.641"/>
      <path d="M4.78,11.758 C3.669,9.697 2.886,7.512 2.515,5.246 C2.391,5.452 2.268,5.616 2.103,5.822 C2.515,8.048 3.298,10.192 4.453,12.169 C4.534,12.005 4.658,11.881 4.782,11.758 M6.636,14.477 C6.512,14.56 6.306,14.642 6.141,14.642 C6.636,15.302 7.212,15.92 7.79,16.538 C11.622,20.331 16.527,22.35 21.514,22.556 C21.679,22.39 21.844,22.226 22.05,22.061 C16.98,21.978 11.993,20.001 8.16,16.167 C7.625,15.632 7.13,15.055 6.636,14.477"/>
      <path d="M20.072,21.442 C20.854,21.525 21.679,21.566 22.503,21.566 C22.626,21.442 22.75,21.278 22.874,21.154 C22.132,21.36 21.308,21.442 20.484,21.442 L20.072,21.442 Z M8.861,15.466 C8.326,14.931 7.79,14.353 7.336,13.777 C7.254,13.942 7.171,14.065 7.048,14.19 C7.501,14.767 7.954,15.301 8.49,15.837 C11.17,18.475 14.384,20.207 17.804,21.031 C16.774,20.701 15.867,20.248 15.044,19.629 C12.777,18.682 10.674,17.281 8.861,15.466 M5.729,11.387 C4.451,9.161 3.668,6.687 3.379,4.215 C3.214,4.38 3.091,4.545 2.926,4.71 C3.256,7.1 4.039,9.367 5.193,11.51 C5.358,11.428 5.523,11.387 5.729,11.387"/>
      <path d="M13.56,18.187 C13.395,17.982 13.23,17.774 13.065,17.527 C11.828,16.785 10.633,15.837 9.562,14.767 C6.347,11.593 4.574,7.512 4.286,3.309 C4.121,3.474 3.956,3.597 3.792,3.762 C4.08,6.442 4.904,9.037 6.305,11.428 C7.006,11.634 7.542,12.252 7.542,12.994 L7.542,13.241 C8.037,13.901 8.572,14.519 9.191,15.137 C10.592,16.538 12.158,17.692 13.848,18.557 L13.848,18.517 C13.766,18.434 13.683,18.31 13.56,18.187"/>
      <path d="M10.221,14.065 C7.048,10.892 5.358,6.771 5.234,2.567 L4.739,2.937 C4.946,7.142 6.676,11.263 9.891,14.437 C10.716,15.261 11.621,16.002 12.571,16.62 C12.446,16.374 12.323,16.086 12.199,15.755 C11.539,15.261 10.881,14.683 10.221,14.065 M17.063,17.239 C18.012,17.982 19.247,18.475 20.566,18.475 C21.266,18.475 21.926,18.352 22.503,18.146 C20.648,18.146 18.835,17.856 17.063,17.239"/>
      <path d="M10.922,13.365 C7.748,10.233 6.182,6.07 6.182,1.907 C6.017,1.99 5.852,2.113 5.687,2.196 C5.77,6.399 7.377,10.562 10.592,13.736 C11.045,14.19 11.499,14.601 11.993,15.014 C11.911,14.724 11.869,14.477 11.828,14.231 C11.54,13.941 11.21,13.695 10.922,13.365"/>
      <path d="M11.746,12.829 C11.705,12.789 11.663,12.747 11.622,12.747 C8.49,9.615 7.006,5.452 7.17,1.33 C7.005,1.413 6.84,1.536 6.675,1.619 C6.593,5.74 8.118,9.944 11.291,13.035 C11.415,13.2 11.581,13.365 11.745,13.529 L11.745,12.829 M15.785,15.632 C15.909,15.92 16.032,16.167 16.197,16.374 C18.547,17.404 21.101,17.774 23.575,17.61 C23.863,17.446 24.11,17.239 24.358,17.033 C21.473,17.404 18.464,16.951 15.785,15.633"/>
      <path d="M15.456,14.353 C15.496,14.601 15.538,14.807 15.579,15.014 C18.464,16.497 21.761,16.992 24.894,16.456 L24.976,16.374 C25.099,16.209 25.223,16.044 25.306,15.837 C22.008,16.538 18.464,16.043 15.456,14.353 M11.87,11.551 C9.15,8.543 7.912,4.668 8.2,0.877 C8.036,0.96 7.83,1.042 7.664,1.124 C7.46,5.081 8.82,9.12 11.787,12.211 C11.787,12.129 11.787,12.046 11.828,11.964 C11.828,11.84 11.869,11.674 11.869,11.551"/>
      <path d="M9.232,0.547 C9.026,0.588 8.862,0.63 8.696,0.713 C8.366,4.339 9.479,8.048 11.993,10.975 C12.076,10.81 12.117,10.604 12.199,10.397 C9.85,7.595 8.861,4.01 9.232,0.547 M16.527,13.819 C16.156,13.611 15.744,13.406 15.373,13.159 L15.373,13.777 C18.505,15.591 22.132,16.127 25.553,15.301 C25.635,15.137 25.677,14.973 25.718,14.807 L25.718,14.767 C23.038,15.466 20.154,15.301 17.558,14.271 L16.527,14.271 L16.527,13.819 Z M15.373,12.623 C15.744,12.87 16.156,13.077 16.527,13.282 L16.527,12.747 C16.156,12.541 15.785,12.294 15.415,12.047 C15.373,12.252 15.373,12.458 15.373,12.623"/>
      <path d="M19.082,14.27 C21.266,14.848 23.615,14.848 25.8,14.23 C25.8,14.065 25.8,13.9 25.841,13.695 C25.76,13.736 25.677,13.736 25.594,13.777 C25.594,13.942 25.553,14.107 25.553,14.271 L19.082,14.271 M10.221,0.3 C10.056,0.3 9.891,0.341 9.727,0.382 C9.314,3.721 10.18,7.142 12.364,9.902 C12.446,9.738 12.529,9.532 12.612,9.367 C10.592,6.73 9.809,3.432 10.222,0.3"/>
      <path d="M13.188,8.46 C11.416,5.988 10.798,2.98 11.251,0.094 C11.087,0.135 10.921,0.135 10.716,0.177 C10.263,3.185 11.004,6.358 12.859,8.914 C12.982,8.79 13.065,8.625 13.189,8.461 M25.841,12.912 L25.841,12.705 C25.718,12.747 25.635,12.788 25.511,12.829 C25.511,12.953 25.553,13.118 25.553,13.282 C25.635,13.242 25.76,13.242 25.841,13.2 L25.841,12.912 Z M15.496,11.51 C15.826,11.758 16.197,12.005 16.526,12.21 L16.526,11.675 L16.65,11.675 C16.28,11.469 15.95,11.263 15.62,11.016 C15.58,11.18 15.538,11.346 15.496,11.51 M25.841,12.21 C25.841,12.046 25.8,11.881 25.8,11.716 C25.635,11.758 25.512,11.799 25.347,11.84 C25.388,12.005 25.43,12.17 25.43,12.334 C25.553,12.294 25.718,12.252 25.841,12.211"/>
      <path d="M12.281,0.012 C12.117,0.012 11.911,0.053 11.746,0.053 C11.251,2.814 11.828,5.699 13.476,8.09 C13.601,7.925 13.683,7.801 13.806,7.678 C12.281,5.411 11.786,2.608 12.281,0.012 M18.958,11.675 C17.928,11.304 16.939,10.768 16.032,10.068 C15.95,10.191 15.867,10.356 15.785,10.522 C16.362,10.975 16.98,11.345 17.64,11.675 L18.958,11.675 Z"/>
      <path d="M13.27,0.012 L12.777,0.012 C12.241,2.485 12.735,5.122 14.177,7.348 C14.302,7.224 14.425,7.101 14.549,7.018 C13.19,4.916 12.777,2.36 13.27,0.012 M25.718,11.222 C25.718,11.057 25.677,10.85 25.677,10.686 C25.47,10.768 25.306,10.81 25.099,10.892 C25.182,11.057 25.223,11.222 25.265,11.387 C25.43,11.304 25.594,11.263 25.718,11.222 M21.761,11.675 L21.761,11.263 C19.947,11.139 18.176,10.48 16.651,9.326 L16.527,9.45 C16.445,9.532 16.362,9.615 16.28,9.655 C17.68,10.768 19.247,11.428 20.896,11.675 L21.761,11.675 Z"/>
      <path d="M14.26,0.053 C14.096,0.053 13.93,0.053 13.766,0.012 C13.27,2.278 13.643,4.71 14.96,6.729 C15.085,6.647 15.208,6.564 15.373,6.482 C14.136,4.545 13.766,2.237 14.26,0.053 M25.553,10.233 C25.553,10.068 25.512,9.903 25.47,9.738 C25.223,9.821 25.017,9.903 24.77,9.944 C24.853,10.109 24.894,10.274 24.976,10.439 C25.182,10.356 25.346,10.314 25.553,10.233 M21.432,10.233 C20.072,10.109 18.794,9.615 17.64,8.79 C17.434,8.872 17.27,8.955 17.104,9.037 C18.464,10.067 20.03,10.645 21.637,10.768 C21.597,10.604 21.514,10.398 21.432,10.233 M25.306,9.244 C25.265,9.12 25.223,8.955 25.182,8.79 C24.894,8.872 24.605,8.996 24.317,9.079 C24.399,9.202 24.481,9.367 24.564,9.532 C24.811,9.45 25.059,9.367 25.306,9.244 M20.195,8.996 C19.989,8.914 19.742,8.832 19.535,8.749 C19.123,8.625 18.67,8.625 18.258,8.666 C19.123,9.202 20.112,9.532 21.061,9.696 C20.813,9.408 20.525,9.161 20.195,8.996"/>
      <path d="M15.25,0.217 C15.085,0.177 14.92,0.135 14.755,0.135 C14.26,2.196 14.59,4.421 15.826,6.276 C15.95,6.194 16.114,6.111 16.28,6.07 C15.125,4.339 14.755,2.196 15.25,0.217 M25.017,8.337 C24.935,8.172 24.894,8.007 24.811,7.843 C24.481,8.007 24.111,8.131 23.74,8.172 C23.863,8.337 23.946,8.502 24.07,8.625 C24.4,8.543 24.687,8.461 25.017,8.337"/>
      <path d="M16.197,0.424 L15.703,0.3 C15.249,2.196 15.579,4.256 16.774,5.946 C16.939,5.864 17.146,5.864 17.31,5.822 C16.114,4.256 15.744,2.237 16.197,0.424"/>
      <path d="M18.546,5.699 C17.186,4.339 16.733,2.443 17.146,0.713 C16.98,0.671 16.816,0.588 16.65,0.547 C16.239,2.319 16.65,4.257 17.887,5.74 C18.093,5.74 18.299,5.699 18.547,5.699 M23.41,7.76 C23.822,7.718 24.234,7.595 24.605,7.43 C24.564,7.265 24.481,7.1 24.399,6.977 C23.946,7.142 23.451,7.265 22.956,7.306 C23.122,7.471 23.286,7.596 23.41,7.76"/>
      <path d="M19.288,5.08 C18.176,4.01 17.804,2.485 18.093,1.083 C17.93,1 17.763,0.918 17.6,0.877 C17.229,2.443 17.682,4.215 18.919,5.452 C19.042,5.534 19.124,5.658 19.249,5.74 C19.743,5.782 20.237,5.905 20.732,6.029 C20.196,5.822 19.702,5.493 19.289,5.081 M24.152,6.564 C24.069,6.399 23.988,6.234 23.905,6.111 C22.997,6.441 22.05,6.441 21.143,6.194 C21.597,6.358 22.008,6.606 22.421,6.894 C22.997,6.894 23.615,6.771 24.151,6.564"/>
      <path d="M23.657,5.699 C23.533,5.534 23.451,5.411 23.327,5.246 C22.173,5.576 20.896,5.286 19.989,4.38 C19.206,3.597 18.877,2.525 18.999,1.495 C18.835,1.413 18.669,1.33 18.505,1.289 C18.299,2.485 18.67,3.803 19.618,4.751 C20.69,5.822 22.257,6.151 23.657,5.699"/>
      <path d="M22.997,4.834 C22.874,4.71 22.75,4.544 22.627,4.38 C21.926,4.463 21.225,4.215 20.69,3.68 C20.236,3.226 19.989,2.65 19.947,2.072 C19.783,1.99 19.618,1.866 19.453,1.784 C19.411,2.567 19.701,3.432 20.318,4.05 C21.061,4.792 22.05,5.04 22.998,4.834"/>
      <path d="M22.215,3.927 C21.679,3.391 21.101,2.897 20.483,2.443 C20.566,2.773 20.731,3.103 21.019,3.349 C21.349,3.679 21.761,3.885 22.215,3.927 M47.438,15.632 C47.644,16.785 48.098,17.651 49.169,17.982 C50.447,18.352 52.054,18.27 52.837,17.239 C53.125,16.869 53.167,16.332 53.043,15.879 C52.837,15.179 52.219,15.014 50.983,14.767 C49.911,14.519 47.273,14.231 45.873,13.159 C44.759,12.294 44.182,10.645 44.759,8.832 C45.419,6.894 47.397,6.029 48.881,5.822 C51.641,5.411 53.868,6.442 54.815,7.43 C55.558,8.213 56.052,9.45 56.011,10.645 L52.961,10.645 C52.919,10.275 52.879,9.903 52.713,9.573 C52.343,8.749 51.477,8.254 50.529,8.254 C49.457,8.172 48.345,8.461 47.892,9.367 C47.726,9.697 47.726,10.274 48.015,10.604 C48.675,11.345 49.952,11.387 51.065,11.593 C52.961,11.923 55.022,12.253 55.928,13.819 C56.958,15.632 56.381,17.692 55.723,18.516 C55.269,19.094 54.733,19.629 54.033,20.042 C52.837,20.702 50.818,20.948 48.84,20.619 C47.026,20.331 45.79,19.424 45.089,18.31 C44.553,17.446 44.224,16.703 44.224,15.632 L47.438,15.632 Z M33.59,11.675 L38.783,11.675 C38.865,10.48 37.958,9.161 36.763,8.79 C35.651,8.46 34.496,8.666 33.549,9.45 C32.683,10.233 32.395,11.881 32.395,12.912 C32.435,14.848 32.807,16.209 33.919,17.032 C34.661,17.569 36.351,18.27 37.835,17.198 C38.495,16.703 38.783,16.043 38.906,15.55 L42.574,15.55 C42.492,16.703 41.379,18.557 40.267,19.382 C38.288,20.824 35.692,21.114 33.631,20.332 C29.221,18.682 28.521,14.477 28.851,11.964 C29.015,10.934 29.386,9.862 29.922,8.914 C30.952,7.265 32.435,6.111 34.496,5.782 C36.763,5.452 38.989,6.152 40.431,7.76 C41.256,8.708 42.039,10.274 42.326,11.551 C42.492,12.417 42.657,13.323 42.574,14.271 L33.59,14.271 L33.59,11.675 Z M67.18,16.291 C66.809,17.281 65.778,17.857 64.543,17.981 C64.296,18.022 64.009,18.062 63.721,18.021 C62.897,18.021 62.196,17.611 61.908,16.992 C61.578,16.374 61.784,15.755 61.99,15.384 C62.484,14.519 63.35,14.354 64.546,14.107 C64.916,14.065 65.326,13.983 65.778,13.859 C66.685,13.654 66.892,13.489 67.344,13.159 C67.344,13.489 67.386,15.837 67.18,16.291 L67.18,16.291 Z M70.89,16.827 L70.89,12.376 C70.848,11.222 70.848,10.068 70.6,8.996 C70.354,7.925 69.405,6.152 66.355,5.782 C65.779,5.74 65.161,5.74 64.543,5.74 C63.513,5.782 62.441,5.946 61.576,6.276 C59.763,7.018 58.856,8.79 58.856,10.646 L62.152,10.646 C62.07,9.696 62.772,8.832 63.43,8.584 C63.719,8.461 64.13,8.378 64.543,8.378 C65.367,8.338 66.191,8.543 66.768,9.078 C67.138,9.45 67.262,9.944 67.138,10.48 C66.933,11.345 65.985,11.634 64.543,11.84 C64.048,11.923 63.473,11.964 62.855,12.046 C61.125,12.252 58.651,13.118 58.075,15.632 C57.869,16.62 58.033,18.434 59.558,19.629 C60.588,20.412 62.031,20.784 63.144,20.742 C63.639,20.742 64.133,20.702 64.546,20.619 L64.546,20.618 C65.698,20.371 66.604,19.835 67.468,19.134 C67.51,19.342 67.716,20.124 67.88,20.331 L71.342,20.331 C70.807,19.259 70.889,17.692 70.889,16.827 L70.89,16.827 Z"/>
    </g>
  </g>
</svg>
