<svg height="55" viewBox="0 0 54 55" width="54" xmlns="http://www.w3.org/2000/svg"><g fill="#d5dbe8"><path d="m4.599 0c-.354 0-.662.24-.748.583l-3.621 14.378c-1.224 4.866 2.572 9.723 7.576 9.722 4.308 0 7.812-3.506 7.812-7.814v-16.869h-11.018zm15.033 0v17.248c0 4.1 3.336 7.434 7.437 7.434s7.437-3.335 7.437-7.434v-17.248zm18.888 0v16.938c0 4.27 3.473 7.745 7.742 7.745 4.956 0 8.722-4.816 7.509-9.636l-3.641-14.464c-.087-.343-.395-.583-.75-.583z"/><g transform="translate(3 23.538)"><path d="m18.585 15.501h10.831v14.961h-10.831z"/><path d="m43.262 5.155c-4.008 0-7.553-2.015-9.676-5.087-2.057 3.066-5.555 5.088-9.517 5.088-3.972 0-7.478-2.033-9.532-5.112-2.136 3.087-5.7 5.112-9.73 5.112-1.657 0-3.268-.341-4.746-.989v25.523c0 .425.346.772.771.772h13.74v-16.967c0-1.107.898-2.005 2.006-2.005h14.844c1.108 0 2.007.898 2.007 2.005v16.967h13.738c.425 0 .771-.346.771-.772v-25.5c-1.458.633-3.045.965-4.676.965z"/></g></g></svg>