<svg height="33" viewBox="0 0 144 33" width="144" xmlns="http://www.w3.org/2000/svg"><path d="m5.844 26.761v-8.683l-5.8-15.568h2.917l4.275 12.007 4.917-14.517h2.68l-6.309 18.18v8.581zm67.026-17.094-3.188 8.004 3.56 9.09h-2.746l-2.646-7.055-2.578 7.055h-2.611l3.561-8.852-3.222-8.242h2.747l2.205 6.207 2.34-6.207zm-18.587 6.987h4.376c0-2.917-.475-5.054-2.002-5.054-1.628 0-2.205 2-2.374 5.054zm2.917 10.345c-3.528 0-5.699-2.815-5.699-8.073 0-5.494 1.527-9.497 5.156-9.497 2.85 0 4.715 2.137 4.715 7.937v1.458h-7.123c0 3.867 1.085 5.902 3.188 5.902 1.493 0 2.578-.678 3.256-1.153l.61 2.035c-1.085.848-2.407 1.39-4.103 1.39zm-10.99-14.585c-.543-.543-1.12-.814-2-.814-2.138 0-3.155 3.222-3.155 6.716 0 4.002.746 6.444 2.68 6.444 1.322 0 2.034-.645 2.475-1.323zm-7.97 6.445c0-6.343 2.374-9.43 5.8-9.43.814 0 1.661.272 2.17.645v-7.564h2.646v24.25h-1.966l-.204-1.356h-.17c-.746.95-1.695 1.594-3.086 1.594-3.358 0-5.19-2.85-5.19-8.14zm-9.566 7.902h-2.644v-17.129h2.645v1.493h.17c.475-.644 1.764-1.696 3.358-1.696 2.24 0 3.426 1.255 3.426 3.867v13.464h-2.68v-13.227c0-1.289-.576-1.73-1.594-1.73-1.12 0-2.069.848-2.68 1.697v13.26zm-8.547-8.92h-.305c-3.29 0-4.002 1.459-4.002 3.663 0 1.967.644 3.256 2 3.256.917 0 1.832-.61 2.307-1.357zm2.917 8.92h-2.238c-.102-.373-.204-.915-.238-1.356h-.17c-.746.95-1.695 1.594-3.188 1.594-2.442 0-4.104-1.832-4.104-5.19 0-3.663 1.866-5.97 6.648-5.97h.373v-1.017c0-2.238-.746-3.188-2.238-3.188-1.357 0-2.51.712-3.392 1.493l-.509-2.341c.78-.644 2.34-1.357 4.07-1.357 3.019 0 4.681 1.289 4.681 5.427v8.039c0 1.628.17 3.052.305 3.866zm59.338-16.586-.712 16.586h-1.39l1.05-24.251h1.866l3.629 14.958c.306 1.187.475 2.34.577 3.358h.068c.101-1.018.305-2.171.61-3.358l3.731-14.958h1.9l1.05 24.251h-1.627l-.712-16.721c-.102-1.9-.068-3.358-.068-4.85h-.103c-.202 1.525-.44 2.95-.813 4.375l-3.392 13.398h-1.322l-3.358-13.398c-.34-1.323-.61-2.68-.78-4.341h-.103c0 1.322-.033 3.29-.1 4.951m23.882 8.039c0-5.36-1.629-7.563-3.63-7.563-2.002 0-3.63 2.374-3.63 7.563 0 5.325 1.628 7.598 3.63 7.598 2.001 0 3.63-2.443 3.63-7.598zm-8.854.102c0-5.698 2.273-8.989 5.224-8.989 2.95 0 5.222 2.917 5.222 8.785 0 5.664-2.272 8.989-5.222 8.989s-5.224-2.951-5.224-8.785zm14.962-4.036v12.48h-1.595v-17.093h1.459l.067 2.815h.069c.474-1.255 1.83-3.155 4.137-3.155 2.273 0 3.596 1.425 3.596 4.139v13.294h-1.594v-13.09c0-2.035-.747-2.985-2.307-2.985-1.696 0-2.985 1.425-3.832 3.596m12.11 2.949h6.209c.27-4.545-1.086-6.58-2.816-6.58-1.798 0-3.257 2.307-3.393 6.58zm3.732 8.48c2.272 0 3.46-1.832 3.46-1.832l.508 1.289s-1.288 1.934-4.002 1.934c-3.628 0-5.291-3.29-5.291-8.887 0-5.596 2.103-8.887 4.986-8.887 2.95 0 4.85 3.087 4.307 9.158h-7.733c.068 4.681 1.289 7.225 3.765 7.225zm6.481 6.41-.17-1.492c.271.068.61.136 1.052.136 1.153 0 1.967-1.12 2.476-3.02l.135-.508-4.24-17.57h1.594l2.713 11.16c.306 1.289.544 2.543.713 3.867h.103c.236-1.358.507-2.612.813-3.867l2.646-11.16h1.425l-4.377 17.977c-.576 2.306-1.593 4.545-4.001 4.545-.373 0-.645-.034-.882-.068" fill="#d5dbe8" fill-rule="evenodd"/></svg>