<svg height="57" viewBox="0 0 57 57" width="57" xmlns="http://www.w3.org/2000/svg"><g fill="#d5dbe8"><path d="m36.302 15.237c-.76-.845-2.844-1.159-4.917-1.237h-9.555l-3.83 23h3.239c1.842-11.064.92-5.72 3.167-18.359.14-.784.821-1.355 1.617-1.355h10.977c-.083-.947-.303-1.61-.698-2.049z"/><path d="m41.254 20.88c-.373-.425-.992-.696-1.774-.88-1.286 8.901-7.744 9.505-14.362 9.542l-1.42 8.698c0 .006.002.01.001.016l-.699 4.744h3.257l1.422-8.72c.13-.805.813-1.395 1.612-1.395 7.97 0 11.834-.306 12.596-7.224.268-2.431.062-3.995-.633-4.78z"/><path d="m27.197 20-1.197 6c6.648-.081 10.086-.858 11-6z"/><path d="m28.5 0c-15.654 0-28.5 12.846-28.5 28.5s12.846 28.5 28.5 28.5 28.5-12.846 28.5-28.5-12.846-28.5-28.5-28.5zm17.428 26.563c-1.074 9.541-7.844 10.15-14.771 10.187l-1.455 8.723c-.134.806-.83 1.396-1.647 1.396h-6.68c-1.013 0-1.803-.903-1.652-1.918l.716-4.762h-4.742c-1.036 0-1.817-.935-1.647-1.943l4.453-26.72c.134-.805.83-1.395 1.647-1.395.112 0 10.887-.017 11.356 0 2.919.102 5.646.568 7.26 2.361.998 1.108 1.503 2.64 1.585 4.668 1.698.302 3.074.88 4.093 2.012 1.404 1.559 1.876 3.907 1.484 7.39z"/></g></svg>