<svg height="49" viewBox="0 0 48 49" width="48" xmlns="http://www.w3.org/2000/svg" xmlns:xlink="http://www.w3.org/1999/xlink"><mask id="a" fill="#fff"><path d="m0 .405h48v48.11h-48z" fill="#fff" fill-rule="evenodd"/></mask><g fill="#d5dbe8" fill-rule="evenodd"><path d="m40.332.405h-32.664c-4.24 0-7.668 3.435-7.668 7.684v32.679c0 4.31 3.429 7.747 7.668 7.747h32.602c4.301 0 7.73-3.437 7.73-7.685v-.5s-12.405-5.186-18.702-8.247c-4.238 5.123-9.662 8.31-15.272 8.31-9.538 0-12.78-8.373-8.29-13.872.997-1.186 2.68-2.373 5.235-2.999 4.052-1 10.535.626 16.582 2.625 1.06-2 1.995-4.25 2.68-6.623h-18.7v-1.875h9.662v-3.436h-11.595v-1.875h11.657v-4.873s0-.812.81-.812h4.738v5.685h11.533v1.875h-11.533v3.436h9.413c-.873 3.687-2.244 7.123-3.99 10.122 2.868 1.062 5.424 2 7.356 2.687 6.857 2.312 8.416 2.437 8.416 2.437v-24.806c0-4.248-3.429-7.684-7.668-7.684" mask="url(#a)"/><path d="m7.777 27.925c-3.745 3.548-1.498 10.075 6.053 10.075 4.368 0 8.737-3.051 12.169-7.946-4.868-2.626-9.049-4.47-13.48-3.973-1.248.07-3.495.638-4.743 1.844"/></g></svg>