<svg height="34" viewBox="0 0 90 34" width="90" xmlns="http://www.w3.org/2000/svg"><path d="m762.034 10321.34h3.88v-3.863h-3.88v3.864zm-4.237-.548c-.263.79-1.005 1.323-1.84 1.323-.834 0-1.576-.534-1.84-1.323l-2.298-6.865-2.297 6.865c-.265.79-1.005 1.323-1.841 1.323-.835 0-1.575-.534-1.84-1.323l-4.138-12.363c-.338-1.012.21-2.105 1.227-2.444 1.016-.336 2.115.21 2.454 1.222l2.297 6.866c1.688-5.036 2.291-6.86 2.351-6.999.4-.96 1.526-1.46 2.537-1.035.43.18.786.506 1 .95.084.176-.07-.259 2.389 7.084l2.297-6.866c.34-1.012 1.438-1.558 2.454-1.222 1.016.339 1.565 1.432 1.227 2.444zm-18.62-12.363-4.138 12.363c-.265.79-1.006 1.322-1.841 1.322s-1.575-.533-1.84-1.322l-2.296-6.865-2.3 6.865c-.262.79-1.004 1.322-1.839 1.322-.834 0-1.576-.533-1.84-1.322l-4.138-12.363c-.339-1.012.21-2.105 1.227-2.444 1.017-.337 2.115.21 2.454 1.222l2.297 6.866c2.415-7.209 2.305-6.912 2.388-7.086.43-.891 1.45-1.308 2.363-1.002.475.159.896.506 1.136 1.002.087.18-.027-.128 2.388 7.086l2.299-6.866c.338-1.012 1.438-1.558 2.454-1.222 1.016.339 1.565 1.432 1.227 2.444zm-22.759 0-4.137 12.363c-.265.79-1.006 1.323-1.84 1.323-.835 0-1.577-.534-1.841-1.323l-2.297-6.865-2.298 6.865c-.264.79-1.006 1.323-1.84 1.323-.835 0-1.576-.534-1.841-1.323l-4.138-12.363c-.339-1.012.21-2.105 1.227-2.444 1.017-.336 2.115.21 2.454 1.222l2.297 6.866c2.492-7.437 2.318-6.988 2.48-7.256.458-.752 1.391-1.122 2.271-.832.486.162.905.518 1.137 1.004.083.175-.037-.157 2.388 7.084l2.298-6.866c.339-1.012 1.438-1.558 2.453-1.222 1.017.339 1.566 1.432 1.227 2.444zm53.652-11.429h-78.14c-3.261 0-5.93 2.658-5.93 5.906v22.188c0 3.248 2.669 5.906 5.93 5.906h78.14c3.262 0 5.93-2.658 5.93-5.906v-22.188c0-3.248-2.668-5.906-5.93-5.906z" fill="#d5dbe8" fill-rule="evenodd" transform="translate(-686 -10297)"/></svg>