<svg height="36" viewBox="0 0 54 36" width="54" xmlns="http://www.w3.org/2000/svg"><path d="m0 15.714v13.976c0 4.024 3.262 7.286 7.287 7.286h39.426c4.025 0 7.287-3.262 7.287-7.286v-13.976c0-.7-.567-1.267-1.267-1.267h-51.466c-.7 0-1.267.568-1.267 1.267zm13.482 8.871h-3.379c-1.225 0-2.218-.993-2.218-2.217 0-1.225.993-2.218 2.218-2.218h3.38c1.224 0 2.217.993 2.217 2.218 0 1.224-.993 2.217-2.218 2.217zm40.518-15.841v-.457c0-4.025-3.262-7.287-7.287-7.287h-39.426c-4.025 0-7.287 3.262-7.287 7.287v.457c0 .7.567 1.268 1.267 1.268h51.466c.7 0 1.267-.568 1.267-1.268z" fill="#d5dbe8" transform="translate(0 -.965)"/></svg>