<svg height="58" viewBox="0 0 45 58" width="45" xmlns="http://www.w3.org/2000/svg" xmlns:xlink="http://www.w3.org/1999/xlink"><mask id="a" fill="#fff"><path d="m0 58h45v-58h-45z" fill="#fff" fill-rule="evenodd"/></mask><g fill="none" fill-rule="evenodd"><path d="m34.773 12.507h-4.091c-1.13 0-2.046-.922-2.046-2.062 0-1.139.915-2.061 2.046-2.061h4.09c1.131 0 2.046.922 2.046 2.061 0 1.14-.915 2.062-2.045 2.062zm0 8.247h-4.091c-1.13 0-2.046-.923-2.046-2.062 0-1.14.915-2.062 2.046-2.062h4.09c1.131 0 2.046.922 2.046 2.062s-.915 2.062-2.045 2.062zm-10.228 2.061c0 1.14-.914 2.062-2.045 2.062h-12.273c-1.13 0-2.045-.922-2.045-2.062v-12.37c0-1.139.915-2.061 2.045-2.061h12.273c1.13 0 2.045.922 2.045 2.061zm-2.045 10.308h-12.273c-1.13 0-2.045-.922-2.045-2.061 0-1.14.915-2.062 2.045-2.062h12.273c1.13 0 2.045.922 2.045 2.062s-.914 2.061-2.045 2.061zm16.364-33.123h-32.728c-3.383 0-6.136 2.912-6.136 6.322v30.924h45v-30.924c0-3.41-2.753-6.322-6.136-6.322z" fill="#d5dbe8"/><path d="m12.273 20.754h8.182v-8.247h-8.182zm-12.273 37.246h45v-16.63h-45z" fill="#d5dbe8" mask="url(#a)"/><path d="m0 0h350v30h-350z" transform="translate(-153 57)"/></g></svg>