<svg xmlns="http://www.w3.org/2000/svg" width="60" height="50" viewBox="0 0 60 50">
    <path fill="#BBB" d="M38.468 0H5.806C2.605 0 0 2.588 0 5.769v18.508c0 3.181 2.605 5.769 5.806 5.769h3.919l-.872 5.721c-.178 1.165.732 2.211 1.913 2.211.684 0-.341.435 15.506-7.932h12.196c3.201 0 5.806-2.588 5.806-5.769V5.77C44.274 2.588 41.67 0 38.468 0zM11.25 18.388c-1.868 0-3.387-1.51-3.387-3.365 0-1.856 1.52-3.365 3.387-3.365 1.868 0 3.387 1.51 3.387 3.365 0 1.856-1.52 3.365-3.387 3.365zm10.887 0c-1.868 0-3.387-1.51-3.387-3.365 0-1.856 1.52-3.365 3.387-3.365 1.868 0 3.387 1.51 3.387 3.365 0 1.856-1.52 3.365-3.387 3.365zm10.887 0c-1.867 0-3.387-1.51-3.387-3.365 0-1.856 1.52-3.365 3.387-3.365 1.868 0 3.387 1.51 3.387 3.365 0 1.856-1.52 3.365-3.387 3.365zm26.976-.6v18.508c0 3.186-2.6 5.768-5.806 5.768h-3.919l.873 5.721c.177 1.159-.726 2.212-1.914 2.212-.689 0 .31.418-15.506-7.933H21.532c-1.451 0-2.78-.532-3.8-1.41-1-.862-.855-2.446.287-3.113 8.76-5.115 8.292-4.96 9.019-4.96H39.63c3.768 0 6.823-3.034 6.823-6.778V13.941c0-1.062.867-1.923 1.936-1.923h5.804c3.206 0 5.806 2.583 5.806 5.77z"/>
</svg>
