<svg height="55" viewBox="0 0 55 55" width="55" xmlns="http://www.w3.org/2000/svg"><path d="m877 6669.25v-11c0-4.556 3.694-8.25 8.25-8.25h11c1.519 0 2.75 1.231 2.75 2.75s-1.231 2.75-2.75 2.75h-11c-1.519 0-2.75 1.231-2.75 2.75v11c0 1.519-1.231 2.75-2.75 2.75s-2.75-1.231-2.75-2.75zm46.75-19.25h-11c-1.519 0-2.75 1.231-2.75 2.75s1.231 2.75 2.75 2.75h11c1.519 0 2.75 1.231 2.75 2.75v11c0 1.519 1.231 2.75 2.75 2.75s2.75-1.231 2.75-2.75v-11c0-4.556-3.694-8.25-8.25-8.25zm5.5 33c-1.519 0-2.75 1.231-2.75 2.75v11c0 1.519-1.231 2.75-2.75 2.75h-11c-1.519 0-2.75 1.231-2.75 2.75s1.231 2.75 2.75 2.75h11c4.556 0 8.25-3.694 8.25-8.25v-11c0-1.519-1.231-2.75-2.75-2.75zm-33 16.5h-11c-1.519 0-2.75-1.231-2.75-2.75v-11c0-1.519-1.231-2.75-2.75-2.75s-2.75 1.231-2.75 2.75v11c0 4.556 3.694 8.25 8.25 8.25h11c1.519 0 2.75-1.231 2.75-2.75s-1.231-2.75-2.75-2.75zm-2.75-38.5h22c3.038 0 5.5 2.462 5.5 5.5v22c0 3.038-2.462 5.5-5.5 5.5h-22c-3.038 0-5.5-2.462-5.5-5.5v-22c0-3.038 2.462-5.5 5.5-5.5z" fill="#d5dbe8" transform="translate(-877 -6650)"/></svg>