<svg height="45" viewBox="0 0 45 45" width="45" xmlns="http://www.w3.org/2000/svg"><path d="m1028.638 3794.538-20.223-20.223c-.82-.81-1.944-1.315-3.18-1.315h-15.738c-2.485 0-4.497 2.012-4.497 4.497v15.737c0 1.248.506 2.372 1.326 3.181l20.235 20.235c.81.81 1.933 1.315 3.17 1.315 1.236 0 2.372-.506 3.181-1.315l15.738-15.738c.81-.82 1.315-1.945 1.315-3.181 0-1.248-.506-2.372-1.327-3.193zm-35.77-10.297c-1.865 0-3.371-1.506-3.371-3.372s1.506-3.372 3.372-3.372 3.372 1.506 3.372 3.372-1.506 3.372-3.372 3.372z" fill="#bbb" transform="translate(-985 -3773)"/></svg>