<svg height="57" viewBox="0 0 49 57" width="49" xmlns="http://www.w3.org/2000/svg"><g fill="#bbb"><path d="m34.08 24.68-9.818-9.819c-.356-.355-.841-.542-1.31-.542h-21.042c-1.024 0-1.853.83-1.853 1.853v38.577c0 1.023.83 1.853 1.853 1.853h30.862c1.023 0 1.853-.83 1.853-1.853v-28.757c0-.467-.19-.956-.544-1.311zm-9.89 24.58h-13.697c-1.023 0-1.853-.83-1.853-1.854s.83-1.854 1.853-1.854h13.697c1.023 0 1.853.83 1.853 1.854 0 1.023-.83 1.853-1.853 1.853zm0-7.037h-13.697c-1.023 0-1.853-.83-1.853-1.853 0-1.024.83-1.853 1.853-1.853h13.697c1.023 0 1.853.83 1.853 1.853 0 1.024-.83 1.853-1.853 1.853zm0-7.035h-13.697c-1.023 0-1.853-.83-1.853-1.854 0-1.023.83-1.853 1.853-1.853h13.697c1.023 0 1.853.83 1.853 1.853 0 1.024-.83 1.854-1.853 1.854z"/><path d="m48.4 10.362-9.82-9.82c-.345-.343-.824-.542-1.31-.542h-21.043c-1.023 0-1.853.83-1.853 1.853v7.759h9.576c1.545 0 2.703.542 3.842 1.538l9.909 9.91c1.071 1.07 1.63 2.51 1.63 3.932v17.291h7.758c1.024 0 1.853-.83 1.853-1.853v-28.756c0-.477-.19-.958-.544-1.312z"/></g></svg>