<svg height="83" viewBox="0 0 77 83" width="77" xmlns="http://www.w3.org/2000/svg"><g fill="#0049f8" transform="translate(1 7)"><path d="m74.851 58.13-31.25-54.237c-1.437-2.443-3.502-3.893-5.658-3.893-2.245 0-4.31 1.449-5.657 3.893l-31.07 54.237c-1.438 2.445-1.617 4.98-.45 6.882 1.078 1.901 3.324 2.988 6.196 2.988h62.142c2.784 0 5.029-1.087 6.196-2.988 1.078-1.902.898-4.437-.449-6.882zm-2.963 4.98c-.45.725-1.437 1.087-2.874 1.087h-62.141c-1.437 0-2.515-.453-2.874-1.087-.449-.724-.27-1.81.45-3.078l31.07-54.237c.718-1.268 1.616-1.992 2.424-1.992.809 0 1.707.724 2.425 1.992l31.07 54.237c.719 1.268.899 2.354.45 3.078z"/><path d="m38 18.197c-1.086 0-1.9.808-1.9 1.886v24.961c0 1.077.814 1.886 1.9 1.886s1.9-.809 1.9-1.886v-24.961c0-1.078-.814-1.886-1.9-1.886z"/><ellipse cx="37.525" cy="54.113" rx="3.325" ry="3.352"/></g></svg>