<svg height="83" viewBox="0 0 83 83" width="83" xmlns="http://www.w3.org/2000/svg" xmlns:xlink="http://www.w3.org/1999/xlink"><mask id="a" fill="#fff"><path d="m0 0h51.738v52.594h-51.738z" fill="#fff" fill-rule="evenodd"/></mask><g fill="#0049f8" fill-rule="evenodd"><path d="m55.029 50.785c-.879 0-1.59.724-1.59 1.617v11.16c0 4.46-3.568 8.087-7.953 8.087h-17.171c-.878 0-1.59.723-1.59 1.616l-.003 3.216-3.796-3.86c-.246-.574-.808-.972-1.459-.972h-10.334c-4.385 0-7.952-3.628-7.952-8.087v-24.907c0-4.46 3.567-8.087 7.952-8.087h16.063c.878 0 1.59-.724 1.59-1.617 0-.894-.712-1.618-1.59-1.618h-16.063c-6.139 0-11.133 5.08-11.133 11.322v24.907c0 6.243 4.994 11.322 11.133 11.322h9.52l6.532 6.642c.304.31.71.474 1.125.474.205 0 .411-.04.608-.123.594-.25.981-.84.982-1.493l.004-5.5h15.582c6.139 0 11.133-5.08 11.133-11.322v-11.16c0-.893-.712-1.617-1.59-1.617"/><path d="m40.274 39.582c-.41.304-.652.781-.652 1.287v6.223l-4.006-3.943c-.312-.306-.73-.472-1.158-.472-.16 0-.322.024-.48.072-1.95.59-3.98.888-6.037.888h-4.144c-11.316 0-20.522-9.064-20.522-20.206s9.205-20.207 20.522-20.207h4.144c11.316 0 20.523 9.065 20.523 20.207 0 6.404-2.985 12.291-8.19 16.15m-12.333-39.581h-4.144c-13.122 0-23.797 10.51-23.797 23.43s10.675 23.431 23.797 23.431h4.144c2.048 0 4.075-.256 6.04-.762l6.121 6.023c.313.308.732.472 1.158.472.21 0 .424-.04.626-.123.612-.25 1.01-.837 1.01-1.489v-9.327c2.592-2.066 4.745-4.676 6.256-7.593 1.716-3.312 2.586-6.889 2.586-10.631 0-12.921-10.675-23.431-23.797-23.431" mask="url(#a)" transform="translate(30.262)"/><path d="m64.41 16.993c-.249-3.327-3.167-6.01-6.788-6.238-2.052-.13-4.01.506-5.51 1.792-1.478 1.269-2.326 3.062-2.326 4.92 0 .877.774 1.589 1.729 1.589s1.73-.712 1.73-1.59c0-.994.435-1.916 1.227-2.595.791-.679 1.825-1.014 2.913-.945 1.906.12 3.444 1.533 3.575 3.285.133 1.77-1.13 3.334-3.004 3.72-1.518.312-2.578 1.524-2.578 2.947v3.818c0 .878.774 1.59 1.73 1.59.954 0 1.729-.712 1.728-1.59v-3.69c3.485-.774 5.823-3.704 5.575-7.013m-6.269 16.627c-.272-.273-.65-.43-1.035-.43s-.763.157-1.035.43c-.272.272-.43.65-.43 1.035 0 .386.158.764.43 1.036.272.273.65.428 1.035.428s.763-.155 1.035-.428c.273-.273.43-.65.43-1.036 0-.385-.158-.763-.43-1.036m-13.867 16.167h-33.883c-.887 0-1.606.655-1.606 1.464s.719 1.464 1.606 1.464h33.883c.887 0 1.606-.655 1.606-1.464s-.72-1.464-1.606-1.464m-6.806 8.785h-27.104c-.872 0-1.58.656-1.58 1.465 0 .808.708 1.464 1.58 1.464h27.104c.872 0 1.579-.656 1.579-1.464 0-.809-.707-1.465-1.58-1.465m-2.996-17.571h-24.04c-.909 0-1.646.656-1.646 1.464 0 .809.737 1.465 1.646 1.465h24.04c.91 0 1.647-.656 1.647-1.465 0-.808-.737-1.464-1.647-1.464"/></g></svg>