<svg height="83" viewBox="0 0 78 83" width="78" xmlns="http://www.w3.org/2000/svg" xmlns:xlink="http://www.w3.org/1999/xlink"><defs><path id="a" d="m0 74.1h78v-74.1h-78z"/><mask id="b" fill="#fff"><use fill="#fff" fill-rule="evenodd" xlink:href="#a"/></mask></defs><g fill="none" fill-rule="evenodd" stroke="#fff" stroke-width=".5" transform="translate(0 4)"><path d="m3.628 36.146c0-.998.812-1.807 1.814-1.807h36.278c1.002 0 1.814.81 1.814 1.807v32.532c0 .998-.812 1.807-1.814 1.807h-36.28c-1 0-1.813-.809-1.813-1.807v-32.532zm25.395-5.422h-10.883v-5.422c0-2.994 2.436-5.422 5.441-5.422 3.006 0 5.442 2.428 5.442 5.422zm-18.14-5.422c0-6.987 5.685-12.65 12.698-12.65 7.014 0 12.698 5.663 12.698 12.65v5.422h-3.628v-5.422c0-4.99-4.06-9.036-9.07-9.036-5.008 0-9.07 4.046-9.07 9.036v5.422h-3.627v-5.422zm41.723-10.842h3.628v-3.615h-3.628zm18.14-7.23h3.627v-3.615h-3.628v3.614zm-58.049 66.87h29.023c3.005 0 5.442-2.428 5.442-5.422h16.325v-3.615h-16.324v-3.613h16.325c.481 0 .943-.19 1.283-.53l5.442-5.422c.34-.339.531-.798.531-1.278v-7.23h-3.628v6.481l-4.379 4.363h-15.574v-3.614h14.511c1.002 0 1.814-.809 1.814-1.807v-22.748l10.353-10.314c.34-.339.531-.799.531-1.278v-7.23h1.814c1.002 0 1.814-.808 1.814-1.806v-7.23c0-.997-.812-1.807-1.814-1.807h-7.256c-1.002 0-1.814.81-1.814 1.807v7.23c0 .998.812 1.807 1.814 1.807h1.814v6.48l-10.352 10.316c-.34.34-.532.799-.532 1.278v21.688h-12.697v-3.616h7.256c1.001 0 1.814-.809 1.814-1.807v-27.11h1.814c1.001 0 1.813-.81 1.813-1.807v-7.23c0-.998-.812-1.807-1.813-1.807h-7.257c-1.002 0-1.814.81-1.814 1.808v7.229c0 .998.812 1.807 1.814 1.807h1.814v25.303h-5.442v-7.23c0-2.994-2.437-5.422-5.442-5.422h-1.814v-5.422c-.012-7.584-5.278-14.155-12.698-15.846-2.267-.485-3.628-.42-3.628-.42-9.012.011-16.315 7.287-16.325 16.266v5.422h-1.813c-3.005 0-5.442 2.428-5.442 5.422v32.532c0 2.994 2.437 5.422 5.442 5.422h7.256z" fill="#0049f8"/><use xlink:href="#a"/><path d="m66.3 69.225h3.9v-3.9h-3.9zm0-25.35h3.9v-3.9h-3.9z" fill="#0049f8" mask="url(#b)"/></g></svg>