<svg height="83" viewBox="0 0 60 83" width="60" xmlns="http://www.w3.org/2000/svg"><g fill="#0049f8" transform="translate(0 5)"><path d="m58.571 8.506c-3.938 0-7.142-3.18-7.142-7.088 0-.783-.64-1.418-1.429-1.418h-40c-.789 0-1.429.635-1.429 1.418 0 3.908-3.204 7.088-7.142 7.088-.79 0-1.429.634-1.429 1.417v23.134c0 18.028 11.842 34.183 29.59 39.463.134.04.272.06.41.06s.277-.02.41-.06c17.364-5.168 29.59-21.04 29.59-39.463v-23.134c0-.783-.64-1.417-1.429-1.417zm-1.428 24.55c0 16.934-10.889 31.598-27.143 36.625-16.125-4.987-27.143-19.784-27.143-36.624v-21.817c4.373-.624 7.842-4.065 8.47-8.405h37.346c.628 4.34 4.097 7.781 8.47 8.405v21.817z"/><path d="m53.341 14.1c-2.967-1.275-5.318-3.58-6.618-6.49-.226-.508-.738-.836-1.303-.836h-9.73c-.786 0-1.423.625-1.423 1.396 0 .77.637 1.395 1.423 1.395h8.83c1.504 2.887 3.884 5.22 6.827 6.695v17.475c0 13.658-8.36 24.65-21.347 29.368-12.986-4.718-21.347-15.71-21.347-29.368v-17.475c2.943-1.474 5.323-3.808 6.827-6.695h21.615c.785 0 1.423-.625 1.423-1.395s-.638-1.396-1.423-1.396h-22.515c-.565 0-1.077.328-1.303.836-1.3 2.91-3.65 5.215-6.618 6.49-.518.222-.853.724-.853 1.278v18.357c0 14.963 9.438 27.211 23.72 32.167.153.054.313.08.474.08.16 0 .321-.026.475-.08 14.27-4.952 23.719-17.192 23.719-32.167v-18.357c0-.554-.335-1.056-.853-1.278z"/><path d="m30.484 21.29c-7.204 0-13.065 5.861-13.065 13.065s5.861 13.064 13.065 13.064 13.064-5.86 13.064-13.064-5.86-13.065-13.064-13.065zm0 23.226c-5.603 0-10.161-4.558-10.161-10.161s4.558-10.161 10.16-10.161c5.604 0 10.162 4.558 10.162 10.16 0 5.604-4.558 10.162-10.161 10.162z"/><path d="m36.333 30.405c-.588-.54-1.54-.54-2.129 0l-6.462 5.935-1.946-1.788c-.588-.54-1.541-.54-2.13 0-.587.54-.587 1.416 0 1.956l3.011 2.765c.295.27.68.404 1.065.404s.77-.135 1.064-.405l7.527-6.912c.588-.54.588-1.415 0-1.955z"/></g></svg>