<svg xmlns="http://www.w3.org/2000/svg" width="661" height="456" viewBox="0 0 661 456">
  <g fill="none" fill-rule="evenodd" transform="translate(2 3)">
    <path fill="#F8F8F8" d="M473.892098,141.015065 L473.892098,141.015065 L473.889121,141.015065 C471.516496,141.170005 469.167688,141.409864 466.845671,141.751031 C429.669596,143.222964 400.519361,105.715487 400.519361,105.715487 L400.517873,105.727405 C350.910079,43.5590891 276.642771,0 210.672206,0 C140.59197,0 100.965869,49.1518389 107.068604,117.552034 C107.552358,130.580429 105.213968,168.521442 63.1884511,180.907729 C63.1750548,180.912199 63.1631471,180.916668 63.1497508,180.919648 C62.9175492,180.992648 62.686836,181.062669 62.4531459,181.13567 C62.2447599,181.201222 62.0363738,181.266774 61.8354301,181.332325 C31.9469133,190.761338 0.400238712,206.903438 0,250.733673 C-0.95129382,357.23727 116.990758,367 116.990758,367 L587.837602,367 C587.837602,367 684.265281,363.61217 646.036856,269.216266 C617.343582,198.360863 537.405196,136.882329 473.892098,141.015065"/>
    <g transform="translate(119 73)">
      <path fill="#0048FA" d="M302.726527,330.292981 C302.660059,330.676974 302.437578,330.993906 302.05262,331.244695 C301.681509,331.510183 301.125767,331.716878 300.368775,331.872129 C299.6284,332.026461 298.664621,332.158745 297.477437,332.269901 L291.828618,332.815575 L290.167852,327.201747 L296.721368,326.566965 C298.648927,326.383236 300.020744,326.44203 300.844203,326.745182 C300.977138,326.795707 301.102688,326.855419 301.221775,326.921561 C301.852294,327.283507 302.303719,327.92472 302.571436,328.847037 C302.748683,329.430375 302.80038,329.917256 302.726527,330.292981 L302.726527,330.292981 Z M313.053923,341.019976 C313.046538,341.019976 313.046538,341.011708 313.039152,341.004359 C313.002226,340.99058 312.964376,340.960264 312.92745,340.915251 C312.905294,340.901471 312.890524,340.878505 312.867445,340.857376 C312.846212,340.835329 312.824056,340.805014 312.793592,340.775617 C312.697583,340.658031 312.586804,340.495431 312.467716,340.303435 C312.201846,339.898313 311.903665,339.285578 311.578713,338.473498 C311.385772,338.016932 311.229758,337.647637 311.103285,337.360102 C310.977735,337.079916 310.889112,336.858523 310.836492,336.681225 C310.747868,336.497496 310.688786,336.349595 310.636166,336.245788 C310.599239,336.1429 310.562313,336.040012 310.532772,335.929775 C310.288134,335.509036 310.028726,335.161789 309.747162,334.881603 C309.465598,334.594068 309.101873,334.277136 308.657833,333.929889 C308.568286,333.893143 308.464892,333.840781 308.345805,333.774638 C308.22764,333.715845 308.079011,333.642354 307.915612,333.561513 C307.73098,333.479754 307.508498,333.391564 307.285093,333.280408 C307.056149,333.170171 306.774586,333.044317 306.447787,332.897334 C307.553733,332.055857 308.294108,331.252045 308.679066,330.477629 C309.057561,329.709643 309.124952,328.898481 308.864621,328.035875 C308.560901,327.01067 307.945153,326.132447 307.026608,325.415905 C306.751507,325.20278 306.447787,325.003435 306.121911,324.811438 C305.359381,324.369571 304.43899,324.000276 303.386587,323.705392 C302.63698,323.47665 301.718436,323.350796 300.629106,323.30762 C299.546239,323.262606 298.360901,323.30762 297.062937,323.431636 L282.918273,324.797659 L288.744339,344.441921 L295.098452,343.829187 L292.674233,335.670718 L298.657236,335.095647 C299.731794,334.99184 300.606027,334.955095 301.295628,334.984491 C301.636274,334.99919 301.955688,335.044203 302.24556,335.110345 C302.393266,335.147091 302.533586,335.191186 302.667445,335.243549 C302.733912,335.264677 302.80038,335.294074 302.866847,335.324389 C302.926853,335.346437 302.97855,335.375833 303.037632,335.40523 C303.04594,335.40523 303.04594,335.412579 303.053326,335.419928 C303.275807,335.538433 303.476133,335.701033 303.65338,335.884761 C303.838935,336.076758 304.002335,336.289883 304.157426,336.541591 C304.461145,337.049601 304.773174,337.729397 305.069508,338.562606 C305.30676,339.153293 305.484007,339.617208 305.61048,339.949757 C305.736953,340.281387 305.855118,340.539526 305.96682,340.724173 C306.05452,340.915251 306.121911,341.056722 306.180993,341.151342 C306.240999,341.256067 306.329622,341.373654 306.456095,341.505938 C306.507792,341.587697 306.57426,341.668538 306.648113,341.74203 C306.730274,341.831138 306.833668,341.911978 306.937985,342.000168 C307.026608,342.103056 307.144773,342.206863 307.285093,342.31067 C307.360792,342.362114 307.434645,342.406208 307.523269,342.457652 C307.604507,342.510015 307.701439,342.55411 307.797447,342.604635 L314.684224,341.934026 L313.053923,341.019976 Z M208.717404,343.232069 L209.800271,338.578223 L210.148303,337.021123 L211.430573,338.489114 L215.070595,342.620252 L208.717404,343.232069 Z M211.852457,331.62042 L205.662666,332.218457 L200,353 L206.470432,352.379916 L207.983492,346.330652 L217.553896,345.408334 L222.468803,350.830165 L229.067554,350.196301 L211.852457,331.62042 Z M273.324789,334.350628 C272.709964,334.859556 271.494162,335.198535 269.685691,335.375833 L263.910399,335.937124 L262.130546,329.917256 L267.364865,329.414759 C267.965843,329.355965 268.469888,329.311871 268.85577,329.289823 C269.240727,329.267776 269.596144,329.260426 269.907249,329.260426 C270.197122,329.281555 270.463915,329.311871 270.715015,329.355965 C270.967961,329.39363 271.264295,329.459772 271.597556,329.540613 C271.7388,329.584707 271.87912,329.651768 272.020364,329.732609 C272.272386,329.879592 272.540103,330.078937 272.814282,330.337076 C273.243551,330.750466 273.540809,331.20795 273.688515,331.730658 C274.058702,332.970826 273.933152,333.840781 273.324789,334.350628 L273.324789,334.350628 Z M280.04909,331.141807 C279.737985,330.100985 279.189628,329.208064 278.388324,328.477743 C278.069834,328.182858 277.692261,327.910021 277.246375,327.659232 C276.587238,327.283507 275.79332,326.943609 274.859082,326.656073 C273.910996,326.405284 272.828129,326.242684 271.620635,326.176542 C270.411295,326.102132 268.950855,326.154494 267.245778,326.317094 L254.917893,327.5049 L260.743959,347.156512 L267.060222,346.544695 L264.77817,338.85749 L271.041813,338.253023 C272.695194,338.090423 274.044854,337.86903 275.089872,337.581495 C276.13489,337.29396 277.016508,336.932933 277.736573,336.504846 C278.811132,335.833317 279.545045,335.044203 279.944773,334.151282 C280.345425,333.25928 280.374966,332.255203 280.04909,331.141807 L280.04909,331.141807 Z M245.154548,337.072567 C244.539723,337.581495 243.330383,337.921393 241.513603,338.097773 L235.746619,338.658145 L233.960304,332.646545 L239.201086,332.137617 C239.794678,332.077905 240.298724,332.041159 240.69199,332.011762 C241.076948,331.989715 241.425903,331.982366 241.737008,331.989715 C242.025957,332.011762 242.300136,332.041159 242.544773,332.077905 C242.804181,332.122 243.09313,332.181711 243.433777,332.263471 C243.575943,332.306647 243.707955,332.373708 243.850122,332.454548 C244.101222,332.60245 244.368015,332.800877 244.650502,333.067283 C245.080695,333.472405 245.368721,333.937238 245.53212,334.460865 C245.894922,335.692765 245.769373,336.570988 245.154548,337.072567 L245.154548,337.072567 Z M251.886234,333.863747 C251.574206,332.822924 251.018463,331.930003 250.225468,331.20795 C249.906055,330.913065 249.528482,330.63931 249.083519,330.38209 C248.423459,330.005446 247.623079,329.665548 246.696226,329.378013 C245.747217,329.127223 244.66435,328.972891 243.456856,328.898481 C242.248439,328.82499 240.787999,328.876434 239.082921,329.039034 L226.754113,330.234188 L232.581102,349.87937 L238.889981,349.266635 L236.61439,341.587697 L242.878034,340.974963 C244.524029,340.820631 245.87369,340.591888 246.918707,340.303435 C247.964648,340.015899 248.853652,339.661303 249.572794,339.226785 C250.647353,338.555257 251.381265,337.773492 251.781917,336.873221 C252.17426,335.9803 252.219495,334.978061 251.886234,333.863747 L251.886234,333.863747 Z M424.617865,324.479808 C424.521856,325.431522 424.195058,326.227986 423.645777,326.84807 C423.342057,327.187049 423.054031,327.459886 422.764159,327.667499 C422.467824,327.873275 422.119793,328.050574 421.704371,328.182858 C421.296334,328.322492 420.793211,328.434566 420.199619,328.521837 C419.599565,328.618295 418.872114,328.700054 418.020037,328.780895 L413.364539,329.238379 L409.346022,315.679208 L414.379092,315.192327 C417.019331,314.93327 419.132446,315.258469 420.703665,316.166089 C420.733206,316.180787 420.755362,316.194566 420.784903,316.210183 C422.371816,317.154548 423.505457,318.78514 424.195058,321.115737 C424.580939,322.399082 424.714797,323.520745 424.617865,324.479808 L424.617865,324.479808 Z M430.563942,320.282528 C430.096822,318.711648 429.31029,317.324497 428.20619,316.128424 C427.472277,315.331961 426.574965,314.631036 425.529024,314.026569 C425.002823,313.731684 424.439695,313.45058 423.838718,313.200709 C422.385663,312.602672 420.822752,312.234296 419.139831,312.086395 C417.448601,311.945842 415.543198,311.976158 413.401465,312.181934 L402.096442,313.2742 L407.922508,332.918463 L419.636491,331.78302 C421.86777,331.569895 423.676241,331.222648 425.077599,330.743116 C426.478957,330.270934 427.642139,329.570009 428.591148,328.640342 C429.770024,327.467235 430.511321,326.183891 430.815041,324.797659 C431.127069,323.40224 431.044908,321.897503 430.563942,320.282528 L430.563942,320.282528 Z M401.813955,330.351774 L386.023296,331.879478 L384.363453,326.287698 L398.930002,324.877581 L398.062231,321.978343 L383.503067,323.387542 L382.005701,318.327656 L397.58865,316.814651 L396.698723,313.797827 L374.755199,315.915299 L380.582188,335.559562 L402.733423,333.420961 L401.813955,330.351774 Z M364.613358,316.89641 L362.137442,329.592057 C362.078359,329.762006 362.025739,329.924605 361.988813,330.093636 C361.959272,330.263585 361.922345,330.426185 361.885419,330.595215 C361.855878,330.779862 361.833722,330.949811 361.811566,331.126191 C361.795872,331.296139 361.77464,331.46517 361.767254,331.62777 C361.66386,331.480787 361.55862,331.325536 361.447841,331.171204 C361.329676,331.023302 361.204126,330.87632 361.077654,330.721069 C360.943795,330.565818 360.825631,330.418835 360.707466,330.256236 C360.588378,330.093636 360.461905,329.931036 360.321585,329.769355 L350.713331,318.246815 L343.907792,318.902726 L360.254194,337.530051 L366.519684,336.917316 L371.249035,316.254278 L364.613358,316.89641 Z M337.68846,335.088298 C336.509584,336.47453 334.685419,337.285692 332.209503,337.530051 C329.733586,337.766142 327.554928,337.345404 325.670757,336.260486 C325.648601,336.253137 325.633831,336.239358 325.611675,336.232009 C323.713657,335.125044 322.424002,333.420961 321.742709,331.118841 C321.053108,328.795593 321.27559,326.93626 322.409231,325.557376 C323.53641,324.170225 325.418734,323.358145 328.05805,323.100006 C330.452728,322.871264 332.573228,323.292003 334.440781,324.362222 C334.478631,324.3907 334.52202,324.413666 334.567254,324.435713 C336.457887,325.571156 337.732772,327.253191 338.392831,329.489169 C339.089818,331.835383 338.859951,333.701147 337.68846,335.088298 L337.68846,335.088298 Z M344.760792,328.920529 C344.3306,327.445188 343.558837,326.109481 342.470431,324.921675 C341.527884,323.889121 340.416399,323.003549 339.134129,322.266797 C338.941189,322.15656 338.733478,322.045404 338.533152,321.941597 C336.998859,321.145134 335.264241,320.562714 333.336682,320.215467 C331.409123,319.86179 329.369861,319.794729 327.228129,320.002342 C325.004235,320.215467 323.047135,320.672951 321.370676,321.366527 C319.696063,322.052753 318.331631,322.916278 317.285691,323.948832 C316.263752,324.988736 315.581536,326.176542 315.24089,327.5049 C314.900244,328.839688 314.951018,330.248886 315.396904,331.738925 C315.840944,333.243663 316.597013,334.594068 317.678957,335.788304 C318.584577,336.79973 319.672984,337.662336 320.934021,338.392657 C321.163888,338.518511 321.40114,338.651714 321.638392,338.769301 C323.194841,339.543717 324.94423,340.105008 326.90133,340.436638 C328.851968,340.768268 330.927233,340.82798 333.12897,340.613017 C335.279011,340.407241 337.169644,339.957106 338.815639,339.27088 C340.468096,338.584653 341.817757,337.722048 342.862774,336.688574 C343.885636,335.641321 344.567852,334.460865 344.908498,333.140775 C345.250067,331.819766 345.205756,330.411486 344.760792,328.920529 L344.760792,328.920529 Z"/>
      <path stroke="#121212" d="M302.726527,330.292981 C302.660059,330.676974 302.437578,330.993906 302.05262,331.244695 C301.681509,331.510183 301.125767,331.716878 300.368775,331.872129 C299.6284,332.026461 298.664621,332.158745 297.477437,332.269901 L291.828618,332.815575 L290.167852,327.201747 L296.721368,326.566965 C298.648927,326.383236 300.020744,326.44203 300.844203,326.745182 C300.977138,326.795707 301.102688,326.855419 301.221775,326.921561 C301.852294,327.283507 302.303719,327.92472 302.571436,328.847037 C302.748683,329.430375 302.80038,329.917256 302.726527,330.292981 Z M313.053923,341.019976 C313.046538,341.019976 313.046538,341.011708 313.039152,341.004359 C313.002226,340.99058 312.964376,340.960264 312.92745,340.915251 C312.905294,340.901471 312.890524,340.878505 312.867445,340.857376 C312.846212,340.835329 312.824056,340.805014 312.793592,340.775617 C312.697583,340.658031 312.586804,340.495431 312.467716,340.303435 C312.201846,339.898313 311.903665,339.285578 311.578713,338.473498 C311.385772,338.016932 311.229758,337.647637 311.103285,337.360102 C310.977735,337.079916 310.889112,336.858523 310.836492,336.681225 C310.747868,336.497496 310.688786,336.349595 310.636166,336.245788 C310.599239,336.1429 310.562313,336.040012 310.532772,335.929775 C310.288134,335.509036 310.028726,335.161789 309.747162,334.881603 C309.465598,334.594068 309.101873,334.277136 308.657833,333.929889 C308.568286,333.893143 308.464892,333.840781 308.345805,333.774638 C308.22764,333.715845 308.079011,333.642354 307.915612,333.561513 C307.73098,333.479754 307.508498,333.391564 307.285093,333.280408 C307.056149,333.170171 306.774586,333.044317 306.447787,332.897334 C307.553733,332.055857 308.294108,331.252045 308.679066,330.477629 C309.057561,329.709643 309.124952,328.898481 308.864621,328.035875 C308.560901,327.01067 307.945153,326.132447 307.026608,325.415905 C306.751507,325.20278 306.447787,325.003435 306.121911,324.811438 C305.359381,324.369571 304.43899,324.000276 303.386587,323.705392 C302.63698,323.47665 301.718436,323.350796 300.629106,323.30762 C299.546239,323.262606 298.360901,323.30762 297.062937,323.431636 L282.918273,324.797659 L288.744339,344.441921 L295.098452,343.829187 L292.674233,335.670718 L298.657236,335.095647 C299.731794,334.99184 300.606027,334.955095 301.295628,334.984491 C301.636274,334.99919 301.955688,335.044203 302.24556,335.110345 C302.393266,335.147091 302.533586,335.191186 302.667445,335.243549 C302.733912,335.264677 302.80038,335.294074 302.866847,335.324389 C302.926853,335.346437 302.97855,335.375833 303.037632,335.40523 C303.04594,335.40523 303.04594,335.412579 303.053326,335.419928 C303.275807,335.538433 303.476133,335.701033 303.65338,335.884761 C303.838935,336.076758 304.002335,336.289883 304.157426,336.541591 C304.461145,337.049601 304.773174,337.729397 305.069508,338.562606 C305.30676,339.153293 305.484007,339.617208 305.61048,339.949757 C305.736953,340.281387 305.855118,340.539526 305.96682,340.724173 C306.05452,340.915251 306.121911,341.056722 306.180993,341.151342 C306.240999,341.256067 306.329622,341.373654 306.456095,341.505938 C306.507792,341.587697 306.57426,341.668538 306.648113,341.74203 C306.730274,341.831138 306.833668,341.911978 306.937985,342.000168 C307.026608,342.103056 307.144773,342.206863 307.285093,342.31067 C307.360792,342.362114 307.434645,342.406208 307.523269,342.457652 C307.604507,342.510015 307.701439,342.55411 307.797447,342.604635 L314.684224,341.934026 L313.053923,341.019976 Z M208.717404,343.232069 L209.800271,338.578223 L210.148303,337.021123 L211.430573,338.489114 L215.070595,342.620252 L208.717404,343.232069 Z M211.852457,331.62042 L205.662666,332.218457 L200,353 L206.470432,352.379916 L207.983492,346.330652 L217.553896,345.408334 L222.468803,350.830165 L229.067554,350.196301 L211.852457,331.62042 Z M273.324789,334.350628 C272.709964,334.859556 271.494162,335.198535 269.685691,335.375833 L263.910399,335.937124 L262.130546,329.917256 L267.364865,329.414759 C267.965843,329.355965 268.469888,329.311871 268.85577,329.289823 C269.240727,329.267776 269.596144,329.260426 269.907249,329.260426 C270.197122,329.281555 270.463915,329.311871 270.715015,329.355965 C270.967961,329.39363 271.264295,329.459772 271.597556,329.540613 C271.7388,329.584707 271.87912,329.651768 272.020364,329.732609 C272.272386,329.879592 272.540103,330.078937 272.814282,330.337076 C273.243551,330.750466 273.540809,331.20795 273.688515,331.730658 C274.058702,332.970826 273.933152,333.840781 273.324789,334.350628 Z M280.04909,331.141807 C279.737985,330.100985 279.189628,329.208064 278.388324,328.477743 C278.069834,328.182858 277.692261,327.910021 277.246375,327.659232 C276.587238,327.283507 275.79332,326.943609 274.859082,326.656073 C273.910996,326.405284 272.828129,326.242684 271.620635,326.176542 C270.411295,326.102132 268.950855,326.154494 267.245778,326.317094 L254.917893,327.5049 L260.743959,347.156512 L267.060222,346.544695 L264.77817,338.85749 L271.041813,338.253023 C272.695194,338.090423 274.044854,337.86903 275.089872,337.581495 C276.13489,337.29396 277.016508,336.932933 277.736573,336.504846 C278.811132,335.833317 279.545045,335.044203 279.944773,334.151282 C280.345425,333.25928 280.374966,332.255203 280.04909,331.141807 Z M245.154548,337.072567 C244.539723,337.581495 243.330383,337.921393 241.513603,338.097773 L235.746619,338.658145 L233.960304,332.646545 L239.201086,332.137617 C239.794678,332.077905 240.298724,332.041159 240.69199,332.011762 C241.076948,331.989715 241.425903,331.982366 241.737008,331.989715 C242.025957,332.011762 242.300136,332.041159 242.544773,332.077905 C242.804181,332.122 243.09313,332.181711 243.433777,332.263471 C243.575943,332.306647 243.707955,332.373708 243.850122,332.454548 C244.101222,332.60245 244.368015,332.800877 244.650502,333.067283 C245.080695,333.472405 245.368721,333.937238 245.53212,334.460865 C245.894922,335.692765 245.769373,336.570988 245.154548,337.072567 Z M251.886234,333.863747 C251.574206,332.822924 251.018463,331.930003 250.225468,331.20795 C249.906055,330.913065 249.528482,330.63931 249.083519,330.38209 C248.423459,330.005446 247.623079,329.665548 246.696226,329.378013 C245.747217,329.127223 244.66435,328.972891 243.456856,328.898481 C242.248439,328.82499 240.787999,328.876434 239.082921,329.039034 L226.754113,330.234188 L232.581102,349.87937 L238.889981,349.266635 L236.61439,341.587697 L242.878034,340.974963 C244.524029,340.820631 245.87369,340.591888 246.918707,340.303435 C247.964648,340.015899 248.853652,339.661303 249.572794,339.226785 C250.647353,338.555257 251.381265,337.773492 251.781917,336.873221 C252.17426,335.9803 252.219495,334.978061 251.886234,333.863747 Z M424.617865,324.479808 C424.521856,325.431522 424.195058,326.227986 423.645777,326.84807 C423.342057,327.187049 423.054031,327.459886 422.764159,327.667499 C422.467824,327.873275 422.119793,328.050574 421.704371,328.182858 C421.296334,328.322492 420.793211,328.434566 420.199619,328.521837 C419.599565,328.618295 418.872114,328.700054 418.020037,328.780895 L413.364539,329.238379 L409.346022,315.679208 L414.379092,315.192327 C417.019331,314.93327 419.132446,315.258469 420.703665,316.166089 C420.733206,316.180787 420.755362,316.194566 420.784903,316.210183 C422.371816,317.154548 423.505457,318.78514 424.195058,321.115737 C424.580939,322.399082 424.714797,323.520745 424.617865,324.479808 Z M430.563942,320.282528 C430.096822,318.711648 429.31029,317.324497 428.20619,316.128424 C427.472277,315.331961 426.574965,314.631036 425.529024,314.026569 C425.002823,313.731684 424.439695,313.45058 423.838718,313.200709 C422.385663,312.602672 420.822752,312.234296 419.139831,312.086395 C417.448601,311.945842 415.543198,311.976158 413.401465,312.181934 L402.096442,313.2742 L407.922508,332.918463 L419.636491,331.78302 C421.86777,331.569895 423.676241,331.222648 425.077599,330.743116 C426.478957,330.270934 427.642139,329.570009 428.591148,328.640342 C429.770024,327.467235 430.511321,326.183891 430.815041,324.797659 C431.127069,323.40224 431.044908,321.897503 430.563942,320.282528 Z M401.813955,330.351774 L386.023296,331.879478 L384.363453,326.287698 L398.930002,324.877581 L398.062231,321.978343 L383.503067,323.387542 L382.005701,318.327656 L397.58865,316.814651 L396.698723,313.797827 L374.755199,315.915299 L380.582188,335.559562 L402.733423,333.420961 L401.813955,330.351774 Z M364.613358,316.89641 L362.137442,329.592057 C362.078359,329.762006 362.025739,329.924605 361.988813,330.093636 C361.959272,330.263585 361.922345,330.426185 361.885419,330.595215 C361.855878,330.779862 361.833722,330.949811 361.811566,331.126191 C361.795872,331.296139 361.77464,331.46517 361.767254,331.62777 C361.66386,331.480787 361.55862,331.325536 361.447841,331.171204 C361.329676,331.023302 361.204126,330.87632 361.077654,330.721069 C360.943795,330.565818 360.825631,330.418835 360.707466,330.256236 C360.588378,330.093636 360.461905,329.931036 360.321585,329.769355 L350.713331,318.246815 L343.907792,318.902726 L360.254194,337.530051 L366.519684,336.917316 L371.249035,316.254278 L364.613358,316.89641 Z M337.68846,335.088298 C336.509584,336.47453 334.685419,337.285692 332.209503,337.530051 C329.733586,337.766142 327.554928,337.345404 325.670757,336.260486 C325.648601,336.253137 325.633831,336.239358 325.611675,336.232009 C323.713657,335.125044 322.424002,333.420961 321.742709,331.118841 C321.053108,328.795593 321.27559,326.93626 322.409231,325.557376 C323.53641,324.170225 325.418734,323.358145 328.05805,323.100006 C330.452728,322.871264 332.573228,323.292003 334.440781,324.362222 C334.478631,324.3907 334.52202,324.413666 334.567254,324.435713 C336.457887,325.571156 337.732772,327.253191 338.392831,329.489169 C339.089818,331.835383 338.859951,333.701147 337.68846,335.088298 Z M344.760792,328.920529 C344.3306,327.445188 343.558837,326.109481 342.470431,324.921675 C341.527884,323.889121 340.416399,323.003549 339.134129,322.266797 C338.941189,322.15656 338.733478,322.045404 338.533152,321.941597 C336.998859,321.145134 335.264241,320.562714 333.336682,320.215467 C331.409123,319.86179 329.369861,319.794729 327.228129,320.002342 C325.004235,320.215467 323.047135,320.672951 321.370676,321.366527 C319.696063,322.052753 318.331631,322.916278 317.285691,323.948832 C316.263752,324.988736 315.581536,326.176542 315.24089,327.5049 C314.900244,328.839688 314.951018,330.248886 315.396904,331.738925 C315.840944,333.243663 316.597013,334.594068 317.678957,335.788304 C318.584577,336.79973 319.672984,337.662336 320.934021,338.392657 C321.163888,338.518511 321.40114,338.651714 321.638392,338.769301 C323.194841,339.543717 324.94423,340.105008 326.90133,340.436638 C328.851968,340.768268 330.927233,340.82798 333.12897,340.613017 C335.279011,340.407241 337.169644,339.957106 338.815639,339.27088 C340.468096,338.584653 341.817757,337.722048 342.862774,336.688574 C343.885636,335.641321 344.567852,334.460865 344.908498,333.140775 C345.250067,331.819766 345.205756,330.411486 344.760792,328.920529 Z"/>
      <path fill="#0048FA" d="M454.649132,344.073643 C462.782556,343.281999 468.244465,338.816313 466.851112,334.096894 L457.801686,303.388842 C457.258905,301.542594 455.745752,299.931626 453.617939,298.701717 C450.307803,296.789037 445.509396,295.797175 440.558015,296.278805 L166.742851,322.924374 C158.614033,323.714173 153.147517,328.181705 154.54087,332.902046 L163.590296,363.609176 C164.13492,365.456346 165.648073,367.067315 167.775886,368.297224 C171.086022,370.210826 175.885351,371.201765 180.838575,370.721058 L454.649132,344.073643 L454.649132,344.073643 Z M473.752451,335.540861 C475.346698,340.959658 469.073843,346.084125 459.739664,346.992947 L175.606127,374.861967 C169.923051,375.413719 167.379628,374.276076 163.580159,372.08014 C161.137183,370.667544 159.399177,368.817605 158.773458,366.69825 L148.384128,331.453466 C146.789881,326.040205 150.098174,320.913893 159.431431,320.004148 L443.570497,292.138818 C449.25173,291.585221 454.758794,292.722864 458.557341,294.918801 C461.001239,296.330474 462.73648,298.180412 463.358513,300.299768 L473.752451,335.540861 Z"/>
      <path stroke="#121212" d="M454.649132,344.073643 C462.782556,343.281999 468.244465,338.816313 466.851112,334.096894 L457.801686,303.388842 C457.258905,301.542594 455.745752,299.931626 453.617939,298.701717 C450.307803,296.789037 445.509396,295.797175 440.558015,296.278805 L166.742851,322.924374 C158.614033,323.714173 153.147517,328.181705 154.54087,332.902046 L163.590296,363.609176 C164.13492,365.456346 165.648073,367.067315 167.775886,368.297224 C171.086022,370.210826 175.885351,371.201765 180.838575,370.721058 L454.649132,344.073643 L454.649132,344.073643 Z M473.752451,335.540861 C475.346698,340.959658 469.073843,346.084125 459.739664,346.992947 L175.606127,374.861967 C169.923051,375.413719 167.379628,374.276076 163.580159,372.08014 C161.137183,370.667544 159.399177,368.817605 158.773458,366.69825 L148.384128,331.453466 C146.789881,326.040205 150.098174,320.913893 159.431431,320.004148 L443.570497,292.138818 C449.25173,291.585221 454.758794,292.722864 458.557341,294.918801 C461.001239,296.330474 462.73648,298.180412 463.358513,300.299768 L473.752451,335.540861 Z"/>
      <path fill="#FFF" d="M96.9863671,206.870236 C86.9075944,212.686218 83.8803687,221.796664 90.5752835,229.544551 L131.781494,277.216626 C140.136084,286.883519 160.455819,290.769439 177.176057,285.899602 L428.284666,212.770054 C431.596644,211.804562 434.518816,210.568217 437.010633,209.130113 C447.088484,203.31321 450.121239,194.203685 443.426324,186.455798 L402.221035,138.782802 C393.865523,129.11683 373.545789,125.23091 356.826472,130.099826 L105.717863,203.230295 C102.404042,204.194866 99.4791056,205.432132 96.9863671,206.870236"/>
      <path stroke="#171717" d="M96.9863671,206.870236 C86.9075944,212.686218 83.8803687,221.796664 90.5752835,229.544551 L131.781494,277.216626 C140.136084,286.883519 160.455819,290.769439 177.176057,285.899602 L428.284666,212.770054 C431.596644,211.804562 434.518816,210.568217 437.010633,209.130113 C447.088484,203.31321 450.121239,194.203685 443.426324,186.455798 L402.221035,138.782802 C393.865523,129.11683 373.545789,125.23091 356.826472,130.099826 L105.717863,203.230295 C102.404042,204.194866 99.4791056,205.432132 96.9863671,206.870236 Z"/>
      <path fill="#FFF" d="M90.5734863,229.356037 L131.766691,276.983424 C140.118644,286.640336 160.431965,290.523533 177.146926,285.658261 L428.176277,212.597264 C431.48721,211.632677 434.408459,210.39657 436.899489,208.960735 C443.33895,205.245972 446.900461,200.188335 446.885721,195 L447,235.242961 C447.014694,240.431296 443.453184,245.488933 437.013723,249.202776 C434.522693,250.639531 431.601444,251.876559 428.290511,252.840225 L177.26116,325.902143 C160.546199,330.766494 140.232877,326.884217 131.880924,317.227305 L90.6877199,269.598998 C88.2713099,266.804642 87.1225248,263.832647 87.1142336,260.902071 L87,220.65911 C87.0082912,223.589686 88.1570762,226.561681 90.5734863,229.356037"/>
      <path stroke="#171717" d="M90.5734863,229.356037 L131.766691,276.983424 C140.118644,286.640336 160.431965,290.523533 177.146926,285.658261 L428.176277,212.597264 C431.48721,211.632677 434.408459,210.39657 436.899489,208.960735 C443.33895,205.245972 446.900461,200.188335 446.885721,195 L447,235.242961 C447.014694,240.431296 443.453184,245.488933 437.013723,249.202776 C434.522693,250.639531 431.601444,251.876559 428.290511,252.840225 L177.26116,325.902143 C160.546199,330.766494 140.232877,326.884217 131.880924,317.227305 L90.6877199,269.598998 C88.2713099,266.804642 87.1225248,263.832647 87.1142336,260.902071 L87,220.65911 C87.0082912,223.589686 88.1570762,226.561681 90.5734863,229.356037 Z"/>
      <path fill="#FFF" d="M105.734086,192.844623 C96.9193938,197.94517 94.2717605,205.936427 100.126412,212.731305 L136.166663,254.542672 C143.47461,263.020795 161.246837,266.428859 175.870103,262.157924 L419.630222,191.348918 C422.527597,190.502676 425.083075,189.418082 427.261636,188.157034 C436.07725,183.054639 438.730413,175.06523 432.873918,168.269428 L396.833667,126.458061 C389.526641,117.979938 371.754415,114.57095 357.130227,118.841885 L113.370108,189.651815 C110.472732,190.498057 107.913569,191.583574 105.734086,192.844623"/>
      <path stroke="#171717" d="M105.734086,192.844623 C96.9193938,197.94517 94.2717605,205.936427 100.126412,212.731305 L136.166663,254.542672 C143.47461,263.020795 161.246837,266.428859 175.870103,262.157924 L419.630222,191.348918 C422.527597,190.502676 425.083075,189.418082 427.261636,188.157034 C436.07725,183.054639 438.730413,175.06523 432.873918,168.269428 L396.833667,126.458061 C389.526641,117.979938 371.754415,114.57095 357.130227,118.841885 L113.370108,189.651815 C110.472732,190.498057 107.913569,191.583574 105.734086,192.844623 Z"/>
      <path fill="#FFF" d="M100.125922,211.909075 L136.155562,253.810218 C143.461357,262.306545 161.228351,265.721926 175.847311,261.441821 L419.535658,190.479851 C422.43218,189.631792 424.986906,188.545795 427.164825,187.281114 C432.797565,184.013865 435.914275,179.563408 435.900455,175 L436,189.711413 C436.013774,194.275748 432.897064,198.726205 427.265245,201.993453 C425.087326,203.257209 422.531679,204.344131 419.636078,205.193116 L175.947732,276.15416 C161.328771,280.434265 143.560856,277.017958 136.255982,268.521631 L100.225421,226.621415 C98.1119918,224.162414 97.1077904,221.547875 97.1004201,218.969443 L97,204.257104 C97.0073703,206.836462 98.0124929,209.451001 100.125922,211.909075"/>
      <path stroke="#171717" d="M100.125922,211.909075 L136.155562,253.810218 C143.461357,262.306545 161.228351,265.721926 175.847311,261.441821 L419.535658,190.479851 C422.43218,189.631792 424.986906,188.545795 427.164825,187.281114 C432.797565,184.013865 435.914275,179.563408 435.900455,175 L436,189.711413 C436.013774,194.275748 432.897064,198.726205 427.265245,201.993453 C425.087326,203.257209 422.531679,204.344131 419.636078,205.193116 L175.947732,276.15416 C161.328771,280.434265 143.560856,277.017958 136.255982,268.521631 L100.225421,226.621415 C98.1119918,224.162414 97.1077904,221.547875 97.1004201,218.969443 L97,204.257104 C97.0073703,206.836462 98.0124929,209.451001 100.125922,211.909075 Z"/>
      <path fill="#FFF" d="M216,184.268798 L216.098655,189.879731 C216.118939,196.809968 220.711457,203.730149 229.88635,209.016512 C248.358765,219.662382 278.40237,219.659639 296.990957,209.017427 C306.346564,203.660664 311.020218,196.63077 311,189.611847 L310.901279,184 C310.920642,191.019837 306.247909,198.048817 296.890458,203.406494 C278.302793,214.047792 248.259188,214.051449 229.786774,203.406494 C220.61188,198.118302 216.019362,191.199036 216,184.268798"/>
      <path stroke="#171717" d="M216,184.268798 L216.098655,189.879731 C216.118939,196.809968 220.711457,203.730149 229.88635,209.016512 C248.358765,219.662382 278.40237,219.659639 296.990957,209.017427 C306.346564,203.660664 311.020218,196.63077 311,189.611847 L310.901279,184 C310.920642,191.019837 306.247909,198.048817 296.890458,203.406494 C278.302793,214.047792 248.259188,214.051449 229.786774,203.406494 C220.61188,198.118302 216.019362,191.199036 216,184.268798 Z"/>
      <path fill="#FFF" d="M230.020619,165.054361 C211.412636,175.7932 211.313879,193.207261 229.801875,203.945178 C248.293564,214.686786 278.368516,214.683096 296.975575,203.945178 C315.589096,193.204493 315.686931,175.79689 297.194319,165.055283 C278.708169,154.316443 248.633216,154.313676 230.020619,165.054361"/>
      <path stroke="#171717" d="M230.020619,165.054361 C211.412636,175.7932 211.313879,193.207261 229.801875,203.945178 C248.293564,214.686786 278.368516,214.683096 296.975575,203.945178 C315.589096,193.204493 315.686931,175.79689 297.194319,165.055283 C278.708169,154.316443 248.633216,154.313676 230.020619,165.054361 Z"/>
      <path fill="#FFF" d="M222,151.237716 L222.086832,181.980135 C222.103459,188.118961 226.116189,194.246645 234.131487,198.929462 C250.27016,208.358239 276.5201,208.355453 292.760385,198.929462 C300.934567,194.185359 305.016577,187.959246 305,181.742419 L304.913118,151 C304.929745,157.216827 300.847735,163.443869 292.673554,168.187972 C276.433268,177.613034 250.184253,177.61582 234.044655,168.187972 C226.029357,163.505155 222.017551,157.375614 222,151.237716"/>
      <path stroke="#171717" d="M222,151.237716 L222.086832,181.980135 C222.103459,188.118961 226.116189,194.246645 234.131487,198.929462 C250.27016,208.358239 276.5201,208.355453 292.760385,198.929462 C300.934567,194.185359 305.016577,187.959246 305,181.742419 L304.913118,151 C304.929745,157.216827 300.847735,163.443869 292.673554,168.187972 C276.433268,177.613034 250.184253,177.61582 234.044655,168.187972 C226.029357,163.505155 222.017551,157.375614 222,151.237716 Z"/>
      <path fill="#FFF" d="M234.249277,135.02875 C217.992105,144.399648 217.906108,159.598967 234.057863,168.970788 C250.214242,178.344455 276.49055,178.341686 292.747721,168.970788 C309.009516,159.596197 309.094588,144.403341 292.93821,135.029674 C276.787379,125.658776 250.511071,125.655083 234.249277,135.02875"/>
      <path stroke="#171717" d="M234.249277,135.02875 C217.992105,144.399648 217.906108,159.598967 234.057863,168.970788 C250.214242,178.344455 276.49055,178.341686 292.747721,168.970788 C309.009516,159.596197 309.094588,144.403341 292.93821,135.029674 C276.787379,125.658776 250.511071,125.655083 234.249277,135.02875 Z"/>
      <path fill="#FFF" d="M210,53.1522034 C210,23.5333443 234.385813,-0.427277366 264.298459,0.00577915058 C292.800708,0.418607974 316.232374,23.4119782 316.981069,51.7215538 C317.344774,65.4745461 312.446326,78.080996 304.144044,87.7057001 C296.10922,97.0196332 292.298184,109.207738 294.104678,121.341595 L298.046203,147.814128 C298.330318,148.793333 298.480242,149.782651 298.485795,150.772888 C298.512633,155.702009 295.070856,160.640325 288.159537,164.402676 C274.453507,171.864855 252.298048,171.866694 238.676235,164.402676 C229.920479,159.605035 226.833152,152.89036 229.381862,146.723672 L233.067961,121.966815 C234.871678,109.852266 231.465993,97.4269454 223.32289,88.2343784 C215.031714,78.8772316 210,66.6008609 210,53.1522034"/>
      <path stroke="#171717" d="M210,53.1522034 C210,23.5333443 234.385813,-0.427277366 264.298459,0.00577915058 C292.800708,0.418607974 316.232374,23.4119782 316.981069,51.7215538 C317.344774,65.4745461 312.446326,78.080996 304.144044,87.7057001 C296.10922,97.0196332 292.298184,109.207738 294.104678,121.341595 L298.046203,147.814128 C298.330318,148.793333 298.480242,149.782651 298.485795,150.772888 C298.512633,155.702009 295.070856,160.640325 288.159537,164.402676 C274.453507,171.864855 252.298048,171.866694 238.676235,164.402676 C229.920479,159.605035 226.833152,152.89036 229.381862,146.723672 L233.067961,121.966815 C234.871678,109.852266 231.465993,97.4269454 223.32289,88.2343784 C215.031714,78.8772316 210,66.6008609 210,53.1522034 Z"/>
      <path fill="#FFF" d="M72.5107621,61.8678222 C75.2370677,60.976777 74.8300056,60.6609998 74.8300056,60.6609998 C74.67104,59.8558154 72.1863988,60.3690727 70.0343907,60.977731 L70.0196887,60.8975942 C70.0196887,60.8975942 72.5300585,59.7041279 71.8114973,59 C71.8114973,59 70.7740861,58.9514141 67.6232596,61.4461499 C67.6232596,61.4461499 67.3466779,61.6617561 66.9405346,61.9651312 C66.9019418,61.9823034 66.8725377,61.9908895 66.8725377,61.9908895 L66.8817265,62.0099697 C66.3772635,62.3810795 65.6816742,62.8704866 65.0292721,63.2587686 C63.6812807,63.5106272 62.3369649,63.7395896 61,63.9418397 L62.5538196,69 C63.3247568,68.6813607 64.0910995,68.3426872 64.8491724,67.9849335 C65.0366231,67.8943026 65.2259116,67.8008096 65.4124435,67.7092246 C67.6250973,66.9536488 70.08401,66.6674459 72.3545531,66.2142912 C72.5732456,66.1761308 72.7956137,66.1322463 73.0207383,66.0874079 C73.6823292,65.9548005 74.3402446,65.8021589 74.9761069,65.5760586 C75.2085826,65.4911517 75.6487243,65.3757165 75.754395,65.0952376 C75.761746,65.0704334 75.7681782,65.0456291 75.7672593,65.0179628 C75.7213155,64.5915204 75.0431848,64.452235 74.1040934,64.4732232 C76.3268549,63.7987382 75.9804386,63.5382935 75.9804386,63.5382935 C75.9216305,63.1223452 75.1038307,63.0717827 74.0269078,63.2072521 C76.2827488,62.4926987 75.9225494,62.1540252 75.9225494,62.1540252 C75.7929878,61.4308857 74.2290605,61.5339188 72.5107621,61.8678222"/>
      <path stroke="#171717" d="M72.5107621,61.8678222 C75.2370677,60.976777 74.8300056,60.6609998 74.8300056,60.6609998 C74.67104,59.8558154 72.1863988,60.3690727 70.0343907,60.977731 L70.0196887,60.8975942 C70.0196887,60.8975942 72.5300585,59.7041279 71.8114973,59 C71.8114973,59 70.7740861,58.9514141 67.6232596,61.4461499 C67.6232596,61.4461499 67.3466779,61.6617561 66.9405346,61.9651312 C66.9019418,61.9823034 66.8725377,61.9908895 66.8725377,61.9908895 L66.8817265,62.0099697 C66.3772635,62.3810795 65.6816742,62.8704866 65.0292721,63.2587686 C63.6812807,63.5106272 62.3369649,63.7395896 61,63.9418397 L62.5538196,69 C63.3247568,68.6813607 64.0910995,68.3426872 64.8491724,67.9849335 C65.0366231,67.8943026 65.2259116,67.8008096 65.4124435,67.7092246 C67.6250973,66.9536488 70.08401,66.6674459 72.3545531,66.2142912 C72.5732456,66.1761308 72.7956137,66.1322463 73.0207383,66.0874079 C73.6823292,65.9548005 74.3402446,65.8021589 74.9761069,65.5760586 C75.2085826,65.4911517 75.6487243,65.3757165 75.754395,65.0952376 C75.761746,65.0704334 75.7681782,65.0456291 75.7672593,65.0179628 C75.7213155,64.5915204 75.0431848,64.452235 74.1040934,64.4732232 C76.3268549,63.7987382 75.9804386,63.5382935 75.9804386,63.5382935 C75.9216305,63.1223452 75.1038307,63.0717827 74.0269078,63.2072521 C76.2827488,62.4926987 75.9225494,62.1540252 75.9225494,62.1540252 C75.7929878,61.4308857 74.2290605,61.5339188 72.5107621,61.8678222 Z"/>
      <path fill="#FFF" d="M7.69118706,135 L14.4620384,135.074491 C14.4620384,135.074491 14.8846824,138.794393 14.4620384,141.38203 C14.4620384,141.38203 11.956567,157.633208 12.3915579,172.477434 C12.9443192,175.109765 14.7336703,181.720856 19,183.37456 C19,183.37456 16.4375428,185.477073 13.2501425,181.972264 C13.2501425,181.972264 11.6925332,182.715313 10.4122544,179.963796 C10.1653164,179.433046 9.06929133,178.277502 8.84609732,177.693678 L7.81465608,175.920788 L7.77096704,174.370441 C7.33502641,170.688715 4.06309724,151.475582 7.69118706,135"/>
      <path stroke="#171717" d="M7.69118706,135 L14.4620384,135.074491 C14.4620384,135.074491 14.8846824,138.794393 14.4620384,141.38203 C14.4620384,141.38203 11.956567,157.633208 12.3915579,172.477434 C12.9443192,175.109765 14.7336703,181.720856 19,183.37456 C19,183.37456 16.4375428,185.477073 13.2501425,181.972264 C13.2501425,181.972264 11.6925332,182.715313 10.4122544,179.963796 C10.1653164,179.433046 9.06929133,178.277502 8.84609732,177.693678 L7.81465608,175.920788 L7.77096704,174.370441 C7.33502641,170.688715 4.06309724,151.475582 7.69118706,135 Z"/>
      <path fill="#FFF" d="M19.8986052,134.696778 L26.7455039,132 C26.7455039,132 27.1425546,135.649604 26.7455039,138.187425 C26.7455039,138.187425 24.3979195,154.131488 24.8056532,168.696101 C25.3237776,171.278687 27.0010052,177.763927 31,179.386379 C31,179.386379 28.5972202,181.449159 25.6095473,178.010584 C25.6095473,178.010584 24.1495402,178.740504 22.9503759,176.040072 C22.7189114,175.520266 21.691565,174.385646 21.4814665,173.812855 L20.5146569,172.073469 L20.5582791,170.556074 C20.1496552,166.943013 17.7130459,146.962004 19.8986052,134.696778"/>
      <path stroke="#171717" d="M19.8986052,134.696778 L26.7455039,132 C26.7455039,132 27.1425546,135.649604 26.7455039,138.187425 C26.7455039,138.187425 24.3979195,154.131488 24.8056532,168.696101 C25.3237776,171.278687 27.0010052,177.763927 31,179.386379 C31,179.386379 28.5972202,181.449159 25.6095473,178.010584 C25.6095473,178.010584 24.1495402,178.740504 22.9503759,176.040072 C22.7189114,175.520266 21.691565,174.385646 21.4814665,173.812855 L20.5146569,172.073469 L20.5582791,170.556074 C20.1496552,166.943013 17.7130459,146.962004 19.8986052,134.696778 Z"/>
      <path fill="#FFF" d="M33,88 C33,88 30.5406267,120.771917 27.3771365,134.805613 C27.3771365,134.805613 18.5504951,141.757733 11.8536015,141.996448 C8.64158302,142.110296 6,139.472494 6,136.24984 L6,97.8644443 L33,88 Z"/>
      <path stroke="#171717" d="M33,88 C33,88 30.5406267,120.771917 27.3771365,134.805613 C27.3771365,134.805613 18.5504951,141.757733 11.8536015,141.996448 C8.64158302,142.110296 6,139.472494 6,136.24984 L6,97.8644443 L33,88 Z"/>
      <polygon fill="#FFF" points="17.57 56.022 21.734 56.022 29.326 51 33 91.52 24.918 95.691 17.57 99.415 13.161 100 12 56.022"/>
      <polygon stroke="#3DC4BD" stroke-linecap="round" stroke-linejoin="round" stroke-width="2" points="17.57 56.022 21.734 56.022 29.326 51 33 91.52 24.918 95.691 17.57 99.415 13.161 100 12 56.022"/>
      <path fill="#FFF" d="M31.0778159,88 C31.0778159,88 24.5708256,96.5607823 12,98.1842995 L12,100.989059 C12,100.989059 21.7604854,101.726184 33,91.0996095 L31.0778159,88 Z"/>
      <path stroke="#171717" d="M31.0778159,88 C31.0778159,88 24.5708256,96.5607823 12,98.1842995 L12,100.989059 C12,100.989059 21.7604854,101.726184 33,91.0996095 L31.0778159,88 Z"/>
      <path fill="#0A0A0A" d="M35.6703807,52.2248704 C37.0586834,56.0534082 40.7956325,63.7550774 48.8093745,65.6047787 C48.860655,65.6168561 48.9165974,65.6177851 48.9697426,65.6066367 L64.1291877,62.5436207 C64.3389716,62.5027433 64.5347698,62.6513883 64.5450259,62.8632074 C64.5981711,63.980832 64.8443175,67.1943512 65.9566379,69.3078973 C66.0461457,69.47791 65.9948652,69.6748647 65.8233086,69.7612646 C64.1935214,70.5834572 56.2021564,74.3692596 48.0038046,73.9707052 C48.0038046,73.9707052 40.901923,73.7746796 35.1417254,66.7307646 C35.0895126,66.6675905 35.0596767,66.5849067 35.0596767,66.5031519 L35,52.3512187 C34.9981401,51.9647416 35.5379838,51.8606901 35.6703807,52.2248704"/>
      <path fill="#FFF" d="M21.3015285,56.1868997 L23.7248726,59 C23.7248726,59 25.8517832,56.0774107 26,52.2308874 L24.8133395,49 L20,51.3079139 L21.3015285,56.1868997 Z"/>
      <path stroke="#171717" d="M21.3015285,56.1868997 L23.7248726,59 C23.7248726,59 25.8517832,56.0774107 26,52.2308874 L24.8133395,49 L20,51.3079139 L21.3015285,56.1868997 Z"/>
      <path fill="#0A0A0A" d="M24,47.6822928 C24,47.6822928 33.2674756,42.3653592 35.0419414,50.6362472 L38,99.3331633 L34.9542337,99.9333582 C32.8769454,100.341786 30.9169085,98.8242423 30.7987338,96.7129578 C30.3075706,87.9018022 28.850699,62.3017857 25.7744658,53.3929026 L24,47.6822928 Z"/>
      <path fill="#FFF" d="M10.104346,34.1652466 C10.104346,34.1652466 11.0916106,26.0994854 21.753699,27.0831822 C21.753699,27.0831822 30.5882386,27.6533211 28.747748,43.7839224 C28.747748,43.7839224 28.2541157,48.3781918 22.2103551,50.238742 C22.4479273,52.8352226 21.1611554,56 21.1611554,56 L14.2503028,56 L13.2639626,46.7543552 C13.2639626,46.7543552 9.31490402,41.4425767 10.104346,34.1652466"/>
      <path stroke="#171717" d="M10.104346,34.1652466 C10.104346,34.1652466 11.0916106,26.0994854 21.753699,27.0831822 C21.753699,27.0831822 30.5882386,27.6533211 28.747748,43.7839224 C28.747748,43.7839224 28.2541157,48.3781918 22.2103551,50.238742 C22.4479273,52.8352226 21.1611554,56 21.1611554,56 L14.2503028,56 L13.2639626,46.7543552 C13.2639626,46.7543552 9.31490402,41.4425767 10.104346,34.1652466 Z"/>
      <path fill="#FFF" d="M14.3068363,50 C14.3068363,50 13.4213806,53.0397442 22,55.7149383 L20.103405,60 C20.103405,60 10.8992022,56.1955231 12.1097345,52.3901325 L14.3068363,50 Z"/>
      <path stroke="#171717" d="M14.3068363,50 C14.3068363,50 13.4213806,53.0397442 22,55.7149383 L20.103405,60 C20.103405,60 10.8992022,56.1955231 12.1097345,52.3901325 L14.3068363,50 Z"/>
      <path fill="#FFF" d="M23.8418113,109.776254 C25.6377358,111.937281 25.7491321,111.441789 25.7491321,111.441789 C26.3695094,110.984193 24.9856604,108.899906 23.6461887,107.156684 L23.7086792,107.113104 C23.7086792,107.113104 25.6784906,108.96054 26,108.028295 C26,108.028295 25.6431698,107.056259 22.3284528,105.122609 C22.3284528,105.122609 22.0395472,104.952077 21.629283,104.696278 C21.5975849,104.665961 21.5803774,104.643223 21.5803774,104.643223 L21.5667925,104.659329 C21.0605283,104.339107 20.381283,103.888143 19.802566,103.439074 C19.0735094,102.296506 18.365283,101.150148 17.6833208,100 L14,103.376545 C14.5642264,103.96204 15.1438491,104.537114 15.7361509,105.095135 C15.8837736,105.232508 16.0359245,105.370829 16.1844528,105.50536 C17.6706415,107.246688 18.8525283,109.397293 20.1050566,111.307258 C20.2218868,111.493896 20.3432453,111.680535 20.4664151,111.870015 C20.8323019,112.428036 21.2135849,112.97374 21.6473962,113.469232 C21.8086038,113.651134 22.0748679,114.010199 22.352,113.999778 C22.3755472,113.996936 22.3990943,113.993146 22.4226415,113.98083 C22.7658868,113.776191 22.6236981,113.098797 22.2469434,112.24424 C23.6679245,114.026305 23.7548679,113.607553 23.7548679,113.607553 C24.0845283,113.392492 23.8155472,112.623201 23.2884528,111.685272 C24.7556226,113.481548 24.9050566,113.020163 24.9050566,113.020163 C25.466566,112.623201 24.7809811,111.225781 23.8418113,109.776254"/>
      <path stroke="#171717" d="M23.8418113,109.776254 C25.6377358,111.937281 25.7491321,111.441789 25.7491321,111.441789 C26.3695094,110.984193 24.9856604,108.899906 23.6461887,107.156684 L23.7086792,107.113104 C23.7086792,107.113104 25.6784906,108.96054 26,108.028295 C26,108.028295 25.6431698,107.056259 22.3284528,105.122609 C22.3284528,105.122609 22.0395472,104.952077 21.629283,104.696278 C21.5975849,104.665961 21.5803774,104.643223 21.5803774,104.643223 L21.5667925,104.659329 C21.0605283,104.339107 20.381283,103.888143 19.802566,103.439074 C19.0735094,102.296506 18.365283,101.150148 17.6833208,100 L14,103.376545 C14.5642264,103.96204 15.1438491,104.537114 15.7361509,105.095135 C15.8837736,105.232508 16.0359245,105.370829 16.1844528,105.50536 C17.6706415,107.246688 18.8525283,109.397293 20.1050566,111.307258 C20.2218868,111.493896 20.3432453,111.680535 20.4664151,111.870015 C20.8323019,112.428036 21.2135849,112.97374 21.6473962,113.469232 C21.8086038,113.651134 22.0748679,114.010199 22.352,113.999778 C22.3755472,113.996936 22.3990943,113.993146 22.4226415,113.98083 C22.7658868,113.776191 22.6236981,113.098797 22.2469434,112.24424 C23.6679245,114.026305 23.7548679,113.607553 23.7548679,113.607553 C24.0845283,113.392492 23.8155472,112.623201 23.2884528,111.685272 C24.7556226,113.481548 24.9050566,113.020163 24.9050566,113.020163 C25.466566,112.623201 24.7809811,111.225781 23.8418113,109.776254 Z"/>
      <path fill="#0A0A0A" d="M13.3208638,48 C13.3208638,48 2.3463636,53.1446949 3.03112554,62.9525524 L3,105.953666 C3,105.953666 13.0727749,109.637991 15.3486014,103.17952 C15.3486014,103.17952 16.8142483,70.0873953 15.3486014,64.6374516 C15.3486014,64.6374516 12.3678729,51.9710179 13.3208638,48"/>
      <path fill="#0A0A0A" d="M4.79247223 57C4.79247223 57 8.88211659 59.4644045 8.94862989 66.3603413L8.13661331 83.566299C8.03499577 85.7394806 8.70659537 87.8787779 10.0350138 89.6096306L20 102.592857C20 102.592857 19.2138497 107.044537 14.7851723 107L1.98043757 90.747048C.672342607 89.0867116-.0260470782 87.0362464.00074300229 84.9308336.0977415696 77.2409025.750865257 58.6035572 4.79247223 57M9.00139186 40.4387583C10.895868 49.9373022 19.8640513 47.792381 19.8640513 47.792381 16.174071 45.0495595 18.7669544 41.6015458 18.7669544 41.6015458 20.9742199 39.4502054 21.8621681 36.6285198 22.1432116 34.0498458 23.1964246 35.0851669 24.7687745 35.9939386 27.1067579 36.2708801 27.1067579 36.2708801 27.0778132 35.7353375 26.8882722 34.980626 28.5577268 35.9535895 29.9806848 36.2708801 29.9806848 36.2708801 30.4643411 27.6334225 21.7043729 27.1639058 21.7043729 27.1639058 8.5942989 25.2684153 9.00139186 40.4387583 9.00139186 40.4387583M19.1814 170.040449C20.1887688 169.818914 20.7044238 170.535427 21.0745903 171.504065 21.272565 172.023144 21.8176859 172.999197 22.0340769 173.475637 23.2734903 176.21563 24.8241384 177.568015 24.8241384 177.568015 27.9143848 181.056964 30.3996575 178.963965 30.3996575 178.963965 30.3996575 178.963965 32.2956102 179.290243 32.8582266 180.606478 32.8582266 180.606478 33.7716725 183.145329 30.9613531 183.838669 30.9613531 183.838669 26.5350079 184.849946 24.2173231 181.808701L21.1869294 176.770859 20.7744055 180.604625 19.6510144 180.605551 19 170.088649C19.0598528 170.070111 19.1206264 170.054353 19.1814 170.040449M7.18140004 174.040183C8.18876881 173.819584 8.70442375 174.53514 9.07459034 175.503736 9.272565 176.023719 9.81768594 176.99973 10.0340769 177.47615 11.2734903 180.215098 12.8241384 181.568351 12.8241384 181.568351 15.9143848 185.05715 18.3996575 182.964242 18.3996575 182.964242 18.3996575 182.964242 20.2956102 183.289579 20.8582266 184.606684 20.8582266 184.606684 21.7716725 187.145425 18.9613531 187.838735 18.9613531 187.838735 14.5350079 188.849968 12.2173231 185.807928L9.18692945 180.770303 8.77440549 184.603903 7.65101437 184.605757 7 174.089308C7.05985281 174.069844 7.12062642 174.054087 7.18140004 174.040183"/>
      <polygon fill="#FFF" points="71.585 46 68 80.206 90.067 82 93 47.847"/>
      <polygon stroke="#171717" points="71.585 46 68 80.206 90.067 82 93 47.847"/>
      <g transform="translate(76 52)">
        <line x1=".141" x2="13.342" y1=".819" y2="1.888" fill="#FFF"/>
        <line x1=".141" x2="13.342" y1=".819" y2="1.888" stroke="#171717"/>
      </g>
      <g transform="translate(75 57)">
        <line x1=".355" x2="13.557" y1=".666" y2="1.734" fill="#FFF"/>
        <line x1=".355" x2="13.557" y1=".666" y2="1.734" stroke="#171717"/>
      </g>
      <g transform="translate(74 61)">
        <line x1=".918" x2="14.178" y1=".54" y2="1.608" fill="#FFF"/>
        <line x1=".918" x2="14.178" y1=".54" y2="1.608" stroke="#171717"/>
      </g>
      <g transform="translate(74 66)">
        <line x1=".569" x2="13.771" y1=".417" y2="1.485" fill="#FFF"/>
        <line x1=".569" x2="13.771" y1=".417" y2="1.485" stroke="#171717"/>
      </g>
      <g transform="translate(73 72)">
        <line x1=".378" x2="13.58" y1=".117" y2="1.186" fill="#FFF"/>
        <line x1=".378" x2="13.58" y1=".117" y2="1.186" stroke="#171717"/>
      </g>
    </g>
  </g>
</svg>
