<svg xmlns="http://www.w3.org/2000/svg" xmlns:xlink="http://www.w3.org/1999/xlink" width="343" height="103" viewBox="0 0 343 103">
    <defs>
        <path id="prefix__a" d="M0 0.409L156.881 0.409 156.881 103 0 103z"/>
    </defs>
    <g fill="none" fill-rule="evenodd">
        <mask id="prefix__b" fill="#fff">
            <use xlink:href="#prefix__a"/>
        </mask>
        <path fill="#B5C1C9" d="M124.967 8.639c5.59 0 10.125 4.525 10.125 10.105 0 5.581-4.534 10.107-10.125 10.107-5.593 0-10.125-4.526-10.125-10.107 0-5.58 4.532-10.105 10.125-10.105zM110.09 62.065v9.467c-34.982 8.954-41.896-8.536-41.896-19.988 0-11.45 12.474-25.04 41.696-17.876l.2 10.233c-20.905-5.372-23.96 5.089-23.96 9.104 0 4.017 4.103 15.713 23.96 9.06zm6.093 11.576V32.37h16.87v39.94l23.828-7.687L128.684.41 0 7.61 25.211 71V31.82h17.733c2.013.077 4.71.302 7.285.552 11.396 1.105 16.284 7.216 16.284 15.33 0 8.113-10.691 13.667-21.105 13.667-1.194 0-2.3-.027-3.325-.074V73.64H26.262L37.939 103l90.994-29.36h-12.75z" mask="url(#prefix__b)"/>
        <path fill="#B5C1C9" d="M51 47.155c0-2.745-1.662-4.595-5.534-4.968-.875-.085-1.791-.162-2.475-.187H42v10c.565.003 1.511-.008 1.829-.008 3.537 0 7.171-2.093 7.171-4.837M171.485 48.33c.86.553 2.118 1.014 3.441 1.014 1.963 0 3.111-1.083 3.111-2.648 0-1.45-.794-2.28-2.802-3.084-2.426-.899-3.926-2.211-3.926-4.4 0-2.416 1.919-4.212 4.809-4.212 1.522 0 2.625.37 3.287.76l-.53 1.635c-.485-.276-1.478-.737-2.824-.737-2.029 0-2.8 1.266-2.8 2.325 0 1.45.903 2.164 2.955 2.993C178.72 42.99 180 44.255 180 46.535c0 2.393-1.698 4.465-5.206 4.465-1.434 0-3-.437-3.794-.99l.485-1.68zM190.009 43.487c.024-1.219-.539-3.113-2.857-3.113-2.084 0-2.997 1.785-3.161 3.113h6.018zm-6.042 1.373c.048 2.592 1.826 3.66 3.888 3.66 1.475 0 2.364-.24 3.138-.545l.35 1.372c-.725.305-1.966.653-3.769.653-3.49 0-5.574-2.133-5.574-5.314 0-3.18 2.015-5.686 5.316-5.686 3.7 0 4.684 3.029 4.684 4.967 0 .392-.047.697-.07.893h-7.963zM201.952 49.39c-.541.261-1.743.61-3.274.61-3.44 0-5.678-2.16-5.678-5.39 0-3.253 2.403-5.61 6.126-5.61 1.225 0 2.308.284 2.874.546l-.471 1.484c-.495-.26-1.273-.502-2.403-.502-2.615 0-4.03 1.79-4.03 3.995 0 2.443 1.698 3.95 3.96 3.95 1.177 0 1.954-.284 2.543-.524l.353 1.441zM212.913 47.823c0 1.11.021 2.088.087 2.933h-1.704l-.11-1.757h-.042c-.503.867-1.617 2.001-3.496 2.001-1.66 0-3.648-.932-3.648-4.712V40h1.922v5.956c0 2.044.612 3.423 2.36 3.423 1.288 0 2.185-.912 2.534-1.78.11-.288.174-.643.174-1V40h1.923v7.823zM216.082 42.6c0-1.266-.02-2.355-.082-3.354h1.584l.062 2.11h.082c.453-1.444 1.544-2.356 2.757-2.356.206 0 .35.022.515.067v1.845c-.185-.045-.37-.068-.618-.068-1.275 0-2.18 1.045-2.427 2.512-.042.267-.083.578-.083.91V50h-1.79v-7.4zM223.202 50h1.614V39.246h-1.614V50zm1.797-13.777c.018.667-.386 1.2-1.027 1.2-.568 0-.972-.533-.972-1.2 0-.688.422-1.223 1.009-1.223.604 0 .99.535.99 1.223zM231.366 36v3.075H234v1.481h-2.634v5.773c0 1.327.355 2.08 1.38 2.08.48 0 .836-.067 1.066-.133l.084 1.46c-.356.154-.92.264-1.631.264-.858 0-1.547-.287-1.986-.818-.523-.575-.71-1.526-.71-2.786v-5.84H228v-1.48h1.568V36.51l1.798-.51zM237.11 39l2.33 6.49c.242.727.505 1.59.68 2.247h.045c.198-.658.418-1.497.681-2.293l2.11-6.444H245l-2.901 7.83c-1.384 3.767-2.33 5.695-3.648 6.876-.945.862-1.89 1.203-2.374 1.294l-.483-1.68c.483-.158 1.12-.477 1.692-.974.527-.432 1.187-1.204 1.627-2.226.087-.204.153-.362.153-.476 0-.113-.044-.273-.132-.522L235 39h2.11zM171.485 72.33c.86.553 2.118 1.014 3.441 1.014 1.963 0 3.111-1.083 3.111-2.648 0-1.452-.794-2.28-2.802-3.085-2.426-.898-3.926-2.21-3.926-4.399 0-2.416 1.919-4.212 4.809-4.212 1.522 0 2.625.369 3.287.76l-.53 1.635c-.485-.276-1.478-.737-2.824-.737-2.029 0-2.8 1.266-2.8 2.325 0 1.45.903 2.163 2.955 2.993C178.72 66.99 180 68.255 180 70.535c0 2.394-1.698 4.465-5.206 4.465-1.434 0-3-.437-3.794-.99l.485-1.68zM185.366 60v3.075H188v1.481h-2.634v5.773c0 1.327.355 2.08 1.38 2.08.48 0 .836-.068 1.066-.133l.083 1.459c-.355.155-.92.265-1.63.265-.858 0-1.547-.288-1.986-.818-.523-.576-.71-1.526-.71-2.786v-5.84H182v-1.48h1.568V60.51l1.798-.51zM195.832 68.392c-2.238-.044-4.78.325-4.78 2.37 0 1.238.886 1.824 1.935 1.824 1.47 0 2.402-.868 2.729-1.76.069-.194.116-.413.116-.61v-1.824zm.303 5.369l-.163-1.325h-.07c-.63.826-1.843 1.564-3.452 1.564-2.285 0-3.45-1.5-3.45-3.022 0-2.544 2.425-3.935 6.785-3.913v-.217c0-.87-.255-2.435-2.565-2.435-1.049 0-2.145.305-2.937.783l-.467-1.26c.933-.566 2.285-.936 3.708-.936 3.45 0 4.29 2.196 4.29 4.304v3.935c0 .914.046 1.804.186 2.522h-1.865zM201.087 66.156c0-1.11-.021-2.022-.087-2.91h1.688l.108 1.777h.043C203.36 64 204.57 63 206.301 63c1.45 0 3.699.89 3.699 4.578V74h-1.903v-6.199c0-1.734-.628-3.178-2.424-3.178-1.255 0-2.228.911-2.553 2-.086.244-.13.577-.13.91V74h-1.903v-7.844zM219.987 67.388c0-.244-.022-.578-.087-.822-.285-1.243-1.335-2.263-2.78-2.263-1.991 0-3.173 1.775-3.173 4.148 0 2.176 1.051 3.973 3.13 3.973 1.291 0 2.473-.865 2.823-2.33.065-.265.087-.532.087-.843v-1.863zM221.913 58v12.983c0 .953.022 2.04.087 2.773h-1.728l-.088-1.865h-.043c-.591 1.2-1.882 2.109-3.611 2.109-2.56 0-4.53-2.196-4.53-5.458-.022-3.574 2.166-5.77 4.748-5.77 1.62 0 2.714.777 3.196 1.642h.043V58h1.926zM231.832 68.392c-2.239-.044-4.78.325-4.78 2.37 0 1.238.886 1.824 1.935 1.824 1.469 0 2.402-.868 2.729-1.76.069-.194.116-.413.116-.61v-1.824zm.303 5.369l-.163-1.325h-.07c-.63.826-1.843 1.564-3.452 1.564-2.285 0-3.45-1.5-3.45-3.022 0-2.544 2.425-3.935 6.785-3.913v-.217c0-.87-.255-2.435-2.565-2.435-1.049 0-2.145.305-2.937.783l-.468-1.26c.934-.566 2.286-.936 3.708-.936 3.451 0 4.291 2.196 4.291 4.304v3.935c0 .914.046 1.804.186 2.522h-1.865zM237.083 66.6c0-1.266-.02-2.355-.083-3.355h1.585l.062 2.112h.082c.453-1.445 1.543-2.357 2.757-2.357.206 0 .35.022.514.067v1.845c-.185-.046-.37-.068-.617-.068-1.275 0-2.18 1.045-2.428 2.512-.041.267-.082.578-.082.91V74h-1.79v-7.4zM250.987 67.388c0-.244-.022-.578-.088-.822-.284-1.243-1.335-2.263-2.778-2.263-1.992 0-3.174 1.775-3.174 4.148 0 2.176 1.05 3.973 3.13 3.973 1.29 0 2.473-.865 2.822-2.33.066-.265.088-.532.088-.843v-1.863zM252.913 58v12.983c0 .953.021 2.04.087 2.773h-1.728l-.088-1.865h-.044c-.59 1.2-1.881 2.109-3.61 2.109-2.56 0-4.53-2.196-4.53-5.458-.022-3.574 2.166-5.77 4.748-5.77 1.62 0 2.714.777 3.195 1.642h.044V58h1.926zM256.486 71.822c.574.37 1.59.763 2.561.763 1.414 0 2.076-.697 2.076-1.569 0-.915-.552-1.416-1.988-1.938-1.92-.675-2.826-1.721-2.826-2.985 0-1.7 1.391-3.093 3.688-3.093 1.082 0 2.031.305 2.627.654l-.485 1.394c-.42-.261-1.193-.61-2.186-.61-1.149 0-1.79.653-1.79 1.438 0 .87.641 1.263 2.032 1.786 1.855.697 2.805 1.61 2.805 3.18 0 1.852-1.458 3.158-3.997 3.158-1.17 0-2.252-.284-3.003-.718l.486-1.46zM282.978 74.263c-.687.37-2.062.737-3.824.737-4.082 0-7.154-2.762-7.154-7.85 0-4.857 3.072-8.15 7.563-8.15 1.805 0 2.943.414 3.437.69l-.451 1.635c-.709-.368-1.72-.644-2.922-.644-3.395 0-5.65 2.326-5.65 6.4 0 3.798 2.04 6.24 5.564 6.24 1.139 0 2.3-.253 3.051-.646l.386 1.588zM286.07 68.522c0 2.304 1.419 4.045 3.418 4.045 1.954 0 3.419-1.719 3.419-4.088 0-1.783-.954-4.044-3.372-4.044-2.419 0-3.465 2.087-3.465 4.087m8.93-.11c0 3.892-2.884 5.588-5.604 5.588-3.047 0-5.396-2.087-5.396-5.413 0-3.52 2.465-5.587 5.582-5.587 3.232 0 5.418 2.196 5.418 5.413M306.913 70.823c0 1.11.022 2.088.087 2.932h-1.704L305.187 72h-.043c-.503.866-1.617 2-3.495 2-1.661 0-3.649-.933-3.649-4.712V63h1.923v5.956c0 2.043.612 3.423 2.36 3.423 1.287 0 2.184-.912 2.534-1.78.108-.289.174-.643.174-1V63h1.922v7.823zM310.086 66.156c0-1.11-.022-2.022-.086-2.91h1.688l.108 1.777h.043C312.359 64 313.57 63 315.3 63c1.45 0 3.699.89 3.699 4.578V74h-1.903v-6.199c0-1.734-.628-3.178-2.424-3.178-1.255 0-2.228.911-2.553 2-.087.244-.13.577-.13.91V74h-1.904v-7.844zM329.952 73.39c-.541.261-1.743.61-3.275.61-3.439 0-5.677-2.16-5.677-5.39 0-3.253 2.403-5.61 6.126-5.61 1.225 0 2.308.283 2.874.545l-.472 1.485c-.494-.261-1.272-.502-2.402-.502-2.615 0-4.03 1.789-4.03 3.994 0 2.444 1.697 3.95 3.96 3.95 1.177 0 1.954-.284 2.543-.524l.353 1.442zM332.201 74h1.615V63.246H332.2V74zM334 60.223c.018.666-.385 1.2-1.027 1.2-.568 0-.972-.534-.972-1.2 0-.688.422-1.223 1.008-1.223.606 0 .991.535.991 1.223zM337 74L339 74 339 58 337 58zM332.054 35.768L330 35.768 330 35 335 35 335 35.768 332.936 35.768 332.936 42 332.054 42zM341.963 38.926c-.051-.977-.112-2.15-.103-3.023h-.03c-.233.821-.519 1.693-.864 2.66l-1.212 3.394h-.67l-1.11-3.332c-.325-.988-.6-1.891-.794-2.722h-.02c-.02.873-.07 2.046-.132 3.095L336.845 42H336l.479-7h1.128l1.17 3.386c.286.861.52 1.63.693 2.358h.03c.173-.707.417-1.476.723-2.358l1.22-3.386h1.13l.427 7h-.864l-.173-3.074z"/>
    </g>
</svg>
