<svg height="72" viewBox="0 0 90 72" width="90" xmlns="http://www.w3.org/2000/svg"><g fill="#0049f8" fill-rule="evenodd" transform="translate(0 5)"><path d="m52.08 22.485c-.827-1.086-1.887-1.958-3.095-2.56.474-.737.75-1.613.75-2.552v-.795c0-2.617-2.138-4.746-4.766-4.746s-4.766 2.129-4.766 4.746v.795c0 .939.276 1.814.75 2.552-1.208.602-2.268 1.474-3.095 2.56-.875-1.33-1.386-2.918-1.386-4.623 0-4.665 3.812-8.46 8.497-8.46s8.497 3.795 8.497 8.46c0 1.705-.51 3.293-1.386 4.623m-8.73-5.112v-.795c0-.889.726-1.612 1.62-1.612.892 0 1.619.723 1.619 1.612v.795c0 .89-.727 1.613-1.62 1.613s-1.62-.724-1.62-1.613m1.62 8.95c-1.815 0-3.498-.571-4.88-1.54 1.05-1.646 2.865-2.664 4.88-2.664 2.016 0 3.83 1.018 4.88 2.663-1.382.97-3.065 1.541-4.88 1.541m0-20.055c-6.42 0-11.644 5.2-11.644 11.594 0 3.298 1.392 6.277 3.62 8.39.057.063.118.122.185.176 2.071 1.88 4.823 3.029 7.84 3.029 3.016 0 5.768-1.149 7.838-3.03.067-.053.128-.112.185-.175 2.228-2.113 3.62-5.092 3.62-8.39 0-6.393-5.223-11.594-11.644-11.594m9.307 26.949h-18.252c-.87 0-1.574.702-1.574 1.567s.705 1.567 1.574 1.567h18.252c.87 0 1.574-.702 1.574-1.567s-.705-1.567-1.574-1.567m-6.031 6.894h-12.221c-.87 0-1.574.702-1.574 1.567s.705 1.567 1.574 1.567h12.221c.869 0 1.574-.702 1.574-1.567s-.705-1.567-1.574-1.567"/><path d="m86.792 54.196c0 2.679-2.188 4.857-4.878 4.857h-73.89c-2.69 0-4.877-2.178-4.877-4.857v-.47h83.645zm-74.709-41.386c0-.67.551-1.215 1.228-1.215h9.314v38.855h-10.542zm13.69 20.622v-30.299h38.392v47.317h-38.393v-17.019zm41.54-21.837h9.314c.677 0 1.228.545 1.228 1.215v37.64h-10.542v-38.856zm21.052 38.999h-7.363v-37.785c0-2.398-1.962-4.349-4.375-4.349h-9.314v-5.326c0-1.728-1.412-3.134-3.147-3.134h-38.393c-1.735 0-3.147 1.406-3.147 3.134v5.326h-9.316c-2.412 0-4.375 1.951-4.375 4.349v37.784h-7.362c-.868 0-1.573.702-1.573 1.567v2.036c0 4.406 3.6 7.99 8.025 7.99h73.889c4.425 0 8.024-3.584 8.024-7.99v-2.036c0-.865-.704-1.567-1.573-1.567z"/></g></svg>