<svg height="72" viewBox="0 0 75 72" width="75" xmlns="http://www.w3.org/2000/svg" xmlns:xlink="http://www.w3.org/1999/xlink"><mask id="a" fill="#fff"><path d="m0 .096h44.756v38.087h-44.756z" fill="#fff" fill-rule="evenodd"/></mask><mask id="b" fill="#fff"><path d="m0 .097h44.756v38.086h-44.756z" fill="#fff" fill-rule="evenodd"/></mask><g fill="none" fill-rule="evenodd"><path d="m0 0h75v72h-75z"/><g fill="#0049f8"><path d="m40.905 19.39c0 7.158-5.815 12.981-12.962 12.981h-9.904c-1.413 0-2.815-.21-4.166-.625-.457-.14-.95-.105-1.384.099l-2.916 1.373v-2.723c0-.568-.25-1.107-.683-1.474-3.202-2.709-5.04-6.667-5.04-10.859v-1.227c0-7.158 5.816-12.982 12.963-12.982h11.13c7.147 0 12.962 5.824 12.962 12.982zm-12.962-19.294h-11.13c-9.271 0-16.813 7.554-16.813 16.839v1.227c0 5.025 2.074 9.784 5.722 13.198v4.895c0 .66.337 1.274.893 1.628.314.2.672.3 1.033.3.278 0 .558-.06.819-.183l5.01-2.358c1.488.39 3.02.586 4.562.586h9.904c9.271 0 16.813-7.553 16.813-16.838v-2.455c0-9.285-7.542-16.839-16.813-16.839z" mask="url(#a)" transform="translate(0 .096)"/><path d="m3.851 16.935c0-7.158 5.815-12.982 12.962-12.982h11.13c7.148 0 12.962 5.824 12.962 12.982v1.227c0 4.192-1.836 8.15-5.038 10.86-.433.366-.683.905-.683 1.472v2.724l-2.917-1.373c-.433-.204-.927-.24-1.384-.099-1.35.415-2.752.626-4.165.626h-9.905c-7.147 0-12.962-5.824-12.962-12.982v-2.455zm-3.85 0v2.455c0 9.285 7.541 16.838 16.812 16.838h9.904c1.542 0 3.074-.197 4.562-.586l5.011 2.358c.26.123.54.184.82.184.36 0 .718-.102 1.032-.3.557-.355.894-.969.894-1.629v-4.895c3.647-3.414 5.721-8.173 5.721-13.198v-1.227c-.001-9.285-7.543-16.838-16.814-16.838h-11.13c-9.27 0-16.813 7.553-16.813 16.838z" mask="url(#b)" transform="translate(29.846 33.652)"/><path d="m7.72 3.413c-.133-1.815-1.674-3.279-3.585-3.403-1.082-.071-2.115.275-2.907.977-.78.693-1.228 1.671-1.228 2.685 0 .479.409.867.913.867s.913-.388.913-.867c0-.543.23-1.046.647-1.417.418-.37.964-.553 1.538-.515 1.006.065 1.818.836 1.887 1.793.07.966-.597 1.82-1.586 2.03-.8.17-1.36.831-1.36 1.608v2.084c0 .479.408.867.912.867.505 0 .913-.388.913-.867v-2.015c1.84-.422 3.073-2.02 2.942-3.827m-3.224 8.757c-.166-.166-.396-.262-.63-.262-.235 0-.465.096-.631.262s-.261.397-.261.631c0 .236.095.467.26.633.167.166.397.26.631.26.235 0 .465-.094.63-.26.167-.167.262-.397.262-.633 0-.234-.095-.465-.261-.631" stroke="#0049f8" transform="translate(19.322 11.61)"/><path d="m60.41 47.733h-16.48c-.785 0-1.422.577-1.422 1.29 0 .712.637 1.29 1.421 1.29h16.48c.785 0 1.422-.578 1.422-1.29 0-.713-.637-1.29-1.421-1.29m-5.183 6.45h-11.267c-.8 0-1.45.578-1.45 1.29 0 .713.65 1.29 1.45 1.29h11.268c.801 0 1.451-.577 1.451-1.29 0-.712-.65-1.29-1.45-1.29"/></g></g></svg>