<svg height="72" viewBox="0 0 70 72" width="70" xmlns="http://www.w3.org/2000/svg"><path d="m1265.916 931.395-.005-.031-2.993-16.392c-.504-2.97-3.052-5.124-6.066-5.124h-11.51v-2.188c0-5.732-3.364-10.69-8.234-12.989 1.302-1.452 2.095-3.369 2.095-5.468 0-4.523-3.68-8.203-8.203-8.203s-8.203 3.68-8.203 8.203c0 2.1.793 4.016 2.095 5.468-4.87 2.3-8.247 7.257-8.247 12.99v2.187h-11.496c-3.014 0-5.563 2.153-6.066 5.123l-2.994 16.392-.005.032c-.586 3.514 2.048 6.786 5.594 7.132-.922 1.911-1.44 4.056-1.44 6.32v4.102c0 1.133.919 2.051 2.051 2.051h24.61c1.132 0 2.037-.918 2.037-2.05v-4.102c0-2.253-.498-4.4-1.41-6.303h6.949c-.912 1.903-1.424 4.05-1.424 6.303v4.101c0 1.133.918 2.051 2.05 2.051h24.61c1.133 0 2.037-.918 2.037-2.05v-4.102c0-2.265-.504-4.41-1.425-6.32 3.545-.347 6.179-3.62 5.593-7.133zm-34.916-46.293c2.262 0 4.102 1.84 4.102 4.101 0 2.262-1.84 4.102-4.102 4.102-2.261 0-4.101-1.84-4.101-4.102 0-2.261 1.84-4.101 4.101-4.101zm-10.267 22.558c0-5.654 4.613-10.254 10.267-10.254s10.254 4.6 10.254 10.254v2.188h-20.521zm4.115 39.238h-20.522v-2.05c0-5.73 4.614-10.391 10.268-10.391s10.254 4.661 10.254 10.39zm-14.356-20.644c0-2.262 1.84-4.102 4.102-4.102 2.261 0 4.101 1.84 4.101 4.102s-1.84 4.101-4.101 4.101c-2.262 0-4.102-1.84-4.102-4.101zm47.168 20.644h-20.521v-2.05c0-5.73 4.613-10.391 10.267-10.391s10.254 4.661 10.254 10.39zm-14.355-20.644c0-2.262 1.84-4.102 4.101-4.102 2.262 0 4.102 1.84 4.102 4.102s-1.84 4.101-4.102 4.101c-2.261 0-4.101-1.84-4.101-4.101zm16.406 8.203h-2.309c-1.134-1.112-2.449-2.037-3.895-2.726 1.306-1.453 2.102-3.374 2.102-5.477 0-4.523-3.68-8.203-8.203-8.203s-8.203 3.68-8.203 8.203c0 2.103.797 4.024 2.103 5.477-1.447.689-2.762 1.614-3.896 2.726h-12.82c-1.135-1.112-2.45-2.037-3.896-2.726 1.306-1.453 2.103-3.374 2.103-5.477 0-4.523-3.68-8.203-8.204-8.203-4.523 0-8.203 3.68-8.203 8.203 0 2.103.797 4.024 2.103 5.477-1.446.689-2.76 1.614-3.895 2.726h-2.309c-1.288 0-2.357-1.153-2.162-2.375l2.993-16.388.006-.031c.165-.993 1.016-1.714 2.023-1.714h51.703c1.006 0 1.857.72 2.023 1.714l.005.031 2.992 16.388c.196 1.22-.872 2.375-2.161 2.375z" fill="#0049f8" stroke="#fff" stroke-width=".5" transform="translate(-1196 -880)"/></svg>