<svg height="72" viewBox="0 0 54 72" width="54" xmlns="http://www.w3.org/2000/svg"><g fill="#0049f8" fill-rule="evenodd" stroke="#fff" stroke-width=".8"><path d="m36.574 30.638c-1.113-1.468-2.54-2.647-4.168-3.461.64-.998 1.012-2.182 1.012-3.451v-1.076c0-3.539-2.88-6.418-6.418-6.418-3.539 0-6.418 2.88-6.418 6.418v1.075c0 1.27.372 2.453 1.011 3.45-1.627.815-3.054 1.994-4.168 3.462-1.177-1.798-1.865-3.945-1.865-6.25 0-6.31 5.132-11.441 11.44-11.441s11.44 5.132 11.44 11.44c0 2.306-.688 4.453-1.866 6.25m-11.754-6.909v-1.077c0-1.202.978-2.18 2.18-2.18s2.18.978 2.18 2.18v1.075c0 1.202-.978 2.18-2.18 2.18s-2.18-.978-2.18-2.18m2.18 12.102c-2.444 0-4.71-.772-6.57-2.083 1.413-2.224 3.856-3.6 6.57-3.6s5.157 1.376 6.57 3.6c-1.86 1.31-4.126 2.083-6.57 2.083m0-27.117c-8.645 0-15.677 7.032-15.677 15.677 0 4.46 1.874 8.486 4.873 11.344.077.085.159.166.25.238 2.787 2.543 6.493 4.096 10.554 4.096s7.766-1.553 10.554-4.096c.091-.072.173-.153.25-.238 2.999-2.858 4.873-6.885 4.873-11.344 0-8.645-7.033-15.677-15.677-15.677"/><path d="m4.286 67.143v-62.866h45.428l.003 62.866zm23.762 4.276h21.666c2.363 0 4.286-1.918 4.286-4.276v-62.866c0-2.359-1.923-4.277-4.286-4.277h-45.428c-2.363 0-4.286 1.918-4.286 4.277v62.866c0 2.358 1.923 4.276 4.286 4.276z"/><path d="m39.693 45.29h-24.515c-1.167 0-2.113.975-2.113 2.178 0 1.202.946 2.177 2.113 2.177h24.515c1.167 0 2.113-.975 2.113-2.177 0-1.203-.946-2.178-2.113-2.178m-8.721 9.581h-15.782c-1.173 0-2.124.975-2.124 2.177 0 1.203.95 2.178 2.124 2.178h15.783c1.174 0 2.125-.975 2.125-2.178 0-1.202-.951-2.177-2.125-2.177"/></g></svg>