<svg height="72" viewBox="0 0 68 72" width="68" xmlns="http://www.w3.org/2000/svg"><path d="m1484.23 897.102h-14.652v-5.904c0-2.812-2.287-5.099-5.098-5.099h-14.96c-2.811 0-5.098 2.287-5.098 5.099v5.904h-14.653c-3.732 0-6.769 3.037-6.769 6.77v34.622c0 3.733 3.037 6.77 6.77 6.77h54.46c3.733 0 6.77-3.037 6.77-6.77v-34.623c0-3.732-3.037-6.77-6.77-6.77zm-35.49-5.904c0-.43.35-.78.78-.78h14.96c.43 0 .78.35.78.78v5.904h-16.52zm-21.422 12.673c0-1.351 1.1-2.45 2.451-2.45h54.462c1.351 0 2.45 1.099 2.45 2.45v3.196c0 2.997-2.01 5.676-4.887 6.514l-22.584 6.575c-1.446.421-2.974.421-4.42 0l-22.584-6.575c-2.878-.838-4.888-3.517-4.888-6.514zm56.913 37.074h-54.462c-1.351 0-2.45-1.099-2.45-2.45v-22.636c1.088.84 2.328 1.474 3.68 1.868 24.947 7.264 23.665 7.064 26 7.064 2.368 0 1.026.208 26.002-7.064 1.352-.394 2.592-1.027 3.68-1.868v22.635c0 1.352-1.099 2.451-2.45 2.451z" fill="#0049f8" stroke="#fff" stroke-width=".8" transform="translate(-1423 -880)"/></svg>