<svg height="72" viewBox="0 0 70 72" width="70" xmlns="http://www.w3.org/2000/svg"><path d="m1036.745 931.731c1.306-1.453 2.103-3.374 2.103-5.477 0-4.523-3.68-8.203-8.203-8.203-4.524 0-8.204 3.68-8.204 8.203 0 2.103.797 4.024 2.103 5.477-.88.42-1.713.925-2.485 1.51l-10.008-9.894v-9.398h10.254c1.132 0 2.05-.918 2.05-2.05v-4.102c0-5.79-3.381-10.797-8.255-13.117 1.307-1.453 2.103-3.373 2.103-5.477 0-4.523-3.68-8.203-8.203-8.203s-8.203 3.68-8.203 8.203c0 2.104.796 4.024 2.103 5.477-4.874 2.32-8.255 7.327-8.255 13.117v4.101c0 1.133.918 2.051 2.05 2.051h10.254v9.398l-10.008 9.893c-.772-.584-1.604-1.09-2.485-1.509 1.306-1.453 2.103-3.374 2.103-5.477 0-4.523-3.68-8.203-8.204-8.203-4.523 0-8.203 3.68-8.203 8.203 0 2.103.797 4.024 2.103 5.477-4.874 2.32-8.255 7.326-8.255 13.117v4.101c0 1.133.918 2.051 2.05 2.051h24.61c1.133 0 2.05-.918 2.05-2.05v-4.102c0-3.26-1.072-6.273-2.879-8.697l9.169-9.064 9.169 9.064c-1.807 2.424-2.88 5.436-2.88 8.697v4.101c0 1.133.918 2.051 2.05 2.051h24.61c1.133 0 2.051-.918 2.051-2.05v-4.102c0-5.79-3.381-10.798-8.255-13.117zm-47.39-9.579c2.262 0 4.102 1.84 4.102 4.102s-1.84 4.101-4.102 4.101c-2.261 0-4.101-1.84-4.101-4.101 0-2.262 1.84-4.102 4.101-4.102zm10.254 24.746h-20.507v-2.05c0-5.73 4.6-10.391 10.253-10.391 5.654 0 10.254 4.661 10.254 10.39zm10.391-61.796c2.262 0 4.102 1.84 4.102 4.101 0 2.262-1.84 4.102-4.102 4.102s-4.102-1.84-4.102-4.102c0-2.261 1.84-4.101 4.102-4.101zm-10.254 24.746v-2.051c0-5.73 4.6-10.39 10.254-10.39s10.254 4.66 10.254 10.39v2.05h-20.508zm30.899 12.304c2.261 0 4.101 1.84 4.101 4.102s-1.84 4.101-4.101 4.101c-2.262 0-4.102-1.84-4.102-4.101 0-2.262 1.84-4.102 4.102-4.102zm10.253 24.746h-20.507v-2.05c0-5.73 4.6-10.391 10.254-10.391s10.253 4.661 10.253 10.39z" fill="#0049f8" stroke="#fff" stroke-width=".5" transform="translate(-975 -880)"/></svg>