<svg xmlns="http://www.w3.org/2000/svg" xmlns:xlink="http://www.w3.org/1999/xlink" width="33" height="33" viewBox="0 0 33 33">
  <defs>
    <polygon id="btn-blog_w-a" points="0 .058 18.946 .058 18.946 15.995 0 15.995"/>
  </defs>
  <g fill="none" fill-rule="evenodd">
    <circle cx="16.5" cy="16.5" r="16.5" fill="#FFF"/>
    <g transform="translate(7 9)">
      <g transform="translate(0 .03)">
        <mask id="btn-blog_w-b" fill="#fff">
          <use xlink:href="#btn-blog_w-a"/>
        </mask>
        <path fill="#444" d="M15.9534516,0.0578218605 L2.99218186,0.0578218605 C1.33944698,0.0578218605 -8.8372093e-06,1.40222651 -8.8372093e-06,3.06070558 L-8.8372093e-06,10.18438 C-8.8372093e-06,11.8428591 1.33944698,13.1873521 2.99218186,13.1873521 L7.45665163,13.1873521 L8.98045163,15.6682219 C8.98045163,15.6682219 8.99680047,15.6975614 9.03002837,15.7386544 C9.11901907,15.891273 9.28321442,15.9953753 9.47250744,15.9953753 C9.66118186,15.9953753 9.82414,15.8928637 9.91383767,15.7418358 C9.95201442,15.6969428 9.96518186,15.6678684 9.96518186,15.6678684 L11.4888051,13.1873521 L15.9534516,13.1873521 C17.6056563,13.1873521 18.9456423,11.8428591 18.9456423,10.18438 L18.9456423,3.06070558 C18.9456423,1.40222651 17.6056563,0.0578218605 15.9534516,0.0578218605" mask="url(#btn-blog_w-b)"/>
      </g>
      <path fill="#FFF" d="M3.95210605 7.85862977C3.54073395 7.85862977 3.20659907 7.52484837 3.20659907 7.11303442 3.20659907 6.70157395 3.54073395 6.36779256 3.95210605 6.36779256 4.36365488 6.36779256 4.69743628 6.70157395 4.69743628 7.11303442 4.69743628 7.52484837 4.36365488 7.85862977 3.95210605 7.85862977M4.20758977 5.30829953C4.20758977 5.30829953 3.69043628 5.30829953 3.22162233 5.76482977L3.22162233 3.9255414 2.06147349 3.9255414 2.06147349 8.75808093 3.23355256 8.75808093 3.23355256 8.37949488C3.23355256 8.37949488 3.50998047 8.87870884 4.20758977 8.87870884 4.20758977 8.87870884 5.84229674 8.81852744 5.84229674 7.07547628 5.84229674 7.07547628 5.78211535 5.30829953 4.20758977 5.30829953M6.2148293 3.81746233L6.2148293 4.93554605C6.2148293 4.93554605 6.74408977 4.91150884 6.74408977 5.89738791L6.74408977 8.75808093 7.86208512 8.75808093 7.86208512 5.63289023C7.86208512 5.63289023 7.90998279 3.81746233 6.2148293 3.81746233M10.596026 7.85862977C10.1844772 7.85862977 9.85051907 7.52484837 9.85051907 7.11303442 9.85051907 6.70157395 10.1844772 6.36779256 10.596026 6.36779256 11.0074865 6.36779256 11.3413563 6.70157395 11.3413563 7.11303442 11.3413563 7.52484837 11.0074865 7.85862977 10.596026 7.85862977M10.5957609 5.32332279C10.5957609 5.32332279 8.67941209 5.32358791 8.67941209 7.11303442 8.67941209 7.11303442 8.61737488 8.87870884 10.5957609 8.87870884 10.5957609 8.87870884 12.5562958 8.87588093 12.5562958 7.11303442 12.5562958 7.11303442 12.6201888 5.32332279 10.5957609 5.32332279M15.0633856 7.85862977C14.65166 7.85862977 14.3181437 7.52484837 14.3181437 7.11303442 14.3181437 6.70157395 14.65166 6.36779256 15.0633856 6.36779256 15.474846 6.36779256 15.8087158 6.70157395 15.8087158 7.11303442 15.8087158 7.52484837 15.474846 7.85862977 15.0633856 7.85862977L15.0633856 7.85862977zM15.7565763 5.44050419L15.7565763 5.76482977C15.7565763 5.76482977 15.4232367 5.32332279 14.7833344 5.32332279 14.7833344 5.32332279 13.1423442 5.25403907 13.1423442 7.10083907 13.1423442 7.10083907 13.1241484 8.82135535 14.7380879 8.82135535 14.7380879 8.82135535 15.3962833 8.84830884 15.7565763 8.37949488L15.7565763 8.65026698C15.7565763 8.65026698 15.8381437 9.49766698 15.0174321 9.49766698L14.7380879 9.49766698 14.7380879 10.5251762 15.1887856 10.5251762C15.1887856 10.5251762 16.8835856 10.543374 16.8835856 8.71318791L16.8835856 5.44050419 15.7565763 5.44050419z"/>
    </g>
  </g>
</svg>
