<svg height="33" viewBox="0 0 33 33" width="33" xmlns="http://www.w3.org/2000/svg"><g fill="none"><circle cx="16.5" cy="16.5" fill="#444" r="16.5"/><path d="m20.017 9.233h-1.92c-2.156 0-3.55 1.546-3.55 3.937v1.816h-1.93c-.08 0-.156.034-.213.095-.056.061-.088.144-.087.23v2.633c0 .18.134.325.3.325h1.93v6.64c0 .179.135.324.301.324h2.52c.08 0 .156-.034.213-.095.056-.06.088-.143.088-.23v-6.638h2.256c.08 0 .157-.034.213-.095.057-.06.09-.143.09-.23v-2.635c-.001-.18-.136-.326-.303-.327h-2.257v-1.538c0-.74.166-1.116 1.054-1.116h1.294c.166-.001.3-.147.3-.327v-2.442c0-.18-.134-.325-.3-.326z" fill="#fff"/></g></svg>