<svg xmlns="http://www.w3.org/2000/svg" width="33" height="33" viewBox="0 0 33 33">
  <g fill="none">
    <circle cx="16.5" cy="16.5" r="16.5" fill="#FFF"/>
    <path fill="#444" d="M20.0166357,9.23333333 L18.0974295,9.23333333 C15.9410086,9.23333333 14.5474765,10.7790974 14.5474765,13.1701175 L14.5474765,14.9857202 L12.6175253,14.9857202 C12.5375895,14.9857199 12.4609397,15.0201084 12.4044942,15.0812953 C12.3480486,15.1424823 12.3164482,15.225437 12.3166667,15.3118496 L12.3166667,17.9441162 C12.3166667,18.123739 12.4513663,18.2693521 12.6175253,18.2693521 L14.5474765,18.2693521 L14.5474765,24.9080962 C14.5474765,25.087719 14.6821749,25.2333333 14.8483339,25.2333333 L17.3676021,25.2333333 C17.4475376,25.2335695 17.5242744,25.1994085 17.580875,25.1383892 C17.6374756,25.0773699 17.6692864,24.9945091 17.6692861,24.9080962 L17.6692861,18.2693521 L19.9248907,18.2693521 C20.0049024,18.2695894 20.0817241,18.2354568 20.1384559,18.1744631 C20.1951877,18.1134695 20.2271823,18.0306112 20.2274013,17.9441162 L20.2274013,15.3091691 C20.2269472,15.1287631 20.0917742,14.9826371 19.9248907,14.9821462 L17.6684596,14.9821462 L17.6684596,13.4435301 C17.6684596,12.7037078 17.8337659,12.3275421 18.7222873,12.3275421 L20.0158092,12.3275421 C20.1819133,12.3265615 20.3162153,12.1809782 20.3166667,12.0014126 L20.3166667,9.55856925 C20.3162126,9.37915014 20.1817797,9.23382422 20.0158092,9.23333333 L20.0166357,9.23333333 Z"/>
  </g>
</svg>
