<svg height="33" viewBox="0 0 33 33" width="33" xmlns="http://www.w3.org/2000/svg" xmlns:xlink="http://www.w3.org/1999/xlink"><mask id="a" fill="#fff"><path d="m0 .058h18.946v15.937h-18.946z" fill="#fff" fill-rule="evenodd"/></mask><g fill="none" fill-rule="evenodd"><circle cx="16.5" cy="16.5" fill="#444" r="16.5"/><path d="m15.953.058h-12.96c-1.655 0-2.993 1.344-2.993 3.002v7.123c0 1.659 1.34 3.003 2.992 3.003h4.465l1.523 2.481s.017.03.05.07c.089.153.253.257.443.257.188 0 .351-.102.44-.253.039-.045.052-.074.052-.074l1.524-2.48h4.464c1.653 0 2.993-1.345 2.993-3.004v-7.122c0-1.659-1.34-3.003-2.993-3.003" fill="#fefefe" mask="url(#a)" transform="translate(7 9.03)"/><path d="m3.952 7.859c-.411 0-.745-.334-.745-.746 0-.411.334-.745.745-.745.412 0 .745.334.745.745 0 .412-.333.746-.745.746m.256-2.55s-.518 0-.986.456v-1.84h-1.16v4.833h1.172v-.378s.276.5.974.5c0 0 1.634-.06 1.634-1.804 0 0-.06-1.767-1.634-1.767m2.007-1.492v1.119s.53-.024.53.961v2.861h1.117v-3.125s.048-1.816-1.647-1.816m4.381 4.042c-.412 0-.745-.334-.745-.746 0-.411.333-.745.745-.745.411 0 .745.334.745.745 0 .412-.334.746-.745.746m0-2.536s-1.917 0-1.917 1.79c0 0-.062 1.766 1.917 1.766 0 0 1.96-.003 1.96-1.766 0 0 .064-1.79-1.96-1.79m4.467 2.536c-.411 0-.745-.334-.745-.746 0-.411.334-.745.745-.745.412 0 .746.334.746.745 0 .412-.334.746-.746.746zm.694-2.418v.324s-.334-.442-.974-.442c0 0-1.64-.069-1.64 1.778 0 0-.019 1.72 1.595 1.72 0 0 .658.027 1.019-.442v.271s.081.848-.74.848h-.279v1.027h.45s1.696.018 1.696-1.812v-3.272z" fill="#444" transform="translate(7 9)"/></g></svg>