<svg height="13" viewBox="0 0 14 13" width="14" xmlns="http://www.w3.org/2000/svg"><g fill="none" fill-rule="evenodd"><rect height="30" rx="14.5" stroke="#ddd" width="134" x="-16" y="-9"/><g fill="#444" fill-rule="nonzero" stroke="#fff" stroke-width=".1"><path d="m9.032.759c-.07-.264-.24-.485-.477-.622-.488-.282-1.115-.114-1.397.375l-.158.273-.158-.273c-.282-.489-.909-.657-1.397-.375-.49.282-.657.91-.375 1.398l.748 1.296-2.761 4.783h-2.013c-.564 0-1.024.46-1.024 1.023 0 .565.46 1.024 1.024 1.024h7.772l-1.182-2.047h-2.214l3.51-6.079c.137-.237.173-.512.102-.776z"/><path d="m12.956 7.614h-2.013l-2.289-3.964-1.181 2.047 3.553 6.154c.137.237.357.407.622.477.088.024.177.036.266.036.177 0 .352-.047.51-.138.489-.282.657-.91.375-1.398l-.674-1.167h.831c.564 0 1.024-.46 1.024-1.024s-.46-1.023-1.024-1.023zm-11.553 2.866-.202.348c-.282.489-.114 1.116.375 1.398.16.093.336.137.51.137.354 0 .699-.184.888-.512l.792-1.371z"/></g></g></svg>