<svg height="14" viewBox="0 0 14 14" width="14" xmlns="http://www.w3.org/2000/svg"><g fill="none" fill-rule="evenodd"><rect height="30" rx="14.5" stroke="#ddd" width="106" x="-17" y="-8"/><g fill="#0049f8" fill-rule="nonzero"><path d="m8.527 5.447c-.166-.166-.35-.314-.547-.44-.525-.336-1.135-.515-1.759-.515-.865-.001-1.694.342-2.305.955l-2.962 2.965c-.61.61-.952 1.438-.953 2.3-.001 1.802 1.459 3.263 3.259 3.264.864.003 1.693-.339 2.303-.95l2.446-2.445c.044-.044.069-.104.069-.167-.001-.128-.106-.232-.235-.231h-.093c-.51.001-1.017-.097-1.49-.29-.087-.035-.188-.015-.254.052l-1.758 1.76c-.546.547-1.431.547-1.977 0-.546-.545-.546-1.43 0-1.977l2.973-2.971c.546-.545 1.43-.545 1.975 0 .368.346.941.346 1.309 0 .158-.158.254-.368.27-.592.017-.266-.081-.528-.27-.717z"/><path d="m13.02.955c-1.274-1.273-3.338-1.273-4.612 0l-2.443 2.44c-.067.068-.086.17-.049.257s.124.144.22.142h.085c.51-.001 1.016.098 1.489.29.087.037.187.016.253-.05l1.754-1.752c.546-.546 1.431-.546 1.977 0s.546 1.432 0 1.978l-2.184 2.182-.019.02-.764.76c-.545.545-1.43.545-1.975 0-.367-.346-.94-.346-1.308 0-.16.16-.256.371-.27.596-.018.267.08.528.27.717.27.27.585.492.931.652.049.023.098.042.147.063s.1.037.149.056.1.035.149.049l.137.037c.093.023.187.042.282.058.115.017.23.028.347.033h.177l.14-.016c.051-.003.105-.014.165-.014h.08l.16-.024.075-.014.135-.027h.025c.572-.144 1.095-.44 1.512-.857l2.964-2.965c1.273-1.273 1.273-3.338 0-4.611z"/></g></g></svg>