<svg height="15" viewBox="0 0 14 15" width="14" xmlns="http://www.w3.org/2000/svg"><g fill="none" fill-rule="evenodd" transform="translate(-16 -7)"><rect height="30" rx="14.5" stroke="#ddd" width="134"/><path d="m28.264 13.26-9.076-5.072c-.221-.123-.472-.188-.726-.188-.257 0-.511.067-.734.193-.449.255-.728.728-.728 1.236v10.142c0 .508.28.981.728 1.236.223.126.477.193.734.193.254 0 .505-.065.726-.188l9.075-5.071c.455-.254.737-.73.737-1.241 0-.512-.282-.987-.736-1.24zm-3.933-1.2-1.246 1.697-2.981-4.058zm-5.926 8.068c-.081-.007-.16-.03-.232-.07-.176-.101-.286-.287-.286-.487v-10.142c0-.2.11-.386.286-.486.071-.04.15-.064.231-.073l4.135 5.63zm1.699-.827 2.98-4.058 1.247 1.697zm7.72-4.313-2.72 1.52-1.474-2.008 1.475-2.007 2.719 1.519c.178.1.29.287.29.488s-.112.388-.29.488z" fill="#444" fill-rule="nonzero" stroke="#444" stroke-width=".4"/></g></svg>