<svg height="22" viewBox="0 0 22 22" width="22" xmlns="http://www.w3.org/2000/svg"><path d="m13.367 17.122-1.005-1.74c-.13-.226-.409-.298-.648-.195-2.112.914-4.687-.139-5.426-2.541-.435-1.416-.007-3.018 1.076-4.027 1.963-1.83 4.972-1.281 6.23.896l-1.3.75c-.174.1-.272.298-.245.498s.17.365.367.418l4.098 1.098c.266.071.54-.087.612-.354l1.098-4.098c.051-.195-.019-.402-.179-.526-.16-.123-.38-.137-.554-.036l-1.3.75c-1.946-3.373-6.294-4.513-9.65-2.51-3.19 1.902-4.335 6.174-2.527 9.418 1.817 3.26 5.853 4.49 9.15 2.9.258-.124.346-.453.203-.7z" fill="#444"/></svg>