<svg xmlns="http://www.w3.org/2000/svg" width="17" height="12" viewBox="0 0 17 12">
  <g fill="none" fill-rule="evenodd" transform="translate(-63 -8)">
    <rect width="80" height="27" fill="#4A7ABD" opacity="0"/>
    <path fill="#3A68CD" d="M16.4821,6.6397 C16.4851,6.6357 16.4881,6.6307 16.4921,6.6257 C16.5071,6.6067 16.5231,6.5867 16.5371,6.5657 C16.5451,6.5537 16.5531,6.5407 16.5611,6.5267 C16.5691,6.5147 16.5781,6.5017 16.5851,6.4877 C16.5941,6.4707 16.6021,6.4527 16.6111,6.4337 C16.6161,6.4247 16.6211,6.4157 16.6251,6.4057 C16.6341,6.3837 16.6411,6.3617 16.6491,6.3387 C16.6521,6.3317 16.6551,6.3267 16.6571,6.3197 C16.6661,6.2907 16.6721,6.2617 16.6791,6.2327 L16.6791,6.2307 C16.7441,5.9277 16.6561,5.5977 16.4161,5.3627 L11.2411,0.2797 C10.8621,-0.0933 10.2481,-0.0933 9.8691,0.2797 C9.4891,0.6517 9.4891,1.2557 9.8691,1.6277 L13.3881,5.0857 L0.9701,5.0857 C0.4341,5.0857 0.0001,5.5127 0.0001,6.0387 C0.0001,6.5647 0.4341,6.9927 0.9701,6.9927 L13.3861,6.9927 L9.8691,10.4477 C9.4891,10.8197 9.4891,11.4237 9.8691,11.7957 C10.0571,11.9827 10.3051,12.0757 10.5541,12.0757 C10.8021,12.0757 11.0511,11.9827 11.2411,11.7947 L16.4081,6.7187 C16.4341,6.6947 16.4591,6.6677 16.4821,6.6397" transform="translate(63 8)"/>
  </g>
</svg>
