<svg height="32" viewBox="0 0 32 32" width="32" xmlns="http://www.w3.org/2000/svg"><path d="m16 0c-8.843 0-16 7.156-16 16 0 8.843 7.156 16 16 16 8.843 0 16-7.156 16-16 0-8.843-7.156-16-16-16zm7.21 17.067h-6.143v6.142c0 .59-.478 1.067-1.067 1.067-.59 0-1.067-.478-1.067-1.067v-6.142h-6.142c-.59 0-1.067-.478-1.067-1.067 0-.59.478-1.067 1.067-1.067h6.142v-6.142c0-.59.478-1.067 1.067-1.067.59 0 1.067.478 1.067 1.067v6.142h6.142c.59 0 1.067.478 1.067 1.067 0 .59-.478 1.067-1.067 1.067z" fill="#121212"/></svg>