<svg height="24" viewBox="0 0 24 24" width="24" xmlns="http://www.w3.org/2000/svg" xmlns:xlink="http://www.w3.org/1999/xlink"><mask id="a" fill="#fff"><path d="m0 0h24v24h-24z" fill="#fff" fill-rule="evenodd"/></mask><g fill="#0049f8" fill-rule="evenodd"><path d="m12.308 15.291v.85c0 .256-.207.463-.462.463-.256 0-.463-.207-.463-.463v-.96c-.481-.235-.787-.724-.786-1.26 0-.774.629-1.402 1.403-1.401.656 0 1.225.454 1.369 1.095.17.755-.305 1.506-1.06 1.676m-.309-6.395c-2.801 0-5.072 2.27-5.072 5.072 0 2.8 2.27 5.072 5.072 5.072 2.8-.004 5.069-2.272 5.072-5.072 0-2.801-2.27-5.072-5.072-5.072"/><path d="m12 19.965c-3.312 0-5.997-2.685-5.997-5.997 0-1.337.438-2.572 1.177-3.569v-1.567c0-2.645 2.162-4.797 4.82-4.797s4.82 2.152 4.82 4.797v1.572c.738.997 1.176 2.229 1.177 3.564 0 3.312-2.685 5.997-5.997 5.997m0-19.965c-6.628 0-12 5.373-12 12 0 6.628 5.372 12 12 12s12-5.372 12-12c0-6.627-5.372-12-12-12" mask="url(#a)"/><path d="m12 13.445c-.264 0-.478.214-.478.478s.214.478.478.478.477-.214.478-.478c0-.264-.214-.478-.478-.478m3.818-4.099v-.514c0-2.092-1.713-3.794-3.818-3.794s-3.817 1.702-3.817 3.794v.51c1.037-.857 2.367-1.372 3.817-1.372 1.45.002 2.78.518 3.818 1.376"/></g></svg>