<svg xmlns="http://www.w3.org/2000/svg" width="23" height="23" viewBox="0 0 23 23">
  <path fill="#0049F8" fill-rule="evenodd" d="M11.5,0 C17.8512746,0 23,5.14872538 23,11.5 C23,17.8512746 17.8512746,23 11.5,23 C5.14872538,23 0,17.8512746 0,11.5 C0,5.14872538 5.14872538,0 11.5,0 Z M11.4627708,15.3258377 C10.5830091,15.3258377 9.86723327,16.0497779 9.86723327,16.93957 C9.86723327,17.8292454 10.5830091,18.5529523 11.4627708,18.5529523 C12.337284,18.5529523 13.0760368,17.8140832 13.0760368,16.93957 C13.0762698,16.5132769 12.9073854,16.1092606 12.6002911,15.8020497 C12.2933134,15.4949554 11.8892972,15.3258377 11.4627708,15.3258377 Z M11.695605,4.87527688 C10.2554224,4.87527688 9.36633012,5.36011968 8.87402282,5.76670183 C8.28351065,6.25457708 7.93104615,6.90643813 7.93104615,7.51024645 C7.93104615,8.32586004 8.60553398,8.76579919 9.24013337,8.76579919 C9.77162931,8.76579919 9.99871349,8.43071298 10.1990887,8.13504868 C10.4489163,7.76648884 10.7072581,7.38521602 11.6419539,7.38521602 C11.96561,7.38521602 13.0219539,7.45636207 13.0219539,8.37099696 C13.0219539,9.04828398 12.4113808,9.51703144 11.8727703,9.93061156 C11.7433078,10.0300994 11.6210766,10.1241055 11.5092257,10.218928 C10.9110157,10.7339787 10.2259143,11.5281318 10.2259143,13.1214533 C10.2259143,14.1669503 10.5563352,14.555571 11.444961,14.555571 C12.568252,14.555571 12.7359701,13.9490801 12.7359701,13.5875183 C12.7359701,12.693644 12.7359701,12.2449574 13.6499052,11.5304645 C14.6065279,10.7866968 15.7474305,9.58152941 15.7474305,8.06600203 C15.7474305,7.16769574 15.3436476,6.35336511 14.6102601,5.7726501 C13.8689417,5.18563692 12.8610005,4.87527688 11.695605,4.87527688 Z"/>
</svg>
