<svg height="76" viewBox="0 0 74 76" width="74" xmlns="http://www.w3.org/2000/svg"><g fill="#0049f8" transform="translate(0 1)"><path d="m70.3 0h-66.6c-2.043 0-3.7 1.657-3.7 3.7v66.6c0 2.043 1.657 3.7 3.7 3.7h66.6c2.043 0 3.7-1.657 3.7-3.7v-66.6c0-2.043-1.657-3.7-3.7-3.7zm1.233 70.3c0 .681-.552 1.233-1.233 1.233h-66.6c-.681 0-1.233-.552-1.233-1.233v-57.967h69.066zm-69.066-60.433v-6.167c0-.681.552-1.233 1.233-1.233h66.6c.681 0 1.233.552 1.233 1.233v6.167z"/><path d="m69 14h-64v18h64zm-2.462 15.429h-59.076v-12.859h59.076v12.86zm-39.538 5.571h-22v34h22zm-2.444 31.571h-17.112v-29.141h17.112v29.14zm4.444-15.571h40v-17h-40zm2.5-14.385h35v11.77h-35zm-2.5 32.385h40v-17h-40zm2.5-14.385h35v11.77h-35z"/></g></svg>