<svg height="76" viewBox="0 0 74 76" width="74" xmlns="http://www.w3.org/2000/svg"><path d="m882 3115c-19.33 0-35 15.67-35 35s15.67 35 35 35 35-15.67 35-35c-.022-19.32-15.68-34.978-35-35zm30.27 47.261-9.954 1.718c1.14-4.179 1.755-8.482 1.832-12.812h10.49c-.132 3.808-.933 7.564-2.368 11.094zm-62.908-11.094h10.49c.077 4.33.692 8.633 1.832 12.812l-9.954-1.718c-1.435-3.53-2.236-7.286-2.368-11.094zm2.368-13.428 9.954-1.718c-1.14 4.179-1.755 8.482-1.832 12.812h-10.49c.132-3.808.933-7.564 2.368-11.094zm31.437-4.007c4.192.054 8.374.435 12.507 1.142l4.118.71c1.265 4.306 1.946 8.762 2.024 13.25h-18.65v-15.102zm12.904-1.157c-4.264-.729-8.579-1.123-12.904-1.176v-14c6.688.642 12.498 6.766 15.79 15.679zm-15.238-1.176c-4.325.053-8.64.447-12.903 1.176l-2.888.5c3.293-8.915 9.103-15.042 15.791-15.681zm-12.505 3.475c4.132-.707 8.313-1.088 12.505-1.142v15.101h-18.649c.078-4.487.76-8.943 2.024-13.248l4.12-.71zm-6.144 16.293h18.65v15.1c-4.193-.053-8.375-.434-12.508-1.141l-4.118-.71c-1.265-4.306-1.946-8.762-2.024-13.25zm5.745 16.258c4.264.73 8.578 1.125 12.904 1.182v14c-6.688-.643-12.498-6.767-15.79-15.679zm15.238 1.182c4.325-.057 8.64-.452 12.903-1.182l2.888-.5c-3.293 8.915-9.103 15.042-15.791 15.681zm12.505-3.481c-4.132.707-8.313 1.088-12.505 1.142v-15.101h18.649c-.078 4.487-.76 8.943-2.024 13.248l-4.12.71zm8.476-16.293c-.077-4.33-.692-8.633-1.832-12.812l9.954 1.718c1.435 3.53 2.236 7.286 2.368 11.094zm6.942-13.666-9.541-1.646c-1.716-5.596-4.925-10.618-9.283-14.525 8.15 2.72 14.907 8.525 18.824 16.171zm-39.356-16.171c-4.358 3.907-7.567 8.929-9.283 14.525l-9.54 1.646c3.916-7.646 10.674-13.452 18.823-16.171zm-18.824 45.837 9.541 1.646c1.716 5.596 4.925 10.618 9.283 14.525-8.15-2.72-14.907-8.525-18.824-16.171zm39.356 16.171c4.358-3.907 7.567-8.929 9.283-14.525l9.54-1.646c-3.916 7.646-10.674 13.452-18.823 16.171z" fill="#0049f8" transform="translate(-845 -3112)"/></svg>