<svg height="65" viewBox="0 0 65 65" width="65" xmlns="http://www.w3.org/2000/svg"><path d="m40.622 10.717c-1.582-4.274-3.571-7.873-5.857-10.633-.75-.055-1.505-.084-2.265-.084s-1.515.029-2.265.084c-2.286 2.76-4.275 6.359-5.857 10.633-.511 1.38-.97 2.81-1.378 4.283h19c-.408-1.472-.867-2.903-1.378-4.283zm-18.229 35.283h21.214c.811-3.818 1.282-7.859 1.393-12h-24c.11 4.142.582 8.182 1.393 12zm21.214-27h-21.214c-.811 3.818-1.282 7.859-1.393 12h24c-.11-4.142-.582-8.182-1.393-12zm-19.23 35.283c1.583 4.274 3.572 7.873 5.857 10.633.751.055 1.506.084 2.266.084s1.515-.029 2.266-.084c2.285-2.76 4.274-6.359 5.856-10.633.511-1.38.97-2.81 1.378-4.283h-19c.408 1.472.867 2.903 1.377 4.283zm22.623-35.28c.775 3.81 1.237 7.844 1.346 11.997h16.654c-.243-4.209-1.288-8.268-3.065-12-.019 0-.037.003-.056.003zm-29 26.994c-.776-3.81-1.238-7.844-1.347-11.997h-16.653c.243 4.209 1.288 8.268 3.065 12 .019 0 .037-.003.055-.003zm28.836 4.003c-1.376 5.325-3.361 10.099-5.836 14 5.569-1.398 10.678-4.356 14.832-8.667 1.583-1.643 2.974-3.43 4.168-5.333zm-28.672-35c1.377-5.325 3.361-10.099 5.836-14-5.568 1.398-10.678 4.356-14.832 8.667-1.583 1.643-2.974 3.43-4.168 5.333zm.001 35h-13.165c1.194 1.902 2.586 3.69 4.168 5.333 4.155 4.31 9.263 7.27 14.832 8.667-2.474-3.901-4.459-8.675-5.835-14zm28.671-35h13.164c-1.194-1.902-2.585-3.69-4.168-5.333-4.154-4.31-9.262-7.27-14.832-8.667 2.475 3.901 4.46 8.675 5.836 14zm1.51 19c-.109 4.153-.57 8.187-1.346 11.997h14.88c.018 0 .036.003.055.003 1.777-3.732 2.822-7.791 3.065-12zm-31.693-3c.109-4.153.571-8.187 1.347-11.997h-14.88c-.018 0-.036-.003-.055-.003-1.777 3.732-2.822 7.791-3.065 12z" fill="#b5c1c9"/></svg>