<svg height="65" viewBox="0 0 65 65" width="65" xmlns="http://www.w3.org/2000/svg"><g fill="#b5c1c9" transform="translate(0 4)"><path d="m52.697 6.364c-4.58-1.364-8.702-3.182-12.367-4.546-8.242-3.636-11.906-1.818-19.234 5.455-3.206 3.181-5.496 7.727-5.038 9.545 0 .455 0 .455.916.91 2.29.908 5.496 1.363 8.702-3.637.458-.455.916-.91 1.832-.91 1.374 0 1.832-.454 3.205-.908.916-.455 1.832-.91 3.206-1.364h.916c.458 0 1.374.454 1.832.454 2.29 2.273 6.412 5.455 10.534 9.092 6.412 5 12.823 10.454 16.03 14.545h.457c4.138-10.73-2.053-25.071-10.991-28.636z"/><path d="m60.613 40.164c-1.81-4.173-9.506-10.2-16.295-15.764-3.62-3.246-7.242-6.027-9.958-8.346-.452.464-1.358.464-1.358.928-1.358.463-1.81.927-3.62.927-3.622 4.636-8.148 6.49-13.127 4.636-2.263-.463-3.621-2.318-4.074-4.172-.905-4.637 3.169-11.128 6.337-14.373h-9.052c-9.883 10.346-11.527 22.487-7.242 27.818 1.81 1.855 3.62 4.173 4.979 5.1 8.6 7.418 18.558 14.837 20.368 16.228 1.358.927 4.074 1.854 5.432 1.854h1.357l-7.242-7.418c-.905-.928-.905-2.319 0-3.246.906-.927 2.263-.927 3.169 0l9.052 9.273c.906.927 1.81.464 2.716.464 1.358-.464 1.81-1.391 2.263-2.782l-10.41-10.664c-.906-.927-.906-2.318 0-3.245.905-.927 2.263-.928 3.168 0l11.316 11.59c.452.464 2.263.464 3.62 0 .453-.463 1.359-.927 1.811-1.854l-12.673-12.982c-.906-.927-.906-2.318 0-3.245.905-.927 2.263-.928 3.168 0l13.126 13.445c.906.464 1.81 0 2.716-.463.453-.464 1.358-1.855.453-3.71z"/></g></svg>