<svg height="52" viewBox="0 0 52 52" width="52" xmlns="http://www.w3.org/2000/svg" xmlns:xlink="http://www.w3.org/1999/xlink"><mask id="a" fill="#fff"><path d="m0 .421h55v60h-55z" fill="#fff" fill-rule="evenodd"/></mask><g fill="#444" fill-rule="evenodd" transform="translate(-3)"><path d="m50.162 4.09-21.717 21.601-19.739-7.543zm-11.548 42.89-8.576-19.748 21.844-21.728zm-33.566-27.86 22.837 8.728 9.869 22.723c.176.405.578.666 1.02.666l.055-.001c.463-.023.862-.33 1.003-.768l15.553-48.62c.017-.05.013-.103.022-.153.01-.051.02-.1.022-.153.003-.109-.014-.212-.042-.315-.006-.023-.001-.048-.009-.07 0-.005-.005-.008-.007-.013-.045-.127-.114-.244-.203-.348-.028-.035-.067-.056-.098-.086-.054-.048-.1-.102-.165-.142-.015-.008-.033-.01-.05-.018-.046-.026-.094-.039-.144-.057-.078-.03-.155-.053-.236-.065-.051-.007-.101-.008-.154-.007-.09.001-.175.013-.261.035-.03.008-.06 0-.09.011l-48.881 16.574c-.445.15-.746.56-.755 1.024-.009.466.276.886.714 1.054z" mask="url(#a)"/><path d="m5.445 51.236c.285 0 .569-.108.786-.324l15.553-15.47c.434-.432.434-1.13 0-1.562s-1.137-.432-1.571 0l-15.553 15.47c-.435.432-.435 1.13 0 1.562.217.216.5.324.785.324m19.212-9.621-7.777 7.735c-.434.432-.434 1.13 0 1.562.217.216.501.324.785.324.285 0 .57-.108.786-.324l7.776-7.735c.435-.432.435-1.13 0-1.562-.434-.432-1.136-.432-1.57 0m-19.212-2.534c.285 0 .569-.108.786-.324l7.776-7.735c.435-.432.435-1.13 0-1.562-.434-.432-1.136-.432-1.57 0l-7.777 7.734c-.435.432-.435 1.131 0 1.563.217.216.5.324.785.324" mask="url(#a)"/></g></svg>