<svg height="66" viewBox="0 0 108 66" width="108" xmlns="http://www.w3.org/2000/svg"><g fill="#0049f8" fill-rule="evenodd"><path d="m75.961 61.214c-7.733 0-14.755-3.05-19.973-7.984 4.976-5.643 8.005-13.042 8.005-21.14 0-8.097-3.029-15.497-8.005-21.139 5.219-4.934 12.24-7.985 19.973-7.985 16.058 0 29.122 13.065 29.122 29.124 0 16.056-13.064 29.124-29.122 29.124m-29.125-29.121c0-7.283 2.707-13.935 7.142-19.047 4.434 5.112 7.142 11.764 7.142 19.047 0 7.281-2.708 13.934-7.142 19.044-4.435-5.11-7.142-11.763-7.142-19.044m-14.84 29.121c-16.06 0-29.123-13.066-29.123-29.121 0-16.058 13.065-29.124 29.123-29.124 7.733 0 14.755 3.05 19.972 7.985-4.976 5.642-8.005 13.043-8.005 21.139 0 8.098 3.029 15.497 8.005 21.14-5.217 4.931-12.239 7.981-19.972 7.981m43.964-61.118c-8.508 0-16.247 3.345-21.983 8.777-5.736-5.433-13.473-8.777-21.981-8.777-17.643 0-31.996 14.353-31.996 31.997 0 17.641 14.353 31.995 31.996 31.995 8.508 0 16.245-3.345 21.982-8.779 5.736 5.436 13.475 8.779 21.983 8.779 17.64 0 31.995-14.354 31.995-31.995 0-17.644-14.354-31.997-31.995-31.997" stroke="#0049f8" stroke-width=".5" transform="translate(0 .141)"/><path d="m54.97 20.987h-2.35c-.33 0-.6-.268-.6-.6 0-.331.27-.6.6-.6h2.349c.331 0 .6.269.6.6 0 .332-.269.6-.6.6"/><path d="m54.97 21.68h-2.35c-.713 0-1.293-.58-1.293-1.293s.58-1.293 1.293-1.293h2.349c.713 0 1.293.58 1.293 1.293 0 .714-.58 1.294-1.293 1.294m-2.022 21.799h2.348c.332 0 .6.269.6.6s-.268.6-.6.6h-2.348c-.332 0-.6-.269-.6-.6s.268-.6.6-.6"/><path d="m55.296 45.374h-2.35c-.713 0-1.293-.58-1.293-1.294 0-.713.58-1.293 1.294-1.293h2.349c.713 0 1.293.58 1.293 1.293 0 .714-.58 1.294-1.293 1.294m2.124-20.138h-6.598c-.331 0-.6-.268-.6-.6 0-.331.269-.6.6-.6h6.598c.332 0 .6.269.6.6 0 .332-.268.6-.6.6"/><path d="m57.42 25.93h-6.598c-.713 0-1.293-.58-1.293-1.294 0-.713.58-1.293 1.293-1.293h6.598c.714 0 1.294.58 1.294 1.293 0 .714-.58 1.294-1.294 1.294m.75 3.155h-8.72c-.332 0-.6-.269-.6-.6s.268-.6.6-.6h8.72c.332 0 .6.269.6.6s-.268.6-.6.6"/><path d="m58.17 29.778h-8.72c-.714 0-1.294-.58-1.294-1.293s.58-1.294 1.294-1.294h8.72c.714 0 1.294.58 1.294 1.294 0 .713-.58 1.293-1.294 1.293m.95 2.655c0 .332-.27.6-.6.6h-9.084c-.331 0-.6-.268-.6-.6 0-.33.269-.6.6-.6h9.084c.33 0 .6.27.6.6"/><path d="m58.52 33.727h-9.084c-.713 0-1.293-.58-1.293-1.293 0-.714.58-1.294 1.293-1.294h9.084c.713 0 1.293.58 1.293 1.294 0 .713-.58 1.293-1.293 1.293m-8.571 2.026h8.055c.331 0 .6.269.6.6s-.269.6-.6.6h-8.055c-.332 0-.6-.269-.6-.6s.268-.6.6-.6"/><path d="m49.949 37.646c-.714 0-1.294-.58-1.294-1.293s.58-1.293 1.294-1.293h8.055c.713 0 1.293.58 1.293 1.293s-.58 1.293-1.293 1.293zm.873 1.935h5.849c.331 0 .6.27.6.6 0 .332-.269.6-.6.6h-5.849c-.331 0-.6-.268-.6-.6 0-.33.269-.6.6-.6"/><path d="m56.67 41.475h-5.848c-.713 0-1.293-.58-1.293-1.294 0-.713.58-1.293 1.293-1.293h5.849c.713 0 1.293.58 1.293 1.293 0 .714-.58 1.294-1.293 1.294"/></g></svg>