<svg xmlns="http://www.w3.org/2000/svg" xmlns:xlink="http://www.w3.org/1999/xlink" width="581" height="398" viewBox="0 0 581 398">
  <defs>
    <path id="service-online-img-005-a" d="M0.0539143209,1.91022845 C0.0633538199,2.51580603 0.134579131,3.10337069 0.268448389,3.67549569 L0.268448389,3.67549569 L20.7676077,10.0229095 C20.6337384,9.45164224 20.5625131,8.86321983 20.5522155,8.25935776 L20.5522155,8.25935776 C20.5444923,7.65806897 20.5281877,7.02418534 20.505018,6.34569828 L20.505018,6.34569828 L0.00585868954,-0.00257327586 C0.0298865052,0.675913793 0.0453329581,1.31151293 0.0539143209,1.91022845"/>
    <path id="service-online-img-005-c" d="M0.0539143209,1.91022845 C0.0633538199,2.51580603 0.134579131,3.10337069 0.268448389,3.67549569 L0.268448389,3.67549569 L20.7676077,10.0229095 C20.6337384,9.45164224 20.5625131,8.86321983 20.5522155,8.25935776 L20.5522155,8.25935776 C20.5444923,7.65806897 20.5281877,7.02418534 20.505018,6.34569828 L20.505018,6.34569828 L0.00585868954,-0.00257327586 C0.0298865052,0.675913793 0.0453329581,1.31151293 0.0539143209,1.91022845"/>
    <path id="service-online-img-005-e" d="M0.0539143209,1.91022845 C0.0633538199,2.51580603 0.134579131,3.10337069 0.268448389,3.67549569 L0.268448389,3.67549569 L20.7676077,10.0229095 C20.6337384,9.45164224 20.5625131,8.86321983 20.5522155,8.25935776 L20.5522155,8.25935776 C20.5444923,7.65806897 20.5281877,7.02418534 20.505018,6.34569828 L20.505018,6.34569828 L0.00585868954,-0.00257327586 C0.0298865052,0.675913793 0.0453329581,1.31151293 0.0539143209,1.91022845"/>
    <path id="service-online-img-005-g" d="M0.0539143209,1.91022845 C0.0633538199,2.51580603 0.134579131,3.10337069 0.268448389,3.67549569 L0.268448389,3.67549569 L20.7676077,10.0229095 C20.6337384,9.45164224 20.5625131,8.86321983 20.5522155,8.25935776 L20.5522155,8.25935776 C20.5444923,7.65806897 20.5281877,7.02418534 20.505018,6.34569828 L20.505018,6.34569828 L0.00585868954,-0.00257327586 C0.0298865052,0.675913793 0.0453329581,1.31151293 0.0539143209,1.91022845"/>
    <path id="service-online-img-005-i" d="M0.54577467,2.36108891 C0.586107075,3.1116277 0.67706952,3.76781304 0.810080643,4.33993804 L0.810080643,4.33993804 L21.30924,10.6882096 C21.1762288,10.1169424 21.0852664,9.45989925 21.044934,8.71021822 L21.044934,8.71021822 C20.9994528,7.96482598 20.9496809,7.18769666 20.8930439,6.36682166 L20.8930439,6.36682166 L0.394742686,0.0185501132 C0.450521544,0.839425113 0.500293448,1.61826994 0.54577467,2.36108891"/>
    <path id="service-online-img-005-k" d="M0.54577467,2.36108891 C0.586107075,3.1116277 0.67706952,3.76781304 0.810080643,4.33993804 L0.810080643,4.33993804 L21.30924,10.6882096 C21.1762288,10.1169424 21.0852664,9.45989925 21.044934,8.71021822 L21.044934,8.71021822 C20.9994528,7.96482598 20.9496809,7.18769666 20.8930439,6.36682166 L20.8930439,6.36682166 L0.394742686,0.0185501132 C0.450521544,0.839425113 0.500293448,1.61826994 0.54577467,2.36108891"/>
  </defs>
  <g fill="none" fill-rule="evenodd" transform="translate(-972 -4770)">
    <rect width="1802" height="10587" fill="#FFF"/>
    <g transform="translate(972 4770)">
      <path fill="#F8F8F8" d="M420.353143,124.877101 L420.353143,124.877101 L420.350502,124.877101 C418.24593,125.014309 416.162483,125.226719 414.102802,125.528842 C381.126771,126.832325 355.269846,93.6172566 355.269846,93.6172566 L355.268525,93.6278112 C311.265277,38.5741252 245.388474,0 186.871071,0 C124.708297,0 89.5590382,43.5268328 94.9723039,104.099212 C95.4014042,115.63662 93.3271993,149.235609 56.0496032,160.204392 C56.0377204,160.20835 56.0271579,160.212308 56.0152751,160.214947 C55.809307,160.279593 55.6046591,160.341601 55.3973707,160.406247 C55.2125274,160.464297 55.0276842,160.522347 54.8494426,160.580397 C28.3376437,168.93034 0.355020904,183.225116 0,222.039356 C-0.843819404,316.35453 103.773482,325 103.773482,325 L521.425415,325 C521.425415,325 606.958974,321.999878 573.049486,238.406775 C547.597895,175.660165 476.690716,121.217322 420.353143,124.877101" transform="translate(0 54)"/>
      <g transform="translate(90)">
        <polygon fill="#FFF" points="149.778 156.761 129.279 150.413 129.167 147.379 149.667 153.726"/>
        <polygon stroke="#171717" points="149.778 156.761 129.279 150.413 129.167 147.379 149.667 153.726"/>
        <polygon fill="#FFF" points="169.382 47.724 157.237 43.902 175.35 27.048 187.495 30.871"/>
        <polygon stroke="#171717" points="169.382 47.724 157.237 43.902 175.35 27.048 187.495 30.871"/>
        <polygon fill="#FFF" points="149.667 153.726 138.954 147.379 135.564 93.814 146.278 100.163"/>
        <polygon stroke="#171717" points="149.667 153.726 138.954 147.379 135.564 93.814 146.278 100.163"/>
        <path fill="#FFF" d="M85.1272276,218.484416 L64.6280683,212.136144 C64.4950571,211.564877 64.4238318,210.976455 64.4135342,210.371735 C64.405811,209.772162 64.3895064,209.13742 64.3663367,208.458933 L84.8646379,214.807205 C84.8886657,215.484834 84.9041121,216.119575 84.9126935,216.720006 C84.9229911,217.323869 84.9942164,217.913149 85.1272276,218.484416"/>
        <g transform="translate(64.36 208.461)">
          <mask id="service-online-img-005-b" fill="#fff">
            <use xlink:href="#service-online-img-005-a"/>
          </mask>
          <path fill="#FFF" d="M20.767007,10.0233384 L0.267847694,3.67506681 C0.186324748,3.32595905 0.127971481,2.96998922 0.0927878941,2.60887284 L20.5919472,8.9571444 C20.6271308,9.31911853 20.6854841,9.6742306 20.767007,10.0233384" mask="url(#service-online-img-005-b)"/>
          <path stroke="#171717" d="M20.767007,10.0233384 L0.267847694,3.67506681 C0.186324748,3.32595905 0.127971481,2.96998922 0.0927878941,2.60887284 L20.5919472,8.9571444 C20.6271308,9.31911853 20.6854841,9.6742306 20.767007,10.0233384" mask="url(#service-online-img-005-b)"/>
          <mask id="service-online-img-005-d" fill="#fff">
            <use xlink:href="#service-online-img-005-c"/>
          </mask>
          <path fill="#FFF" d="M20.5918614,8.95697284 L0.0927020805,2.60955905 C0.0712486736,2.38225302 0.0575184932,2.15323147 0.0540859481,1.92163664 L20.5532453,8.26990819 C20.5566778,8.50150302 20.570408,8.73052457 20.5918614,8.95697284" mask="url(#service-online-img-005-d)"/>
          <path stroke="#171717" d="M20.5918614,8.95697284 L0.0927020805,2.60955905 C0.0712486736,2.38225302 0.0575184932,2.15323147 0.0540859481,1.92163664 L20.5532453,8.26990819 C20.5566778,8.50150302 20.570408,8.73052457 20.5918614,8.95697284" mask="url(#service-online-img-005-d)"/>
          <mask id="service-online-img-005-f" fill="#fff">
            <use xlink:href="#service-online-img-005-e"/>
          </mask>
          <path fill="#FFF" d="M20.5533311,8.27007974 L0.0541717618,1.92180819 C0.0533136255,1.91837716 0.0533136255,1.91494612 0.0533136255,1.91065733 C0.0533136255,1.87720474 0.0524554892,1.8428944 0.0524554892,1.80944181 L20.5516148,8.1568556 C20.5516148,8.19116595 20.5524729,8.22461853 20.5524729,8.25892888 C20.5533311,8.26235991 20.5533311,8.26579095 20.5533311,8.27007974" mask="url(#service-online-img-005-f)"/>
          <path stroke="#171717" d="M20.5533311,8.27007974 L0.0541717618,1.92180819 C0.0533136255,1.91837716 0.0533136255,1.91494612 0.0533136255,1.91065733 C0.0533136255,1.87720474 0.0524554892,1.8428944 0.0524554892,1.80944181 L20.5516148,8.1568556 C20.5516148,8.19116595 20.5524729,8.22461853 20.5524729,8.25892888 C20.5533311,8.26235991 20.5533311,8.26579095 20.5533311,8.27007974" mask="url(#service-online-img-005-f)"/>
          <mask id="service-online-img-005-h" fill="#fff">
            <use xlink:href="#service-online-img-005-g"/>
          </mask>
          <path fill="#FFF" d="M20.5517006,8.15702716 L0.0525413029,1.80961336 C0.0439599401,1.23920388 0.0276553509,0.637057328 0.00620194405,-0.00283060345 L20.5045031,6.34629871 C20.5268147,6.98618664 20.5422611,7.58747543 20.5517006,8.15702716" mask="url(#service-online-img-005-h)"/>
          <path stroke="#171717" d="M20.5517006,8.15702716 L0.0525413029,1.80961336 C0.0439599401,1.23920388 0.0276553509,0.637057328 0.00620194405,-0.00283060345 L20.5045031,6.34629871 C20.5268147,6.98618664 20.5422611,7.58747543 20.5517006,8.15702716" mask="url(#service-online-img-005-h)"/>
        </g>
        <path stroke="#171717" d="M85.1272276,218.484416 L64.6280683,212.136144 C64.4950571,211.564877 64.4238318,210.976455 64.4135342,210.371735 C64.405811,209.772162 64.3895064,209.13742 64.3663367,208.458933 L84.8646379,214.807205 C84.8886657,215.484834 84.9041121,216.119575 84.9126935,216.720006 C84.9229911,217.323869 84.9942164,217.913149 85.1272276,218.484416 Z"/>
        <polygon fill="#FFF" points="144.427 70.943 132.281 67.121 129.57 24.203 141.715 28.024"/>
        <polygon stroke="#171717" points="144.427 70.943 132.281 67.121 129.57 24.203 141.715 28.024"/>
        <polygon fill="#FFF" points="141.715 28.024 129.57 24.202 155.061 .484 167.207 4.306"/>
        <g transform="translate(63.556 .026)">
          <polygon stroke="#171717" points="78.159 27.999 66.014 24.176 91.505 .458 103.651 4.28"/>
          <path fill="#FFF" d="M21.3089825,214.781386 L0.809823202,208.433115 C0.676812079,207.86099 0.586707771,207.204804 0.546375366,206.454266 C0.500036007,205.710589 0.450264103,204.932602 0.394485245,204.111727 L20.8936446,210.459998 C20.9494234,211.280873 20.9991953,212.058003 21.0446765,212.802537 C21.085009,213.552218 21.1759714,214.209261 21.3089825,214.781386"/>
        </g>
        <g transform="translate(63.556 204.119)">
          <mask id="service-online-img-005-j" fill="#fff">
            <use xlink:href="#service-online-img-005-i"/>
          </mask>
          <path fill="#FFF" d="M21.3089825,10.6885527 L0.809823202,4.34028115 C0.714570075,3.92941477 0.640770356,3.47566046 0.591856588,2.97387166 L21.0910159,9.32214322 C21.1399297,9.82307425 21.2137294,10.2776863 21.3089825,10.6885527" mask="url(#service-online-img-005-j)"/>
          <path stroke="#171717" d="M21.3089825,10.6885527 L0.809823202,4.34028115 C0.714570075,3.92941477 0.640770356,3.47566046 0.591856588,2.97387166 L21.0910159,9.32214322 C21.1399297,9.82307425 21.2137294,10.2776863 21.3089825,10.6885527" mask="url(#service-online-img-005-j)"/>
          <mask id="service-online-img-005-l" fill="#fff">
            <use xlink:href="#service-online-img-005-k"/>
          </mask>
          <path fill="#FFF" d="M21.0911017,9.32231477 L0.591942402,2.97404322 C0.573063404,2.77675873 0.557616951,2.57346994 0.546461179,2.36160356 C0.500121821,1.61792684 0.450349917,0.83908201 0.394571059,0.0182070098 L20.8937304,6.36733632 C20.9495092,7.18821132 20.9992811,7.96534063 21.0447624,8.70987511 C21.0567763,8.92088373 21.0722227,9.12588804 21.0911017,9.32231477" mask="url(#service-online-img-005-l)"/>
          <path stroke="#171717" d="M21.0911017,9.32231477 L0.591942402,2.97404322 C0.573063404,2.77675873 0.557616951,2.57346994 0.546461179,2.36160356 C0.500121821,1.61792684 0.450349917,0.83908201 0.394571059,0.0182070098 L20.8937304,6.36733632 C20.9495092,7.18821132 20.9992811,7.96534063 21.0447624,8.70987511 C21.0567763,8.92088373 21.0722227,9.12588804 21.0911017,9.32231477" mask="url(#service-online-img-005-l)"/>
        </g>
        <path stroke="#171717" d="M84.8649811,214.807119 L64.3658218,208.458847 C64.2328107,207.886722 64.1427064,207.230537 64.102374,206.479998 C64.0560346,205.736322 64.0062627,204.958334 63.9504839,204.137459 L84.4496432,210.485731 C84.505422,211.306606 84.5551939,212.083735 84.6006752,212.82827 C84.6410076,213.577951 84.73197,214.234994 84.8649811,214.807119 Z"/>
        <polygon fill="#FFF" points="153.198 233.339 140.768 230.302 94.441 133.79 106.872 136.827"/>
        <polygon stroke="#171717" points="153.198 233.339 140.768 230.302 94.441 133.79 106.872 136.827"/>
        <polygon fill="#FFF" points="118.963 94.635 106.818 90.813 132.282 67.121 144.427 70.943"/>
        <polygon stroke="#171717" points="118.963 94.635 106.818 90.813 132.282 67.121 144.427 70.943"/>
        <polygon fill="#FFF" points="84.449 210.486 74.028 206.157 71.684 155.544 82.105 159.871"/>
        <polygon stroke="#171717" points="84.449 210.486 74.028 206.157 71.684 155.544 82.105 159.871"/>
        <polygon fill="#FFF" points="80.731 130.208 68.586 126.386 66.566 82.823 78.711 86.645"/>
        <polygon stroke="#171717" points="80.731 130.208 68.586 126.386 66.566 82.823 78.711 86.645"/>
        <polygon fill="#FFF" points="78.711 86.645 66.566 82.822 91.407 59.709 103.553 63.531"/>
        <polygon stroke="#171717" points="78.711 86.645 66.566 82.822 91.407 59.709 103.553 63.531"/>
        <polygon fill="#FFF" points="55.491 153.691 43.346 149.87 68.586 126.386 80.731 130.208"/>
        <polygon stroke="#171717" points="55.491 153.691 43.346 149.87 68.586 126.386 80.731 130.208"/>
        <polygon fill="#FFF" points="86.786 295.131 74.64 291.31 28.277 194.831 40.423 198.653"/>
        <polygon stroke="#171717" points="86.786 295.131 74.64 291.31 28.277 194.831 40.423 198.653"/>
        <polygon fill="#FFF" points=".028 190.174 12.173 193.996 30.147 177.272 18.002 173.45"/>
        <polygon stroke="#171717" points="12.173 193.996 .028 190.174 18.002 173.451 30.147 177.273"/>
        <polygon fill="#FFF" points="5.953 215.603 18.097 219.425 12.173 193.996 .027 190.174"/>
        <polygon stroke="#171717" points="18.098 219.425 5.953 215.603 .027 190.174 12.173 193.996"/>
        <polygon fill="#FFF" points="30.147 177.273 18.002 173.45 2.912 142.048 15.058 145.87"/>
        <polygon stroke="#171717" points="30.147 177.273 18.002 173.45 2.912 142.048 15.058 145.87"/>
        <polygon fill="#FFF" points="15.058 145.87 2.912 142.048 28.732 118.025 40.877 121.847"/>
        <polygon stroke="#171717" points="15.058 145.87 2.912 142.048 28.732 118.025 40.877 121.847"/>
        <g transform="translate(12.068 4.26)">
          <path fill="#FFF" d="M137.598976,149.46532 L134.210196,95.9017251 L117.389009,111.551531 L136.620701,150.375402 L137.710534,152.50007 L137.598976,149.46532 L137.598976,149.46532 Z M72.3814778,206.224923 L70.0370495,155.610303 L53.3771918,171.110001 L70.947532,209.388337 C71.1526266,209.722863 71.343991,210.108854 71.513902,210.559178 C71.6855292,211.012932 71.8768936,211.402354 72.0845626,211.730018 C72.21929,212.306432 72.3608825,212.782488 72.5170633,213.158186 C72.6680953,213.539889 72.8517364,213.895001 73.0594054,214.223523 C72.9263943,213.652255 72.855169,213.063833 72.8448713,212.459113 C72.83629,211.858682 72.8208435,211.223941 72.7968157,210.546311 C72.6638046,209.974186 72.5737003,209.317143 72.5333679,208.567462 C72.4870285,207.822928 72.4372566,207.045798 72.3814778,206.224923 L72.3814778,206.224923 Z M157.314657,43.4626518 L175.42734,26.6094105 L181.352771,52.0385225 L158.798375,73.0235872 L165.486689,206.417061 L141.130207,229.078186 L94.8037205,132.56576 L92.653231,134.56691 C92.7399027,137.296298 92.8694813,139.82926 93.0471155,142.281591 L99.3998983,267.905488 L74.7181828,290.87026 L28.3547962,194.393001 L6.03038104,215.164484 L0.104950066,189.735372 L18.0794725,173.011652 L2.99000422,141.609109 L28.8096084,117.585863 L43.4236692,149.430152 L68.6631733,125.947294 L66.6431205,82.3834493 L91.4853075,59.2702855 L106.895719,90.3743286 L132.359196,66.6821777 L129.646628,23.7633674 L155.138424,0.0446259753 L157.314657,43.4626518 Z"/>
          <path stroke="#171717" d="M137.598976,149.46532 L134.210196,95.9017251 L117.389009,111.551531 L136.620701,150.375402 L137.710534,152.50007 L137.598976,149.46532 L137.598976,149.46532 Z M72.3814778,206.224923 L70.0370495,155.610303 L53.3771918,171.110001 L70.947532,209.388337 C71.1526266,209.722863 71.343991,210.108854 71.513902,210.559178 C71.6855292,211.012932 71.8768936,211.402354 72.0845626,211.730018 C72.21929,212.306432 72.3608825,212.782488 72.5170633,213.158186 C72.6680953,213.539889 72.8517364,213.895001 73.0594054,214.223523 C72.9263943,213.652255 72.855169,213.063833 72.8448713,212.459113 C72.83629,211.858682 72.8208435,211.223941 72.7968157,210.546311 C72.6638046,209.974186 72.5737003,209.317143 72.5333679,208.567462 C72.4870285,207.822928 72.4372566,207.045798 72.3814778,206.224923 L72.3814778,206.224923 Z M157.314657,43.4626518 L175.42734,26.6094105 L181.352771,52.0385225 L158.798375,73.0235872 L165.486689,206.417061 L141.130207,229.078186 L94.8037205,132.56576 L92.653231,134.56691 C92.7399027,137.296298 92.8694813,139.82926 93.0471155,142.281591 L99.3998983,267.905488 L74.7181828,290.87026 L28.3547962,194.393001 L6.03038104,215.164484 L0.104950066,189.735372 L18.0794725,173.011652 L2.99000422,141.609109 L28.8096084,117.585863 L43.4236692,149.430152 L68.6631733,125.947294 L66.6431205,82.3834493 L91.4853075,59.2702855 L106.895719,90.3743286 L132.359196,66.6821777 L129.646628,23.7633674 L155.138424,0.0446259753 L157.314657,43.4626518 Z"/>
          <path stroke="#0043D0" stroke-linecap="round" stroke-linejoin="round" stroke-width="3" d="M59.0233853,73.1236018 C59.0233853,73.1236018 77.623489,63.834076 93.6697792,133.621317"/>
          <path fill="#FFF" d="M355.627633,286.429472 L344.102863,294.597907 L331.533741,292.082959 L331.870989,297.686696 L346.338308,301.09114 L357.512959,295.435937 C357.512959,295.435937 360.027298,293.202334 359.259266,290.618765 C359.259266,290.618765 357.652835,286.499808 355.627633,286.429472"/>
          <path stroke="#171717" d="M355.627633,286.429472 L344.102863,294.597907 L331.533741,292.082959 L331.870989,297.686696 L346.338308,301.09114 L357.512959,295.435937 C357.512959,295.435937 360.027298,293.202334 359.259266,290.618765 C359.259266,290.618765 357.652835,286.499808 355.627633,286.429472 Z"/>
          <path fill="#FFF" d="M331.672673,293.397903 C331.672673,293.397903 327.88486,290.862368 327.529592,292.499829 C327.529592,292.499829 327.435197,293.265808 326.692909,293.390183 C326.692909,293.390183 325.040138,294.746299 327.644582,297.239804 C327.644582,297.239804 329.071662,298.566756 331.81255,296.804062 L331.672673,293.397903 Z"/>
          <path stroke="#171717" d="M331.672673,293.397903 C331.672673,293.397903 327.88486,290.862368 327.529592,292.499829 C327.529592,292.499829 327.435197,293.265808 326.692909,293.390183 C326.692909,293.390183 325.040138,294.746299 327.644582,297.239804 C327.644582,297.239804 329.071662,298.566756 331.81255,296.804062 L331.672673,293.397903 Z"/>
          <polygon fill="#FFF" points="369.178 285.173 359.405 285.707 354.503 320.753 362.878 322.632"/>
          <polygon stroke="#74B0F5" stroke-linecap="round" stroke-linejoin="round" stroke-width="2" points="369.178 285.173 359.405 285.707 354.503 320.753 362.878 322.632"/>
          <path fill="#FFF" d="M327.987922,355.144772 C327.987922,355.144772 325.585999,361.147367 321.623983,361.309483 L325.834,364.985837 L330.929613,362.580682 C330.929613,362.580682 333.21483,357.568798 333.0904,356.290738 L327.987922,355.144772 Z"/>
          <path stroke="#171717" d="M327.987922,355.144772 C327.987922,355.144772 325.585999,361.147367 321.623983,361.309483 L325.834,364.985837 L330.929613,362.580682 C330.929613,362.580682 333.21483,357.568798 333.0904,356.290738 L327.987922,355.144772 Z"/>
          <path fill="#0A0A0A" d="M324.42966,360.210952 C324.42966,360.210952 326.169102,360.024818 326.711444,361.76521 L325.908229,363.533909 L328.212325,362.307314 C328.212325,362.307314 329.316746,362.687301 330.95407,361.850986 C330.95407,361.850986 330.695771,364.570939 330.022992,366.183525 C330.022992,366.183525 327.917126,365.570228 325.535798,365.77609 C325.407935,365.788098 325.278357,365.794103 325.149636,365.788956 C324.864735,365.776948 324.22714,365.781236 323.521752,365.989672 C322.837817,366.19296 322.139294,366.341353 321.426183,366.379094 C319.940749,366.456292 317.664972,366.406542 316.461007,365.534202 C316.461007,365.534202 314.169783,364.190094 315.563396,362.7259 C315.563396,362.7259 317.810855,361.271141 324.42966,360.210952"/>
          <path fill="#FFF" d="M350.120973,358.435134 C350.120973,358.435134 350.216226,364.703634 346.703874,365.270613 L350.847814,368.095212 L355.129914,365.408712 C355.129914,365.408712 355.456864,359.020983 355.210579,357.894746 L350.120973,358.435134 Z"/>
          <path stroke="#171717" d="M350.120973,358.435134 C350.120973,358.435134 350.216226,364.703634 346.703874,365.270613 L350.847814,368.095212 L355.129914,365.408712 C355.129914,365.408712 355.456864,359.020983 355.210579,357.894746 L350.120973,358.435134 Z"/>
          <path fill="#0A0A0A" d="M349.085202,363.991266 C349.085202,363.991266 350.616118,363.640442 351.284606,365.132085 L350.75771,366.795279 L352.679935,365.45546 C352.679935,365.45546 353.705408,365.675904 355.074135,364.756386 C355.074135,364.756386 355.773517,367.162399 355.346165,368.671197 C355.346165,368.671197 352.766607,368.394141 350.666748,368.832455 C350.553474,368.855615 350.439341,368.874485 350.323493,368.883921 C350.068627,368.904507 349.50054,368.976559 348.895554,369.237317 C348.307731,369.491214 347.701029,369.697934 347.06944,369.807727 C345.753917,370.035891 343.721851,370.234033 342.555643,369.585567 C342.555643,369.585567 340.370829,368.632598 341.455513,367.179554 C341.455513,367.179554 343.30308,365.643309 349.085202,363.991266"/>
          <path fill="#FFF" d="M358.420781,273.862965 L357.024593,279.16906 L358.420781,279.72746 C358.420781,279.72746 358.700534,282.660137 361.494625,282.241551 L361.494625,285.17337 L364.139401,285.399818 L367.221827,284.195525 L366.383428,278.331029 L363.73007,271.488689 L358.420781,273.862965 Z"/>
          <path stroke="#171717" d="M358.420781,273.862965 L357.024593,279.16906 L358.420781,279.72746 C358.420781,279.72746 358.700534,282.660137 361.494625,282.241551 L361.494625,285.17337 L364.139401,285.399818 L367.221827,284.195525 L366.383428,278.331029 L363.73007,271.488689 L358.420781,273.862965 Z"/>
          <path fill="#0A0A0A" d="M350.039707,319.707761 L336.260613,334.539266 C335.765469,335.072791 335.371584,335.692951 335.099555,336.367149 L326.638331,357.314473 L332.345796,360.107335 L344.153751,338.792033 C344.589684,338.00461 345.22213,337.348425 345.993595,336.885235 C349.951319,334.51096 362.713522,326.668473 364.753312,323.059024 L350.039707,319.707761 Z"/>
          <path fill="#0A0A0A" d="M369.168423,320.958459 C369.168423,320.958459 370.665013,328.499015 362.835377,333.897748 L355.800376,338.616278 C354.609283,340.227149 354.05836,342.22058 354.252298,344.213153 L355.981443,361.969614 L349.294845,361.969614 L347.467015,342.001851 C347.348592,340.717787 347.732179,339.437153 348.534536,338.427571 L358.850192,321.715002 L369.168423,320.958459 Z"/>
          <path fill="#FFF" d="M355.627633,286.429472 L360.376559,285.521963 L361.718685,304.203088 L369.177605,285.172855 C369.177605,285.172855 379.31906,284.00373 376.059858,295.918855 L371.310074,312.022416 L370.246843,326.07336 L359.405149,324.025032 L360.376559,310.99911 L355.479176,323.283071 L345.919538,321.476631 L352.135019,308.630838 L355.487757,294.737722 L355.627633,286.429472 Z"/>
          <path stroke="#171717" d="M355.627633,286.429472 L360.376559,285.521963 L361.718685,304.203088 L369.177605,285.172855 C369.177605,285.172855 379.31906,284.00373 376.059858,295.918855 L371.310074,312.022416 L370.246843,326.07336 L359.405149,324.025032 L360.376559,310.99911 L355.479176,323.283071 L345.919538,321.476631 L352.135019,308.630838 L355.487757,294.737722 L355.627633,286.429472 Z"/>
          <path fill="#0A0A0A" d="M356.046661,271.489032 C356.046661,271.489032 355.208262,275.887618 359.538418,274.631002 C359.538418,274.631002 362.892014,272.499472 363.449803,274.856592 C363.449803,274.856592 362.75128,277.005278 363.938941,276.515498 C363.938941,276.515498 364.707831,274.909773 365.545372,275.678325 C365.545372,275.678325 366.104018,276.865463 364.917216,277.981407 C364.917216,277.981407 365.126601,280.844605 366.802541,280.774269 C366.802541,280.774269 369.25252,277.597989 367.9636,273.114485 C367.886367,272.843433 367.759363,272.586105 367.598034,272.357084 C367.04711,271.577381 365.603725,269.868726 363.320224,269.51876 C362.706657,269.425265 362.079359,269.546209 361.537875,269.848998 C360.710632,270.311329 359.19688,270.98467 357.862478,270.651002 C357.862478,270.651002 356.111022,270.650144 356.046661,271.489032"/>
          <polygon fill="#FFF" points="361.495 283.166 360.376 285.522 362.123 287.634 364.139 285.4"/>
          <polygon stroke="#171717" points="361.495 283.166 360.376 285.522 362.123 287.634 364.139 285.4"/>
          <polygon fill="#FFF" points="364.139 285.4 366.981 282.508 369.178 285.173 366.002 287.634"/>
          <polygon stroke="#171717" points="364.139 285.4 366.981 282.508 369.178 285.173 366.002 287.634"/>
          <path stroke="#0043D0" stroke-linecap="round" stroke-linejoin="round" stroke-width="3" d="M63.6333791 68.4762656C63.6333791 68.4762656 82.0052186 56.3346924 94.803463 132.566274M93.0471155 142.28202C93.0471155 142.28202 270.292589 261.601391 346.760254 304.859016 346.760254 304.859016 383.510798 326.466813 387.494266 360.127835 387.494266 360.127835 397.098528 395.139826 447.380164 392.316943"/>
          <path fill="#FFF" d="M349.739703,307.31049 C349.739703,307.31049 345.951889,304.774098 345.596621,306.411559 C345.596621,306.411559 345.502226,307.177538 344.759938,307.301913 C344.759938,307.301913 343.107168,308.658029 345.711611,311.152391 C345.711611,311.152391 347.138692,312.478486 349.879579,310.715792 L349.739703,307.31049 Z"/>
          <path stroke="#171717" d="M349.739703,307.31049 C349.739703,307.31049 345.951889,304.774098 345.596621,306.411559 C345.596621,306.411559 345.502226,307.177538 344.759938,307.301913 C344.759938,307.301913 343.107168,308.658029 345.711611,311.152391 C345.711611,311.152391 347.138692,312.478486 349.879579,310.715792 L349.739703,307.31049 Z"/>
          <g transform="translate(348.403 289.118)">
            <path fill="#FFF" d="M21.9072751,3.87243707 L14.6671794,15.0661871 L0.791973967,17.0201612 L1.35062068,22.5123897 L17.4612711,21.1168164 L27.4070705,7.29746724 C27.5838466,6.94492845 27.7134252,6.57523448 27.7932318,6.1892431 C28.0017589,5.18995431 28.3021066,3.18108362 28.0807075,0.553768966"/>
            <path stroke="#171717" d="M21.9072751,3.87243707 L14.6671794,15.0661871 L0.791973967,17.0201612 L1.35062068,22.5123897 L17.4612711,21.1168164 L27.4070705,7.29746724 C27.5838466,6.94492845 27.7134252,6.57523448 27.7932318,6.1892431 C28.0017589,5.18995431 28.3021066,3.18108362 28.0807075,0.553768966"/>
          </g>
        </g>
      </g>
    </g>
    <g transform="translate(0 56)">
      <rect width="1799" height="80" y="4673"/>
      <rect width="1799" height="130" y="4780"/>
      <rect width="1799" height="50" y="4949"/>
      <rect width="1799" height="30" y="5023"/>
      <rect width="1799" height="20" y="5068"/>
      <rect width="1799" height="50" y="5108"/>
    </g>
  </g>
</svg>
