<svg height="68" viewBox="0 0 72 68" width="72" xmlns="http://www.w3.org/2000/svg"><g fill="#0049f8" fill-rule="evenodd"><path d="m68.63 9.587h-65.362v-3.05c0-1.804 1.465-3.269 3.268-3.269h58.826c1.803 0 3.268 1.465 3.268 3.268v3.268zm0 51.166c0 1.803-1.465 3.268-3.268 3.268h-58.826c-1.803 0-3.268-1.465-3.268-3.268v-47.898h65.362zm-3.268-60.753h-58.826c-3.603 0-6.536 2.933-6.536 6.536v54.217c0 3.603 2.933 6.536 6.536 6.536h58.826c3.603 0 6.536-2.933 6.536-6.536v-54.217c0-3.603-2.933-6.536-6.536-6.536z"/><path d="m11.438 31.34c1.012 0 2.024.08 3.004.237.086.012.172.019.258.019.788 0 1.484-.575 1.612-1.379.14-.89-.466-1.727-1.36-1.87-1.149-.182-2.33-.275-3.514-.275-.903 0-1.634.731-1.634 1.634s.731 1.634 1.634 1.634m7.957 1.733c1.57.722 3.038 1.657 4.366 2.78.306.259.683.386 1.056.386.463 0 .926-.198 1.248-.577.584-.69.498-1.72-.192-2.305-1.554-1.315-3.274-2.41-5.112-3.252-.827-.38-1.79-.019-2.167.801s-.02 1.79.8 2.167m10.136 11.257c.23.68.866 1.11 1.549 1.11.172 0 .348-.029.523-.086.855-.287 1.315-1.216 1.025-2.071-.651-1.928-1.558-3.753-2.7-5.426-.508-.75-1.529-.935-2.27-.43-.746.507-.938 1.525-.43 2.268.973 1.43 1.749 2.988 2.304 4.635m2.457 3.399c-.893.127-1.516.957-1.388 1.848l.463 3.236c.115.807.804 1.404 1.618 1.404s1.503-.597 1.618-1.404l.463-3.236c.127-.89-.495-1.72-1.389-1.848-.233-.03-.472-.016-.692.05-.217-.066-.46-.08-.693-.05m2.209-3.859c.207.09.424.13.638.13.635 0 1.242-.373 1.503-.995.865-2.033 2.075-3.894 3.604-5.53.612-.661.577-1.695-.083-2.311-.661-.61-1.692-.575-2.311.083-1.784 1.918-3.204 4.098-4.216 6.482-.354.83.035 1.79.865 2.141m19.726-19.066c2.704 0 4.903 2.2 4.903 4.902 0 2.703-2.2 4.902-4.903 4.902s-4.902-2.199-4.902-4.902 2.2-4.902 4.902-4.902m-9.437 8.876c.252 0 .508-.058.747-.18.386-.199.815-.335 1.221-.51 1.268 2.873 4.133 4.886 7.47 4.886 4.506 0 8.17-3.663 8.17-8.17 0-4.506-3.664-8.17-8.17-8.17-4.507 0-8.17 3.664-8.17 8.17 0 .016.004.03.004.045-.681.268-1.378.512-2.019.84-.8.414-1.12 1.397-.708 2.201.29.565.865.888 1.455.888"/></g></svg>