<svg xmlns="http://www.w3.org/2000/svg" width="55" height="55" viewBox="0 0 55 55">
    <path fill="#444" fill-rule="evenodd" d="M40.617 26.304c-.076-3.783-.516-7.468-1.286-10.819 3.13-.69 5.977-1.674 8.35-2.885 2.978 4 4.648 8.695 4.877 13.704h-11.94zM47.68 42.4c-2.376-1.212-5.225-2.195-8.348-2.884.77-3.352 1.209-7.036 1.286-10.82H52.56c-.232 4.99-1.903 9.683-4.881 13.704zm-13.93 9.42c2.048-2.26 3.774-5.66 5.006-9.982 2.76.605 5.273 1.447 7.392 2.474-3.336 3.715-7.642 6.295-12.397 7.507zm-6.249.79c-3.467 0-6.892-4.36-8.9-11.22 2.789-.48 5.767-.736 8.9-.736 3.13 0 6.106.257 8.9.736-2.007 6.858-5.434 11.22-8.9 11.22zM8.853 44.31c2.116-1.026 4.627-1.867 7.392-2.473 1.232 4.324 2.957 7.722 5.005 9.981-4.753-1.212-9.06-3.792-12.397-7.508zM7.318 42.4c-2.977-4-4.648-8.693-4.877-13.704h11.942c.077 3.782.517 7.467 1.287 10.82-3.13.69-5.978 1.673-8.352 2.884zm0-29.8c2.376 1.212 5.225 2.196 8.35 2.885-.77 3.354-1.208 7.038-1.286 10.82H2.44c.23-5.01 1.9-9.704 4.878-13.705zM21.25 3.182c-2.048 2.26-3.773 5.659-5.005 9.98-2.762-.604-5.275-1.445-7.393-2.471 3.336-3.717 7.644-6.297 12.398-7.51zm6.25-.79c3.466 0 6.891 4.36 8.9 11.22-2.788.479-5.768.735-8.9.735-3.13 0-6.105-.256-8.9-.736 2.008-6.858 5.433-11.22 8.9-11.22zm10.726 26.304c-.076 3.634-.501 7.165-1.244 10.369-2.973-.524-6.147-.804-9.482-.804-3.337 0-6.515.281-9.483.804-.743-3.204-1.166-6.735-1.244-10.37h21.453zm-21.453-2.392c.077-3.632.501-7.164 1.244-10.368 2.974.524 6.149.803 9.483.803 3.338 0 6.514-.28 9.482-.803.743 3.2 1.166 6.734 1.244 10.368H16.773zm29.375-15.613c-2.117 1.025-4.628 1.867-7.392 2.473-1.233-4.323-2.958-7.722-5.006-9.981 4.753 1.21 9.06 3.791 12.398 7.508zM27.5 0C19.098 0 11.274 3.759 6.04 10.31 2.087 15.212 0 21.156 0 27.5c0 6.344 2.088 12.288 6.037 17.188C11.274 51.241 19.097 55 27.5 55c8.402 0 16.225-3.759 21.461-10.312C52.913 39.758 55 33.815 55 27.5c0-6.344-2.089-12.288-6.037-17.188C43.725 3.76 35.903 0 27.5 0z"/>
</svg>
