<svg id="레이어_1" data-name="레이어 1" xmlns="http://www.w3.org/2000/svg" viewBox="0 0 198.9 56.55"><title>logo</title><path d="M299.15,635.91a6.85,6.85,0,0,1-2.92-.56,3.5,3.5,0,0,1-1.73-1.61,3.59,3.59,0,0,1-.15-2.29,4,4,0,0,1,1.35-2.06,9.68,9.68,0,0,1,4.35-2.29,16.47,16.47,0,0,1,7-.11,42.12,42.12,0,0,0,2.85-7.31q1.2-4.09,2.32-8.66-4.2,4.43-8.66,8.47a111.57,111.57,0,0,1-8.62,7.13,59.46,59.46,0,0,1-7.76,5,13.8,13.8,0,0,1-6.08,1.88.85.85,0,0,1-.71-.34,1.25,1.25,0,0,1-.26-.79.86.86,0,0,1,1-1,13.77,13.77,0,0,0,6.26-2.1,62.37,62.37,0,0,0,8.14-5.51q4.35-3.41,9-7.76t8.81-8.93a2,2,0,0,1,0-.41,2.61,2.61,0,0,0,0-.49q1.27-5.18,2.59-10a65.22,65.22,0,0,1,2.92-8.55,19.79,19.79,0,0,1,3.79-6,6.87,6.87,0,0,1,5.1-2.25,4,4,0,0,1,2.77.94,3.39,3.39,0,0,1,1,2.66,10.76,10.76,0,0,1-1.27,4.39,51.43,51.43,0,0,1-3.45,6q-2.18,3.3-5.14,7t-6.41,7.54q-1.28,5.4-2.7,10.54a55.25,55.25,0,0,1-3.37,9.19l1.88.49a10.06,10.06,0,0,1,1.88.71,21.69,21.69,0,0,0,7.69,2,14.75,14.75,0,0,0,6.34-1.16,25.27,25.27,0,0,0,6-3.71q3-2.44,6.6-5.74l1.73-1.57a1,1,0,0,1,1.43.15,1,1,0,0,1,.19.71,1.13,1.13,0,0,1-.34.71l-1.65,1.58q-3.68,3.38-6.82,6a25.56,25.56,0,0,1-6.41,3.94,17.24,17.24,0,0,1-7,1.27,23.6,23.6,0,0,1-8.55-2.1l-2-.71q-1-.34-2-.64a15.37,15.37,0,0,1-3.82,4.72A8,8,0,0,1,299.15,635.91Zm4.35-7.12a11.11,11.11,0,0,0-3.86.6,6.74,6.74,0,0,0-2.44,1.42,1.86,1.86,0,0,0-.67,2q.45,1,2.63,1a5.86,5.86,0,0,0,3.67-1.28A14.72,14.72,0,0,0,306,629,15.12,15.12,0,0,0,303.5,628.78Zm24.23-47.25a4.94,4.94,0,0,0-3.75,1.84,18.4,18.4,0,0,0-3,4.91,59.14,59.14,0,0,0-2.51,7q-1.16,3.94-2.21,8.21,2.77-3.22,5.21-6.34t4.2-5.81a40,40,0,0,0,2.77-4.87,8.93,8.93,0,0,0,1-3.52,1.55,1.55,0,0,0-.34-1A1.77,1.77,0,0,0,327.73,581.53Z" transform="translate(-280.1 -579.36)" style="fill:#777992"/><path d="M350.83,634.18h-.52a3.31,3.31,0,0,1-1.09-.49,1.93,1.93,0,0,1-.71-.94q-.45-1.27.64-3.75a33.17,33.17,0,0,1,3-5.33q-2.1,1.88-4.24,3.6t-4.16,3.08a23.49,23.49,0,0,1-3.9,2.14,8.83,8.83,0,0,1-3.37.79,3.08,3.08,0,0,1-2-.52,3.73,3.73,0,0,1-.9-1.12,3.62,3.62,0,0,1,.15-2.48,15.18,15.18,0,0,1,1.69-3.26,44.67,44.67,0,0,1,2.66-3.6q1.5-1.84,3-3.52t3-3.11l2.25-2.25a1.2,1.2,0,0,1,1.5,0,1.29,1.29,0,0,1,0,1.65q-2.47,2.33-4.76,4.84T339,624.62a29.57,29.57,0,0,0-2.7,3.9q-.94,1.69-.71,2.36c0,.1.3.15.9.15a8.29,8.29,0,0,0,3.79-1.2,37.19,37.19,0,0,0,4.73-3.11q2.51-1.91,5.18-4.35t5.1-4.84q2.44-2.4,4.5-4.61t3.34-3.71a1.3,1.3,0,0,1,1.65-.15.93.93,0,0,1,.38.75,1.3,1.3,0,0,1-.3.83q-3.15,3.75-5.89,7.31t-4.69,6.49a47.87,47.87,0,0,0-3,5q-1,2-.79,2.63a8.11,8.11,0,0,0,4-1.16,52.41,52.41,0,0,0,5.7-3.37q3.07-2.06,6.19-4.46t5.44-4.42a1,1,0,0,1,.82-.34,1.32,1.32,0,0,1,.83.41,1.09,1.09,0,0,1,.26.79,1,1,0,0,1-.41.71l-1.84,1.54q-1.39,1.16-3.37,2.74t-4.35,3.3q-2.36,1.73-4.73,3.15a37.83,37.83,0,0,1-4.54,2.36A9.77,9.77,0,0,1,350.83,634.18Z" transform="translate(-280.1 -579.36)" style="fill:#777992"/><path d="M371.23,634.41a5.72,5.72,0,0,1-4-1.35,3.16,3.16,0,0,1-1-1.42,5.3,5.3,0,0,1-.34-1.87,11.62,11.62,0,0,1,1.76-5.59,27.35,27.35,0,0,1,4.5-5.85,28.62,28.62,0,0,1,6-4.61,12.58,12.58,0,0,1,6.26-1.87,4.74,4.74,0,0,1,2.66.56,2.57,2.57,0,0,1,1,1.24q.6,1.57-1.09,4a41,41,0,0,1-5.89,6.26,1.21,1.21,0,0,1-.75.23,1,1,0,0,1-.75-.3,1.36,1.36,0,0,1,.07-1.65,48.79,48.79,0,0,0,3.86-3.71,18.75,18.75,0,0,0,1.88-2.36,3.64,3.64,0,0,0,.6-1.31c0-.27,0-.44,0-.49a4.38,4.38,0,0,0-.49-.19,4.13,4.13,0,0,0-1.16-.11,10.9,10.9,0,0,0-5.59,1.72,26.63,26.63,0,0,0-5.33,4.2,25.17,25.17,0,0,0-4,5.17,9.82,9.82,0,0,0-1.54,4.65,1.87,1.87,0,0,0,.75,1.65q.53.68,2.48.68a20.76,20.76,0,0,0,6.22-1,46.5,46.5,0,0,0,6.26-2.48,53.51,53.51,0,0,0,5.77-3.22q2.74-1.76,4.8-3.26t4.46-3.52q.75-.75,1.65.07a.92.92,0,0,1,.23.68,1.15,1.15,0,0,1-.37.82q-.15.15-1.46,1.24t-3.45,2.66q-2.14,1.57-5,3.41a52.77,52.77,0,0,1-6,3.38,44.61,44.61,0,0,1-6.56,2.55A22.91,22.91,0,0,1,371.23,634.41Z" transform="translate(-280.1 -579.36)" style="fill:#777992"/><path d="M399,634.41a5.59,5.59,0,0,1-4.12-1.42,4.47,4.47,0,0,1-1.5-3.6,12,12,0,0,1,1.65-5.55,26.24,26.24,0,0,1,4.2-5.74,25.49,25.49,0,0,1,5.66-4.46,12.16,12.16,0,0,1,6.11-1.8,11,11,0,0,1,2.14.19,3.17,3.17,0,0,1,1.46.64,3.22,3.22,0,0,1,1.42,2.7,6.65,6.65,0,0,1-1.24,3.56,17,17,0,0,1-3.19,3.6,19.14,19.14,0,0,1-4.31,2.81,10.84,10.84,0,0,1-4.69,1.13,6,6,0,0,1-3.56-.83,4.58,4.58,0,0,1-1.46-1.65.22.22,0,0,0-.07-.15,24.19,24.19,0,0,0-1.39,3,7.35,7.35,0,0,0-.56,2.59,3.15,3.15,0,0,0,.6,2,4.78,4.78,0,0,0,2.85.68,20.76,20.76,0,0,0,6.23-1,46.52,46.52,0,0,0,6.26-2.48,53.51,53.51,0,0,0,5.77-3.22q2.74-1.76,4.8-3.26t3.26-2.51a11,11,0,0,1,1.28-1,.67.67,0,0,1,.67-.34,1.32,1.32,0,0,1,.83.41.92.92,0,0,1,.22.68,1.29,1.29,0,0,1-.3.82q-.22.15-1.54,1.24T423,624.06q-2.14,1.57-5,3.41a52.82,52.82,0,0,1-6,3.38,45.34,45.34,0,0,1-6.52,2.55A22.54,22.54,0,0,1,399,634.41Zm2-15.15s-.05.13-.15.22a6.35,6.35,0,0,0-1.12,1.84,2.6,2.6,0,0,0-.15,1.91,1.55,1.55,0,0,0,1.31.83,11.81,11.81,0,0,0,1.69.15,9.11,9.11,0,0,0,4-1,17.36,17.36,0,0,0,3.64-2.33,14.32,14.32,0,0,0,2.66-2.89,5,5,0,0,0,1-2.66,1.09,1.09,0,0,0-.52-.9,2.93,2.93,0,0,0-.79-.3A6.65,6.65,0,0,0,411,614a10.3,10.3,0,0,0-5.21,1.5A21.88,21.88,0,0,0,401,619.26Z" transform="translate(-280.1 -579.36)" style="fill:#777992"/><path d="M434,595.71a1,1,0,0,1-1.12-.9,1.28,1.28,0,0,1,1-1.35l10.13-.68q1.5-1.72,2.85-3.37t2.63-3.07a1.51,1.51,0,0,1,.83-.45.91.91,0,0,1,.82.3,1.68,1.68,0,0,1,.3.71.87.87,0,0,1-.3.79q-1.05,1.2-2.1,2.44t-2.1,2.51l20.77-1.28a1.38,1.38,0,0,1,.79.23.83.83,0,0,1,.34.75q.22,1-1,1.13L445,595q-4.2,5.25-7.91,10.54t-6.34,9.94a55.67,55.67,0,0,0-3.94,8.29q-1.31,3.64-.64,5.51a2.35,2.35,0,0,0,1.88,1.65,7.2,7.2,0,0,0,4.42-.64,35,35,0,0,0,5.44-2.89q2.81-1.8,5.59-4l4.95-3.9,1.13-1a1,1,0,0,1,.79-.22,1.51,1.51,0,0,1,.79.45,1,1,0,0,1,.23.79,1.17,1.17,0,0,1-.45.71l-1.12,1.05q-2.4,2-5.1,4T439.29,629a35.61,35.61,0,0,1-5.4,2.89,12.72,12.72,0,0,1-4.91,1.13h-.71A4.38,4.38,0,0,1,424.1,630q-.82-2.47.52-6.52a50.93,50.93,0,0,1,4-8.78,115.09,115.09,0,0,1,6.26-9.83q3.6-5.1,7.27-9.75Z" transform="translate(-280.1 -579.36)" style="fill:#777992"/><path d="M449.67,634.41a5.59,5.59,0,0,1-4.12-1.42,4.47,4.47,0,0,1-1.5-3.6,12,12,0,0,1,1.65-5.55,26.24,26.24,0,0,1,4.2-5.74,25.49,25.49,0,0,1,5.66-4.46,12.16,12.16,0,0,1,6.11-1.8,11,11,0,0,1,2.14.19,3.17,3.17,0,0,1,1.46.64,3.22,3.22,0,0,1,1.42,2.7,6.65,6.65,0,0,1-1.24,3.56,17,17,0,0,1-3.19,3.6,19.14,19.14,0,0,1-4.31,2.81,10.84,10.84,0,0,1-4.69,1.13,6,6,0,0,1-3.56-.83,4.58,4.58,0,0,1-1.46-1.65.22.22,0,0,0-.07-.15,24.19,24.19,0,0,0-1.39,3,7.35,7.35,0,0,0-.56,2.59,3.15,3.15,0,0,0,.6,2,4.78,4.78,0,0,0,2.85.68,20.76,20.76,0,0,0,6.23-1,46.52,46.52,0,0,0,6.26-2.48,53.51,53.51,0,0,0,5.77-3.22q2.74-1.76,4.8-3.26T476,619.6a11,11,0,0,1,1.28-1,.67.67,0,0,1,.67-.34,1.32,1.32,0,0,1,.83.41.92.92,0,0,1,.22.68,1.29,1.29,0,0,1-.3.82q-.22.15-1.54,1.24t-3.45,2.66q-2.14,1.57-5,3.41a52.82,52.82,0,0,1-6,3.38,45.34,45.34,0,0,1-6.52,2.55A22.54,22.54,0,0,1,449.67,634.41Zm2-15.15s-.05.13-.15.22a6.35,6.35,0,0,0-1.12,1.84,2.6,2.6,0,0,0-.15,1.91,1.55,1.55,0,0,0,1.31.83,11.81,11.81,0,0,0,1.69.15,9.11,9.11,0,0,0,4-1,17.36,17.36,0,0,0,3.64-2.33,14.32,14.32,0,0,0,2.66-2.89,5,5,0,0,0,1-2.66,1.09,1.09,0,0,0-.52-.9,2.93,2.93,0,0,0-.79-.3,6.65,6.65,0,0,0-1.61-.15,10.3,10.3,0,0,0-5.21,1.5A21.88,21.88,0,0,0,451.7,619.26Z" transform="translate(-280.1 -579.36)" style="fill:#777992"/></svg>