<svg id="레이어_1" data-name="레이어 1" xmlns="http://www.w3.org/2000/svg" viewBox="0 0 497.53 105.92"><title>groupPtTxt</title><path d="M187.25,362.63a38.21,38.21,0,0,1-14.82-2.73,33.23,33.23,0,0,1-11.17-7.47,31.85,31.85,0,0,1-7-11.24,39.7,39.7,0,0,1-2.43-14,51.66,51.66,0,0,1,3.89-19.8,54.24,54.24,0,0,1,10.75-16.76A51.63,51.63,0,0,1,182.7,279a48.57,48.57,0,0,1,20.47-4.31q10.93,0,18.4,4.31a36,36,0,0,1,11.84,10.63l-2.19,1.46a39.88,39.88,0,0,0-4.68-5.47,28,28,0,0,0-6-4.43,32.25,32.25,0,0,0-7.71-3,39.34,39.34,0,0,0-9.66-1.09,46.17,46.17,0,0,0-19.37,4.07,48.52,48.52,0,0,0-15.43,11,51.77,51.77,0,0,0-10.2,16,49.36,49.36,0,0,0-3.7,18.89,37.33,37.33,0,0,0,2.25,13.18,30.3,30.3,0,0,0,6.56,10.51,29.76,29.76,0,0,0,10.45,7,36.35,36.35,0,0,0,13.79,2.49,46.58,46.58,0,0,0,14.94-2.37,55.82,55.82,0,0,0,12.51-5.89l8.87-30.73h-30l.73-2.67h32.68l-10,34.86A61.16,61.16,0,0,1,203.16,360,50.42,50.42,0,0,1,187.25,362.63Z" transform="translate(-151.78 -274.69)" style="fill:#424b57"/><path d="M246.65,300.44h2.55l-5.1,18.95a47.68,47.68,0,0,1,6.62-8.69,44.91,44.91,0,0,1,7.71-6.44,34.23,34.23,0,0,1,8.14-3.95,26,26,0,0,1,8-1.34l-.61,2.43h-.24a22.59,22.59,0,0,0-9,2.25,42,42,0,0,0-9.72,6.13,48.2,48.2,0,0,0-8.44,9.17,34.28,34.28,0,0,0-5.34,11.36l-8.26,30.85h-2.55Z" transform="translate(-151.78 -274.69)" style="fill:#424b57"/><path d="M295.12,362.63a29.52,29.52,0,0,1-11.18-2.06,27.15,27.15,0,0,1-8.81-5.65,25.11,25.11,0,0,1-5.77-8.56,27.92,27.92,0,0,1-2.06-10.81,35.06,35.06,0,0,1,2.61-13.18,39.56,39.56,0,0,1,7.29-11.72,36.49,36.49,0,0,1,11.24-8.44A32.65,32.65,0,0,1,303,299,29.53,29.53,0,0,1,314.19,301a27.23,27.23,0,0,1,8.81,5.65,25.21,25.21,0,0,1,5.77,8.56,28,28,0,0,1,2.06,10.81,35.55,35.55,0,0,1-2.61,13.24A38.6,38.6,0,0,1,320.93,351a36.9,36.9,0,0,1-11.24,8.38A32.65,32.65,0,0,1,295.12,362.63Zm.12-2.43a29.55,29.55,0,0,0,13.3-3,35.28,35.28,0,0,0,10.39-7.71,34.92,34.92,0,0,0,6.8-10.81,32.81,32.81,0,0,0,2.43-12.27,26.57,26.57,0,0,0-1.82-9.84,23.58,23.58,0,0,0-5.1-8,23.82,23.82,0,0,0-8-5.28,26.84,26.84,0,0,0-10.39-1.94,29.58,29.58,0,0,0-13.3,3,35.31,35.31,0,0,0-10.39,7.71,34.91,34.91,0,0,0-6.8,10.81A32.76,32.76,0,0,0,270,335.18a26.41,26.41,0,0,0,1.82,9.9,23.22,23.22,0,0,0,13.06,13.18A26.8,26.8,0,0,0,295.24,360.2Z" transform="translate(-151.78 -274.69)" style="fill:#424b57"/><path d="M358.52,362.63q-10.45,0-15.55-5.53t-5.1-14.27a33.51,33.51,0,0,1,.43-5.16,55.88,55.88,0,0,1,1.15-5.53l8.5-31.7h2.55l-8.5,31.7a40.55,40.55,0,0,0-1.46,10.45,23.14,23.14,0,0,0,1,7.11,14.2,14.2,0,0,0,3.22,5.53,15.12,15.12,0,0,0,5.65,3.64,23.1,23.1,0,0,0,8.32,1.34,25.55,25.55,0,0,0,9.29-1.76,29.79,29.79,0,0,0,8.56-5.16,35.14,35.14,0,0,0,7-8.26A41.46,41.46,0,0,0,388.4,334l9-33.53h2.55l-16.28,60.73h-2.55l4.25-15.67a36.45,36.45,0,0,1-4.19,6.32,30.46,30.46,0,0,1-5.89,5.47,29.8,29.8,0,0,1-7.59,3.89A27.75,27.75,0,0,1,358.52,362.63Z" transform="translate(-151.78 -274.69)" style="fill:#424b57"/><path d="M415,300.44h2.55l-4.13,15.31a23.56,23.56,0,0,1,3.95-5.34,37.3,37.3,0,0,1,6.56-5.47,38.9,38.9,0,0,1,8.62-4.25A30.14,30.14,0,0,1,442.7,299a25.35,25.35,0,0,1,10.2,2,24,24,0,0,1,8,5.53,25,25,0,0,1,5.16,8.2,27.7,27.7,0,0,1,1.82,10.14,39.73,39.73,0,0,1-2.43,13.54,40.16,40.16,0,0,1-6.92,12.15,35.49,35.49,0,0,1-10.81,8.75,29.68,29.68,0,0,1-14.09,3.34,28.32,28.32,0,0,1-11-2,25.84,25.84,0,0,1-8.08-5.16,25.33,25.33,0,0,1-5.22-7.11,24.57,24.57,0,0,1-2.43-7.83l-10.81,40.08H393.5Zm18.46,59.76A27.19,27.19,0,0,0,446.52,357a32.9,32.9,0,0,0,10-8.2,38.13,38.13,0,0,0,6.38-11.24,36.14,36.14,0,0,0,2.25-12.39,26.27,26.27,0,0,0-1.64-9.41,22.54,22.54,0,0,0-4.68-7.53,21.93,21.93,0,0,0-7.17-5,22.33,22.33,0,0,0-9.11-1.82,28.8,28.8,0,0,0-13.79,3.34,38.32,38.32,0,0,0-10.69,8.32,39.26,39.26,0,0,0-6.92,10.87,28.36,28.36,0,0,0-2.49,11A28,28,0,0,0,410.45,345a23.89,23.89,0,0,0,5,8,22.23,22.23,0,0,0,7.77,5.28A26.62,26.62,0,0,0,433.47,360.2Z" transform="translate(-151.78 -274.69)" style="fill:#424b57"/><path d="M521.41,276.14h25.87A46.09,46.09,0,0,1,561.43,278a23.92,23.92,0,0,1,9.66,5.77q5.59,5.59,5.59,15.06a25.5,25.5,0,0,1-2.73,11.78,26.2,26.2,0,0,1-7.9,9.17,38.07,38.07,0,0,1-12.57,5.89,62.45,62.45,0,0,1-16.76,2.06H510.23l-9,33.4h-2.67Zm15.43,49.2a57.35,57.35,0,0,0,15.91-2,35.48,35.48,0,0,0,11.66-5.59,24.2,24.2,0,0,0,7.17-8.38A22.67,22.67,0,0,0,574,299q0-8.5-5-13.48a21.78,21.78,0,0,0-8.75-5.16,42.37,42.37,0,0,0-13.12-1.76H523.35l-12.51,46.77Z" transform="translate(-151.78 -274.69)" style="fill:#424b57"/><path d="M615.18,278.57H584.57l.61-2.43h64.14l-.61,2.43H617.86l-22.11,82.6h-2.67Z" transform="translate(-151.78 -274.69)" style="fill:#424b57"/></svg>