<svg id="레이어_1" data-name="레이어 1" xmlns="http://www.w3.org/2000/svg" viewBox="0 0 551.89 190.05"><title>landing</title><path d="M312.47,312h2.32l-19.33,71.84h45.43l-.53,2.11H292.61Z" transform="translate(-292.61 -310.94)" style="fill:#424b57"/><path d="M363.71,387.22a20.41,20.41,0,0,1-6.18-1,17,17,0,0,1-5.39-2.8,14.55,14.55,0,0,1-3.86-4.54,12.62,12.62,0,0,1-1.48-6.18,16.3,16.3,0,0,1,6.6-13.58,21.84,21.84,0,0,1,7.5-3.59,36.16,36.16,0,0,1,9.67-1.21,80.06,80.06,0,0,1,11.52.84A70.64,70.64,0,0,1,393,357.64l.63-2.43a24.61,24.61,0,0,0,1-6.44,13.68,13.68,0,0,0-1.37-6.29,12.28,12.28,0,0,0-3.91-4.49,18.17,18.17,0,0,0-6-2.69,30.52,30.52,0,0,0-7.61-.9,38.19,38.19,0,0,0-8.19.85,59.4,59.4,0,0,0-6.6,1.8l-.63-2.11a45,45,0,0,1,6.92-1.85,45.54,45.54,0,0,1,8.72-.79,32.68,32.68,0,0,1,8.35,1,19.4,19.4,0,0,1,6.55,3,14.26,14.26,0,0,1,4.33,5.12,15.76,15.76,0,0,1,1.58,7.24,28.59,28.59,0,0,1-1,6.87L387.59,386h-2.22l3.38-12.57a27.16,27.16,0,0,1-4,5.39,24.86,24.86,0,0,1-5.49,4.38,29.45,29.45,0,0,1-7,3A31.24,31.24,0,0,1,363.71,387.22Zm.42-2a27.85,27.85,0,0,0,9.72-1.64,27.11,27.11,0,0,0,13.79-11.15,29.9,29.9,0,0,0,3.54-8.13l1.27-4.65a80.63,80.63,0,0,0-10.83-2.32,78.9,78.9,0,0,0-11.46-.85q-9.61,0-15.32,4.23a13.77,13.77,0,0,0-5.7,11.73,11.1,11.1,0,0,0,1.37,5.65,13,13,0,0,0,3.49,4,15,15,0,0,0,4.81,2.38A18.83,18.83,0,0,0,364.14,385.21Z" transform="translate(-292.61 -310.94)" style="fill:#424b57"/><path d="M414.32,333.13h2.22l-3.7,13.63a31.58,31.58,0,0,1,3.65-5.49,26.49,26.49,0,0,1,5.12-4.75,26,26,0,0,1,6.6-3.38,24.13,24.13,0,0,1,8-1.27q9.08,0,13.52,4.81t4.44,12.41a29.32,29.32,0,0,1-.37,4.49,48.88,48.88,0,0,1-1,4.81L445.38,386h-2.22l7.4-27.57a35.25,35.25,0,0,0,1.27-9.09,16.19,16.19,0,0,0-3.75-11Q444.32,334,436,334a22.26,22.26,0,0,0-8.08,1.53,26,26,0,0,0-7.45,4.49,31.65,31.65,0,0,0-6.18,7.18,32.81,32.81,0,0,0-4.07,9.61L402.38,386h-2.22Z" transform="translate(-292.61 -310.94)" style="fill:#424b57"/><path d="M482.46,387.22a22,22,0,0,1-8.87-1.74,20.85,20.85,0,0,1-6.92-4.81,21.66,21.66,0,0,1-4.49-7.13,24.08,24.08,0,0,1-1.58-8.82,34.51,34.51,0,0,1,2.11-11.78,34.87,34.87,0,0,1,6-10.56,30.87,30.87,0,0,1,9.4-7.61,25.8,25.8,0,0,1,12.25-2.91,24.63,24.63,0,0,1,9.56,1.74,22.51,22.51,0,0,1,7,4.49,21.27,21.27,0,0,1,4.49,6.18,24.74,24.74,0,0,1,2.17,6.81L524.19,312h2.22l-19.86,74h-2.22l3.59-13.31a20.49,20.49,0,0,1-3.43,4.65,32.4,32.4,0,0,1-5.71,4.75,33.8,33.8,0,0,1-7.5,3.7A26.23,26.23,0,0,1,482.46,387.22Zm.11-2.11a25,25,0,0,0,12-2.9,33.32,33.32,0,0,0,9.3-7.24,34.17,34.17,0,0,0,6-9.46,24.69,24.69,0,0,0,2.17-9.56,24.43,24.43,0,0,0-1.53-8.77,20.85,20.85,0,0,0-4.33-7,19.29,19.29,0,0,0-6.81-4.6,23.3,23.3,0,0,0-8.87-1.64,23.66,23.66,0,0,0-11.36,2.75,28.63,28.63,0,0,0-8.72,7.13,33.11,33.11,0,0,0-5.55,9.77,31.39,31.39,0,0,0-2,10.78,22.85,22.85,0,0,0,1.43,8.19,19.55,19.55,0,0,0,4.07,6.55,19,19,0,0,0,6.23,4.38A19.41,19.41,0,0,0,482.56,385.11Z" transform="translate(-292.61 -310.94)" style="fill:#424b57"/><path d="M534.86,333.13h2.22L522.92,386H520.7ZM540,312h3.28l-1.69,6h-3.28Z" transform="translate(-292.61 -310.94)" style="fill:#424b57"/><path d="M551.13,333.13h2.22l-3.7,13.63a31.58,31.58,0,0,1,3.65-5.49,26.49,26.49,0,0,1,5.12-4.75,26,26,0,0,1,6.6-3.38,24.13,24.13,0,0,1,8-1.27q9.08,0,13.52,4.81T591,349.08a29.32,29.32,0,0,1-.37,4.49,48.88,48.88,0,0,1-1,4.81L582.19,386H580l7.4-27.57a35.25,35.25,0,0,0,1.27-9.09,16.19,16.19,0,0,0-3.75-11q-3.75-4.33-12.1-4.33a22.26,22.26,0,0,0-8.08,1.53,26,26,0,0,0-7.45,4.49,31.65,31.65,0,0,0-6.18,7.18,32.81,32.81,0,0,0-4.07,9.61L539.19,386H537Z" transform="translate(-292.61 -310.94)" style="fill:#424b57"/><path d="M616.95,402.86a36.53,36.53,0,0,1-13.68-2.64A33.91,33.91,0,0,1,592,393l1.58-1.48a29.11,29.11,0,0,0,10.51,6.76,35.87,35.87,0,0,0,13,2.43,28.29,28.29,0,0,0,9.93-1.69A21.88,21.88,0,0,0,635,394a25.73,25.73,0,0,0,4.38-6.08,42.77,42.77,0,0,0,3.43-9.35l2.64-9.93a26.93,26.93,0,0,1-4.38,5.28,29.89,29.89,0,0,1-5.76,4.23,30.7,30.7,0,0,1-7,2.85,30.27,30.27,0,0,1-8.13,1.06,23.91,23.91,0,0,1-8.5-1.53,22.23,22.23,0,0,1-7.08-4.23,20.32,20.32,0,0,1-4.81-6.44,18.93,18.93,0,0,1-1.8-8.29,28.82,28.82,0,0,1,2.17-10.93,30.64,30.64,0,0,1,6.07-9.51,30.23,30.23,0,0,1,9.3-6.71,27.69,27.69,0,0,1,11.94-2.54,23.93,23.93,0,0,1,9.24,1.69,22.57,22.57,0,0,1,6.92,4.38,21.89,21.89,0,0,1,4.54,6,20.32,20.32,0,0,1,2.11,6.5L655,333.13h2.22l-12.36,46.06a46.84,46.84,0,0,1-3.54,9.61,27.14,27.14,0,0,1-4.81,6.55Q629,402.86,616.95,402.86Zm3.59-22.93a26.88,26.88,0,0,0,11.67-2.48,31.14,31.14,0,0,0,8.93-6.23,27.94,27.94,0,0,0,5.7-8.24,21.09,21.09,0,0,0,2-8.61,19.73,19.73,0,0,0-1.53-7.61,20.46,20.46,0,0,0-4.33-6.55,20.78,20.78,0,0,0-6.76-4.54,22,22,0,0,0-8.72-1.69,25.12,25.12,0,0,0-11,2.38,28.64,28.64,0,0,0-8.56,6.18,28,28,0,0,0-5.6,8.72,26.17,26.17,0,0,0-2,10,18.05,18.05,0,0,0,1.53,7.45,17.44,17.44,0,0,0,4.28,5.92,20.64,20.64,0,0,0,6.39,3.91A21.7,21.7,0,0,0,620.54,379.93Z" transform="translate(-292.61 -310.94)" style="fill:#424b57"/><path d="M709.17,387a40.05,40.05,0,0,1-8.71-1A38.07,38.07,0,0,1,685.3,379a31.21,31.21,0,0,1-5.71-5.71l1.8-1.37a32.29,32.29,0,0,0,12.15,9.56,37.15,37.15,0,0,0,15.85,3.43,29.5,29.5,0,0,0,10.25-1.64A22.73,22.73,0,0,0,727,379a17.48,17.48,0,0,0,4.38-5.86,15.6,15.6,0,0,0,1.48-6.44,12.3,12.3,0,0,0-1.64-6.5,17,17,0,0,0-4.38-4.75,30.93,30.93,0,0,0-6.29-3.59q-3.54-1.53-7.34-3t-7.29-3a32.07,32.07,0,0,1-6.34-3.64,17.08,17.08,0,0,1-4.44-4.86,12.53,12.53,0,0,1-1.69-6.6,17,17,0,0,1,1.69-7.29,19.34,19.34,0,0,1,4.91-6.39,24.44,24.44,0,0,1,8-4.49,33.21,33.21,0,0,1,11-1.69,34.48,34.48,0,0,1,14.21,2.85,32.7,32.7,0,0,1,10.94,7.82l-1.69,1.48a30.49,30.49,0,0,0-10.25-7.34,32.51,32.51,0,0,0-13.42-2.69,29.27,29.27,0,0,0-9.88,1.53,24.08,24.08,0,0,0-7.24,4,16.55,16.55,0,0,0-4.49,5.6,14.67,14.67,0,0,0-1.53,6.44,10.4,10.4,0,0,0,1.64,5.86,16.82,16.82,0,0,0,4.28,4.38,30.62,30.62,0,0,0,6,3.33q3.38,1.43,7,2.8,3.8,1.48,7.5,3.12a32.59,32.59,0,0,1,6.6,3.86,17.48,17.48,0,0,1,4.65,5.28,14.51,14.51,0,0,1,1.74,7.29,18.26,18.26,0,0,1-1.58,7.34,19,19,0,0,1-4.81,6.55,25.36,25.36,0,0,1-8.08,4.75A32.37,32.37,0,0,1,709.17,387Z" transform="translate(-292.61 -310.94)" style="fill:#424b57"/><path d="M755.76,333.13H758L743.83,386h-2.22ZM760.94,312h3.28l-1.69,6h-3.28Z" transform="translate(-292.61 -310.94)" style="fill:#424b57"/><path d="M775.41,386.9q-5.81,0-8.77-2.48t-3-7.24a20.58,20.58,0,0,1,.88-5.39l9.89-36.66h-8.35l.53-2H775l4.86-18.28h2.22l-4.86,18.28h19.54l-.53,2H776.68l-9.83,36.66A20,20,0,0,0,766,377q0,7.82,9.61,7.82a18.22,18.22,0,0,0,3.7-.37,23.12,23.12,0,0,0,3.91-1.22l-.63,2.43a15.71,15.71,0,0,1-3.43,1A23.91,23.91,0,0,1,775.41,386.9Z" transform="translate(-292.61 -310.94)" style="fill:#424b57"/><path d="M796.12,360.18q-.21,1.16-.32,2.43T795.7,365q0,9.3,5.65,14.68t15.58,5.39a30.86,30.86,0,0,0,19.54-7.5l1.37,1.58a32,32,0,0,1-10.56,6.18,32.56,32.56,0,0,1-10.35,1.85,28.15,28.15,0,0,1-9.72-1.58,22.17,22.17,0,0,1-7.45-4.44,18.7,18.7,0,0,1-4.75-6.92,24,24,0,0,1-1.64-9,33.4,33.4,0,0,1,2.43-12.52,35.07,35.07,0,0,1,6.6-10.67,33.27,33.27,0,0,1,9.72-7.4,25.81,25.81,0,0,1,11.78-2.8,22.69,22.69,0,0,1,9.51,1.8,18.33,18.33,0,0,1,6.39,4.7A18,18,0,0,1,843.4,345a26.52,26.52,0,0,1,1.11,7.55q-.11,2-.37,3.91a25.7,25.7,0,0,1-.79,3.7Zm45.43-2q.21-1.48.42-2.85a18.75,18.75,0,0,0,.21-2.85,23.51,23.51,0,0,0-1-6.81,16.62,16.62,0,0,0-3.17-5.92,15.69,15.69,0,0,0-5.65-4.17,20.34,20.34,0,0,0-8.45-1.58,24,24,0,0,0-9.46,1.9,28.44,28.44,0,0,0-8.13,5.23,33.27,33.27,0,0,0-6.23,7.71,30.87,30.87,0,0,0-3.65,9.35Z" transform="translate(-292.61 -310.94)" style="fill:#424b57"/><path d="M312.47,425.77h26.41q11.62,0,17.91,4.81t6.29,13.68a22.39,22.39,0,0,1-1.48,8.08,19.69,19.69,0,0,1-4.54,6.92,26.18,26.18,0,0,1-9.24,5.71,42.1,42.1,0,0,1-14,2.43l16.8,32.33h-2.54L331.38,467.5H303.6l-8.66,32.22h-2.32ZM332,465.39a42.43,42.43,0,0,0,14.26-2.06,24.28,24.28,0,0,0,9.09-5.44,17.55,17.55,0,0,0,4.07-6.23,20.13,20.13,0,0,0,1.32-7.18q0-8-5.76-12.31t-16.32-4.28h-24.4l-10.14,37.5Z" transform="translate(-292.61 -310.94)" style="fill:#424b57"/><path d="M366.78,473.95c-.14.78-.25,1.58-.32,2.43s-.11,1.66-.11,2.43q0,9.3,5.65,14.68t15.58,5.39a30.86,30.86,0,0,0,19.54-7.5l1.37,1.58a32,32,0,0,1-10.56,6.18A32.55,32.55,0,0,1,387.59,501a28.13,28.13,0,0,1-9.72-1.58,22.14,22.14,0,0,1-7.45-4.44,18.71,18.71,0,0,1-4.75-6.92,24,24,0,0,1-1.64-9,33.41,33.41,0,0,1,2.43-12.52,35.08,35.08,0,0,1,6.6-10.67,33.28,33.28,0,0,1,9.72-7.4,25.8,25.8,0,0,1,11.78-2.8,22.7,22.7,0,0,1,9.51,1.8,18.35,18.35,0,0,1,6.39,4.7,18,18,0,0,1,3.59,6.66,26.51,26.51,0,0,1,1.11,7.55q-.11,2-.37,3.91a25.68,25.68,0,0,1-.79,3.7Zm45.43-2q.21-1.48.42-2.85a18.76,18.76,0,0,0,.21-2.85,23.5,23.5,0,0,0-1-6.81,16.62,16.62,0,0,0-3.17-5.92,15.71,15.71,0,0,0-5.65-4.17,20.34,20.34,0,0,0-8.45-1.58,24,24,0,0,0-9.46,1.9,28.4,28.4,0,0,0-8.13,5.23,33.28,33.28,0,0,0-6.23,7.71,30.89,30.89,0,0,0-3.64,9.35Z" transform="translate(-292.61 -310.94)" style="fill:#424b57"/><path d="M431.22,446.9h2.22l-3.7,13.63a31.56,31.56,0,0,1,3.65-5.49,26.51,26.51,0,0,1,5.12-4.75,26,26,0,0,1,6.6-3.38,24.14,24.14,0,0,1,8-1.27q9.08,0,13.52,4.81t4.44,12.41a29.31,29.31,0,0,1-.37,4.49,48.85,48.85,0,0,1-1,4.81l-7.4,27.57h-2.22l7.4-27.57a35.25,35.25,0,0,0,1.27-9.09,16.19,16.19,0,0,0-3.75-11q-3.75-4.33-12.1-4.33a22.25,22.25,0,0,0-8.08,1.53,26,26,0,0,0-7.45,4.49,31.65,31.65,0,0,0-6.18,7.18,32.81,32.81,0,0,0-4.07,9.61l-7.82,29.16h-2.22Z" transform="translate(-292.61 -310.94)" style="fill:#424b57"/><path d="M479.92,473.95c-.14.78-.25,1.58-.32,2.43s-.11,1.66-.11,2.43q0,9.3,5.65,14.68t15.58,5.39a30.86,30.86,0,0,0,19.54-7.5l1.37,1.58a32,32,0,0,1-10.56,6.18A32.55,32.55,0,0,1,500.74,501a28.13,28.13,0,0,1-9.72-1.58,22.14,22.14,0,0,1-7.45-4.44,18.71,18.71,0,0,1-4.75-6.92,24,24,0,0,1-1.64-9,33.41,33.41,0,0,1,2.43-12.52,35.08,35.08,0,0,1,6.6-10.67,33.28,33.28,0,0,1,9.72-7.4,25.8,25.8,0,0,1,11.78-2.8,22.7,22.7,0,0,1,9.51,1.8,18.35,18.35,0,0,1,6.39,4.7,18,18,0,0,1,3.59,6.66,26.51,26.51,0,0,1,1.11,7.55q-.11,2-.37,3.91a25.68,25.68,0,0,1-.79,3.7Zm45.43-2q.21-1.48.42-2.85a18.76,18.76,0,0,0,.21-2.85,23.5,23.5,0,0,0-1-6.81,16.62,16.62,0,0,0-3.17-5.92,15.71,15.71,0,0,0-5.65-4.17,20.34,20.34,0,0,0-8.45-1.58,24,24,0,0,0-9.46,1.9,28.4,28.4,0,0,0-8.13,5.23,33.28,33.28,0,0,0-6.23,7.71,30.89,30.89,0,0,0-3.64,9.35Z" transform="translate(-292.61 -310.94)" style="fill:#424b57"/><path d="M539.09,446.9h2.22l3.91,49.76,30.53-50.08h1.9l3.49,50.08,30.11-49.76h2.43l-32.43,53.25h-1.9l-3.59-49.87-30.32,49.87h-1.9Z" transform="translate(-292.61 -310.94)" style="fill:#424b57"/><path d="M625.93,501a20.41,20.41,0,0,1-6.18-1,17.08,17.08,0,0,1-5.39-2.8,14.55,14.55,0,0,1-3.86-4.54,12.62,12.62,0,0,1-1.48-6.18,16.3,16.3,0,0,1,6.6-13.58,21.83,21.83,0,0,1,7.5-3.59,36.18,36.18,0,0,1,9.67-1.21,79.92,79.92,0,0,1,11.52.85,70.58,70.58,0,0,1,10.88,2.43l.63-2.43a24.61,24.61,0,0,0,1-6.44,13.68,13.68,0,0,0-1.37-6.29,12.28,12.28,0,0,0-3.91-4.49,18.16,18.16,0,0,0-6-2.69,30.5,30.5,0,0,0-7.61-.9,38.22,38.22,0,0,0-8.19.84,59.4,59.4,0,0,0-6.6,1.8l-.63-2.11a45,45,0,0,1,6.92-1.85,45.54,45.54,0,0,1,8.72-.79,32.68,32.68,0,0,1,8.35,1,19.4,19.4,0,0,1,6.55,3,14.25,14.25,0,0,1,4.33,5.12,15.76,15.76,0,0,1,1.58,7.24,28.58,28.58,0,0,1-1,6.87l-8.13,30.43h-2.22L651,487.16a27.15,27.15,0,0,1-4,5.39,24.88,24.88,0,0,1-5.49,4.38,29.45,29.45,0,0,1-7,3A31.24,31.24,0,0,1,625.93,501Zm.42-2a27.85,27.85,0,0,0,9.72-1.64,27.12,27.12,0,0,0,13.79-11.15,29.9,29.9,0,0,0,3.54-8.14l1.27-4.65a80.78,80.78,0,0,0-10.83-2.32,79,79,0,0,0-11.46-.84q-9.61,0-15.32,4.23a13.78,13.78,0,0,0-5.7,11.73,11.1,11.1,0,0,0,1.37,5.65,13,13,0,0,0,3.49,4A15,15,0,0,0,621,498.2,18.83,18.83,0,0,0,626.35,499Z" transform="translate(-292.61 -310.94)" style="fill:#424b57"/><path d="M683.72,422.6h2.22l-20.71,77.12H663Z" transform="translate(-292.61 -310.94)" style="fill:#424b57"/></svg>